G04 #@! TF.GenerationSoftware,KiCad,Pcbnew,5.1.4-e60b266~84~ubuntu18.04.1*
G04 #@! TF.CreationDate,2019-10-31T20:09:33+08:00*
G04 #@! TF.ProjectId,dap-stm32f103,6461702d-7374-46d3-9332-663130332e6b,rev?*
G04 #@! TF.SameCoordinates,Original*
G04 #@! TF.FileFunction,Paste,Top*
G04 #@! TF.FilePolarity,Positive*
%FSLAX46Y46*%
G04 Gerber Fmt 4.6, Leading zero omitted, Abs format (unit mm)*
G04 Created by KiCad (PCBNEW 5.1.4-e60b266~84~ubuntu18.04.1) date 2019-10-31 20:09:33*
%MOMM*%
%LPD*%
G04 APERTURE LIST*
%ADD10R,0.650000X0.600000*%
%ADD11R,0.600000X0.650000*%
%ADD12R,1.900000X2.400000*%
%ADD13O,1.900000X0.700000*%
%ADD14O,3.500000X2.000000*%
%ADD15O,2.100000X0.700000*%
%ADD16C,0.100000*%
%ADD17C,0.300000*%
%ADD18C,0.600000*%
%ADD19R,0.980000X0.930000*%
G04 APERTURE END LIST*
D10*
X122298000Y-87839000D03*
X122298000Y-88689000D03*
D11*
X133859000Y-92008000D03*
X133009000Y-92008000D03*
D12*
X125254000Y-92458000D03*
X129354000Y-92458000D03*
D13*
X119774000Y-90558000D03*
D14*
X117274000Y-92058000D03*
D15*
X119674000Y-92058000D03*
D13*
X119774000Y-93558000D03*
D16*
G36*
X122961351Y-85361861D02*
G01*
X122968632Y-85362941D01*
X122975771Y-85364729D01*
X122982701Y-85367209D01*
X122989355Y-85370356D01*
X122995668Y-85374140D01*
X123001579Y-85378524D01*
X123007033Y-85383467D01*
X123011976Y-85388921D01*
X123016360Y-85394832D01*
X123020144Y-85401145D01*
X123023291Y-85407799D01*
X123025771Y-85414729D01*
X123027559Y-85421868D01*
X123028639Y-85429149D01*
X123029000Y-85436500D01*
X123029000Y-86761500D01*
X123028639Y-86768851D01*
X123027559Y-86776132D01*
X123025771Y-86783271D01*
X123023291Y-86790201D01*
X123020144Y-86796855D01*
X123016360Y-86803168D01*
X123011976Y-86809079D01*
X123007033Y-86814533D01*
X123001579Y-86819476D01*
X122995668Y-86823860D01*
X122989355Y-86827644D01*
X122982701Y-86830791D01*
X122975771Y-86833271D01*
X122968632Y-86835059D01*
X122961351Y-86836139D01*
X122954000Y-86836500D01*
X122804000Y-86836500D01*
X122796649Y-86836139D01*
X122789368Y-86835059D01*
X122782229Y-86833271D01*
X122775299Y-86830791D01*
X122768645Y-86827644D01*
X122762332Y-86823860D01*
X122756421Y-86819476D01*
X122750967Y-86814533D01*
X122746024Y-86809079D01*
X122741640Y-86803168D01*
X122737856Y-86796855D01*
X122734709Y-86790201D01*
X122732229Y-86783271D01*
X122730441Y-86776132D01*
X122729361Y-86768851D01*
X122729000Y-86761500D01*
X122729000Y-85436500D01*
X122729361Y-85429149D01*
X122730441Y-85421868D01*
X122732229Y-85414729D01*
X122734709Y-85407799D01*
X122737856Y-85401145D01*
X122741640Y-85394832D01*
X122746024Y-85388921D01*
X122750967Y-85383467D01*
X122756421Y-85378524D01*
X122762332Y-85374140D01*
X122768645Y-85370356D01*
X122775299Y-85367209D01*
X122782229Y-85364729D01*
X122789368Y-85362941D01*
X122796649Y-85361861D01*
X122804000Y-85361500D01*
X122954000Y-85361500D01*
X122961351Y-85361861D01*
X122961351Y-85361861D01*
G37*
D17*
X122879000Y-86099000D03*
D16*
G36*
X123461351Y-85361861D02*
G01*
X123468632Y-85362941D01*
X123475771Y-85364729D01*
X123482701Y-85367209D01*
X123489355Y-85370356D01*
X123495668Y-85374140D01*
X123501579Y-85378524D01*
X123507033Y-85383467D01*
X123511976Y-85388921D01*
X123516360Y-85394832D01*
X123520144Y-85401145D01*
X123523291Y-85407799D01*
X123525771Y-85414729D01*
X123527559Y-85421868D01*
X123528639Y-85429149D01*
X123529000Y-85436500D01*
X123529000Y-86761500D01*
X123528639Y-86768851D01*
X123527559Y-86776132D01*
X123525771Y-86783271D01*
X123523291Y-86790201D01*
X123520144Y-86796855D01*
X123516360Y-86803168D01*
X123511976Y-86809079D01*
X123507033Y-86814533D01*
X123501579Y-86819476D01*
X123495668Y-86823860D01*
X123489355Y-86827644D01*
X123482701Y-86830791D01*
X123475771Y-86833271D01*
X123468632Y-86835059D01*
X123461351Y-86836139D01*
X123454000Y-86836500D01*
X123304000Y-86836500D01*
X123296649Y-86836139D01*
X123289368Y-86835059D01*
X123282229Y-86833271D01*
X123275299Y-86830791D01*
X123268645Y-86827644D01*
X123262332Y-86823860D01*
X123256421Y-86819476D01*
X123250967Y-86814533D01*
X123246024Y-86809079D01*
X123241640Y-86803168D01*
X123237856Y-86796855D01*
X123234709Y-86790201D01*
X123232229Y-86783271D01*
X123230441Y-86776132D01*
X123229361Y-86768851D01*
X123229000Y-86761500D01*
X123229000Y-85436500D01*
X123229361Y-85429149D01*
X123230441Y-85421868D01*
X123232229Y-85414729D01*
X123234709Y-85407799D01*
X123237856Y-85401145D01*
X123241640Y-85394832D01*
X123246024Y-85388921D01*
X123250967Y-85383467D01*
X123256421Y-85378524D01*
X123262332Y-85374140D01*
X123268645Y-85370356D01*
X123275299Y-85367209D01*
X123282229Y-85364729D01*
X123289368Y-85362941D01*
X123296649Y-85361861D01*
X123304000Y-85361500D01*
X123454000Y-85361500D01*
X123461351Y-85361861D01*
X123461351Y-85361861D01*
G37*
D17*
X123379000Y-86099000D03*
D16*
G36*
X123961351Y-85361861D02*
G01*
X123968632Y-85362941D01*
X123975771Y-85364729D01*
X123982701Y-85367209D01*
X123989355Y-85370356D01*
X123995668Y-85374140D01*
X124001579Y-85378524D01*
X124007033Y-85383467D01*
X124011976Y-85388921D01*
X124016360Y-85394832D01*
X124020144Y-85401145D01*
X124023291Y-85407799D01*
X124025771Y-85414729D01*
X124027559Y-85421868D01*
X124028639Y-85429149D01*
X124029000Y-85436500D01*
X124029000Y-86761500D01*
X124028639Y-86768851D01*
X124027559Y-86776132D01*
X124025771Y-86783271D01*
X124023291Y-86790201D01*
X124020144Y-86796855D01*
X124016360Y-86803168D01*
X124011976Y-86809079D01*
X124007033Y-86814533D01*
X124001579Y-86819476D01*
X123995668Y-86823860D01*
X123989355Y-86827644D01*
X123982701Y-86830791D01*
X123975771Y-86833271D01*
X123968632Y-86835059D01*
X123961351Y-86836139D01*
X123954000Y-86836500D01*
X123804000Y-86836500D01*
X123796649Y-86836139D01*
X123789368Y-86835059D01*
X123782229Y-86833271D01*
X123775299Y-86830791D01*
X123768645Y-86827644D01*
X123762332Y-86823860D01*
X123756421Y-86819476D01*
X123750967Y-86814533D01*
X123746024Y-86809079D01*
X123741640Y-86803168D01*
X123737856Y-86796855D01*
X123734709Y-86790201D01*
X123732229Y-86783271D01*
X123730441Y-86776132D01*
X123729361Y-86768851D01*
X123729000Y-86761500D01*
X123729000Y-85436500D01*
X123729361Y-85429149D01*
X123730441Y-85421868D01*
X123732229Y-85414729D01*
X123734709Y-85407799D01*
X123737856Y-85401145D01*
X123741640Y-85394832D01*
X123746024Y-85388921D01*
X123750967Y-85383467D01*
X123756421Y-85378524D01*
X123762332Y-85374140D01*
X123768645Y-85370356D01*
X123775299Y-85367209D01*
X123782229Y-85364729D01*
X123789368Y-85362941D01*
X123796649Y-85361861D01*
X123804000Y-85361500D01*
X123954000Y-85361500D01*
X123961351Y-85361861D01*
X123961351Y-85361861D01*
G37*
D17*
X123879000Y-86099000D03*
D16*
G36*
X124461351Y-85361861D02*
G01*
X124468632Y-85362941D01*
X124475771Y-85364729D01*
X124482701Y-85367209D01*
X124489355Y-85370356D01*
X124495668Y-85374140D01*
X124501579Y-85378524D01*
X124507033Y-85383467D01*
X124511976Y-85388921D01*
X124516360Y-85394832D01*
X124520144Y-85401145D01*
X124523291Y-85407799D01*
X124525771Y-85414729D01*
X124527559Y-85421868D01*
X124528639Y-85429149D01*
X124529000Y-85436500D01*
X124529000Y-86761500D01*
X124528639Y-86768851D01*
X124527559Y-86776132D01*
X124525771Y-86783271D01*
X124523291Y-86790201D01*
X124520144Y-86796855D01*
X124516360Y-86803168D01*
X124511976Y-86809079D01*
X124507033Y-86814533D01*
X124501579Y-86819476D01*
X124495668Y-86823860D01*
X124489355Y-86827644D01*
X124482701Y-86830791D01*
X124475771Y-86833271D01*
X124468632Y-86835059D01*
X124461351Y-86836139D01*
X124454000Y-86836500D01*
X124304000Y-86836500D01*
X124296649Y-86836139D01*
X124289368Y-86835059D01*
X124282229Y-86833271D01*
X124275299Y-86830791D01*
X124268645Y-86827644D01*
X124262332Y-86823860D01*
X124256421Y-86819476D01*
X124250967Y-86814533D01*
X124246024Y-86809079D01*
X124241640Y-86803168D01*
X124237856Y-86796855D01*
X124234709Y-86790201D01*
X124232229Y-86783271D01*
X124230441Y-86776132D01*
X124229361Y-86768851D01*
X124229000Y-86761500D01*
X124229000Y-85436500D01*
X124229361Y-85429149D01*
X124230441Y-85421868D01*
X124232229Y-85414729D01*
X124234709Y-85407799D01*
X124237856Y-85401145D01*
X124241640Y-85394832D01*
X124246024Y-85388921D01*
X124250967Y-85383467D01*
X124256421Y-85378524D01*
X124262332Y-85374140D01*
X124268645Y-85370356D01*
X124275299Y-85367209D01*
X124282229Y-85364729D01*
X124289368Y-85362941D01*
X124296649Y-85361861D01*
X124304000Y-85361500D01*
X124454000Y-85361500D01*
X124461351Y-85361861D01*
X124461351Y-85361861D01*
G37*
D17*
X124379000Y-86099000D03*
D16*
G36*
X124961351Y-85361861D02*
G01*
X124968632Y-85362941D01*
X124975771Y-85364729D01*
X124982701Y-85367209D01*
X124989355Y-85370356D01*
X124995668Y-85374140D01*
X125001579Y-85378524D01*
X125007033Y-85383467D01*
X125011976Y-85388921D01*
X125016360Y-85394832D01*
X125020144Y-85401145D01*
X125023291Y-85407799D01*
X125025771Y-85414729D01*
X125027559Y-85421868D01*
X125028639Y-85429149D01*
X125029000Y-85436500D01*
X125029000Y-86761500D01*
X125028639Y-86768851D01*
X125027559Y-86776132D01*
X125025771Y-86783271D01*
X125023291Y-86790201D01*
X125020144Y-86796855D01*
X125016360Y-86803168D01*
X125011976Y-86809079D01*
X125007033Y-86814533D01*
X125001579Y-86819476D01*
X124995668Y-86823860D01*
X124989355Y-86827644D01*
X124982701Y-86830791D01*
X124975771Y-86833271D01*
X124968632Y-86835059D01*
X124961351Y-86836139D01*
X124954000Y-86836500D01*
X124804000Y-86836500D01*
X124796649Y-86836139D01*
X124789368Y-86835059D01*
X124782229Y-86833271D01*
X124775299Y-86830791D01*
X124768645Y-86827644D01*
X124762332Y-86823860D01*
X124756421Y-86819476D01*
X124750967Y-86814533D01*
X124746024Y-86809079D01*
X124741640Y-86803168D01*
X124737856Y-86796855D01*
X124734709Y-86790201D01*
X124732229Y-86783271D01*
X124730441Y-86776132D01*
X124729361Y-86768851D01*
X124729000Y-86761500D01*
X124729000Y-85436500D01*
X124729361Y-85429149D01*
X124730441Y-85421868D01*
X124732229Y-85414729D01*
X124734709Y-85407799D01*
X124737856Y-85401145D01*
X124741640Y-85394832D01*
X124746024Y-85388921D01*
X124750967Y-85383467D01*
X124756421Y-85378524D01*
X124762332Y-85374140D01*
X124768645Y-85370356D01*
X124775299Y-85367209D01*
X124782229Y-85364729D01*
X124789368Y-85362941D01*
X124796649Y-85361861D01*
X124804000Y-85361500D01*
X124954000Y-85361500D01*
X124961351Y-85361861D01*
X124961351Y-85361861D01*
G37*
D17*
X124879000Y-86099000D03*
D16*
G36*
X125461351Y-85361861D02*
G01*
X125468632Y-85362941D01*
X125475771Y-85364729D01*
X125482701Y-85367209D01*
X125489355Y-85370356D01*
X125495668Y-85374140D01*
X125501579Y-85378524D01*
X125507033Y-85383467D01*
X125511976Y-85388921D01*
X125516360Y-85394832D01*
X125520144Y-85401145D01*
X125523291Y-85407799D01*
X125525771Y-85414729D01*
X125527559Y-85421868D01*
X125528639Y-85429149D01*
X125529000Y-85436500D01*
X125529000Y-86761500D01*
X125528639Y-86768851D01*
X125527559Y-86776132D01*
X125525771Y-86783271D01*
X125523291Y-86790201D01*
X125520144Y-86796855D01*
X125516360Y-86803168D01*
X125511976Y-86809079D01*
X125507033Y-86814533D01*
X125501579Y-86819476D01*
X125495668Y-86823860D01*
X125489355Y-86827644D01*
X125482701Y-86830791D01*
X125475771Y-86833271D01*
X125468632Y-86835059D01*
X125461351Y-86836139D01*
X125454000Y-86836500D01*
X125304000Y-86836500D01*
X125296649Y-86836139D01*
X125289368Y-86835059D01*
X125282229Y-86833271D01*
X125275299Y-86830791D01*
X125268645Y-86827644D01*
X125262332Y-86823860D01*
X125256421Y-86819476D01*
X125250967Y-86814533D01*
X125246024Y-86809079D01*
X125241640Y-86803168D01*
X125237856Y-86796855D01*
X125234709Y-86790201D01*
X125232229Y-86783271D01*
X125230441Y-86776132D01*
X125229361Y-86768851D01*
X125229000Y-86761500D01*
X125229000Y-85436500D01*
X125229361Y-85429149D01*
X125230441Y-85421868D01*
X125232229Y-85414729D01*
X125234709Y-85407799D01*
X125237856Y-85401145D01*
X125241640Y-85394832D01*
X125246024Y-85388921D01*
X125250967Y-85383467D01*
X125256421Y-85378524D01*
X125262332Y-85374140D01*
X125268645Y-85370356D01*
X125275299Y-85367209D01*
X125282229Y-85364729D01*
X125289368Y-85362941D01*
X125296649Y-85361861D01*
X125304000Y-85361500D01*
X125454000Y-85361500D01*
X125461351Y-85361861D01*
X125461351Y-85361861D01*
G37*
D17*
X125379000Y-86099000D03*
D16*
G36*
X125961351Y-85361861D02*
G01*
X125968632Y-85362941D01*
X125975771Y-85364729D01*
X125982701Y-85367209D01*
X125989355Y-85370356D01*
X125995668Y-85374140D01*
X126001579Y-85378524D01*
X126007033Y-85383467D01*
X126011976Y-85388921D01*
X126016360Y-85394832D01*
X126020144Y-85401145D01*
X126023291Y-85407799D01*
X126025771Y-85414729D01*
X126027559Y-85421868D01*
X126028639Y-85429149D01*
X126029000Y-85436500D01*
X126029000Y-86761500D01*
X126028639Y-86768851D01*
X126027559Y-86776132D01*
X126025771Y-86783271D01*
X126023291Y-86790201D01*
X126020144Y-86796855D01*
X126016360Y-86803168D01*
X126011976Y-86809079D01*
X126007033Y-86814533D01*
X126001579Y-86819476D01*
X125995668Y-86823860D01*
X125989355Y-86827644D01*
X125982701Y-86830791D01*
X125975771Y-86833271D01*
X125968632Y-86835059D01*
X125961351Y-86836139D01*
X125954000Y-86836500D01*
X125804000Y-86836500D01*
X125796649Y-86836139D01*
X125789368Y-86835059D01*
X125782229Y-86833271D01*
X125775299Y-86830791D01*
X125768645Y-86827644D01*
X125762332Y-86823860D01*
X125756421Y-86819476D01*
X125750967Y-86814533D01*
X125746024Y-86809079D01*
X125741640Y-86803168D01*
X125737856Y-86796855D01*
X125734709Y-86790201D01*
X125732229Y-86783271D01*
X125730441Y-86776132D01*
X125729361Y-86768851D01*
X125729000Y-86761500D01*
X125729000Y-85436500D01*
X125729361Y-85429149D01*
X125730441Y-85421868D01*
X125732229Y-85414729D01*
X125734709Y-85407799D01*
X125737856Y-85401145D01*
X125741640Y-85394832D01*
X125746024Y-85388921D01*
X125750967Y-85383467D01*
X125756421Y-85378524D01*
X125762332Y-85374140D01*
X125768645Y-85370356D01*
X125775299Y-85367209D01*
X125782229Y-85364729D01*
X125789368Y-85362941D01*
X125796649Y-85361861D01*
X125804000Y-85361500D01*
X125954000Y-85361500D01*
X125961351Y-85361861D01*
X125961351Y-85361861D01*
G37*
D17*
X125879000Y-86099000D03*
D16*
G36*
X126461351Y-85361861D02*
G01*
X126468632Y-85362941D01*
X126475771Y-85364729D01*
X126482701Y-85367209D01*
X126489355Y-85370356D01*
X126495668Y-85374140D01*
X126501579Y-85378524D01*
X126507033Y-85383467D01*
X126511976Y-85388921D01*
X126516360Y-85394832D01*
X126520144Y-85401145D01*
X126523291Y-85407799D01*
X126525771Y-85414729D01*
X126527559Y-85421868D01*
X126528639Y-85429149D01*
X126529000Y-85436500D01*
X126529000Y-86761500D01*
X126528639Y-86768851D01*
X126527559Y-86776132D01*
X126525771Y-86783271D01*
X126523291Y-86790201D01*
X126520144Y-86796855D01*
X126516360Y-86803168D01*
X126511976Y-86809079D01*
X126507033Y-86814533D01*
X126501579Y-86819476D01*
X126495668Y-86823860D01*
X126489355Y-86827644D01*
X126482701Y-86830791D01*
X126475771Y-86833271D01*
X126468632Y-86835059D01*
X126461351Y-86836139D01*
X126454000Y-86836500D01*
X126304000Y-86836500D01*
X126296649Y-86836139D01*
X126289368Y-86835059D01*
X126282229Y-86833271D01*
X126275299Y-86830791D01*
X126268645Y-86827644D01*
X126262332Y-86823860D01*
X126256421Y-86819476D01*
X126250967Y-86814533D01*
X126246024Y-86809079D01*
X126241640Y-86803168D01*
X126237856Y-86796855D01*
X126234709Y-86790201D01*
X126232229Y-86783271D01*
X126230441Y-86776132D01*
X126229361Y-86768851D01*
X126229000Y-86761500D01*
X126229000Y-85436500D01*
X126229361Y-85429149D01*
X126230441Y-85421868D01*
X126232229Y-85414729D01*
X126234709Y-85407799D01*
X126237856Y-85401145D01*
X126241640Y-85394832D01*
X126246024Y-85388921D01*
X126250967Y-85383467D01*
X126256421Y-85378524D01*
X126262332Y-85374140D01*
X126268645Y-85370356D01*
X126275299Y-85367209D01*
X126282229Y-85364729D01*
X126289368Y-85362941D01*
X126296649Y-85361861D01*
X126304000Y-85361500D01*
X126454000Y-85361500D01*
X126461351Y-85361861D01*
X126461351Y-85361861D01*
G37*
D17*
X126379000Y-86099000D03*
D16*
G36*
X126961351Y-85361861D02*
G01*
X126968632Y-85362941D01*
X126975771Y-85364729D01*
X126982701Y-85367209D01*
X126989355Y-85370356D01*
X126995668Y-85374140D01*
X127001579Y-85378524D01*
X127007033Y-85383467D01*
X127011976Y-85388921D01*
X127016360Y-85394832D01*
X127020144Y-85401145D01*
X127023291Y-85407799D01*
X127025771Y-85414729D01*
X127027559Y-85421868D01*
X127028639Y-85429149D01*
X127029000Y-85436500D01*
X127029000Y-86761500D01*
X127028639Y-86768851D01*
X127027559Y-86776132D01*
X127025771Y-86783271D01*
X127023291Y-86790201D01*
X127020144Y-86796855D01*
X127016360Y-86803168D01*
X127011976Y-86809079D01*
X127007033Y-86814533D01*
X127001579Y-86819476D01*
X126995668Y-86823860D01*
X126989355Y-86827644D01*
X126982701Y-86830791D01*
X126975771Y-86833271D01*
X126968632Y-86835059D01*
X126961351Y-86836139D01*
X126954000Y-86836500D01*
X126804000Y-86836500D01*
X126796649Y-86836139D01*
X126789368Y-86835059D01*
X126782229Y-86833271D01*
X126775299Y-86830791D01*
X126768645Y-86827644D01*
X126762332Y-86823860D01*
X126756421Y-86819476D01*
X126750967Y-86814533D01*
X126746024Y-86809079D01*
X126741640Y-86803168D01*
X126737856Y-86796855D01*
X126734709Y-86790201D01*
X126732229Y-86783271D01*
X126730441Y-86776132D01*
X126729361Y-86768851D01*
X126729000Y-86761500D01*
X126729000Y-85436500D01*
X126729361Y-85429149D01*
X126730441Y-85421868D01*
X126732229Y-85414729D01*
X126734709Y-85407799D01*
X126737856Y-85401145D01*
X126741640Y-85394832D01*
X126746024Y-85388921D01*
X126750967Y-85383467D01*
X126756421Y-85378524D01*
X126762332Y-85374140D01*
X126768645Y-85370356D01*
X126775299Y-85367209D01*
X126782229Y-85364729D01*
X126789368Y-85362941D01*
X126796649Y-85361861D01*
X126804000Y-85361500D01*
X126954000Y-85361500D01*
X126961351Y-85361861D01*
X126961351Y-85361861D01*
G37*
D17*
X126879000Y-86099000D03*
D16*
G36*
X127461351Y-85361861D02*
G01*
X127468632Y-85362941D01*
X127475771Y-85364729D01*
X127482701Y-85367209D01*
X127489355Y-85370356D01*
X127495668Y-85374140D01*
X127501579Y-85378524D01*
X127507033Y-85383467D01*
X127511976Y-85388921D01*
X127516360Y-85394832D01*
X127520144Y-85401145D01*
X127523291Y-85407799D01*
X127525771Y-85414729D01*
X127527559Y-85421868D01*
X127528639Y-85429149D01*
X127529000Y-85436500D01*
X127529000Y-86761500D01*
X127528639Y-86768851D01*
X127527559Y-86776132D01*
X127525771Y-86783271D01*
X127523291Y-86790201D01*
X127520144Y-86796855D01*
X127516360Y-86803168D01*
X127511976Y-86809079D01*
X127507033Y-86814533D01*
X127501579Y-86819476D01*
X127495668Y-86823860D01*
X127489355Y-86827644D01*
X127482701Y-86830791D01*
X127475771Y-86833271D01*
X127468632Y-86835059D01*
X127461351Y-86836139D01*
X127454000Y-86836500D01*
X127304000Y-86836500D01*
X127296649Y-86836139D01*
X127289368Y-86835059D01*
X127282229Y-86833271D01*
X127275299Y-86830791D01*
X127268645Y-86827644D01*
X127262332Y-86823860D01*
X127256421Y-86819476D01*
X127250967Y-86814533D01*
X127246024Y-86809079D01*
X127241640Y-86803168D01*
X127237856Y-86796855D01*
X127234709Y-86790201D01*
X127232229Y-86783271D01*
X127230441Y-86776132D01*
X127229361Y-86768851D01*
X127229000Y-86761500D01*
X127229000Y-85436500D01*
X127229361Y-85429149D01*
X127230441Y-85421868D01*
X127232229Y-85414729D01*
X127234709Y-85407799D01*
X127237856Y-85401145D01*
X127241640Y-85394832D01*
X127246024Y-85388921D01*
X127250967Y-85383467D01*
X127256421Y-85378524D01*
X127262332Y-85374140D01*
X127268645Y-85370356D01*
X127275299Y-85367209D01*
X127282229Y-85364729D01*
X127289368Y-85362941D01*
X127296649Y-85361861D01*
X127304000Y-85361500D01*
X127454000Y-85361500D01*
X127461351Y-85361861D01*
X127461351Y-85361861D01*
G37*
D17*
X127379000Y-86099000D03*
D16*
G36*
X127961351Y-85361861D02*
G01*
X127968632Y-85362941D01*
X127975771Y-85364729D01*
X127982701Y-85367209D01*
X127989355Y-85370356D01*
X127995668Y-85374140D01*
X128001579Y-85378524D01*
X128007033Y-85383467D01*
X128011976Y-85388921D01*
X128016360Y-85394832D01*
X128020144Y-85401145D01*
X128023291Y-85407799D01*
X128025771Y-85414729D01*
X128027559Y-85421868D01*
X128028639Y-85429149D01*
X128029000Y-85436500D01*
X128029000Y-86761500D01*
X128028639Y-86768851D01*
X128027559Y-86776132D01*
X128025771Y-86783271D01*
X128023291Y-86790201D01*
X128020144Y-86796855D01*
X128016360Y-86803168D01*
X128011976Y-86809079D01*
X128007033Y-86814533D01*
X128001579Y-86819476D01*
X127995668Y-86823860D01*
X127989355Y-86827644D01*
X127982701Y-86830791D01*
X127975771Y-86833271D01*
X127968632Y-86835059D01*
X127961351Y-86836139D01*
X127954000Y-86836500D01*
X127804000Y-86836500D01*
X127796649Y-86836139D01*
X127789368Y-86835059D01*
X127782229Y-86833271D01*
X127775299Y-86830791D01*
X127768645Y-86827644D01*
X127762332Y-86823860D01*
X127756421Y-86819476D01*
X127750967Y-86814533D01*
X127746024Y-86809079D01*
X127741640Y-86803168D01*
X127737856Y-86796855D01*
X127734709Y-86790201D01*
X127732229Y-86783271D01*
X127730441Y-86776132D01*
X127729361Y-86768851D01*
X127729000Y-86761500D01*
X127729000Y-85436500D01*
X127729361Y-85429149D01*
X127730441Y-85421868D01*
X127732229Y-85414729D01*
X127734709Y-85407799D01*
X127737856Y-85401145D01*
X127741640Y-85394832D01*
X127746024Y-85388921D01*
X127750967Y-85383467D01*
X127756421Y-85378524D01*
X127762332Y-85374140D01*
X127768645Y-85370356D01*
X127775299Y-85367209D01*
X127782229Y-85364729D01*
X127789368Y-85362941D01*
X127796649Y-85361861D01*
X127804000Y-85361500D01*
X127954000Y-85361500D01*
X127961351Y-85361861D01*
X127961351Y-85361861D01*
G37*
D17*
X127879000Y-86099000D03*
D16*
G36*
X128461351Y-85361861D02*
G01*
X128468632Y-85362941D01*
X128475771Y-85364729D01*
X128482701Y-85367209D01*
X128489355Y-85370356D01*
X128495668Y-85374140D01*
X128501579Y-85378524D01*
X128507033Y-85383467D01*
X128511976Y-85388921D01*
X128516360Y-85394832D01*
X128520144Y-85401145D01*
X128523291Y-85407799D01*
X128525771Y-85414729D01*
X128527559Y-85421868D01*
X128528639Y-85429149D01*
X128529000Y-85436500D01*
X128529000Y-86761500D01*
X128528639Y-86768851D01*
X128527559Y-86776132D01*
X128525771Y-86783271D01*
X128523291Y-86790201D01*
X128520144Y-86796855D01*
X128516360Y-86803168D01*
X128511976Y-86809079D01*
X128507033Y-86814533D01*
X128501579Y-86819476D01*
X128495668Y-86823860D01*
X128489355Y-86827644D01*
X128482701Y-86830791D01*
X128475771Y-86833271D01*
X128468632Y-86835059D01*
X128461351Y-86836139D01*
X128454000Y-86836500D01*
X128304000Y-86836500D01*
X128296649Y-86836139D01*
X128289368Y-86835059D01*
X128282229Y-86833271D01*
X128275299Y-86830791D01*
X128268645Y-86827644D01*
X128262332Y-86823860D01*
X128256421Y-86819476D01*
X128250967Y-86814533D01*
X128246024Y-86809079D01*
X128241640Y-86803168D01*
X128237856Y-86796855D01*
X128234709Y-86790201D01*
X128232229Y-86783271D01*
X128230441Y-86776132D01*
X128229361Y-86768851D01*
X128229000Y-86761500D01*
X128229000Y-85436500D01*
X128229361Y-85429149D01*
X128230441Y-85421868D01*
X128232229Y-85414729D01*
X128234709Y-85407799D01*
X128237856Y-85401145D01*
X128241640Y-85394832D01*
X128246024Y-85388921D01*
X128250967Y-85383467D01*
X128256421Y-85378524D01*
X128262332Y-85374140D01*
X128268645Y-85370356D01*
X128275299Y-85367209D01*
X128282229Y-85364729D01*
X128289368Y-85362941D01*
X128296649Y-85361861D01*
X128304000Y-85361500D01*
X128454000Y-85361500D01*
X128461351Y-85361861D01*
X128461351Y-85361861D01*
G37*
D17*
X128379000Y-86099000D03*
D16*
G36*
X130461351Y-84536861D02*
G01*
X130468632Y-84537941D01*
X130475771Y-84539729D01*
X130482701Y-84542209D01*
X130489355Y-84545356D01*
X130495668Y-84549140D01*
X130501579Y-84553524D01*
X130507033Y-84558467D01*
X130511976Y-84563921D01*
X130516360Y-84569832D01*
X130520144Y-84576145D01*
X130523291Y-84582799D01*
X130525771Y-84589729D01*
X130527559Y-84596868D01*
X130528639Y-84604149D01*
X130529000Y-84611500D01*
X130529000Y-84761500D01*
X130528639Y-84768851D01*
X130527559Y-84776132D01*
X130525771Y-84783271D01*
X130523291Y-84790201D01*
X130520144Y-84796855D01*
X130516360Y-84803168D01*
X130511976Y-84809079D01*
X130507033Y-84814533D01*
X130501579Y-84819476D01*
X130495668Y-84823860D01*
X130489355Y-84827644D01*
X130482701Y-84830791D01*
X130475771Y-84833271D01*
X130468632Y-84835059D01*
X130461351Y-84836139D01*
X130454000Y-84836500D01*
X129129000Y-84836500D01*
X129121649Y-84836139D01*
X129114368Y-84835059D01*
X129107229Y-84833271D01*
X129100299Y-84830791D01*
X129093645Y-84827644D01*
X129087332Y-84823860D01*
X129081421Y-84819476D01*
X129075967Y-84814533D01*
X129071024Y-84809079D01*
X129066640Y-84803168D01*
X129062856Y-84796855D01*
X129059709Y-84790201D01*
X129057229Y-84783271D01*
X129055441Y-84776132D01*
X129054361Y-84768851D01*
X129054000Y-84761500D01*
X129054000Y-84611500D01*
X129054361Y-84604149D01*
X129055441Y-84596868D01*
X129057229Y-84589729D01*
X129059709Y-84582799D01*
X129062856Y-84576145D01*
X129066640Y-84569832D01*
X129071024Y-84563921D01*
X129075967Y-84558467D01*
X129081421Y-84553524D01*
X129087332Y-84549140D01*
X129093645Y-84545356D01*
X129100299Y-84542209D01*
X129107229Y-84539729D01*
X129114368Y-84537941D01*
X129121649Y-84536861D01*
X129129000Y-84536500D01*
X130454000Y-84536500D01*
X130461351Y-84536861D01*
X130461351Y-84536861D01*
G37*
D17*
X129791500Y-84686500D03*
D16*
G36*
X130461351Y-84036861D02*
G01*
X130468632Y-84037941D01*
X130475771Y-84039729D01*
X130482701Y-84042209D01*
X130489355Y-84045356D01*
X130495668Y-84049140D01*
X130501579Y-84053524D01*
X130507033Y-84058467D01*
X130511976Y-84063921D01*
X130516360Y-84069832D01*
X130520144Y-84076145D01*
X130523291Y-84082799D01*
X130525771Y-84089729D01*
X130527559Y-84096868D01*
X130528639Y-84104149D01*
X130529000Y-84111500D01*
X130529000Y-84261500D01*
X130528639Y-84268851D01*
X130527559Y-84276132D01*
X130525771Y-84283271D01*
X130523291Y-84290201D01*
X130520144Y-84296855D01*
X130516360Y-84303168D01*
X130511976Y-84309079D01*
X130507033Y-84314533D01*
X130501579Y-84319476D01*
X130495668Y-84323860D01*
X130489355Y-84327644D01*
X130482701Y-84330791D01*
X130475771Y-84333271D01*
X130468632Y-84335059D01*
X130461351Y-84336139D01*
X130454000Y-84336500D01*
X129129000Y-84336500D01*
X129121649Y-84336139D01*
X129114368Y-84335059D01*
X129107229Y-84333271D01*
X129100299Y-84330791D01*
X129093645Y-84327644D01*
X129087332Y-84323860D01*
X129081421Y-84319476D01*
X129075967Y-84314533D01*
X129071024Y-84309079D01*
X129066640Y-84303168D01*
X129062856Y-84296855D01*
X129059709Y-84290201D01*
X129057229Y-84283271D01*
X129055441Y-84276132D01*
X129054361Y-84268851D01*
X129054000Y-84261500D01*
X129054000Y-84111500D01*
X129054361Y-84104149D01*
X129055441Y-84096868D01*
X129057229Y-84089729D01*
X129059709Y-84082799D01*
X129062856Y-84076145D01*
X129066640Y-84069832D01*
X129071024Y-84063921D01*
X129075967Y-84058467D01*
X129081421Y-84053524D01*
X129087332Y-84049140D01*
X129093645Y-84045356D01*
X129100299Y-84042209D01*
X129107229Y-84039729D01*
X129114368Y-84037941D01*
X129121649Y-84036861D01*
X129129000Y-84036500D01*
X130454000Y-84036500D01*
X130461351Y-84036861D01*
X130461351Y-84036861D01*
G37*
D17*
X129791500Y-84186500D03*
D16*
G36*
X130461351Y-83536861D02*
G01*
X130468632Y-83537941D01*
X130475771Y-83539729D01*
X130482701Y-83542209D01*
X130489355Y-83545356D01*
X130495668Y-83549140D01*
X130501579Y-83553524D01*
X130507033Y-83558467D01*
X130511976Y-83563921D01*
X130516360Y-83569832D01*
X130520144Y-83576145D01*
X130523291Y-83582799D01*
X130525771Y-83589729D01*
X130527559Y-83596868D01*
X130528639Y-83604149D01*
X130529000Y-83611500D01*
X130529000Y-83761500D01*
X130528639Y-83768851D01*
X130527559Y-83776132D01*
X130525771Y-83783271D01*
X130523291Y-83790201D01*
X130520144Y-83796855D01*
X130516360Y-83803168D01*
X130511976Y-83809079D01*
X130507033Y-83814533D01*
X130501579Y-83819476D01*
X130495668Y-83823860D01*
X130489355Y-83827644D01*
X130482701Y-83830791D01*
X130475771Y-83833271D01*
X130468632Y-83835059D01*
X130461351Y-83836139D01*
X130454000Y-83836500D01*
X129129000Y-83836500D01*
X129121649Y-83836139D01*
X129114368Y-83835059D01*
X129107229Y-83833271D01*
X129100299Y-83830791D01*
X129093645Y-83827644D01*
X129087332Y-83823860D01*
X129081421Y-83819476D01*
X129075967Y-83814533D01*
X129071024Y-83809079D01*
X129066640Y-83803168D01*
X129062856Y-83796855D01*
X129059709Y-83790201D01*
X129057229Y-83783271D01*
X129055441Y-83776132D01*
X129054361Y-83768851D01*
X129054000Y-83761500D01*
X129054000Y-83611500D01*
X129054361Y-83604149D01*
X129055441Y-83596868D01*
X129057229Y-83589729D01*
X129059709Y-83582799D01*
X129062856Y-83576145D01*
X129066640Y-83569832D01*
X129071024Y-83563921D01*
X129075967Y-83558467D01*
X129081421Y-83553524D01*
X129087332Y-83549140D01*
X129093645Y-83545356D01*
X129100299Y-83542209D01*
X129107229Y-83539729D01*
X129114368Y-83537941D01*
X129121649Y-83536861D01*
X129129000Y-83536500D01*
X130454000Y-83536500D01*
X130461351Y-83536861D01*
X130461351Y-83536861D01*
G37*
D17*
X129791500Y-83686500D03*
D16*
G36*
X130461351Y-83036861D02*
G01*
X130468632Y-83037941D01*
X130475771Y-83039729D01*
X130482701Y-83042209D01*
X130489355Y-83045356D01*
X130495668Y-83049140D01*
X130501579Y-83053524D01*
X130507033Y-83058467D01*
X130511976Y-83063921D01*
X130516360Y-83069832D01*
X130520144Y-83076145D01*
X130523291Y-83082799D01*
X130525771Y-83089729D01*
X130527559Y-83096868D01*
X130528639Y-83104149D01*
X130529000Y-83111500D01*
X130529000Y-83261500D01*
X130528639Y-83268851D01*
X130527559Y-83276132D01*
X130525771Y-83283271D01*
X130523291Y-83290201D01*
X130520144Y-83296855D01*
X130516360Y-83303168D01*
X130511976Y-83309079D01*
X130507033Y-83314533D01*
X130501579Y-83319476D01*
X130495668Y-83323860D01*
X130489355Y-83327644D01*
X130482701Y-83330791D01*
X130475771Y-83333271D01*
X130468632Y-83335059D01*
X130461351Y-83336139D01*
X130454000Y-83336500D01*
X129129000Y-83336500D01*
X129121649Y-83336139D01*
X129114368Y-83335059D01*
X129107229Y-83333271D01*
X129100299Y-83330791D01*
X129093645Y-83327644D01*
X129087332Y-83323860D01*
X129081421Y-83319476D01*
X129075967Y-83314533D01*
X129071024Y-83309079D01*
X129066640Y-83303168D01*
X129062856Y-83296855D01*
X129059709Y-83290201D01*
X129057229Y-83283271D01*
X129055441Y-83276132D01*
X129054361Y-83268851D01*
X129054000Y-83261500D01*
X129054000Y-83111500D01*
X129054361Y-83104149D01*
X129055441Y-83096868D01*
X129057229Y-83089729D01*
X129059709Y-83082799D01*
X129062856Y-83076145D01*
X129066640Y-83069832D01*
X129071024Y-83063921D01*
X129075967Y-83058467D01*
X129081421Y-83053524D01*
X129087332Y-83049140D01*
X129093645Y-83045356D01*
X129100299Y-83042209D01*
X129107229Y-83039729D01*
X129114368Y-83037941D01*
X129121649Y-83036861D01*
X129129000Y-83036500D01*
X130454000Y-83036500D01*
X130461351Y-83036861D01*
X130461351Y-83036861D01*
G37*
D17*
X129791500Y-83186500D03*
D16*
G36*
X130461351Y-82536861D02*
G01*
X130468632Y-82537941D01*
X130475771Y-82539729D01*
X130482701Y-82542209D01*
X130489355Y-82545356D01*
X130495668Y-82549140D01*
X130501579Y-82553524D01*
X130507033Y-82558467D01*
X130511976Y-82563921D01*
X130516360Y-82569832D01*
X130520144Y-82576145D01*
X130523291Y-82582799D01*
X130525771Y-82589729D01*
X130527559Y-82596868D01*
X130528639Y-82604149D01*
X130529000Y-82611500D01*
X130529000Y-82761500D01*
X130528639Y-82768851D01*
X130527559Y-82776132D01*
X130525771Y-82783271D01*
X130523291Y-82790201D01*
X130520144Y-82796855D01*
X130516360Y-82803168D01*
X130511976Y-82809079D01*
X130507033Y-82814533D01*
X130501579Y-82819476D01*
X130495668Y-82823860D01*
X130489355Y-82827644D01*
X130482701Y-82830791D01*
X130475771Y-82833271D01*
X130468632Y-82835059D01*
X130461351Y-82836139D01*
X130454000Y-82836500D01*
X129129000Y-82836500D01*
X129121649Y-82836139D01*
X129114368Y-82835059D01*
X129107229Y-82833271D01*
X129100299Y-82830791D01*
X129093645Y-82827644D01*
X129087332Y-82823860D01*
X129081421Y-82819476D01*
X129075967Y-82814533D01*
X129071024Y-82809079D01*
X129066640Y-82803168D01*
X129062856Y-82796855D01*
X129059709Y-82790201D01*
X129057229Y-82783271D01*
X129055441Y-82776132D01*
X129054361Y-82768851D01*
X129054000Y-82761500D01*
X129054000Y-82611500D01*
X129054361Y-82604149D01*
X129055441Y-82596868D01*
X129057229Y-82589729D01*
X129059709Y-82582799D01*
X129062856Y-82576145D01*
X129066640Y-82569832D01*
X129071024Y-82563921D01*
X129075967Y-82558467D01*
X129081421Y-82553524D01*
X129087332Y-82549140D01*
X129093645Y-82545356D01*
X129100299Y-82542209D01*
X129107229Y-82539729D01*
X129114368Y-82537941D01*
X129121649Y-82536861D01*
X129129000Y-82536500D01*
X130454000Y-82536500D01*
X130461351Y-82536861D01*
X130461351Y-82536861D01*
G37*
D17*
X129791500Y-82686500D03*
D16*
G36*
X130461351Y-82036861D02*
G01*
X130468632Y-82037941D01*
X130475771Y-82039729D01*
X130482701Y-82042209D01*
X130489355Y-82045356D01*
X130495668Y-82049140D01*
X130501579Y-82053524D01*
X130507033Y-82058467D01*
X130511976Y-82063921D01*
X130516360Y-82069832D01*
X130520144Y-82076145D01*
X130523291Y-82082799D01*
X130525771Y-82089729D01*
X130527559Y-82096868D01*
X130528639Y-82104149D01*
X130529000Y-82111500D01*
X130529000Y-82261500D01*
X130528639Y-82268851D01*
X130527559Y-82276132D01*
X130525771Y-82283271D01*
X130523291Y-82290201D01*
X130520144Y-82296855D01*
X130516360Y-82303168D01*
X130511976Y-82309079D01*
X130507033Y-82314533D01*
X130501579Y-82319476D01*
X130495668Y-82323860D01*
X130489355Y-82327644D01*
X130482701Y-82330791D01*
X130475771Y-82333271D01*
X130468632Y-82335059D01*
X130461351Y-82336139D01*
X130454000Y-82336500D01*
X129129000Y-82336500D01*
X129121649Y-82336139D01*
X129114368Y-82335059D01*
X129107229Y-82333271D01*
X129100299Y-82330791D01*
X129093645Y-82327644D01*
X129087332Y-82323860D01*
X129081421Y-82319476D01*
X129075967Y-82314533D01*
X129071024Y-82309079D01*
X129066640Y-82303168D01*
X129062856Y-82296855D01*
X129059709Y-82290201D01*
X129057229Y-82283271D01*
X129055441Y-82276132D01*
X129054361Y-82268851D01*
X129054000Y-82261500D01*
X129054000Y-82111500D01*
X129054361Y-82104149D01*
X129055441Y-82096868D01*
X129057229Y-82089729D01*
X129059709Y-82082799D01*
X129062856Y-82076145D01*
X129066640Y-82069832D01*
X129071024Y-82063921D01*
X129075967Y-82058467D01*
X129081421Y-82053524D01*
X129087332Y-82049140D01*
X129093645Y-82045356D01*
X129100299Y-82042209D01*
X129107229Y-82039729D01*
X129114368Y-82037941D01*
X129121649Y-82036861D01*
X129129000Y-82036500D01*
X130454000Y-82036500D01*
X130461351Y-82036861D01*
X130461351Y-82036861D01*
G37*
D17*
X129791500Y-82186500D03*
D16*
G36*
X130461351Y-81536861D02*
G01*
X130468632Y-81537941D01*
X130475771Y-81539729D01*
X130482701Y-81542209D01*
X130489355Y-81545356D01*
X130495668Y-81549140D01*
X130501579Y-81553524D01*
X130507033Y-81558467D01*
X130511976Y-81563921D01*
X130516360Y-81569832D01*
X130520144Y-81576145D01*
X130523291Y-81582799D01*
X130525771Y-81589729D01*
X130527559Y-81596868D01*
X130528639Y-81604149D01*
X130529000Y-81611500D01*
X130529000Y-81761500D01*
X130528639Y-81768851D01*
X130527559Y-81776132D01*
X130525771Y-81783271D01*
X130523291Y-81790201D01*
X130520144Y-81796855D01*
X130516360Y-81803168D01*
X130511976Y-81809079D01*
X130507033Y-81814533D01*
X130501579Y-81819476D01*
X130495668Y-81823860D01*
X130489355Y-81827644D01*
X130482701Y-81830791D01*
X130475771Y-81833271D01*
X130468632Y-81835059D01*
X130461351Y-81836139D01*
X130454000Y-81836500D01*
X129129000Y-81836500D01*
X129121649Y-81836139D01*
X129114368Y-81835059D01*
X129107229Y-81833271D01*
X129100299Y-81830791D01*
X129093645Y-81827644D01*
X129087332Y-81823860D01*
X129081421Y-81819476D01*
X129075967Y-81814533D01*
X129071024Y-81809079D01*
X129066640Y-81803168D01*
X129062856Y-81796855D01*
X129059709Y-81790201D01*
X129057229Y-81783271D01*
X129055441Y-81776132D01*
X129054361Y-81768851D01*
X129054000Y-81761500D01*
X129054000Y-81611500D01*
X129054361Y-81604149D01*
X129055441Y-81596868D01*
X129057229Y-81589729D01*
X129059709Y-81582799D01*
X129062856Y-81576145D01*
X129066640Y-81569832D01*
X129071024Y-81563921D01*
X129075967Y-81558467D01*
X129081421Y-81553524D01*
X129087332Y-81549140D01*
X129093645Y-81545356D01*
X129100299Y-81542209D01*
X129107229Y-81539729D01*
X129114368Y-81537941D01*
X129121649Y-81536861D01*
X129129000Y-81536500D01*
X130454000Y-81536500D01*
X130461351Y-81536861D01*
X130461351Y-81536861D01*
G37*
D17*
X129791500Y-81686500D03*
D16*
G36*
X130461351Y-81036861D02*
G01*
X130468632Y-81037941D01*
X130475771Y-81039729D01*
X130482701Y-81042209D01*
X130489355Y-81045356D01*
X130495668Y-81049140D01*
X130501579Y-81053524D01*
X130507033Y-81058467D01*
X130511976Y-81063921D01*
X130516360Y-81069832D01*
X130520144Y-81076145D01*
X130523291Y-81082799D01*
X130525771Y-81089729D01*
X130527559Y-81096868D01*
X130528639Y-81104149D01*
X130529000Y-81111500D01*
X130529000Y-81261500D01*
X130528639Y-81268851D01*
X130527559Y-81276132D01*
X130525771Y-81283271D01*
X130523291Y-81290201D01*
X130520144Y-81296855D01*
X130516360Y-81303168D01*
X130511976Y-81309079D01*
X130507033Y-81314533D01*
X130501579Y-81319476D01*
X130495668Y-81323860D01*
X130489355Y-81327644D01*
X130482701Y-81330791D01*
X130475771Y-81333271D01*
X130468632Y-81335059D01*
X130461351Y-81336139D01*
X130454000Y-81336500D01*
X129129000Y-81336500D01*
X129121649Y-81336139D01*
X129114368Y-81335059D01*
X129107229Y-81333271D01*
X129100299Y-81330791D01*
X129093645Y-81327644D01*
X129087332Y-81323860D01*
X129081421Y-81319476D01*
X129075967Y-81314533D01*
X129071024Y-81309079D01*
X129066640Y-81303168D01*
X129062856Y-81296855D01*
X129059709Y-81290201D01*
X129057229Y-81283271D01*
X129055441Y-81276132D01*
X129054361Y-81268851D01*
X129054000Y-81261500D01*
X129054000Y-81111500D01*
X129054361Y-81104149D01*
X129055441Y-81096868D01*
X129057229Y-81089729D01*
X129059709Y-81082799D01*
X129062856Y-81076145D01*
X129066640Y-81069832D01*
X129071024Y-81063921D01*
X129075967Y-81058467D01*
X129081421Y-81053524D01*
X129087332Y-81049140D01*
X129093645Y-81045356D01*
X129100299Y-81042209D01*
X129107229Y-81039729D01*
X129114368Y-81037941D01*
X129121649Y-81036861D01*
X129129000Y-81036500D01*
X130454000Y-81036500D01*
X130461351Y-81036861D01*
X130461351Y-81036861D01*
G37*
D17*
X129791500Y-81186500D03*
D16*
G36*
X130461351Y-80536861D02*
G01*
X130468632Y-80537941D01*
X130475771Y-80539729D01*
X130482701Y-80542209D01*
X130489355Y-80545356D01*
X130495668Y-80549140D01*
X130501579Y-80553524D01*
X130507033Y-80558467D01*
X130511976Y-80563921D01*
X130516360Y-80569832D01*
X130520144Y-80576145D01*
X130523291Y-80582799D01*
X130525771Y-80589729D01*
X130527559Y-80596868D01*
X130528639Y-80604149D01*
X130529000Y-80611500D01*
X130529000Y-80761500D01*
X130528639Y-80768851D01*
X130527559Y-80776132D01*
X130525771Y-80783271D01*
X130523291Y-80790201D01*
X130520144Y-80796855D01*
X130516360Y-80803168D01*
X130511976Y-80809079D01*
X130507033Y-80814533D01*
X130501579Y-80819476D01*
X130495668Y-80823860D01*
X130489355Y-80827644D01*
X130482701Y-80830791D01*
X130475771Y-80833271D01*
X130468632Y-80835059D01*
X130461351Y-80836139D01*
X130454000Y-80836500D01*
X129129000Y-80836500D01*
X129121649Y-80836139D01*
X129114368Y-80835059D01*
X129107229Y-80833271D01*
X129100299Y-80830791D01*
X129093645Y-80827644D01*
X129087332Y-80823860D01*
X129081421Y-80819476D01*
X129075967Y-80814533D01*
X129071024Y-80809079D01*
X129066640Y-80803168D01*
X129062856Y-80796855D01*
X129059709Y-80790201D01*
X129057229Y-80783271D01*
X129055441Y-80776132D01*
X129054361Y-80768851D01*
X129054000Y-80761500D01*
X129054000Y-80611500D01*
X129054361Y-80604149D01*
X129055441Y-80596868D01*
X129057229Y-80589729D01*
X129059709Y-80582799D01*
X129062856Y-80576145D01*
X129066640Y-80569832D01*
X129071024Y-80563921D01*
X129075967Y-80558467D01*
X129081421Y-80553524D01*
X129087332Y-80549140D01*
X129093645Y-80545356D01*
X129100299Y-80542209D01*
X129107229Y-80539729D01*
X129114368Y-80537941D01*
X129121649Y-80536861D01*
X129129000Y-80536500D01*
X130454000Y-80536500D01*
X130461351Y-80536861D01*
X130461351Y-80536861D01*
G37*
D17*
X129791500Y-80686500D03*
D16*
G36*
X130461351Y-80036861D02*
G01*
X130468632Y-80037941D01*
X130475771Y-80039729D01*
X130482701Y-80042209D01*
X130489355Y-80045356D01*
X130495668Y-80049140D01*
X130501579Y-80053524D01*
X130507033Y-80058467D01*
X130511976Y-80063921D01*
X130516360Y-80069832D01*
X130520144Y-80076145D01*
X130523291Y-80082799D01*
X130525771Y-80089729D01*
X130527559Y-80096868D01*
X130528639Y-80104149D01*
X130529000Y-80111500D01*
X130529000Y-80261500D01*
X130528639Y-80268851D01*
X130527559Y-80276132D01*
X130525771Y-80283271D01*
X130523291Y-80290201D01*
X130520144Y-80296855D01*
X130516360Y-80303168D01*
X130511976Y-80309079D01*
X130507033Y-80314533D01*
X130501579Y-80319476D01*
X130495668Y-80323860D01*
X130489355Y-80327644D01*
X130482701Y-80330791D01*
X130475771Y-80333271D01*
X130468632Y-80335059D01*
X130461351Y-80336139D01*
X130454000Y-80336500D01*
X129129000Y-80336500D01*
X129121649Y-80336139D01*
X129114368Y-80335059D01*
X129107229Y-80333271D01*
X129100299Y-80330791D01*
X129093645Y-80327644D01*
X129087332Y-80323860D01*
X129081421Y-80319476D01*
X129075967Y-80314533D01*
X129071024Y-80309079D01*
X129066640Y-80303168D01*
X129062856Y-80296855D01*
X129059709Y-80290201D01*
X129057229Y-80283271D01*
X129055441Y-80276132D01*
X129054361Y-80268851D01*
X129054000Y-80261500D01*
X129054000Y-80111500D01*
X129054361Y-80104149D01*
X129055441Y-80096868D01*
X129057229Y-80089729D01*
X129059709Y-80082799D01*
X129062856Y-80076145D01*
X129066640Y-80069832D01*
X129071024Y-80063921D01*
X129075967Y-80058467D01*
X129081421Y-80053524D01*
X129087332Y-80049140D01*
X129093645Y-80045356D01*
X129100299Y-80042209D01*
X129107229Y-80039729D01*
X129114368Y-80037941D01*
X129121649Y-80036861D01*
X129129000Y-80036500D01*
X130454000Y-80036500D01*
X130461351Y-80036861D01*
X130461351Y-80036861D01*
G37*
D17*
X129791500Y-80186500D03*
D16*
G36*
X130461351Y-79536861D02*
G01*
X130468632Y-79537941D01*
X130475771Y-79539729D01*
X130482701Y-79542209D01*
X130489355Y-79545356D01*
X130495668Y-79549140D01*
X130501579Y-79553524D01*
X130507033Y-79558467D01*
X130511976Y-79563921D01*
X130516360Y-79569832D01*
X130520144Y-79576145D01*
X130523291Y-79582799D01*
X130525771Y-79589729D01*
X130527559Y-79596868D01*
X130528639Y-79604149D01*
X130529000Y-79611500D01*
X130529000Y-79761500D01*
X130528639Y-79768851D01*
X130527559Y-79776132D01*
X130525771Y-79783271D01*
X130523291Y-79790201D01*
X130520144Y-79796855D01*
X130516360Y-79803168D01*
X130511976Y-79809079D01*
X130507033Y-79814533D01*
X130501579Y-79819476D01*
X130495668Y-79823860D01*
X130489355Y-79827644D01*
X130482701Y-79830791D01*
X130475771Y-79833271D01*
X130468632Y-79835059D01*
X130461351Y-79836139D01*
X130454000Y-79836500D01*
X129129000Y-79836500D01*
X129121649Y-79836139D01*
X129114368Y-79835059D01*
X129107229Y-79833271D01*
X129100299Y-79830791D01*
X129093645Y-79827644D01*
X129087332Y-79823860D01*
X129081421Y-79819476D01*
X129075967Y-79814533D01*
X129071024Y-79809079D01*
X129066640Y-79803168D01*
X129062856Y-79796855D01*
X129059709Y-79790201D01*
X129057229Y-79783271D01*
X129055441Y-79776132D01*
X129054361Y-79768851D01*
X129054000Y-79761500D01*
X129054000Y-79611500D01*
X129054361Y-79604149D01*
X129055441Y-79596868D01*
X129057229Y-79589729D01*
X129059709Y-79582799D01*
X129062856Y-79576145D01*
X129066640Y-79569832D01*
X129071024Y-79563921D01*
X129075967Y-79558467D01*
X129081421Y-79553524D01*
X129087332Y-79549140D01*
X129093645Y-79545356D01*
X129100299Y-79542209D01*
X129107229Y-79539729D01*
X129114368Y-79537941D01*
X129121649Y-79536861D01*
X129129000Y-79536500D01*
X130454000Y-79536500D01*
X130461351Y-79536861D01*
X130461351Y-79536861D01*
G37*
D17*
X129791500Y-79686500D03*
D16*
G36*
X130461351Y-79036861D02*
G01*
X130468632Y-79037941D01*
X130475771Y-79039729D01*
X130482701Y-79042209D01*
X130489355Y-79045356D01*
X130495668Y-79049140D01*
X130501579Y-79053524D01*
X130507033Y-79058467D01*
X130511976Y-79063921D01*
X130516360Y-79069832D01*
X130520144Y-79076145D01*
X130523291Y-79082799D01*
X130525771Y-79089729D01*
X130527559Y-79096868D01*
X130528639Y-79104149D01*
X130529000Y-79111500D01*
X130529000Y-79261500D01*
X130528639Y-79268851D01*
X130527559Y-79276132D01*
X130525771Y-79283271D01*
X130523291Y-79290201D01*
X130520144Y-79296855D01*
X130516360Y-79303168D01*
X130511976Y-79309079D01*
X130507033Y-79314533D01*
X130501579Y-79319476D01*
X130495668Y-79323860D01*
X130489355Y-79327644D01*
X130482701Y-79330791D01*
X130475771Y-79333271D01*
X130468632Y-79335059D01*
X130461351Y-79336139D01*
X130454000Y-79336500D01*
X129129000Y-79336500D01*
X129121649Y-79336139D01*
X129114368Y-79335059D01*
X129107229Y-79333271D01*
X129100299Y-79330791D01*
X129093645Y-79327644D01*
X129087332Y-79323860D01*
X129081421Y-79319476D01*
X129075967Y-79314533D01*
X129071024Y-79309079D01*
X129066640Y-79303168D01*
X129062856Y-79296855D01*
X129059709Y-79290201D01*
X129057229Y-79283271D01*
X129055441Y-79276132D01*
X129054361Y-79268851D01*
X129054000Y-79261500D01*
X129054000Y-79111500D01*
X129054361Y-79104149D01*
X129055441Y-79096868D01*
X129057229Y-79089729D01*
X129059709Y-79082799D01*
X129062856Y-79076145D01*
X129066640Y-79069832D01*
X129071024Y-79063921D01*
X129075967Y-79058467D01*
X129081421Y-79053524D01*
X129087332Y-79049140D01*
X129093645Y-79045356D01*
X129100299Y-79042209D01*
X129107229Y-79039729D01*
X129114368Y-79037941D01*
X129121649Y-79036861D01*
X129129000Y-79036500D01*
X130454000Y-79036500D01*
X130461351Y-79036861D01*
X130461351Y-79036861D01*
G37*
D17*
X129791500Y-79186500D03*
D16*
G36*
X128461351Y-77036861D02*
G01*
X128468632Y-77037941D01*
X128475771Y-77039729D01*
X128482701Y-77042209D01*
X128489355Y-77045356D01*
X128495668Y-77049140D01*
X128501579Y-77053524D01*
X128507033Y-77058467D01*
X128511976Y-77063921D01*
X128516360Y-77069832D01*
X128520144Y-77076145D01*
X128523291Y-77082799D01*
X128525771Y-77089729D01*
X128527559Y-77096868D01*
X128528639Y-77104149D01*
X128529000Y-77111500D01*
X128529000Y-78436500D01*
X128528639Y-78443851D01*
X128527559Y-78451132D01*
X128525771Y-78458271D01*
X128523291Y-78465201D01*
X128520144Y-78471855D01*
X128516360Y-78478168D01*
X128511976Y-78484079D01*
X128507033Y-78489533D01*
X128501579Y-78494476D01*
X128495668Y-78498860D01*
X128489355Y-78502644D01*
X128482701Y-78505791D01*
X128475771Y-78508271D01*
X128468632Y-78510059D01*
X128461351Y-78511139D01*
X128454000Y-78511500D01*
X128304000Y-78511500D01*
X128296649Y-78511139D01*
X128289368Y-78510059D01*
X128282229Y-78508271D01*
X128275299Y-78505791D01*
X128268645Y-78502644D01*
X128262332Y-78498860D01*
X128256421Y-78494476D01*
X128250967Y-78489533D01*
X128246024Y-78484079D01*
X128241640Y-78478168D01*
X128237856Y-78471855D01*
X128234709Y-78465201D01*
X128232229Y-78458271D01*
X128230441Y-78451132D01*
X128229361Y-78443851D01*
X128229000Y-78436500D01*
X128229000Y-77111500D01*
X128229361Y-77104149D01*
X128230441Y-77096868D01*
X128232229Y-77089729D01*
X128234709Y-77082799D01*
X128237856Y-77076145D01*
X128241640Y-77069832D01*
X128246024Y-77063921D01*
X128250967Y-77058467D01*
X128256421Y-77053524D01*
X128262332Y-77049140D01*
X128268645Y-77045356D01*
X128275299Y-77042209D01*
X128282229Y-77039729D01*
X128289368Y-77037941D01*
X128296649Y-77036861D01*
X128304000Y-77036500D01*
X128454000Y-77036500D01*
X128461351Y-77036861D01*
X128461351Y-77036861D01*
G37*
D17*
X128379000Y-77774000D03*
D16*
G36*
X127961351Y-77036861D02*
G01*
X127968632Y-77037941D01*
X127975771Y-77039729D01*
X127982701Y-77042209D01*
X127989355Y-77045356D01*
X127995668Y-77049140D01*
X128001579Y-77053524D01*
X128007033Y-77058467D01*
X128011976Y-77063921D01*
X128016360Y-77069832D01*
X128020144Y-77076145D01*
X128023291Y-77082799D01*
X128025771Y-77089729D01*
X128027559Y-77096868D01*
X128028639Y-77104149D01*
X128029000Y-77111500D01*
X128029000Y-78436500D01*
X128028639Y-78443851D01*
X128027559Y-78451132D01*
X128025771Y-78458271D01*
X128023291Y-78465201D01*
X128020144Y-78471855D01*
X128016360Y-78478168D01*
X128011976Y-78484079D01*
X128007033Y-78489533D01*
X128001579Y-78494476D01*
X127995668Y-78498860D01*
X127989355Y-78502644D01*
X127982701Y-78505791D01*
X127975771Y-78508271D01*
X127968632Y-78510059D01*
X127961351Y-78511139D01*
X127954000Y-78511500D01*
X127804000Y-78511500D01*
X127796649Y-78511139D01*
X127789368Y-78510059D01*
X127782229Y-78508271D01*
X127775299Y-78505791D01*
X127768645Y-78502644D01*
X127762332Y-78498860D01*
X127756421Y-78494476D01*
X127750967Y-78489533D01*
X127746024Y-78484079D01*
X127741640Y-78478168D01*
X127737856Y-78471855D01*
X127734709Y-78465201D01*
X127732229Y-78458271D01*
X127730441Y-78451132D01*
X127729361Y-78443851D01*
X127729000Y-78436500D01*
X127729000Y-77111500D01*
X127729361Y-77104149D01*
X127730441Y-77096868D01*
X127732229Y-77089729D01*
X127734709Y-77082799D01*
X127737856Y-77076145D01*
X127741640Y-77069832D01*
X127746024Y-77063921D01*
X127750967Y-77058467D01*
X127756421Y-77053524D01*
X127762332Y-77049140D01*
X127768645Y-77045356D01*
X127775299Y-77042209D01*
X127782229Y-77039729D01*
X127789368Y-77037941D01*
X127796649Y-77036861D01*
X127804000Y-77036500D01*
X127954000Y-77036500D01*
X127961351Y-77036861D01*
X127961351Y-77036861D01*
G37*
D17*
X127879000Y-77774000D03*
D16*
G36*
X127461351Y-77036861D02*
G01*
X127468632Y-77037941D01*
X127475771Y-77039729D01*
X127482701Y-77042209D01*
X127489355Y-77045356D01*
X127495668Y-77049140D01*
X127501579Y-77053524D01*
X127507033Y-77058467D01*
X127511976Y-77063921D01*
X127516360Y-77069832D01*
X127520144Y-77076145D01*
X127523291Y-77082799D01*
X127525771Y-77089729D01*
X127527559Y-77096868D01*
X127528639Y-77104149D01*
X127529000Y-77111500D01*
X127529000Y-78436500D01*
X127528639Y-78443851D01*
X127527559Y-78451132D01*
X127525771Y-78458271D01*
X127523291Y-78465201D01*
X127520144Y-78471855D01*
X127516360Y-78478168D01*
X127511976Y-78484079D01*
X127507033Y-78489533D01*
X127501579Y-78494476D01*
X127495668Y-78498860D01*
X127489355Y-78502644D01*
X127482701Y-78505791D01*
X127475771Y-78508271D01*
X127468632Y-78510059D01*
X127461351Y-78511139D01*
X127454000Y-78511500D01*
X127304000Y-78511500D01*
X127296649Y-78511139D01*
X127289368Y-78510059D01*
X127282229Y-78508271D01*
X127275299Y-78505791D01*
X127268645Y-78502644D01*
X127262332Y-78498860D01*
X127256421Y-78494476D01*
X127250967Y-78489533D01*
X127246024Y-78484079D01*
X127241640Y-78478168D01*
X127237856Y-78471855D01*
X127234709Y-78465201D01*
X127232229Y-78458271D01*
X127230441Y-78451132D01*
X127229361Y-78443851D01*
X127229000Y-78436500D01*
X127229000Y-77111500D01*
X127229361Y-77104149D01*
X127230441Y-77096868D01*
X127232229Y-77089729D01*
X127234709Y-77082799D01*
X127237856Y-77076145D01*
X127241640Y-77069832D01*
X127246024Y-77063921D01*
X127250967Y-77058467D01*
X127256421Y-77053524D01*
X127262332Y-77049140D01*
X127268645Y-77045356D01*
X127275299Y-77042209D01*
X127282229Y-77039729D01*
X127289368Y-77037941D01*
X127296649Y-77036861D01*
X127304000Y-77036500D01*
X127454000Y-77036500D01*
X127461351Y-77036861D01*
X127461351Y-77036861D01*
G37*
D17*
X127379000Y-77774000D03*
D16*
G36*
X126961351Y-77036861D02*
G01*
X126968632Y-77037941D01*
X126975771Y-77039729D01*
X126982701Y-77042209D01*
X126989355Y-77045356D01*
X126995668Y-77049140D01*
X127001579Y-77053524D01*
X127007033Y-77058467D01*
X127011976Y-77063921D01*
X127016360Y-77069832D01*
X127020144Y-77076145D01*
X127023291Y-77082799D01*
X127025771Y-77089729D01*
X127027559Y-77096868D01*
X127028639Y-77104149D01*
X127029000Y-77111500D01*
X127029000Y-78436500D01*
X127028639Y-78443851D01*
X127027559Y-78451132D01*
X127025771Y-78458271D01*
X127023291Y-78465201D01*
X127020144Y-78471855D01*
X127016360Y-78478168D01*
X127011976Y-78484079D01*
X127007033Y-78489533D01*
X127001579Y-78494476D01*
X126995668Y-78498860D01*
X126989355Y-78502644D01*
X126982701Y-78505791D01*
X126975771Y-78508271D01*
X126968632Y-78510059D01*
X126961351Y-78511139D01*
X126954000Y-78511500D01*
X126804000Y-78511500D01*
X126796649Y-78511139D01*
X126789368Y-78510059D01*
X126782229Y-78508271D01*
X126775299Y-78505791D01*
X126768645Y-78502644D01*
X126762332Y-78498860D01*
X126756421Y-78494476D01*
X126750967Y-78489533D01*
X126746024Y-78484079D01*
X126741640Y-78478168D01*
X126737856Y-78471855D01*
X126734709Y-78465201D01*
X126732229Y-78458271D01*
X126730441Y-78451132D01*
X126729361Y-78443851D01*
X126729000Y-78436500D01*
X126729000Y-77111500D01*
X126729361Y-77104149D01*
X126730441Y-77096868D01*
X126732229Y-77089729D01*
X126734709Y-77082799D01*
X126737856Y-77076145D01*
X126741640Y-77069832D01*
X126746024Y-77063921D01*
X126750967Y-77058467D01*
X126756421Y-77053524D01*
X126762332Y-77049140D01*
X126768645Y-77045356D01*
X126775299Y-77042209D01*
X126782229Y-77039729D01*
X126789368Y-77037941D01*
X126796649Y-77036861D01*
X126804000Y-77036500D01*
X126954000Y-77036500D01*
X126961351Y-77036861D01*
X126961351Y-77036861D01*
G37*
D17*
X126879000Y-77774000D03*
D16*
G36*
X126461351Y-77036861D02*
G01*
X126468632Y-77037941D01*
X126475771Y-77039729D01*
X126482701Y-77042209D01*
X126489355Y-77045356D01*
X126495668Y-77049140D01*
X126501579Y-77053524D01*
X126507033Y-77058467D01*
X126511976Y-77063921D01*
X126516360Y-77069832D01*
X126520144Y-77076145D01*
X126523291Y-77082799D01*
X126525771Y-77089729D01*
X126527559Y-77096868D01*
X126528639Y-77104149D01*
X126529000Y-77111500D01*
X126529000Y-78436500D01*
X126528639Y-78443851D01*
X126527559Y-78451132D01*
X126525771Y-78458271D01*
X126523291Y-78465201D01*
X126520144Y-78471855D01*
X126516360Y-78478168D01*
X126511976Y-78484079D01*
X126507033Y-78489533D01*
X126501579Y-78494476D01*
X126495668Y-78498860D01*
X126489355Y-78502644D01*
X126482701Y-78505791D01*
X126475771Y-78508271D01*
X126468632Y-78510059D01*
X126461351Y-78511139D01*
X126454000Y-78511500D01*
X126304000Y-78511500D01*
X126296649Y-78511139D01*
X126289368Y-78510059D01*
X126282229Y-78508271D01*
X126275299Y-78505791D01*
X126268645Y-78502644D01*
X126262332Y-78498860D01*
X126256421Y-78494476D01*
X126250967Y-78489533D01*
X126246024Y-78484079D01*
X126241640Y-78478168D01*
X126237856Y-78471855D01*
X126234709Y-78465201D01*
X126232229Y-78458271D01*
X126230441Y-78451132D01*
X126229361Y-78443851D01*
X126229000Y-78436500D01*
X126229000Y-77111500D01*
X126229361Y-77104149D01*
X126230441Y-77096868D01*
X126232229Y-77089729D01*
X126234709Y-77082799D01*
X126237856Y-77076145D01*
X126241640Y-77069832D01*
X126246024Y-77063921D01*
X126250967Y-77058467D01*
X126256421Y-77053524D01*
X126262332Y-77049140D01*
X126268645Y-77045356D01*
X126275299Y-77042209D01*
X126282229Y-77039729D01*
X126289368Y-77037941D01*
X126296649Y-77036861D01*
X126304000Y-77036500D01*
X126454000Y-77036500D01*
X126461351Y-77036861D01*
X126461351Y-77036861D01*
G37*
D17*
X126379000Y-77774000D03*
D16*
G36*
X125961351Y-77036861D02*
G01*
X125968632Y-77037941D01*
X125975771Y-77039729D01*
X125982701Y-77042209D01*
X125989355Y-77045356D01*
X125995668Y-77049140D01*
X126001579Y-77053524D01*
X126007033Y-77058467D01*
X126011976Y-77063921D01*
X126016360Y-77069832D01*
X126020144Y-77076145D01*
X126023291Y-77082799D01*
X126025771Y-77089729D01*
X126027559Y-77096868D01*
X126028639Y-77104149D01*
X126029000Y-77111500D01*
X126029000Y-78436500D01*
X126028639Y-78443851D01*
X126027559Y-78451132D01*
X126025771Y-78458271D01*
X126023291Y-78465201D01*
X126020144Y-78471855D01*
X126016360Y-78478168D01*
X126011976Y-78484079D01*
X126007033Y-78489533D01*
X126001579Y-78494476D01*
X125995668Y-78498860D01*
X125989355Y-78502644D01*
X125982701Y-78505791D01*
X125975771Y-78508271D01*
X125968632Y-78510059D01*
X125961351Y-78511139D01*
X125954000Y-78511500D01*
X125804000Y-78511500D01*
X125796649Y-78511139D01*
X125789368Y-78510059D01*
X125782229Y-78508271D01*
X125775299Y-78505791D01*
X125768645Y-78502644D01*
X125762332Y-78498860D01*
X125756421Y-78494476D01*
X125750967Y-78489533D01*
X125746024Y-78484079D01*
X125741640Y-78478168D01*
X125737856Y-78471855D01*
X125734709Y-78465201D01*
X125732229Y-78458271D01*
X125730441Y-78451132D01*
X125729361Y-78443851D01*
X125729000Y-78436500D01*
X125729000Y-77111500D01*
X125729361Y-77104149D01*
X125730441Y-77096868D01*
X125732229Y-77089729D01*
X125734709Y-77082799D01*
X125737856Y-77076145D01*
X125741640Y-77069832D01*
X125746024Y-77063921D01*
X125750967Y-77058467D01*
X125756421Y-77053524D01*
X125762332Y-77049140D01*
X125768645Y-77045356D01*
X125775299Y-77042209D01*
X125782229Y-77039729D01*
X125789368Y-77037941D01*
X125796649Y-77036861D01*
X125804000Y-77036500D01*
X125954000Y-77036500D01*
X125961351Y-77036861D01*
X125961351Y-77036861D01*
G37*
D17*
X125879000Y-77774000D03*
D16*
G36*
X125461351Y-77036861D02*
G01*
X125468632Y-77037941D01*
X125475771Y-77039729D01*
X125482701Y-77042209D01*
X125489355Y-77045356D01*
X125495668Y-77049140D01*
X125501579Y-77053524D01*
X125507033Y-77058467D01*
X125511976Y-77063921D01*
X125516360Y-77069832D01*
X125520144Y-77076145D01*
X125523291Y-77082799D01*
X125525771Y-77089729D01*
X125527559Y-77096868D01*
X125528639Y-77104149D01*
X125529000Y-77111500D01*
X125529000Y-78436500D01*
X125528639Y-78443851D01*
X125527559Y-78451132D01*
X125525771Y-78458271D01*
X125523291Y-78465201D01*
X125520144Y-78471855D01*
X125516360Y-78478168D01*
X125511976Y-78484079D01*
X125507033Y-78489533D01*
X125501579Y-78494476D01*
X125495668Y-78498860D01*
X125489355Y-78502644D01*
X125482701Y-78505791D01*
X125475771Y-78508271D01*
X125468632Y-78510059D01*
X125461351Y-78511139D01*
X125454000Y-78511500D01*
X125304000Y-78511500D01*
X125296649Y-78511139D01*
X125289368Y-78510059D01*
X125282229Y-78508271D01*
X125275299Y-78505791D01*
X125268645Y-78502644D01*
X125262332Y-78498860D01*
X125256421Y-78494476D01*
X125250967Y-78489533D01*
X125246024Y-78484079D01*
X125241640Y-78478168D01*
X125237856Y-78471855D01*
X125234709Y-78465201D01*
X125232229Y-78458271D01*
X125230441Y-78451132D01*
X125229361Y-78443851D01*
X125229000Y-78436500D01*
X125229000Y-77111500D01*
X125229361Y-77104149D01*
X125230441Y-77096868D01*
X125232229Y-77089729D01*
X125234709Y-77082799D01*
X125237856Y-77076145D01*
X125241640Y-77069832D01*
X125246024Y-77063921D01*
X125250967Y-77058467D01*
X125256421Y-77053524D01*
X125262332Y-77049140D01*
X125268645Y-77045356D01*
X125275299Y-77042209D01*
X125282229Y-77039729D01*
X125289368Y-77037941D01*
X125296649Y-77036861D01*
X125304000Y-77036500D01*
X125454000Y-77036500D01*
X125461351Y-77036861D01*
X125461351Y-77036861D01*
G37*
D17*
X125379000Y-77774000D03*
D16*
G36*
X124961351Y-77036861D02*
G01*
X124968632Y-77037941D01*
X124975771Y-77039729D01*
X124982701Y-77042209D01*
X124989355Y-77045356D01*
X124995668Y-77049140D01*
X125001579Y-77053524D01*
X125007033Y-77058467D01*
X125011976Y-77063921D01*
X125016360Y-77069832D01*
X125020144Y-77076145D01*
X125023291Y-77082799D01*
X125025771Y-77089729D01*
X125027559Y-77096868D01*
X125028639Y-77104149D01*
X125029000Y-77111500D01*
X125029000Y-78436500D01*
X125028639Y-78443851D01*
X125027559Y-78451132D01*
X125025771Y-78458271D01*
X125023291Y-78465201D01*
X125020144Y-78471855D01*
X125016360Y-78478168D01*
X125011976Y-78484079D01*
X125007033Y-78489533D01*
X125001579Y-78494476D01*
X124995668Y-78498860D01*
X124989355Y-78502644D01*
X124982701Y-78505791D01*
X124975771Y-78508271D01*
X124968632Y-78510059D01*
X124961351Y-78511139D01*
X124954000Y-78511500D01*
X124804000Y-78511500D01*
X124796649Y-78511139D01*
X124789368Y-78510059D01*
X124782229Y-78508271D01*
X124775299Y-78505791D01*
X124768645Y-78502644D01*
X124762332Y-78498860D01*
X124756421Y-78494476D01*
X124750967Y-78489533D01*
X124746024Y-78484079D01*
X124741640Y-78478168D01*
X124737856Y-78471855D01*
X124734709Y-78465201D01*
X124732229Y-78458271D01*
X124730441Y-78451132D01*
X124729361Y-78443851D01*
X124729000Y-78436500D01*
X124729000Y-77111500D01*
X124729361Y-77104149D01*
X124730441Y-77096868D01*
X124732229Y-77089729D01*
X124734709Y-77082799D01*
X124737856Y-77076145D01*
X124741640Y-77069832D01*
X124746024Y-77063921D01*
X124750967Y-77058467D01*
X124756421Y-77053524D01*
X124762332Y-77049140D01*
X124768645Y-77045356D01*
X124775299Y-77042209D01*
X124782229Y-77039729D01*
X124789368Y-77037941D01*
X124796649Y-77036861D01*
X124804000Y-77036500D01*
X124954000Y-77036500D01*
X124961351Y-77036861D01*
X124961351Y-77036861D01*
G37*
D17*
X124879000Y-77774000D03*
D16*
G36*
X124461351Y-77036861D02*
G01*
X124468632Y-77037941D01*
X124475771Y-77039729D01*
X124482701Y-77042209D01*
X124489355Y-77045356D01*
X124495668Y-77049140D01*
X124501579Y-77053524D01*
X124507033Y-77058467D01*
X124511976Y-77063921D01*
X124516360Y-77069832D01*
X124520144Y-77076145D01*
X124523291Y-77082799D01*
X124525771Y-77089729D01*
X124527559Y-77096868D01*
X124528639Y-77104149D01*
X124529000Y-77111500D01*
X124529000Y-78436500D01*
X124528639Y-78443851D01*
X124527559Y-78451132D01*
X124525771Y-78458271D01*
X124523291Y-78465201D01*
X124520144Y-78471855D01*
X124516360Y-78478168D01*
X124511976Y-78484079D01*
X124507033Y-78489533D01*
X124501579Y-78494476D01*
X124495668Y-78498860D01*
X124489355Y-78502644D01*
X124482701Y-78505791D01*
X124475771Y-78508271D01*
X124468632Y-78510059D01*
X124461351Y-78511139D01*
X124454000Y-78511500D01*
X124304000Y-78511500D01*
X124296649Y-78511139D01*
X124289368Y-78510059D01*
X124282229Y-78508271D01*
X124275299Y-78505791D01*
X124268645Y-78502644D01*
X124262332Y-78498860D01*
X124256421Y-78494476D01*
X124250967Y-78489533D01*
X124246024Y-78484079D01*
X124241640Y-78478168D01*
X124237856Y-78471855D01*
X124234709Y-78465201D01*
X124232229Y-78458271D01*
X124230441Y-78451132D01*
X124229361Y-78443851D01*
X124229000Y-78436500D01*
X124229000Y-77111500D01*
X124229361Y-77104149D01*
X124230441Y-77096868D01*
X124232229Y-77089729D01*
X124234709Y-77082799D01*
X124237856Y-77076145D01*
X124241640Y-77069832D01*
X124246024Y-77063921D01*
X124250967Y-77058467D01*
X124256421Y-77053524D01*
X124262332Y-77049140D01*
X124268645Y-77045356D01*
X124275299Y-77042209D01*
X124282229Y-77039729D01*
X124289368Y-77037941D01*
X124296649Y-77036861D01*
X124304000Y-77036500D01*
X124454000Y-77036500D01*
X124461351Y-77036861D01*
X124461351Y-77036861D01*
G37*
D17*
X124379000Y-77774000D03*
D16*
G36*
X123961351Y-77036861D02*
G01*
X123968632Y-77037941D01*
X123975771Y-77039729D01*
X123982701Y-77042209D01*
X123989355Y-77045356D01*
X123995668Y-77049140D01*
X124001579Y-77053524D01*
X124007033Y-77058467D01*
X124011976Y-77063921D01*
X124016360Y-77069832D01*
X124020144Y-77076145D01*
X124023291Y-77082799D01*
X124025771Y-77089729D01*
X124027559Y-77096868D01*
X124028639Y-77104149D01*
X124029000Y-77111500D01*
X124029000Y-78436500D01*
X124028639Y-78443851D01*
X124027559Y-78451132D01*
X124025771Y-78458271D01*
X124023291Y-78465201D01*
X124020144Y-78471855D01*
X124016360Y-78478168D01*
X124011976Y-78484079D01*
X124007033Y-78489533D01*
X124001579Y-78494476D01*
X123995668Y-78498860D01*
X123989355Y-78502644D01*
X123982701Y-78505791D01*
X123975771Y-78508271D01*
X123968632Y-78510059D01*
X123961351Y-78511139D01*
X123954000Y-78511500D01*
X123804000Y-78511500D01*
X123796649Y-78511139D01*
X123789368Y-78510059D01*
X123782229Y-78508271D01*
X123775299Y-78505791D01*
X123768645Y-78502644D01*
X123762332Y-78498860D01*
X123756421Y-78494476D01*
X123750967Y-78489533D01*
X123746024Y-78484079D01*
X123741640Y-78478168D01*
X123737856Y-78471855D01*
X123734709Y-78465201D01*
X123732229Y-78458271D01*
X123730441Y-78451132D01*
X123729361Y-78443851D01*
X123729000Y-78436500D01*
X123729000Y-77111500D01*
X123729361Y-77104149D01*
X123730441Y-77096868D01*
X123732229Y-77089729D01*
X123734709Y-77082799D01*
X123737856Y-77076145D01*
X123741640Y-77069832D01*
X123746024Y-77063921D01*
X123750967Y-77058467D01*
X123756421Y-77053524D01*
X123762332Y-77049140D01*
X123768645Y-77045356D01*
X123775299Y-77042209D01*
X123782229Y-77039729D01*
X123789368Y-77037941D01*
X123796649Y-77036861D01*
X123804000Y-77036500D01*
X123954000Y-77036500D01*
X123961351Y-77036861D01*
X123961351Y-77036861D01*
G37*
D17*
X123879000Y-77774000D03*
D16*
G36*
X123461351Y-77036861D02*
G01*
X123468632Y-77037941D01*
X123475771Y-77039729D01*
X123482701Y-77042209D01*
X123489355Y-77045356D01*
X123495668Y-77049140D01*
X123501579Y-77053524D01*
X123507033Y-77058467D01*
X123511976Y-77063921D01*
X123516360Y-77069832D01*
X123520144Y-77076145D01*
X123523291Y-77082799D01*
X123525771Y-77089729D01*
X123527559Y-77096868D01*
X123528639Y-77104149D01*
X123529000Y-77111500D01*
X123529000Y-78436500D01*
X123528639Y-78443851D01*
X123527559Y-78451132D01*
X123525771Y-78458271D01*
X123523291Y-78465201D01*
X123520144Y-78471855D01*
X123516360Y-78478168D01*
X123511976Y-78484079D01*
X123507033Y-78489533D01*
X123501579Y-78494476D01*
X123495668Y-78498860D01*
X123489355Y-78502644D01*
X123482701Y-78505791D01*
X123475771Y-78508271D01*
X123468632Y-78510059D01*
X123461351Y-78511139D01*
X123454000Y-78511500D01*
X123304000Y-78511500D01*
X123296649Y-78511139D01*
X123289368Y-78510059D01*
X123282229Y-78508271D01*
X123275299Y-78505791D01*
X123268645Y-78502644D01*
X123262332Y-78498860D01*
X123256421Y-78494476D01*
X123250967Y-78489533D01*
X123246024Y-78484079D01*
X123241640Y-78478168D01*
X123237856Y-78471855D01*
X123234709Y-78465201D01*
X123232229Y-78458271D01*
X123230441Y-78451132D01*
X123229361Y-78443851D01*
X123229000Y-78436500D01*
X123229000Y-77111500D01*
X123229361Y-77104149D01*
X123230441Y-77096868D01*
X123232229Y-77089729D01*
X123234709Y-77082799D01*
X123237856Y-77076145D01*
X123241640Y-77069832D01*
X123246024Y-77063921D01*
X123250967Y-77058467D01*
X123256421Y-77053524D01*
X123262332Y-77049140D01*
X123268645Y-77045356D01*
X123275299Y-77042209D01*
X123282229Y-77039729D01*
X123289368Y-77037941D01*
X123296649Y-77036861D01*
X123304000Y-77036500D01*
X123454000Y-77036500D01*
X123461351Y-77036861D01*
X123461351Y-77036861D01*
G37*
D17*
X123379000Y-77774000D03*
D16*
G36*
X122961351Y-77036861D02*
G01*
X122968632Y-77037941D01*
X122975771Y-77039729D01*
X122982701Y-77042209D01*
X122989355Y-77045356D01*
X122995668Y-77049140D01*
X123001579Y-77053524D01*
X123007033Y-77058467D01*
X123011976Y-77063921D01*
X123016360Y-77069832D01*
X123020144Y-77076145D01*
X123023291Y-77082799D01*
X123025771Y-77089729D01*
X123027559Y-77096868D01*
X123028639Y-77104149D01*
X123029000Y-77111500D01*
X123029000Y-78436500D01*
X123028639Y-78443851D01*
X123027559Y-78451132D01*
X123025771Y-78458271D01*
X123023291Y-78465201D01*
X123020144Y-78471855D01*
X123016360Y-78478168D01*
X123011976Y-78484079D01*
X123007033Y-78489533D01*
X123001579Y-78494476D01*
X122995668Y-78498860D01*
X122989355Y-78502644D01*
X122982701Y-78505791D01*
X122975771Y-78508271D01*
X122968632Y-78510059D01*
X122961351Y-78511139D01*
X122954000Y-78511500D01*
X122804000Y-78511500D01*
X122796649Y-78511139D01*
X122789368Y-78510059D01*
X122782229Y-78508271D01*
X122775299Y-78505791D01*
X122768645Y-78502644D01*
X122762332Y-78498860D01*
X122756421Y-78494476D01*
X122750967Y-78489533D01*
X122746024Y-78484079D01*
X122741640Y-78478168D01*
X122737856Y-78471855D01*
X122734709Y-78465201D01*
X122732229Y-78458271D01*
X122730441Y-78451132D01*
X122729361Y-78443851D01*
X122729000Y-78436500D01*
X122729000Y-77111500D01*
X122729361Y-77104149D01*
X122730441Y-77096868D01*
X122732229Y-77089729D01*
X122734709Y-77082799D01*
X122737856Y-77076145D01*
X122741640Y-77069832D01*
X122746024Y-77063921D01*
X122750967Y-77058467D01*
X122756421Y-77053524D01*
X122762332Y-77049140D01*
X122768645Y-77045356D01*
X122775299Y-77042209D01*
X122782229Y-77039729D01*
X122789368Y-77037941D01*
X122796649Y-77036861D01*
X122804000Y-77036500D01*
X122954000Y-77036500D01*
X122961351Y-77036861D01*
X122961351Y-77036861D01*
G37*
D17*
X122879000Y-77774000D03*
D16*
G36*
X122136351Y-79036861D02*
G01*
X122143632Y-79037941D01*
X122150771Y-79039729D01*
X122157701Y-79042209D01*
X122164355Y-79045356D01*
X122170668Y-79049140D01*
X122176579Y-79053524D01*
X122182033Y-79058467D01*
X122186976Y-79063921D01*
X122191360Y-79069832D01*
X122195144Y-79076145D01*
X122198291Y-79082799D01*
X122200771Y-79089729D01*
X122202559Y-79096868D01*
X122203639Y-79104149D01*
X122204000Y-79111500D01*
X122204000Y-79261500D01*
X122203639Y-79268851D01*
X122202559Y-79276132D01*
X122200771Y-79283271D01*
X122198291Y-79290201D01*
X122195144Y-79296855D01*
X122191360Y-79303168D01*
X122186976Y-79309079D01*
X122182033Y-79314533D01*
X122176579Y-79319476D01*
X122170668Y-79323860D01*
X122164355Y-79327644D01*
X122157701Y-79330791D01*
X122150771Y-79333271D01*
X122143632Y-79335059D01*
X122136351Y-79336139D01*
X122129000Y-79336500D01*
X120804000Y-79336500D01*
X120796649Y-79336139D01*
X120789368Y-79335059D01*
X120782229Y-79333271D01*
X120775299Y-79330791D01*
X120768645Y-79327644D01*
X120762332Y-79323860D01*
X120756421Y-79319476D01*
X120750967Y-79314533D01*
X120746024Y-79309079D01*
X120741640Y-79303168D01*
X120737856Y-79296855D01*
X120734709Y-79290201D01*
X120732229Y-79283271D01*
X120730441Y-79276132D01*
X120729361Y-79268851D01*
X120729000Y-79261500D01*
X120729000Y-79111500D01*
X120729361Y-79104149D01*
X120730441Y-79096868D01*
X120732229Y-79089729D01*
X120734709Y-79082799D01*
X120737856Y-79076145D01*
X120741640Y-79069832D01*
X120746024Y-79063921D01*
X120750967Y-79058467D01*
X120756421Y-79053524D01*
X120762332Y-79049140D01*
X120768645Y-79045356D01*
X120775299Y-79042209D01*
X120782229Y-79039729D01*
X120789368Y-79037941D01*
X120796649Y-79036861D01*
X120804000Y-79036500D01*
X122129000Y-79036500D01*
X122136351Y-79036861D01*
X122136351Y-79036861D01*
G37*
D17*
X121466500Y-79186500D03*
D16*
G36*
X122136351Y-79536861D02*
G01*
X122143632Y-79537941D01*
X122150771Y-79539729D01*
X122157701Y-79542209D01*
X122164355Y-79545356D01*
X122170668Y-79549140D01*
X122176579Y-79553524D01*
X122182033Y-79558467D01*
X122186976Y-79563921D01*
X122191360Y-79569832D01*
X122195144Y-79576145D01*
X122198291Y-79582799D01*
X122200771Y-79589729D01*
X122202559Y-79596868D01*
X122203639Y-79604149D01*
X122204000Y-79611500D01*
X122204000Y-79761500D01*
X122203639Y-79768851D01*
X122202559Y-79776132D01*
X122200771Y-79783271D01*
X122198291Y-79790201D01*
X122195144Y-79796855D01*
X122191360Y-79803168D01*
X122186976Y-79809079D01*
X122182033Y-79814533D01*
X122176579Y-79819476D01*
X122170668Y-79823860D01*
X122164355Y-79827644D01*
X122157701Y-79830791D01*
X122150771Y-79833271D01*
X122143632Y-79835059D01*
X122136351Y-79836139D01*
X122129000Y-79836500D01*
X120804000Y-79836500D01*
X120796649Y-79836139D01*
X120789368Y-79835059D01*
X120782229Y-79833271D01*
X120775299Y-79830791D01*
X120768645Y-79827644D01*
X120762332Y-79823860D01*
X120756421Y-79819476D01*
X120750967Y-79814533D01*
X120746024Y-79809079D01*
X120741640Y-79803168D01*
X120737856Y-79796855D01*
X120734709Y-79790201D01*
X120732229Y-79783271D01*
X120730441Y-79776132D01*
X120729361Y-79768851D01*
X120729000Y-79761500D01*
X120729000Y-79611500D01*
X120729361Y-79604149D01*
X120730441Y-79596868D01*
X120732229Y-79589729D01*
X120734709Y-79582799D01*
X120737856Y-79576145D01*
X120741640Y-79569832D01*
X120746024Y-79563921D01*
X120750967Y-79558467D01*
X120756421Y-79553524D01*
X120762332Y-79549140D01*
X120768645Y-79545356D01*
X120775299Y-79542209D01*
X120782229Y-79539729D01*
X120789368Y-79537941D01*
X120796649Y-79536861D01*
X120804000Y-79536500D01*
X122129000Y-79536500D01*
X122136351Y-79536861D01*
X122136351Y-79536861D01*
G37*
D17*
X121466500Y-79686500D03*
D16*
G36*
X122136351Y-80036861D02*
G01*
X122143632Y-80037941D01*
X122150771Y-80039729D01*
X122157701Y-80042209D01*
X122164355Y-80045356D01*
X122170668Y-80049140D01*
X122176579Y-80053524D01*
X122182033Y-80058467D01*
X122186976Y-80063921D01*
X122191360Y-80069832D01*
X122195144Y-80076145D01*
X122198291Y-80082799D01*
X122200771Y-80089729D01*
X122202559Y-80096868D01*
X122203639Y-80104149D01*
X122204000Y-80111500D01*
X122204000Y-80261500D01*
X122203639Y-80268851D01*
X122202559Y-80276132D01*
X122200771Y-80283271D01*
X122198291Y-80290201D01*
X122195144Y-80296855D01*
X122191360Y-80303168D01*
X122186976Y-80309079D01*
X122182033Y-80314533D01*
X122176579Y-80319476D01*
X122170668Y-80323860D01*
X122164355Y-80327644D01*
X122157701Y-80330791D01*
X122150771Y-80333271D01*
X122143632Y-80335059D01*
X122136351Y-80336139D01*
X122129000Y-80336500D01*
X120804000Y-80336500D01*
X120796649Y-80336139D01*
X120789368Y-80335059D01*
X120782229Y-80333271D01*
X120775299Y-80330791D01*
X120768645Y-80327644D01*
X120762332Y-80323860D01*
X120756421Y-80319476D01*
X120750967Y-80314533D01*
X120746024Y-80309079D01*
X120741640Y-80303168D01*
X120737856Y-80296855D01*
X120734709Y-80290201D01*
X120732229Y-80283271D01*
X120730441Y-80276132D01*
X120729361Y-80268851D01*
X120729000Y-80261500D01*
X120729000Y-80111500D01*
X120729361Y-80104149D01*
X120730441Y-80096868D01*
X120732229Y-80089729D01*
X120734709Y-80082799D01*
X120737856Y-80076145D01*
X120741640Y-80069832D01*
X120746024Y-80063921D01*
X120750967Y-80058467D01*
X120756421Y-80053524D01*
X120762332Y-80049140D01*
X120768645Y-80045356D01*
X120775299Y-80042209D01*
X120782229Y-80039729D01*
X120789368Y-80037941D01*
X120796649Y-80036861D01*
X120804000Y-80036500D01*
X122129000Y-80036500D01*
X122136351Y-80036861D01*
X122136351Y-80036861D01*
G37*
D17*
X121466500Y-80186500D03*
D16*
G36*
X122136351Y-80536861D02*
G01*
X122143632Y-80537941D01*
X122150771Y-80539729D01*
X122157701Y-80542209D01*
X122164355Y-80545356D01*
X122170668Y-80549140D01*
X122176579Y-80553524D01*
X122182033Y-80558467D01*
X122186976Y-80563921D01*
X122191360Y-80569832D01*
X122195144Y-80576145D01*
X122198291Y-80582799D01*
X122200771Y-80589729D01*
X122202559Y-80596868D01*
X122203639Y-80604149D01*
X122204000Y-80611500D01*
X122204000Y-80761500D01*
X122203639Y-80768851D01*
X122202559Y-80776132D01*
X122200771Y-80783271D01*
X122198291Y-80790201D01*
X122195144Y-80796855D01*
X122191360Y-80803168D01*
X122186976Y-80809079D01*
X122182033Y-80814533D01*
X122176579Y-80819476D01*
X122170668Y-80823860D01*
X122164355Y-80827644D01*
X122157701Y-80830791D01*
X122150771Y-80833271D01*
X122143632Y-80835059D01*
X122136351Y-80836139D01*
X122129000Y-80836500D01*
X120804000Y-80836500D01*
X120796649Y-80836139D01*
X120789368Y-80835059D01*
X120782229Y-80833271D01*
X120775299Y-80830791D01*
X120768645Y-80827644D01*
X120762332Y-80823860D01*
X120756421Y-80819476D01*
X120750967Y-80814533D01*
X120746024Y-80809079D01*
X120741640Y-80803168D01*
X120737856Y-80796855D01*
X120734709Y-80790201D01*
X120732229Y-80783271D01*
X120730441Y-80776132D01*
X120729361Y-80768851D01*
X120729000Y-80761500D01*
X120729000Y-80611500D01*
X120729361Y-80604149D01*
X120730441Y-80596868D01*
X120732229Y-80589729D01*
X120734709Y-80582799D01*
X120737856Y-80576145D01*
X120741640Y-80569832D01*
X120746024Y-80563921D01*
X120750967Y-80558467D01*
X120756421Y-80553524D01*
X120762332Y-80549140D01*
X120768645Y-80545356D01*
X120775299Y-80542209D01*
X120782229Y-80539729D01*
X120789368Y-80537941D01*
X120796649Y-80536861D01*
X120804000Y-80536500D01*
X122129000Y-80536500D01*
X122136351Y-80536861D01*
X122136351Y-80536861D01*
G37*
D17*
X121466500Y-80686500D03*
D16*
G36*
X122136351Y-81036861D02*
G01*
X122143632Y-81037941D01*
X122150771Y-81039729D01*
X122157701Y-81042209D01*
X122164355Y-81045356D01*
X122170668Y-81049140D01*
X122176579Y-81053524D01*
X122182033Y-81058467D01*
X122186976Y-81063921D01*
X122191360Y-81069832D01*
X122195144Y-81076145D01*
X122198291Y-81082799D01*
X122200771Y-81089729D01*
X122202559Y-81096868D01*
X122203639Y-81104149D01*
X122204000Y-81111500D01*
X122204000Y-81261500D01*
X122203639Y-81268851D01*
X122202559Y-81276132D01*
X122200771Y-81283271D01*
X122198291Y-81290201D01*
X122195144Y-81296855D01*
X122191360Y-81303168D01*
X122186976Y-81309079D01*
X122182033Y-81314533D01*
X122176579Y-81319476D01*
X122170668Y-81323860D01*
X122164355Y-81327644D01*
X122157701Y-81330791D01*
X122150771Y-81333271D01*
X122143632Y-81335059D01*
X122136351Y-81336139D01*
X122129000Y-81336500D01*
X120804000Y-81336500D01*
X120796649Y-81336139D01*
X120789368Y-81335059D01*
X120782229Y-81333271D01*
X120775299Y-81330791D01*
X120768645Y-81327644D01*
X120762332Y-81323860D01*
X120756421Y-81319476D01*
X120750967Y-81314533D01*
X120746024Y-81309079D01*
X120741640Y-81303168D01*
X120737856Y-81296855D01*
X120734709Y-81290201D01*
X120732229Y-81283271D01*
X120730441Y-81276132D01*
X120729361Y-81268851D01*
X120729000Y-81261500D01*
X120729000Y-81111500D01*
X120729361Y-81104149D01*
X120730441Y-81096868D01*
X120732229Y-81089729D01*
X120734709Y-81082799D01*
X120737856Y-81076145D01*
X120741640Y-81069832D01*
X120746024Y-81063921D01*
X120750967Y-81058467D01*
X120756421Y-81053524D01*
X120762332Y-81049140D01*
X120768645Y-81045356D01*
X120775299Y-81042209D01*
X120782229Y-81039729D01*
X120789368Y-81037941D01*
X120796649Y-81036861D01*
X120804000Y-81036500D01*
X122129000Y-81036500D01*
X122136351Y-81036861D01*
X122136351Y-81036861D01*
G37*
D17*
X121466500Y-81186500D03*
D16*
G36*
X122136351Y-81536861D02*
G01*
X122143632Y-81537941D01*
X122150771Y-81539729D01*
X122157701Y-81542209D01*
X122164355Y-81545356D01*
X122170668Y-81549140D01*
X122176579Y-81553524D01*
X122182033Y-81558467D01*
X122186976Y-81563921D01*
X122191360Y-81569832D01*
X122195144Y-81576145D01*
X122198291Y-81582799D01*
X122200771Y-81589729D01*
X122202559Y-81596868D01*
X122203639Y-81604149D01*
X122204000Y-81611500D01*
X122204000Y-81761500D01*
X122203639Y-81768851D01*
X122202559Y-81776132D01*
X122200771Y-81783271D01*
X122198291Y-81790201D01*
X122195144Y-81796855D01*
X122191360Y-81803168D01*
X122186976Y-81809079D01*
X122182033Y-81814533D01*
X122176579Y-81819476D01*
X122170668Y-81823860D01*
X122164355Y-81827644D01*
X122157701Y-81830791D01*
X122150771Y-81833271D01*
X122143632Y-81835059D01*
X122136351Y-81836139D01*
X122129000Y-81836500D01*
X120804000Y-81836500D01*
X120796649Y-81836139D01*
X120789368Y-81835059D01*
X120782229Y-81833271D01*
X120775299Y-81830791D01*
X120768645Y-81827644D01*
X120762332Y-81823860D01*
X120756421Y-81819476D01*
X120750967Y-81814533D01*
X120746024Y-81809079D01*
X120741640Y-81803168D01*
X120737856Y-81796855D01*
X120734709Y-81790201D01*
X120732229Y-81783271D01*
X120730441Y-81776132D01*
X120729361Y-81768851D01*
X120729000Y-81761500D01*
X120729000Y-81611500D01*
X120729361Y-81604149D01*
X120730441Y-81596868D01*
X120732229Y-81589729D01*
X120734709Y-81582799D01*
X120737856Y-81576145D01*
X120741640Y-81569832D01*
X120746024Y-81563921D01*
X120750967Y-81558467D01*
X120756421Y-81553524D01*
X120762332Y-81549140D01*
X120768645Y-81545356D01*
X120775299Y-81542209D01*
X120782229Y-81539729D01*
X120789368Y-81537941D01*
X120796649Y-81536861D01*
X120804000Y-81536500D01*
X122129000Y-81536500D01*
X122136351Y-81536861D01*
X122136351Y-81536861D01*
G37*
D17*
X121466500Y-81686500D03*
D16*
G36*
X122136351Y-82036861D02*
G01*
X122143632Y-82037941D01*
X122150771Y-82039729D01*
X122157701Y-82042209D01*
X122164355Y-82045356D01*
X122170668Y-82049140D01*
X122176579Y-82053524D01*
X122182033Y-82058467D01*
X122186976Y-82063921D01*
X122191360Y-82069832D01*
X122195144Y-82076145D01*
X122198291Y-82082799D01*
X122200771Y-82089729D01*
X122202559Y-82096868D01*
X122203639Y-82104149D01*
X122204000Y-82111500D01*
X122204000Y-82261500D01*
X122203639Y-82268851D01*
X122202559Y-82276132D01*
X122200771Y-82283271D01*
X122198291Y-82290201D01*
X122195144Y-82296855D01*
X122191360Y-82303168D01*
X122186976Y-82309079D01*
X122182033Y-82314533D01*
X122176579Y-82319476D01*
X122170668Y-82323860D01*
X122164355Y-82327644D01*
X122157701Y-82330791D01*
X122150771Y-82333271D01*
X122143632Y-82335059D01*
X122136351Y-82336139D01*
X122129000Y-82336500D01*
X120804000Y-82336500D01*
X120796649Y-82336139D01*
X120789368Y-82335059D01*
X120782229Y-82333271D01*
X120775299Y-82330791D01*
X120768645Y-82327644D01*
X120762332Y-82323860D01*
X120756421Y-82319476D01*
X120750967Y-82314533D01*
X120746024Y-82309079D01*
X120741640Y-82303168D01*
X120737856Y-82296855D01*
X120734709Y-82290201D01*
X120732229Y-82283271D01*
X120730441Y-82276132D01*
X120729361Y-82268851D01*
X120729000Y-82261500D01*
X120729000Y-82111500D01*
X120729361Y-82104149D01*
X120730441Y-82096868D01*
X120732229Y-82089729D01*
X120734709Y-82082799D01*
X120737856Y-82076145D01*
X120741640Y-82069832D01*
X120746024Y-82063921D01*
X120750967Y-82058467D01*
X120756421Y-82053524D01*
X120762332Y-82049140D01*
X120768645Y-82045356D01*
X120775299Y-82042209D01*
X120782229Y-82039729D01*
X120789368Y-82037941D01*
X120796649Y-82036861D01*
X120804000Y-82036500D01*
X122129000Y-82036500D01*
X122136351Y-82036861D01*
X122136351Y-82036861D01*
G37*
D17*
X121466500Y-82186500D03*
D16*
G36*
X122136351Y-82536861D02*
G01*
X122143632Y-82537941D01*
X122150771Y-82539729D01*
X122157701Y-82542209D01*
X122164355Y-82545356D01*
X122170668Y-82549140D01*
X122176579Y-82553524D01*
X122182033Y-82558467D01*
X122186976Y-82563921D01*
X122191360Y-82569832D01*
X122195144Y-82576145D01*
X122198291Y-82582799D01*
X122200771Y-82589729D01*
X122202559Y-82596868D01*
X122203639Y-82604149D01*
X122204000Y-82611500D01*
X122204000Y-82761500D01*
X122203639Y-82768851D01*
X122202559Y-82776132D01*
X122200771Y-82783271D01*
X122198291Y-82790201D01*
X122195144Y-82796855D01*
X122191360Y-82803168D01*
X122186976Y-82809079D01*
X122182033Y-82814533D01*
X122176579Y-82819476D01*
X122170668Y-82823860D01*
X122164355Y-82827644D01*
X122157701Y-82830791D01*
X122150771Y-82833271D01*
X122143632Y-82835059D01*
X122136351Y-82836139D01*
X122129000Y-82836500D01*
X120804000Y-82836500D01*
X120796649Y-82836139D01*
X120789368Y-82835059D01*
X120782229Y-82833271D01*
X120775299Y-82830791D01*
X120768645Y-82827644D01*
X120762332Y-82823860D01*
X120756421Y-82819476D01*
X120750967Y-82814533D01*
X120746024Y-82809079D01*
X120741640Y-82803168D01*
X120737856Y-82796855D01*
X120734709Y-82790201D01*
X120732229Y-82783271D01*
X120730441Y-82776132D01*
X120729361Y-82768851D01*
X120729000Y-82761500D01*
X120729000Y-82611500D01*
X120729361Y-82604149D01*
X120730441Y-82596868D01*
X120732229Y-82589729D01*
X120734709Y-82582799D01*
X120737856Y-82576145D01*
X120741640Y-82569832D01*
X120746024Y-82563921D01*
X120750967Y-82558467D01*
X120756421Y-82553524D01*
X120762332Y-82549140D01*
X120768645Y-82545356D01*
X120775299Y-82542209D01*
X120782229Y-82539729D01*
X120789368Y-82537941D01*
X120796649Y-82536861D01*
X120804000Y-82536500D01*
X122129000Y-82536500D01*
X122136351Y-82536861D01*
X122136351Y-82536861D01*
G37*
D17*
X121466500Y-82686500D03*
D16*
G36*
X122136351Y-83036861D02*
G01*
X122143632Y-83037941D01*
X122150771Y-83039729D01*
X122157701Y-83042209D01*
X122164355Y-83045356D01*
X122170668Y-83049140D01*
X122176579Y-83053524D01*
X122182033Y-83058467D01*
X122186976Y-83063921D01*
X122191360Y-83069832D01*
X122195144Y-83076145D01*
X122198291Y-83082799D01*
X122200771Y-83089729D01*
X122202559Y-83096868D01*
X122203639Y-83104149D01*
X122204000Y-83111500D01*
X122204000Y-83261500D01*
X122203639Y-83268851D01*
X122202559Y-83276132D01*
X122200771Y-83283271D01*
X122198291Y-83290201D01*
X122195144Y-83296855D01*
X122191360Y-83303168D01*
X122186976Y-83309079D01*
X122182033Y-83314533D01*
X122176579Y-83319476D01*
X122170668Y-83323860D01*
X122164355Y-83327644D01*
X122157701Y-83330791D01*
X122150771Y-83333271D01*
X122143632Y-83335059D01*
X122136351Y-83336139D01*
X122129000Y-83336500D01*
X120804000Y-83336500D01*
X120796649Y-83336139D01*
X120789368Y-83335059D01*
X120782229Y-83333271D01*
X120775299Y-83330791D01*
X120768645Y-83327644D01*
X120762332Y-83323860D01*
X120756421Y-83319476D01*
X120750967Y-83314533D01*
X120746024Y-83309079D01*
X120741640Y-83303168D01*
X120737856Y-83296855D01*
X120734709Y-83290201D01*
X120732229Y-83283271D01*
X120730441Y-83276132D01*
X120729361Y-83268851D01*
X120729000Y-83261500D01*
X120729000Y-83111500D01*
X120729361Y-83104149D01*
X120730441Y-83096868D01*
X120732229Y-83089729D01*
X120734709Y-83082799D01*
X120737856Y-83076145D01*
X120741640Y-83069832D01*
X120746024Y-83063921D01*
X120750967Y-83058467D01*
X120756421Y-83053524D01*
X120762332Y-83049140D01*
X120768645Y-83045356D01*
X120775299Y-83042209D01*
X120782229Y-83039729D01*
X120789368Y-83037941D01*
X120796649Y-83036861D01*
X120804000Y-83036500D01*
X122129000Y-83036500D01*
X122136351Y-83036861D01*
X122136351Y-83036861D01*
G37*
D17*
X121466500Y-83186500D03*
D16*
G36*
X122136351Y-83536861D02*
G01*
X122143632Y-83537941D01*
X122150771Y-83539729D01*
X122157701Y-83542209D01*
X122164355Y-83545356D01*
X122170668Y-83549140D01*
X122176579Y-83553524D01*
X122182033Y-83558467D01*
X122186976Y-83563921D01*
X122191360Y-83569832D01*
X122195144Y-83576145D01*
X122198291Y-83582799D01*
X122200771Y-83589729D01*
X122202559Y-83596868D01*
X122203639Y-83604149D01*
X122204000Y-83611500D01*
X122204000Y-83761500D01*
X122203639Y-83768851D01*
X122202559Y-83776132D01*
X122200771Y-83783271D01*
X122198291Y-83790201D01*
X122195144Y-83796855D01*
X122191360Y-83803168D01*
X122186976Y-83809079D01*
X122182033Y-83814533D01*
X122176579Y-83819476D01*
X122170668Y-83823860D01*
X122164355Y-83827644D01*
X122157701Y-83830791D01*
X122150771Y-83833271D01*
X122143632Y-83835059D01*
X122136351Y-83836139D01*
X122129000Y-83836500D01*
X120804000Y-83836500D01*
X120796649Y-83836139D01*
X120789368Y-83835059D01*
X120782229Y-83833271D01*
X120775299Y-83830791D01*
X120768645Y-83827644D01*
X120762332Y-83823860D01*
X120756421Y-83819476D01*
X120750967Y-83814533D01*
X120746024Y-83809079D01*
X120741640Y-83803168D01*
X120737856Y-83796855D01*
X120734709Y-83790201D01*
X120732229Y-83783271D01*
X120730441Y-83776132D01*
X120729361Y-83768851D01*
X120729000Y-83761500D01*
X120729000Y-83611500D01*
X120729361Y-83604149D01*
X120730441Y-83596868D01*
X120732229Y-83589729D01*
X120734709Y-83582799D01*
X120737856Y-83576145D01*
X120741640Y-83569832D01*
X120746024Y-83563921D01*
X120750967Y-83558467D01*
X120756421Y-83553524D01*
X120762332Y-83549140D01*
X120768645Y-83545356D01*
X120775299Y-83542209D01*
X120782229Y-83539729D01*
X120789368Y-83537941D01*
X120796649Y-83536861D01*
X120804000Y-83536500D01*
X122129000Y-83536500D01*
X122136351Y-83536861D01*
X122136351Y-83536861D01*
G37*
D17*
X121466500Y-83686500D03*
D16*
G36*
X122136351Y-84036861D02*
G01*
X122143632Y-84037941D01*
X122150771Y-84039729D01*
X122157701Y-84042209D01*
X122164355Y-84045356D01*
X122170668Y-84049140D01*
X122176579Y-84053524D01*
X122182033Y-84058467D01*
X122186976Y-84063921D01*
X122191360Y-84069832D01*
X122195144Y-84076145D01*
X122198291Y-84082799D01*
X122200771Y-84089729D01*
X122202559Y-84096868D01*
X122203639Y-84104149D01*
X122204000Y-84111500D01*
X122204000Y-84261500D01*
X122203639Y-84268851D01*
X122202559Y-84276132D01*
X122200771Y-84283271D01*
X122198291Y-84290201D01*
X122195144Y-84296855D01*
X122191360Y-84303168D01*
X122186976Y-84309079D01*
X122182033Y-84314533D01*
X122176579Y-84319476D01*
X122170668Y-84323860D01*
X122164355Y-84327644D01*
X122157701Y-84330791D01*
X122150771Y-84333271D01*
X122143632Y-84335059D01*
X122136351Y-84336139D01*
X122129000Y-84336500D01*
X120804000Y-84336500D01*
X120796649Y-84336139D01*
X120789368Y-84335059D01*
X120782229Y-84333271D01*
X120775299Y-84330791D01*
X120768645Y-84327644D01*
X120762332Y-84323860D01*
X120756421Y-84319476D01*
X120750967Y-84314533D01*
X120746024Y-84309079D01*
X120741640Y-84303168D01*
X120737856Y-84296855D01*
X120734709Y-84290201D01*
X120732229Y-84283271D01*
X120730441Y-84276132D01*
X120729361Y-84268851D01*
X120729000Y-84261500D01*
X120729000Y-84111500D01*
X120729361Y-84104149D01*
X120730441Y-84096868D01*
X120732229Y-84089729D01*
X120734709Y-84082799D01*
X120737856Y-84076145D01*
X120741640Y-84069832D01*
X120746024Y-84063921D01*
X120750967Y-84058467D01*
X120756421Y-84053524D01*
X120762332Y-84049140D01*
X120768645Y-84045356D01*
X120775299Y-84042209D01*
X120782229Y-84039729D01*
X120789368Y-84037941D01*
X120796649Y-84036861D01*
X120804000Y-84036500D01*
X122129000Y-84036500D01*
X122136351Y-84036861D01*
X122136351Y-84036861D01*
G37*
D17*
X121466500Y-84186500D03*
D16*
G36*
X122136351Y-84536861D02*
G01*
X122143632Y-84537941D01*
X122150771Y-84539729D01*
X122157701Y-84542209D01*
X122164355Y-84545356D01*
X122170668Y-84549140D01*
X122176579Y-84553524D01*
X122182033Y-84558467D01*
X122186976Y-84563921D01*
X122191360Y-84569832D01*
X122195144Y-84576145D01*
X122198291Y-84582799D01*
X122200771Y-84589729D01*
X122202559Y-84596868D01*
X122203639Y-84604149D01*
X122204000Y-84611500D01*
X122204000Y-84761500D01*
X122203639Y-84768851D01*
X122202559Y-84776132D01*
X122200771Y-84783271D01*
X122198291Y-84790201D01*
X122195144Y-84796855D01*
X122191360Y-84803168D01*
X122186976Y-84809079D01*
X122182033Y-84814533D01*
X122176579Y-84819476D01*
X122170668Y-84823860D01*
X122164355Y-84827644D01*
X122157701Y-84830791D01*
X122150771Y-84833271D01*
X122143632Y-84835059D01*
X122136351Y-84836139D01*
X122129000Y-84836500D01*
X120804000Y-84836500D01*
X120796649Y-84836139D01*
X120789368Y-84835059D01*
X120782229Y-84833271D01*
X120775299Y-84830791D01*
X120768645Y-84827644D01*
X120762332Y-84823860D01*
X120756421Y-84819476D01*
X120750967Y-84814533D01*
X120746024Y-84809079D01*
X120741640Y-84803168D01*
X120737856Y-84796855D01*
X120734709Y-84790201D01*
X120732229Y-84783271D01*
X120730441Y-84776132D01*
X120729361Y-84768851D01*
X120729000Y-84761500D01*
X120729000Y-84611500D01*
X120729361Y-84604149D01*
X120730441Y-84596868D01*
X120732229Y-84589729D01*
X120734709Y-84582799D01*
X120737856Y-84576145D01*
X120741640Y-84569832D01*
X120746024Y-84563921D01*
X120750967Y-84558467D01*
X120756421Y-84553524D01*
X120762332Y-84549140D01*
X120768645Y-84545356D01*
X120775299Y-84542209D01*
X120782229Y-84539729D01*
X120789368Y-84537941D01*
X120796649Y-84536861D01*
X120804000Y-84536500D01*
X122129000Y-84536500D01*
X122136351Y-84536861D01*
X122136351Y-84536861D01*
G37*
D17*
X121466500Y-84686500D03*
D10*
X120898000Y-87839000D03*
X120898000Y-88689000D03*
D11*
X130499000Y-89568000D03*
X129649000Y-89568000D03*
X128869000Y-88168000D03*
X129719000Y-88168000D03*
D10*
X132124000Y-90403000D03*
X132124000Y-89553000D03*
D18*
X132223480Y-85447480D03*
D16*
G36*
X132665422Y-85429802D02*
G01*
X132205802Y-85889422D01*
X131781538Y-85465158D01*
X132241158Y-85005538D01*
X132665422Y-85429802D01*
X132665422Y-85429802D01*
G37*
D18*
X132824520Y-86048520D03*
D16*
G36*
X133266462Y-86030842D02*
G01*
X132806842Y-86490462D01*
X132382578Y-86066198D01*
X132842198Y-85606578D01*
X133266462Y-86030842D01*
X133266462Y-86030842D01*
G37*
D11*
X132999000Y-93398000D03*
X133849000Y-93398000D03*
X132989000Y-82468000D03*
X132139000Y-82468000D03*
D10*
X133664000Y-80543000D03*
X133664000Y-79693000D03*
D11*
X119439000Y-86188000D03*
X120289000Y-86188000D03*
D10*
X130164000Y-76823000D03*
X130164000Y-77673000D03*
D11*
X132889000Y-88168000D03*
X132039000Y-88168000D03*
D18*
X118823480Y-76167480D03*
D16*
G36*
X119265422Y-76149802D02*
G01*
X118805802Y-76609422D01*
X118381538Y-76185158D01*
X118841158Y-75725538D01*
X119265422Y-76149802D01*
X119265422Y-76149802D01*
G37*
D18*
X119424520Y-76768520D03*
D16*
G36*
X119866462Y-76750842D02*
G01*
X119406842Y-77210462D01*
X118982578Y-76786198D01*
X119442198Y-76326578D01*
X119866462Y-76750842D01*
X119866462Y-76750842D01*
G37*
D10*
X119498000Y-87839000D03*
X119498000Y-88689000D03*
D19*
X117894000Y-86988000D03*
X117894000Y-88528000D03*
D10*
X123674000Y-87839000D03*
X123674000Y-88689000D03*
D19*
X116094000Y-86998000D03*
X116094000Y-88538000D03*
D10*
X132064000Y-79693000D03*
X132064000Y-80543000D03*
X133524000Y-90403000D03*
X133524000Y-89553000D03*
D11*
X124683000Y-90026000D03*
X125533000Y-90026000D03*
X127719000Y-90026000D03*
X126869000Y-90026000D03*
M02*
