G04 #@! TF.GenerationSoftware,KiCad,Pcbnew,5.1.4-e60b266~84~ubuntu18.04.1*
G04 #@! TF.CreationDate,2019-10-31T20:09:33+08:00*
G04 #@! TF.ProjectId,dap-stm32f103,6461702d-7374-46d3-9332-663130332e6b,rev?*
G04 #@! TF.SameCoordinates,Original*
G04 #@! TF.FileFunction,Soldermask,Top*
G04 #@! TF.FilePolarity,Negative*
%FSLAX46Y46*%
G04 Gerber Fmt 4.6, Leading zero omitted, Abs format (unit mm)*
G04 Created by KiCad (PCBNEW 5.1.4-e60b266~84~ubuntu18.04.1) date 2019-10-31 20:09:33*
%MOMM*%
%LPD*%
G04 APERTURE LIST*
%ADD10C,0.100000*%
G04 APERTURE END LIST*
D10*
G36*
X118690000Y-96919000D02*
G01*
X117238000Y-96919000D01*
X117238000Y-94817000D01*
X118690000Y-94817000D01*
X118690000Y-96919000D01*
X118690000Y-96919000D01*
G37*
G36*
X116690000Y-96919000D02*
G01*
X115238000Y-96919000D01*
X115238000Y-94817000D01*
X116690000Y-94817000D01*
X116690000Y-96919000D01*
X116690000Y-96919000D01*
G37*
G36*
X130690000Y-96919000D02*
G01*
X129238000Y-96919000D01*
X129238000Y-94817000D01*
X130690000Y-94817000D01*
X130690000Y-96919000D01*
X130690000Y-96919000D01*
G37*
G36*
X120690000Y-96919000D02*
G01*
X119238000Y-96919000D01*
X119238000Y-94817000D01*
X120690000Y-94817000D01*
X120690000Y-96919000D01*
X120690000Y-96919000D01*
G37*
G36*
X134690000Y-96919000D02*
G01*
X133238000Y-96919000D01*
X133238000Y-94817000D01*
X134690000Y-94817000D01*
X134690000Y-96919000D01*
X134690000Y-96919000D01*
G37*
G36*
X124690000Y-96919000D02*
G01*
X123238000Y-96919000D01*
X123238000Y-94817000D01*
X124690000Y-94817000D01*
X124690000Y-96919000D01*
X124690000Y-96919000D01*
G37*
G36*
X132690000Y-96919000D02*
G01*
X131238000Y-96919000D01*
X131238000Y-94817000D01*
X132690000Y-94817000D01*
X132690000Y-96919000D01*
X132690000Y-96919000D01*
G37*
G36*
X122690000Y-96919000D02*
G01*
X121238000Y-96919000D01*
X121238000Y-94817000D01*
X122690000Y-94817000D01*
X122690000Y-96919000D01*
X122690000Y-96919000D01*
G37*
G36*
X126690000Y-96919000D02*
G01*
X125238000Y-96919000D01*
X125238000Y-94817000D01*
X126690000Y-94817000D01*
X126690000Y-96919000D01*
X126690000Y-96919000D01*
G37*
G36*
X128690000Y-96919000D02*
G01*
X127238000Y-96919000D01*
X127238000Y-94817000D01*
X128690000Y-94817000D01*
X128690000Y-96919000D01*
X128690000Y-96919000D01*
G37*
G36*
X115015000Y-94684000D02*
G01*
X112913000Y-94684000D01*
X112913000Y-93232000D01*
X115015000Y-93232000D01*
X115015000Y-94684000D01*
X115015000Y-94684000D01*
G37*
G36*
X137015000Y-94594000D02*
G01*
X134913000Y-94594000D01*
X134913000Y-93142000D01*
X137015000Y-93142000D01*
X137015000Y-94594000D01*
X137015000Y-94594000D01*
G37*
G36*
X120413335Y-93158934D02*
G01*
X120452610Y-93162802D01*
X120503002Y-93178089D01*
X120528199Y-93185732D01*
X120597862Y-93222968D01*
X120658922Y-93273078D01*
X120709032Y-93334138D01*
X120746268Y-93403801D01*
X120746268Y-93403802D01*
X120769198Y-93479390D01*
X120776940Y-93558000D01*
X120769198Y-93636610D01*
X120753911Y-93687002D01*
X120746268Y-93712199D01*
X120709032Y-93781862D01*
X120658922Y-93842922D01*
X120597862Y-93893032D01*
X120528199Y-93930268D01*
X120503002Y-93937911D01*
X120452610Y-93953198D01*
X120413335Y-93957066D01*
X120393699Y-93959000D01*
X119154301Y-93959000D01*
X119134665Y-93957066D01*
X119095390Y-93953198D01*
X119044998Y-93937911D01*
X119019801Y-93930268D01*
X118950138Y-93893032D01*
X118889078Y-93842922D01*
X118838968Y-93781862D01*
X118801732Y-93712199D01*
X118794089Y-93687002D01*
X118778802Y-93636610D01*
X118771060Y-93558000D01*
X118778802Y-93479390D01*
X118801732Y-93403802D01*
X118801732Y-93403801D01*
X118838968Y-93334138D01*
X118889078Y-93273078D01*
X118950138Y-93222968D01*
X119019801Y-93185732D01*
X119044998Y-93178089D01*
X119095390Y-93162802D01*
X119134665Y-93158934D01*
X119154301Y-93157000D01*
X120393699Y-93157000D01*
X120413335Y-93158934D01*
X120413335Y-93158934D01*
G37*
G36*
X134200000Y-93774000D02*
G01*
X132648000Y-93774000D01*
X132648000Y-93022000D01*
X134200000Y-93022000D01*
X134200000Y-93774000D01*
X134200000Y-93774000D01*
G37*
G36*
X130355000Y-93709000D02*
G01*
X128353000Y-93709000D01*
X128353000Y-91207000D01*
X130355000Y-91207000D01*
X130355000Y-93709000D01*
X130355000Y-93709000D01*
G37*
G36*
X126255000Y-93709000D02*
G01*
X124253000Y-93709000D01*
X124253000Y-91207000D01*
X126255000Y-91207000D01*
X126255000Y-93709000D01*
X126255000Y-93709000D01*
G37*
G36*
X118127097Y-91012069D02*
G01*
X118230032Y-91022207D01*
X118428146Y-91082305D01*
X118428149Y-91082306D01*
X118524975Y-91134061D01*
X118610729Y-91179897D01*
X118770765Y-91311235D01*
X118902103Y-91471271D01*
X118962835Y-91584894D01*
X118966059Y-91590925D01*
X118979672Y-91611299D01*
X118996999Y-91628626D01*
X119017374Y-91642240D01*
X119040013Y-91651618D01*
X119064046Y-91656398D01*
X119076298Y-91657000D01*
X120393699Y-91657000D01*
X120413335Y-91658934D01*
X120452610Y-91662802D01*
X120503002Y-91678089D01*
X120528199Y-91685732D01*
X120597862Y-91722968D01*
X120658922Y-91773078D01*
X120709032Y-91834138D01*
X120746268Y-91903801D01*
X120746268Y-91903802D01*
X120769198Y-91979390D01*
X120776940Y-92058000D01*
X120769198Y-92136610D01*
X120753911Y-92187002D01*
X120746268Y-92212199D01*
X120709032Y-92281862D01*
X120658922Y-92342922D01*
X120597862Y-92393032D01*
X120528199Y-92430268D01*
X120503002Y-92437911D01*
X120452610Y-92453198D01*
X120413335Y-92457066D01*
X120393699Y-92459000D01*
X119076298Y-92459000D01*
X119051912Y-92461402D01*
X119028463Y-92468515D01*
X119006852Y-92480066D01*
X118987910Y-92495611D01*
X118972365Y-92514553D01*
X118966059Y-92525075D01*
X118902103Y-92644729D01*
X118770765Y-92804765D01*
X118610729Y-92936103D01*
X118524975Y-92981939D01*
X118428149Y-93033694D01*
X118428146Y-93033695D01*
X118230032Y-93093793D01*
X118127097Y-93103931D01*
X118075631Y-93109000D01*
X116472369Y-93109000D01*
X116420903Y-93103931D01*
X116317968Y-93093793D01*
X116119854Y-93033695D01*
X116119851Y-93033694D01*
X116023025Y-92981939D01*
X115937271Y-92936103D01*
X115777235Y-92804765D01*
X115645897Y-92644729D01*
X115551709Y-92468515D01*
X115548306Y-92462149D01*
X115527339Y-92393032D01*
X115488207Y-92264032D01*
X115467915Y-92058000D01*
X115488207Y-91851968D01*
X115548305Y-91653854D01*
X115548306Y-91653851D01*
X115600061Y-91557025D01*
X115645897Y-91471271D01*
X115777235Y-91311235D01*
X115937271Y-91179897D01*
X116023025Y-91134061D01*
X116119851Y-91082306D01*
X116119854Y-91082305D01*
X116317968Y-91022207D01*
X116420903Y-91012069D01*
X116472369Y-91007000D01*
X118075631Y-91007000D01*
X118127097Y-91012069D01*
X118127097Y-91012069D01*
G37*
G36*
X115015000Y-92684000D02*
G01*
X112913000Y-92684000D01*
X112913000Y-91232000D01*
X115015000Y-91232000D01*
X115015000Y-92684000D01*
X115015000Y-92684000D01*
G37*
G36*
X137015000Y-92594000D02*
G01*
X134913000Y-92594000D01*
X134913000Y-91142000D01*
X137015000Y-91142000D01*
X137015000Y-92594000D01*
X137015000Y-92594000D01*
G37*
G36*
X134210000Y-92384000D02*
G01*
X132658000Y-92384000D01*
X132658000Y-91632000D01*
X134210000Y-91632000D01*
X134210000Y-92384000D01*
X134210000Y-92384000D01*
G37*
G36*
X120413335Y-90158934D02*
G01*
X120452610Y-90162802D01*
X120503002Y-90178089D01*
X120528199Y-90185732D01*
X120597862Y-90222968D01*
X120658922Y-90273078D01*
X120709032Y-90334138D01*
X120746268Y-90403801D01*
X120746268Y-90403802D01*
X120769198Y-90479390D01*
X120776940Y-90558000D01*
X120769198Y-90636610D01*
X120754822Y-90684000D01*
X120746268Y-90712199D01*
X120709032Y-90781862D01*
X120658922Y-90842922D01*
X120597862Y-90893032D01*
X120528199Y-90930268D01*
X120503002Y-90937911D01*
X120452610Y-90953198D01*
X120413335Y-90957066D01*
X120393699Y-90959000D01*
X119154301Y-90959000D01*
X119134665Y-90957066D01*
X119095390Y-90953198D01*
X119044998Y-90937911D01*
X119019801Y-90930268D01*
X118950138Y-90893032D01*
X118889078Y-90842922D01*
X118838968Y-90781862D01*
X118801732Y-90712199D01*
X118793178Y-90684000D01*
X118778802Y-90636610D01*
X118771060Y-90558000D01*
X118778802Y-90479390D01*
X118801732Y-90403802D01*
X118801732Y-90403801D01*
X118838968Y-90334138D01*
X118889078Y-90273078D01*
X118950138Y-90222968D01*
X119019801Y-90185732D01*
X119044998Y-90178089D01*
X119095390Y-90162802D01*
X119134665Y-90158934D01*
X119154301Y-90157000D01*
X120393699Y-90157000D01*
X120413335Y-90158934D01*
X120413335Y-90158934D01*
G37*
G36*
X133900000Y-90754000D02*
G01*
X133148000Y-90754000D01*
X133148000Y-89202000D01*
X133900000Y-89202000D01*
X133900000Y-90754000D01*
X133900000Y-90754000D01*
G37*
G36*
X132500000Y-90754000D02*
G01*
X131748000Y-90754000D01*
X131748000Y-89202000D01*
X132500000Y-89202000D01*
X132500000Y-90754000D01*
X132500000Y-90754000D01*
G37*
G36*
X115015000Y-90684000D02*
G01*
X112913000Y-90684000D01*
X112913000Y-89232000D01*
X115015000Y-89232000D01*
X115015000Y-90684000D01*
X115015000Y-90684000D01*
G37*
G36*
X137015000Y-90594000D02*
G01*
X134913000Y-90594000D01*
X134913000Y-89142000D01*
X137015000Y-89142000D01*
X137015000Y-90594000D01*
X137015000Y-90594000D01*
G37*
G36*
X128070000Y-90402000D02*
G01*
X126518000Y-90402000D01*
X126518000Y-89650000D01*
X128070000Y-89650000D01*
X128070000Y-90402000D01*
X128070000Y-90402000D01*
G37*
G36*
X125884000Y-90402000D02*
G01*
X124332000Y-90402000D01*
X124332000Y-89650000D01*
X125884000Y-89650000D01*
X125884000Y-90402000D01*
X125884000Y-90402000D01*
G37*
G36*
X130850000Y-89944000D02*
G01*
X129298000Y-89944000D01*
X129298000Y-89192000D01*
X130850000Y-89192000D01*
X130850000Y-89944000D01*
X130850000Y-89944000D01*
G37*
G36*
X116635000Y-89054000D02*
G01*
X115553000Y-89054000D01*
X115553000Y-88022000D01*
X116635000Y-88022000D01*
X116635000Y-89054000D01*
X116635000Y-89054000D01*
G37*
G36*
X118435000Y-89044000D02*
G01*
X117353000Y-89044000D01*
X117353000Y-88012000D01*
X118435000Y-88012000D01*
X118435000Y-89044000D01*
X118435000Y-89044000D01*
G37*
G36*
X121274000Y-89040000D02*
G01*
X120522000Y-89040000D01*
X120522000Y-87488000D01*
X121274000Y-87488000D01*
X121274000Y-89040000D01*
X121274000Y-89040000D01*
G37*
G36*
X119874000Y-89040000D02*
G01*
X119122000Y-89040000D01*
X119122000Y-87488000D01*
X119874000Y-87488000D01*
X119874000Y-89040000D01*
X119874000Y-89040000D01*
G37*
G36*
X122674000Y-89040000D02*
G01*
X121922000Y-89040000D01*
X121922000Y-87488000D01*
X122674000Y-87488000D01*
X122674000Y-89040000D01*
X122674000Y-89040000D01*
G37*
G36*
X124050000Y-89040000D02*
G01*
X123298000Y-89040000D01*
X123298000Y-87488000D01*
X124050000Y-87488000D01*
X124050000Y-89040000D01*
X124050000Y-89040000D01*
G37*
G36*
X115015000Y-88684000D02*
G01*
X112913000Y-88684000D01*
X112913000Y-87232000D01*
X115015000Y-87232000D01*
X115015000Y-88684000D01*
X115015000Y-88684000D01*
G37*
G36*
X137015000Y-88594000D02*
G01*
X134913000Y-88594000D01*
X134913000Y-87142000D01*
X137015000Y-87142000D01*
X137015000Y-88594000D01*
X137015000Y-88594000D01*
G37*
G36*
X133240000Y-88544000D02*
G01*
X131688000Y-88544000D01*
X131688000Y-87792000D01*
X133240000Y-87792000D01*
X133240000Y-88544000D01*
X133240000Y-88544000D01*
G37*
G36*
X130070000Y-88544000D02*
G01*
X128518000Y-88544000D01*
X128518000Y-87792000D01*
X130070000Y-87792000D01*
X130070000Y-88544000D01*
X130070000Y-88544000D01*
G37*
G36*
X116635000Y-87514000D02*
G01*
X115553000Y-87514000D01*
X115553000Y-86482000D01*
X116635000Y-86482000D01*
X116635000Y-87514000D01*
X116635000Y-87514000D01*
G37*
G36*
X118435000Y-87504000D02*
G01*
X117353000Y-87504000D01*
X117353000Y-86472000D01*
X118435000Y-86472000D01*
X118435000Y-87504000D01*
X118435000Y-87504000D01*
G37*
G36*
X123049295Y-85311823D02*
G01*
X123056309Y-85313951D01*
X123070077Y-85321310D01*
X123092716Y-85330687D01*
X123116749Y-85335467D01*
X123141253Y-85335467D01*
X123165286Y-85330686D01*
X123187923Y-85321310D01*
X123201691Y-85313951D01*
X123208705Y-85311823D01*
X123222140Y-85310500D01*
X123535860Y-85310500D01*
X123549295Y-85311823D01*
X123556309Y-85313951D01*
X123570077Y-85321310D01*
X123592716Y-85330687D01*
X123616749Y-85335467D01*
X123641253Y-85335467D01*
X123665286Y-85330686D01*
X123687923Y-85321310D01*
X123701691Y-85313951D01*
X123708705Y-85311823D01*
X123722140Y-85310500D01*
X124035860Y-85310500D01*
X124049295Y-85311823D01*
X124056309Y-85313951D01*
X124070077Y-85321310D01*
X124092716Y-85330687D01*
X124116749Y-85335467D01*
X124141253Y-85335467D01*
X124165286Y-85330686D01*
X124187923Y-85321310D01*
X124201691Y-85313951D01*
X124208705Y-85311823D01*
X124222140Y-85310500D01*
X124535860Y-85310500D01*
X124549295Y-85311823D01*
X124556309Y-85313951D01*
X124570077Y-85321310D01*
X124592716Y-85330687D01*
X124616749Y-85335467D01*
X124641253Y-85335467D01*
X124665286Y-85330686D01*
X124687923Y-85321310D01*
X124701691Y-85313951D01*
X124708705Y-85311823D01*
X124722140Y-85310500D01*
X125035860Y-85310500D01*
X125049295Y-85311823D01*
X125056309Y-85313951D01*
X125070077Y-85321310D01*
X125092716Y-85330687D01*
X125116749Y-85335467D01*
X125141253Y-85335467D01*
X125165286Y-85330686D01*
X125187923Y-85321310D01*
X125201691Y-85313951D01*
X125208705Y-85311823D01*
X125222140Y-85310500D01*
X125535860Y-85310500D01*
X125549295Y-85311823D01*
X125556309Y-85313951D01*
X125570077Y-85321310D01*
X125592716Y-85330687D01*
X125616749Y-85335467D01*
X125641253Y-85335467D01*
X125665286Y-85330686D01*
X125687923Y-85321310D01*
X125701691Y-85313951D01*
X125708705Y-85311823D01*
X125722140Y-85310500D01*
X126035860Y-85310500D01*
X126049295Y-85311823D01*
X126056309Y-85313951D01*
X126070077Y-85321310D01*
X126092716Y-85330687D01*
X126116749Y-85335467D01*
X126141253Y-85335467D01*
X126165286Y-85330686D01*
X126187923Y-85321310D01*
X126201691Y-85313951D01*
X126208705Y-85311823D01*
X126222140Y-85310500D01*
X126535860Y-85310500D01*
X126549295Y-85311823D01*
X126556309Y-85313951D01*
X126570077Y-85321310D01*
X126592716Y-85330687D01*
X126616749Y-85335467D01*
X126641253Y-85335467D01*
X126665286Y-85330686D01*
X126687923Y-85321310D01*
X126701691Y-85313951D01*
X126708705Y-85311823D01*
X126722140Y-85310500D01*
X127035860Y-85310500D01*
X127049295Y-85311823D01*
X127056309Y-85313951D01*
X127070077Y-85321310D01*
X127092716Y-85330687D01*
X127116749Y-85335467D01*
X127141253Y-85335467D01*
X127165286Y-85330686D01*
X127187923Y-85321310D01*
X127201691Y-85313951D01*
X127208705Y-85311823D01*
X127222140Y-85310500D01*
X127535860Y-85310500D01*
X127549295Y-85311823D01*
X127556309Y-85313951D01*
X127570077Y-85321310D01*
X127592716Y-85330687D01*
X127616749Y-85335467D01*
X127641253Y-85335467D01*
X127665286Y-85330686D01*
X127687923Y-85321310D01*
X127701691Y-85313951D01*
X127708705Y-85311823D01*
X127722140Y-85310500D01*
X128035860Y-85310500D01*
X128049295Y-85311823D01*
X128056309Y-85313951D01*
X128070077Y-85321310D01*
X128092716Y-85330687D01*
X128116749Y-85335467D01*
X128141253Y-85335467D01*
X128165286Y-85330686D01*
X128187923Y-85321310D01*
X128201691Y-85313951D01*
X128208705Y-85311823D01*
X128222140Y-85310500D01*
X128535860Y-85310500D01*
X128549295Y-85311823D01*
X128556310Y-85313951D01*
X128562776Y-85317408D01*
X128568442Y-85322058D01*
X128573092Y-85327724D01*
X128576549Y-85334190D01*
X128578677Y-85341205D01*
X128580000Y-85354640D01*
X128580000Y-86843360D01*
X128578677Y-86856795D01*
X128576549Y-86863810D01*
X128573092Y-86870276D01*
X128568442Y-86875942D01*
X128562776Y-86880592D01*
X128556310Y-86884049D01*
X128549295Y-86886177D01*
X128535860Y-86887500D01*
X128222140Y-86887500D01*
X128208705Y-86886177D01*
X128201691Y-86884049D01*
X128187923Y-86876690D01*
X128165284Y-86867313D01*
X128141251Y-86862533D01*
X128116747Y-86862533D01*
X128092714Y-86867314D01*
X128070077Y-86876690D01*
X128056309Y-86884049D01*
X128049295Y-86886177D01*
X128035860Y-86887500D01*
X127722140Y-86887500D01*
X127708705Y-86886177D01*
X127701691Y-86884049D01*
X127687923Y-86876690D01*
X127665284Y-86867313D01*
X127641251Y-86862533D01*
X127616747Y-86862533D01*
X127592714Y-86867314D01*
X127570077Y-86876690D01*
X127556309Y-86884049D01*
X127549295Y-86886177D01*
X127535860Y-86887500D01*
X127222140Y-86887500D01*
X127208705Y-86886177D01*
X127201691Y-86884049D01*
X127187923Y-86876690D01*
X127165284Y-86867313D01*
X127141251Y-86862533D01*
X127116747Y-86862533D01*
X127092714Y-86867314D01*
X127070077Y-86876690D01*
X127056309Y-86884049D01*
X127049295Y-86886177D01*
X127035860Y-86887500D01*
X126722140Y-86887500D01*
X126708705Y-86886177D01*
X126701691Y-86884049D01*
X126687923Y-86876690D01*
X126665284Y-86867313D01*
X126641251Y-86862533D01*
X126616747Y-86862533D01*
X126592714Y-86867314D01*
X126570077Y-86876690D01*
X126556309Y-86884049D01*
X126549295Y-86886177D01*
X126535860Y-86887500D01*
X126222140Y-86887500D01*
X126208705Y-86886177D01*
X126201691Y-86884049D01*
X126187923Y-86876690D01*
X126165284Y-86867313D01*
X126141251Y-86862533D01*
X126116747Y-86862533D01*
X126092714Y-86867314D01*
X126070077Y-86876690D01*
X126056309Y-86884049D01*
X126049295Y-86886177D01*
X126035860Y-86887500D01*
X125722140Y-86887500D01*
X125708705Y-86886177D01*
X125701691Y-86884049D01*
X125687923Y-86876690D01*
X125665284Y-86867313D01*
X125641251Y-86862533D01*
X125616747Y-86862533D01*
X125592714Y-86867314D01*
X125570077Y-86876690D01*
X125556309Y-86884049D01*
X125549295Y-86886177D01*
X125535860Y-86887500D01*
X125222140Y-86887500D01*
X125208705Y-86886177D01*
X125201691Y-86884049D01*
X125187923Y-86876690D01*
X125165284Y-86867313D01*
X125141251Y-86862533D01*
X125116747Y-86862533D01*
X125092714Y-86867314D01*
X125070077Y-86876690D01*
X125056309Y-86884049D01*
X125049295Y-86886177D01*
X125035860Y-86887500D01*
X124722140Y-86887500D01*
X124708705Y-86886177D01*
X124701691Y-86884049D01*
X124687923Y-86876690D01*
X124665284Y-86867313D01*
X124641251Y-86862533D01*
X124616747Y-86862533D01*
X124592714Y-86867314D01*
X124570077Y-86876690D01*
X124556309Y-86884049D01*
X124549295Y-86886177D01*
X124535860Y-86887500D01*
X124222140Y-86887500D01*
X124208705Y-86886177D01*
X124201691Y-86884049D01*
X124187923Y-86876690D01*
X124165284Y-86867313D01*
X124141251Y-86862533D01*
X124116747Y-86862533D01*
X124092714Y-86867314D01*
X124070077Y-86876690D01*
X124056309Y-86884049D01*
X124049295Y-86886177D01*
X124035860Y-86887500D01*
X123722140Y-86887500D01*
X123708705Y-86886177D01*
X123701691Y-86884049D01*
X123687923Y-86876690D01*
X123665284Y-86867313D01*
X123641251Y-86862533D01*
X123616747Y-86862533D01*
X123592714Y-86867314D01*
X123570077Y-86876690D01*
X123556309Y-86884049D01*
X123549295Y-86886177D01*
X123535860Y-86887500D01*
X123222140Y-86887500D01*
X123208705Y-86886177D01*
X123201691Y-86884049D01*
X123187923Y-86876690D01*
X123165284Y-86867313D01*
X123141251Y-86862533D01*
X123116747Y-86862533D01*
X123092714Y-86867314D01*
X123070077Y-86876690D01*
X123056309Y-86884049D01*
X123049295Y-86886177D01*
X123035860Y-86887500D01*
X122722140Y-86887500D01*
X122708705Y-86886177D01*
X122701690Y-86884049D01*
X122695224Y-86880592D01*
X122689558Y-86875942D01*
X122684908Y-86870276D01*
X122681451Y-86863810D01*
X122679323Y-86856795D01*
X122678000Y-86843360D01*
X122678000Y-85354640D01*
X122679323Y-85341205D01*
X122681451Y-85334190D01*
X122684908Y-85327724D01*
X122689558Y-85322058D01*
X122695224Y-85317408D01*
X122701690Y-85313951D01*
X122708705Y-85311823D01*
X122722140Y-85310500D01*
X123035860Y-85310500D01*
X123049295Y-85311823D01*
X123049295Y-85311823D01*
G37*
G36*
X115015000Y-86684000D02*
G01*
X112913000Y-86684000D01*
X112913000Y-85232000D01*
X115015000Y-85232000D01*
X115015000Y-86684000D01*
X115015000Y-86684000D01*
G37*
G36*
X137015000Y-86594000D02*
G01*
X134913000Y-86594000D01*
X134913000Y-85142000D01*
X137015000Y-85142000D01*
X137015000Y-86594000D01*
X137015000Y-86594000D01*
G37*
G36*
X120640000Y-86564000D02*
G01*
X119088000Y-86564000D01*
X119088000Y-85812000D01*
X120640000Y-85812000D01*
X120640000Y-86564000D01*
X120640000Y-86564000D01*
G37*
G36*
X132737547Y-85429802D02*
G01*
X132737547Y-85429803D01*
X132842198Y-85534454D01*
X132842198Y-85534453D01*
X133338587Y-86030842D01*
X132806842Y-86562587D01*
X132310453Y-86066198D01*
X132310454Y-86066198D01*
X132205803Y-85961547D01*
X132205802Y-85961547D01*
X131709413Y-85465158D01*
X132241158Y-84933413D01*
X132737547Y-85429802D01*
X132737547Y-85429802D01*
G37*
G36*
X122224295Y-78986823D02*
G01*
X122231310Y-78988951D01*
X122237776Y-78992408D01*
X122243442Y-78997058D01*
X122248092Y-79002724D01*
X122251549Y-79009190D01*
X122253677Y-79016205D01*
X122255000Y-79029640D01*
X122255000Y-79343360D01*
X122253677Y-79356795D01*
X122251549Y-79363809D01*
X122244190Y-79377577D01*
X122234813Y-79400216D01*
X122230033Y-79424249D01*
X122230033Y-79448753D01*
X122234814Y-79472786D01*
X122244190Y-79495423D01*
X122251549Y-79509191D01*
X122253677Y-79516205D01*
X122255000Y-79529640D01*
X122255000Y-79843360D01*
X122253677Y-79856795D01*
X122251549Y-79863809D01*
X122244190Y-79877577D01*
X122234813Y-79900216D01*
X122230033Y-79924249D01*
X122230033Y-79948753D01*
X122234814Y-79972786D01*
X122244190Y-79995423D01*
X122251549Y-80009191D01*
X122253677Y-80016205D01*
X122255000Y-80029640D01*
X122255000Y-80343360D01*
X122253677Y-80356795D01*
X122251549Y-80363809D01*
X122244190Y-80377577D01*
X122234813Y-80400216D01*
X122230033Y-80424249D01*
X122230033Y-80448753D01*
X122234814Y-80472786D01*
X122244190Y-80495423D01*
X122251549Y-80509191D01*
X122253677Y-80516205D01*
X122255000Y-80529640D01*
X122255000Y-80843360D01*
X122253677Y-80856795D01*
X122251549Y-80863809D01*
X122244190Y-80877577D01*
X122234813Y-80900216D01*
X122230033Y-80924249D01*
X122230033Y-80948753D01*
X122234814Y-80972786D01*
X122244190Y-80995423D01*
X122251549Y-81009191D01*
X122253677Y-81016205D01*
X122255000Y-81029640D01*
X122255000Y-81343360D01*
X122253677Y-81356795D01*
X122251549Y-81363809D01*
X122244190Y-81377577D01*
X122234813Y-81400216D01*
X122230033Y-81424249D01*
X122230033Y-81448753D01*
X122234814Y-81472786D01*
X122244190Y-81495423D01*
X122251549Y-81509191D01*
X122253677Y-81516205D01*
X122255000Y-81529640D01*
X122255000Y-81843360D01*
X122253677Y-81856795D01*
X122251549Y-81863809D01*
X122244190Y-81877577D01*
X122234813Y-81900216D01*
X122230033Y-81924249D01*
X122230033Y-81948753D01*
X122234814Y-81972786D01*
X122244190Y-81995423D01*
X122251549Y-82009191D01*
X122253677Y-82016205D01*
X122255000Y-82029640D01*
X122255000Y-82343360D01*
X122253677Y-82356795D01*
X122251549Y-82363809D01*
X122244190Y-82377577D01*
X122234813Y-82400216D01*
X122230033Y-82424249D01*
X122230033Y-82448753D01*
X122234814Y-82472786D01*
X122244190Y-82495423D01*
X122251549Y-82509191D01*
X122253677Y-82516205D01*
X122255000Y-82529640D01*
X122255000Y-82843360D01*
X122253677Y-82856795D01*
X122251549Y-82863809D01*
X122244190Y-82877577D01*
X122234813Y-82900216D01*
X122230033Y-82924249D01*
X122230033Y-82948753D01*
X122234814Y-82972786D01*
X122244190Y-82995423D01*
X122251549Y-83009191D01*
X122253677Y-83016205D01*
X122255000Y-83029640D01*
X122255000Y-83343360D01*
X122253677Y-83356795D01*
X122251549Y-83363809D01*
X122244190Y-83377577D01*
X122234813Y-83400216D01*
X122230033Y-83424249D01*
X122230033Y-83448753D01*
X122234814Y-83472786D01*
X122244190Y-83495423D01*
X122251549Y-83509191D01*
X122253677Y-83516205D01*
X122255000Y-83529640D01*
X122255000Y-83843360D01*
X122253677Y-83856795D01*
X122251549Y-83863809D01*
X122244190Y-83877577D01*
X122234813Y-83900216D01*
X122230033Y-83924249D01*
X122230033Y-83948753D01*
X122234814Y-83972786D01*
X122244190Y-83995423D01*
X122251549Y-84009191D01*
X122253677Y-84016205D01*
X122255000Y-84029640D01*
X122255000Y-84343360D01*
X122253677Y-84356795D01*
X122251549Y-84363809D01*
X122244190Y-84377577D01*
X122234813Y-84400216D01*
X122230033Y-84424249D01*
X122230033Y-84448753D01*
X122234814Y-84472786D01*
X122244190Y-84495423D01*
X122251549Y-84509191D01*
X122253677Y-84516205D01*
X122255000Y-84529640D01*
X122255000Y-84843360D01*
X122253677Y-84856795D01*
X122251549Y-84863810D01*
X122248092Y-84870276D01*
X122243442Y-84875942D01*
X122237776Y-84880592D01*
X122231310Y-84884049D01*
X122224295Y-84886177D01*
X122210860Y-84887500D01*
X120722140Y-84887500D01*
X120708705Y-84886177D01*
X120701690Y-84884049D01*
X120695224Y-84880592D01*
X120689558Y-84875942D01*
X120684908Y-84870276D01*
X120681451Y-84863810D01*
X120679323Y-84856795D01*
X120678000Y-84843360D01*
X120678000Y-84529640D01*
X120679323Y-84516205D01*
X120681451Y-84509191D01*
X120688810Y-84495423D01*
X120698187Y-84472784D01*
X120702967Y-84448751D01*
X120702967Y-84424247D01*
X120698186Y-84400214D01*
X120688810Y-84377577D01*
X120681451Y-84363809D01*
X120679323Y-84356795D01*
X120678000Y-84343360D01*
X120678000Y-84029640D01*
X120679323Y-84016205D01*
X120681451Y-84009191D01*
X120688810Y-83995423D01*
X120698187Y-83972784D01*
X120702967Y-83948751D01*
X120702967Y-83924247D01*
X120698186Y-83900214D01*
X120688810Y-83877577D01*
X120681451Y-83863809D01*
X120679323Y-83856795D01*
X120678000Y-83843360D01*
X120678000Y-83529640D01*
X120679323Y-83516205D01*
X120681451Y-83509191D01*
X120688810Y-83495423D01*
X120698187Y-83472784D01*
X120702967Y-83448751D01*
X120702967Y-83424247D01*
X120698186Y-83400214D01*
X120688810Y-83377577D01*
X120681451Y-83363809D01*
X120679323Y-83356795D01*
X120678000Y-83343360D01*
X120678000Y-83029640D01*
X120679323Y-83016205D01*
X120681451Y-83009191D01*
X120688810Y-82995423D01*
X120698187Y-82972784D01*
X120702967Y-82948751D01*
X120702967Y-82924247D01*
X120698186Y-82900214D01*
X120688810Y-82877577D01*
X120681451Y-82863809D01*
X120679323Y-82856795D01*
X120678000Y-82843360D01*
X120678000Y-82529640D01*
X120679323Y-82516205D01*
X120681451Y-82509191D01*
X120688810Y-82495423D01*
X120698187Y-82472784D01*
X120702967Y-82448751D01*
X120702967Y-82424247D01*
X120698186Y-82400214D01*
X120688810Y-82377577D01*
X120681451Y-82363809D01*
X120679323Y-82356795D01*
X120678000Y-82343360D01*
X120678000Y-82029640D01*
X120679323Y-82016205D01*
X120681451Y-82009191D01*
X120688810Y-81995423D01*
X120698187Y-81972784D01*
X120702967Y-81948751D01*
X120702967Y-81924247D01*
X120698186Y-81900214D01*
X120688810Y-81877577D01*
X120681451Y-81863809D01*
X120679323Y-81856795D01*
X120678000Y-81843360D01*
X120678000Y-81529640D01*
X120679323Y-81516205D01*
X120681451Y-81509191D01*
X120688810Y-81495423D01*
X120698187Y-81472784D01*
X120702967Y-81448751D01*
X120702967Y-81424247D01*
X120698186Y-81400214D01*
X120688810Y-81377577D01*
X120681451Y-81363809D01*
X120679323Y-81356795D01*
X120678000Y-81343360D01*
X120678000Y-81029640D01*
X120679323Y-81016205D01*
X120681451Y-81009191D01*
X120688810Y-80995423D01*
X120698187Y-80972784D01*
X120702967Y-80948751D01*
X120702967Y-80924247D01*
X120698186Y-80900214D01*
X120688810Y-80877577D01*
X120681451Y-80863809D01*
X120679323Y-80856795D01*
X120678000Y-80843360D01*
X120678000Y-80529640D01*
X120679323Y-80516205D01*
X120681451Y-80509191D01*
X120688810Y-80495423D01*
X120698187Y-80472784D01*
X120702967Y-80448751D01*
X120702967Y-80424247D01*
X120698186Y-80400214D01*
X120688810Y-80377577D01*
X120681451Y-80363809D01*
X120679323Y-80356795D01*
X120678000Y-80343360D01*
X120678000Y-80029640D01*
X120679323Y-80016205D01*
X120681451Y-80009191D01*
X120688810Y-79995423D01*
X120698187Y-79972784D01*
X120702967Y-79948751D01*
X120702967Y-79924247D01*
X120698186Y-79900214D01*
X120688810Y-79877577D01*
X120681451Y-79863809D01*
X120679323Y-79856795D01*
X120678000Y-79843360D01*
X120678000Y-79529640D01*
X120679323Y-79516205D01*
X120681451Y-79509191D01*
X120688810Y-79495423D01*
X120698187Y-79472784D01*
X120702967Y-79448751D01*
X120702967Y-79424247D01*
X120698186Y-79400214D01*
X120688810Y-79377577D01*
X120681451Y-79363809D01*
X120679323Y-79356795D01*
X120678000Y-79343360D01*
X120678000Y-79029640D01*
X120679323Y-79016205D01*
X120681451Y-79009190D01*
X120684908Y-79002724D01*
X120689558Y-78997058D01*
X120695224Y-78992408D01*
X120701690Y-78988951D01*
X120708705Y-78986823D01*
X120722140Y-78985500D01*
X122210860Y-78985500D01*
X122224295Y-78986823D01*
X122224295Y-78986823D01*
G37*
G36*
X130549295Y-78986823D02*
G01*
X130556310Y-78988951D01*
X130562776Y-78992408D01*
X130568442Y-78997058D01*
X130573092Y-79002724D01*
X130576549Y-79009190D01*
X130578677Y-79016205D01*
X130580000Y-79029640D01*
X130580000Y-79343360D01*
X130578677Y-79356795D01*
X130576549Y-79363809D01*
X130569190Y-79377577D01*
X130559813Y-79400216D01*
X130555033Y-79424249D01*
X130555033Y-79448753D01*
X130559814Y-79472786D01*
X130569190Y-79495423D01*
X130576549Y-79509191D01*
X130578677Y-79516205D01*
X130580000Y-79529640D01*
X130580000Y-79843360D01*
X130578677Y-79856795D01*
X130576549Y-79863809D01*
X130569190Y-79877577D01*
X130559813Y-79900216D01*
X130555033Y-79924249D01*
X130555033Y-79948753D01*
X130559814Y-79972786D01*
X130569190Y-79995423D01*
X130576549Y-80009191D01*
X130578677Y-80016205D01*
X130580000Y-80029640D01*
X130580000Y-80343360D01*
X130578677Y-80356795D01*
X130576549Y-80363809D01*
X130569190Y-80377577D01*
X130559813Y-80400216D01*
X130555033Y-80424249D01*
X130555033Y-80448753D01*
X130559814Y-80472786D01*
X130569190Y-80495423D01*
X130576549Y-80509191D01*
X130578677Y-80516205D01*
X130580000Y-80529640D01*
X130580000Y-80843360D01*
X130578677Y-80856795D01*
X130576549Y-80863809D01*
X130569190Y-80877577D01*
X130559813Y-80900216D01*
X130555033Y-80924249D01*
X130555033Y-80948753D01*
X130559814Y-80972786D01*
X130569190Y-80995423D01*
X130576549Y-81009191D01*
X130578677Y-81016205D01*
X130580000Y-81029640D01*
X130580000Y-81343360D01*
X130578677Y-81356795D01*
X130576549Y-81363809D01*
X130569190Y-81377577D01*
X130559813Y-81400216D01*
X130555033Y-81424249D01*
X130555033Y-81448753D01*
X130559814Y-81472786D01*
X130569190Y-81495423D01*
X130576549Y-81509191D01*
X130578677Y-81516205D01*
X130580000Y-81529640D01*
X130580000Y-81843360D01*
X130578677Y-81856795D01*
X130576549Y-81863809D01*
X130569190Y-81877577D01*
X130559813Y-81900216D01*
X130555033Y-81924249D01*
X130555033Y-81948753D01*
X130559814Y-81972786D01*
X130569190Y-81995423D01*
X130576549Y-82009191D01*
X130578677Y-82016205D01*
X130580000Y-82029640D01*
X130580000Y-82343360D01*
X130578677Y-82356795D01*
X130576549Y-82363809D01*
X130569190Y-82377577D01*
X130559813Y-82400216D01*
X130555033Y-82424249D01*
X130555033Y-82448753D01*
X130559814Y-82472786D01*
X130569190Y-82495423D01*
X130576549Y-82509191D01*
X130578677Y-82516205D01*
X130580000Y-82529640D01*
X130580000Y-82843360D01*
X130578677Y-82856795D01*
X130576549Y-82863809D01*
X130569190Y-82877577D01*
X130559813Y-82900216D01*
X130555033Y-82924249D01*
X130555033Y-82948753D01*
X130559814Y-82972786D01*
X130569190Y-82995423D01*
X130576549Y-83009191D01*
X130578677Y-83016205D01*
X130580000Y-83029640D01*
X130580000Y-83343360D01*
X130578677Y-83356795D01*
X130576549Y-83363809D01*
X130569190Y-83377577D01*
X130559813Y-83400216D01*
X130555033Y-83424249D01*
X130555033Y-83448753D01*
X130559814Y-83472786D01*
X130569190Y-83495423D01*
X130576549Y-83509191D01*
X130578677Y-83516205D01*
X130580000Y-83529640D01*
X130580000Y-83843360D01*
X130578677Y-83856795D01*
X130576549Y-83863809D01*
X130569190Y-83877577D01*
X130559813Y-83900216D01*
X130555033Y-83924249D01*
X130555033Y-83948753D01*
X130559814Y-83972786D01*
X130569190Y-83995423D01*
X130576549Y-84009191D01*
X130578677Y-84016205D01*
X130580000Y-84029640D01*
X130580000Y-84343360D01*
X130578677Y-84356795D01*
X130576549Y-84363809D01*
X130569190Y-84377577D01*
X130559813Y-84400216D01*
X130555033Y-84424249D01*
X130555033Y-84448753D01*
X130559814Y-84472786D01*
X130569190Y-84495423D01*
X130576549Y-84509191D01*
X130578677Y-84516205D01*
X130580000Y-84529640D01*
X130580000Y-84843360D01*
X130578677Y-84856795D01*
X130576549Y-84863810D01*
X130573092Y-84870276D01*
X130568442Y-84875942D01*
X130562776Y-84880592D01*
X130556310Y-84884049D01*
X130549295Y-84886177D01*
X130535860Y-84887500D01*
X129047140Y-84887500D01*
X129033705Y-84886177D01*
X129026690Y-84884049D01*
X129020224Y-84880592D01*
X129014558Y-84875942D01*
X129009908Y-84870276D01*
X129006451Y-84863810D01*
X129004323Y-84856795D01*
X129003000Y-84843360D01*
X129003000Y-84529640D01*
X129004323Y-84516205D01*
X129006451Y-84509191D01*
X129013810Y-84495423D01*
X129023187Y-84472784D01*
X129027967Y-84448751D01*
X129027967Y-84424247D01*
X129023186Y-84400214D01*
X129013810Y-84377577D01*
X129006451Y-84363809D01*
X129004323Y-84356795D01*
X129003000Y-84343360D01*
X129003000Y-84029640D01*
X129004323Y-84016205D01*
X129006451Y-84009191D01*
X129013810Y-83995423D01*
X129023187Y-83972784D01*
X129027967Y-83948751D01*
X129027967Y-83924247D01*
X129023186Y-83900214D01*
X129013810Y-83877577D01*
X129006451Y-83863809D01*
X129004323Y-83856795D01*
X129003000Y-83843360D01*
X129003000Y-83529640D01*
X129004323Y-83516205D01*
X129006451Y-83509191D01*
X129013810Y-83495423D01*
X129023187Y-83472784D01*
X129027967Y-83448751D01*
X129027967Y-83424247D01*
X129023186Y-83400214D01*
X129013810Y-83377577D01*
X129006451Y-83363809D01*
X129004323Y-83356795D01*
X129003000Y-83343360D01*
X129003000Y-83029640D01*
X129004323Y-83016205D01*
X129006451Y-83009191D01*
X129013810Y-82995423D01*
X129023187Y-82972784D01*
X129027967Y-82948751D01*
X129027967Y-82924247D01*
X129023186Y-82900214D01*
X129013810Y-82877577D01*
X129006451Y-82863809D01*
X129004323Y-82856795D01*
X129003000Y-82843360D01*
X129003000Y-82529640D01*
X129004323Y-82516205D01*
X129006451Y-82509191D01*
X129013810Y-82495423D01*
X129023187Y-82472784D01*
X129027967Y-82448751D01*
X129027967Y-82424247D01*
X129023186Y-82400214D01*
X129013810Y-82377577D01*
X129006451Y-82363809D01*
X129004323Y-82356795D01*
X129003000Y-82343360D01*
X129003000Y-82029640D01*
X129004323Y-82016205D01*
X129006451Y-82009191D01*
X129013810Y-81995423D01*
X129023187Y-81972784D01*
X129027967Y-81948751D01*
X129027967Y-81924247D01*
X129023186Y-81900214D01*
X129013810Y-81877577D01*
X129006451Y-81863809D01*
X129004323Y-81856795D01*
X129003000Y-81843360D01*
X129003000Y-81529640D01*
X129004323Y-81516205D01*
X129006451Y-81509191D01*
X129013810Y-81495423D01*
X129023187Y-81472784D01*
X129027967Y-81448751D01*
X129027967Y-81424247D01*
X129023186Y-81400214D01*
X129013810Y-81377577D01*
X129006451Y-81363809D01*
X129004323Y-81356795D01*
X129003000Y-81343360D01*
X129003000Y-81029640D01*
X129004323Y-81016205D01*
X129006451Y-81009191D01*
X129013810Y-80995423D01*
X129023187Y-80972784D01*
X129027967Y-80948751D01*
X129027967Y-80924247D01*
X129023186Y-80900214D01*
X129013810Y-80877577D01*
X129006451Y-80863809D01*
X129004323Y-80856795D01*
X129003000Y-80843360D01*
X129003000Y-80529640D01*
X129004323Y-80516205D01*
X129006451Y-80509191D01*
X129013810Y-80495423D01*
X129023187Y-80472784D01*
X129027967Y-80448751D01*
X129027967Y-80424247D01*
X129023186Y-80400214D01*
X129013810Y-80377577D01*
X129006451Y-80363809D01*
X129004323Y-80356795D01*
X129003000Y-80343360D01*
X129003000Y-80029640D01*
X129004323Y-80016205D01*
X129006451Y-80009191D01*
X129013810Y-79995423D01*
X129023187Y-79972784D01*
X129027967Y-79948751D01*
X129027967Y-79924247D01*
X129023186Y-79900214D01*
X129013810Y-79877577D01*
X129006451Y-79863809D01*
X129004323Y-79856795D01*
X129003000Y-79843360D01*
X129003000Y-79529640D01*
X129004323Y-79516205D01*
X129006451Y-79509191D01*
X129013810Y-79495423D01*
X129023187Y-79472784D01*
X129027967Y-79448751D01*
X129027967Y-79424247D01*
X129023186Y-79400214D01*
X129013810Y-79377577D01*
X129006451Y-79363809D01*
X129004323Y-79356795D01*
X129003000Y-79343360D01*
X129003000Y-79029640D01*
X129004323Y-79016205D01*
X129006451Y-79009190D01*
X129009908Y-79002724D01*
X129014558Y-78997058D01*
X129020224Y-78992408D01*
X129026690Y-78988951D01*
X129033705Y-78986823D01*
X129047140Y-78985500D01*
X130535860Y-78985500D01*
X130549295Y-78986823D01*
X130549295Y-78986823D01*
G37*
G36*
X115015000Y-84684000D02*
G01*
X112913000Y-84684000D01*
X112913000Y-83232000D01*
X115015000Y-83232000D01*
X115015000Y-84684000D01*
X115015000Y-84684000D01*
G37*
G36*
X137015000Y-84594000D02*
G01*
X134913000Y-84594000D01*
X134913000Y-83142000D01*
X137015000Y-83142000D01*
X137015000Y-84594000D01*
X137015000Y-84594000D01*
G37*
G36*
X133340000Y-82844000D02*
G01*
X131788000Y-82844000D01*
X131788000Y-82092000D01*
X133340000Y-82092000D01*
X133340000Y-82844000D01*
X133340000Y-82844000D01*
G37*
G36*
X115015000Y-82684000D02*
G01*
X112913000Y-82684000D01*
X112913000Y-81232000D01*
X115015000Y-81232000D01*
X115015000Y-82684000D01*
X115015000Y-82684000D01*
G37*
G36*
X137015000Y-82594000D02*
G01*
X134913000Y-82594000D01*
X134913000Y-81142000D01*
X137015000Y-81142000D01*
X137015000Y-82594000D01*
X137015000Y-82594000D01*
G37*
G36*
X116622015Y-75934973D02*
G01*
X116725879Y-75966479D01*
X116753055Y-75981005D01*
X116821600Y-76017643D01*
X116905501Y-76086499D01*
X116974357Y-76170400D01*
X117010995Y-76238945D01*
X117025521Y-76266121D01*
X117057027Y-76369985D01*
X117067666Y-76478000D01*
X117057027Y-76586015D01*
X117025521Y-76689879D01*
X117025519Y-76689882D01*
X116974357Y-76785600D01*
X116905501Y-76869501D01*
X116821600Y-76938357D01*
X116753055Y-76974995D01*
X116725879Y-76989521D01*
X116713131Y-76993388D01*
X116690504Y-77002760D01*
X116670130Y-77016374D01*
X116652803Y-77033701D01*
X116639189Y-77054075D01*
X116629812Y-77076714D01*
X116625031Y-77100747D01*
X116625031Y-77125251D01*
X116629811Y-77149285D01*
X116639188Y-77171924D01*
X116652802Y-77192298D01*
X116670129Y-77209625D01*
X116690503Y-77223239D01*
X116713131Y-77232612D01*
X116725879Y-77236479D01*
X116753055Y-77251005D01*
X116821600Y-77287643D01*
X116905501Y-77356499D01*
X116974357Y-77440400D01*
X117010995Y-77508945D01*
X117025521Y-77536121D01*
X117057027Y-77639985D01*
X117067666Y-77748000D01*
X117057027Y-77856015D01*
X117025521Y-77959879D01*
X117025519Y-77959882D01*
X116974357Y-78055600D01*
X116905501Y-78139501D01*
X116821600Y-78208357D01*
X116753055Y-78244995D01*
X116725879Y-78259521D01*
X116713131Y-78263388D01*
X116690504Y-78272760D01*
X116670130Y-78286374D01*
X116652803Y-78303701D01*
X116639189Y-78324075D01*
X116629812Y-78346714D01*
X116625031Y-78370747D01*
X116625031Y-78395251D01*
X116629811Y-78419285D01*
X116639188Y-78441924D01*
X116652802Y-78462298D01*
X116670129Y-78479625D01*
X116690503Y-78493239D01*
X116713131Y-78502612D01*
X116725879Y-78506479D01*
X116747124Y-78517835D01*
X116821600Y-78557643D01*
X116905501Y-78626499D01*
X116974357Y-78710400D01*
X117010995Y-78778945D01*
X117025521Y-78806121D01*
X117057027Y-78909985D01*
X117067666Y-79018000D01*
X117057027Y-79126015D01*
X117025521Y-79229879D01*
X117025519Y-79229882D01*
X116974357Y-79325600D01*
X116905501Y-79409501D01*
X116821600Y-79478357D01*
X116776549Y-79502437D01*
X116725879Y-79529521D01*
X116713131Y-79533388D01*
X116690504Y-79542760D01*
X116670130Y-79556374D01*
X116652803Y-79573701D01*
X116639189Y-79594075D01*
X116629812Y-79616714D01*
X116625031Y-79640747D01*
X116625031Y-79665251D01*
X116629811Y-79689285D01*
X116639188Y-79711924D01*
X116652802Y-79732298D01*
X116670129Y-79749625D01*
X116690503Y-79763239D01*
X116713131Y-79772612D01*
X116725879Y-79776479D01*
X116745562Y-79787000D01*
X116821600Y-79827643D01*
X116905501Y-79896499D01*
X116974357Y-79980400D01*
X117008352Y-80044000D01*
X117025521Y-80076121D01*
X117057027Y-80179985D01*
X117067666Y-80288000D01*
X117057027Y-80396015D01*
X117025521Y-80499879D01*
X117017473Y-80514936D01*
X116974357Y-80595600D01*
X116905501Y-80679501D01*
X116821600Y-80748356D01*
X116777807Y-80771764D01*
X116757437Y-80785375D01*
X116740110Y-80802702D01*
X116726496Y-80823076D01*
X116717119Y-80845715D01*
X116712338Y-80869748D01*
X116712338Y-80894252D01*
X116717118Y-80918286D01*
X116726495Y-80940924D01*
X116740109Y-80961299D01*
X116757436Y-80978626D01*
X116777810Y-80992240D01*
X116800449Y-81001617D01*
X116824482Y-81006398D01*
X116836735Y-81007000D01*
X117065000Y-81007000D01*
X117065000Y-82109000D01*
X115963000Y-82109000D01*
X115963000Y-81007000D01*
X116191265Y-81007000D01*
X116215651Y-81004598D01*
X116239100Y-80997485D01*
X116260711Y-80985934D01*
X116279653Y-80970389D01*
X116295198Y-80951447D01*
X116306749Y-80929836D01*
X116313862Y-80906387D01*
X116316264Y-80882001D01*
X116313862Y-80857615D01*
X116306749Y-80834166D01*
X116295198Y-80812555D01*
X116279653Y-80793613D01*
X116260711Y-80778068D01*
X116250198Y-80771767D01*
X116206400Y-80748356D01*
X116122499Y-80679501D01*
X116053643Y-80595600D01*
X116010527Y-80514936D01*
X116002479Y-80499879D01*
X115970973Y-80396015D01*
X115960334Y-80288000D01*
X115970973Y-80179985D01*
X116002479Y-80076121D01*
X116019648Y-80044000D01*
X116053643Y-79980400D01*
X116122499Y-79896499D01*
X116206400Y-79827643D01*
X116282438Y-79787000D01*
X116302121Y-79776479D01*
X116314869Y-79772612D01*
X116337496Y-79763240D01*
X116357870Y-79749626D01*
X116375197Y-79732299D01*
X116388811Y-79711925D01*
X116398188Y-79689286D01*
X116402969Y-79665253D01*
X116402969Y-79640749D01*
X116398189Y-79616715D01*
X116388812Y-79594076D01*
X116375198Y-79573702D01*
X116357871Y-79556375D01*
X116337497Y-79542761D01*
X116314869Y-79533388D01*
X116302121Y-79529521D01*
X116251451Y-79502437D01*
X116206400Y-79478357D01*
X116122499Y-79409501D01*
X116053643Y-79325600D01*
X116002481Y-79229882D01*
X116002479Y-79229879D01*
X115970973Y-79126015D01*
X115960334Y-79018000D01*
X115970973Y-78909985D01*
X116002479Y-78806121D01*
X116017005Y-78778945D01*
X116053643Y-78710400D01*
X116122499Y-78626499D01*
X116206400Y-78557643D01*
X116280876Y-78517835D01*
X116302121Y-78506479D01*
X116314869Y-78502612D01*
X116337496Y-78493240D01*
X116357870Y-78479626D01*
X116375197Y-78462299D01*
X116388811Y-78441925D01*
X116398188Y-78419286D01*
X116402969Y-78395253D01*
X116402969Y-78370749D01*
X116398189Y-78346715D01*
X116388812Y-78324076D01*
X116375198Y-78303702D01*
X116357871Y-78286375D01*
X116337497Y-78272761D01*
X116314869Y-78263388D01*
X116302121Y-78259521D01*
X116274945Y-78244995D01*
X116206400Y-78208357D01*
X116122499Y-78139501D01*
X116053643Y-78055600D01*
X116002481Y-77959882D01*
X116002479Y-77959879D01*
X115970973Y-77856015D01*
X115960334Y-77748000D01*
X115970973Y-77639985D01*
X116002479Y-77536121D01*
X116017005Y-77508945D01*
X116053643Y-77440400D01*
X116122499Y-77356499D01*
X116206400Y-77287643D01*
X116274945Y-77251005D01*
X116302121Y-77236479D01*
X116314869Y-77232612D01*
X116337496Y-77223240D01*
X116357870Y-77209626D01*
X116375197Y-77192299D01*
X116388811Y-77171925D01*
X116398188Y-77149286D01*
X116402969Y-77125253D01*
X116402969Y-77100749D01*
X116398189Y-77076715D01*
X116388812Y-77054076D01*
X116375198Y-77033702D01*
X116357871Y-77016375D01*
X116337497Y-77002761D01*
X116314869Y-76993388D01*
X116302121Y-76989521D01*
X116274945Y-76974995D01*
X116206400Y-76938357D01*
X116122499Y-76869501D01*
X116053643Y-76785600D01*
X116002481Y-76689882D01*
X116002479Y-76689879D01*
X115970973Y-76586015D01*
X115960334Y-76478000D01*
X115970973Y-76369985D01*
X116002479Y-76266121D01*
X116017005Y-76238945D01*
X116053643Y-76170400D01*
X116122499Y-76086499D01*
X116206400Y-76017643D01*
X116274945Y-75981005D01*
X116302121Y-75966479D01*
X116405985Y-75934973D01*
X116486933Y-75927000D01*
X116541067Y-75927000D01*
X116622015Y-75934973D01*
X116622015Y-75934973D01*
G37*
G36*
X134040000Y-80894000D02*
G01*
X133288000Y-80894000D01*
X133288000Y-79342000D01*
X134040000Y-79342000D01*
X134040000Y-80894000D01*
X134040000Y-80894000D01*
G37*
G36*
X132440000Y-80894000D02*
G01*
X131688000Y-80894000D01*
X131688000Y-79342000D01*
X132440000Y-79342000D01*
X132440000Y-80894000D01*
X132440000Y-80894000D01*
G37*
G36*
X115015000Y-80684000D02*
G01*
X112913000Y-80684000D01*
X112913000Y-79232000D01*
X115015000Y-79232000D01*
X115015000Y-80684000D01*
X115015000Y-80684000D01*
G37*
G36*
X137015000Y-80594000D02*
G01*
X134913000Y-80594000D01*
X134913000Y-79142000D01*
X137015000Y-79142000D01*
X137015000Y-80594000D01*
X137015000Y-80594000D01*
G37*
G36*
X115015000Y-78684000D02*
G01*
X112913000Y-78684000D01*
X112913000Y-77232000D01*
X115015000Y-77232000D01*
X115015000Y-78684000D01*
X115015000Y-78684000D01*
G37*
G36*
X137015000Y-78594000D02*
G01*
X134913000Y-78594000D01*
X134913000Y-77142000D01*
X137015000Y-77142000D01*
X137015000Y-78594000D01*
X137015000Y-78594000D01*
G37*
G36*
X123049295Y-76986823D02*
G01*
X123056309Y-76988951D01*
X123070077Y-76996310D01*
X123092716Y-77005687D01*
X123116749Y-77010467D01*
X123141253Y-77010467D01*
X123165286Y-77005686D01*
X123187923Y-76996310D01*
X123201691Y-76988951D01*
X123208705Y-76986823D01*
X123222140Y-76985500D01*
X123535860Y-76985500D01*
X123549295Y-76986823D01*
X123556309Y-76988951D01*
X123570077Y-76996310D01*
X123592716Y-77005687D01*
X123616749Y-77010467D01*
X123641253Y-77010467D01*
X123665286Y-77005686D01*
X123687923Y-76996310D01*
X123701691Y-76988951D01*
X123708705Y-76986823D01*
X123722140Y-76985500D01*
X124035860Y-76985500D01*
X124049295Y-76986823D01*
X124056309Y-76988951D01*
X124070077Y-76996310D01*
X124092716Y-77005687D01*
X124116749Y-77010467D01*
X124141253Y-77010467D01*
X124165286Y-77005686D01*
X124187923Y-76996310D01*
X124201691Y-76988951D01*
X124208705Y-76986823D01*
X124222140Y-76985500D01*
X124535860Y-76985500D01*
X124549295Y-76986823D01*
X124556309Y-76988951D01*
X124570077Y-76996310D01*
X124592716Y-77005687D01*
X124616749Y-77010467D01*
X124641253Y-77010467D01*
X124665286Y-77005686D01*
X124687923Y-76996310D01*
X124701691Y-76988951D01*
X124708705Y-76986823D01*
X124722140Y-76985500D01*
X125035860Y-76985500D01*
X125049295Y-76986823D01*
X125056309Y-76988951D01*
X125070077Y-76996310D01*
X125092716Y-77005687D01*
X125116749Y-77010467D01*
X125141253Y-77010467D01*
X125165286Y-77005686D01*
X125187923Y-76996310D01*
X125201691Y-76988951D01*
X125208705Y-76986823D01*
X125222140Y-76985500D01*
X125535860Y-76985500D01*
X125549295Y-76986823D01*
X125556309Y-76988951D01*
X125570077Y-76996310D01*
X125592716Y-77005687D01*
X125616749Y-77010467D01*
X125641253Y-77010467D01*
X125665286Y-77005686D01*
X125687923Y-76996310D01*
X125701691Y-76988951D01*
X125708705Y-76986823D01*
X125722140Y-76985500D01*
X126035860Y-76985500D01*
X126049295Y-76986823D01*
X126056309Y-76988951D01*
X126070077Y-76996310D01*
X126092716Y-77005687D01*
X126116749Y-77010467D01*
X126141253Y-77010467D01*
X126165286Y-77005686D01*
X126187923Y-76996310D01*
X126201691Y-76988951D01*
X126208705Y-76986823D01*
X126222140Y-76985500D01*
X126535860Y-76985500D01*
X126549295Y-76986823D01*
X126556309Y-76988951D01*
X126570077Y-76996310D01*
X126592716Y-77005687D01*
X126616749Y-77010467D01*
X126641253Y-77010467D01*
X126665286Y-77005686D01*
X126687923Y-76996310D01*
X126701691Y-76988951D01*
X126708705Y-76986823D01*
X126722140Y-76985500D01*
X127035860Y-76985500D01*
X127049295Y-76986823D01*
X127056309Y-76988951D01*
X127070077Y-76996310D01*
X127092716Y-77005687D01*
X127116749Y-77010467D01*
X127141253Y-77010467D01*
X127165286Y-77005686D01*
X127187923Y-76996310D01*
X127201691Y-76988951D01*
X127208705Y-76986823D01*
X127222140Y-76985500D01*
X127535860Y-76985500D01*
X127549295Y-76986823D01*
X127556309Y-76988951D01*
X127570077Y-76996310D01*
X127592716Y-77005687D01*
X127616749Y-77010467D01*
X127641253Y-77010467D01*
X127665286Y-77005686D01*
X127687923Y-76996310D01*
X127701691Y-76988951D01*
X127708705Y-76986823D01*
X127722140Y-76985500D01*
X128035860Y-76985500D01*
X128049295Y-76986823D01*
X128056309Y-76988951D01*
X128070077Y-76996310D01*
X128092716Y-77005687D01*
X128116749Y-77010467D01*
X128141253Y-77010467D01*
X128165286Y-77005686D01*
X128187923Y-76996310D01*
X128201691Y-76988951D01*
X128208705Y-76986823D01*
X128222140Y-76985500D01*
X128535860Y-76985500D01*
X128549295Y-76986823D01*
X128556310Y-76988951D01*
X128562776Y-76992408D01*
X128568442Y-76997058D01*
X128573092Y-77002724D01*
X128576549Y-77009190D01*
X128578677Y-77016205D01*
X128580000Y-77029640D01*
X128580000Y-78518360D01*
X128578677Y-78531795D01*
X128576549Y-78538810D01*
X128573092Y-78545276D01*
X128568442Y-78550942D01*
X128562776Y-78555592D01*
X128556310Y-78559049D01*
X128549295Y-78561177D01*
X128535860Y-78562500D01*
X128222140Y-78562500D01*
X128208705Y-78561177D01*
X128201691Y-78559049D01*
X128187923Y-78551690D01*
X128165284Y-78542313D01*
X128141251Y-78537533D01*
X128116747Y-78537533D01*
X128092714Y-78542314D01*
X128070077Y-78551690D01*
X128056309Y-78559049D01*
X128049295Y-78561177D01*
X128035860Y-78562500D01*
X127722140Y-78562500D01*
X127708705Y-78561177D01*
X127701691Y-78559049D01*
X127687923Y-78551690D01*
X127665284Y-78542313D01*
X127641251Y-78537533D01*
X127616747Y-78537533D01*
X127592714Y-78542314D01*
X127570077Y-78551690D01*
X127556309Y-78559049D01*
X127549295Y-78561177D01*
X127535860Y-78562500D01*
X127222140Y-78562500D01*
X127208705Y-78561177D01*
X127201691Y-78559049D01*
X127187923Y-78551690D01*
X127165284Y-78542313D01*
X127141251Y-78537533D01*
X127116747Y-78537533D01*
X127092714Y-78542314D01*
X127070077Y-78551690D01*
X127056309Y-78559049D01*
X127049295Y-78561177D01*
X127035860Y-78562500D01*
X126722140Y-78562500D01*
X126708705Y-78561177D01*
X126701691Y-78559049D01*
X126687923Y-78551690D01*
X126665284Y-78542313D01*
X126641251Y-78537533D01*
X126616747Y-78537533D01*
X126592714Y-78542314D01*
X126570077Y-78551690D01*
X126556309Y-78559049D01*
X126549295Y-78561177D01*
X126535860Y-78562500D01*
X126222140Y-78562500D01*
X126208705Y-78561177D01*
X126201691Y-78559049D01*
X126187923Y-78551690D01*
X126165284Y-78542313D01*
X126141251Y-78537533D01*
X126116747Y-78537533D01*
X126092714Y-78542314D01*
X126070077Y-78551690D01*
X126056309Y-78559049D01*
X126049295Y-78561177D01*
X126035860Y-78562500D01*
X125722140Y-78562500D01*
X125708705Y-78561177D01*
X125701691Y-78559049D01*
X125687923Y-78551690D01*
X125665284Y-78542313D01*
X125641251Y-78537533D01*
X125616747Y-78537533D01*
X125592714Y-78542314D01*
X125570077Y-78551690D01*
X125556309Y-78559049D01*
X125549295Y-78561177D01*
X125535860Y-78562500D01*
X125222140Y-78562500D01*
X125208705Y-78561177D01*
X125201691Y-78559049D01*
X125187923Y-78551690D01*
X125165284Y-78542313D01*
X125141251Y-78537533D01*
X125116747Y-78537533D01*
X125092714Y-78542314D01*
X125070077Y-78551690D01*
X125056309Y-78559049D01*
X125049295Y-78561177D01*
X125035860Y-78562500D01*
X124722140Y-78562500D01*
X124708705Y-78561177D01*
X124701691Y-78559049D01*
X124687923Y-78551690D01*
X124665284Y-78542313D01*
X124641251Y-78537533D01*
X124616747Y-78537533D01*
X124592714Y-78542314D01*
X124570077Y-78551690D01*
X124556309Y-78559049D01*
X124549295Y-78561177D01*
X124535860Y-78562500D01*
X124222140Y-78562500D01*
X124208705Y-78561177D01*
X124201691Y-78559049D01*
X124187923Y-78551690D01*
X124165284Y-78542313D01*
X124141251Y-78537533D01*
X124116747Y-78537533D01*
X124092714Y-78542314D01*
X124070077Y-78551690D01*
X124056309Y-78559049D01*
X124049295Y-78561177D01*
X124035860Y-78562500D01*
X123722140Y-78562500D01*
X123708705Y-78561177D01*
X123701691Y-78559049D01*
X123687923Y-78551690D01*
X123665284Y-78542313D01*
X123641251Y-78537533D01*
X123616747Y-78537533D01*
X123592714Y-78542314D01*
X123570077Y-78551690D01*
X123556309Y-78559049D01*
X123549295Y-78561177D01*
X123535860Y-78562500D01*
X123222140Y-78562500D01*
X123208705Y-78561177D01*
X123201691Y-78559049D01*
X123187923Y-78551690D01*
X123165284Y-78542313D01*
X123141251Y-78537533D01*
X123116747Y-78537533D01*
X123092714Y-78542314D01*
X123070077Y-78551690D01*
X123056309Y-78559049D01*
X123049295Y-78561177D01*
X123035860Y-78562500D01*
X122722140Y-78562500D01*
X122708705Y-78561177D01*
X122701690Y-78559049D01*
X122695224Y-78555592D01*
X122689558Y-78550942D01*
X122684908Y-78545276D01*
X122681451Y-78538810D01*
X122679323Y-78531795D01*
X122678000Y-78518360D01*
X122678000Y-77029640D01*
X122679323Y-77016205D01*
X122681451Y-77009190D01*
X122684908Y-77002724D01*
X122689558Y-76997058D01*
X122695224Y-76992408D01*
X122701690Y-76988951D01*
X122708705Y-76986823D01*
X122722140Y-76985500D01*
X123035860Y-76985500D01*
X123049295Y-76986823D01*
X123049295Y-76986823D01*
G37*
G36*
X130540000Y-78024000D02*
G01*
X129788000Y-78024000D01*
X129788000Y-76472000D01*
X130540000Y-76472000D01*
X130540000Y-78024000D01*
X130540000Y-78024000D01*
G37*
G36*
X119337547Y-76149802D02*
G01*
X119337547Y-76149803D01*
X119442198Y-76254454D01*
X119442198Y-76254453D01*
X119938587Y-76750842D01*
X119406842Y-77282587D01*
X118910453Y-76786198D01*
X118910454Y-76786198D01*
X118805803Y-76681547D01*
X118805802Y-76681547D01*
X118309413Y-76185158D01*
X118841158Y-75653413D01*
X119337547Y-76149802D01*
X119337547Y-76149802D01*
G37*
G36*
X115015000Y-76684000D02*
G01*
X112913000Y-76684000D01*
X112913000Y-75232000D01*
X115015000Y-75232000D01*
X115015000Y-76684000D01*
X115015000Y-76684000D01*
G37*
G36*
X137015000Y-76594000D02*
G01*
X134913000Y-76594000D01*
X134913000Y-75142000D01*
X137015000Y-75142000D01*
X137015000Y-76594000D01*
X137015000Y-76594000D01*
G37*
G36*
X126690000Y-74919000D02*
G01*
X125238000Y-74919000D01*
X125238000Y-72817000D01*
X126690000Y-72817000D01*
X126690000Y-74919000D01*
X126690000Y-74919000D01*
G37*
G36*
X134690000Y-74919000D02*
G01*
X133238000Y-74919000D01*
X133238000Y-72817000D01*
X134690000Y-72817000D01*
X134690000Y-74919000D01*
X134690000Y-74919000D01*
G37*
G36*
X130690000Y-74919000D02*
G01*
X129238000Y-74919000D01*
X129238000Y-72817000D01*
X130690000Y-72817000D01*
X130690000Y-74919000D01*
X130690000Y-74919000D01*
G37*
G36*
X128690000Y-74919000D02*
G01*
X127238000Y-74919000D01*
X127238000Y-72817000D01*
X128690000Y-72817000D01*
X128690000Y-74919000D01*
X128690000Y-74919000D01*
G37*
G36*
X116690000Y-74919000D02*
G01*
X115238000Y-74919000D01*
X115238000Y-72817000D01*
X116690000Y-72817000D01*
X116690000Y-74919000D01*
X116690000Y-74919000D01*
G37*
G36*
X120690000Y-74919000D02*
G01*
X119238000Y-74919000D01*
X119238000Y-72817000D01*
X120690000Y-72817000D01*
X120690000Y-74919000D01*
X120690000Y-74919000D01*
G37*
G36*
X132690000Y-74919000D02*
G01*
X131238000Y-74919000D01*
X131238000Y-72817000D01*
X132690000Y-72817000D01*
X132690000Y-74919000D01*
X132690000Y-74919000D01*
G37*
G36*
X124690000Y-74919000D02*
G01*
X123238000Y-74919000D01*
X123238000Y-72817000D01*
X124690000Y-72817000D01*
X124690000Y-74919000D01*
X124690000Y-74919000D01*
G37*
G36*
X122690000Y-74919000D02*
G01*
X121238000Y-74919000D01*
X121238000Y-72817000D01*
X122690000Y-72817000D01*
X122690000Y-74919000D01*
X122690000Y-74919000D01*
G37*
G36*
X118690000Y-74919000D02*
G01*
X117238000Y-74919000D01*
X117238000Y-72817000D01*
X118690000Y-72817000D01*
X118690000Y-74919000D01*
X118690000Y-74919000D01*
G37*
M02*
