M48
; DRILL file {KiCad 5.1.4-e60b266~84~ubuntu18.04.1} date 2019年10月31日 星期四 20时10分05秒
; FORMAT={-:-/ absolute / inch / decimal}
; #@! TF.CreationDate,2019-10-31T20:10:05+08:00
; #@! TF.GenerationSoftware,Kicad,Pcbnew,5.1.4-e60b266~84~ubuntu18.04.1
; #@! TF.FileFunction,Plated,1,2,PTH
FMAT,2
INCH
T1C0.0118
T2C0.0276
T3C0.0315
%
G90
G05
T1
X4.5508Y-3.3663
X4.5509Y-3.3893
X4.5592Y-3.259
X4.5616Y-3.6905
X4.5769Y-3.3401
X4.6015Y-3.3613
X4.6272Y-3.3421
X4.6332Y-3.0917
X4.6408Y-3.702
X4.649Y-2.9787
X4.6518Y-3.3621
X4.6793Y-3.0609
X4.6815Y-3.3428
X4.7061Y-3.3135
X4.7344Y-3.3483
X4.759Y-3.5346
X4.771Y-3.6117
X4.771Y-3.6554
X4.771Y-3.6846
X4.7722Y-3.5688
X4.7808Y-3.3899
X4.8092Y-3.4035
X4.8315Y-3.2874
X4.8337Y-3.1431
X4.8355Y-3.4284
X4.836Y-3.2562
X4.8446Y-3.1751
X4.8572Y-3.5483
X4.8687Y-3.1424
X4.8876Y-3.281
X4.9165Y-3.2941
X4.9411Y-3.1167
X4.9432Y-3.5118
X4.9565Y-3.3253
X4.9608Y-3.1413
X4.9608Y-3.1755
X4.9781Y-3.2369
X4.9903Y-3.4417
X4.9923Y-3.1405
X4.9923Y-3.1755
X4.9962Y-3.3417
X5.0112Y-3.276
X5.0395Y-3.4452
X5.0536Y-3.2928
X5.084Y-3.0444
X5.1387Y-2.9814
X5.1663Y-3.0102
X5.1667Y-3.0499
X5.1687Y-3.5011
X5.175Y-3.5857
X5.1935Y-3.4302
X5.2013Y-3.6224
X5.2017Y-3.6771
X5.2305Y-2.9818
X5.2305Y-3.0157
X5.2342Y-3.5303
X5.2547Y-3.4116
X5.2655Y-3.1102
X5.2699Y-3.5907
T2
X4.5872Y-3.0109
X4.5872Y-3.0609
X4.5872Y-3.1109
X4.5872Y-3.1609
X4.5872Y-3.2109
T3
X4.5655Y-2.9082
X4.6443Y-2.9082
X4.723Y-2.9082
X4.8017Y-2.9082
X4.8805Y-2.9082
X4.9592Y-2.9082
X5.038Y-2.9082
X5.1167Y-2.9082
X5.1954Y-2.9082
X5.2742Y-2.9082
X5.3529Y-2.9869
X5.3529Y-3.0657
X5.3529Y-3.1444
X5.3529Y-3.2231
X5.3529Y-3.3019
X5.3529Y-3.3806
X5.3529Y-3.4594
X5.3529Y-3.5381
X5.3529Y-3.6169
X5.3529Y-3.6956
X4.4868Y-2.9905
X4.4868Y-3.0692
X4.4868Y-3.148
X4.4868Y-3.2267
X4.4868Y-3.3054
X4.4868Y-3.3842
X4.4868Y-3.4629
X4.4868Y-3.5417
X4.4868Y-3.6204
X4.4868Y-3.6991
X4.5655Y-3.7743
X4.6443Y-3.7743
X4.723Y-3.7743
X4.8017Y-3.7743
X4.8805Y-3.7743
X4.9592Y-3.7743
X5.038Y-3.7743
X5.1167Y-3.7743
X5.1954Y-3.7743
X5.2742Y-3.7743
T0
M30
