M48
; DRILL file {KiCad 5.1.4-e60b266~84~ubuntu18.04.1} date 2019年11月01日 星期五 23时52分40秒
; FORMAT={-:-/ absolute / inch / decimal}
; #@! TF.CreationDate,2019-11-01T23:52:40+08:00
; #@! TF.GenerationSoftware,Kicad,Pcbnew,5.1.4-e60b266~84~ubuntu18.04.1
; #@! TF.FileFunction,Plated,1,2,PTH
FMAT,2
INCH
T1C0.0118
T2C0.0256
T3C0.0276
%
G90
G05
T1
X4.5508Y-3.3663
X4.5509Y-3.3893
X4.5592Y-3.259
X4.5616Y-3.6905
X4.5769Y-3.3401
X4.6015Y-3.3613
X4.6272Y-3.3421
X4.6332Y-3.0917
X4.6408Y-3.702
X4.649Y-2.9787
X4.6518Y-3.3621
X4.6793Y-3.0609
X4.6815Y-3.3428
X4.7061Y-3.3135
X4.7344Y-3.3483
X4.759Y-3.5346
X4.771Y-3.6117
X4.771Y-3.6554
X4.771Y-3.6846
X4.7722Y-3.5688
X4.7808Y-3.3899
X4.8092Y-3.4035
X4.8315Y-3.2874
X4.8337Y-3.1431
X4.8355Y-3.4284
X4.836Y-3.2562
X4.8446Y-3.1751
X4.8572Y-3.5483
X4.8687Y-3.1424
X4.8876Y-3.281
X4.9165Y-3.2941
X4.9411Y-3.1167
X4.9432Y-3.5118
X4.9565Y-3.3253
X4.9608Y-3.1413
X4.9608Y-3.1755
X4.9781Y-3.2369
X4.9903Y-3.4417
X4.9923Y-3.1405
X4.9923Y-3.1755
X4.9962Y-3.3417
X5.0112Y-3.276
X5.0395Y-3.4452
X5.0536Y-3.2928
X5.084Y-3.0444
X5.1387Y-2.9814
X5.1561Y-3.6919
X5.1663Y-3.0102
X5.1667Y-3.0499
X5.1687Y-3.5011
X5.175Y-3.5857
X5.1935Y-3.4302
X5.2013Y-3.6224
X5.2017Y-3.6771
X5.2342Y-3.5303
X5.2395Y-2.9814
X5.2395Y-3.0153
X5.2547Y-3.4116
X5.2655Y-3.1102
X5.2699Y-3.5907
X5.2742Y-3.735
T2
X4.6395Y-2.9082
X4.7008Y-2.9082
X4.762Y-2.9082
X4.8233Y-2.9082
X4.8845Y-2.9082
X4.9457Y-2.9082
X5.007Y-2.9082
X5.0682Y-2.9082
X5.1295Y-2.9082
X5.1907Y-2.9082
X4.6443Y-3.7743
X4.7055Y-3.7743
X4.7667Y-3.7743
X4.828Y-3.7743
X4.8892Y-3.7743
X4.9505Y-3.7743
X5.0117Y-3.7743
X5.0729Y-3.7743
X5.1342Y-3.7743
X5.1954Y-3.7743
X4.486Y-3.0649
X4.486Y-3.1261
X4.486Y-3.1874
X4.486Y-3.2486
X4.486Y-3.3099
X4.486Y-3.3711
X4.486Y-3.4323
X4.486Y-3.4936
X4.486Y-3.5548
X4.486Y-3.6161
X5.3521Y-3.0649
X5.3521Y-3.1261
X5.3521Y-3.1874
X5.3521Y-3.2486
X5.3521Y-3.3099
X5.3521Y-3.3711
X5.3521Y-3.4323
X5.3521Y-3.4936
X5.3521Y-3.5548
X5.3521Y-3.6161
T3
X4.5872Y-3.0109
X4.5872Y-3.0609
X4.5872Y-3.1109
X4.5872Y-3.1609
X4.5872Y-3.2109
T0
M30
