G04 #@! TF.GenerationSoftware,KiCad,Pcbnew,5.1.4-e60b266~84~ubuntu18.04.1*
G04 #@! TF.CreationDate,2019-11-01T23:52:35+08:00*
G04 #@! TF.ProjectId,dap-stm32f103,6461702d-7374-46d3-9332-663130332e6b,rev?*
G04 #@! TF.SameCoordinates,Original*
G04 #@! TF.FileFunction,Copper,L2,Bot*
G04 #@! TF.FilePolarity,Positive*
%FSLAX46Y46*%
G04 Gerber Fmt 4.6, Leading zero omitted, Abs format (unit mm)*
G04 Created by KiCad (PCBNEW 5.1.4-e60b266~84~ubuntu18.04.1) date 2019-11-01 23:52:35*
%MOMM*%
%LPD*%
G04 APERTURE LIST*
%ADD10R,2.000000X1.000000*%
%ADD11R,1.000000X2.000000*%
%ADD12O,1.000000X1.000000*%
%ADD13R,1.000000X1.000000*%
%ADD14C,0.600000*%
%ADD15C,0.250000*%
G04 APERTURE END LIST*
D10*
X135944000Y-85625775D03*
X135944000Y-84070220D03*
X135944000Y-82514665D03*
X135944000Y-90292440D03*
X135944000Y-91848000D03*
X135944000Y-79403555D03*
X135944000Y-80959110D03*
X135944000Y-88736885D03*
X135944000Y-77848000D03*
X135944000Y-87181330D03*
X113944000Y-85625775D03*
X113944000Y-84070220D03*
X113944000Y-82514665D03*
X113944000Y-90292440D03*
X113944000Y-91848000D03*
X113944000Y-79403555D03*
X113944000Y-80959110D03*
X113944000Y-88736885D03*
X113944000Y-77848000D03*
X113944000Y-87181330D03*
D11*
X125741775Y-95868000D03*
X124186220Y-95868000D03*
X122630665Y-95868000D03*
X130408440Y-95868000D03*
X131964000Y-95868000D03*
X119519555Y-95868000D03*
X121075110Y-95868000D03*
X128852885Y-95868000D03*
X117964000Y-95868000D03*
X127297330Y-95868000D03*
X124066225Y-73868000D03*
X125621780Y-73868000D03*
X127177335Y-73868000D03*
X119399560Y-73868000D03*
X117844000Y-73868000D03*
X130288445Y-73868000D03*
X128732890Y-73868000D03*
X120955115Y-73868000D03*
X131844000Y-73868000D03*
X122510670Y-73868000D03*
D12*
X116514000Y-76478000D03*
X116514000Y-77748000D03*
X116514000Y-79018000D03*
X116514000Y-80288000D03*
D13*
X116514000Y-81558000D03*
D14*
X130964000Y-93773000D03*
X121184000Y-93588000D03*
X121184000Y-92848000D03*
X115594000Y-86088000D03*
X115590665Y-85505220D03*
X122719405Y-83499752D03*
X121184000Y-91738000D03*
X120879000Y-89778000D03*
X126754000Y-87418000D03*
X126444000Y-82218000D03*
X130524000Y-75728000D03*
X129134000Y-77328000D03*
X118084000Y-75658000D03*
X132949000Y-89669985D03*
X131914000Y-87128000D03*
X133468443Y-86653557D03*
X131284000Y-88928000D03*
X117682058Y-78529942D03*
X125557059Y-89200766D03*
X117877058Y-94031058D03*
X115864000Y-93738000D03*
X133084000Y-75728000D03*
X133084000Y-76588000D03*
X115804000Y-82778000D03*
X133854881Y-91202967D03*
X118910464Y-84908000D03*
X128360263Y-83638147D03*
X125504000Y-79163000D03*
X133964000Y-94868000D03*
X131444000Y-91078000D03*
X122154000Y-86448000D03*
X124879918Y-83669571D03*
X124144000Y-83338000D03*
X121432463Y-86102476D03*
X122821716Y-87080183D03*
X123664000Y-79818000D03*
X131224000Y-76458000D03*
X131234000Y-77468000D03*
X123054000Y-80648000D03*
X126804000Y-79768000D03*
X126804000Y-80658000D03*
X126004000Y-80658000D03*
X126004000Y-79788000D03*
X126904000Y-84878000D03*
X121214000Y-90648000D03*
X133744000Y-78998000D03*
X122776984Y-79834868D03*
X118854000Y-77748000D03*
X132124000Y-93398000D03*
X122834000Y-82708000D03*
X120254000Y-85048000D03*
X119535464Y-84163920D03*
X116254147Y-84838147D03*
X128004000Y-87508000D03*
X123373010Y-90128000D03*
X125894669Y-84463707D03*
X117531819Y-84889357D03*
X118156819Y-85397666D03*
X116879147Y-85377952D03*
X132114000Y-92008000D03*
X127284412Y-83211187D03*
D15*
X122394000Y-82098000D02*
X122518998Y-82098000D01*
X122518998Y-82098000D02*
X122533999Y-82082999D01*
X122409001Y-82082999D02*
X122394000Y-82098000D01*
X123269001Y-82082999D02*
X122409001Y-82082999D01*
X123269001Y-82082999D02*
X124208999Y-82082999D01*
X122533999Y-82082999D02*
X123269001Y-82082999D01*
X121184000Y-93588000D02*
X121184000Y-92848000D01*
X115594000Y-86088000D02*
X115594000Y-85508555D01*
X115594000Y-85508555D02*
X115590665Y-85505220D01*
X117877058Y-94031058D02*
X116127058Y-94031058D01*
X116127058Y-94031058D02*
X115864000Y-93768000D01*
X115864000Y-93768000D02*
X115864000Y-93738000D01*
X120435484Y-92099484D02*
X121184000Y-92848000D01*
X120879000Y-89778000D02*
X120435484Y-90221516D01*
X120435484Y-90221516D02*
X120435484Y-92099484D01*
X130524000Y-75728000D02*
X132844000Y-75728000D01*
X132844000Y-75728000D02*
X132854000Y-75738000D01*
X132949000Y-90094249D02*
X133844000Y-90989249D01*
X132949000Y-89669985D02*
X132949000Y-90094249D01*
X133844000Y-90989249D02*
X133844000Y-91192086D01*
X133844000Y-91192086D02*
X133854881Y-91202967D01*
X125557059Y-88614941D02*
X126754000Y-87418000D01*
X125557059Y-89200766D02*
X125557059Y-88614941D01*
X115594000Y-82988000D02*
X115804000Y-82778000D01*
X115594000Y-86088000D02*
X115594000Y-82988000D01*
X129134000Y-77328000D02*
X129134000Y-79278000D01*
X133468443Y-83612443D02*
X133468443Y-86653557D01*
X129134000Y-79278000D02*
X133468443Y-83612443D01*
X132388443Y-86653557D02*
X131914000Y-87128000D01*
X133468443Y-86653557D02*
X132388443Y-86653557D01*
X131914000Y-88298000D02*
X131284000Y-88928000D01*
X131914000Y-87128000D02*
X131914000Y-88298000D01*
X132207015Y-88928000D02*
X132949000Y-89669985D01*
X131284000Y-88928000D02*
X132207015Y-88928000D01*
X135483990Y-75738000D02*
X135613990Y-75868000D01*
X134444000Y-75738000D02*
X135483990Y-75738000D01*
X132854000Y-75738000D02*
X134444000Y-75738000D01*
X134444000Y-90613848D02*
X133854881Y-91202967D01*
X134444000Y-75738000D02*
X134444000Y-90613848D01*
X117682058Y-78954206D02*
X117682058Y-78529942D01*
X117682058Y-79827048D02*
X117682058Y-78954206D01*
X117221106Y-80288000D02*
X117682058Y-79827048D01*
X116514000Y-80288000D02*
X117221106Y-80288000D01*
X116014001Y-79739003D02*
X115614000Y-79339002D01*
X116514000Y-80288000D02*
X116014001Y-79788001D01*
X116014001Y-79788001D02*
X116014001Y-79739003D01*
X117784001Y-75358001D02*
X118084000Y-75658000D01*
X116203999Y-75358001D02*
X117784001Y-75358001D01*
X115614000Y-75948000D02*
X116203999Y-75358001D01*
X117877058Y-94031058D02*
X118910464Y-92997652D01*
X118910464Y-92997652D02*
X118910464Y-84908000D01*
X119154000Y-83328000D02*
X122547653Y-83328000D01*
X118910464Y-84908000D02*
X118910464Y-83571536D01*
X122547653Y-83328000D02*
X122719405Y-83499752D01*
X118910464Y-83571536D02*
X119154000Y-83328000D01*
X130454000Y-75658000D02*
X130524000Y-75728000D01*
X118084000Y-75658000D02*
X130454000Y-75658000D01*
X126444000Y-82218000D02*
X127154000Y-82218000D01*
X127257590Y-82288000D02*
X128484000Y-83514410D01*
X127154000Y-82218000D02*
X127224000Y-82288000D01*
X127224000Y-82288000D02*
X127257590Y-82288000D01*
X128484000Y-83514410D02*
X128360263Y-83638147D01*
X127339000Y-77328000D02*
X129134000Y-77328000D01*
X125504000Y-79163000D02*
X127339000Y-77328000D01*
X115614000Y-77998000D02*
X114314010Y-77998000D01*
X115614000Y-77998000D02*
X115614000Y-75948000D01*
X115614000Y-79339002D02*
X115614000Y-77998000D01*
X135613990Y-75868000D02*
X135613990Y-77848000D01*
X129544020Y-83938020D02*
X127164000Y-81558000D01*
X129544020Y-89178020D02*
X129544020Y-83938020D01*
X131444000Y-91078000D02*
X129544020Y-89178020D01*
X117244000Y-81558000D02*
X115934000Y-81558000D01*
X117244000Y-81558000D02*
X116514000Y-81558000D01*
X127164000Y-81558000D02*
X117244000Y-81558000D01*
X114977335Y-82514665D02*
X114314010Y-82514665D01*
X115934000Y-81558000D02*
X114977335Y-82514665D01*
X122154000Y-86398000D02*
X122154000Y-86448000D01*
X124579919Y-83969570D02*
X124579919Y-83972081D01*
X124879918Y-83669571D02*
X124579919Y-83969570D01*
X124579919Y-83972081D02*
X122154000Y-86398000D01*
X124144000Y-83368000D02*
X124144000Y-83338000D01*
X124144000Y-83390939D02*
X124144000Y-83338000D01*
X121432463Y-86102476D02*
X124144000Y-83390939D01*
X123364001Y-79518001D02*
X123344001Y-79518001D01*
X123664000Y-79818000D02*
X123364001Y-79518001D01*
X120304000Y-76478000D02*
X116514000Y-76478000D01*
X123344001Y-79518001D02*
X123054000Y-79228000D01*
X122894000Y-79048000D02*
X122874000Y-79048000D01*
X123664000Y-79818000D02*
X122894000Y-79048000D01*
X123054000Y-79228000D02*
X122874000Y-79048000D01*
X123664000Y-79818000D02*
X122609000Y-78763000D01*
X122609000Y-78763000D02*
X122589000Y-78763000D01*
X122874000Y-79048000D02*
X122589000Y-78763000D01*
X122589000Y-78763000D02*
X120304000Y-76478000D01*
X116514000Y-76478000D02*
X117221106Y-76478000D01*
X131204000Y-76478000D02*
X131224000Y-76458000D01*
X130284000Y-76518000D02*
X131234000Y-77468000D01*
X130284000Y-76478000D02*
X130284000Y-76518000D01*
X130284000Y-76478000D02*
X131204000Y-76478000D01*
X117221106Y-76478000D02*
X130284000Y-76478000D01*
X120684000Y-80648000D02*
X116514000Y-76478000D01*
X123054000Y-80648000D02*
X120684000Y-80648000D01*
X123478264Y-80648000D02*
X123488264Y-80658000D01*
X123054000Y-80648000D02*
X123478264Y-80648000D01*
X123488264Y-80658000D02*
X126844000Y-80658000D01*
X126004000Y-80658000D02*
X126004000Y-79788000D01*
X126784000Y-79788000D02*
X126804000Y-79768000D01*
X126004000Y-79788000D02*
X126784000Y-79788000D01*
X126804000Y-79768000D02*
X126804000Y-80658000D01*
X123694000Y-79788000D02*
X123664000Y-79818000D01*
X126004000Y-79788000D02*
X123694000Y-79788000D01*
X129994029Y-82047971D02*
X129994029Y-81818029D01*
X129994029Y-81828029D02*
X129994029Y-82047971D01*
X128834000Y-80658000D02*
X126804000Y-80658000D01*
X129994029Y-81818029D02*
X128834000Y-80658000D01*
X127944000Y-79768000D02*
X126804000Y-79768000D01*
X128834000Y-80658000D02*
X127944000Y-79768000D01*
X129994029Y-87357971D02*
X129994029Y-87868029D01*
X129994029Y-82047971D02*
X129994029Y-87357971D01*
X129994029Y-87357971D02*
X129994029Y-88703027D01*
X129994029Y-88703027D02*
X133159002Y-91868000D01*
X122521717Y-87380182D02*
X122821716Y-87080183D01*
X121513999Y-88387900D02*
X122521717Y-87380182D01*
X121513999Y-90348001D02*
X121513999Y-88387900D01*
X121214000Y-90648000D02*
X121513999Y-90348001D01*
X126904000Y-84453736D02*
X126904000Y-84878000D01*
X126288970Y-83838706D02*
X126904000Y-84453736D01*
X125594668Y-83838706D02*
X126288970Y-83838706D01*
X122821716Y-86611658D02*
X125594668Y-83838706D01*
X122821716Y-87080183D02*
X122821716Y-86611658D01*
X132214000Y-77468000D02*
X131234000Y-77468000D01*
X133744000Y-78998000D02*
X132214000Y-77468000D01*
X133159002Y-93288000D02*
X132199002Y-94248000D01*
X133159002Y-91868000D02*
X133159002Y-93288000D01*
X130408440Y-95338558D02*
X130408440Y-95517990D01*
X132199002Y-94248000D02*
X131498998Y-94248000D01*
X131498998Y-94248000D02*
X130408440Y-95338558D01*
X135414558Y-90292440D02*
X135613990Y-90292440D01*
X134618999Y-91087999D02*
X135414558Y-90292440D01*
X133159002Y-91868000D02*
X134114850Y-91868000D01*
X134618999Y-91363851D02*
X134618999Y-91087999D01*
X134114850Y-91868000D02*
X134618999Y-91363851D01*
X122352720Y-79834868D02*
X122345852Y-79828000D01*
X122776984Y-79834868D02*
X122352720Y-79834868D01*
X122345852Y-79828000D02*
X120934000Y-79828000D01*
X120934000Y-79828000D02*
X118854000Y-77748000D01*
X132124000Y-93398000D02*
X128644000Y-89918000D01*
X128644000Y-89918000D02*
X128644000Y-87018000D01*
X128644000Y-87018000D02*
X128644000Y-85478000D01*
X128644000Y-85478000D02*
X128644000Y-85458000D01*
X128644000Y-85478000D02*
X125854000Y-82688000D01*
X125854000Y-82688000D02*
X122854000Y-82688000D01*
X122854000Y-82688000D02*
X122834000Y-82708000D01*
X120254000Y-85048000D02*
X120254000Y-87848000D01*
X120254000Y-87848000D02*
X119985474Y-88116526D01*
X121075110Y-95338553D02*
X121075110Y-95517990D01*
X119985474Y-88116526D02*
X119985474Y-94248917D01*
X119985474Y-94248917D02*
X121075110Y-95338553D01*
X119519555Y-94802445D02*
X119519555Y-95517990D01*
X119535464Y-84163920D02*
X119535464Y-94786536D01*
X119535464Y-94786536D02*
X119519555Y-94802445D01*
X115590670Y-87181330D02*
X114314010Y-87181330D01*
X116254147Y-84838147D02*
X116254147Y-86517853D01*
X116254147Y-86517853D02*
X115590670Y-87181330D01*
X128852885Y-95156885D02*
X128852885Y-95517990D01*
X128004000Y-87508000D02*
X128004000Y-94308000D01*
X128004000Y-94308000D02*
X128852885Y-95156885D01*
X123373010Y-90128000D02*
X123373010Y-93820600D01*
X123373010Y-93820600D02*
X123630410Y-94078000D01*
X127297330Y-95338553D02*
X127297330Y-95517990D01*
X125414000Y-94078000D02*
X126036777Y-94078000D01*
X126036777Y-94078000D02*
X127297330Y-95338553D01*
X123630410Y-94078000D02*
X125414000Y-94078000D01*
X125894669Y-86167331D02*
X125894669Y-84463707D01*
X122464000Y-93548000D02*
X122464000Y-89598000D01*
X122464000Y-89598000D02*
X125894669Y-86167331D01*
X125741775Y-95338553D02*
X125741775Y-95517990D01*
X124931232Y-94528010D02*
X125741775Y-95338553D01*
X122464000Y-93548000D02*
X123444010Y-94528010D01*
X123444010Y-94528010D02*
X124931232Y-94528010D01*
X116199560Y-90292440D02*
X114314010Y-90292440D01*
X117531819Y-84889357D02*
X117531819Y-88960181D01*
X117531819Y-88960181D02*
X116199560Y-90292440D01*
X117981829Y-85572656D02*
X118156819Y-85397666D01*
X117981829Y-85715829D02*
X117981829Y-85572656D01*
X117981829Y-85500021D02*
X117981829Y-85715829D01*
X116674000Y-91848000D02*
X114314010Y-91848000D01*
X117981829Y-85715829D02*
X117981829Y-90540171D01*
X117981829Y-90540171D02*
X116674000Y-91848000D01*
X116879147Y-85377952D02*
X116879147Y-87392863D01*
X116879147Y-87392863D02*
X115574005Y-88698005D01*
X115574005Y-88698005D02*
X114314010Y-88698005D01*
X132114000Y-92008000D02*
X131370410Y-92008000D01*
X131370410Y-92008000D02*
X129094010Y-89731600D01*
X128800410Y-84978000D02*
X128780410Y-84978000D01*
X129094010Y-89731600D02*
X129094010Y-85271600D01*
X128902205Y-85079795D02*
X128800410Y-84978000D01*
X129094010Y-85271600D02*
X128902205Y-85079795D01*
X128810400Y-85007990D02*
X127284412Y-83482002D01*
X128902205Y-85079795D02*
X128830400Y-85007990D01*
X127284412Y-83482002D02*
X127284412Y-83211187D01*
X128830400Y-85007990D02*
X128810400Y-85007990D01*
G36*
X134307937Y-92348000D02*
G01*
X134320159Y-92472090D01*
X134356354Y-92591411D01*
X134415133Y-92701378D01*
X134494236Y-92797764D01*
X134590622Y-92876867D01*
X134700589Y-92935646D01*
X134819910Y-92971841D01*
X134944000Y-92984063D01*
X135564000Y-92981399D01*
X135564000Y-95468000D01*
X133097485Y-95468000D01*
X133100063Y-94868000D01*
X133087841Y-94743910D01*
X133051646Y-94624589D01*
X132992867Y-94514622D01*
X132913764Y-94418236D01*
X132817378Y-94339133D01*
X132815812Y-94338296D01*
X133495183Y-93658925D01*
X133514266Y-93643264D01*
X133576748Y-93567129D01*
X133623177Y-93480267D01*
X133639318Y-93427057D01*
X133651767Y-93386018D01*
X133661421Y-93288001D01*
X133659002Y-93263441D01*
X133659002Y-92368000D01*
X134090290Y-92368000D01*
X134114850Y-92370419D01*
X134139410Y-92368000D01*
X134212867Y-92360765D01*
X134307117Y-92332175D01*
X134308173Y-92331611D01*
X134307937Y-92348000D01*
X134307937Y-92348000D01*
G37*
X134307937Y-92348000D02*
X134320159Y-92472090D01*
X134356354Y-92591411D01*
X134415133Y-92701378D01*
X134494236Y-92797764D01*
X134590622Y-92876867D01*
X134700589Y-92935646D01*
X134819910Y-92971841D01*
X134944000Y-92984063D01*
X135564000Y-92981399D01*
X135564000Y-95468000D01*
X133097485Y-95468000D01*
X133100063Y-94868000D01*
X133087841Y-94743910D01*
X133051646Y-94624589D01*
X132992867Y-94514622D01*
X132913764Y-94418236D01*
X132817378Y-94339133D01*
X132815812Y-94338296D01*
X133495183Y-93658925D01*
X133514266Y-93643264D01*
X133576748Y-93567129D01*
X133623177Y-93480267D01*
X133639318Y-93427057D01*
X133651767Y-93386018D01*
X133661421Y-93288001D01*
X133659002Y-93263441D01*
X133659002Y-92368000D01*
X134090290Y-92368000D01*
X134114850Y-92370419D01*
X134139410Y-92368000D01*
X134212867Y-92360765D01*
X134307117Y-92332175D01*
X134308173Y-92331611D01*
X134307937Y-92348000D01*
G36*
X121891581Y-82098000D02*
G01*
X121901235Y-82196017D01*
X121929825Y-82290267D01*
X121976254Y-82377129D01*
X122038736Y-82453264D01*
X122114871Y-82515746D01*
X122177373Y-82549154D01*
X122159000Y-82641518D01*
X122159000Y-82774482D01*
X122184940Y-82904890D01*
X122235823Y-83027732D01*
X122309693Y-83138287D01*
X122403713Y-83232307D01*
X122514268Y-83306177D01*
X122637110Y-83357060D01*
X122767518Y-83383000D01*
X122900482Y-83383000D01*
X123030890Y-83357060D01*
X123153732Y-83306177D01*
X123264287Y-83232307D01*
X123308594Y-83188000D01*
X123485613Y-83188000D01*
X123469000Y-83271518D01*
X123469000Y-83358832D01*
X121400358Y-85427476D01*
X121365981Y-85427476D01*
X121235573Y-85453416D01*
X121112731Y-85504299D01*
X121002176Y-85578169D01*
X120908156Y-85672189D01*
X120834286Y-85782744D01*
X120783403Y-85905586D01*
X120757463Y-86035994D01*
X120757463Y-86168958D01*
X120783403Y-86299366D01*
X120834286Y-86422208D01*
X120908156Y-86532763D01*
X121002176Y-86626783D01*
X121112731Y-86700653D01*
X121235573Y-86751536D01*
X121365981Y-86777476D01*
X121498945Y-86777476D01*
X121555222Y-86766282D01*
X121555823Y-86767732D01*
X121629693Y-86878287D01*
X121723713Y-86972307D01*
X121834268Y-87046177D01*
X121957110Y-87097060D01*
X122074401Y-87120391D01*
X121177818Y-88016976D01*
X121158736Y-88032636D01*
X121096254Y-88108771D01*
X121075736Y-88147158D01*
X121049825Y-88195633D01*
X121021234Y-88289883D01*
X121011580Y-88387900D01*
X121014000Y-88412470D01*
X121013999Y-90000229D01*
X120894268Y-90049823D01*
X120783713Y-90123693D01*
X120689693Y-90217713D01*
X120615823Y-90328268D01*
X120564940Y-90451110D01*
X120539000Y-90581518D01*
X120539000Y-90714482D01*
X120564940Y-90844890D01*
X120615823Y-90967732D01*
X120689693Y-91078287D01*
X120783713Y-91172307D01*
X120894268Y-91246177D01*
X121017110Y-91297060D01*
X121147518Y-91323000D01*
X121280482Y-91323000D01*
X121410890Y-91297060D01*
X121533732Y-91246177D01*
X121644287Y-91172307D01*
X121738307Y-91078287D01*
X121812177Y-90967732D01*
X121863060Y-90844890D01*
X121889000Y-90714482D01*
X121889000Y-90679215D01*
X121931745Y-90627130D01*
X121964001Y-90566784D01*
X121964000Y-93523440D01*
X121961581Y-93548000D01*
X121969085Y-93624187D01*
X121971235Y-93646016D01*
X121999825Y-93740266D01*
X122046254Y-93827129D01*
X122108736Y-93903264D01*
X122127824Y-93918929D01*
X122700080Y-94491186D01*
X122130665Y-94491186D01*
X122057152Y-94498426D01*
X121986465Y-94519869D01*
X121921318Y-94554691D01*
X121864217Y-94601552D01*
X121852888Y-94615357D01*
X121841558Y-94601552D01*
X121784457Y-94554691D01*
X121719310Y-94519869D01*
X121648623Y-94498426D01*
X121575110Y-94491186D01*
X120934849Y-94491186D01*
X120485474Y-94041812D01*
X120485474Y-88323631D01*
X120590176Y-88218929D01*
X120609264Y-88203264D01*
X120671746Y-88127129D01*
X120718175Y-88040267D01*
X120746765Y-87946017D01*
X120754000Y-87872560D01*
X120754000Y-87872559D01*
X120756419Y-87848001D01*
X120754000Y-87823443D01*
X120754000Y-85502594D01*
X120778307Y-85478287D01*
X120852177Y-85367732D01*
X120903060Y-85244890D01*
X120929000Y-85114482D01*
X120929000Y-84981518D01*
X120903060Y-84851110D01*
X120852177Y-84728268D01*
X120778307Y-84617713D01*
X120684287Y-84523693D01*
X120573732Y-84449823D01*
X120450890Y-84398940D01*
X120320482Y-84373000D01*
X120187518Y-84373000D01*
X120178753Y-84374744D01*
X120184524Y-84360810D01*
X120210464Y-84230402D01*
X120210464Y-84097438D01*
X120184524Y-83967030D01*
X120133641Y-83844188D01*
X120059771Y-83733633D01*
X119965751Y-83639613D01*
X119855196Y-83565743D01*
X119732354Y-83514860D01*
X119601946Y-83488920D01*
X119468982Y-83488920D01*
X119338574Y-83514860D01*
X119215732Y-83565743D01*
X119105177Y-83639613D01*
X119011157Y-83733633D01*
X118937287Y-83844188D01*
X118886404Y-83967030D01*
X118860464Y-84097438D01*
X118860464Y-84230402D01*
X118886404Y-84360810D01*
X118937287Y-84483652D01*
X119011157Y-84594207D01*
X119035464Y-84618514D01*
X119035465Y-94491186D01*
X119019555Y-94491186D01*
X118946042Y-94498426D01*
X118875355Y-94519869D01*
X118810208Y-94554691D01*
X118753107Y-94601552D01*
X118741778Y-94615357D01*
X118730448Y-94601552D01*
X118673347Y-94554691D01*
X118608200Y-94519869D01*
X118537513Y-94498426D01*
X118464000Y-94491186D01*
X117464000Y-94491186D01*
X117390487Y-94498426D01*
X117319800Y-94519869D01*
X117254653Y-94554691D01*
X117197552Y-94601552D01*
X117150691Y-94658653D01*
X117115869Y-94723800D01*
X117094426Y-94794487D01*
X117087186Y-94868000D01*
X117087186Y-95468000D01*
X114364000Y-95468000D01*
X114364000Y-92724814D01*
X114944000Y-92724814D01*
X115017513Y-92717574D01*
X115088200Y-92696131D01*
X115153347Y-92661309D01*
X115210448Y-92614448D01*
X115257309Y-92557347D01*
X115292131Y-92492200D01*
X115313574Y-92421513D01*
X115320814Y-92348000D01*
X116649440Y-92348000D01*
X116674000Y-92350419D01*
X116698560Y-92348000D01*
X116772017Y-92340765D01*
X116866267Y-92312175D01*
X116953129Y-92265746D01*
X117029264Y-92203264D01*
X117044929Y-92184176D01*
X118318016Y-90911091D01*
X118337093Y-90895435D01*
X118399575Y-90819300D01*
X118446004Y-90732438D01*
X118474594Y-90638188D01*
X118481829Y-90564731D01*
X118484248Y-90540171D01*
X118481829Y-90515611D01*
X118481829Y-85992316D01*
X118587106Y-85921973D01*
X118681126Y-85827953D01*
X118754996Y-85717398D01*
X118805879Y-85594556D01*
X118831819Y-85464148D01*
X118831819Y-85331184D01*
X118805879Y-85200776D01*
X118754996Y-85077934D01*
X118681126Y-84967379D01*
X118587106Y-84873359D01*
X118476551Y-84799489D01*
X118353709Y-84748606D01*
X118223301Y-84722666D01*
X118186886Y-84722666D01*
X118180879Y-84692467D01*
X118129996Y-84569625D01*
X118056126Y-84459070D01*
X117962106Y-84365050D01*
X117851551Y-84291180D01*
X117728709Y-84240297D01*
X117598301Y-84214357D01*
X117465337Y-84214357D01*
X117334929Y-84240297D01*
X117212087Y-84291180D01*
X117101532Y-84365050D01*
X117007512Y-84459070D01*
X116933642Y-84569625D01*
X116903455Y-84642503D01*
X116903207Y-84641257D01*
X116852324Y-84518415D01*
X116778454Y-84407860D01*
X116684434Y-84313840D01*
X116573879Y-84239970D01*
X116451037Y-84189087D01*
X116320629Y-84163147D01*
X116187665Y-84163147D01*
X116057257Y-84189087D01*
X115934415Y-84239970D01*
X115823860Y-84313840D01*
X115729840Y-84407860D01*
X115655970Y-84518415D01*
X115605087Y-84641257D01*
X115579147Y-84771665D01*
X115579147Y-84904629D01*
X115605087Y-85035037D01*
X115655970Y-85157879D01*
X115729840Y-85268434D01*
X115754147Y-85292741D01*
X115754148Y-86310746D01*
X115383565Y-86681330D01*
X115320814Y-86681330D01*
X115313574Y-86607817D01*
X115292131Y-86537130D01*
X115257309Y-86471983D01*
X115210448Y-86414882D01*
X115196643Y-86403553D01*
X115210448Y-86392223D01*
X115257309Y-86335122D01*
X115292131Y-86269975D01*
X115313574Y-86199288D01*
X115320814Y-86125775D01*
X115320814Y-85125775D01*
X115313574Y-85052262D01*
X115292131Y-84981575D01*
X115257309Y-84916428D01*
X115210448Y-84859327D01*
X115196643Y-84847998D01*
X115210448Y-84836668D01*
X115257309Y-84779567D01*
X115292131Y-84714420D01*
X115313574Y-84643733D01*
X115320814Y-84570220D01*
X115320814Y-83570220D01*
X115313574Y-83496707D01*
X115292131Y-83426020D01*
X115257309Y-83360873D01*
X115210448Y-83303772D01*
X115196643Y-83292442D01*
X115210448Y-83281113D01*
X115257309Y-83224012D01*
X115292131Y-83158865D01*
X115313574Y-83088178D01*
X115320814Y-83014665D01*
X115320814Y-82879601D01*
X115332599Y-82869929D01*
X115348264Y-82850841D01*
X115819735Y-82379371D01*
X115869800Y-82406131D01*
X115940487Y-82427574D01*
X116014000Y-82434814D01*
X117014000Y-82434814D01*
X117087513Y-82427574D01*
X117158200Y-82406131D01*
X117223347Y-82371309D01*
X117280448Y-82324448D01*
X117327309Y-82267347D01*
X117362131Y-82202200D01*
X117383574Y-82131513D01*
X117390814Y-82058000D01*
X121895521Y-82058000D01*
X121891581Y-82098000D01*
X121891581Y-82098000D01*
G37*
X121891581Y-82098000D02*
X121901235Y-82196017D01*
X121929825Y-82290267D01*
X121976254Y-82377129D01*
X122038736Y-82453264D01*
X122114871Y-82515746D01*
X122177373Y-82549154D01*
X122159000Y-82641518D01*
X122159000Y-82774482D01*
X122184940Y-82904890D01*
X122235823Y-83027732D01*
X122309693Y-83138287D01*
X122403713Y-83232307D01*
X122514268Y-83306177D01*
X122637110Y-83357060D01*
X122767518Y-83383000D01*
X122900482Y-83383000D01*
X123030890Y-83357060D01*
X123153732Y-83306177D01*
X123264287Y-83232307D01*
X123308594Y-83188000D01*
X123485613Y-83188000D01*
X123469000Y-83271518D01*
X123469000Y-83358832D01*
X121400358Y-85427476D01*
X121365981Y-85427476D01*
X121235573Y-85453416D01*
X121112731Y-85504299D01*
X121002176Y-85578169D01*
X120908156Y-85672189D01*
X120834286Y-85782744D01*
X120783403Y-85905586D01*
X120757463Y-86035994D01*
X120757463Y-86168958D01*
X120783403Y-86299366D01*
X120834286Y-86422208D01*
X120908156Y-86532763D01*
X121002176Y-86626783D01*
X121112731Y-86700653D01*
X121235573Y-86751536D01*
X121365981Y-86777476D01*
X121498945Y-86777476D01*
X121555222Y-86766282D01*
X121555823Y-86767732D01*
X121629693Y-86878287D01*
X121723713Y-86972307D01*
X121834268Y-87046177D01*
X121957110Y-87097060D01*
X122074401Y-87120391D01*
X121177818Y-88016976D01*
X121158736Y-88032636D01*
X121096254Y-88108771D01*
X121075736Y-88147158D01*
X121049825Y-88195633D01*
X121021234Y-88289883D01*
X121011580Y-88387900D01*
X121014000Y-88412470D01*
X121013999Y-90000229D01*
X120894268Y-90049823D01*
X120783713Y-90123693D01*
X120689693Y-90217713D01*
X120615823Y-90328268D01*
X120564940Y-90451110D01*
X120539000Y-90581518D01*
X120539000Y-90714482D01*
X120564940Y-90844890D01*
X120615823Y-90967732D01*
X120689693Y-91078287D01*
X120783713Y-91172307D01*
X120894268Y-91246177D01*
X121017110Y-91297060D01*
X121147518Y-91323000D01*
X121280482Y-91323000D01*
X121410890Y-91297060D01*
X121533732Y-91246177D01*
X121644287Y-91172307D01*
X121738307Y-91078287D01*
X121812177Y-90967732D01*
X121863060Y-90844890D01*
X121889000Y-90714482D01*
X121889000Y-90679215D01*
X121931745Y-90627130D01*
X121964001Y-90566784D01*
X121964000Y-93523440D01*
X121961581Y-93548000D01*
X121969085Y-93624187D01*
X121971235Y-93646016D01*
X121999825Y-93740266D01*
X122046254Y-93827129D01*
X122108736Y-93903264D01*
X122127824Y-93918929D01*
X122700080Y-94491186D01*
X122130665Y-94491186D01*
X122057152Y-94498426D01*
X121986465Y-94519869D01*
X121921318Y-94554691D01*
X121864217Y-94601552D01*
X121852888Y-94615357D01*
X121841558Y-94601552D01*
X121784457Y-94554691D01*
X121719310Y-94519869D01*
X121648623Y-94498426D01*
X121575110Y-94491186D01*
X120934849Y-94491186D01*
X120485474Y-94041812D01*
X120485474Y-88323631D01*
X120590176Y-88218929D01*
X120609264Y-88203264D01*
X120671746Y-88127129D01*
X120718175Y-88040267D01*
X120746765Y-87946017D01*
X120754000Y-87872560D01*
X120754000Y-87872559D01*
X120756419Y-87848001D01*
X120754000Y-87823443D01*
X120754000Y-85502594D01*
X120778307Y-85478287D01*
X120852177Y-85367732D01*
X120903060Y-85244890D01*
X120929000Y-85114482D01*
X120929000Y-84981518D01*
X120903060Y-84851110D01*
X120852177Y-84728268D01*
X120778307Y-84617713D01*
X120684287Y-84523693D01*
X120573732Y-84449823D01*
X120450890Y-84398940D01*
X120320482Y-84373000D01*
X120187518Y-84373000D01*
X120178753Y-84374744D01*
X120184524Y-84360810D01*
X120210464Y-84230402D01*
X120210464Y-84097438D01*
X120184524Y-83967030D01*
X120133641Y-83844188D01*
X120059771Y-83733633D01*
X119965751Y-83639613D01*
X119855196Y-83565743D01*
X119732354Y-83514860D01*
X119601946Y-83488920D01*
X119468982Y-83488920D01*
X119338574Y-83514860D01*
X119215732Y-83565743D01*
X119105177Y-83639613D01*
X119011157Y-83733633D01*
X118937287Y-83844188D01*
X118886404Y-83967030D01*
X118860464Y-84097438D01*
X118860464Y-84230402D01*
X118886404Y-84360810D01*
X118937287Y-84483652D01*
X119011157Y-84594207D01*
X119035464Y-84618514D01*
X119035465Y-94491186D01*
X119019555Y-94491186D01*
X118946042Y-94498426D01*
X118875355Y-94519869D01*
X118810208Y-94554691D01*
X118753107Y-94601552D01*
X118741778Y-94615357D01*
X118730448Y-94601552D01*
X118673347Y-94554691D01*
X118608200Y-94519869D01*
X118537513Y-94498426D01*
X118464000Y-94491186D01*
X117464000Y-94491186D01*
X117390487Y-94498426D01*
X117319800Y-94519869D01*
X117254653Y-94554691D01*
X117197552Y-94601552D01*
X117150691Y-94658653D01*
X117115869Y-94723800D01*
X117094426Y-94794487D01*
X117087186Y-94868000D01*
X117087186Y-95468000D01*
X114364000Y-95468000D01*
X114364000Y-92724814D01*
X114944000Y-92724814D01*
X115017513Y-92717574D01*
X115088200Y-92696131D01*
X115153347Y-92661309D01*
X115210448Y-92614448D01*
X115257309Y-92557347D01*
X115292131Y-92492200D01*
X115313574Y-92421513D01*
X115320814Y-92348000D01*
X116649440Y-92348000D01*
X116674000Y-92350419D01*
X116698560Y-92348000D01*
X116772017Y-92340765D01*
X116866267Y-92312175D01*
X116953129Y-92265746D01*
X117029264Y-92203264D01*
X117044929Y-92184176D01*
X118318016Y-90911091D01*
X118337093Y-90895435D01*
X118399575Y-90819300D01*
X118446004Y-90732438D01*
X118474594Y-90638188D01*
X118481829Y-90564731D01*
X118484248Y-90540171D01*
X118481829Y-90515611D01*
X118481829Y-85992316D01*
X118587106Y-85921973D01*
X118681126Y-85827953D01*
X118754996Y-85717398D01*
X118805879Y-85594556D01*
X118831819Y-85464148D01*
X118831819Y-85331184D01*
X118805879Y-85200776D01*
X118754996Y-85077934D01*
X118681126Y-84967379D01*
X118587106Y-84873359D01*
X118476551Y-84799489D01*
X118353709Y-84748606D01*
X118223301Y-84722666D01*
X118186886Y-84722666D01*
X118180879Y-84692467D01*
X118129996Y-84569625D01*
X118056126Y-84459070D01*
X117962106Y-84365050D01*
X117851551Y-84291180D01*
X117728709Y-84240297D01*
X117598301Y-84214357D01*
X117465337Y-84214357D01*
X117334929Y-84240297D01*
X117212087Y-84291180D01*
X117101532Y-84365050D01*
X117007512Y-84459070D01*
X116933642Y-84569625D01*
X116903455Y-84642503D01*
X116903207Y-84641257D01*
X116852324Y-84518415D01*
X116778454Y-84407860D01*
X116684434Y-84313840D01*
X116573879Y-84239970D01*
X116451037Y-84189087D01*
X116320629Y-84163147D01*
X116187665Y-84163147D01*
X116057257Y-84189087D01*
X115934415Y-84239970D01*
X115823860Y-84313840D01*
X115729840Y-84407860D01*
X115655970Y-84518415D01*
X115605087Y-84641257D01*
X115579147Y-84771665D01*
X115579147Y-84904629D01*
X115605087Y-85035037D01*
X115655970Y-85157879D01*
X115729840Y-85268434D01*
X115754147Y-85292741D01*
X115754148Y-86310746D01*
X115383565Y-86681330D01*
X115320814Y-86681330D01*
X115313574Y-86607817D01*
X115292131Y-86537130D01*
X115257309Y-86471983D01*
X115210448Y-86414882D01*
X115196643Y-86403553D01*
X115210448Y-86392223D01*
X115257309Y-86335122D01*
X115292131Y-86269975D01*
X115313574Y-86199288D01*
X115320814Y-86125775D01*
X115320814Y-85125775D01*
X115313574Y-85052262D01*
X115292131Y-84981575D01*
X115257309Y-84916428D01*
X115210448Y-84859327D01*
X115196643Y-84847998D01*
X115210448Y-84836668D01*
X115257309Y-84779567D01*
X115292131Y-84714420D01*
X115313574Y-84643733D01*
X115320814Y-84570220D01*
X115320814Y-83570220D01*
X115313574Y-83496707D01*
X115292131Y-83426020D01*
X115257309Y-83360873D01*
X115210448Y-83303772D01*
X115196643Y-83292442D01*
X115210448Y-83281113D01*
X115257309Y-83224012D01*
X115292131Y-83158865D01*
X115313574Y-83088178D01*
X115320814Y-83014665D01*
X115320814Y-82879601D01*
X115332599Y-82869929D01*
X115348264Y-82850841D01*
X115819735Y-82379371D01*
X115869800Y-82406131D01*
X115940487Y-82427574D01*
X116014000Y-82434814D01*
X117014000Y-82434814D01*
X117087513Y-82427574D01*
X117158200Y-82406131D01*
X117223347Y-82371309D01*
X117280448Y-82324448D01*
X117327309Y-82267347D01*
X117362131Y-82202200D01*
X117383574Y-82131513D01*
X117390814Y-82058000D01*
X121895521Y-82058000D01*
X121891581Y-82098000D01*
G36*
X131449000Y-93430106D02*
G01*
X131449000Y-93464482D01*
X131474940Y-93594890D01*
X131525823Y-93717732D01*
X131546047Y-93748000D01*
X131523558Y-93748000D01*
X131498998Y-93745581D01*
X131474438Y-93748000D01*
X131400981Y-93755235D01*
X131306731Y-93783825D01*
X131219869Y-93830254D01*
X131143734Y-93892736D01*
X131128073Y-93911819D01*
X130548707Y-94491186D01*
X129908440Y-94491186D01*
X129834927Y-94498426D01*
X129764240Y-94519869D01*
X129699093Y-94554691D01*
X129641992Y-94601552D01*
X129630663Y-94615357D01*
X129619333Y-94601552D01*
X129562232Y-94554691D01*
X129497085Y-94519869D01*
X129426398Y-94498426D01*
X129352885Y-94491186D01*
X128894292Y-94491186D01*
X128504000Y-94100895D01*
X128504000Y-90485105D01*
X131449000Y-93430106D01*
X131449000Y-93430106D01*
G37*
X131449000Y-93430106D02*
X131449000Y-93464482D01*
X131474940Y-93594890D01*
X131525823Y-93717732D01*
X131546047Y-93748000D01*
X131523558Y-93748000D01*
X131498998Y-93745581D01*
X131474438Y-93748000D01*
X131400981Y-93755235D01*
X131306731Y-93783825D01*
X131219869Y-93830254D01*
X131143734Y-93892736D01*
X131128073Y-93911819D01*
X130548707Y-94491186D01*
X129908440Y-94491186D01*
X129834927Y-94498426D01*
X129764240Y-94519869D01*
X129699093Y-94554691D01*
X129641992Y-94601552D01*
X129630663Y-94615357D01*
X129619333Y-94601552D01*
X129562232Y-94554691D01*
X129497085Y-94519869D01*
X129426398Y-94498426D01*
X129352885Y-94491186D01*
X128894292Y-94491186D01*
X128504000Y-94100895D01*
X128504000Y-90485105D01*
X131449000Y-93430106D01*
G36*
X128144001Y-85685108D02*
G01*
X128144000Y-86847624D01*
X128070482Y-86833000D01*
X127937518Y-86833000D01*
X127807110Y-86858940D01*
X127684268Y-86909823D01*
X127573713Y-86983693D01*
X127479693Y-87077713D01*
X127405823Y-87188268D01*
X127354940Y-87311110D01*
X127329000Y-87441518D01*
X127329000Y-87574482D01*
X127354940Y-87704890D01*
X127405823Y-87827732D01*
X127479693Y-87938287D01*
X127504000Y-87962594D01*
X127504001Y-94283430D01*
X127501581Y-94308000D01*
X127511235Y-94406017D01*
X127524250Y-94448920D01*
X127537071Y-94491186D01*
X127157069Y-94491186D01*
X126407706Y-93741824D01*
X126392041Y-93722736D01*
X126315906Y-93660254D01*
X126229044Y-93613825D01*
X126134794Y-93585235D01*
X126061337Y-93578000D01*
X126036777Y-93575581D01*
X126012217Y-93578000D01*
X123873010Y-93578000D01*
X123873010Y-90582594D01*
X123897317Y-90558287D01*
X123971187Y-90447732D01*
X124022070Y-90324890D01*
X124048010Y-90194482D01*
X124048010Y-90061518D01*
X124022070Y-89931110D01*
X123971187Y-89808268D01*
X123897317Y-89697713D01*
X123803297Y-89603693D01*
X123692742Y-89529823D01*
X123569900Y-89478940D01*
X123439492Y-89453000D01*
X123316105Y-89453000D01*
X126230856Y-86538251D01*
X126249933Y-86522595D01*
X126312415Y-86446460D01*
X126358844Y-86359598D01*
X126387434Y-86265348D01*
X126394669Y-86191891D01*
X126394669Y-86191890D01*
X126397088Y-86167331D01*
X126394669Y-86142771D01*
X126394669Y-85323263D01*
X126473713Y-85402307D01*
X126584268Y-85476177D01*
X126707110Y-85527060D01*
X126837518Y-85553000D01*
X126970482Y-85553000D01*
X127100890Y-85527060D01*
X127223732Y-85476177D01*
X127334287Y-85402307D01*
X127428307Y-85308287D01*
X127502177Y-85197732D01*
X127547414Y-85088521D01*
X128144001Y-85685108D01*
X128144001Y-85685108D01*
G37*
X128144001Y-85685108D02*
X128144000Y-86847624D01*
X128070482Y-86833000D01*
X127937518Y-86833000D01*
X127807110Y-86858940D01*
X127684268Y-86909823D01*
X127573713Y-86983693D01*
X127479693Y-87077713D01*
X127405823Y-87188268D01*
X127354940Y-87311110D01*
X127329000Y-87441518D01*
X127329000Y-87574482D01*
X127354940Y-87704890D01*
X127405823Y-87827732D01*
X127479693Y-87938287D01*
X127504000Y-87962594D01*
X127504001Y-94283430D01*
X127501581Y-94308000D01*
X127511235Y-94406017D01*
X127524250Y-94448920D01*
X127537071Y-94491186D01*
X127157069Y-94491186D01*
X126407706Y-93741824D01*
X126392041Y-93722736D01*
X126315906Y-93660254D01*
X126229044Y-93613825D01*
X126134794Y-93585235D01*
X126061337Y-93578000D01*
X126036777Y-93575581D01*
X126012217Y-93578000D01*
X123873010Y-93578000D01*
X123873010Y-90582594D01*
X123897317Y-90558287D01*
X123971187Y-90447732D01*
X124022070Y-90324890D01*
X124048010Y-90194482D01*
X124048010Y-90061518D01*
X124022070Y-89931110D01*
X123971187Y-89808268D01*
X123897317Y-89697713D01*
X123803297Y-89603693D01*
X123692742Y-89529823D01*
X123569900Y-89478940D01*
X123439492Y-89453000D01*
X123316105Y-89453000D01*
X126230856Y-86538251D01*
X126249933Y-86522595D01*
X126312415Y-86446460D01*
X126358844Y-86359598D01*
X126387434Y-86265348D01*
X126394669Y-86191891D01*
X126394669Y-86191890D01*
X126397088Y-86167331D01*
X126394669Y-86142771D01*
X126394669Y-85323263D01*
X126473713Y-85402307D01*
X126584268Y-85476177D01*
X126707110Y-85527060D01*
X126837518Y-85553000D01*
X126970482Y-85553000D01*
X127100890Y-85527060D01*
X127223732Y-85476177D01*
X127334287Y-85402307D01*
X127428307Y-85308287D01*
X127502177Y-85197732D01*
X127547414Y-85088521D01*
X128144001Y-85685108D01*
G36*
X116707937Y-74868000D02*
G01*
X116720159Y-74992090D01*
X116756354Y-75111411D01*
X116815133Y-75221378D01*
X116894236Y-75317764D01*
X116990622Y-75396867D01*
X117100589Y-75455646D01*
X117219910Y-75491841D01*
X117344000Y-75504063D01*
X117556750Y-75501000D01*
X117715000Y-75342750D01*
X117715000Y-74268000D01*
X117973000Y-74268000D01*
X117973000Y-75342750D01*
X118131250Y-75501000D01*
X118344000Y-75504063D01*
X118468090Y-75491841D01*
X118587411Y-75455646D01*
X118697378Y-75396867D01*
X118793764Y-75317764D01*
X118857068Y-75240629D01*
X118899560Y-75244814D01*
X119899560Y-75244814D01*
X119973073Y-75237574D01*
X120043760Y-75216131D01*
X120108907Y-75181309D01*
X120166008Y-75134448D01*
X120177338Y-75120643D01*
X120188667Y-75134448D01*
X120245768Y-75181309D01*
X120310915Y-75216131D01*
X120381602Y-75237574D01*
X120455115Y-75244814D01*
X121455115Y-75244814D01*
X121528628Y-75237574D01*
X121599315Y-75216131D01*
X121664462Y-75181309D01*
X121721563Y-75134448D01*
X121732893Y-75120643D01*
X121744222Y-75134448D01*
X121801323Y-75181309D01*
X121866470Y-75216131D01*
X121937157Y-75237574D01*
X122010670Y-75244814D01*
X123010670Y-75244814D01*
X123084183Y-75237574D01*
X123154870Y-75216131D01*
X123220017Y-75181309D01*
X123277118Y-75134448D01*
X123288448Y-75120643D01*
X123299777Y-75134448D01*
X123356878Y-75181309D01*
X123422025Y-75216131D01*
X123492712Y-75237574D01*
X123566225Y-75244814D01*
X124566225Y-75244814D01*
X124639738Y-75237574D01*
X124710425Y-75216131D01*
X124775572Y-75181309D01*
X124832673Y-75134448D01*
X124844003Y-75120643D01*
X124855332Y-75134448D01*
X124912433Y-75181309D01*
X124977580Y-75216131D01*
X125048267Y-75237574D01*
X125121780Y-75244814D01*
X126121780Y-75244814D01*
X126195293Y-75237574D01*
X126265980Y-75216131D01*
X126331127Y-75181309D01*
X126388228Y-75134448D01*
X126399558Y-75120643D01*
X126410887Y-75134448D01*
X126467988Y-75181309D01*
X126533135Y-75216131D01*
X126603822Y-75237574D01*
X126677335Y-75244814D01*
X127677335Y-75244814D01*
X127750848Y-75237574D01*
X127821535Y-75216131D01*
X127886682Y-75181309D01*
X127943783Y-75134448D01*
X127955113Y-75120643D01*
X127966442Y-75134448D01*
X128023543Y-75181309D01*
X128088690Y-75216131D01*
X128159377Y-75237574D01*
X128232890Y-75244814D01*
X129232890Y-75244814D01*
X129306403Y-75237574D01*
X129377090Y-75216131D01*
X129442237Y-75181309D01*
X129499338Y-75134448D01*
X129510668Y-75120643D01*
X129521997Y-75134448D01*
X129579098Y-75181309D01*
X129644245Y-75216131D01*
X129714932Y-75237574D01*
X129788445Y-75244814D01*
X130788445Y-75244814D01*
X130861958Y-75237574D01*
X130932645Y-75216131D01*
X130997792Y-75181309D01*
X131054893Y-75134448D01*
X131066223Y-75120643D01*
X131077552Y-75134448D01*
X131134653Y-75181309D01*
X131199800Y-75216131D01*
X131270487Y-75237574D01*
X131344000Y-75244814D01*
X132344000Y-75244814D01*
X132417513Y-75237574D01*
X132488200Y-75216131D01*
X132553347Y-75181309D01*
X132610448Y-75134448D01*
X132657309Y-75077347D01*
X132692131Y-75012200D01*
X132713574Y-74941513D01*
X132720814Y-74868000D01*
X132720814Y-74268000D01*
X135564001Y-74268000D01*
X135564001Y-76714601D01*
X134944000Y-76711937D01*
X134819910Y-76724159D01*
X134700589Y-76760354D01*
X134590622Y-76819133D01*
X134494236Y-76898236D01*
X134415133Y-76994622D01*
X134356354Y-77104589D01*
X134320159Y-77223910D01*
X134307937Y-77348000D01*
X134311000Y-77560750D01*
X134469250Y-77719000D01*
X135564001Y-77719000D01*
X135564001Y-77977000D01*
X134469250Y-77977000D01*
X134311000Y-78135250D01*
X134307937Y-78348000D01*
X134320159Y-78472090D01*
X134356354Y-78591411D01*
X134415133Y-78701378D01*
X134494236Y-78797764D01*
X134571370Y-78861067D01*
X134567186Y-78903555D01*
X134567186Y-79903555D01*
X134574426Y-79977068D01*
X134595869Y-80047755D01*
X134630691Y-80112902D01*
X134677552Y-80170003D01*
X134691357Y-80181333D01*
X134677552Y-80192662D01*
X134630691Y-80249763D01*
X134595869Y-80314910D01*
X134574426Y-80385597D01*
X134567186Y-80459110D01*
X134567186Y-81459110D01*
X134574426Y-81532623D01*
X134595869Y-81603310D01*
X134630691Y-81668457D01*
X134677552Y-81725558D01*
X134691357Y-81736888D01*
X134677552Y-81748217D01*
X134630691Y-81805318D01*
X134595869Y-81870465D01*
X134574426Y-81941152D01*
X134567186Y-82014665D01*
X134567186Y-83014665D01*
X134574426Y-83088178D01*
X134595869Y-83158865D01*
X134630691Y-83224012D01*
X134677552Y-83281113D01*
X134691357Y-83292442D01*
X134677552Y-83303772D01*
X134630691Y-83360873D01*
X134595869Y-83426020D01*
X134574426Y-83496707D01*
X134567186Y-83570220D01*
X134567186Y-84570220D01*
X134574426Y-84643733D01*
X134595869Y-84714420D01*
X134630691Y-84779567D01*
X134677552Y-84836668D01*
X134691357Y-84847998D01*
X134677552Y-84859327D01*
X134630691Y-84916428D01*
X134595869Y-84981575D01*
X134574426Y-85052262D01*
X134567186Y-85125775D01*
X134567186Y-86125775D01*
X134574426Y-86199288D01*
X134595869Y-86269975D01*
X134630691Y-86335122D01*
X134677552Y-86392223D01*
X134691357Y-86403553D01*
X134677552Y-86414882D01*
X134630691Y-86471983D01*
X134595869Y-86537130D01*
X134574426Y-86607817D01*
X134567186Y-86681330D01*
X134567186Y-87681330D01*
X134574426Y-87754843D01*
X134595869Y-87825530D01*
X134630691Y-87890677D01*
X134677552Y-87947778D01*
X134691357Y-87959107D01*
X134677552Y-87970437D01*
X134630691Y-88027538D01*
X134595869Y-88092685D01*
X134574426Y-88163372D01*
X134567186Y-88236885D01*
X134567186Y-89236885D01*
X134574426Y-89310398D01*
X134595869Y-89381085D01*
X134630691Y-89446232D01*
X134677552Y-89503333D01*
X134691357Y-89514663D01*
X134677552Y-89525992D01*
X134630691Y-89583093D01*
X134595869Y-89648240D01*
X134574426Y-89718927D01*
X134567186Y-89792440D01*
X134567186Y-90432706D01*
X134282818Y-90717075D01*
X134263736Y-90732735D01*
X134201254Y-90808870D01*
X134154824Y-90895732D01*
X134126234Y-90989982D01*
X134116580Y-91087999D01*
X134118999Y-91112559D01*
X134118999Y-91156745D01*
X133907744Y-91368000D01*
X133366109Y-91368000D01*
X130494029Y-88495922D01*
X130494029Y-81842589D01*
X130496448Y-81818029D01*
X130486794Y-81720012D01*
X130478121Y-81691422D01*
X130458204Y-81625762D01*
X130411775Y-81538900D01*
X130349293Y-81462765D01*
X130330216Y-81447109D01*
X129204929Y-80321824D01*
X129189264Y-80302736D01*
X129170181Y-80287075D01*
X128314929Y-79431824D01*
X128299264Y-79412736D01*
X128223129Y-79350254D01*
X128136267Y-79303825D01*
X128042017Y-79275235D01*
X127968560Y-79268000D01*
X127944000Y-79265581D01*
X127919440Y-79268000D01*
X127258594Y-79268000D01*
X127234287Y-79243693D01*
X127123732Y-79169823D01*
X127000890Y-79118940D01*
X126870482Y-79093000D01*
X126737518Y-79093000D01*
X126607110Y-79118940D01*
X126484268Y-79169823D01*
X126389034Y-79233456D01*
X126323732Y-79189823D01*
X126200890Y-79138940D01*
X126070482Y-79113000D01*
X125937518Y-79113000D01*
X125807110Y-79138940D01*
X125684268Y-79189823D01*
X125573713Y-79263693D01*
X125549406Y-79288000D01*
X124085767Y-79288000D01*
X123983732Y-79219823D01*
X123860890Y-79168940D01*
X123730482Y-79143000D01*
X123696106Y-79143000D01*
X123264926Y-78711821D01*
X123249264Y-78692736D01*
X123230179Y-78677073D01*
X122979929Y-78426824D01*
X122964264Y-78407736D01*
X122888129Y-78345254D01*
X122867142Y-78334036D01*
X121511105Y-76978000D01*
X130036895Y-76978000D01*
X130559000Y-77500106D01*
X130559000Y-77534482D01*
X130584940Y-77664890D01*
X130635823Y-77787732D01*
X130709693Y-77898287D01*
X130803713Y-77992307D01*
X130914268Y-78066177D01*
X131037110Y-78117060D01*
X131167518Y-78143000D01*
X131300482Y-78143000D01*
X131430890Y-78117060D01*
X131553732Y-78066177D01*
X131664287Y-77992307D01*
X131688594Y-77968000D01*
X132006895Y-77968000D01*
X133069000Y-79030107D01*
X133069000Y-79064482D01*
X133094940Y-79194890D01*
X133145823Y-79317732D01*
X133219693Y-79428287D01*
X133313713Y-79522307D01*
X133424268Y-79596177D01*
X133547110Y-79647060D01*
X133677518Y-79673000D01*
X133810482Y-79673000D01*
X133940890Y-79647060D01*
X134063732Y-79596177D01*
X134174287Y-79522307D01*
X134268307Y-79428287D01*
X134342177Y-79317732D01*
X134393060Y-79194890D01*
X134419000Y-79064482D01*
X134419000Y-78931518D01*
X134393060Y-78801110D01*
X134342177Y-78678268D01*
X134268307Y-78567713D01*
X134174287Y-78473693D01*
X134063732Y-78399823D01*
X133940890Y-78348940D01*
X133810482Y-78323000D01*
X133776107Y-78323000D01*
X132584929Y-77131824D01*
X132569264Y-77112736D01*
X132493129Y-77050254D01*
X132406267Y-77003825D01*
X132312017Y-76975235D01*
X132238560Y-76968000D01*
X132214000Y-76965581D01*
X132189440Y-76968000D01*
X131688594Y-76968000D01*
X131678594Y-76958000D01*
X131748307Y-76888287D01*
X131822177Y-76777732D01*
X131873060Y-76654890D01*
X131899000Y-76524482D01*
X131899000Y-76391518D01*
X131873060Y-76261110D01*
X131822177Y-76138268D01*
X131748307Y-76027713D01*
X131654287Y-75933693D01*
X131543732Y-75859823D01*
X131420890Y-75808940D01*
X131290482Y-75783000D01*
X131157518Y-75783000D01*
X131027110Y-75808940D01*
X130904268Y-75859823D01*
X130793713Y-75933693D01*
X130749406Y-75978000D01*
X130308560Y-75978000D01*
X130284000Y-75975581D01*
X130259440Y-75978000D01*
X120328560Y-75978000D01*
X120304000Y-75975581D01*
X120279440Y-75978000D01*
X117235598Y-75978000D01*
X117135712Y-75856288D01*
X117002476Y-75746944D01*
X116850468Y-75665695D01*
X116685530Y-75615661D01*
X116556979Y-75603000D01*
X116471021Y-75603000D01*
X116342470Y-75615661D01*
X116177532Y-75665695D01*
X116025524Y-75746944D01*
X115892288Y-75856288D01*
X115782944Y-75989524D01*
X115701695Y-76141532D01*
X115651661Y-76306470D01*
X115634767Y-76478000D01*
X115651661Y-76649530D01*
X115701695Y-76814468D01*
X115782944Y-76966476D01*
X115892288Y-77099712D01*
X115908479Y-77113000D01*
X115892288Y-77126288D01*
X115782944Y-77259524D01*
X115701695Y-77411532D01*
X115651661Y-77576470D01*
X115634767Y-77748000D01*
X115651661Y-77919530D01*
X115701695Y-78084468D01*
X115782944Y-78236476D01*
X115892288Y-78369712D01*
X115908479Y-78383000D01*
X115892288Y-78396288D01*
X115782944Y-78529524D01*
X115701695Y-78681532D01*
X115651661Y-78846470D01*
X115634767Y-79018000D01*
X115651661Y-79189530D01*
X115701695Y-79354468D01*
X115754833Y-79453884D01*
X115655187Y-79548984D01*
X115527514Y-79730730D01*
X115437751Y-79933892D01*
X115422406Y-79984501D01*
X115547824Y-80159000D01*
X116385000Y-80159000D01*
X116385000Y-80139000D01*
X116643000Y-80139000D01*
X116643000Y-80159000D01*
X117480176Y-80159000D01*
X117605594Y-79984501D01*
X117590249Y-79933892D01*
X117500486Y-79730730D01*
X117372813Y-79548984D01*
X117273167Y-79453884D01*
X117326305Y-79354468D01*
X117376339Y-79189530D01*
X117393233Y-79018000D01*
X117376339Y-78846470D01*
X117326305Y-78681532D01*
X117245056Y-78529524D01*
X117135712Y-78396288D01*
X117119521Y-78383000D01*
X117135712Y-78369712D01*
X117245056Y-78236476D01*
X117326305Y-78084468D01*
X117346567Y-78017673D01*
X120313079Y-80984186D01*
X120328736Y-81003264D01*
X120395432Y-81058000D01*
X117390814Y-81058000D01*
X117385924Y-81008352D01*
X117500486Y-80845270D01*
X117590249Y-80642108D01*
X117605594Y-80591499D01*
X117480176Y-80417000D01*
X116643000Y-80417000D01*
X116643000Y-80437000D01*
X116385000Y-80437000D01*
X116385000Y-80417000D01*
X115547824Y-80417000D01*
X115422406Y-80591499D01*
X115437751Y-80642108D01*
X115527514Y-80845270D01*
X115642076Y-81008352D01*
X115637186Y-81058000D01*
X115637186Y-81154768D01*
X115578736Y-81202736D01*
X115563080Y-81221813D01*
X115320271Y-81464622D01*
X115320814Y-81459110D01*
X115320814Y-80459110D01*
X115313574Y-80385597D01*
X115292131Y-80314910D01*
X115257309Y-80249763D01*
X115210448Y-80192662D01*
X115196643Y-80181333D01*
X115210448Y-80170003D01*
X115257309Y-80112902D01*
X115292131Y-80047755D01*
X115313574Y-79977068D01*
X115320814Y-79903555D01*
X115320814Y-78903555D01*
X115316630Y-78861067D01*
X115393764Y-78797764D01*
X115472867Y-78701378D01*
X115531646Y-78591411D01*
X115567841Y-78472090D01*
X115580063Y-78348000D01*
X115577000Y-78135250D01*
X115418750Y-77977000D01*
X114364000Y-77977000D01*
X114364000Y-77719000D01*
X115418750Y-77719000D01*
X115577000Y-77560750D01*
X115580063Y-77348000D01*
X115567841Y-77223910D01*
X115531646Y-77104589D01*
X115472867Y-76994622D01*
X115393764Y-76898236D01*
X115297378Y-76819133D01*
X115187411Y-76760354D01*
X115068090Y-76724159D01*
X114944000Y-76711937D01*
X114364000Y-76714430D01*
X114364000Y-74268000D01*
X116710515Y-74268000D01*
X116707937Y-74868000D01*
X116707937Y-74868000D01*
G37*
X116707937Y-74868000D02*
X116720159Y-74992090D01*
X116756354Y-75111411D01*
X116815133Y-75221378D01*
X116894236Y-75317764D01*
X116990622Y-75396867D01*
X117100589Y-75455646D01*
X117219910Y-75491841D01*
X117344000Y-75504063D01*
X117556750Y-75501000D01*
X117715000Y-75342750D01*
X117715000Y-74268000D01*
X117973000Y-74268000D01*
X117973000Y-75342750D01*
X118131250Y-75501000D01*
X118344000Y-75504063D01*
X118468090Y-75491841D01*
X118587411Y-75455646D01*
X118697378Y-75396867D01*
X118793764Y-75317764D01*
X118857068Y-75240629D01*
X118899560Y-75244814D01*
X119899560Y-75244814D01*
X119973073Y-75237574D01*
X120043760Y-75216131D01*
X120108907Y-75181309D01*
X120166008Y-75134448D01*
X120177338Y-75120643D01*
X120188667Y-75134448D01*
X120245768Y-75181309D01*
X120310915Y-75216131D01*
X120381602Y-75237574D01*
X120455115Y-75244814D01*
X121455115Y-75244814D01*
X121528628Y-75237574D01*
X121599315Y-75216131D01*
X121664462Y-75181309D01*
X121721563Y-75134448D01*
X121732893Y-75120643D01*
X121744222Y-75134448D01*
X121801323Y-75181309D01*
X121866470Y-75216131D01*
X121937157Y-75237574D01*
X122010670Y-75244814D01*
X123010670Y-75244814D01*
X123084183Y-75237574D01*
X123154870Y-75216131D01*
X123220017Y-75181309D01*
X123277118Y-75134448D01*
X123288448Y-75120643D01*
X123299777Y-75134448D01*
X123356878Y-75181309D01*
X123422025Y-75216131D01*
X123492712Y-75237574D01*
X123566225Y-75244814D01*
X124566225Y-75244814D01*
X124639738Y-75237574D01*
X124710425Y-75216131D01*
X124775572Y-75181309D01*
X124832673Y-75134448D01*
X124844003Y-75120643D01*
X124855332Y-75134448D01*
X124912433Y-75181309D01*
X124977580Y-75216131D01*
X125048267Y-75237574D01*
X125121780Y-75244814D01*
X126121780Y-75244814D01*
X126195293Y-75237574D01*
X126265980Y-75216131D01*
X126331127Y-75181309D01*
X126388228Y-75134448D01*
X126399558Y-75120643D01*
X126410887Y-75134448D01*
X126467988Y-75181309D01*
X126533135Y-75216131D01*
X126603822Y-75237574D01*
X126677335Y-75244814D01*
X127677335Y-75244814D01*
X127750848Y-75237574D01*
X127821535Y-75216131D01*
X127886682Y-75181309D01*
X127943783Y-75134448D01*
X127955113Y-75120643D01*
X127966442Y-75134448D01*
X128023543Y-75181309D01*
X128088690Y-75216131D01*
X128159377Y-75237574D01*
X128232890Y-75244814D01*
X129232890Y-75244814D01*
X129306403Y-75237574D01*
X129377090Y-75216131D01*
X129442237Y-75181309D01*
X129499338Y-75134448D01*
X129510668Y-75120643D01*
X129521997Y-75134448D01*
X129579098Y-75181309D01*
X129644245Y-75216131D01*
X129714932Y-75237574D01*
X129788445Y-75244814D01*
X130788445Y-75244814D01*
X130861958Y-75237574D01*
X130932645Y-75216131D01*
X130997792Y-75181309D01*
X131054893Y-75134448D01*
X131066223Y-75120643D01*
X131077552Y-75134448D01*
X131134653Y-75181309D01*
X131199800Y-75216131D01*
X131270487Y-75237574D01*
X131344000Y-75244814D01*
X132344000Y-75244814D01*
X132417513Y-75237574D01*
X132488200Y-75216131D01*
X132553347Y-75181309D01*
X132610448Y-75134448D01*
X132657309Y-75077347D01*
X132692131Y-75012200D01*
X132713574Y-74941513D01*
X132720814Y-74868000D01*
X132720814Y-74268000D01*
X135564001Y-74268000D01*
X135564001Y-76714601D01*
X134944000Y-76711937D01*
X134819910Y-76724159D01*
X134700589Y-76760354D01*
X134590622Y-76819133D01*
X134494236Y-76898236D01*
X134415133Y-76994622D01*
X134356354Y-77104589D01*
X134320159Y-77223910D01*
X134307937Y-77348000D01*
X134311000Y-77560750D01*
X134469250Y-77719000D01*
X135564001Y-77719000D01*
X135564001Y-77977000D01*
X134469250Y-77977000D01*
X134311000Y-78135250D01*
X134307937Y-78348000D01*
X134320159Y-78472090D01*
X134356354Y-78591411D01*
X134415133Y-78701378D01*
X134494236Y-78797764D01*
X134571370Y-78861067D01*
X134567186Y-78903555D01*
X134567186Y-79903555D01*
X134574426Y-79977068D01*
X134595869Y-80047755D01*
X134630691Y-80112902D01*
X134677552Y-80170003D01*
X134691357Y-80181333D01*
X134677552Y-80192662D01*
X134630691Y-80249763D01*
X134595869Y-80314910D01*
X134574426Y-80385597D01*
X134567186Y-80459110D01*
X134567186Y-81459110D01*
X134574426Y-81532623D01*
X134595869Y-81603310D01*
X134630691Y-81668457D01*
X134677552Y-81725558D01*
X134691357Y-81736888D01*
X134677552Y-81748217D01*
X134630691Y-81805318D01*
X134595869Y-81870465D01*
X134574426Y-81941152D01*
X134567186Y-82014665D01*
X134567186Y-83014665D01*
X134574426Y-83088178D01*
X134595869Y-83158865D01*
X134630691Y-83224012D01*
X134677552Y-83281113D01*
X134691357Y-83292442D01*
X134677552Y-83303772D01*
X134630691Y-83360873D01*
X134595869Y-83426020D01*
X134574426Y-83496707D01*
X134567186Y-83570220D01*
X134567186Y-84570220D01*
X134574426Y-84643733D01*
X134595869Y-84714420D01*
X134630691Y-84779567D01*
X134677552Y-84836668D01*
X134691357Y-84847998D01*
X134677552Y-84859327D01*
X134630691Y-84916428D01*
X134595869Y-84981575D01*
X134574426Y-85052262D01*
X134567186Y-85125775D01*
X134567186Y-86125775D01*
X134574426Y-86199288D01*
X134595869Y-86269975D01*
X134630691Y-86335122D01*
X134677552Y-86392223D01*
X134691357Y-86403553D01*
X134677552Y-86414882D01*
X134630691Y-86471983D01*
X134595869Y-86537130D01*
X134574426Y-86607817D01*
X134567186Y-86681330D01*
X134567186Y-87681330D01*
X134574426Y-87754843D01*
X134595869Y-87825530D01*
X134630691Y-87890677D01*
X134677552Y-87947778D01*
X134691357Y-87959107D01*
X134677552Y-87970437D01*
X134630691Y-88027538D01*
X134595869Y-88092685D01*
X134574426Y-88163372D01*
X134567186Y-88236885D01*
X134567186Y-89236885D01*
X134574426Y-89310398D01*
X134595869Y-89381085D01*
X134630691Y-89446232D01*
X134677552Y-89503333D01*
X134691357Y-89514663D01*
X134677552Y-89525992D01*
X134630691Y-89583093D01*
X134595869Y-89648240D01*
X134574426Y-89718927D01*
X134567186Y-89792440D01*
X134567186Y-90432706D01*
X134282818Y-90717075D01*
X134263736Y-90732735D01*
X134201254Y-90808870D01*
X134154824Y-90895732D01*
X134126234Y-90989982D01*
X134116580Y-91087999D01*
X134118999Y-91112559D01*
X134118999Y-91156745D01*
X133907744Y-91368000D01*
X133366109Y-91368000D01*
X130494029Y-88495922D01*
X130494029Y-81842589D01*
X130496448Y-81818029D01*
X130486794Y-81720012D01*
X130478121Y-81691422D01*
X130458204Y-81625762D01*
X130411775Y-81538900D01*
X130349293Y-81462765D01*
X130330216Y-81447109D01*
X129204929Y-80321824D01*
X129189264Y-80302736D01*
X129170181Y-80287075D01*
X128314929Y-79431824D01*
X128299264Y-79412736D01*
X128223129Y-79350254D01*
X128136267Y-79303825D01*
X128042017Y-79275235D01*
X127968560Y-79268000D01*
X127944000Y-79265581D01*
X127919440Y-79268000D01*
X127258594Y-79268000D01*
X127234287Y-79243693D01*
X127123732Y-79169823D01*
X127000890Y-79118940D01*
X126870482Y-79093000D01*
X126737518Y-79093000D01*
X126607110Y-79118940D01*
X126484268Y-79169823D01*
X126389034Y-79233456D01*
X126323732Y-79189823D01*
X126200890Y-79138940D01*
X126070482Y-79113000D01*
X125937518Y-79113000D01*
X125807110Y-79138940D01*
X125684268Y-79189823D01*
X125573713Y-79263693D01*
X125549406Y-79288000D01*
X124085767Y-79288000D01*
X123983732Y-79219823D01*
X123860890Y-79168940D01*
X123730482Y-79143000D01*
X123696106Y-79143000D01*
X123264926Y-78711821D01*
X123249264Y-78692736D01*
X123230179Y-78677073D01*
X122979929Y-78426824D01*
X122964264Y-78407736D01*
X122888129Y-78345254D01*
X122867142Y-78334036D01*
X121511105Y-76978000D01*
X130036895Y-76978000D01*
X130559000Y-77500106D01*
X130559000Y-77534482D01*
X130584940Y-77664890D01*
X130635823Y-77787732D01*
X130709693Y-77898287D01*
X130803713Y-77992307D01*
X130914268Y-78066177D01*
X131037110Y-78117060D01*
X131167518Y-78143000D01*
X131300482Y-78143000D01*
X131430890Y-78117060D01*
X131553732Y-78066177D01*
X131664287Y-77992307D01*
X131688594Y-77968000D01*
X132006895Y-77968000D01*
X133069000Y-79030107D01*
X133069000Y-79064482D01*
X133094940Y-79194890D01*
X133145823Y-79317732D01*
X133219693Y-79428287D01*
X133313713Y-79522307D01*
X133424268Y-79596177D01*
X133547110Y-79647060D01*
X133677518Y-79673000D01*
X133810482Y-79673000D01*
X133940890Y-79647060D01*
X134063732Y-79596177D01*
X134174287Y-79522307D01*
X134268307Y-79428287D01*
X134342177Y-79317732D01*
X134393060Y-79194890D01*
X134419000Y-79064482D01*
X134419000Y-78931518D01*
X134393060Y-78801110D01*
X134342177Y-78678268D01*
X134268307Y-78567713D01*
X134174287Y-78473693D01*
X134063732Y-78399823D01*
X133940890Y-78348940D01*
X133810482Y-78323000D01*
X133776107Y-78323000D01*
X132584929Y-77131824D01*
X132569264Y-77112736D01*
X132493129Y-77050254D01*
X132406267Y-77003825D01*
X132312017Y-76975235D01*
X132238560Y-76968000D01*
X132214000Y-76965581D01*
X132189440Y-76968000D01*
X131688594Y-76968000D01*
X131678594Y-76958000D01*
X131748307Y-76888287D01*
X131822177Y-76777732D01*
X131873060Y-76654890D01*
X131899000Y-76524482D01*
X131899000Y-76391518D01*
X131873060Y-76261110D01*
X131822177Y-76138268D01*
X131748307Y-76027713D01*
X131654287Y-75933693D01*
X131543732Y-75859823D01*
X131420890Y-75808940D01*
X131290482Y-75783000D01*
X131157518Y-75783000D01*
X131027110Y-75808940D01*
X130904268Y-75859823D01*
X130793713Y-75933693D01*
X130749406Y-75978000D01*
X130308560Y-75978000D01*
X130284000Y-75975581D01*
X130259440Y-75978000D01*
X120328560Y-75978000D01*
X120304000Y-75975581D01*
X120279440Y-75978000D01*
X117235598Y-75978000D01*
X117135712Y-75856288D01*
X117002476Y-75746944D01*
X116850468Y-75665695D01*
X116685530Y-75615661D01*
X116556979Y-75603000D01*
X116471021Y-75603000D01*
X116342470Y-75615661D01*
X116177532Y-75665695D01*
X116025524Y-75746944D01*
X115892288Y-75856288D01*
X115782944Y-75989524D01*
X115701695Y-76141532D01*
X115651661Y-76306470D01*
X115634767Y-76478000D01*
X115651661Y-76649530D01*
X115701695Y-76814468D01*
X115782944Y-76966476D01*
X115892288Y-77099712D01*
X115908479Y-77113000D01*
X115892288Y-77126288D01*
X115782944Y-77259524D01*
X115701695Y-77411532D01*
X115651661Y-77576470D01*
X115634767Y-77748000D01*
X115651661Y-77919530D01*
X115701695Y-78084468D01*
X115782944Y-78236476D01*
X115892288Y-78369712D01*
X115908479Y-78383000D01*
X115892288Y-78396288D01*
X115782944Y-78529524D01*
X115701695Y-78681532D01*
X115651661Y-78846470D01*
X115634767Y-79018000D01*
X115651661Y-79189530D01*
X115701695Y-79354468D01*
X115754833Y-79453884D01*
X115655187Y-79548984D01*
X115527514Y-79730730D01*
X115437751Y-79933892D01*
X115422406Y-79984501D01*
X115547824Y-80159000D01*
X116385000Y-80159000D01*
X116385000Y-80139000D01*
X116643000Y-80139000D01*
X116643000Y-80159000D01*
X117480176Y-80159000D01*
X117605594Y-79984501D01*
X117590249Y-79933892D01*
X117500486Y-79730730D01*
X117372813Y-79548984D01*
X117273167Y-79453884D01*
X117326305Y-79354468D01*
X117376339Y-79189530D01*
X117393233Y-79018000D01*
X117376339Y-78846470D01*
X117326305Y-78681532D01*
X117245056Y-78529524D01*
X117135712Y-78396288D01*
X117119521Y-78383000D01*
X117135712Y-78369712D01*
X117245056Y-78236476D01*
X117326305Y-78084468D01*
X117346567Y-78017673D01*
X120313079Y-80984186D01*
X120328736Y-81003264D01*
X120395432Y-81058000D01*
X117390814Y-81058000D01*
X117385924Y-81008352D01*
X117500486Y-80845270D01*
X117590249Y-80642108D01*
X117605594Y-80591499D01*
X117480176Y-80417000D01*
X116643000Y-80417000D01*
X116643000Y-80437000D01*
X116385000Y-80437000D01*
X116385000Y-80417000D01*
X115547824Y-80417000D01*
X115422406Y-80591499D01*
X115437751Y-80642108D01*
X115527514Y-80845270D01*
X115642076Y-81008352D01*
X115637186Y-81058000D01*
X115637186Y-81154768D01*
X115578736Y-81202736D01*
X115563080Y-81221813D01*
X115320271Y-81464622D01*
X115320814Y-81459110D01*
X115320814Y-80459110D01*
X115313574Y-80385597D01*
X115292131Y-80314910D01*
X115257309Y-80249763D01*
X115210448Y-80192662D01*
X115196643Y-80181333D01*
X115210448Y-80170003D01*
X115257309Y-80112902D01*
X115292131Y-80047755D01*
X115313574Y-79977068D01*
X115320814Y-79903555D01*
X115320814Y-78903555D01*
X115316630Y-78861067D01*
X115393764Y-78797764D01*
X115472867Y-78701378D01*
X115531646Y-78591411D01*
X115567841Y-78472090D01*
X115580063Y-78348000D01*
X115577000Y-78135250D01*
X115418750Y-77977000D01*
X114364000Y-77977000D01*
X114364000Y-77719000D01*
X115418750Y-77719000D01*
X115577000Y-77560750D01*
X115580063Y-77348000D01*
X115567841Y-77223910D01*
X115531646Y-77104589D01*
X115472867Y-76994622D01*
X115393764Y-76898236D01*
X115297378Y-76819133D01*
X115187411Y-76760354D01*
X115068090Y-76724159D01*
X114944000Y-76711937D01*
X114364000Y-76714430D01*
X114364000Y-74268000D01*
X116710515Y-74268000D01*
X116707937Y-74868000D01*
G36*
X129044021Y-84145128D02*
G01*
X129044021Y-84534505D01*
X127928821Y-83419306D01*
X127933472Y-83408077D01*
X127959412Y-83277669D01*
X127959412Y-83144705D01*
X127938508Y-83039614D01*
X129044021Y-84145128D01*
X129044021Y-84145128D01*
G37*
X129044021Y-84145128D02*
X129044021Y-84534505D01*
X127928821Y-83419306D01*
X127933472Y-83408077D01*
X127959412Y-83277669D01*
X127959412Y-83144705D01*
X127938508Y-83039614D01*
X129044021Y-84145128D01*
G36*
X127455986Y-82557091D02*
G01*
X127350894Y-82536187D01*
X127217930Y-82536187D01*
X127087522Y-82562127D01*
X126964680Y-82613010D01*
X126854125Y-82686880D01*
X126760105Y-82780900D01*
X126717608Y-82844502D01*
X126224929Y-82351824D01*
X126209264Y-82332736D01*
X126133129Y-82270254D01*
X126046267Y-82223825D01*
X125952017Y-82195235D01*
X125878560Y-82188000D01*
X125854000Y-82185581D01*
X125829440Y-82188000D01*
X124699645Y-82188000D01*
X124701764Y-82181016D01*
X124711418Y-82082999D01*
X124708956Y-82058000D01*
X126956895Y-82058000D01*
X127455986Y-82557091D01*
X127455986Y-82557091D01*
G37*
X127455986Y-82557091D02*
X127350894Y-82536187D01*
X127217930Y-82536187D01*
X127087522Y-82562127D01*
X126964680Y-82613010D01*
X126854125Y-82686880D01*
X126760105Y-82780900D01*
X126717608Y-82844502D01*
X126224929Y-82351824D01*
X126209264Y-82332736D01*
X126133129Y-82270254D01*
X126046267Y-82223825D01*
X125952017Y-82195235D01*
X125878560Y-82188000D01*
X125854000Y-82185581D01*
X125829440Y-82188000D01*
X124699645Y-82188000D01*
X124701764Y-82181016D01*
X124711418Y-82082999D01*
X124708956Y-82058000D01*
X126956895Y-82058000D01*
X127455986Y-82557091D01*
M02*
