G04 #@! TF.GenerationSoftware,KiCad,Pcbnew,5.1.4-e60b266~84~ubuntu18.04.1*
G04 #@! TF.CreationDate,2019-10-31T20:09:33+08:00*
G04 #@! TF.ProjectId,dap-stm32f103,6461702d-7374-46d3-9332-663130332e6b,rev?*
G04 #@! TF.SameCoordinates,Original*
G04 #@! TF.FileFunction,Copper,L2,Bot*
G04 #@! TF.FilePolarity,Positive*
%FSLAX46Y46*%
G04 Gerber Fmt 4.6, Leading zero omitted, Abs format (unit mm)*
G04 Created by KiCad (PCBNEW 5.1.4-e60b266~84~ubuntu18.04.1) date 2019-10-31 20:09:33*
%MOMM*%
%LPD*%
G04 APERTURE LIST*
%ADD10R,2.000000X1.350000*%
%ADD11C,1.350000*%
%ADD12C,0.100000*%
%ADD13O,1.000000X1.000000*%
%ADD14R,1.000000X1.000000*%
%ADD15R,1.350000X2.000000*%
%ADD16C,0.600000*%
%ADD17C,0.250000*%
G04 APERTURE END LIST*
D10*
X113964000Y-83958000D03*
X113964000Y-81958000D03*
X113964000Y-91958000D03*
X113964000Y-87958000D03*
X113964000Y-85958000D03*
X113964000Y-77958000D03*
X113964000Y-93958000D03*
D11*
X113964000Y-79958000D03*
D12*
G36*
X112964000Y-80633000D02*
G01*
X112964000Y-79283000D01*
X114964000Y-79283000D01*
X114964000Y-80633000D01*
X112964000Y-80633000D01*
X112964000Y-80633000D01*
G37*
D10*
X113964000Y-89958000D03*
X113964000Y-75958000D03*
D13*
X116514000Y-76478000D03*
X116514000Y-77748000D03*
X116514000Y-79018000D03*
X116514000Y-80288000D03*
D14*
X116514000Y-81558000D03*
D15*
X123964000Y-95868000D03*
X121964000Y-95868000D03*
X131964000Y-95868000D03*
X127964000Y-95868000D03*
X125964000Y-95868000D03*
X117964000Y-95868000D03*
X133964000Y-95868000D03*
D11*
X119964000Y-95868000D03*
D12*
G36*
X120639000Y-96868000D02*
G01*
X119289000Y-96868000D01*
X119289000Y-94868000D01*
X120639000Y-94868000D01*
X120639000Y-96868000D01*
X120639000Y-96868000D01*
G37*
D15*
X129964000Y-95868000D03*
X115964000Y-95868000D03*
X125964000Y-73868000D03*
X127964000Y-73868000D03*
X117964000Y-73868000D03*
X121964000Y-73868000D03*
X123964000Y-73868000D03*
X131964000Y-73868000D03*
X115964000Y-73868000D03*
D11*
X129964000Y-73868000D03*
D12*
G36*
X129289000Y-72868000D02*
G01*
X130639000Y-72868000D01*
X130639000Y-74868000D01*
X129289000Y-74868000D01*
X129289000Y-72868000D01*
X129289000Y-72868000D01*
G37*
D15*
X119964000Y-73868000D03*
X133964000Y-73868000D03*
D10*
X135964000Y-83868000D03*
X135964000Y-81868000D03*
X135964000Y-91868000D03*
X135964000Y-87868000D03*
X135964000Y-85868000D03*
X135964000Y-77868000D03*
X135964000Y-93868000D03*
D11*
X135964000Y-79868000D03*
D12*
G36*
X134964000Y-80543000D02*
G01*
X134964000Y-79193000D01*
X136964000Y-79193000D01*
X136964000Y-80543000D01*
X134964000Y-80543000D01*
X134964000Y-80543000D01*
G37*
D10*
X135964000Y-89868000D03*
X135964000Y-75868000D03*
D16*
X121184000Y-93588000D03*
X121184000Y-92848000D03*
X115594000Y-86088000D03*
X115590665Y-85505220D03*
X122719405Y-83499752D03*
X121184000Y-91738000D03*
X120879000Y-89778000D03*
X126754000Y-87418000D03*
X126444000Y-82218000D03*
X130524000Y-75728000D03*
X129134000Y-77328000D03*
X118084000Y-75658000D03*
X132949000Y-89669985D03*
X131914000Y-87128000D03*
X133468443Y-86653557D03*
X131284000Y-88928000D03*
X117682058Y-78529942D03*
X125557059Y-89200766D03*
X117877058Y-94031058D03*
X115864000Y-93738000D03*
X132854000Y-75738000D03*
X132854000Y-76598000D03*
X115804000Y-82778000D03*
X133854881Y-91202967D03*
X118910464Y-84908000D03*
X128360263Y-83638147D03*
X125504000Y-79163000D03*
X131444000Y-91078000D03*
X122154000Y-86448000D03*
X124879918Y-83669571D03*
X124144000Y-83338000D03*
X121432463Y-86102476D03*
X122821716Y-87080183D03*
X123664000Y-79818000D03*
X131224000Y-76458000D03*
X131234000Y-77468000D03*
X123054000Y-80648000D03*
X126804000Y-79768000D03*
X126804000Y-80658000D03*
X126004000Y-80658000D03*
X126004000Y-79788000D03*
X126904000Y-84878000D03*
X121214000Y-90648000D03*
X133744000Y-78998000D03*
X122776984Y-79834868D03*
X118854000Y-77748000D03*
X132124000Y-93398000D03*
X122834000Y-82708000D03*
X120254000Y-85048000D03*
X119535464Y-84163920D03*
X116254147Y-84838147D03*
X128004000Y-87508000D03*
X123373010Y-90128000D03*
X125894669Y-84463707D03*
X117531819Y-84889357D03*
X118156819Y-85397666D03*
X116879147Y-85377952D03*
X132114000Y-92008000D03*
X127284412Y-83211187D03*
D17*
X122394000Y-82098000D02*
X122518998Y-82098000D01*
X122518998Y-82098000D02*
X122533999Y-82082999D01*
X122409001Y-82082999D02*
X122394000Y-82098000D01*
X123269001Y-82082999D02*
X122409001Y-82082999D01*
X123269001Y-82082999D02*
X124208999Y-82082999D01*
X122533999Y-82082999D02*
X123269001Y-82082999D01*
X121184000Y-93588000D02*
X121184000Y-92848000D01*
X115594000Y-86088000D02*
X115594000Y-85508555D01*
X115594000Y-85508555D02*
X115590665Y-85505220D01*
X117877058Y-94031058D02*
X116127058Y-94031058D01*
X116127058Y-94031058D02*
X115864000Y-93768000D01*
X115864000Y-93768000D02*
X115864000Y-93738000D01*
X120435484Y-92099484D02*
X121184000Y-92848000D01*
X120879000Y-89778000D02*
X120435484Y-90221516D01*
X120435484Y-90221516D02*
X120435484Y-92099484D01*
X130524000Y-75728000D02*
X132844000Y-75728000D01*
X132844000Y-75728000D02*
X132854000Y-75738000D01*
X132949000Y-90094249D02*
X133844000Y-90989249D01*
X132949000Y-89669985D02*
X132949000Y-90094249D01*
X133844000Y-90989249D02*
X133844000Y-91192086D01*
X133844000Y-91192086D02*
X133854881Y-91202967D01*
X125557059Y-88614941D02*
X126754000Y-87418000D01*
X125557059Y-89200766D02*
X125557059Y-88614941D01*
X115594000Y-82988000D02*
X115804000Y-82778000D01*
X115594000Y-86088000D02*
X115594000Y-82988000D01*
X129134000Y-77328000D02*
X129134000Y-79278000D01*
X133468443Y-83612443D02*
X133468443Y-86653557D01*
X129134000Y-79278000D02*
X133468443Y-83612443D01*
X132388443Y-86653557D02*
X131914000Y-87128000D01*
X133468443Y-86653557D02*
X132388443Y-86653557D01*
X131914000Y-88298000D02*
X131284000Y-88928000D01*
X131914000Y-87128000D02*
X131914000Y-88298000D01*
X132207015Y-88928000D02*
X132949000Y-89669985D01*
X131284000Y-88928000D02*
X132207015Y-88928000D01*
X135483990Y-75738000D02*
X135613990Y-75868000D01*
X134444000Y-75738000D02*
X135483990Y-75738000D01*
X132854000Y-75738000D02*
X134444000Y-75738000D01*
X134444000Y-90613848D02*
X133854881Y-91202967D01*
X134444000Y-75738000D02*
X134444000Y-90613848D01*
X117682058Y-78954206D02*
X117682058Y-78529942D01*
X117682058Y-79827048D02*
X117682058Y-78954206D01*
X117221106Y-80288000D02*
X117682058Y-79827048D01*
X116514000Y-80288000D02*
X117221106Y-80288000D01*
X116014001Y-79739003D02*
X115614000Y-79339002D01*
X116514000Y-80288000D02*
X116014001Y-79788001D01*
X116014001Y-79788001D02*
X116014001Y-79739003D01*
X115614000Y-79339002D02*
X115614000Y-75948000D01*
X117784001Y-75358001D02*
X118084000Y-75658000D01*
X116203999Y-75358001D02*
X117784001Y-75358001D01*
X115614000Y-75948000D02*
X116203999Y-75358001D01*
X117877058Y-94031058D02*
X118910464Y-92997652D01*
X118910464Y-92997652D02*
X118910464Y-84908000D01*
X119154000Y-83328000D02*
X122547653Y-83328000D01*
X118910464Y-84908000D02*
X118910464Y-83571536D01*
X122547653Y-83328000D02*
X122719405Y-83499752D01*
X118910464Y-83571536D02*
X119154000Y-83328000D01*
X130454000Y-75658000D02*
X130524000Y-75728000D01*
X118084000Y-75658000D02*
X130454000Y-75658000D01*
X126444000Y-82218000D02*
X127154000Y-82218000D01*
X127257590Y-82288000D02*
X128484000Y-83514410D01*
X127154000Y-82218000D02*
X127224000Y-82288000D01*
X127224000Y-82288000D02*
X127257590Y-82288000D01*
X128484000Y-83514410D02*
X128360263Y-83638147D01*
X127339000Y-77328000D02*
X129134000Y-77328000D01*
X125504000Y-79163000D02*
X127339000Y-77328000D01*
X127164000Y-81558000D02*
X116514000Y-81558000D01*
X129544020Y-83938020D02*
X127164000Y-81558000D01*
X129544020Y-89178020D02*
X129544020Y-83938020D01*
X114714010Y-81558000D02*
X114314010Y-81958000D01*
X116514000Y-81558000D02*
X114714010Y-81558000D01*
X131444000Y-91078000D02*
X129544020Y-89178020D01*
X122154000Y-86398000D02*
X122154000Y-86448000D01*
X124579919Y-83969570D02*
X124579919Y-83972081D01*
X124879918Y-83669571D02*
X124579919Y-83969570D01*
X124579919Y-83972081D02*
X122154000Y-86398000D01*
X124144000Y-83368000D02*
X124144000Y-83338000D01*
X124144000Y-83390939D02*
X124144000Y-83338000D01*
X121432463Y-86102476D02*
X124144000Y-83390939D01*
X123364001Y-79518001D02*
X123344001Y-79518001D01*
X123664000Y-79818000D02*
X123364001Y-79518001D01*
X120304000Y-76478000D02*
X116514000Y-76478000D01*
X123344001Y-79518001D02*
X123054000Y-79228000D01*
X122894000Y-79048000D02*
X122874000Y-79048000D01*
X123664000Y-79818000D02*
X122894000Y-79048000D01*
X123054000Y-79228000D02*
X122874000Y-79048000D01*
X123664000Y-79818000D02*
X122609000Y-78763000D01*
X122609000Y-78763000D02*
X122589000Y-78763000D01*
X122874000Y-79048000D02*
X122589000Y-78763000D01*
X122589000Y-78763000D02*
X120304000Y-76478000D01*
X116514000Y-76478000D02*
X117221106Y-76478000D01*
X131204000Y-76478000D02*
X131224000Y-76458000D01*
X130284000Y-76518000D02*
X131234000Y-77468000D01*
X130284000Y-76478000D02*
X130284000Y-76518000D01*
X130284000Y-76478000D02*
X131204000Y-76478000D01*
X117221106Y-76478000D02*
X130284000Y-76478000D01*
X120684000Y-80648000D02*
X116514000Y-76478000D01*
X123054000Y-80648000D02*
X120684000Y-80648000D01*
X133994000Y-91868000D02*
X135613990Y-91868000D01*
X123478264Y-80648000D02*
X123488264Y-80658000D01*
X123054000Y-80648000D02*
X123478264Y-80648000D01*
X123488264Y-80658000D02*
X126844000Y-80658000D01*
X132963999Y-92898001D02*
X132963999Y-94018001D01*
X133994000Y-91868000D02*
X132963999Y-92898001D01*
X131964000Y-95018000D02*
X131964000Y-95517990D01*
X132963999Y-94018001D02*
X131964000Y-95018000D01*
X126004000Y-80658000D02*
X126004000Y-79788000D01*
X126784000Y-79788000D02*
X126804000Y-79768000D01*
X126004000Y-79788000D02*
X126784000Y-79788000D01*
X126804000Y-79768000D02*
X126804000Y-80658000D01*
X123694000Y-79788000D02*
X123664000Y-79818000D01*
X126004000Y-79788000D02*
X123694000Y-79788000D01*
X129994029Y-82047971D02*
X129994029Y-81818029D01*
X129994029Y-81828029D02*
X129994029Y-82047971D01*
X128834000Y-80658000D02*
X126804000Y-80658000D01*
X129994029Y-81818029D02*
X128834000Y-80658000D01*
X127944000Y-79768000D02*
X126804000Y-79768000D01*
X128834000Y-80658000D02*
X127944000Y-79768000D01*
X129994029Y-87357971D02*
X129994029Y-87868029D01*
X129994029Y-82047971D02*
X129994029Y-87357971D01*
X133159002Y-91868000D02*
X133994000Y-91868000D01*
X129994029Y-87357971D02*
X129994029Y-88703027D01*
X129994029Y-88703027D02*
X133159002Y-91868000D01*
X122521717Y-87380182D02*
X122821716Y-87080183D01*
X121513999Y-88387900D02*
X122521717Y-87380182D01*
X121513999Y-90348001D02*
X121513999Y-88387900D01*
X121214000Y-90648000D02*
X121513999Y-90348001D01*
X126904000Y-84453736D02*
X126904000Y-84878000D01*
X126288970Y-83838706D02*
X126904000Y-84453736D01*
X125594668Y-83838706D02*
X126288970Y-83838706D01*
X122821716Y-86611658D02*
X125594668Y-83838706D01*
X122821716Y-87080183D02*
X122821716Y-86611658D01*
X132214000Y-77468000D02*
X131234000Y-77468000D01*
X133744000Y-78998000D02*
X132214000Y-77468000D01*
X122352720Y-79834868D02*
X122345852Y-79828000D01*
X122776984Y-79834868D02*
X122352720Y-79834868D01*
X122345852Y-79828000D02*
X120934000Y-79828000D01*
X120934000Y-79828000D02*
X118854000Y-77748000D01*
X132124000Y-93398000D02*
X128644000Y-89918000D01*
X128644000Y-89918000D02*
X128644000Y-87018000D01*
X128644000Y-87018000D02*
X128644000Y-85478000D01*
X128644000Y-85478000D02*
X128644000Y-85458000D01*
X128644000Y-85478000D02*
X125854000Y-82688000D01*
X125854000Y-82688000D02*
X122854000Y-82688000D01*
X122854000Y-82688000D02*
X122834000Y-82708000D01*
X119985474Y-88116526D02*
X119985474Y-95517990D01*
X120254000Y-85048000D02*
X120254000Y-87848000D01*
X120254000Y-87848000D02*
X119985474Y-88116526D01*
X119535464Y-84163920D02*
X119535464Y-93256536D01*
X117964000Y-94828000D02*
X117964000Y-95517990D01*
X119535464Y-93256536D02*
X117964000Y-94828000D01*
X116254147Y-84838147D02*
X116254147Y-86497853D01*
X114794000Y-87958000D02*
X114314010Y-87958000D01*
X116254147Y-86497853D02*
X114794000Y-87958000D01*
X129964000Y-95258000D02*
X129964000Y-95517990D01*
X128004000Y-87508000D02*
X128004000Y-93298000D01*
X128004000Y-93298000D02*
X129964000Y-95258000D01*
X123373010Y-90128000D02*
X123373010Y-93820600D01*
X123630410Y-94078000D02*
X126564000Y-94078000D01*
X123373010Y-93820600D02*
X123630410Y-94078000D01*
X127964000Y-95478000D02*
X127964000Y-95517990D01*
X126564000Y-94078000D02*
X127964000Y-95478000D01*
X125894669Y-86167331D02*
X125894669Y-84463707D01*
X122464000Y-93548000D02*
X122464000Y-89598000D01*
X123444010Y-94528010D02*
X122464000Y-93548000D01*
X122464000Y-89598000D02*
X125894669Y-86167331D01*
X125873992Y-95517990D02*
X124884012Y-94528010D01*
X124884012Y-94528010D02*
X123444010Y-94528010D01*
X114474000Y-91958000D02*
X114314010Y-91958000D01*
X117531819Y-88900181D02*
X115439000Y-90993000D01*
X117531819Y-84889357D02*
X117531819Y-88900181D01*
X115439000Y-90993000D02*
X114474000Y-91958000D01*
X114514000Y-93958000D02*
X114314010Y-93958000D01*
X117981829Y-90490171D02*
X117014000Y-91458000D01*
X117014000Y-91458000D02*
X114514000Y-93958000D01*
X117981829Y-85572656D02*
X118156819Y-85397666D01*
X117981829Y-85715829D02*
X117981829Y-90490171D01*
X117981829Y-85715829D02*
X117981829Y-85572656D01*
X117981829Y-85500021D02*
X117981829Y-85715829D01*
X116879147Y-87392863D02*
X115574005Y-88698005D01*
X116879147Y-85377952D02*
X116879147Y-87392863D01*
X115574005Y-88698005D02*
X114314010Y-89958000D01*
X132114000Y-92008000D02*
X131370410Y-92008000D01*
X131370410Y-92008000D02*
X129094010Y-89731600D01*
X128800410Y-84978000D02*
X128780410Y-84978000D01*
X129094010Y-89731600D02*
X129094010Y-85271600D01*
X128902205Y-85079795D02*
X128800410Y-84978000D01*
X129094010Y-85271600D02*
X128902205Y-85079795D01*
X128810400Y-85007990D02*
X127284412Y-83482002D01*
X128902205Y-85079795D02*
X128830400Y-85007990D01*
X127284412Y-83482002D02*
X127284412Y-83211187D01*
X128830400Y-85007990D02*
X128810400Y-85007990D01*
G36*
X115644426Y-82131513D02*
G01*
X115665869Y-82202200D01*
X115700691Y-82267347D01*
X115747552Y-82324448D01*
X115804653Y-82371309D01*
X115869800Y-82406131D01*
X115940487Y-82427574D01*
X116014000Y-82434814D01*
X117014000Y-82434814D01*
X117087513Y-82427574D01*
X117158200Y-82406131D01*
X117223347Y-82371309D01*
X117280448Y-82324448D01*
X117327309Y-82267347D01*
X117362131Y-82202200D01*
X117383574Y-82131513D01*
X117390814Y-82058000D01*
X121895521Y-82058000D01*
X121891581Y-82098000D01*
X121901235Y-82196017D01*
X121929825Y-82290267D01*
X121976254Y-82377129D01*
X122038736Y-82453264D01*
X122114871Y-82515746D01*
X122177373Y-82549154D01*
X122159000Y-82641518D01*
X122159000Y-82774482D01*
X122184940Y-82904890D01*
X122235823Y-83027732D01*
X122309693Y-83138287D01*
X122403713Y-83232307D01*
X122514268Y-83306177D01*
X122637110Y-83357060D01*
X122767518Y-83383000D01*
X122900482Y-83383000D01*
X123030890Y-83357060D01*
X123153732Y-83306177D01*
X123264287Y-83232307D01*
X123308594Y-83188000D01*
X123485613Y-83188000D01*
X123469000Y-83271518D01*
X123469000Y-83358832D01*
X121400358Y-85427476D01*
X121365981Y-85427476D01*
X121235573Y-85453416D01*
X121112731Y-85504299D01*
X121002176Y-85578169D01*
X120908156Y-85672189D01*
X120834286Y-85782744D01*
X120783403Y-85905586D01*
X120757463Y-86035994D01*
X120757463Y-86168958D01*
X120783403Y-86299366D01*
X120834286Y-86422208D01*
X120908156Y-86532763D01*
X121002176Y-86626783D01*
X121112731Y-86700653D01*
X121235573Y-86751536D01*
X121365981Y-86777476D01*
X121498945Y-86777476D01*
X121555222Y-86766282D01*
X121555823Y-86767732D01*
X121629693Y-86878287D01*
X121723713Y-86972307D01*
X121834268Y-87046177D01*
X121957110Y-87097060D01*
X122074401Y-87120391D01*
X121177818Y-88016976D01*
X121158736Y-88032636D01*
X121096254Y-88108771D01*
X121075736Y-88147158D01*
X121049825Y-88195633D01*
X121021234Y-88289883D01*
X121011580Y-88387900D01*
X121014000Y-88412470D01*
X121013999Y-90000229D01*
X120894268Y-90049823D01*
X120783713Y-90123693D01*
X120689693Y-90217713D01*
X120615823Y-90328268D01*
X120564940Y-90451110D01*
X120539000Y-90581518D01*
X120539000Y-90714482D01*
X120564940Y-90844890D01*
X120615823Y-90967732D01*
X120689693Y-91078287D01*
X120783713Y-91172307D01*
X120894268Y-91246177D01*
X121017110Y-91297060D01*
X121147518Y-91323000D01*
X121280482Y-91323000D01*
X121410890Y-91297060D01*
X121533732Y-91246177D01*
X121644287Y-91172307D01*
X121738307Y-91078287D01*
X121812177Y-90967732D01*
X121863060Y-90844890D01*
X121889000Y-90714482D01*
X121889000Y-90679215D01*
X121931745Y-90627130D01*
X121964001Y-90566784D01*
X121964000Y-93523440D01*
X121961581Y-93548000D01*
X121971235Y-93646017D01*
X121975554Y-93660254D01*
X121999825Y-93740266D01*
X122046254Y-93827129D01*
X122108736Y-93903264D01*
X122127824Y-93918929D01*
X122706752Y-94497859D01*
X122639000Y-94491186D01*
X121289000Y-94491186D01*
X121215487Y-94498426D01*
X121144800Y-94519869D01*
X121079653Y-94554691D01*
X121022552Y-94601552D01*
X120975691Y-94658653D01*
X120964000Y-94680525D01*
X120952309Y-94658653D01*
X120905448Y-94601552D01*
X120848347Y-94554691D01*
X120783200Y-94519869D01*
X120712513Y-94498426D01*
X120639000Y-94491186D01*
X120485474Y-94491186D01*
X120485474Y-88323631D01*
X120590176Y-88218929D01*
X120609264Y-88203264D01*
X120671746Y-88127129D01*
X120718175Y-88040267D01*
X120746765Y-87946017D01*
X120754000Y-87872560D01*
X120754000Y-87872559D01*
X120756419Y-87848001D01*
X120754000Y-87823443D01*
X120754000Y-85502594D01*
X120778307Y-85478287D01*
X120852177Y-85367732D01*
X120903060Y-85244890D01*
X120929000Y-85114482D01*
X120929000Y-84981518D01*
X120903060Y-84851110D01*
X120852177Y-84728268D01*
X120778307Y-84617713D01*
X120684287Y-84523693D01*
X120573732Y-84449823D01*
X120450890Y-84398940D01*
X120320482Y-84373000D01*
X120187518Y-84373000D01*
X120178753Y-84374744D01*
X120184524Y-84360810D01*
X120210464Y-84230402D01*
X120210464Y-84097438D01*
X120184524Y-83967030D01*
X120133641Y-83844188D01*
X120059771Y-83733633D01*
X119965751Y-83639613D01*
X119855196Y-83565743D01*
X119732354Y-83514860D01*
X119601946Y-83488920D01*
X119468982Y-83488920D01*
X119338574Y-83514860D01*
X119215732Y-83565743D01*
X119105177Y-83639613D01*
X119011157Y-83733633D01*
X118937287Y-83844188D01*
X118886404Y-83967030D01*
X118860464Y-84097438D01*
X118860464Y-84230402D01*
X118886404Y-84360810D01*
X118937287Y-84483652D01*
X119011157Y-84594207D01*
X119035464Y-84618514D01*
X119035465Y-93049428D01*
X117627824Y-94457071D01*
X117608736Y-94472736D01*
X117593595Y-94491186D01*
X117289000Y-94491186D01*
X117215487Y-94498426D01*
X117144800Y-94519869D01*
X117079653Y-94554691D01*
X117022552Y-94601552D01*
X116975691Y-94658653D01*
X116964000Y-94680525D01*
X116952309Y-94658653D01*
X116905448Y-94601552D01*
X116848347Y-94554691D01*
X116783200Y-94519869D01*
X116712513Y-94498426D01*
X116639000Y-94491186D01*
X115340814Y-94491186D01*
X115340814Y-93838291D01*
X117384919Y-91794187D01*
X117384923Y-91794182D01*
X118318016Y-90861091D01*
X118337093Y-90845435D01*
X118399575Y-90769300D01*
X118446004Y-90682438D01*
X118474594Y-90588188D01*
X118481829Y-90514731D01*
X118484248Y-90490171D01*
X118481829Y-90465611D01*
X118481829Y-85992316D01*
X118587106Y-85921973D01*
X118681126Y-85827953D01*
X118754996Y-85717398D01*
X118805879Y-85594556D01*
X118831819Y-85464148D01*
X118831819Y-85331184D01*
X118805879Y-85200776D01*
X118754996Y-85077934D01*
X118681126Y-84967379D01*
X118587106Y-84873359D01*
X118476551Y-84799489D01*
X118353709Y-84748606D01*
X118223301Y-84722666D01*
X118186886Y-84722666D01*
X118180879Y-84692467D01*
X118129996Y-84569625D01*
X118056126Y-84459070D01*
X117962106Y-84365050D01*
X117851551Y-84291180D01*
X117728709Y-84240297D01*
X117598301Y-84214357D01*
X117465337Y-84214357D01*
X117334929Y-84240297D01*
X117212087Y-84291180D01*
X117101532Y-84365050D01*
X117007512Y-84459070D01*
X116933642Y-84569625D01*
X116903455Y-84642503D01*
X116903207Y-84641257D01*
X116852324Y-84518415D01*
X116778454Y-84407860D01*
X116684434Y-84313840D01*
X116573879Y-84239970D01*
X116451037Y-84189087D01*
X116320629Y-84163147D01*
X116187665Y-84163147D01*
X116057257Y-84189087D01*
X115934415Y-84239970D01*
X115823860Y-84313840D01*
X115729840Y-84407860D01*
X115655970Y-84518415D01*
X115605087Y-84641257D01*
X115579147Y-84771665D01*
X115579147Y-84904629D01*
X115605087Y-85035037D01*
X115655970Y-85157879D01*
X115729840Y-85268434D01*
X115754147Y-85292741D01*
X115754148Y-86290745D01*
X115331481Y-86713413D01*
X115333574Y-86706513D01*
X115340814Y-86633000D01*
X115340814Y-85283000D01*
X115333574Y-85209487D01*
X115312131Y-85138800D01*
X115277309Y-85073653D01*
X115230448Y-85016552D01*
X115173347Y-84969691D01*
X115151475Y-84958000D01*
X115173347Y-84946309D01*
X115230448Y-84899448D01*
X115277309Y-84842347D01*
X115312131Y-84777200D01*
X115333574Y-84706513D01*
X115340814Y-84633000D01*
X115340814Y-83283000D01*
X115333574Y-83209487D01*
X115312131Y-83138800D01*
X115277309Y-83073653D01*
X115230448Y-83016552D01*
X115173347Y-82969691D01*
X115151475Y-82958000D01*
X115173347Y-82946309D01*
X115230448Y-82899448D01*
X115277309Y-82842347D01*
X115312131Y-82777200D01*
X115333574Y-82706513D01*
X115340814Y-82633000D01*
X115340814Y-82058000D01*
X115637186Y-82058000D01*
X115644426Y-82131513D01*
X115644426Y-82131513D01*
G37*
X115644426Y-82131513D02*
X115665869Y-82202200D01*
X115700691Y-82267347D01*
X115747552Y-82324448D01*
X115804653Y-82371309D01*
X115869800Y-82406131D01*
X115940487Y-82427574D01*
X116014000Y-82434814D01*
X117014000Y-82434814D01*
X117087513Y-82427574D01*
X117158200Y-82406131D01*
X117223347Y-82371309D01*
X117280448Y-82324448D01*
X117327309Y-82267347D01*
X117362131Y-82202200D01*
X117383574Y-82131513D01*
X117390814Y-82058000D01*
X121895521Y-82058000D01*
X121891581Y-82098000D01*
X121901235Y-82196017D01*
X121929825Y-82290267D01*
X121976254Y-82377129D01*
X122038736Y-82453264D01*
X122114871Y-82515746D01*
X122177373Y-82549154D01*
X122159000Y-82641518D01*
X122159000Y-82774482D01*
X122184940Y-82904890D01*
X122235823Y-83027732D01*
X122309693Y-83138287D01*
X122403713Y-83232307D01*
X122514268Y-83306177D01*
X122637110Y-83357060D01*
X122767518Y-83383000D01*
X122900482Y-83383000D01*
X123030890Y-83357060D01*
X123153732Y-83306177D01*
X123264287Y-83232307D01*
X123308594Y-83188000D01*
X123485613Y-83188000D01*
X123469000Y-83271518D01*
X123469000Y-83358832D01*
X121400358Y-85427476D01*
X121365981Y-85427476D01*
X121235573Y-85453416D01*
X121112731Y-85504299D01*
X121002176Y-85578169D01*
X120908156Y-85672189D01*
X120834286Y-85782744D01*
X120783403Y-85905586D01*
X120757463Y-86035994D01*
X120757463Y-86168958D01*
X120783403Y-86299366D01*
X120834286Y-86422208D01*
X120908156Y-86532763D01*
X121002176Y-86626783D01*
X121112731Y-86700653D01*
X121235573Y-86751536D01*
X121365981Y-86777476D01*
X121498945Y-86777476D01*
X121555222Y-86766282D01*
X121555823Y-86767732D01*
X121629693Y-86878287D01*
X121723713Y-86972307D01*
X121834268Y-87046177D01*
X121957110Y-87097060D01*
X122074401Y-87120391D01*
X121177818Y-88016976D01*
X121158736Y-88032636D01*
X121096254Y-88108771D01*
X121075736Y-88147158D01*
X121049825Y-88195633D01*
X121021234Y-88289883D01*
X121011580Y-88387900D01*
X121014000Y-88412470D01*
X121013999Y-90000229D01*
X120894268Y-90049823D01*
X120783713Y-90123693D01*
X120689693Y-90217713D01*
X120615823Y-90328268D01*
X120564940Y-90451110D01*
X120539000Y-90581518D01*
X120539000Y-90714482D01*
X120564940Y-90844890D01*
X120615823Y-90967732D01*
X120689693Y-91078287D01*
X120783713Y-91172307D01*
X120894268Y-91246177D01*
X121017110Y-91297060D01*
X121147518Y-91323000D01*
X121280482Y-91323000D01*
X121410890Y-91297060D01*
X121533732Y-91246177D01*
X121644287Y-91172307D01*
X121738307Y-91078287D01*
X121812177Y-90967732D01*
X121863060Y-90844890D01*
X121889000Y-90714482D01*
X121889000Y-90679215D01*
X121931745Y-90627130D01*
X121964001Y-90566784D01*
X121964000Y-93523440D01*
X121961581Y-93548000D01*
X121971235Y-93646017D01*
X121975554Y-93660254D01*
X121999825Y-93740266D01*
X122046254Y-93827129D01*
X122108736Y-93903264D01*
X122127824Y-93918929D01*
X122706752Y-94497859D01*
X122639000Y-94491186D01*
X121289000Y-94491186D01*
X121215487Y-94498426D01*
X121144800Y-94519869D01*
X121079653Y-94554691D01*
X121022552Y-94601552D01*
X120975691Y-94658653D01*
X120964000Y-94680525D01*
X120952309Y-94658653D01*
X120905448Y-94601552D01*
X120848347Y-94554691D01*
X120783200Y-94519869D01*
X120712513Y-94498426D01*
X120639000Y-94491186D01*
X120485474Y-94491186D01*
X120485474Y-88323631D01*
X120590176Y-88218929D01*
X120609264Y-88203264D01*
X120671746Y-88127129D01*
X120718175Y-88040267D01*
X120746765Y-87946017D01*
X120754000Y-87872560D01*
X120754000Y-87872559D01*
X120756419Y-87848001D01*
X120754000Y-87823443D01*
X120754000Y-85502594D01*
X120778307Y-85478287D01*
X120852177Y-85367732D01*
X120903060Y-85244890D01*
X120929000Y-85114482D01*
X120929000Y-84981518D01*
X120903060Y-84851110D01*
X120852177Y-84728268D01*
X120778307Y-84617713D01*
X120684287Y-84523693D01*
X120573732Y-84449823D01*
X120450890Y-84398940D01*
X120320482Y-84373000D01*
X120187518Y-84373000D01*
X120178753Y-84374744D01*
X120184524Y-84360810D01*
X120210464Y-84230402D01*
X120210464Y-84097438D01*
X120184524Y-83967030D01*
X120133641Y-83844188D01*
X120059771Y-83733633D01*
X119965751Y-83639613D01*
X119855196Y-83565743D01*
X119732354Y-83514860D01*
X119601946Y-83488920D01*
X119468982Y-83488920D01*
X119338574Y-83514860D01*
X119215732Y-83565743D01*
X119105177Y-83639613D01*
X119011157Y-83733633D01*
X118937287Y-83844188D01*
X118886404Y-83967030D01*
X118860464Y-84097438D01*
X118860464Y-84230402D01*
X118886404Y-84360810D01*
X118937287Y-84483652D01*
X119011157Y-84594207D01*
X119035464Y-84618514D01*
X119035465Y-93049428D01*
X117627824Y-94457071D01*
X117608736Y-94472736D01*
X117593595Y-94491186D01*
X117289000Y-94491186D01*
X117215487Y-94498426D01*
X117144800Y-94519869D01*
X117079653Y-94554691D01*
X117022552Y-94601552D01*
X116975691Y-94658653D01*
X116964000Y-94680525D01*
X116952309Y-94658653D01*
X116905448Y-94601552D01*
X116848347Y-94554691D01*
X116783200Y-94519869D01*
X116712513Y-94498426D01*
X116639000Y-94491186D01*
X115340814Y-94491186D01*
X115340814Y-93838291D01*
X117384919Y-91794187D01*
X117384923Y-91794182D01*
X118318016Y-90861091D01*
X118337093Y-90845435D01*
X118399575Y-90769300D01*
X118446004Y-90682438D01*
X118474594Y-90588188D01*
X118481829Y-90514731D01*
X118484248Y-90490171D01*
X118481829Y-90465611D01*
X118481829Y-85992316D01*
X118587106Y-85921973D01*
X118681126Y-85827953D01*
X118754996Y-85717398D01*
X118805879Y-85594556D01*
X118831819Y-85464148D01*
X118831819Y-85331184D01*
X118805879Y-85200776D01*
X118754996Y-85077934D01*
X118681126Y-84967379D01*
X118587106Y-84873359D01*
X118476551Y-84799489D01*
X118353709Y-84748606D01*
X118223301Y-84722666D01*
X118186886Y-84722666D01*
X118180879Y-84692467D01*
X118129996Y-84569625D01*
X118056126Y-84459070D01*
X117962106Y-84365050D01*
X117851551Y-84291180D01*
X117728709Y-84240297D01*
X117598301Y-84214357D01*
X117465337Y-84214357D01*
X117334929Y-84240297D01*
X117212087Y-84291180D01*
X117101532Y-84365050D01*
X117007512Y-84459070D01*
X116933642Y-84569625D01*
X116903455Y-84642503D01*
X116903207Y-84641257D01*
X116852324Y-84518415D01*
X116778454Y-84407860D01*
X116684434Y-84313840D01*
X116573879Y-84239970D01*
X116451037Y-84189087D01*
X116320629Y-84163147D01*
X116187665Y-84163147D01*
X116057257Y-84189087D01*
X115934415Y-84239970D01*
X115823860Y-84313840D01*
X115729840Y-84407860D01*
X115655970Y-84518415D01*
X115605087Y-84641257D01*
X115579147Y-84771665D01*
X115579147Y-84904629D01*
X115605087Y-85035037D01*
X115655970Y-85157879D01*
X115729840Y-85268434D01*
X115754147Y-85292741D01*
X115754148Y-86290745D01*
X115331481Y-86713413D01*
X115333574Y-86706513D01*
X115340814Y-86633000D01*
X115340814Y-85283000D01*
X115333574Y-85209487D01*
X115312131Y-85138800D01*
X115277309Y-85073653D01*
X115230448Y-85016552D01*
X115173347Y-84969691D01*
X115151475Y-84958000D01*
X115173347Y-84946309D01*
X115230448Y-84899448D01*
X115277309Y-84842347D01*
X115312131Y-84777200D01*
X115333574Y-84706513D01*
X115340814Y-84633000D01*
X115340814Y-83283000D01*
X115333574Y-83209487D01*
X115312131Y-83138800D01*
X115277309Y-83073653D01*
X115230448Y-83016552D01*
X115173347Y-82969691D01*
X115151475Y-82958000D01*
X115173347Y-82946309D01*
X115230448Y-82899448D01*
X115277309Y-82842347D01*
X115312131Y-82777200D01*
X115333574Y-82706513D01*
X115340814Y-82633000D01*
X115340814Y-82058000D01*
X115637186Y-82058000D01*
X115644426Y-82131513D01*
G36*
X128144001Y-85685108D02*
G01*
X128144000Y-86847624D01*
X128070482Y-86833000D01*
X127937518Y-86833000D01*
X127807110Y-86858940D01*
X127684268Y-86909823D01*
X127573713Y-86983693D01*
X127479693Y-87077713D01*
X127405823Y-87188268D01*
X127354940Y-87311110D01*
X127329000Y-87441518D01*
X127329000Y-87574482D01*
X127354940Y-87704890D01*
X127405823Y-87827732D01*
X127479693Y-87938287D01*
X127504000Y-87962594D01*
X127504001Y-93273430D01*
X127501581Y-93298000D01*
X127511235Y-93396017D01*
X127539826Y-93490267D01*
X127586255Y-93577129D01*
X127648737Y-93653264D01*
X127667819Y-93668924D01*
X128490080Y-94491186D01*
X127684292Y-94491186D01*
X126934929Y-93741824D01*
X126919264Y-93722736D01*
X126843129Y-93660254D01*
X126756267Y-93613825D01*
X126662017Y-93585235D01*
X126588560Y-93578000D01*
X126564000Y-93575581D01*
X126539440Y-93578000D01*
X123873010Y-93578000D01*
X123873010Y-90582594D01*
X123897317Y-90558287D01*
X123971187Y-90447732D01*
X124022070Y-90324890D01*
X124048010Y-90194482D01*
X124048010Y-90061518D01*
X124022070Y-89931110D01*
X123971187Y-89808268D01*
X123897317Y-89697713D01*
X123803297Y-89603693D01*
X123692742Y-89529823D01*
X123569900Y-89478940D01*
X123439492Y-89453000D01*
X123316105Y-89453000D01*
X126230856Y-86538251D01*
X126249933Y-86522595D01*
X126312415Y-86446460D01*
X126358844Y-86359598D01*
X126387434Y-86265348D01*
X126394669Y-86191891D01*
X126394669Y-86191890D01*
X126397088Y-86167331D01*
X126394669Y-86142771D01*
X126394669Y-85323263D01*
X126473713Y-85402307D01*
X126584268Y-85476177D01*
X126707110Y-85527060D01*
X126837518Y-85553000D01*
X126970482Y-85553000D01*
X127100890Y-85527060D01*
X127223732Y-85476177D01*
X127334287Y-85402307D01*
X127428307Y-85308287D01*
X127502177Y-85197732D01*
X127547414Y-85088521D01*
X128144001Y-85685108D01*
X128144001Y-85685108D01*
G37*
X128144001Y-85685108D02*
X128144000Y-86847624D01*
X128070482Y-86833000D01*
X127937518Y-86833000D01*
X127807110Y-86858940D01*
X127684268Y-86909823D01*
X127573713Y-86983693D01*
X127479693Y-87077713D01*
X127405823Y-87188268D01*
X127354940Y-87311110D01*
X127329000Y-87441518D01*
X127329000Y-87574482D01*
X127354940Y-87704890D01*
X127405823Y-87827732D01*
X127479693Y-87938287D01*
X127504000Y-87962594D01*
X127504001Y-93273430D01*
X127501581Y-93298000D01*
X127511235Y-93396017D01*
X127539826Y-93490267D01*
X127586255Y-93577129D01*
X127648737Y-93653264D01*
X127667819Y-93668924D01*
X128490080Y-94491186D01*
X127684292Y-94491186D01*
X126934929Y-93741824D01*
X126919264Y-93722736D01*
X126843129Y-93660254D01*
X126756267Y-93613825D01*
X126662017Y-93585235D01*
X126588560Y-93578000D01*
X126564000Y-93575581D01*
X126539440Y-93578000D01*
X123873010Y-93578000D01*
X123873010Y-90582594D01*
X123897317Y-90558287D01*
X123971187Y-90447732D01*
X124022070Y-90324890D01*
X124048010Y-90194482D01*
X124048010Y-90061518D01*
X124022070Y-89931110D01*
X123971187Y-89808268D01*
X123897317Y-89697713D01*
X123803297Y-89603693D01*
X123692742Y-89529823D01*
X123569900Y-89478940D01*
X123439492Y-89453000D01*
X123316105Y-89453000D01*
X126230856Y-86538251D01*
X126249933Y-86522595D01*
X126312415Y-86446460D01*
X126358844Y-86359598D01*
X126387434Y-86265348D01*
X126394669Y-86191891D01*
X126394669Y-86191890D01*
X126397088Y-86167331D01*
X126394669Y-86142771D01*
X126394669Y-85323263D01*
X126473713Y-85402307D01*
X126584268Y-85476177D01*
X126707110Y-85527060D01*
X126837518Y-85553000D01*
X126970482Y-85553000D01*
X127100890Y-85527060D01*
X127223732Y-85476177D01*
X127334287Y-85402307D01*
X127428307Y-85308287D01*
X127502177Y-85197732D01*
X127547414Y-85088521D01*
X128144001Y-85685108D01*
G36*
X116093000Y-75342750D02*
G01*
X116251250Y-75501000D01*
X116639000Y-75504063D01*
X116763090Y-75491841D01*
X116882411Y-75455646D01*
X116992378Y-75396867D01*
X117088764Y-75317764D01*
X117166717Y-75222779D01*
X117215487Y-75237574D01*
X117289000Y-75244814D01*
X118639000Y-75244814D01*
X118712513Y-75237574D01*
X118783200Y-75216131D01*
X118848347Y-75181309D01*
X118905448Y-75134448D01*
X118952309Y-75077347D01*
X118964000Y-75055475D01*
X118975691Y-75077347D01*
X119022552Y-75134448D01*
X119079653Y-75181309D01*
X119144800Y-75216131D01*
X119215487Y-75237574D01*
X119289000Y-75244814D01*
X120639000Y-75244814D01*
X120712513Y-75237574D01*
X120783200Y-75216131D01*
X120848347Y-75181309D01*
X120905448Y-75134448D01*
X120952309Y-75077347D01*
X120964000Y-75055475D01*
X120975691Y-75077347D01*
X121022552Y-75134448D01*
X121079653Y-75181309D01*
X121144800Y-75216131D01*
X121215487Y-75237574D01*
X121289000Y-75244814D01*
X122639000Y-75244814D01*
X122712513Y-75237574D01*
X122783200Y-75216131D01*
X122848347Y-75181309D01*
X122905448Y-75134448D01*
X122952309Y-75077347D01*
X122964000Y-75055475D01*
X122975691Y-75077347D01*
X123022552Y-75134448D01*
X123079653Y-75181309D01*
X123144800Y-75216131D01*
X123215487Y-75237574D01*
X123289000Y-75244814D01*
X124639000Y-75244814D01*
X124712513Y-75237574D01*
X124783200Y-75216131D01*
X124848347Y-75181309D01*
X124905448Y-75134448D01*
X124952309Y-75077347D01*
X124964000Y-75055475D01*
X124975691Y-75077347D01*
X125022552Y-75134448D01*
X125079653Y-75181309D01*
X125144800Y-75216131D01*
X125215487Y-75237574D01*
X125289000Y-75244814D01*
X126639000Y-75244814D01*
X126712513Y-75237574D01*
X126783200Y-75216131D01*
X126848347Y-75181309D01*
X126905448Y-75134448D01*
X126952309Y-75077347D01*
X126964000Y-75055475D01*
X126975691Y-75077347D01*
X127022552Y-75134448D01*
X127079653Y-75181309D01*
X127144800Y-75216131D01*
X127215487Y-75237574D01*
X127289000Y-75244814D01*
X128639000Y-75244814D01*
X128712513Y-75237574D01*
X128783200Y-75216131D01*
X128848347Y-75181309D01*
X128905448Y-75134448D01*
X128952309Y-75077347D01*
X128964000Y-75055475D01*
X128975691Y-75077347D01*
X129022552Y-75134448D01*
X129079653Y-75181309D01*
X129144800Y-75216131D01*
X129215487Y-75237574D01*
X129289000Y-75244814D01*
X130639000Y-75244814D01*
X130712513Y-75237574D01*
X130783200Y-75216131D01*
X130848347Y-75181309D01*
X130905448Y-75134448D01*
X130952309Y-75077347D01*
X130964000Y-75055475D01*
X130975691Y-75077347D01*
X131022552Y-75134448D01*
X131079653Y-75181309D01*
X131144800Y-75216131D01*
X131215487Y-75237574D01*
X131289000Y-75244814D01*
X132639000Y-75244814D01*
X132712513Y-75237574D01*
X132783200Y-75216131D01*
X132848347Y-75181309D01*
X132905448Y-75134448D01*
X132952309Y-75077347D01*
X132964000Y-75055475D01*
X132975691Y-75077347D01*
X133022552Y-75134448D01*
X133079653Y-75181309D01*
X133144800Y-75216131D01*
X133215487Y-75237574D01*
X133289000Y-75244814D01*
X134328346Y-75244814D01*
X134331000Y-75580750D01*
X134489250Y-75739000D01*
X135564001Y-75739000D01*
X135564001Y-75997000D01*
X134489250Y-75997000D01*
X134331000Y-76155250D01*
X134327937Y-76543000D01*
X134340159Y-76667090D01*
X134376354Y-76786411D01*
X134435133Y-76896378D01*
X134514236Y-76992764D01*
X134609221Y-77070717D01*
X134594426Y-77119487D01*
X134587186Y-77193000D01*
X134587186Y-78543000D01*
X134594426Y-78616513D01*
X134615869Y-78687200D01*
X134650691Y-78752347D01*
X134697552Y-78809448D01*
X134754653Y-78856309D01*
X134776525Y-78868000D01*
X134754653Y-78879691D01*
X134697552Y-78926552D01*
X134650691Y-78983653D01*
X134615869Y-79048800D01*
X134594426Y-79119487D01*
X134587186Y-79193000D01*
X134587186Y-80543000D01*
X134594426Y-80616513D01*
X134615869Y-80687200D01*
X134650691Y-80752347D01*
X134697552Y-80809448D01*
X134754653Y-80856309D01*
X134776525Y-80868000D01*
X134754653Y-80879691D01*
X134697552Y-80926552D01*
X134650691Y-80983653D01*
X134615869Y-81048800D01*
X134594426Y-81119487D01*
X134587186Y-81193000D01*
X134587186Y-82543000D01*
X134594426Y-82616513D01*
X134615869Y-82687200D01*
X134650691Y-82752347D01*
X134697552Y-82809448D01*
X134754653Y-82856309D01*
X134776525Y-82868000D01*
X134754653Y-82879691D01*
X134697552Y-82926552D01*
X134650691Y-82983653D01*
X134615869Y-83048800D01*
X134594426Y-83119487D01*
X134587186Y-83193000D01*
X134587186Y-84543000D01*
X134594426Y-84616513D01*
X134615869Y-84687200D01*
X134650691Y-84752347D01*
X134697552Y-84809448D01*
X134754653Y-84856309D01*
X134776525Y-84868000D01*
X134754653Y-84879691D01*
X134697552Y-84926552D01*
X134650691Y-84983653D01*
X134615869Y-85048800D01*
X134594426Y-85119487D01*
X134587186Y-85193000D01*
X134587186Y-86543000D01*
X134594426Y-86616513D01*
X134615869Y-86687200D01*
X134650691Y-86752347D01*
X134697552Y-86809448D01*
X134754653Y-86856309D01*
X134776525Y-86868000D01*
X134754653Y-86879691D01*
X134697552Y-86926552D01*
X134650691Y-86983653D01*
X134615869Y-87048800D01*
X134594426Y-87119487D01*
X134587186Y-87193000D01*
X134587186Y-88543000D01*
X134594426Y-88616513D01*
X134615869Y-88687200D01*
X134650691Y-88752347D01*
X134697552Y-88809448D01*
X134754653Y-88856309D01*
X134776525Y-88868000D01*
X134754653Y-88879691D01*
X134697552Y-88926552D01*
X134650691Y-88983653D01*
X134615869Y-89048800D01*
X134594426Y-89119487D01*
X134587186Y-89193000D01*
X134587186Y-90543000D01*
X134594426Y-90616513D01*
X134615869Y-90687200D01*
X134650691Y-90752347D01*
X134697552Y-90809448D01*
X134754653Y-90856309D01*
X134776525Y-90868000D01*
X134754653Y-90879691D01*
X134697552Y-90926552D01*
X134650691Y-90983653D01*
X134615869Y-91048800D01*
X134594426Y-91119487D01*
X134587186Y-91193000D01*
X134587186Y-91368000D01*
X134018549Y-91368000D01*
X133993999Y-91365582D01*
X133969449Y-91368000D01*
X133366109Y-91368000D01*
X130494029Y-88495922D01*
X130494029Y-81842589D01*
X130496448Y-81818029D01*
X130486794Y-81720012D01*
X130478121Y-81691422D01*
X130458204Y-81625762D01*
X130411775Y-81538900D01*
X130349293Y-81462765D01*
X130330216Y-81447109D01*
X129204929Y-80321824D01*
X129189264Y-80302736D01*
X129170181Y-80287075D01*
X128314929Y-79431824D01*
X128299264Y-79412736D01*
X128223129Y-79350254D01*
X128136267Y-79303825D01*
X128042017Y-79275235D01*
X127968560Y-79268000D01*
X127944000Y-79265581D01*
X127919440Y-79268000D01*
X127258594Y-79268000D01*
X127234287Y-79243693D01*
X127123732Y-79169823D01*
X127000890Y-79118940D01*
X126870482Y-79093000D01*
X126737518Y-79093000D01*
X126607110Y-79118940D01*
X126484268Y-79169823D01*
X126389034Y-79233456D01*
X126323732Y-79189823D01*
X126200890Y-79138940D01*
X126070482Y-79113000D01*
X125937518Y-79113000D01*
X125807110Y-79138940D01*
X125684268Y-79189823D01*
X125573713Y-79263693D01*
X125549406Y-79288000D01*
X124085767Y-79288000D01*
X123983732Y-79219823D01*
X123860890Y-79168940D01*
X123730482Y-79143000D01*
X123696106Y-79143000D01*
X123264926Y-78711821D01*
X123249264Y-78692736D01*
X123230179Y-78677073D01*
X122979929Y-78426824D01*
X122964264Y-78407736D01*
X122888129Y-78345254D01*
X122867142Y-78334036D01*
X121511105Y-76978000D01*
X130036895Y-76978000D01*
X130559000Y-77500106D01*
X130559000Y-77534482D01*
X130584940Y-77664890D01*
X130635823Y-77787732D01*
X130709693Y-77898287D01*
X130803713Y-77992307D01*
X130914268Y-78066177D01*
X131037110Y-78117060D01*
X131167518Y-78143000D01*
X131300482Y-78143000D01*
X131430890Y-78117060D01*
X131553732Y-78066177D01*
X131664287Y-77992307D01*
X131688594Y-77968000D01*
X132006895Y-77968000D01*
X133069000Y-79030107D01*
X133069000Y-79064482D01*
X133094940Y-79194890D01*
X133145823Y-79317732D01*
X133219693Y-79428287D01*
X133313713Y-79522307D01*
X133424268Y-79596177D01*
X133547110Y-79647060D01*
X133677518Y-79673000D01*
X133810482Y-79673000D01*
X133940890Y-79647060D01*
X134063732Y-79596177D01*
X134174287Y-79522307D01*
X134268307Y-79428287D01*
X134342177Y-79317732D01*
X134393060Y-79194890D01*
X134419000Y-79064482D01*
X134419000Y-78931518D01*
X134393060Y-78801110D01*
X134342177Y-78678268D01*
X134268307Y-78567713D01*
X134174287Y-78473693D01*
X134063732Y-78399823D01*
X133940890Y-78348940D01*
X133810482Y-78323000D01*
X133776107Y-78323000D01*
X132584929Y-77131824D01*
X132569264Y-77112736D01*
X132493129Y-77050254D01*
X132406267Y-77003825D01*
X132312017Y-76975235D01*
X132238560Y-76968000D01*
X132214000Y-76965581D01*
X132189440Y-76968000D01*
X131688594Y-76968000D01*
X131678594Y-76958000D01*
X131748307Y-76888287D01*
X131822177Y-76777732D01*
X131873060Y-76654890D01*
X131899000Y-76524482D01*
X131899000Y-76391518D01*
X131873060Y-76261110D01*
X131822177Y-76138268D01*
X131748307Y-76027713D01*
X131654287Y-75933693D01*
X131543732Y-75859823D01*
X131420890Y-75808940D01*
X131290482Y-75783000D01*
X131157518Y-75783000D01*
X131027110Y-75808940D01*
X130904268Y-75859823D01*
X130793713Y-75933693D01*
X130749406Y-75978000D01*
X130308560Y-75978000D01*
X130284000Y-75975581D01*
X130259440Y-75978000D01*
X120328560Y-75978000D01*
X120304000Y-75975581D01*
X120279440Y-75978000D01*
X117235598Y-75978000D01*
X117135712Y-75856288D01*
X117002476Y-75746944D01*
X116850468Y-75665695D01*
X116685530Y-75615661D01*
X116556979Y-75603000D01*
X116471021Y-75603000D01*
X116342470Y-75615661D01*
X116177532Y-75665695D01*
X116025524Y-75746944D01*
X115892288Y-75856288D01*
X115782944Y-75989524D01*
X115701695Y-76141532D01*
X115651661Y-76306470D01*
X115634767Y-76478000D01*
X115651661Y-76649530D01*
X115701695Y-76814468D01*
X115782944Y-76966476D01*
X115892288Y-77099712D01*
X115908479Y-77113000D01*
X115892288Y-77126288D01*
X115782944Y-77259524D01*
X115701695Y-77411532D01*
X115651661Y-77576470D01*
X115634767Y-77748000D01*
X115651661Y-77919530D01*
X115701695Y-78084468D01*
X115782944Y-78236476D01*
X115892288Y-78369712D01*
X115908479Y-78383000D01*
X115892288Y-78396288D01*
X115782944Y-78529524D01*
X115701695Y-78681532D01*
X115651661Y-78846470D01*
X115634767Y-79018000D01*
X115651661Y-79189530D01*
X115701695Y-79354468D01*
X115754833Y-79453884D01*
X115655187Y-79548984D01*
X115527514Y-79730730D01*
X115437751Y-79933892D01*
X115422406Y-79984501D01*
X115547824Y-80159000D01*
X116385000Y-80159000D01*
X116385000Y-80139000D01*
X116643000Y-80139000D01*
X116643000Y-80159000D01*
X117480176Y-80159000D01*
X117605594Y-79984501D01*
X117590249Y-79933892D01*
X117500486Y-79730730D01*
X117372813Y-79548984D01*
X117273167Y-79453884D01*
X117326305Y-79354468D01*
X117376339Y-79189530D01*
X117393233Y-79018000D01*
X117376339Y-78846470D01*
X117326305Y-78681532D01*
X117245056Y-78529524D01*
X117135712Y-78396288D01*
X117119521Y-78383000D01*
X117135712Y-78369712D01*
X117245056Y-78236476D01*
X117326305Y-78084468D01*
X117346567Y-78017673D01*
X120313079Y-80984186D01*
X120328736Y-81003264D01*
X120395432Y-81058000D01*
X117390814Y-81058000D01*
X117385924Y-81008352D01*
X117500486Y-80845270D01*
X117590249Y-80642108D01*
X117605594Y-80591499D01*
X117480176Y-80417000D01*
X116643000Y-80417000D01*
X116643000Y-80437000D01*
X116385000Y-80437000D01*
X116385000Y-80417000D01*
X115547824Y-80417000D01*
X115422406Y-80591499D01*
X115437751Y-80642108D01*
X115527514Y-80845270D01*
X115642076Y-81008352D01*
X115637186Y-81058000D01*
X115264463Y-81058000D01*
X115230448Y-81016552D01*
X115173347Y-80969691D01*
X115151475Y-80958000D01*
X115173347Y-80946309D01*
X115230448Y-80899448D01*
X115277309Y-80842347D01*
X115312131Y-80777200D01*
X115333574Y-80706513D01*
X115340814Y-80633000D01*
X115340814Y-79283000D01*
X115333574Y-79209487D01*
X115312131Y-79138800D01*
X115277309Y-79073653D01*
X115230448Y-79016552D01*
X115173347Y-78969691D01*
X115151475Y-78958000D01*
X115173347Y-78946309D01*
X115230448Y-78899448D01*
X115277309Y-78842347D01*
X115312131Y-78777200D01*
X115333574Y-78706513D01*
X115340814Y-78633000D01*
X115340814Y-77283000D01*
X115333574Y-77209487D01*
X115318779Y-77160717D01*
X115413764Y-77082764D01*
X115492867Y-76986378D01*
X115551646Y-76876411D01*
X115587841Y-76757090D01*
X115600063Y-76633000D01*
X115597000Y-76245250D01*
X115438750Y-76087000D01*
X114364000Y-76087000D01*
X114364000Y-75829000D01*
X115438750Y-75829000D01*
X115597000Y-75670750D01*
X115598336Y-75501619D01*
X115676750Y-75501000D01*
X115835000Y-75342750D01*
X115835000Y-74268000D01*
X116093000Y-74268000D01*
X116093000Y-75342750D01*
X116093000Y-75342750D01*
G37*
X116093000Y-75342750D02*
X116251250Y-75501000D01*
X116639000Y-75504063D01*
X116763090Y-75491841D01*
X116882411Y-75455646D01*
X116992378Y-75396867D01*
X117088764Y-75317764D01*
X117166717Y-75222779D01*
X117215487Y-75237574D01*
X117289000Y-75244814D01*
X118639000Y-75244814D01*
X118712513Y-75237574D01*
X118783200Y-75216131D01*
X118848347Y-75181309D01*
X118905448Y-75134448D01*
X118952309Y-75077347D01*
X118964000Y-75055475D01*
X118975691Y-75077347D01*
X119022552Y-75134448D01*
X119079653Y-75181309D01*
X119144800Y-75216131D01*
X119215487Y-75237574D01*
X119289000Y-75244814D01*
X120639000Y-75244814D01*
X120712513Y-75237574D01*
X120783200Y-75216131D01*
X120848347Y-75181309D01*
X120905448Y-75134448D01*
X120952309Y-75077347D01*
X120964000Y-75055475D01*
X120975691Y-75077347D01*
X121022552Y-75134448D01*
X121079653Y-75181309D01*
X121144800Y-75216131D01*
X121215487Y-75237574D01*
X121289000Y-75244814D01*
X122639000Y-75244814D01*
X122712513Y-75237574D01*
X122783200Y-75216131D01*
X122848347Y-75181309D01*
X122905448Y-75134448D01*
X122952309Y-75077347D01*
X122964000Y-75055475D01*
X122975691Y-75077347D01*
X123022552Y-75134448D01*
X123079653Y-75181309D01*
X123144800Y-75216131D01*
X123215487Y-75237574D01*
X123289000Y-75244814D01*
X124639000Y-75244814D01*
X124712513Y-75237574D01*
X124783200Y-75216131D01*
X124848347Y-75181309D01*
X124905448Y-75134448D01*
X124952309Y-75077347D01*
X124964000Y-75055475D01*
X124975691Y-75077347D01*
X125022552Y-75134448D01*
X125079653Y-75181309D01*
X125144800Y-75216131D01*
X125215487Y-75237574D01*
X125289000Y-75244814D01*
X126639000Y-75244814D01*
X126712513Y-75237574D01*
X126783200Y-75216131D01*
X126848347Y-75181309D01*
X126905448Y-75134448D01*
X126952309Y-75077347D01*
X126964000Y-75055475D01*
X126975691Y-75077347D01*
X127022552Y-75134448D01*
X127079653Y-75181309D01*
X127144800Y-75216131D01*
X127215487Y-75237574D01*
X127289000Y-75244814D01*
X128639000Y-75244814D01*
X128712513Y-75237574D01*
X128783200Y-75216131D01*
X128848347Y-75181309D01*
X128905448Y-75134448D01*
X128952309Y-75077347D01*
X128964000Y-75055475D01*
X128975691Y-75077347D01*
X129022552Y-75134448D01*
X129079653Y-75181309D01*
X129144800Y-75216131D01*
X129215487Y-75237574D01*
X129289000Y-75244814D01*
X130639000Y-75244814D01*
X130712513Y-75237574D01*
X130783200Y-75216131D01*
X130848347Y-75181309D01*
X130905448Y-75134448D01*
X130952309Y-75077347D01*
X130964000Y-75055475D01*
X130975691Y-75077347D01*
X131022552Y-75134448D01*
X131079653Y-75181309D01*
X131144800Y-75216131D01*
X131215487Y-75237574D01*
X131289000Y-75244814D01*
X132639000Y-75244814D01*
X132712513Y-75237574D01*
X132783200Y-75216131D01*
X132848347Y-75181309D01*
X132905448Y-75134448D01*
X132952309Y-75077347D01*
X132964000Y-75055475D01*
X132975691Y-75077347D01*
X133022552Y-75134448D01*
X133079653Y-75181309D01*
X133144800Y-75216131D01*
X133215487Y-75237574D01*
X133289000Y-75244814D01*
X134328346Y-75244814D01*
X134331000Y-75580750D01*
X134489250Y-75739000D01*
X135564001Y-75739000D01*
X135564001Y-75997000D01*
X134489250Y-75997000D01*
X134331000Y-76155250D01*
X134327937Y-76543000D01*
X134340159Y-76667090D01*
X134376354Y-76786411D01*
X134435133Y-76896378D01*
X134514236Y-76992764D01*
X134609221Y-77070717D01*
X134594426Y-77119487D01*
X134587186Y-77193000D01*
X134587186Y-78543000D01*
X134594426Y-78616513D01*
X134615869Y-78687200D01*
X134650691Y-78752347D01*
X134697552Y-78809448D01*
X134754653Y-78856309D01*
X134776525Y-78868000D01*
X134754653Y-78879691D01*
X134697552Y-78926552D01*
X134650691Y-78983653D01*
X134615869Y-79048800D01*
X134594426Y-79119487D01*
X134587186Y-79193000D01*
X134587186Y-80543000D01*
X134594426Y-80616513D01*
X134615869Y-80687200D01*
X134650691Y-80752347D01*
X134697552Y-80809448D01*
X134754653Y-80856309D01*
X134776525Y-80868000D01*
X134754653Y-80879691D01*
X134697552Y-80926552D01*
X134650691Y-80983653D01*
X134615869Y-81048800D01*
X134594426Y-81119487D01*
X134587186Y-81193000D01*
X134587186Y-82543000D01*
X134594426Y-82616513D01*
X134615869Y-82687200D01*
X134650691Y-82752347D01*
X134697552Y-82809448D01*
X134754653Y-82856309D01*
X134776525Y-82868000D01*
X134754653Y-82879691D01*
X134697552Y-82926552D01*
X134650691Y-82983653D01*
X134615869Y-83048800D01*
X134594426Y-83119487D01*
X134587186Y-83193000D01*
X134587186Y-84543000D01*
X134594426Y-84616513D01*
X134615869Y-84687200D01*
X134650691Y-84752347D01*
X134697552Y-84809448D01*
X134754653Y-84856309D01*
X134776525Y-84868000D01*
X134754653Y-84879691D01*
X134697552Y-84926552D01*
X134650691Y-84983653D01*
X134615869Y-85048800D01*
X134594426Y-85119487D01*
X134587186Y-85193000D01*
X134587186Y-86543000D01*
X134594426Y-86616513D01*
X134615869Y-86687200D01*
X134650691Y-86752347D01*
X134697552Y-86809448D01*
X134754653Y-86856309D01*
X134776525Y-86868000D01*
X134754653Y-86879691D01*
X134697552Y-86926552D01*
X134650691Y-86983653D01*
X134615869Y-87048800D01*
X134594426Y-87119487D01*
X134587186Y-87193000D01*
X134587186Y-88543000D01*
X134594426Y-88616513D01*
X134615869Y-88687200D01*
X134650691Y-88752347D01*
X134697552Y-88809448D01*
X134754653Y-88856309D01*
X134776525Y-88868000D01*
X134754653Y-88879691D01*
X134697552Y-88926552D01*
X134650691Y-88983653D01*
X134615869Y-89048800D01*
X134594426Y-89119487D01*
X134587186Y-89193000D01*
X134587186Y-90543000D01*
X134594426Y-90616513D01*
X134615869Y-90687200D01*
X134650691Y-90752347D01*
X134697552Y-90809448D01*
X134754653Y-90856309D01*
X134776525Y-90868000D01*
X134754653Y-90879691D01*
X134697552Y-90926552D01*
X134650691Y-90983653D01*
X134615869Y-91048800D01*
X134594426Y-91119487D01*
X134587186Y-91193000D01*
X134587186Y-91368000D01*
X134018549Y-91368000D01*
X133993999Y-91365582D01*
X133969449Y-91368000D01*
X133366109Y-91368000D01*
X130494029Y-88495922D01*
X130494029Y-81842589D01*
X130496448Y-81818029D01*
X130486794Y-81720012D01*
X130478121Y-81691422D01*
X130458204Y-81625762D01*
X130411775Y-81538900D01*
X130349293Y-81462765D01*
X130330216Y-81447109D01*
X129204929Y-80321824D01*
X129189264Y-80302736D01*
X129170181Y-80287075D01*
X128314929Y-79431824D01*
X128299264Y-79412736D01*
X128223129Y-79350254D01*
X128136267Y-79303825D01*
X128042017Y-79275235D01*
X127968560Y-79268000D01*
X127944000Y-79265581D01*
X127919440Y-79268000D01*
X127258594Y-79268000D01*
X127234287Y-79243693D01*
X127123732Y-79169823D01*
X127000890Y-79118940D01*
X126870482Y-79093000D01*
X126737518Y-79093000D01*
X126607110Y-79118940D01*
X126484268Y-79169823D01*
X126389034Y-79233456D01*
X126323732Y-79189823D01*
X126200890Y-79138940D01*
X126070482Y-79113000D01*
X125937518Y-79113000D01*
X125807110Y-79138940D01*
X125684268Y-79189823D01*
X125573713Y-79263693D01*
X125549406Y-79288000D01*
X124085767Y-79288000D01*
X123983732Y-79219823D01*
X123860890Y-79168940D01*
X123730482Y-79143000D01*
X123696106Y-79143000D01*
X123264926Y-78711821D01*
X123249264Y-78692736D01*
X123230179Y-78677073D01*
X122979929Y-78426824D01*
X122964264Y-78407736D01*
X122888129Y-78345254D01*
X122867142Y-78334036D01*
X121511105Y-76978000D01*
X130036895Y-76978000D01*
X130559000Y-77500106D01*
X130559000Y-77534482D01*
X130584940Y-77664890D01*
X130635823Y-77787732D01*
X130709693Y-77898287D01*
X130803713Y-77992307D01*
X130914268Y-78066177D01*
X131037110Y-78117060D01*
X131167518Y-78143000D01*
X131300482Y-78143000D01*
X131430890Y-78117060D01*
X131553732Y-78066177D01*
X131664287Y-77992307D01*
X131688594Y-77968000D01*
X132006895Y-77968000D01*
X133069000Y-79030107D01*
X133069000Y-79064482D01*
X133094940Y-79194890D01*
X133145823Y-79317732D01*
X133219693Y-79428287D01*
X133313713Y-79522307D01*
X133424268Y-79596177D01*
X133547110Y-79647060D01*
X133677518Y-79673000D01*
X133810482Y-79673000D01*
X133940890Y-79647060D01*
X134063732Y-79596177D01*
X134174287Y-79522307D01*
X134268307Y-79428287D01*
X134342177Y-79317732D01*
X134393060Y-79194890D01*
X134419000Y-79064482D01*
X134419000Y-78931518D01*
X134393060Y-78801110D01*
X134342177Y-78678268D01*
X134268307Y-78567713D01*
X134174287Y-78473693D01*
X134063732Y-78399823D01*
X133940890Y-78348940D01*
X133810482Y-78323000D01*
X133776107Y-78323000D01*
X132584929Y-77131824D01*
X132569264Y-77112736D01*
X132493129Y-77050254D01*
X132406267Y-77003825D01*
X132312017Y-76975235D01*
X132238560Y-76968000D01*
X132214000Y-76965581D01*
X132189440Y-76968000D01*
X131688594Y-76968000D01*
X131678594Y-76958000D01*
X131748307Y-76888287D01*
X131822177Y-76777732D01*
X131873060Y-76654890D01*
X131899000Y-76524482D01*
X131899000Y-76391518D01*
X131873060Y-76261110D01*
X131822177Y-76138268D01*
X131748307Y-76027713D01*
X131654287Y-75933693D01*
X131543732Y-75859823D01*
X131420890Y-75808940D01*
X131290482Y-75783000D01*
X131157518Y-75783000D01*
X131027110Y-75808940D01*
X130904268Y-75859823D01*
X130793713Y-75933693D01*
X130749406Y-75978000D01*
X130308560Y-75978000D01*
X130284000Y-75975581D01*
X130259440Y-75978000D01*
X120328560Y-75978000D01*
X120304000Y-75975581D01*
X120279440Y-75978000D01*
X117235598Y-75978000D01*
X117135712Y-75856288D01*
X117002476Y-75746944D01*
X116850468Y-75665695D01*
X116685530Y-75615661D01*
X116556979Y-75603000D01*
X116471021Y-75603000D01*
X116342470Y-75615661D01*
X116177532Y-75665695D01*
X116025524Y-75746944D01*
X115892288Y-75856288D01*
X115782944Y-75989524D01*
X115701695Y-76141532D01*
X115651661Y-76306470D01*
X115634767Y-76478000D01*
X115651661Y-76649530D01*
X115701695Y-76814468D01*
X115782944Y-76966476D01*
X115892288Y-77099712D01*
X115908479Y-77113000D01*
X115892288Y-77126288D01*
X115782944Y-77259524D01*
X115701695Y-77411532D01*
X115651661Y-77576470D01*
X115634767Y-77748000D01*
X115651661Y-77919530D01*
X115701695Y-78084468D01*
X115782944Y-78236476D01*
X115892288Y-78369712D01*
X115908479Y-78383000D01*
X115892288Y-78396288D01*
X115782944Y-78529524D01*
X115701695Y-78681532D01*
X115651661Y-78846470D01*
X115634767Y-79018000D01*
X115651661Y-79189530D01*
X115701695Y-79354468D01*
X115754833Y-79453884D01*
X115655187Y-79548984D01*
X115527514Y-79730730D01*
X115437751Y-79933892D01*
X115422406Y-79984501D01*
X115547824Y-80159000D01*
X116385000Y-80159000D01*
X116385000Y-80139000D01*
X116643000Y-80139000D01*
X116643000Y-80159000D01*
X117480176Y-80159000D01*
X117605594Y-79984501D01*
X117590249Y-79933892D01*
X117500486Y-79730730D01*
X117372813Y-79548984D01*
X117273167Y-79453884D01*
X117326305Y-79354468D01*
X117376339Y-79189530D01*
X117393233Y-79018000D01*
X117376339Y-78846470D01*
X117326305Y-78681532D01*
X117245056Y-78529524D01*
X117135712Y-78396288D01*
X117119521Y-78383000D01*
X117135712Y-78369712D01*
X117245056Y-78236476D01*
X117326305Y-78084468D01*
X117346567Y-78017673D01*
X120313079Y-80984186D01*
X120328736Y-81003264D01*
X120395432Y-81058000D01*
X117390814Y-81058000D01*
X117385924Y-81008352D01*
X117500486Y-80845270D01*
X117590249Y-80642108D01*
X117605594Y-80591499D01*
X117480176Y-80417000D01*
X116643000Y-80417000D01*
X116643000Y-80437000D01*
X116385000Y-80437000D01*
X116385000Y-80417000D01*
X115547824Y-80417000D01*
X115422406Y-80591499D01*
X115437751Y-80642108D01*
X115527514Y-80845270D01*
X115642076Y-81008352D01*
X115637186Y-81058000D01*
X115264463Y-81058000D01*
X115230448Y-81016552D01*
X115173347Y-80969691D01*
X115151475Y-80958000D01*
X115173347Y-80946309D01*
X115230448Y-80899448D01*
X115277309Y-80842347D01*
X115312131Y-80777200D01*
X115333574Y-80706513D01*
X115340814Y-80633000D01*
X115340814Y-79283000D01*
X115333574Y-79209487D01*
X115312131Y-79138800D01*
X115277309Y-79073653D01*
X115230448Y-79016552D01*
X115173347Y-78969691D01*
X115151475Y-78958000D01*
X115173347Y-78946309D01*
X115230448Y-78899448D01*
X115277309Y-78842347D01*
X115312131Y-78777200D01*
X115333574Y-78706513D01*
X115340814Y-78633000D01*
X115340814Y-77283000D01*
X115333574Y-77209487D01*
X115318779Y-77160717D01*
X115413764Y-77082764D01*
X115492867Y-76986378D01*
X115551646Y-76876411D01*
X115587841Y-76757090D01*
X115600063Y-76633000D01*
X115597000Y-76245250D01*
X115438750Y-76087000D01*
X114364000Y-76087000D01*
X114364000Y-75829000D01*
X115438750Y-75829000D01*
X115597000Y-75670750D01*
X115598336Y-75501619D01*
X115676750Y-75501000D01*
X115835000Y-75342750D01*
X115835000Y-74268000D01*
X116093000Y-74268000D01*
X116093000Y-75342750D01*
G36*
X129044021Y-84145128D02*
G01*
X129044021Y-84534505D01*
X127928821Y-83419306D01*
X127933472Y-83408077D01*
X127959412Y-83277669D01*
X127959412Y-83144705D01*
X127938508Y-83039614D01*
X129044021Y-84145128D01*
X129044021Y-84145128D01*
G37*
X129044021Y-84145128D02*
X129044021Y-84534505D01*
X127928821Y-83419306D01*
X127933472Y-83408077D01*
X127959412Y-83277669D01*
X127959412Y-83144705D01*
X127938508Y-83039614D01*
X129044021Y-84145128D01*
G36*
X127455986Y-82557091D02*
G01*
X127350894Y-82536187D01*
X127217930Y-82536187D01*
X127087522Y-82562127D01*
X126964680Y-82613010D01*
X126854125Y-82686880D01*
X126760105Y-82780900D01*
X126717608Y-82844502D01*
X126224929Y-82351824D01*
X126209264Y-82332736D01*
X126133129Y-82270254D01*
X126046267Y-82223825D01*
X125952017Y-82195235D01*
X125878560Y-82188000D01*
X125854000Y-82185581D01*
X125829440Y-82188000D01*
X124699645Y-82188000D01*
X124701764Y-82181016D01*
X124711418Y-82082999D01*
X124708956Y-82058000D01*
X126956895Y-82058000D01*
X127455986Y-82557091D01*
X127455986Y-82557091D01*
G37*
X127455986Y-82557091D02*
X127350894Y-82536187D01*
X127217930Y-82536187D01*
X127087522Y-82562127D01*
X126964680Y-82613010D01*
X126854125Y-82686880D01*
X126760105Y-82780900D01*
X126717608Y-82844502D01*
X126224929Y-82351824D01*
X126209264Y-82332736D01*
X126133129Y-82270254D01*
X126046267Y-82223825D01*
X125952017Y-82195235D01*
X125878560Y-82188000D01*
X125854000Y-82185581D01*
X125829440Y-82188000D01*
X124699645Y-82188000D01*
X124701764Y-82181016D01*
X124711418Y-82082999D01*
X124708956Y-82058000D01*
X126956895Y-82058000D01*
X127455986Y-82557091D01*
M02*
