G04 #@! TF.GenerationSoftware,KiCad,Pcbnew,5.1.4-e60b266~84~ubuntu18.04.1*
G04 #@! TF.CreationDate,2019-10-31T20:09:33+08:00*
G04 #@! TF.ProjectId,dap-stm32f103,6461702d-7374-46d3-9332-663130332e6b,rev?*
G04 #@! TF.SameCoordinates,Original*
G04 #@! TF.FileFunction,Soldermask,Bot*
G04 #@! TF.FilePolarity,Negative*
%FSLAX46Y46*%
G04 Gerber Fmt 4.6, Leading zero omitted, Abs format (unit mm)*
G04 Created by KiCad (PCBNEW 5.1.4-e60b266~84~ubuntu18.04.1) date 2019-10-31 20:09:33*
%MOMM*%
%LPD*%
G04 APERTURE LIST*
%ADD10C,0.100000*%
G04 APERTURE END LIST*
D10*
G36*
X134690000Y-96919000D02*
G01*
X133238000Y-96919000D01*
X133238000Y-94817000D01*
X134690000Y-94817000D01*
X134690000Y-96919000D01*
X134690000Y-96919000D01*
G37*
G36*
X132690000Y-96919000D02*
G01*
X131238000Y-96919000D01*
X131238000Y-94817000D01*
X132690000Y-94817000D01*
X132690000Y-96919000D01*
X132690000Y-96919000D01*
G37*
G36*
X116690000Y-96919000D02*
G01*
X115238000Y-96919000D01*
X115238000Y-94817000D01*
X116690000Y-94817000D01*
X116690000Y-96919000D01*
X116690000Y-96919000D01*
G37*
G36*
X130690000Y-96919000D02*
G01*
X129238000Y-96919000D01*
X129238000Y-94817000D01*
X130690000Y-94817000D01*
X130690000Y-96919000D01*
X130690000Y-96919000D01*
G37*
G36*
X120690000Y-96919000D02*
G01*
X119238000Y-96919000D01*
X119238000Y-94817000D01*
X120690000Y-94817000D01*
X120690000Y-96919000D01*
X120690000Y-96919000D01*
G37*
G36*
X118690000Y-96919000D02*
G01*
X117238000Y-96919000D01*
X117238000Y-94817000D01*
X118690000Y-94817000D01*
X118690000Y-96919000D01*
X118690000Y-96919000D01*
G37*
G36*
X126690000Y-96919000D02*
G01*
X125238000Y-96919000D01*
X125238000Y-94817000D01*
X126690000Y-94817000D01*
X126690000Y-96919000D01*
X126690000Y-96919000D01*
G37*
G36*
X128690000Y-96919000D02*
G01*
X127238000Y-96919000D01*
X127238000Y-94817000D01*
X128690000Y-94817000D01*
X128690000Y-96919000D01*
X128690000Y-96919000D01*
G37*
G36*
X122690000Y-96919000D02*
G01*
X121238000Y-96919000D01*
X121238000Y-94817000D01*
X122690000Y-94817000D01*
X122690000Y-96919000D01*
X122690000Y-96919000D01*
G37*
G36*
X124690000Y-96919000D02*
G01*
X123238000Y-96919000D01*
X123238000Y-94817000D01*
X124690000Y-94817000D01*
X124690000Y-96919000D01*
X124690000Y-96919000D01*
G37*
G36*
X115015000Y-94684000D02*
G01*
X112913000Y-94684000D01*
X112913000Y-93232000D01*
X115015000Y-93232000D01*
X115015000Y-94684000D01*
X115015000Y-94684000D01*
G37*
G36*
X137015000Y-94594000D02*
G01*
X134913000Y-94594000D01*
X134913000Y-93142000D01*
X137015000Y-93142000D01*
X137015000Y-94594000D01*
X137015000Y-94594000D01*
G37*
G36*
X115015000Y-92684000D02*
G01*
X112913000Y-92684000D01*
X112913000Y-91232000D01*
X115015000Y-91232000D01*
X115015000Y-92684000D01*
X115015000Y-92684000D01*
G37*
G36*
X137015000Y-92594000D02*
G01*
X134913000Y-92594000D01*
X134913000Y-91142000D01*
X137015000Y-91142000D01*
X137015000Y-92594000D01*
X137015000Y-92594000D01*
G37*
G36*
X115015000Y-90684000D02*
G01*
X112913000Y-90684000D01*
X112913000Y-89232000D01*
X115015000Y-89232000D01*
X115015000Y-90684000D01*
X115015000Y-90684000D01*
G37*
G36*
X137015000Y-90594000D02*
G01*
X134913000Y-90594000D01*
X134913000Y-89142000D01*
X137015000Y-89142000D01*
X137015000Y-90594000D01*
X137015000Y-90594000D01*
G37*
G36*
X115015000Y-88684000D02*
G01*
X112913000Y-88684000D01*
X112913000Y-87232000D01*
X115015000Y-87232000D01*
X115015000Y-88684000D01*
X115015000Y-88684000D01*
G37*
G36*
X137015000Y-88594000D02*
G01*
X134913000Y-88594000D01*
X134913000Y-87142000D01*
X137015000Y-87142000D01*
X137015000Y-88594000D01*
X137015000Y-88594000D01*
G37*
G36*
X115015000Y-86684000D02*
G01*
X112913000Y-86684000D01*
X112913000Y-85232000D01*
X115015000Y-85232000D01*
X115015000Y-86684000D01*
X115015000Y-86684000D01*
G37*
G36*
X137015000Y-86594000D02*
G01*
X134913000Y-86594000D01*
X134913000Y-85142000D01*
X137015000Y-85142000D01*
X137015000Y-86594000D01*
X137015000Y-86594000D01*
G37*
G36*
X115015000Y-84684000D02*
G01*
X112913000Y-84684000D01*
X112913000Y-83232000D01*
X115015000Y-83232000D01*
X115015000Y-84684000D01*
X115015000Y-84684000D01*
G37*
G36*
X137015000Y-84594000D02*
G01*
X134913000Y-84594000D01*
X134913000Y-83142000D01*
X137015000Y-83142000D01*
X137015000Y-84594000D01*
X137015000Y-84594000D01*
G37*
G36*
X115015000Y-82684000D02*
G01*
X112913000Y-82684000D01*
X112913000Y-81232000D01*
X115015000Y-81232000D01*
X115015000Y-82684000D01*
X115015000Y-82684000D01*
G37*
G36*
X137015000Y-82594000D02*
G01*
X134913000Y-82594000D01*
X134913000Y-81142000D01*
X137015000Y-81142000D01*
X137015000Y-82594000D01*
X137015000Y-82594000D01*
G37*
G36*
X116622015Y-75934973D02*
G01*
X116725879Y-75966479D01*
X116753055Y-75981005D01*
X116821600Y-76017643D01*
X116905501Y-76086499D01*
X116974357Y-76170400D01*
X117010995Y-76238945D01*
X117025521Y-76266121D01*
X117057027Y-76369985D01*
X117067666Y-76478000D01*
X117057027Y-76586015D01*
X117025521Y-76689879D01*
X117025519Y-76689882D01*
X116974357Y-76785600D01*
X116905501Y-76869501D01*
X116821600Y-76938357D01*
X116753055Y-76974995D01*
X116725879Y-76989521D01*
X116713131Y-76993388D01*
X116690504Y-77002760D01*
X116670130Y-77016374D01*
X116652803Y-77033701D01*
X116639189Y-77054075D01*
X116629812Y-77076714D01*
X116625031Y-77100747D01*
X116625031Y-77125251D01*
X116629811Y-77149285D01*
X116639188Y-77171924D01*
X116652802Y-77192298D01*
X116670129Y-77209625D01*
X116690503Y-77223239D01*
X116713131Y-77232612D01*
X116725879Y-77236479D01*
X116753055Y-77251005D01*
X116821600Y-77287643D01*
X116905501Y-77356499D01*
X116974357Y-77440400D01*
X117010995Y-77508945D01*
X117025521Y-77536121D01*
X117057027Y-77639985D01*
X117067666Y-77748000D01*
X117057027Y-77856015D01*
X117025521Y-77959879D01*
X117025519Y-77959882D01*
X116974357Y-78055600D01*
X116905501Y-78139501D01*
X116821600Y-78208357D01*
X116753055Y-78244995D01*
X116725879Y-78259521D01*
X116713131Y-78263388D01*
X116690504Y-78272760D01*
X116670130Y-78286374D01*
X116652803Y-78303701D01*
X116639189Y-78324075D01*
X116629812Y-78346714D01*
X116625031Y-78370747D01*
X116625031Y-78395251D01*
X116629811Y-78419285D01*
X116639188Y-78441924D01*
X116652802Y-78462298D01*
X116670129Y-78479625D01*
X116690503Y-78493239D01*
X116713131Y-78502612D01*
X116725879Y-78506479D01*
X116753055Y-78521005D01*
X116821600Y-78557643D01*
X116905501Y-78626499D01*
X116974357Y-78710400D01*
X117010995Y-78778945D01*
X117025521Y-78806121D01*
X117057027Y-78909985D01*
X117067666Y-79018000D01*
X117057027Y-79126015D01*
X117025521Y-79229879D01*
X117025519Y-79229882D01*
X116974357Y-79325600D01*
X116905501Y-79409501D01*
X116821600Y-79478357D01*
X116753055Y-79514995D01*
X116725879Y-79529521D01*
X116713131Y-79533388D01*
X116690504Y-79542760D01*
X116670130Y-79556374D01*
X116652803Y-79573701D01*
X116639189Y-79594075D01*
X116629812Y-79616714D01*
X116625031Y-79640747D01*
X116625031Y-79665251D01*
X116629811Y-79689285D01*
X116639188Y-79711924D01*
X116652802Y-79732298D01*
X116670129Y-79749625D01*
X116690503Y-79763239D01*
X116713131Y-79772612D01*
X116725879Y-79776479D01*
X116753055Y-79791005D01*
X116821600Y-79827643D01*
X116905501Y-79896499D01*
X116974357Y-79980400D01*
X117010995Y-80048945D01*
X117025521Y-80076121D01*
X117057027Y-80179985D01*
X117067666Y-80288000D01*
X117057027Y-80396015D01*
X117025521Y-80499879D01*
X117025519Y-80499882D01*
X116974357Y-80595600D01*
X116905501Y-80679501D01*
X116821600Y-80748356D01*
X116777807Y-80771764D01*
X116757437Y-80785375D01*
X116740110Y-80802702D01*
X116726496Y-80823076D01*
X116717119Y-80845715D01*
X116712338Y-80869748D01*
X116712338Y-80894252D01*
X116717118Y-80918286D01*
X116726495Y-80940924D01*
X116740109Y-80961299D01*
X116757436Y-80978626D01*
X116777810Y-80992240D01*
X116800449Y-81001617D01*
X116824482Y-81006398D01*
X116836735Y-81007000D01*
X117065000Y-81007000D01*
X117065000Y-82109000D01*
X115963000Y-82109000D01*
X115963000Y-81007000D01*
X116191265Y-81007000D01*
X116215651Y-81004598D01*
X116239100Y-80997485D01*
X116260711Y-80985934D01*
X116279653Y-80970389D01*
X116295198Y-80951447D01*
X116306749Y-80929836D01*
X116313862Y-80906387D01*
X116316264Y-80882001D01*
X116313862Y-80857615D01*
X116306749Y-80834166D01*
X116295198Y-80812555D01*
X116279653Y-80793613D01*
X116260711Y-80778068D01*
X116250198Y-80771767D01*
X116206400Y-80748356D01*
X116122499Y-80679501D01*
X116053643Y-80595600D01*
X116002481Y-80499882D01*
X116002479Y-80499879D01*
X115970973Y-80396015D01*
X115960334Y-80288000D01*
X115970973Y-80179985D01*
X116002479Y-80076121D01*
X116017005Y-80048945D01*
X116053643Y-79980400D01*
X116122499Y-79896499D01*
X116206400Y-79827643D01*
X116274945Y-79791005D01*
X116302121Y-79776479D01*
X116314869Y-79772612D01*
X116337496Y-79763240D01*
X116357870Y-79749626D01*
X116375197Y-79732299D01*
X116388811Y-79711925D01*
X116398188Y-79689286D01*
X116402969Y-79665253D01*
X116402969Y-79640749D01*
X116398189Y-79616715D01*
X116388812Y-79594076D01*
X116375198Y-79573702D01*
X116357871Y-79556375D01*
X116337497Y-79542761D01*
X116314869Y-79533388D01*
X116302121Y-79529521D01*
X116274945Y-79514995D01*
X116206400Y-79478357D01*
X116122499Y-79409501D01*
X116053643Y-79325600D01*
X116002481Y-79229882D01*
X116002479Y-79229879D01*
X115970973Y-79126015D01*
X115960334Y-79018000D01*
X115970973Y-78909985D01*
X116002479Y-78806121D01*
X116017005Y-78778945D01*
X116053643Y-78710400D01*
X116122499Y-78626499D01*
X116206400Y-78557643D01*
X116274945Y-78521005D01*
X116302121Y-78506479D01*
X116314869Y-78502612D01*
X116337496Y-78493240D01*
X116357870Y-78479626D01*
X116375197Y-78462299D01*
X116388811Y-78441925D01*
X116398188Y-78419286D01*
X116402969Y-78395253D01*
X116402969Y-78370749D01*
X116398189Y-78346715D01*
X116388812Y-78324076D01*
X116375198Y-78303702D01*
X116357871Y-78286375D01*
X116337497Y-78272761D01*
X116314869Y-78263388D01*
X116302121Y-78259521D01*
X116274945Y-78244995D01*
X116206400Y-78208357D01*
X116122499Y-78139501D01*
X116053643Y-78055600D01*
X116002481Y-77959882D01*
X116002479Y-77959879D01*
X115970973Y-77856015D01*
X115960334Y-77748000D01*
X115970973Y-77639985D01*
X116002479Y-77536121D01*
X116017005Y-77508945D01*
X116053643Y-77440400D01*
X116122499Y-77356499D01*
X116206400Y-77287643D01*
X116274945Y-77251005D01*
X116302121Y-77236479D01*
X116314869Y-77232612D01*
X116337496Y-77223240D01*
X116357870Y-77209626D01*
X116375197Y-77192299D01*
X116388811Y-77171925D01*
X116398188Y-77149286D01*
X116402969Y-77125253D01*
X116402969Y-77100749D01*
X116398189Y-77076715D01*
X116388812Y-77054076D01*
X116375198Y-77033702D01*
X116357871Y-77016375D01*
X116337497Y-77002761D01*
X116314869Y-76993388D01*
X116302121Y-76989521D01*
X116274945Y-76974995D01*
X116206400Y-76938357D01*
X116122499Y-76869501D01*
X116053643Y-76785600D01*
X116002481Y-76689882D01*
X116002479Y-76689879D01*
X115970973Y-76586015D01*
X115960334Y-76478000D01*
X115970973Y-76369985D01*
X116002479Y-76266121D01*
X116017005Y-76238945D01*
X116053643Y-76170400D01*
X116122499Y-76086499D01*
X116206400Y-76017643D01*
X116274945Y-75981005D01*
X116302121Y-75966479D01*
X116405985Y-75934973D01*
X116486933Y-75927000D01*
X116541067Y-75927000D01*
X116622015Y-75934973D01*
X116622015Y-75934973D01*
G37*
G36*
X115015000Y-80684000D02*
G01*
X112913000Y-80684000D01*
X112913000Y-79232000D01*
X115015000Y-79232000D01*
X115015000Y-80684000D01*
X115015000Y-80684000D01*
G37*
G36*
X137015000Y-80594000D02*
G01*
X134913000Y-80594000D01*
X134913000Y-79142000D01*
X137015000Y-79142000D01*
X137015000Y-80594000D01*
X137015000Y-80594000D01*
G37*
G36*
X115015000Y-78684000D02*
G01*
X112913000Y-78684000D01*
X112913000Y-77232000D01*
X115015000Y-77232000D01*
X115015000Y-78684000D01*
X115015000Y-78684000D01*
G37*
G36*
X137015000Y-78594000D02*
G01*
X134913000Y-78594000D01*
X134913000Y-77142000D01*
X137015000Y-77142000D01*
X137015000Y-78594000D01*
X137015000Y-78594000D01*
G37*
G36*
X115015000Y-76684000D02*
G01*
X112913000Y-76684000D01*
X112913000Y-75232000D01*
X115015000Y-75232000D01*
X115015000Y-76684000D01*
X115015000Y-76684000D01*
G37*
G36*
X137015000Y-76594000D02*
G01*
X134913000Y-76594000D01*
X134913000Y-75142000D01*
X137015000Y-75142000D01*
X137015000Y-76594000D01*
X137015000Y-76594000D01*
G37*
G36*
X130690000Y-74919000D02*
G01*
X129238000Y-74919000D01*
X129238000Y-72817000D01*
X130690000Y-72817000D01*
X130690000Y-74919000D01*
X130690000Y-74919000D01*
G37*
G36*
X132690000Y-74919000D02*
G01*
X131238000Y-74919000D01*
X131238000Y-72817000D01*
X132690000Y-72817000D01*
X132690000Y-74919000D01*
X132690000Y-74919000D01*
G37*
G36*
X134690000Y-74919000D02*
G01*
X133238000Y-74919000D01*
X133238000Y-72817000D01*
X134690000Y-72817000D01*
X134690000Y-74919000D01*
X134690000Y-74919000D01*
G37*
G36*
X126690000Y-74919000D02*
G01*
X125238000Y-74919000D01*
X125238000Y-72817000D01*
X126690000Y-72817000D01*
X126690000Y-74919000D01*
X126690000Y-74919000D01*
G37*
G36*
X124690000Y-74919000D02*
G01*
X123238000Y-74919000D01*
X123238000Y-72817000D01*
X124690000Y-72817000D01*
X124690000Y-74919000D01*
X124690000Y-74919000D01*
G37*
G36*
X122690000Y-74919000D02*
G01*
X121238000Y-74919000D01*
X121238000Y-72817000D01*
X122690000Y-72817000D01*
X122690000Y-74919000D01*
X122690000Y-74919000D01*
G37*
G36*
X120690000Y-74919000D02*
G01*
X119238000Y-74919000D01*
X119238000Y-72817000D01*
X120690000Y-72817000D01*
X120690000Y-74919000D01*
X120690000Y-74919000D01*
G37*
G36*
X118690000Y-74919000D02*
G01*
X117238000Y-74919000D01*
X117238000Y-72817000D01*
X118690000Y-72817000D01*
X118690000Y-74919000D01*
X118690000Y-74919000D01*
G37*
G36*
X116690000Y-74919000D02*
G01*
X115238000Y-74919000D01*
X115238000Y-72817000D01*
X116690000Y-72817000D01*
X116690000Y-74919000D01*
X116690000Y-74919000D01*
G37*
G36*
X128690000Y-74919000D02*
G01*
X127238000Y-74919000D01*
X127238000Y-72817000D01*
X128690000Y-72817000D01*
X128690000Y-74919000D01*
X128690000Y-74919000D01*
G37*
M02*
