G04 #@! TF.GenerationSoftware,KiCad,Pcbnew,5.1.5-52549c5~84~ubuntu18.04.1*
G04 #@! TF.CreationDate,2020-02-29T23:35:11+08:00*
G04 #@! TF.ProjectId,adapter_20p,61646170-7465-4725-9f32-30702e6b6963,rev?*
G04 #@! TF.SameCoordinates,Original*
G04 #@! TF.FileFunction,Legend,Top*
G04 #@! TF.FilePolarity,Positive*
%FSLAX46Y46*%
G04 Gerber Fmt 4.6, Leading zero omitted, Abs format (unit mm)*
G04 Created by KiCad (PCBNEW 5.1.5-52549c5~84~ubuntu18.04.1) date 2020-02-29 23:35:11*
%MOMM*%
%LPD*%
G04 APERTURE LIST*
%ADD10C,0.150000*%
%ADD11C,1.000000*%
%ADD12C,0.120000*%
G04 APERTURE END LIST*
D10*
X163285714Y-69547619D02*
X164142857Y-69547619D01*
X164238095Y-69595238D01*
X164285714Y-69690476D01*
X164285714Y-69738095D01*
X162952380Y-69547619D02*
X163000000Y-69595238D01*
X163047619Y-69547619D01*
X163000000Y-69500000D01*
X162952380Y-69547619D01*
X163047619Y-69547619D01*
X163952380Y-68928571D02*
X163904761Y-69023809D01*
X163809523Y-69071428D01*
X162952380Y-69071428D01*
X163904761Y-68119047D02*
X163952380Y-68214285D01*
X163952380Y-68404761D01*
X163904761Y-68500000D01*
X163857142Y-68547619D01*
X163761904Y-68595238D01*
X163476190Y-68595238D01*
X163380952Y-68547619D01*
X163333333Y-68500000D01*
X163285714Y-68404761D01*
X163285714Y-68214285D01*
X163333333Y-68119047D01*
X163285714Y-67690476D02*
X164142857Y-67690476D01*
X164238095Y-67738095D01*
X164285714Y-67833333D01*
X164285714Y-67880952D01*
X162952380Y-67690476D02*
X163000000Y-67738095D01*
X163047619Y-67690476D01*
X163000000Y-67642857D01*
X162952380Y-67690476D01*
X163047619Y-67690476D01*
X163952380Y-67071428D02*
X163904761Y-67166666D01*
X163809523Y-67214285D01*
X162952380Y-67214285D01*
X163904761Y-66261904D02*
X163952380Y-66357142D01*
X163952380Y-66547619D01*
X163904761Y-66642857D01*
X163857142Y-66690476D01*
X163761904Y-66738095D01*
X163476190Y-66738095D01*
X163380952Y-66690476D01*
X163333333Y-66642857D01*
X163285714Y-66547619D01*
X163285714Y-66357142D01*
X163333333Y-66261904D01*
X163285714Y-65833333D02*
X164142857Y-65833333D01*
X164238095Y-65880952D01*
X164285714Y-65976190D01*
X164285714Y-66023809D01*
X162952380Y-65833333D02*
X163000000Y-65880952D01*
X163047619Y-65833333D01*
X163000000Y-65785714D01*
X162952380Y-65833333D01*
X163047619Y-65833333D01*
X163952380Y-65214285D02*
X163904761Y-65309523D01*
X163809523Y-65357142D01*
X162952380Y-65357142D01*
X163904761Y-64404761D02*
X163952380Y-64500000D01*
X163952380Y-64690476D01*
X163904761Y-64785714D01*
X163857142Y-64833333D01*
X163761904Y-64880952D01*
X163476190Y-64880952D01*
X163380952Y-64833333D01*
X163333333Y-64785714D01*
X163285714Y-64690476D01*
X163285714Y-64500000D01*
X163333333Y-64404761D01*
X139166666Y-78928571D02*
X139309523Y-78976190D01*
X139357142Y-79023809D01*
X139404761Y-79119047D01*
X139404761Y-79261904D01*
X139357142Y-79357142D01*
X139309523Y-79404761D01*
X139214285Y-79452380D01*
X138833333Y-79452380D01*
X138833333Y-78452380D01*
X139166666Y-78452380D01*
X139261904Y-78500000D01*
X139309523Y-78547619D01*
X139357142Y-78642857D01*
X139357142Y-78738095D01*
X139309523Y-78833333D01*
X139261904Y-78880952D01*
X139166666Y-78928571D01*
X138833333Y-78928571D01*
X140261904Y-79452380D02*
X140261904Y-78928571D01*
X140214285Y-78833333D01*
X140119047Y-78785714D01*
X139928571Y-78785714D01*
X139833333Y-78833333D01*
X140261904Y-79404761D02*
X140166666Y-79452380D01*
X139928571Y-79452380D01*
X139833333Y-79404761D01*
X139785714Y-79309523D01*
X139785714Y-79214285D01*
X139833333Y-79119047D01*
X139928571Y-79071428D01*
X140166666Y-79071428D01*
X140261904Y-79023809D01*
X140880952Y-79452380D02*
X140785714Y-79404761D01*
X140738095Y-79309523D01*
X140738095Y-78452380D01*
X141690476Y-79452380D02*
X141690476Y-78928571D01*
X141642857Y-78833333D01*
X141547619Y-78785714D01*
X141357142Y-78785714D01*
X141261904Y-78833333D01*
X141690476Y-79404761D02*
X141595238Y-79452380D01*
X141357142Y-79452380D01*
X141261904Y-79404761D01*
X141214285Y-79309523D01*
X141214285Y-79214285D01*
X141261904Y-79119047D01*
X141357142Y-79071428D01*
X141595238Y-79071428D01*
X141690476Y-79023809D01*
X142166666Y-78785714D02*
X142166666Y-79452380D01*
X142166666Y-78880952D02*
X142214285Y-78833333D01*
X142309523Y-78785714D01*
X142452380Y-78785714D01*
X142547619Y-78833333D01*
X142595238Y-78928571D01*
X142595238Y-79452380D01*
X143500000Y-79404761D02*
X143404761Y-79452380D01*
X143214285Y-79452380D01*
X143119047Y-79404761D01*
X143071428Y-79357142D01*
X143023809Y-79261904D01*
X143023809Y-78976190D01*
X143071428Y-78880952D01*
X143119047Y-78833333D01*
X143214285Y-78785714D01*
X143404761Y-78785714D01*
X143500000Y-78833333D01*
X144309523Y-79404761D02*
X144214285Y-79452380D01*
X144023809Y-79452380D01*
X143928571Y-79404761D01*
X143880952Y-79309523D01*
X143880952Y-78928571D01*
X143928571Y-78833333D01*
X144023809Y-78785714D01*
X144214285Y-78785714D01*
X144309523Y-78833333D01*
X144357142Y-78928571D01*
X144357142Y-79023809D01*
X143880952Y-79119047D01*
X144785714Y-79452380D02*
X144785714Y-78452380D01*
X145023809Y-78452380D01*
X145166666Y-78500000D01*
X145261904Y-78595238D01*
X145309523Y-78690476D01*
X145357142Y-78880952D01*
X145357142Y-79023809D01*
X145309523Y-79214285D01*
X145261904Y-79309523D01*
X145166666Y-79404761D01*
X145023809Y-79452380D01*
X144785714Y-79452380D01*
X145738095Y-79166666D02*
X146214285Y-79166666D01*
X145642857Y-79452380D02*
X145976190Y-78452380D01*
X146309523Y-79452380D01*
X146642857Y-79452380D02*
X146642857Y-78452380D01*
X147023809Y-78452380D01*
X147119047Y-78500000D01*
X147166666Y-78547619D01*
X147214285Y-78642857D01*
X147214285Y-78785714D01*
X147166666Y-78880952D01*
X147119047Y-78928571D01*
X147023809Y-78976190D01*
X146642857Y-78976190D01*
X143647619Y-72761904D02*
X143914285Y-73561904D01*
X144180952Y-72761904D01*
X144447619Y-73257142D02*
X145057143Y-73257142D01*
X144752381Y-73561904D02*
X144752381Y-72952380D01*
X136195238Y-62500000D02*
X136119047Y-62461904D01*
X136004762Y-62461904D01*
X135890476Y-62500000D01*
X135814285Y-62576190D01*
X135776190Y-62652380D01*
X135738095Y-62804761D01*
X135738095Y-62919047D01*
X135776190Y-63071428D01*
X135814285Y-63147619D01*
X135890476Y-63223809D01*
X136004762Y-63261904D01*
X136080952Y-63261904D01*
X136195238Y-63223809D01*
X136233333Y-63185714D01*
X136233333Y-62919047D01*
X136080952Y-62919047D01*
X136576190Y-63261904D02*
X136576190Y-62461904D01*
X137033333Y-63261904D01*
X137033333Y-62461904D01*
X137414285Y-63261904D02*
X137414285Y-62461904D01*
X137604762Y-62461904D01*
X137719047Y-62500000D01*
X137795238Y-62576190D01*
X137833333Y-62652380D01*
X137871428Y-62804761D01*
X137871428Y-62919047D01*
X137833333Y-63071428D01*
X137795238Y-63147619D01*
X137719047Y-63223809D01*
X137604762Y-63261904D01*
X137414285Y-63261904D01*
X143761905Y-70761904D02*
X143761905Y-69961904D01*
X144295238Y-69961904D02*
X144447619Y-69961904D01*
X144523810Y-70000000D01*
X144600000Y-70076190D01*
X144638095Y-70228571D01*
X144638095Y-70495238D01*
X144600000Y-70647619D01*
X144523810Y-70723809D01*
X144447619Y-70761904D01*
X144295238Y-70761904D01*
X144219048Y-70723809D01*
X144142857Y-70647619D01*
X144104762Y-70495238D01*
X144104762Y-70228571D01*
X144142857Y-70076190D01*
X144219048Y-70000000D01*
X144295238Y-69961904D01*
X143647619Y-62461904D02*
X144104761Y-62461904D01*
X143876190Y-63261904D02*
X143876190Y-62461904D01*
X144828571Y-63185714D02*
X144790476Y-63223809D01*
X144676190Y-63261904D01*
X144600000Y-63261904D01*
X144485714Y-63223809D01*
X144409523Y-63147619D01*
X144371428Y-63071428D01*
X144333333Y-62919047D01*
X144333333Y-62804761D01*
X144371428Y-62652380D01*
X144409523Y-62576190D01*
X144485714Y-62500000D01*
X144600000Y-62461904D01*
X144676190Y-62461904D01*
X144790476Y-62500000D01*
X144828571Y-62538095D01*
X145552380Y-63261904D02*
X145171428Y-63261904D01*
X145171428Y-62461904D01*
X145819047Y-63261904D02*
X145819047Y-62461904D01*
X146276190Y-63261904D02*
X145933333Y-62804761D01*
X146276190Y-62461904D02*
X145819047Y-62919047D01*
X143647619Y-64961904D02*
X144104762Y-64961904D01*
X143876190Y-65761904D02*
X143876190Y-64961904D01*
X144371428Y-65761904D02*
X144371428Y-64961904D01*
X144638095Y-65533333D01*
X144904762Y-64961904D01*
X144904762Y-65761904D01*
X145247619Y-65723809D02*
X145361905Y-65761904D01*
X145552381Y-65761904D01*
X145628571Y-65723809D01*
X145666666Y-65685714D01*
X145704762Y-65609523D01*
X145704762Y-65533333D01*
X145666666Y-65457142D01*
X145628571Y-65419047D01*
X145552381Y-65380952D01*
X145400000Y-65342857D01*
X145323809Y-65304761D01*
X145285714Y-65266666D01*
X145247619Y-65190476D01*
X145247619Y-65114285D01*
X145285714Y-65038095D01*
X145323809Y-65000000D01*
X145400000Y-64961904D01*
X145590476Y-64961904D01*
X145704762Y-65000000D01*
X143647619Y-67561904D02*
X144104762Y-67561904D01*
X143876190Y-68361904D02*
X143876190Y-67561904D01*
X144371428Y-68361904D02*
X144371428Y-67561904D01*
X144561905Y-67561904D01*
X144676190Y-67600000D01*
X144752381Y-67676190D01*
X144790476Y-67752380D01*
X144828571Y-67904761D01*
X144828571Y-68019047D01*
X144790476Y-68171428D01*
X144752381Y-68247619D01*
X144676190Y-68323809D01*
X144561905Y-68361904D01*
X144371428Y-68361904D01*
X145171428Y-68361904D02*
X145171428Y-67561904D01*
X137147619Y-70761904D02*
X136880952Y-70380952D01*
X136690476Y-70761904D02*
X136690476Y-69961904D01*
X136995238Y-69961904D01*
X137071428Y-70000000D01*
X137109524Y-70038095D01*
X137147619Y-70114285D01*
X137147619Y-70228571D01*
X137109524Y-70304761D01*
X137071428Y-70342857D01*
X136995238Y-70380952D01*
X136690476Y-70380952D01*
X137490476Y-70342857D02*
X137757143Y-70342857D01*
X137871428Y-70761904D02*
X137490476Y-70761904D01*
X137490476Y-69961904D01*
X137871428Y-69961904D01*
X135852380Y-67461904D02*
X136309523Y-67461904D01*
X136080952Y-68261904D02*
X136080952Y-67461904D01*
X136576190Y-68261904D02*
X136576190Y-67461904D01*
X136766666Y-67461904D01*
X136880952Y-67500000D01*
X136957142Y-67576190D01*
X136995238Y-67652380D01*
X137033333Y-67804761D01*
X137033333Y-67919047D01*
X136995238Y-68071428D01*
X136957142Y-68147619D01*
X136880952Y-68223809D01*
X136766666Y-68261904D01*
X136576190Y-68261904D01*
X137528571Y-67461904D02*
X137680952Y-67461904D01*
X137757142Y-67500000D01*
X137833333Y-67576190D01*
X137871428Y-67728571D01*
X137871428Y-67995238D01*
X137833333Y-68147619D01*
X137757142Y-68223809D01*
X137680952Y-68261904D01*
X137528571Y-68261904D01*
X137452380Y-68223809D01*
X137376190Y-68147619D01*
X137338095Y-67995238D01*
X137338095Y-67728571D01*
X137376190Y-67576190D01*
X137452380Y-67500000D01*
X137528571Y-67461904D01*
X151933333Y-55633333D02*
X151838095Y-55585713D01*
X151695238Y-55585713D01*
X151552380Y-55633333D01*
X151457142Y-55728571D01*
X151409523Y-55823809D01*
X151361904Y-56014285D01*
X151361904Y-56157142D01*
X151409523Y-56347618D01*
X151457142Y-56442856D01*
X151552380Y-56538094D01*
X151695238Y-56585713D01*
X151790476Y-56585713D01*
X151933333Y-56538094D01*
X151980952Y-56490475D01*
X151980952Y-56157142D01*
X151790476Y-56157142D01*
X152409523Y-56585713D02*
X152409523Y-55585713D01*
X152980952Y-56585713D01*
X152980952Y-55585713D01*
X153457142Y-56585713D02*
X153457142Y-55585713D01*
X153695238Y-55585713D01*
X153838095Y-55633333D01*
X153933333Y-55728571D01*
X153980952Y-55823809D01*
X154028571Y-56014285D01*
X154028571Y-56157142D01*
X153980952Y-56347618D01*
X153933333Y-56442856D01*
X153838095Y-56538094D01*
X153695238Y-56585713D01*
X153457142Y-56585713D01*
X151280953Y-71361904D02*
X151547619Y-72161904D01*
X151814286Y-71361904D01*
X152080953Y-71857142D02*
X152690477Y-71857142D01*
X152385715Y-72161904D02*
X152385715Y-71552380D01*
X151052381Y-66133333D02*
X150976190Y-66095237D01*
X150861905Y-66095237D01*
X150747619Y-66133333D01*
X150671428Y-66209523D01*
X150633333Y-66285713D01*
X150595238Y-66438094D01*
X150595238Y-66552380D01*
X150633333Y-66704761D01*
X150671428Y-66780952D01*
X150747619Y-66857142D01*
X150861905Y-66895237D01*
X150938095Y-66895237D01*
X151052381Y-66857142D01*
X151090476Y-66819047D01*
X151090476Y-66552380D01*
X150938095Y-66552380D01*
X151433333Y-66895237D02*
X151433333Y-66095237D01*
X151890476Y-66895237D01*
X151890476Y-66095237D01*
X152271428Y-66895237D02*
X152271428Y-66095237D01*
X152461905Y-66095237D01*
X152576190Y-66133333D01*
X152652381Y-66209523D01*
X152690476Y-66285713D01*
X152728571Y-66438094D01*
X152728571Y-66552380D01*
X152690476Y-66704761D01*
X152652381Y-66780952D01*
X152576190Y-66857142D01*
X152461905Y-66895237D01*
X152271428Y-66895237D01*
X151280952Y-64185714D02*
X151242857Y-64223809D01*
X151128571Y-64261904D01*
X151052381Y-64261904D01*
X150938095Y-64223809D01*
X150861904Y-64147619D01*
X150823809Y-64071428D01*
X150785714Y-63919047D01*
X150785714Y-63804761D01*
X150823809Y-63652380D01*
X150861904Y-63576190D01*
X150938095Y-63500000D01*
X151052381Y-63461904D01*
X151128571Y-63461904D01*
X151242857Y-63500000D01*
X151280952Y-63538095D01*
X152004762Y-64261904D02*
X151623809Y-64261904D01*
X151623809Y-63461904D01*
X152271428Y-64261904D02*
X152271428Y-63461904D01*
X152728571Y-64261904D02*
X152385714Y-63804761D01*
X152728571Y-63461904D02*
X152271428Y-63919047D01*
X151052381Y-69528570D02*
X151052381Y-68728570D01*
X151242857Y-68728570D01*
X151357143Y-68766666D01*
X151433333Y-68842856D01*
X151471429Y-68919046D01*
X151509524Y-69071427D01*
X151509524Y-69185713D01*
X151471429Y-69338094D01*
X151433333Y-69414285D01*
X151357143Y-69490475D01*
X151242857Y-69528570D01*
X151052381Y-69528570D01*
X151852381Y-69528570D02*
X151852381Y-68728570D01*
X152385714Y-68728570D02*
X152538095Y-68728570D01*
X152614286Y-68766666D01*
X152690476Y-68842856D01*
X152728571Y-68995237D01*
X152728571Y-69261904D01*
X152690476Y-69414285D01*
X152614286Y-69490475D01*
X152538095Y-69528570D01*
X152385714Y-69528570D01*
X152309524Y-69490475D01*
X152233333Y-69414285D01*
X152195238Y-69261904D01*
X152195238Y-68995237D01*
X152233333Y-68842856D01*
X152309524Y-68766666D01*
X152385714Y-68728570D01*
X149483333Y-56552380D02*
X149150000Y-56076190D01*
X148911904Y-56552380D02*
X148911904Y-55552380D01*
X149292857Y-55552380D01*
X149388095Y-55600000D01*
X149435714Y-55647619D01*
X149483333Y-55742857D01*
X149483333Y-55885714D01*
X149435714Y-55980952D01*
X149388095Y-56028571D01*
X149292857Y-56076190D01*
X148911904Y-56076190D01*
X149816666Y-55552380D02*
X150483333Y-56552380D01*
X150483333Y-55552380D02*
X149816666Y-56552380D01*
X146338095Y-55552380D02*
X146909523Y-55552380D01*
X146623809Y-56552380D02*
X146623809Y-55552380D01*
X147147619Y-55552380D02*
X147814285Y-56552380D01*
X147814285Y-55552380D02*
X147147619Y-56552380D01*
D11*
X143500000Y-56500000D02*
X141500000Y-59000000D01*
X141500000Y-54000000D02*
X143500000Y-56500000D01*
X135500000Y-56500000D02*
X143500000Y-56500000D01*
D12*
X135330000Y-74330000D02*
X134000000Y-74330000D01*
X135330000Y-73000000D02*
X135330000Y-74330000D01*
X132730000Y-74330000D02*
X130130000Y-74330000D01*
X132730000Y-71730000D02*
X132730000Y-74330000D01*
X135330000Y-71730000D02*
X132730000Y-71730000D01*
X130130000Y-74330000D02*
X130130000Y-61510000D01*
X135330000Y-71730000D02*
X135330000Y-61510000D01*
X135330000Y-61510000D02*
X130130000Y-61510000D01*
X150330000Y-72870000D02*
X149000000Y-72870000D01*
X150330000Y-71540000D02*
X150330000Y-72870000D01*
X150330000Y-70270000D02*
X147670000Y-70270000D01*
X147670000Y-70270000D02*
X147670000Y-62590000D01*
X150330000Y-70270000D02*
X150330000Y-62590000D01*
X150330000Y-62590000D02*
X147670000Y-62590000D01*
X143330000Y-74330000D02*
X142000000Y-74330000D01*
X143330000Y-73000000D02*
X143330000Y-74330000D01*
X140730000Y-74330000D02*
X138130000Y-74330000D01*
X140730000Y-71730000D02*
X140730000Y-74330000D01*
X143330000Y-71730000D02*
X140730000Y-71730000D01*
X138130000Y-74330000D02*
X138130000Y-61510000D01*
X143330000Y-71730000D02*
X143330000Y-61510000D01*
X143330000Y-61510000D02*
X138130000Y-61510000D01*
X153530000Y-52270000D02*
X153530000Y-53600000D01*
X152200000Y-52270000D02*
X153530000Y-52270000D01*
X150930000Y-52270000D02*
X150930000Y-54930000D01*
X150930000Y-54930000D02*
X145790000Y-54930000D01*
X150930000Y-52270000D02*
X145790000Y-52270000D01*
X145790000Y-52270000D02*
X145790000Y-54930000D01*
X165155000Y-84100000D02*
X162615000Y-84100000D01*
X165155000Y-84100000D02*
X165155000Y-81560000D01*
X164905000Y-83850000D02*
X155555000Y-83850000D01*
X164905000Y-50290000D02*
X164905000Y-83850000D01*
X155555000Y-50290000D02*
X164905000Y-50290000D01*
X155555000Y-83850000D02*
X155555000Y-50290000D01*
M02*
