G04 #@! TF.GenerationSoftware,KiCad,Pcbnew,(5.1.4)-1*
G04 #@! TF.CreationDate,2020-02-29T23:53:27+08:00*
G04 #@! TF.ProjectId,adapter_20p,61646170-7465-4725-9f32-30702e6b6963,rev?*
G04 #@! TF.SameCoordinates,Original*
G04 #@! TF.FileFunction,Copper,L2,Bot*
G04 #@! TF.FilePolarity,Positive*
%FSLAX46Y46*%
G04 Gerber Fmt 4.6, Leading zero omitted, Abs format (unit mm)*
G04 Created by KiCad (PCBNEW (5.1.4)-1) date 2020-02-29 23:53:27*
%MOMM*%
%LPD*%
G04 APERTURE LIST*
%ADD10O,1.700000X1.700000*%
%ADD11R,1.700000X1.700000*%
%ADD12O,1.727200X1.727200*%
%ADD13R,1.727200X1.727200*%
%ADD14C,0.800000*%
%ADD15C,0.250000*%
%ADD16C,0.254000*%
%ADD17C,0.025400*%
G04 APERTURE END LIST*
D10*
X131460000Y-62840000D03*
X134000000Y-62840000D03*
X131460000Y-65380000D03*
X134000000Y-65380000D03*
X131460000Y-67920000D03*
X134000000Y-67920000D03*
X131460000Y-70460000D03*
X134000000Y-70460000D03*
X131460000Y-73000000D03*
D11*
X134000000Y-73000000D03*
D10*
X149000000Y-63920000D03*
X149000000Y-66460000D03*
X149000000Y-69000000D03*
D11*
X149000000Y-71540000D03*
D10*
X139460000Y-62840000D03*
X142000000Y-62840000D03*
X139460000Y-65380000D03*
X142000000Y-65380000D03*
X139460000Y-67920000D03*
X142000000Y-67920000D03*
X139460000Y-70460000D03*
X142000000Y-70460000D03*
X139460000Y-73000000D03*
D11*
X142000000Y-73000000D03*
D10*
X147120000Y-53600000D03*
X149660000Y-53600000D03*
D11*
X152200000Y-53600000D03*
D12*
X158960000Y-55640000D03*
X161500000Y-55640000D03*
X158960000Y-58180000D03*
X161500000Y-58180000D03*
X158960000Y-60720000D03*
X161500000Y-60720000D03*
X158960000Y-63260000D03*
X161500000Y-63260000D03*
X158960000Y-65800000D03*
X161500000Y-65800000D03*
X158960000Y-68340000D03*
X161500000Y-68340000D03*
X158960000Y-70880000D03*
X161500000Y-70880000D03*
X158960000Y-73420000D03*
X161500000Y-73420000D03*
X158960000Y-75960000D03*
X161500000Y-75960000D03*
X158960000Y-78500000D03*
D13*
X161500000Y-78500000D03*
D14*
X133000000Y-60000000D03*
D15*
X131460000Y-65380000D02*
X132700000Y-66620000D01*
X132700000Y-68359002D02*
X133540998Y-69200000D01*
X132700000Y-66620000D02*
X132700000Y-68359002D01*
X138180000Y-69200000D02*
X139460000Y-67920000D01*
X133540998Y-69200000D02*
X138180000Y-69200000D01*
X161500000Y-63260000D02*
X160260000Y-64500000D01*
X160260000Y-64500000D02*
X153150000Y-64500000D01*
X153150000Y-64500000D02*
X149950000Y-67700000D01*
X149950000Y-67700000D02*
X145450000Y-67700000D01*
X145450000Y-67700000D02*
X144000000Y-69150000D01*
X140690000Y-69150000D02*
X139460000Y-67920000D01*
X144000000Y-69150000D02*
X140690000Y-69150000D01*
X141150001Y-66229999D02*
X142000000Y-65380000D01*
X140635001Y-66744999D02*
X141150001Y-66229999D01*
X135175001Y-66744999D02*
X140635001Y-66744999D01*
X134000000Y-67920000D02*
X135175001Y-66744999D01*
X139460000Y-70460000D02*
X140700000Y-71700000D01*
X140700000Y-71700000D02*
X145150000Y-71700000D01*
X145150000Y-71700000D02*
X154100000Y-80650000D01*
X154100000Y-80650000D02*
X162350000Y-80650000D01*
X162350000Y-80650000D02*
X163550000Y-79450000D01*
X163550000Y-62770000D02*
X161500000Y-60720000D01*
X163550000Y-79450000D02*
X163550000Y-62770000D01*
X142160000Y-70300000D02*
X142000000Y-70460000D01*
X154750000Y-74700000D02*
X150350000Y-70300000D01*
X161500000Y-75960000D02*
X160240000Y-74700000D01*
X150350000Y-70300000D02*
X142160000Y-70300000D01*
X160240000Y-74700000D02*
X154750000Y-74700000D01*
X158960000Y-56861314D02*
X158960000Y-63260000D01*
X158960000Y-55640000D02*
X158960000Y-56861314D01*
X158960000Y-65800000D02*
X158960000Y-70880000D01*
X158960000Y-72198686D02*
X158960000Y-70880000D01*
X158960000Y-73420000D02*
X158960000Y-72198686D01*
X156920000Y-53600000D02*
X158960000Y-55640000D01*
X152200000Y-53600000D02*
X156920000Y-53600000D01*
X152200000Y-54700000D02*
X146900000Y-60000000D01*
X152200000Y-53600000D02*
X152200000Y-54700000D01*
X146900000Y-60000000D02*
X133000000Y-60000000D01*
X160000000Y-77200000D02*
X161300000Y-78500000D01*
X161300000Y-78500000D02*
X161500000Y-78500000D01*
X155760000Y-77200000D02*
X160000000Y-77200000D01*
X149000000Y-71540000D02*
X150100000Y-71540000D01*
X150100000Y-71540000D02*
X155760000Y-77200000D01*
D16*
G36*
X146646637Y-52457202D02*
G01*
X146432784Y-52571509D01*
X146245340Y-52725340D01*
X146091509Y-52912784D01*
X145977202Y-53126637D01*
X145906812Y-53358682D01*
X145883044Y-53600000D01*
X145906812Y-53841318D01*
X145977202Y-54073363D01*
X146091509Y-54287216D01*
X146245340Y-54474660D01*
X146432784Y-54628491D01*
X146646637Y-54742798D01*
X146878682Y-54813188D01*
X147059528Y-54831000D01*
X147180472Y-54831000D01*
X147361318Y-54813188D01*
X147593363Y-54742798D01*
X147807216Y-54628491D01*
X147994660Y-54474660D01*
X148148491Y-54287216D01*
X148262798Y-54073363D01*
X148333188Y-53841318D01*
X148356956Y-53600000D01*
X148333188Y-53358682D01*
X148262798Y-53126637D01*
X148148491Y-52912784D01*
X147994660Y-52725340D01*
X147807216Y-52571509D01*
X147593363Y-52457202D01*
X147506986Y-52431000D01*
X149273014Y-52431000D01*
X149186637Y-52457202D01*
X148972784Y-52571509D01*
X148785340Y-52725340D01*
X148631509Y-52912784D01*
X148517202Y-53126637D01*
X148446812Y-53358682D01*
X148423044Y-53600000D01*
X148446812Y-53841318D01*
X148517202Y-54073363D01*
X148631509Y-54287216D01*
X148785340Y-54474660D01*
X148972784Y-54628491D01*
X149186637Y-54742798D01*
X149418682Y-54813188D01*
X149599528Y-54831000D01*
X149720472Y-54831000D01*
X149901318Y-54813188D01*
X150133363Y-54742798D01*
X150347216Y-54628491D01*
X150534660Y-54474660D01*
X150688491Y-54287216D01*
X150713065Y-54241242D01*
X150711928Y-54450000D01*
X150724188Y-54574482D01*
X150760498Y-54694180D01*
X150819463Y-54804494D01*
X150898815Y-54901185D01*
X150995506Y-54980537D01*
X151105820Y-55039502D01*
X151225518Y-55075812D01*
X151350000Y-55088072D01*
X151914250Y-55085000D01*
X152073000Y-54926250D01*
X152073000Y-53918404D01*
X152327000Y-54064845D01*
X152327000Y-54926250D01*
X152485750Y-55085000D01*
X153050000Y-55088072D01*
X153174482Y-55075812D01*
X153294180Y-55039502D01*
X153404494Y-54980537D01*
X153501185Y-54901185D01*
X153580537Y-54804494D01*
X153639502Y-54694180D01*
X153675812Y-54574482D01*
X153688072Y-54450000D01*
X153685000Y-53885750D01*
X153674450Y-53875200D01*
X153704716Y-53869529D01*
X153825090Y-53856459D01*
X153954737Y-53851922D01*
X153975071Y-53849560D01*
X153998896Y-53842333D01*
X154020852Y-53830597D01*
X154040098Y-53814803D01*
X154055892Y-53795557D01*
X154067628Y-53773601D01*
X154074855Y-53749776D01*
X154077295Y-53725000D01*
X154077295Y-53475000D01*
X154075645Y-53454595D01*
X154069256Y-53430533D01*
X154058295Y-53408179D01*
X154043183Y-53388393D01*
X154024503Y-53371936D01*
X154002970Y-53359439D01*
X153979413Y-53351383D01*
X153954737Y-53348078D01*
X153825090Y-53343541D01*
X153704716Y-53330471D01*
X153674450Y-53324800D01*
X153685000Y-53314250D01*
X153688072Y-52750000D01*
X153675812Y-52625518D01*
X153639502Y-52505820D01*
X153599509Y-52431000D01*
X160978921Y-52431000D01*
X161692819Y-52500998D01*
X162359257Y-52702208D01*
X162973911Y-53029026D01*
X163513384Y-53469009D01*
X163957123Y-54005398D01*
X164288225Y-54617760D01*
X164494079Y-55282768D01*
X164568982Y-55995414D01*
X164569000Y-56000634D01*
X164569001Y-77978911D01*
X164499002Y-78692819D01*
X164297793Y-79359255D01*
X163970975Y-79973911D01*
X163530989Y-80513386D01*
X162994602Y-80957123D01*
X162382245Y-81288223D01*
X161717232Y-81494079D01*
X161004586Y-81568982D01*
X160999367Y-81569000D01*
X134021079Y-81569000D01*
X133307181Y-81499002D01*
X132640745Y-81297793D01*
X132026089Y-80970975D01*
X131486614Y-80530989D01*
X131042877Y-79994602D01*
X130711777Y-79382245D01*
X130505921Y-78717232D01*
X130431018Y-78004586D01*
X130431000Y-77999367D01*
X130431000Y-74062093D01*
X130578645Y-74195178D01*
X130828748Y-74344157D01*
X131103109Y-74441481D01*
X131333000Y-74320814D01*
X131333000Y-73127000D01*
X131313000Y-73127000D01*
X131313000Y-72873000D01*
X131333000Y-72873000D01*
X131333000Y-72853000D01*
X131587000Y-72853000D01*
X131587000Y-72873000D01*
X131607000Y-72873000D01*
X131607000Y-73127000D01*
X131587000Y-73127000D01*
X131587000Y-74320814D01*
X131816891Y-74441481D01*
X132091252Y-74344157D01*
X132341355Y-74195178D01*
X132557588Y-74000269D01*
X132731641Y-73766920D01*
X132767157Y-73692355D01*
X132767157Y-73850000D01*
X132774513Y-73924689D01*
X132796299Y-73996508D01*
X132831678Y-74062696D01*
X132879289Y-74120711D01*
X132937304Y-74168322D01*
X133003492Y-74203701D01*
X133075311Y-74225487D01*
X133150000Y-74232843D01*
X134850000Y-74232843D01*
X134924689Y-74225487D01*
X134996508Y-74203701D01*
X135062696Y-74168322D01*
X135120711Y-74120711D01*
X135168322Y-74062696D01*
X135203701Y-73996508D01*
X135225487Y-73924689D01*
X135232843Y-73850000D01*
X135232843Y-73000000D01*
X138223044Y-73000000D01*
X138246812Y-73241318D01*
X138317202Y-73473363D01*
X138431509Y-73687216D01*
X138585340Y-73874660D01*
X138772784Y-74028491D01*
X138986637Y-74142798D01*
X139218682Y-74213188D01*
X139399528Y-74231000D01*
X139520472Y-74231000D01*
X139701318Y-74213188D01*
X139933363Y-74142798D01*
X140147216Y-74028491D01*
X140334660Y-73874660D01*
X140488491Y-73687216D01*
X140602798Y-73473363D01*
X140673188Y-73241318D01*
X140696956Y-73000000D01*
X140673188Y-72758682D01*
X140602798Y-72526637D01*
X140488491Y-72312784D01*
X140334660Y-72125340D01*
X140147216Y-71971509D01*
X139933363Y-71857202D01*
X139701318Y-71786812D01*
X139520472Y-71769000D01*
X139399528Y-71769000D01*
X139218682Y-71786812D01*
X138986637Y-71857202D01*
X138772784Y-71971509D01*
X138585340Y-72125340D01*
X138431509Y-72312784D01*
X138317202Y-72526637D01*
X138246812Y-72758682D01*
X138223044Y-73000000D01*
X135232843Y-73000000D01*
X135232843Y-72150000D01*
X135225487Y-72075311D01*
X135203701Y-72003492D01*
X135168322Y-71937304D01*
X135120711Y-71879289D01*
X135062696Y-71831678D01*
X134996508Y-71796299D01*
X134924689Y-71774513D01*
X134850000Y-71767157D01*
X133150000Y-71767157D01*
X133075311Y-71774513D01*
X133003492Y-71796299D01*
X132937304Y-71831678D01*
X132879289Y-71879289D01*
X132831678Y-71937304D01*
X132796299Y-72003492D01*
X132774513Y-72075311D01*
X132767157Y-72150000D01*
X132767157Y-72307645D01*
X132731641Y-72233080D01*
X132557588Y-71999731D01*
X132341355Y-71804822D01*
X132091252Y-71655843D01*
X131936695Y-71601017D01*
X132147216Y-71488491D01*
X132334660Y-71334660D01*
X132488491Y-71147216D01*
X132602798Y-70933363D01*
X132673188Y-70701318D01*
X132696956Y-70460000D01*
X132673188Y-70218682D01*
X132602798Y-69986637D01*
X132488491Y-69772784D01*
X132334660Y-69585340D01*
X132147216Y-69431509D01*
X131933363Y-69317202D01*
X131701318Y-69246812D01*
X131520472Y-69229000D01*
X131399528Y-69229000D01*
X131218682Y-69246812D01*
X130986637Y-69317202D01*
X130772784Y-69431509D01*
X130585340Y-69585340D01*
X130431509Y-69772784D01*
X130431000Y-69773736D01*
X130431000Y-68606264D01*
X130431509Y-68607216D01*
X130585340Y-68794660D01*
X130772784Y-68948491D01*
X130986637Y-69062798D01*
X131218682Y-69133188D01*
X131399528Y-69151000D01*
X131520472Y-69151000D01*
X131701318Y-69133188D01*
X131933363Y-69062798D01*
X132147216Y-68948491D01*
X132334660Y-68794660D01*
X132373158Y-68747751D01*
X133165626Y-69540220D01*
X133171539Y-69547425D01*
X133125340Y-69585340D01*
X132971509Y-69772784D01*
X132857202Y-69986637D01*
X132786812Y-70218682D01*
X132763044Y-70460000D01*
X132786812Y-70701318D01*
X132857202Y-70933363D01*
X132971509Y-71147216D01*
X133125340Y-71334660D01*
X133312784Y-71488491D01*
X133526637Y-71602798D01*
X133758682Y-71673188D01*
X133939528Y-71691000D01*
X134060472Y-71691000D01*
X134241318Y-71673188D01*
X134473363Y-71602798D01*
X134687216Y-71488491D01*
X134874660Y-71334660D01*
X135028491Y-71147216D01*
X135142798Y-70933363D01*
X135213188Y-70701318D01*
X135236956Y-70460000D01*
X135213188Y-70218682D01*
X135142798Y-69986637D01*
X135028491Y-69772784D01*
X134973683Y-69706000D01*
X138155154Y-69706000D01*
X138180000Y-69708447D01*
X138204846Y-69706000D01*
X138204854Y-69706000D01*
X138279193Y-69698678D01*
X138374575Y-69669745D01*
X138462479Y-69622759D01*
X138539527Y-69559527D01*
X138555376Y-69540215D01*
X138575445Y-69520146D01*
X138658645Y-69442572D01*
X138738132Y-69378656D01*
X138818680Y-69323529D01*
X138900536Y-69276674D01*
X138984099Y-69237616D01*
X139069886Y-69205979D01*
X139158522Y-69181522D01*
X139250668Y-69164160D01*
X139346942Y-69153981D01*
X139455196Y-69151000D01*
X139464945Y-69151000D01*
X139573390Y-69153924D01*
X139669797Y-69163961D01*
X139761804Y-69181063D01*
X139850050Y-69205126D01*
X139935163Y-69236192D01*
X140017767Y-69274470D01*
X140098425Y-69320321D01*
X140177574Y-69374216D01*
X140255447Y-69436638D01*
X140319978Y-69496739D01*
X140330473Y-69509527D01*
X140407521Y-69572759D01*
X140494757Y-69619388D01*
X140495425Y-69619745D01*
X140590807Y-69648678D01*
X140690000Y-69658448D01*
X140714854Y-69656000D01*
X141067351Y-69656000D01*
X140971509Y-69772784D01*
X140857202Y-69986637D01*
X140786812Y-70218682D01*
X140763044Y-70460000D01*
X140786812Y-70701318D01*
X140857202Y-70933363D01*
X140971509Y-71147216D01*
X141009904Y-71194000D01*
X140928412Y-71194000D01*
X140918656Y-71181867D01*
X140863529Y-71101319D01*
X140816674Y-71019463D01*
X140777616Y-70935900D01*
X140745979Y-70850113D01*
X140721522Y-70761477D01*
X140704160Y-70669331D01*
X140693981Y-70573057D01*
X140692198Y-70508308D01*
X140696956Y-70460000D01*
X140673188Y-70218682D01*
X140602798Y-69986637D01*
X140488491Y-69772784D01*
X140334660Y-69585340D01*
X140147216Y-69431509D01*
X139933363Y-69317202D01*
X139701318Y-69246812D01*
X139520472Y-69229000D01*
X139399528Y-69229000D01*
X139218682Y-69246812D01*
X138986637Y-69317202D01*
X138772784Y-69431509D01*
X138585340Y-69585340D01*
X138431509Y-69772784D01*
X138317202Y-69986637D01*
X138246812Y-70218682D01*
X138223044Y-70460000D01*
X138246812Y-70701318D01*
X138317202Y-70933363D01*
X138431509Y-71147216D01*
X138585340Y-71334660D01*
X138772784Y-71488491D01*
X138986637Y-71602798D01*
X139218682Y-71673188D01*
X139399528Y-71691000D01*
X139464804Y-71691000D01*
X139573057Y-71693981D01*
X139669331Y-71704160D01*
X139761477Y-71721522D01*
X139850113Y-71745979D01*
X139935900Y-71777616D01*
X140019463Y-71816674D01*
X140101319Y-71863529D01*
X140181867Y-71918656D01*
X140261346Y-71982566D01*
X140329339Y-72045961D01*
X140340473Y-72059527D01*
X140417521Y-72122759D01*
X140486655Y-72159712D01*
X140505425Y-72169745D01*
X140600807Y-72198678D01*
X140700000Y-72208448D01*
X140724854Y-72206000D01*
X140767157Y-72206000D01*
X140767157Y-73850000D01*
X140774513Y-73924689D01*
X140796299Y-73996508D01*
X140831678Y-74062696D01*
X140879289Y-74120711D01*
X140937304Y-74168322D01*
X141003492Y-74203701D01*
X141075311Y-74225487D01*
X141150000Y-74232843D01*
X142850000Y-74232843D01*
X142924689Y-74225487D01*
X142996508Y-74203701D01*
X143062696Y-74168322D01*
X143120711Y-74120711D01*
X143168322Y-74062696D01*
X143203701Y-73996508D01*
X143225487Y-73924689D01*
X143232843Y-73850000D01*
X143232843Y-72206000D01*
X144940409Y-72206000D01*
X153724628Y-80990220D01*
X153740473Y-81009527D01*
X153817521Y-81072759D01*
X153905425Y-81119745D01*
X153978607Y-81141944D01*
X154000806Y-81148678D01*
X154010694Y-81149652D01*
X154075146Y-81156000D01*
X154075153Y-81156000D01*
X154099999Y-81158447D01*
X154124845Y-81156000D01*
X162325154Y-81156000D01*
X162350000Y-81158447D01*
X162374846Y-81156000D01*
X162374854Y-81156000D01*
X162449193Y-81148678D01*
X162544575Y-81119745D01*
X162632479Y-81072759D01*
X162709527Y-81009527D01*
X162725376Y-80990215D01*
X163890220Y-79825372D01*
X163909527Y-79809527D01*
X163972759Y-79732479D01*
X164019745Y-79644575D01*
X164048678Y-79549193D01*
X164056000Y-79474854D01*
X164056000Y-79474847D01*
X164058447Y-79450001D01*
X164056000Y-79425155D01*
X164056000Y-62794854D01*
X164058448Y-62770000D01*
X164048678Y-62670807D01*
X164019745Y-62575425D01*
X164014275Y-62565192D01*
X163972759Y-62487521D01*
X163909527Y-62410473D01*
X163890220Y-62394628D01*
X163123370Y-61627778D01*
X163043943Y-61542591D01*
X162978368Y-61461039D01*
X162921783Y-61378361D01*
X162873672Y-61294308D01*
X162833554Y-61208474D01*
X162801057Y-61120351D01*
X162775933Y-61029297D01*
X162758100Y-60934648D01*
X162747652Y-60835827D01*
X162745809Y-60768873D01*
X162750622Y-60720000D01*
X162726592Y-60476016D01*
X162655424Y-60241408D01*
X162539854Y-60025192D01*
X162384323Y-59835677D01*
X162194808Y-59680146D01*
X161978592Y-59564576D01*
X161743984Y-59493408D01*
X161561143Y-59475400D01*
X161438857Y-59475400D01*
X161256016Y-59493408D01*
X161021408Y-59564576D01*
X160805192Y-59680146D01*
X160615677Y-59835677D01*
X160460146Y-60025192D01*
X160365468Y-60202321D01*
X160242684Y-59945056D01*
X160066854Y-59709707D01*
X159848488Y-59513183D01*
X159742230Y-59450000D01*
X159848488Y-59386817D01*
X160066854Y-59190293D01*
X160242684Y-58954944D01*
X160365468Y-58697679D01*
X160460146Y-58874808D01*
X160615677Y-59064323D01*
X160805192Y-59219854D01*
X161021408Y-59335424D01*
X161256016Y-59406592D01*
X161438857Y-59424600D01*
X161561143Y-59424600D01*
X161743984Y-59406592D01*
X161978592Y-59335424D01*
X162194808Y-59219854D01*
X162384323Y-59064323D01*
X162539854Y-58874808D01*
X162655424Y-58658592D01*
X162726592Y-58423984D01*
X162750622Y-58180000D01*
X162726592Y-57936016D01*
X162655424Y-57701408D01*
X162539854Y-57485192D01*
X162384323Y-57295677D01*
X162194808Y-57140146D01*
X161978592Y-57024576D01*
X161743984Y-56953408D01*
X161561143Y-56935400D01*
X161438857Y-56935400D01*
X161256016Y-56953408D01*
X161021408Y-57024576D01*
X160805192Y-57140146D01*
X160615677Y-57295677D01*
X160460146Y-57485192D01*
X160365468Y-57662321D01*
X160242684Y-57405056D01*
X160066854Y-57169707D01*
X159848488Y-56973183D01*
X159742230Y-56910000D01*
X159848488Y-56846817D01*
X160066854Y-56650293D01*
X160242684Y-56414944D01*
X160365468Y-56157679D01*
X160460146Y-56334808D01*
X160615677Y-56524323D01*
X160805192Y-56679854D01*
X161021408Y-56795424D01*
X161256016Y-56866592D01*
X161438857Y-56884600D01*
X161561143Y-56884600D01*
X161743984Y-56866592D01*
X161978592Y-56795424D01*
X162194808Y-56679854D01*
X162384323Y-56524323D01*
X162539854Y-56334808D01*
X162655424Y-56118592D01*
X162726592Y-55883984D01*
X162750622Y-55640000D01*
X162726592Y-55396016D01*
X162655424Y-55161408D01*
X162539854Y-54945192D01*
X162384323Y-54755677D01*
X162194808Y-54600146D01*
X161978592Y-54484576D01*
X161743984Y-54413408D01*
X161561143Y-54395400D01*
X161438857Y-54395400D01*
X161256016Y-54413408D01*
X161021408Y-54484576D01*
X160805192Y-54600146D01*
X160615677Y-54755677D01*
X160460146Y-54945192D01*
X160365468Y-55122321D01*
X160242684Y-54865056D01*
X160066854Y-54629707D01*
X159848488Y-54433183D01*
X159595978Y-54283036D01*
X159319027Y-54185037D01*
X159087000Y-54305536D01*
X159087000Y-54791835D01*
X159074017Y-54743499D01*
X159069990Y-54731092D01*
X159058863Y-54708820D01*
X159043605Y-54689148D01*
X159024802Y-54672830D01*
X159003177Y-54660494D01*
X158979560Y-54652614D01*
X158954860Y-54649492D01*
X158833000Y-54646136D01*
X158833000Y-54305536D01*
X158600973Y-54185037D01*
X158324022Y-54283036D01*
X158122077Y-54403116D01*
X158067416Y-54365706D01*
X157971006Y-54288183D01*
X157874134Y-54197862D01*
X157858084Y-54185153D01*
X157836128Y-54173417D01*
X157812303Y-54166190D01*
X157787527Y-54163750D01*
X157762751Y-54166190D01*
X157738926Y-54173417D01*
X157716970Y-54185153D01*
X157697724Y-54200947D01*
X157520947Y-54377724D01*
X157507686Y-54393319D01*
X157495189Y-54414852D01*
X157487133Y-54438409D01*
X157483828Y-54463085D01*
X157485400Y-54487932D01*
X157491789Y-54511994D01*
X157502750Y-54534348D01*
X157517862Y-54554134D01*
X157608183Y-54651006D01*
X157685706Y-54747416D01*
X157723714Y-54802952D01*
X157677316Y-54865056D01*
X157550778Y-55130186D01*
X157505042Y-55280974D01*
X157626183Y-55513000D01*
X157966136Y-55513000D01*
X157969492Y-55634860D01*
X157970520Y-55647864D01*
X157976159Y-55672114D01*
X157986420Y-55694797D01*
X158000909Y-55715043D01*
X158019070Y-55732073D01*
X158040204Y-55745233D01*
X158063499Y-55754017D01*
X158111835Y-55767000D01*
X157626183Y-55767000D01*
X157505042Y-55999026D01*
X157550778Y-56149814D01*
X157677316Y-56414944D01*
X157853146Y-56650293D01*
X158071512Y-56846817D01*
X158177770Y-56910000D01*
X158071512Y-56973183D01*
X157853146Y-57169707D01*
X157677316Y-57405056D01*
X157550778Y-57670186D01*
X157505042Y-57820974D01*
X157626183Y-58053000D01*
X158833000Y-58053000D01*
X158833000Y-58033000D01*
X159087000Y-58033000D01*
X159087000Y-58053000D01*
X159107000Y-58053000D01*
X159107000Y-58307000D01*
X159087000Y-58307000D01*
X159087000Y-60593000D01*
X159107000Y-60593000D01*
X159107000Y-60847000D01*
X159087000Y-60847000D01*
X159087000Y-60867000D01*
X158833000Y-60867000D01*
X158833000Y-60847000D01*
X157626183Y-60847000D01*
X157505042Y-61079026D01*
X157550778Y-61229814D01*
X157677316Y-61494944D01*
X157853146Y-61730293D01*
X158071512Y-61926817D01*
X158177770Y-61990000D01*
X158071512Y-62053183D01*
X157853146Y-62249707D01*
X157677316Y-62485056D01*
X157550778Y-62750186D01*
X157505042Y-62900974D01*
X157626183Y-63133000D01*
X158491235Y-63133000D01*
X158637675Y-63387000D01*
X157626183Y-63387000D01*
X157505042Y-63619026D01*
X157550778Y-63769814D01*
X157657775Y-63994000D01*
X153174845Y-63994000D01*
X153149999Y-63991553D01*
X153125153Y-63994000D01*
X153125146Y-63994000D01*
X153060694Y-64000348D01*
X153050806Y-64001322D01*
X153028607Y-64008056D01*
X152955425Y-64030255D01*
X152867521Y-64077241D01*
X152790473Y-64140473D01*
X152774629Y-64159779D01*
X150485000Y-66449408D01*
X150485000Y-66332998D01*
X150320156Y-66332998D01*
X150441476Y-66103110D01*
X150396825Y-65955901D01*
X150271641Y-65693080D01*
X150097588Y-65459731D01*
X149881355Y-65264822D01*
X149631252Y-65115843D01*
X149476695Y-65061017D01*
X149687216Y-64948491D01*
X149874660Y-64794660D01*
X150028491Y-64607216D01*
X150142798Y-64393363D01*
X150213188Y-64161318D01*
X150236956Y-63920000D01*
X150213188Y-63678682D01*
X150142798Y-63446637D01*
X150028491Y-63232784D01*
X149874660Y-63045340D01*
X149687216Y-62891509D01*
X149473363Y-62777202D01*
X149241318Y-62706812D01*
X149060472Y-62689000D01*
X148939528Y-62689000D01*
X148758682Y-62706812D01*
X148526637Y-62777202D01*
X148312784Y-62891509D01*
X148125340Y-63045340D01*
X147971509Y-63232784D01*
X147857202Y-63446637D01*
X147786812Y-63678682D01*
X147763044Y-63920000D01*
X147786812Y-64161318D01*
X147857202Y-64393363D01*
X147971509Y-64607216D01*
X148125340Y-64794660D01*
X148312784Y-64948491D01*
X148523305Y-65061017D01*
X148368748Y-65115843D01*
X148118645Y-65264822D01*
X147902412Y-65459731D01*
X147728359Y-65693080D01*
X147603175Y-65955901D01*
X147558524Y-66103110D01*
X147679845Y-66333000D01*
X148873000Y-66333000D01*
X148873000Y-66313000D01*
X149127000Y-66313000D01*
X149127000Y-66333000D01*
X149147000Y-66333000D01*
X149147000Y-66587000D01*
X149127000Y-66587000D01*
X149127000Y-66607000D01*
X148873000Y-66607000D01*
X148873000Y-66587000D01*
X147679845Y-66587000D01*
X147558524Y-66816890D01*
X147603175Y-66964099D01*
X147712679Y-67194000D01*
X145474854Y-67194000D01*
X145450000Y-67191552D01*
X145425146Y-67194000D01*
X145350807Y-67201322D01*
X145255425Y-67230255D01*
X145167521Y-67277241D01*
X145090473Y-67340473D01*
X145074629Y-67359779D01*
X143790409Y-68644000D01*
X142998303Y-68644000D01*
X143028491Y-68607216D01*
X143142798Y-68393363D01*
X143213188Y-68161318D01*
X143236956Y-67920000D01*
X143213188Y-67678682D01*
X143142798Y-67446637D01*
X143028491Y-67232784D01*
X142874660Y-67045340D01*
X142687216Y-66891509D01*
X142473363Y-66777202D01*
X142241318Y-66706812D01*
X142060472Y-66689000D01*
X141939528Y-66689000D01*
X141758682Y-66706812D01*
X141526637Y-66777202D01*
X141312784Y-66891509D01*
X141125340Y-67045340D01*
X140971509Y-67232784D01*
X140857202Y-67446637D01*
X140786812Y-67678682D01*
X140763044Y-67920000D01*
X140786812Y-68161318D01*
X140857202Y-68393363D01*
X140971509Y-68607216D01*
X141001697Y-68644000D01*
X140919367Y-68644000D01*
X140914216Y-68637574D01*
X140860321Y-68558425D01*
X140814470Y-68477767D01*
X140776192Y-68395163D01*
X140745126Y-68310050D01*
X140721063Y-68221804D01*
X140703961Y-68129797D01*
X140693924Y-68033390D01*
X140692175Y-67968538D01*
X140696956Y-67920000D01*
X140673188Y-67678682D01*
X140602798Y-67446637D01*
X140498227Y-67250999D01*
X140610155Y-67250999D01*
X140635001Y-67253446D01*
X140659847Y-67250999D01*
X140659855Y-67250999D01*
X140734194Y-67243677D01*
X140829576Y-67214744D01*
X140917480Y-67167758D01*
X140994528Y-67104526D01*
X141010377Y-67085214D01*
X141459304Y-66636288D01*
X141469228Y-66634268D01*
X141519224Y-66627194D01*
X141585398Y-66620795D01*
X141666213Y-66615716D01*
X141760560Y-66612283D01*
X141867946Y-66610663D01*
X141937801Y-66610830D01*
X141939528Y-66611000D01*
X142060472Y-66611000D01*
X142241318Y-66593188D01*
X142473363Y-66522798D01*
X142687216Y-66408491D01*
X142874660Y-66254660D01*
X143028491Y-66067216D01*
X143142798Y-65853363D01*
X143213188Y-65621318D01*
X143236956Y-65380000D01*
X143213188Y-65138682D01*
X143142798Y-64906637D01*
X143028491Y-64692784D01*
X142874660Y-64505340D01*
X142687216Y-64351509D01*
X142473363Y-64237202D01*
X142241318Y-64166812D01*
X142060472Y-64149000D01*
X141939528Y-64149000D01*
X141758682Y-64166812D01*
X141526637Y-64237202D01*
X141312784Y-64351509D01*
X141125340Y-64505340D01*
X140971509Y-64692784D01*
X140857202Y-64906637D01*
X140786812Y-65138682D01*
X140763044Y-65380000D01*
X140769170Y-65442194D01*
X140769336Y-65512051D01*
X140767716Y-65619439D01*
X140764283Y-65713786D01*
X140759204Y-65794604D01*
X140752806Y-65860771D01*
X140745731Y-65910773D01*
X140743711Y-65920697D01*
X140425410Y-66238999D01*
X140347513Y-66238999D01*
X140488491Y-66067216D01*
X140602798Y-65853363D01*
X140673188Y-65621318D01*
X140696956Y-65380000D01*
X140673188Y-65138682D01*
X140602798Y-64906637D01*
X140488491Y-64692784D01*
X140334660Y-64505340D01*
X140147216Y-64351509D01*
X139936695Y-64238983D01*
X140091252Y-64184157D01*
X140341355Y-64035178D01*
X140557588Y-63840269D01*
X140731641Y-63606920D01*
X140856825Y-63344099D01*
X140862909Y-63324040D01*
X140971509Y-63527216D01*
X141125340Y-63714660D01*
X141312784Y-63868491D01*
X141526637Y-63982798D01*
X141758682Y-64053188D01*
X141939528Y-64071000D01*
X142060472Y-64071000D01*
X142241318Y-64053188D01*
X142473363Y-63982798D01*
X142687216Y-63868491D01*
X142874660Y-63714660D01*
X143028491Y-63527216D01*
X143142798Y-63313363D01*
X143213188Y-63081318D01*
X143236956Y-62840000D01*
X143213188Y-62598682D01*
X143142798Y-62366637D01*
X143028491Y-62152784D01*
X142874660Y-61965340D01*
X142687216Y-61811509D01*
X142473363Y-61697202D01*
X142241318Y-61626812D01*
X142060472Y-61609000D01*
X141939528Y-61609000D01*
X141758682Y-61626812D01*
X141526637Y-61697202D01*
X141312784Y-61811509D01*
X141125340Y-61965340D01*
X140971509Y-62152784D01*
X140862909Y-62355960D01*
X140856825Y-62335901D01*
X140731641Y-62073080D01*
X140557588Y-61839731D01*
X140341355Y-61644822D01*
X140091252Y-61495843D01*
X139816891Y-61398519D01*
X139587000Y-61519186D01*
X139587000Y-62713000D01*
X139607000Y-62713000D01*
X139607000Y-62967000D01*
X139587000Y-62967000D01*
X139587000Y-62987000D01*
X139333000Y-62987000D01*
X139333000Y-62967000D01*
X138139845Y-62967000D01*
X138018524Y-63196890D01*
X138063175Y-63344099D01*
X138188359Y-63606920D01*
X138362412Y-63840269D01*
X138578645Y-64035178D01*
X138828748Y-64184157D01*
X138983305Y-64238983D01*
X138772784Y-64351509D01*
X138585340Y-64505340D01*
X138431509Y-64692784D01*
X138317202Y-64906637D01*
X138246812Y-65138682D01*
X138223044Y-65380000D01*
X138246812Y-65621318D01*
X138317202Y-65853363D01*
X138431509Y-66067216D01*
X138572487Y-66238999D01*
X135199846Y-66238999D01*
X135175000Y-66236552D01*
X135150154Y-66238999D01*
X135150147Y-66238999D01*
X135085695Y-66245347D01*
X135075807Y-66246321D01*
X135053608Y-66253055D01*
X134980426Y-66275254D01*
X134892522Y-66322240D01*
X134815474Y-66385472D01*
X134805611Y-66397490D01*
X134753328Y-66445749D01*
X134687193Y-66497416D01*
X134618382Y-66542382D01*
X134546340Y-66581127D01*
X134470446Y-66613960D01*
X134390047Y-66641012D01*
X134304495Y-66662256D01*
X134213238Y-66677512D01*
X134115876Y-66686493D01*
X134006028Y-66689000D01*
X133939528Y-66689000D01*
X133758682Y-66706812D01*
X133526637Y-66777202D01*
X133312784Y-66891509D01*
X133206000Y-66979144D01*
X133206000Y-66644854D01*
X133208448Y-66620000D01*
X133198678Y-66520807D01*
X133169745Y-66425425D01*
X133162044Y-66411018D01*
X133122759Y-66337521D01*
X133059527Y-66260473D01*
X133045961Y-66249339D01*
X132982566Y-66181346D01*
X132918656Y-66101867D01*
X132863529Y-66021319D01*
X132816674Y-65939463D01*
X132777616Y-65855900D01*
X132745979Y-65770113D01*
X132721522Y-65681477D01*
X132704160Y-65589331D01*
X132693981Y-65493057D01*
X132692198Y-65428308D01*
X132696956Y-65380000D01*
X132763044Y-65380000D01*
X132786812Y-65621318D01*
X132857202Y-65853363D01*
X132971509Y-66067216D01*
X133125340Y-66254660D01*
X133312784Y-66408491D01*
X133526637Y-66522798D01*
X133758682Y-66593188D01*
X133939528Y-66611000D01*
X134060472Y-66611000D01*
X134241318Y-66593188D01*
X134473363Y-66522798D01*
X134687216Y-66408491D01*
X134874660Y-66254660D01*
X135028491Y-66067216D01*
X135142798Y-65853363D01*
X135213188Y-65621318D01*
X135236956Y-65380000D01*
X135213188Y-65138682D01*
X135142798Y-64906637D01*
X135028491Y-64692784D01*
X134874660Y-64505340D01*
X134687216Y-64351509D01*
X134473363Y-64237202D01*
X134241318Y-64166812D01*
X134060472Y-64149000D01*
X133939528Y-64149000D01*
X133758682Y-64166812D01*
X133526637Y-64237202D01*
X133312784Y-64351509D01*
X133125340Y-64505340D01*
X132971509Y-64692784D01*
X132857202Y-64906637D01*
X132786812Y-65138682D01*
X132763044Y-65380000D01*
X132696956Y-65380000D01*
X132673188Y-65138682D01*
X132602798Y-64906637D01*
X132488491Y-64692784D01*
X132334660Y-64505340D01*
X132147216Y-64351509D01*
X131933363Y-64237202D01*
X131701318Y-64166812D01*
X131520472Y-64149000D01*
X131399528Y-64149000D01*
X131218682Y-64166812D01*
X130986637Y-64237202D01*
X130772784Y-64351509D01*
X130585340Y-64505340D01*
X130431509Y-64692784D01*
X130431000Y-64693736D01*
X130431000Y-63526264D01*
X130431509Y-63527216D01*
X130585340Y-63714660D01*
X130772784Y-63868491D01*
X130986637Y-63982798D01*
X131218682Y-64053188D01*
X131399528Y-64071000D01*
X131520472Y-64071000D01*
X131701318Y-64053188D01*
X131933363Y-63982798D01*
X132147216Y-63868491D01*
X132334660Y-63714660D01*
X132488491Y-63527216D01*
X132602798Y-63313363D01*
X132673188Y-63081318D01*
X132696956Y-62840000D01*
X132763044Y-62840000D01*
X132786812Y-63081318D01*
X132857202Y-63313363D01*
X132971509Y-63527216D01*
X133125340Y-63714660D01*
X133312784Y-63868491D01*
X133526637Y-63982798D01*
X133758682Y-64053188D01*
X133939528Y-64071000D01*
X134060472Y-64071000D01*
X134241318Y-64053188D01*
X134473363Y-63982798D01*
X134687216Y-63868491D01*
X134874660Y-63714660D01*
X135028491Y-63527216D01*
X135142798Y-63313363D01*
X135213188Y-63081318D01*
X135236956Y-62840000D01*
X135213188Y-62598682D01*
X135178130Y-62483110D01*
X138018524Y-62483110D01*
X138139845Y-62713000D01*
X139333000Y-62713000D01*
X139333000Y-61519186D01*
X139103109Y-61398519D01*
X138828748Y-61495843D01*
X138578645Y-61644822D01*
X138362412Y-61839731D01*
X138188359Y-62073080D01*
X138063175Y-62335901D01*
X138018524Y-62483110D01*
X135178130Y-62483110D01*
X135142798Y-62366637D01*
X135028491Y-62152784D01*
X134874660Y-61965340D01*
X134687216Y-61811509D01*
X134473363Y-61697202D01*
X134241318Y-61626812D01*
X134060472Y-61609000D01*
X133939528Y-61609000D01*
X133758682Y-61626812D01*
X133526637Y-61697202D01*
X133312784Y-61811509D01*
X133125340Y-61965340D01*
X132971509Y-62152784D01*
X132857202Y-62366637D01*
X132786812Y-62598682D01*
X132763044Y-62840000D01*
X132696956Y-62840000D01*
X132673188Y-62598682D01*
X132602798Y-62366637D01*
X132488491Y-62152784D01*
X132334660Y-61965340D01*
X132147216Y-61811509D01*
X131933363Y-61697202D01*
X131701318Y-61626812D01*
X131520472Y-61609000D01*
X131399528Y-61609000D01*
X131218682Y-61626812D01*
X130986637Y-61697202D01*
X130772784Y-61811509D01*
X130585340Y-61965340D01*
X130431509Y-62152784D01*
X130431000Y-62153736D01*
X130431000Y-60008383D01*
X132673277Y-60008383D01*
X132677347Y-60032945D01*
X132686131Y-60056240D01*
X132699291Y-60077374D01*
X132716321Y-60095535D01*
X132736567Y-60110024D01*
X133222224Y-60390024D01*
X133233826Y-60395942D01*
X133257441Y-60403826D01*
X133282141Y-60406951D01*
X133306975Y-60405198D01*
X133330990Y-60398633D01*
X133353264Y-60387510D01*
X133372939Y-60372255D01*
X133400463Y-60346215D01*
X133425197Y-60326233D01*
X133450678Y-60308863D01*
X133477019Y-60293950D01*
X133504396Y-60281363D01*
X133533010Y-60271013D01*
X133563108Y-60262860D01*
X133594843Y-60256940D01*
X133628429Y-60253311D01*
X133668320Y-60251923D01*
X133688680Y-60249560D01*
X133712505Y-60242333D01*
X133734461Y-60230597D01*
X133753707Y-60214803D01*
X133769501Y-60195557D01*
X133781237Y-60173601D01*
X133788464Y-60149776D01*
X133790904Y-60125000D01*
X133790904Y-59875000D01*
X133789250Y-59854573D01*
X133782857Y-59830511D01*
X133771892Y-59808160D01*
X133756777Y-59788376D01*
X133738093Y-59771922D01*
X133716558Y-59759429D01*
X133692999Y-59751378D01*
X133668323Y-59748077D01*
X133628429Y-59746688D01*
X133594843Y-59743059D01*
X133563108Y-59737139D01*
X133533010Y-59728986D01*
X133504396Y-59718636D01*
X133477019Y-59706049D01*
X133450678Y-59691136D01*
X133425197Y-59673766D01*
X133400456Y-59653778D01*
X133372937Y-59627744D01*
X133363031Y-59619291D01*
X133341897Y-59606131D01*
X133318602Y-59597347D01*
X133294040Y-59593277D01*
X133269157Y-59594076D01*
X133244907Y-59599715D01*
X133222224Y-59609976D01*
X132736567Y-59889976D01*
X132722626Y-59899291D01*
X132704465Y-59916321D01*
X132689976Y-59936567D01*
X132679715Y-59959250D01*
X132674076Y-59983500D01*
X132673277Y-60008383D01*
X130431000Y-60008383D01*
X130431000Y-58539026D01*
X157505042Y-58539026D01*
X157550778Y-58689814D01*
X157677316Y-58954944D01*
X157853146Y-59190293D01*
X158071512Y-59386817D01*
X158177770Y-59450000D01*
X158071512Y-59513183D01*
X157853146Y-59709707D01*
X157677316Y-59945056D01*
X157550778Y-60210186D01*
X157505042Y-60360974D01*
X157626183Y-60593000D01*
X158833000Y-60593000D01*
X158833000Y-58307000D01*
X157626183Y-58307000D01*
X157505042Y-58539026D01*
X130431000Y-58539026D01*
X130431000Y-56021079D01*
X130500998Y-55307181D01*
X130702208Y-54640743D01*
X131029026Y-54026089D01*
X131469009Y-53486616D01*
X132005398Y-53042877D01*
X132617760Y-52711775D01*
X133282768Y-52505921D01*
X133995414Y-52431018D01*
X134000633Y-52431000D01*
X146733014Y-52431000D01*
X146646637Y-52457202D01*
X146646637Y-52457202D01*
G37*
X146646637Y-52457202D02*
X146432784Y-52571509D01*
X146245340Y-52725340D01*
X146091509Y-52912784D01*
X145977202Y-53126637D01*
X145906812Y-53358682D01*
X145883044Y-53600000D01*
X145906812Y-53841318D01*
X145977202Y-54073363D01*
X146091509Y-54287216D01*
X146245340Y-54474660D01*
X146432784Y-54628491D01*
X146646637Y-54742798D01*
X146878682Y-54813188D01*
X147059528Y-54831000D01*
X147180472Y-54831000D01*
X147361318Y-54813188D01*
X147593363Y-54742798D01*
X147807216Y-54628491D01*
X147994660Y-54474660D01*
X148148491Y-54287216D01*
X148262798Y-54073363D01*
X148333188Y-53841318D01*
X148356956Y-53600000D01*
X148333188Y-53358682D01*
X148262798Y-53126637D01*
X148148491Y-52912784D01*
X147994660Y-52725340D01*
X147807216Y-52571509D01*
X147593363Y-52457202D01*
X147506986Y-52431000D01*
X149273014Y-52431000D01*
X149186637Y-52457202D01*
X148972784Y-52571509D01*
X148785340Y-52725340D01*
X148631509Y-52912784D01*
X148517202Y-53126637D01*
X148446812Y-53358682D01*
X148423044Y-53600000D01*
X148446812Y-53841318D01*
X148517202Y-54073363D01*
X148631509Y-54287216D01*
X148785340Y-54474660D01*
X148972784Y-54628491D01*
X149186637Y-54742798D01*
X149418682Y-54813188D01*
X149599528Y-54831000D01*
X149720472Y-54831000D01*
X149901318Y-54813188D01*
X150133363Y-54742798D01*
X150347216Y-54628491D01*
X150534660Y-54474660D01*
X150688491Y-54287216D01*
X150713065Y-54241242D01*
X150711928Y-54450000D01*
X150724188Y-54574482D01*
X150760498Y-54694180D01*
X150819463Y-54804494D01*
X150898815Y-54901185D01*
X150995506Y-54980537D01*
X151105820Y-55039502D01*
X151225518Y-55075812D01*
X151350000Y-55088072D01*
X151914250Y-55085000D01*
X152073000Y-54926250D01*
X152073000Y-53918404D01*
X152327000Y-54064845D01*
X152327000Y-54926250D01*
X152485750Y-55085000D01*
X153050000Y-55088072D01*
X153174482Y-55075812D01*
X153294180Y-55039502D01*
X153404494Y-54980537D01*
X153501185Y-54901185D01*
X153580537Y-54804494D01*
X153639502Y-54694180D01*
X153675812Y-54574482D01*
X153688072Y-54450000D01*
X153685000Y-53885750D01*
X153674450Y-53875200D01*
X153704716Y-53869529D01*
X153825090Y-53856459D01*
X153954737Y-53851922D01*
X153975071Y-53849560D01*
X153998896Y-53842333D01*
X154020852Y-53830597D01*
X154040098Y-53814803D01*
X154055892Y-53795557D01*
X154067628Y-53773601D01*
X154074855Y-53749776D01*
X154077295Y-53725000D01*
X154077295Y-53475000D01*
X154075645Y-53454595D01*
X154069256Y-53430533D01*
X154058295Y-53408179D01*
X154043183Y-53388393D01*
X154024503Y-53371936D01*
X154002970Y-53359439D01*
X153979413Y-53351383D01*
X153954737Y-53348078D01*
X153825090Y-53343541D01*
X153704716Y-53330471D01*
X153674450Y-53324800D01*
X153685000Y-53314250D01*
X153688072Y-52750000D01*
X153675812Y-52625518D01*
X153639502Y-52505820D01*
X153599509Y-52431000D01*
X160978921Y-52431000D01*
X161692819Y-52500998D01*
X162359257Y-52702208D01*
X162973911Y-53029026D01*
X163513384Y-53469009D01*
X163957123Y-54005398D01*
X164288225Y-54617760D01*
X164494079Y-55282768D01*
X164568982Y-55995414D01*
X164569000Y-56000634D01*
X164569001Y-77978911D01*
X164499002Y-78692819D01*
X164297793Y-79359255D01*
X163970975Y-79973911D01*
X163530989Y-80513386D01*
X162994602Y-80957123D01*
X162382245Y-81288223D01*
X161717232Y-81494079D01*
X161004586Y-81568982D01*
X160999367Y-81569000D01*
X134021079Y-81569000D01*
X133307181Y-81499002D01*
X132640745Y-81297793D01*
X132026089Y-80970975D01*
X131486614Y-80530989D01*
X131042877Y-79994602D01*
X130711777Y-79382245D01*
X130505921Y-78717232D01*
X130431018Y-78004586D01*
X130431000Y-77999367D01*
X130431000Y-74062093D01*
X130578645Y-74195178D01*
X130828748Y-74344157D01*
X131103109Y-74441481D01*
X131333000Y-74320814D01*
X131333000Y-73127000D01*
X131313000Y-73127000D01*
X131313000Y-72873000D01*
X131333000Y-72873000D01*
X131333000Y-72853000D01*
X131587000Y-72853000D01*
X131587000Y-72873000D01*
X131607000Y-72873000D01*
X131607000Y-73127000D01*
X131587000Y-73127000D01*
X131587000Y-74320814D01*
X131816891Y-74441481D01*
X132091252Y-74344157D01*
X132341355Y-74195178D01*
X132557588Y-74000269D01*
X132731641Y-73766920D01*
X132767157Y-73692355D01*
X132767157Y-73850000D01*
X132774513Y-73924689D01*
X132796299Y-73996508D01*
X132831678Y-74062696D01*
X132879289Y-74120711D01*
X132937304Y-74168322D01*
X133003492Y-74203701D01*
X133075311Y-74225487D01*
X133150000Y-74232843D01*
X134850000Y-74232843D01*
X134924689Y-74225487D01*
X134996508Y-74203701D01*
X135062696Y-74168322D01*
X135120711Y-74120711D01*
X135168322Y-74062696D01*
X135203701Y-73996508D01*
X135225487Y-73924689D01*
X135232843Y-73850000D01*
X135232843Y-73000000D01*
X138223044Y-73000000D01*
X138246812Y-73241318D01*
X138317202Y-73473363D01*
X138431509Y-73687216D01*
X138585340Y-73874660D01*
X138772784Y-74028491D01*
X138986637Y-74142798D01*
X139218682Y-74213188D01*
X139399528Y-74231000D01*
X139520472Y-74231000D01*
X139701318Y-74213188D01*
X139933363Y-74142798D01*
X140147216Y-74028491D01*
X140334660Y-73874660D01*
X140488491Y-73687216D01*
X140602798Y-73473363D01*
X140673188Y-73241318D01*
X140696956Y-73000000D01*
X140673188Y-72758682D01*
X140602798Y-72526637D01*
X140488491Y-72312784D01*
X140334660Y-72125340D01*
X140147216Y-71971509D01*
X139933363Y-71857202D01*
X139701318Y-71786812D01*
X139520472Y-71769000D01*
X139399528Y-71769000D01*
X139218682Y-71786812D01*
X138986637Y-71857202D01*
X138772784Y-71971509D01*
X138585340Y-72125340D01*
X138431509Y-72312784D01*
X138317202Y-72526637D01*
X138246812Y-72758682D01*
X138223044Y-73000000D01*
X135232843Y-73000000D01*
X135232843Y-72150000D01*
X135225487Y-72075311D01*
X135203701Y-72003492D01*
X135168322Y-71937304D01*
X135120711Y-71879289D01*
X135062696Y-71831678D01*
X134996508Y-71796299D01*
X134924689Y-71774513D01*
X134850000Y-71767157D01*
X133150000Y-71767157D01*
X133075311Y-71774513D01*
X133003492Y-71796299D01*
X132937304Y-71831678D01*
X132879289Y-71879289D01*
X132831678Y-71937304D01*
X132796299Y-72003492D01*
X132774513Y-72075311D01*
X132767157Y-72150000D01*
X132767157Y-72307645D01*
X132731641Y-72233080D01*
X132557588Y-71999731D01*
X132341355Y-71804822D01*
X132091252Y-71655843D01*
X131936695Y-71601017D01*
X132147216Y-71488491D01*
X132334660Y-71334660D01*
X132488491Y-71147216D01*
X132602798Y-70933363D01*
X132673188Y-70701318D01*
X132696956Y-70460000D01*
X132673188Y-70218682D01*
X132602798Y-69986637D01*
X132488491Y-69772784D01*
X132334660Y-69585340D01*
X132147216Y-69431509D01*
X131933363Y-69317202D01*
X131701318Y-69246812D01*
X131520472Y-69229000D01*
X131399528Y-69229000D01*
X131218682Y-69246812D01*
X130986637Y-69317202D01*
X130772784Y-69431509D01*
X130585340Y-69585340D01*
X130431509Y-69772784D01*
X130431000Y-69773736D01*
X130431000Y-68606264D01*
X130431509Y-68607216D01*
X130585340Y-68794660D01*
X130772784Y-68948491D01*
X130986637Y-69062798D01*
X131218682Y-69133188D01*
X131399528Y-69151000D01*
X131520472Y-69151000D01*
X131701318Y-69133188D01*
X131933363Y-69062798D01*
X132147216Y-68948491D01*
X132334660Y-68794660D01*
X132373158Y-68747751D01*
X133165626Y-69540220D01*
X133171539Y-69547425D01*
X133125340Y-69585340D01*
X132971509Y-69772784D01*
X132857202Y-69986637D01*
X132786812Y-70218682D01*
X132763044Y-70460000D01*
X132786812Y-70701318D01*
X132857202Y-70933363D01*
X132971509Y-71147216D01*
X133125340Y-71334660D01*
X133312784Y-71488491D01*
X133526637Y-71602798D01*
X133758682Y-71673188D01*
X133939528Y-71691000D01*
X134060472Y-71691000D01*
X134241318Y-71673188D01*
X134473363Y-71602798D01*
X134687216Y-71488491D01*
X134874660Y-71334660D01*
X135028491Y-71147216D01*
X135142798Y-70933363D01*
X135213188Y-70701318D01*
X135236956Y-70460000D01*
X135213188Y-70218682D01*
X135142798Y-69986637D01*
X135028491Y-69772784D01*
X134973683Y-69706000D01*
X138155154Y-69706000D01*
X138180000Y-69708447D01*
X138204846Y-69706000D01*
X138204854Y-69706000D01*
X138279193Y-69698678D01*
X138374575Y-69669745D01*
X138462479Y-69622759D01*
X138539527Y-69559527D01*
X138555376Y-69540215D01*
X138575445Y-69520146D01*
X138658645Y-69442572D01*
X138738132Y-69378656D01*
X138818680Y-69323529D01*
X138900536Y-69276674D01*
X138984099Y-69237616D01*
X139069886Y-69205979D01*
X139158522Y-69181522D01*
X139250668Y-69164160D01*
X139346942Y-69153981D01*
X139455196Y-69151000D01*
X139464945Y-69151000D01*
X139573390Y-69153924D01*
X139669797Y-69163961D01*
X139761804Y-69181063D01*
X139850050Y-69205126D01*
X139935163Y-69236192D01*
X140017767Y-69274470D01*
X140098425Y-69320321D01*
X140177574Y-69374216D01*
X140255447Y-69436638D01*
X140319978Y-69496739D01*
X140330473Y-69509527D01*
X140407521Y-69572759D01*
X140494757Y-69619388D01*
X140495425Y-69619745D01*
X140590807Y-69648678D01*
X140690000Y-69658448D01*
X140714854Y-69656000D01*
X141067351Y-69656000D01*
X140971509Y-69772784D01*
X140857202Y-69986637D01*
X140786812Y-70218682D01*
X140763044Y-70460000D01*
X140786812Y-70701318D01*
X140857202Y-70933363D01*
X140971509Y-71147216D01*
X141009904Y-71194000D01*
X140928412Y-71194000D01*
X140918656Y-71181867D01*
X140863529Y-71101319D01*
X140816674Y-71019463D01*
X140777616Y-70935900D01*
X140745979Y-70850113D01*
X140721522Y-70761477D01*
X140704160Y-70669331D01*
X140693981Y-70573057D01*
X140692198Y-70508308D01*
X140696956Y-70460000D01*
X140673188Y-70218682D01*
X140602798Y-69986637D01*
X140488491Y-69772784D01*
X140334660Y-69585340D01*
X140147216Y-69431509D01*
X139933363Y-69317202D01*
X139701318Y-69246812D01*
X139520472Y-69229000D01*
X139399528Y-69229000D01*
X139218682Y-69246812D01*
X138986637Y-69317202D01*
X138772784Y-69431509D01*
X138585340Y-69585340D01*
X138431509Y-69772784D01*
X138317202Y-69986637D01*
X138246812Y-70218682D01*
X138223044Y-70460000D01*
X138246812Y-70701318D01*
X138317202Y-70933363D01*
X138431509Y-71147216D01*
X138585340Y-71334660D01*
X138772784Y-71488491D01*
X138986637Y-71602798D01*
X139218682Y-71673188D01*
X139399528Y-71691000D01*
X139464804Y-71691000D01*
X139573057Y-71693981D01*
X139669331Y-71704160D01*
X139761477Y-71721522D01*
X139850113Y-71745979D01*
X139935900Y-71777616D01*
X140019463Y-71816674D01*
X140101319Y-71863529D01*
X140181867Y-71918656D01*
X140261346Y-71982566D01*
X140329339Y-72045961D01*
X140340473Y-72059527D01*
X140417521Y-72122759D01*
X140486655Y-72159712D01*
X140505425Y-72169745D01*
X140600807Y-72198678D01*
X140700000Y-72208448D01*
X140724854Y-72206000D01*
X140767157Y-72206000D01*
X140767157Y-73850000D01*
X140774513Y-73924689D01*
X140796299Y-73996508D01*
X140831678Y-74062696D01*
X140879289Y-74120711D01*
X140937304Y-74168322D01*
X141003492Y-74203701D01*
X141075311Y-74225487D01*
X141150000Y-74232843D01*
X142850000Y-74232843D01*
X142924689Y-74225487D01*
X142996508Y-74203701D01*
X143062696Y-74168322D01*
X143120711Y-74120711D01*
X143168322Y-74062696D01*
X143203701Y-73996508D01*
X143225487Y-73924689D01*
X143232843Y-73850000D01*
X143232843Y-72206000D01*
X144940409Y-72206000D01*
X153724628Y-80990220D01*
X153740473Y-81009527D01*
X153817521Y-81072759D01*
X153905425Y-81119745D01*
X153978607Y-81141944D01*
X154000806Y-81148678D01*
X154010694Y-81149652D01*
X154075146Y-81156000D01*
X154075153Y-81156000D01*
X154099999Y-81158447D01*
X154124845Y-81156000D01*
X162325154Y-81156000D01*
X162350000Y-81158447D01*
X162374846Y-81156000D01*
X162374854Y-81156000D01*
X162449193Y-81148678D01*
X162544575Y-81119745D01*
X162632479Y-81072759D01*
X162709527Y-81009527D01*
X162725376Y-80990215D01*
X163890220Y-79825372D01*
X163909527Y-79809527D01*
X163972759Y-79732479D01*
X164019745Y-79644575D01*
X164048678Y-79549193D01*
X164056000Y-79474854D01*
X164056000Y-79474847D01*
X164058447Y-79450001D01*
X164056000Y-79425155D01*
X164056000Y-62794854D01*
X164058448Y-62770000D01*
X164048678Y-62670807D01*
X164019745Y-62575425D01*
X164014275Y-62565192D01*
X163972759Y-62487521D01*
X163909527Y-62410473D01*
X163890220Y-62394628D01*
X163123370Y-61627778D01*
X163043943Y-61542591D01*
X162978368Y-61461039D01*
X162921783Y-61378361D01*
X162873672Y-61294308D01*
X162833554Y-61208474D01*
X162801057Y-61120351D01*
X162775933Y-61029297D01*
X162758100Y-60934648D01*
X162747652Y-60835827D01*
X162745809Y-60768873D01*
X162750622Y-60720000D01*
X162726592Y-60476016D01*
X162655424Y-60241408D01*
X162539854Y-60025192D01*
X162384323Y-59835677D01*
X162194808Y-59680146D01*
X161978592Y-59564576D01*
X161743984Y-59493408D01*
X161561143Y-59475400D01*
X161438857Y-59475400D01*
X161256016Y-59493408D01*
X161021408Y-59564576D01*
X160805192Y-59680146D01*
X160615677Y-59835677D01*
X160460146Y-60025192D01*
X160365468Y-60202321D01*
X160242684Y-59945056D01*
X160066854Y-59709707D01*
X159848488Y-59513183D01*
X159742230Y-59450000D01*
X159848488Y-59386817D01*
X160066854Y-59190293D01*
X160242684Y-58954944D01*
X160365468Y-58697679D01*
X160460146Y-58874808D01*
X160615677Y-59064323D01*
X160805192Y-59219854D01*
X161021408Y-59335424D01*
X161256016Y-59406592D01*
X161438857Y-59424600D01*
X161561143Y-59424600D01*
X161743984Y-59406592D01*
X161978592Y-59335424D01*
X162194808Y-59219854D01*
X162384323Y-59064323D01*
X162539854Y-58874808D01*
X162655424Y-58658592D01*
X162726592Y-58423984D01*
X162750622Y-58180000D01*
X162726592Y-57936016D01*
X162655424Y-57701408D01*
X162539854Y-57485192D01*
X162384323Y-57295677D01*
X162194808Y-57140146D01*
X161978592Y-57024576D01*
X161743984Y-56953408D01*
X161561143Y-56935400D01*
X161438857Y-56935400D01*
X161256016Y-56953408D01*
X161021408Y-57024576D01*
X160805192Y-57140146D01*
X160615677Y-57295677D01*
X160460146Y-57485192D01*
X160365468Y-57662321D01*
X160242684Y-57405056D01*
X160066854Y-57169707D01*
X159848488Y-56973183D01*
X159742230Y-56910000D01*
X159848488Y-56846817D01*
X160066854Y-56650293D01*
X160242684Y-56414944D01*
X160365468Y-56157679D01*
X160460146Y-56334808D01*
X160615677Y-56524323D01*
X160805192Y-56679854D01*
X161021408Y-56795424D01*
X161256016Y-56866592D01*
X161438857Y-56884600D01*
X161561143Y-56884600D01*
X161743984Y-56866592D01*
X161978592Y-56795424D01*
X162194808Y-56679854D01*
X162384323Y-56524323D01*
X162539854Y-56334808D01*
X162655424Y-56118592D01*
X162726592Y-55883984D01*
X162750622Y-55640000D01*
X162726592Y-55396016D01*
X162655424Y-55161408D01*
X162539854Y-54945192D01*
X162384323Y-54755677D01*
X162194808Y-54600146D01*
X161978592Y-54484576D01*
X161743984Y-54413408D01*
X161561143Y-54395400D01*
X161438857Y-54395400D01*
X161256016Y-54413408D01*
X161021408Y-54484576D01*
X160805192Y-54600146D01*
X160615677Y-54755677D01*
X160460146Y-54945192D01*
X160365468Y-55122321D01*
X160242684Y-54865056D01*
X160066854Y-54629707D01*
X159848488Y-54433183D01*
X159595978Y-54283036D01*
X159319027Y-54185037D01*
X159087000Y-54305536D01*
X159087000Y-54791835D01*
X159074017Y-54743499D01*
X159069990Y-54731092D01*
X159058863Y-54708820D01*
X159043605Y-54689148D01*
X159024802Y-54672830D01*
X159003177Y-54660494D01*
X158979560Y-54652614D01*
X158954860Y-54649492D01*
X158833000Y-54646136D01*
X158833000Y-54305536D01*
X158600973Y-54185037D01*
X158324022Y-54283036D01*
X158122077Y-54403116D01*
X158067416Y-54365706D01*
X157971006Y-54288183D01*
X157874134Y-54197862D01*
X157858084Y-54185153D01*
X157836128Y-54173417D01*
X157812303Y-54166190D01*
X157787527Y-54163750D01*
X157762751Y-54166190D01*
X157738926Y-54173417D01*
X157716970Y-54185153D01*
X157697724Y-54200947D01*
X157520947Y-54377724D01*
X157507686Y-54393319D01*
X157495189Y-54414852D01*
X157487133Y-54438409D01*
X157483828Y-54463085D01*
X157485400Y-54487932D01*
X157491789Y-54511994D01*
X157502750Y-54534348D01*
X157517862Y-54554134D01*
X157608183Y-54651006D01*
X157685706Y-54747416D01*
X157723714Y-54802952D01*
X157677316Y-54865056D01*
X157550778Y-55130186D01*
X157505042Y-55280974D01*
X157626183Y-55513000D01*
X157966136Y-55513000D01*
X157969492Y-55634860D01*
X157970520Y-55647864D01*
X157976159Y-55672114D01*
X157986420Y-55694797D01*
X158000909Y-55715043D01*
X158019070Y-55732073D01*
X158040204Y-55745233D01*
X158063499Y-55754017D01*
X158111835Y-55767000D01*
X157626183Y-55767000D01*
X157505042Y-55999026D01*
X157550778Y-56149814D01*
X157677316Y-56414944D01*
X157853146Y-56650293D01*
X158071512Y-56846817D01*
X158177770Y-56910000D01*
X158071512Y-56973183D01*
X157853146Y-57169707D01*
X157677316Y-57405056D01*
X157550778Y-57670186D01*
X157505042Y-57820974D01*
X157626183Y-58053000D01*
X158833000Y-58053000D01*
X158833000Y-58033000D01*
X159087000Y-58033000D01*
X159087000Y-58053000D01*
X159107000Y-58053000D01*
X159107000Y-58307000D01*
X159087000Y-58307000D01*
X159087000Y-60593000D01*
X159107000Y-60593000D01*
X159107000Y-60847000D01*
X159087000Y-60847000D01*
X159087000Y-60867000D01*
X158833000Y-60867000D01*
X158833000Y-60847000D01*
X157626183Y-60847000D01*
X157505042Y-61079026D01*
X157550778Y-61229814D01*
X157677316Y-61494944D01*
X157853146Y-61730293D01*
X158071512Y-61926817D01*
X158177770Y-61990000D01*
X158071512Y-62053183D01*
X157853146Y-62249707D01*
X157677316Y-62485056D01*
X157550778Y-62750186D01*
X157505042Y-62900974D01*
X157626183Y-63133000D01*
X158491235Y-63133000D01*
X158637675Y-63387000D01*
X157626183Y-63387000D01*
X157505042Y-63619026D01*
X157550778Y-63769814D01*
X157657775Y-63994000D01*
X153174845Y-63994000D01*
X153149999Y-63991553D01*
X153125153Y-63994000D01*
X153125146Y-63994000D01*
X153060694Y-64000348D01*
X153050806Y-64001322D01*
X153028607Y-64008056D01*
X152955425Y-64030255D01*
X152867521Y-64077241D01*
X152790473Y-64140473D01*
X152774629Y-64159779D01*
X150485000Y-66449408D01*
X150485000Y-66332998D01*
X150320156Y-66332998D01*
X150441476Y-66103110D01*
X150396825Y-65955901D01*
X150271641Y-65693080D01*
X150097588Y-65459731D01*
X149881355Y-65264822D01*
X149631252Y-65115843D01*
X149476695Y-65061017D01*
X149687216Y-64948491D01*
X149874660Y-64794660D01*
X150028491Y-64607216D01*
X150142798Y-64393363D01*
X150213188Y-64161318D01*
X150236956Y-63920000D01*
X150213188Y-63678682D01*
X150142798Y-63446637D01*
X150028491Y-63232784D01*
X149874660Y-63045340D01*
X149687216Y-62891509D01*
X149473363Y-62777202D01*
X149241318Y-62706812D01*
X149060472Y-62689000D01*
X148939528Y-62689000D01*
X148758682Y-62706812D01*
X148526637Y-62777202D01*
X148312784Y-62891509D01*
X148125340Y-63045340D01*
X147971509Y-63232784D01*
X147857202Y-63446637D01*
X147786812Y-63678682D01*
X147763044Y-63920000D01*
X147786812Y-64161318D01*
X147857202Y-64393363D01*
X147971509Y-64607216D01*
X148125340Y-64794660D01*
X148312784Y-64948491D01*
X148523305Y-65061017D01*
X148368748Y-65115843D01*
X148118645Y-65264822D01*
X147902412Y-65459731D01*
X147728359Y-65693080D01*
X147603175Y-65955901D01*
X147558524Y-66103110D01*
X147679845Y-66333000D01*
X148873000Y-66333000D01*
X148873000Y-66313000D01*
X149127000Y-66313000D01*
X149127000Y-66333000D01*
X149147000Y-66333000D01*
X149147000Y-66587000D01*
X149127000Y-66587000D01*
X149127000Y-66607000D01*
X148873000Y-66607000D01*
X148873000Y-66587000D01*
X147679845Y-66587000D01*
X147558524Y-66816890D01*
X147603175Y-66964099D01*
X147712679Y-67194000D01*
X145474854Y-67194000D01*
X145450000Y-67191552D01*
X145425146Y-67194000D01*
X145350807Y-67201322D01*
X145255425Y-67230255D01*
X145167521Y-67277241D01*
X145090473Y-67340473D01*
X145074629Y-67359779D01*
X143790409Y-68644000D01*
X142998303Y-68644000D01*
X143028491Y-68607216D01*
X143142798Y-68393363D01*
X143213188Y-68161318D01*
X143236956Y-67920000D01*
X143213188Y-67678682D01*
X143142798Y-67446637D01*
X143028491Y-67232784D01*
X142874660Y-67045340D01*
X142687216Y-66891509D01*
X142473363Y-66777202D01*
X142241318Y-66706812D01*
X142060472Y-66689000D01*
X141939528Y-66689000D01*
X141758682Y-66706812D01*
X141526637Y-66777202D01*
X141312784Y-66891509D01*
X141125340Y-67045340D01*
X140971509Y-67232784D01*
X140857202Y-67446637D01*
X140786812Y-67678682D01*
X140763044Y-67920000D01*
X140786812Y-68161318D01*
X140857202Y-68393363D01*
X140971509Y-68607216D01*
X141001697Y-68644000D01*
X140919367Y-68644000D01*
X140914216Y-68637574D01*
X140860321Y-68558425D01*
X140814470Y-68477767D01*
X140776192Y-68395163D01*
X140745126Y-68310050D01*
X140721063Y-68221804D01*
X140703961Y-68129797D01*
X140693924Y-68033390D01*
X140692175Y-67968538D01*
X140696956Y-67920000D01*
X140673188Y-67678682D01*
X140602798Y-67446637D01*
X140498227Y-67250999D01*
X140610155Y-67250999D01*
X140635001Y-67253446D01*
X140659847Y-67250999D01*
X140659855Y-67250999D01*
X140734194Y-67243677D01*
X140829576Y-67214744D01*
X140917480Y-67167758D01*
X140994528Y-67104526D01*
X141010377Y-67085214D01*
X141459304Y-66636288D01*
X141469228Y-66634268D01*
X141519224Y-66627194D01*
X141585398Y-66620795D01*
X141666213Y-66615716D01*
X141760560Y-66612283D01*
X141867946Y-66610663D01*
X141937801Y-66610830D01*
X141939528Y-66611000D01*
X142060472Y-66611000D01*
X142241318Y-66593188D01*
X142473363Y-66522798D01*
X142687216Y-66408491D01*
X142874660Y-66254660D01*
X143028491Y-66067216D01*
X143142798Y-65853363D01*
X143213188Y-65621318D01*
X143236956Y-65380000D01*
X143213188Y-65138682D01*
X143142798Y-64906637D01*
X143028491Y-64692784D01*
X142874660Y-64505340D01*
X142687216Y-64351509D01*
X142473363Y-64237202D01*
X142241318Y-64166812D01*
X142060472Y-64149000D01*
X141939528Y-64149000D01*
X141758682Y-64166812D01*
X141526637Y-64237202D01*
X141312784Y-64351509D01*
X141125340Y-64505340D01*
X140971509Y-64692784D01*
X140857202Y-64906637D01*
X140786812Y-65138682D01*
X140763044Y-65380000D01*
X140769170Y-65442194D01*
X140769336Y-65512051D01*
X140767716Y-65619439D01*
X140764283Y-65713786D01*
X140759204Y-65794604D01*
X140752806Y-65860771D01*
X140745731Y-65910773D01*
X140743711Y-65920697D01*
X140425410Y-66238999D01*
X140347513Y-66238999D01*
X140488491Y-66067216D01*
X140602798Y-65853363D01*
X140673188Y-65621318D01*
X140696956Y-65380000D01*
X140673188Y-65138682D01*
X140602798Y-64906637D01*
X140488491Y-64692784D01*
X140334660Y-64505340D01*
X140147216Y-64351509D01*
X139936695Y-64238983D01*
X140091252Y-64184157D01*
X140341355Y-64035178D01*
X140557588Y-63840269D01*
X140731641Y-63606920D01*
X140856825Y-63344099D01*
X140862909Y-63324040D01*
X140971509Y-63527216D01*
X141125340Y-63714660D01*
X141312784Y-63868491D01*
X141526637Y-63982798D01*
X141758682Y-64053188D01*
X141939528Y-64071000D01*
X142060472Y-64071000D01*
X142241318Y-64053188D01*
X142473363Y-63982798D01*
X142687216Y-63868491D01*
X142874660Y-63714660D01*
X143028491Y-63527216D01*
X143142798Y-63313363D01*
X143213188Y-63081318D01*
X143236956Y-62840000D01*
X143213188Y-62598682D01*
X143142798Y-62366637D01*
X143028491Y-62152784D01*
X142874660Y-61965340D01*
X142687216Y-61811509D01*
X142473363Y-61697202D01*
X142241318Y-61626812D01*
X142060472Y-61609000D01*
X141939528Y-61609000D01*
X141758682Y-61626812D01*
X141526637Y-61697202D01*
X141312784Y-61811509D01*
X141125340Y-61965340D01*
X140971509Y-62152784D01*
X140862909Y-62355960D01*
X140856825Y-62335901D01*
X140731641Y-62073080D01*
X140557588Y-61839731D01*
X140341355Y-61644822D01*
X140091252Y-61495843D01*
X139816891Y-61398519D01*
X139587000Y-61519186D01*
X139587000Y-62713000D01*
X139607000Y-62713000D01*
X139607000Y-62967000D01*
X139587000Y-62967000D01*
X139587000Y-62987000D01*
X139333000Y-62987000D01*
X139333000Y-62967000D01*
X138139845Y-62967000D01*
X138018524Y-63196890D01*
X138063175Y-63344099D01*
X138188359Y-63606920D01*
X138362412Y-63840269D01*
X138578645Y-64035178D01*
X138828748Y-64184157D01*
X138983305Y-64238983D01*
X138772784Y-64351509D01*
X138585340Y-64505340D01*
X138431509Y-64692784D01*
X138317202Y-64906637D01*
X138246812Y-65138682D01*
X138223044Y-65380000D01*
X138246812Y-65621318D01*
X138317202Y-65853363D01*
X138431509Y-66067216D01*
X138572487Y-66238999D01*
X135199846Y-66238999D01*
X135175000Y-66236552D01*
X135150154Y-66238999D01*
X135150147Y-66238999D01*
X135085695Y-66245347D01*
X135075807Y-66246321D01*
X135053608Y-66253055D01*
X134980426Y-66275254D01*
X134892522Y-66322240D01*
X134815474Y-66385472D01*
X134805611Y-66397490D01*
X134753328Y-66445749D01*
X134687193Y-66497416D01*
X134618382Y-66542382D01*
X134546340Y-66581127D01*
X134470446Y-66613960D01*
X134390047Y-66641012D01*
X134304495Y-66662256D01*
X134213238Y-66677512D01*
X134115876Y-66686493D01*
X134006028Y-66689000D01*
X133939528Y-66689000D01*
X133758682Y-66706812D01*
X133526637Y-66777202D01*
X133312784Y-66891509D01*
X133206000Y-66979144D01*
X133206000Y-66644854D01*
X133208448Y-66620000D01*
X133198678Y-66520807D01*
X133169745Y-66425425D01*
X133162044Y-66411018D01*
X133122759Y-66337521D01*
X133059527Y-66260473D01*
X133045961Y-66249339D01*
X132982566Y-66181346D01*
X132918656Y-66101867D01*
X132863529Y-66021319D01*
X132816674Y-65939463D01*
X132777616Y-65855900D01*
X132745979Y-65770113D01*
X132721522Y-65681477D01*
X132704160Y-65589331D01*
X132693981Y-65493057D01*
X132692198Y-65428308D01*
X132696956Y-65380000D01*
X132763044Y-65380000D01*
X132786812Y-65621318D01*
X132857202Y-65853363D01*
X132971509Y-66067216D01*
X133125340Y-66254660D01*
X133312784Y-66408491D01*
X133526637Y-66522798D01*
X133758682Y-66593188D01*
X133939528Y-66611000D01*
X134060472Y-66611000D01*
X134241318Y-66593188D01*
X134473363Y-66522798D01*
X134687216Y-66408491D01*
X134874660Y-66254660D01*
X135028491Y-66067216D01*
X135142798Y-65853363D01*
X135213188Y-65621318D01*
X135236956Y-65380000D01*
X135213188Y-65138682D01*
X135142798Y-64906637D01*
X135028491Y-64692784D01*
X134874660Y-64505340D01*
X134687216Y-64351509D01*
X134473363Y-64237202D01*
X134241318Y-64166812D01*
X134060472Y-64149000D01*
X133939528Y-64149000D01*
X133758682Y-64166812D01*
X133526637Y-64237202D01*
X133312784Y-64351509D01*
X133125340Y-64505340D01*
X132971509Y-64692784D01*
X132857202Y-64906637D01*
X132786812Y-65138682D01*
X132763044Y-65380000D01*
X132696956Y-65380000D01*
X132673188Y-65138682D01*
X132602798Y-64906637D01*
X132488491Y-64692784D01*
X132334660Y-64505340D01*
X132147216Y-64351509D01*
X131933363Y-64237202D01*
X131701318Y-64166812D01*
X131520472Y-64149000D01*
X131399528Y-64149000D01*
X131218682Y-64166812D01*
X130986637Y-64237202D01*
X130772784Y-64351509D01*
X130585340Y-64505340D01*
X130431509Y-64692784D01*
X130431000Y-64693736D01*
X130431000Y-63526264D01*
X130431509Y-63527216D01*
X130585340Y-63714660D01*
X130772784Y-63868491D01*
X130986637Y-63982798D01*
X131218682Y-64053188D01*
X131399528Y-64071000D01*
X131520472Y-64071000D01*
X131701318Y-64053188D01*
X131933363Y-63982798D01*
X132147216Y-63868491D01*
X132334660Y-63714660D01*
X132488491Y-63527216D01*
X132602798Y-63313363D01*
X132673188Y-63081318D01*
X132696956Y-62840000D01*
X132763044Y-62840000D01*
X132786812Y-63081318D01*
X132857202Y-63313363D01*
X132971509Y-63527216D01*
X133125340Y-63714660D01*
X133312784Y-63868491D01*
X133526637Y-63982798D01*
X133758682Y-64053188D01*
X133939528Y-64071000D01*
X134060472Y-64071000D01*
X134241318Y-64053188D01*
X134473363Y-63982798D01*
X134687216Y-63868491D01*
X134874660Y-63714660D01*
X135028491Y-63527216D01*
X135142798Y-63313363D01*
X135213188Y-63081318D01*
X135236956Y-62840000D01*
X135213188Y-62598682D01*
X135178130Y-62483110D01*
X138018524Y-62483110D01*
X138139845Y-62713000D01*
X139333000Y-62713000D01*
X139333000Y-61519186D01*
X139103109Y-61398519D01*
X138828748Y-61495843D01*
X138578645Y-61644822D01*
X138362412Y-61839731D01*
X138188359Y-62073080D01*
X138063175Y-62335901D01*
X138018524Y-62483110D01*
X135178130Y-62483110D01*
X135142798Y-62366637D01*
X135028491Y-62152784D01*
X134874660Y-61965340D01*
X134687216Y-61811509D01*
X134473363Y-61697202D01*
X134241318Y-61626812D01*
X134060472Y-61609000D01*
X133939528Y-61609000D01*
X133758682Y-61626812D01*
X133526637Y-61697202D01*
X133312784Y-61811509D01*
X133125340Y-61965340D01*
X132971509Y-62152784D01*
X132857202Y-62366637D01*
X132786812Y-62598682D01*
X132763044Y-62840000D01*
X132696956Y-62840000D01*
X132673188Y-62598682D01*
X132602798Y-62366637D01*
X132488491Y-62152784D01*
X132334660Y-61965340D01*
X132147216Y-61811509D01*
X131933363Y-61697202D01*
X131701318Y-61626812D01*
X131520472Y-61609000D01*
X131399528Y-61609000D01*
X131218682Y-61626812D01*
X130986637Y-61697202D01*
X130772784Y-61811509D01*
X130585340Y-61965340D01*
X130431509Y-62152784D01*
X130431000Y-62153736D01*
X130431000Y-60008383D01*
X132673277Y-60008383D01*
X132677347Y-60032945D01*
X132686131Y-60056240D01*
X132699291Y-60077374D01*
X132716321Y-60095535D01*
X132736567Y-60110024D01*
X133222224Y-60390024D01*
X133233826Y-60395942D01*
X133257441Y-60403826D01*
X133282141Y-60406951D01*
X133306975Y-60405198D01*
X133330990Y-60398633D01*
X133353264Y-60387510D01*
X133372939Y-60372255D01*
X133400463Y-60346215D01*
X133425197Y-60326233D01*
X133450678Y-60308863D01*
X133477019Y-60293950D01*
X133504396Y-60281363D01*
X133533010Y-60271013D01*
X133563108Y-60262860D01*
X133594843Y-60256940D01*
X133628429Y-60253311D01*
X133668320Y-60251923D01*
X133688680Y-60249560D01*
X133712505Y-60242333D01*
X133734461Y-60230597D01*
X133753707Y-60214803D01*
X133769501Y-60195557D01*
X133781237Y-60173601D01*
X133788464Y-60149776D01*
X133790904Y-60125000D01*
X133790904Y-59875000D01*
X133789250Y-59854573D01*
X133782857Y-59830511D01*
X133771892Y-59808160D01*
X133756777Y-59788376D01*
X133738093Y-59771922D01*
X133716558Y-59759429D01*
X133692999Y-59751378D01*
X133668323Y-59748077D01*
X133628429Y-59746688D01*
X133594843Y-59743059D01*
X133563108Y-59737139D01*
X133533010Y-59728986D01*
X133504396Y-59718636D01*
X133477019Y-59706049D01*
X133450678Y-59691136D01*
X133425197Y-59673766D01*
X133400456Y-59653778D01*
X133372937Y-59627744D01*
X133363031Y-59619291D01*
X133341897Y-59606131D01*
X133318602Y-59597347D01*
X133294040Y-59593277D01*
X133269157Y-59594076D01*
X133244907Y-59599715D01*
X133222224Y-59609976D01*
X132736567Y-59889976D01*
X132722626Y-59899291D01*
X132704465Y-59916321D01*
X132689976Y-59936567D01*
X132679715Y-59959250D01*
X132674076Y-59983500D01*
X132673277Y-60008383D01*
X130431000Y-60008383D01*
X130431000Y-58539026D01*
X157505042Y-58539026D01*
X157550778Y-58689814D01*
X157677316Y-58954944D01*
X157853146Y-59190293D01*
X158071512Y-59386817D01*
X158177770Y-59450000D01*
X158071512Y-59513183D01*
X157853146Y-59709707D01*
X157677316Y-59945056D01*
X157550778Y-60210186D01*
X157505042Y-60360974D01*
X157626183Y-60593000D01*
X158833000Y-60593000D01*
X158833000Y-58307000D01*
X157626183Y-58307000D01*
X157505042Y-58539026D01*
X130431000Y-58539026D01*
X130431000Y-56021079D01*
X130500998Y-55307181D01*
X130702208Y-54640743D01*
X131029026Y-54026089D01*
X131469009Y-53486616D01*
X132005398Y-53042877D01*
X132617760Y-52711775D01*
X133282768Y-52505921D01*
X133995414Y-52431018D01*
X134000633Y-52431000D01*
X146733014Y-52431000D01*
X146646637Y-52457202D01*
G36*
X154374628Y-75040220D02*
G01*
X154390473Y-75059527D01*
X154467521Y-75122759D01*
X154555425Y-75169745D01*
X154650807Y-75198678D01*
X154750000Y-75208448D01*
X154774854Y-75206000D01*
X157667320Y-75206000D01*
X157550778Y-75450186D01*
X157505042Y-75600974D01*
X157626183Y-75833000D01*
X158833000Y-75833000D01*
X158833000Y-75813000D01*
X159087000Y-75813000D01*
X159087000Y-75833000D01*
X159107000Y-75833000D01*
X159107000Y-76087000D01*
X159087000Y-76087000D01*
X159087000Y-76107000D01*
X158833000Y-76107000D01*
X158833000Y-76087000D01*
X157626183Y-76087000D01*
X157505042Y-76319026D01*
X157550778Y-76469814D01*
X157657775Y-76694000D01*
X155969592Y-76694000D01*
X150475376Y-71199785D01*
X150459527Y-71180473D01*
X150382479Y-71117241D01*
X150294575Y-71070255D01*
X150232843Y-71051529D01*
X150232843Y-70898434D01*
X154374628Y-75040220D01*
X154374628Y-75040220D01*
G37*
X154374628Y-75040220D02*
X154390473Y-75059527D01*
X154467521Y-75122759D01*
X154555425Y-75169745D01*
X154650807Y-75198678D01*
X154750000Y-75208448D01*
X154774854Y-75206000D01*
X157667320Y-75206000D01*
X157550778Y-75450186D01*
X157505042Y-75600974D01*
X157626183Y-75833000D01*
X158833000Y-75833000D01*
X158833000Y-75813000D01*
X159087000Y-75813000D01*
X159087000Y-75833000D01*
X159107000Y-75833000D01*
X159107000Y-76087000D01*
X159087000Y-76087000D01*
X159087000Y-76107000D01*
X158833000Y-76107000D01*
X158833000Y-76087000D01*
X157626183Y-76087000D01*
X157505042Y-76319026D01*
X157550778Y-76469814D01*
X157657775Y-76694000D01*
X155969592Y-76694000D01*
X150475376Y-71199785D01*
X150459527Y-71180473D01*
X150382479Y-71117241D01*
X150294575Y-71070255D01*
X150232843Y-71051529D01*
X150232843Y-70898434D01*
X154374628Y-75040220D01*
G36*
X157677316Y-65025056D02*
G01*
X157550778Y-65290186D01*
X157505042Y-65440974D01*
X157626183Y-65673000D01*
X158637675Y-65673000D01*
X158491235Y-65927000D01*
X157626183Y-65927000D01*
X157505042Y-66159026D01*
X157550778Y-66309814D01*
X157677316Y-66574944D01*
X157853146Y-66810293D01*
X158071512Y-67006817D01*
X158177770Y-67070000D01*
X158071512Y-67133183D01*
X157853146Y-67329707D01*
X157677316Y-67565056D01*
X157550778Y-67830186D01*
X157505042Y-67980974D01*
X157626183Y-68213000D01*
X158833000Y-68213000D01*
X158833000Y-68193000D01*
X159087000Y-68193000D01*
X159087000Y-68213000D01*
X159107000Y-68213000D01*
X159107000Y-68467000D01*
X159087000Y-68467000D01*
X159087000Y-68487000D01*
X158833000Y-68487000D01*
X158833000Y-68467000D01*
X157626183Y-68467000D01*
X157505042Y-68699026D01*
X157550778Y-68849814D01*
X157677316Y-69114944D01*
X157853146Y-69350293D01*
X158071512Y-69546817D01*
X158177770Y-69610000D01*
X158071512Y-69673183D01*
X157853146Y-69869707D01*
X157677316Y-70105056D01*
X157550778Y-70370186D01*
X157505042Y-70520974D01*
X157626183Y-70753000D01*
X158491235Y-70753000D01*
X158564455Y-70880000D01*
X158491235Y-71007000D01*
X157626183Y-71007000D01*
X157505042Y-71239026D01*
X157550778Y-71389814D01*
X157677316Y-71654944D01*
X157853146Y-71890293D01*
X158071512Y-72086817D01*
X158177770Y-72150000D01*
X158071512Y-72213183D01*
X157853146Y-72409707D01*
X157677316Y-72645056D01*
X157550778Y-72910186D01*
X157505042Y-73060974D01*
X157626183Y-73293000D01*
X158491235Y-73293000D01*
X158637675Y-73547000D01*
X157626183Y-73547000D01*
X157505042Y-73779026D01*
X157550778Y-73929814D01*
X157676865Y-74194000D01*
X154959592Y-74194000D01*
X150725376Y-69959785D01*
X150709527Y-69940473D01*
X150632479Y-69877241D01*
X150544575Y-69830255D01*
X150449193Y-69801322D01*
X150374854Y-69794000D01*
X150374846Y-69794000D01*
X150350000Y-69791553D01*
X150325154Y-69794000D01*
X149940856Y-69794000D01*
X150028491Y-69687216D01*
X150142798Y-69473363D01*
X150213188Y-69241318D01*
X150236956Y-69000000D01*
X150213188Y-68758682D01*
X150142798Y-68526637D01*
X150028491Y-68312784D01*
X149942237Y-68207682D01*
X149950000Y-68208447D01*
X149974846Y-68206000D01*
X149974854Y-68206000D01*
X150049193Y-68198678D01*
X150144575Y-68169745D01*
X150232479Y-68122759D01*
X150309527Y-68059527D01*
X150325376Y-68040215D01*
X153359592Y-65006000D01*
X157691553Y-65006000D01*
X157677316Y-65025056D01*
X157677316Y-65025056D01*
G37*
X157677316Y-65025056D02*
X157550778Y-65290186D01*
X157505042Y-65440974D01*
X157626183Y-65673000D01*
X158637675Y-65673000D01*
X158491235Y-65927000D01*
X157626183Y-65927000D01*
X157505042Y-66159026D01*
X157550778Y-66309814D01*
X157677316Y-66574944D01*
X157853146Y-66810293D01*
X158071512Y-67006817D01*
X158177770Y-67070000D01*
X158071512Y-67133183D01*
X157853146Y-67329707D01*
X157677316Y-67565056D01*
X157550778Y-67830186D01*
X157505042Y-67980974D01*
X157626183Y-68213000D01*
X158833000Y-68213000D01*
X158833000Y-68193000D01*
X159087000Y-68193000D01*
X159087000Y-68213000D01*
X159107000Y-68213000D01*
X159107000Y-68467000D01*
X159087000Y-68467000D01*
X159087000Y-68487000D01*
X158833000Y-68487000D01*
X158833000Y-68467000D01*
X157626183Y-68467000D01*
X157505042Y-68699026D01*
X157550778Y-68849814D01*
X157677316Y-69114944D01*
X157853146Y-69350293D01*
X158071512Y-69546817D01*
X158177770Y-69610000D01*
X158071512Y-69673183D01*
X157853146Y-69869707D01*
X157677316Y-70105056D01*
X157550778Y-70370186D01*
X157505042Y-70520974D01*
X157626183Y-70753000D01*
X158491235Y-70753000D01*
X158564455Y-70880000D01*
X158491235Y-71007000D01*
X157626183Y-71007000D01*
X157505042Y-71239026D01*
X157550778Y-71389814D01*
X157677316Y-71654944D01*
X157853146Y-71890293D01*
X158071512Y-72086817D01*
X158177770Y-72150000D01*
X158071512Y-72213183D01*
X157853146Y-72409707D01*
X157677316Y-72645056D01*
X157550778Y-72910186D01*
X157505042Y-73060974D01*
X157626183Y-73293000D01*
X158491235Y-73293000D01*
X158637675Y-73547000D01*
X157626183Y-73547000D01*
X157505042Y-73779026D01*
X157550778Y-73929814D01*
X157676865Y-74194000D01*
X154959592Y-74194000D01*
X150725376Y-69959785D01*
X150709527Y-69940473D01*
X150632479Y-69877241D01*
X150544575Y-69830255D01*
X150449193Y-69801322D01*
X150374854Y-69794000D01*
X150374846Y-69794000D01*
X150350000Y-69791553D01*
X150325154Y-69794000D01*
X149940856Y-69794000D01*
X150028491Y-69687216D01*
X150142798Y-69473363D01*
X150213188Y-69241318D01*
X150236956Y-69000000D01*
X150213188Y-68758682D01*
X150142798Y-68526637D01*
X150028491Y-68312784D01*
X149942237Y-68207682D01*
X149950000Y-68208447D01*
X149974846Y-68206000D01*
X149974854Y-68206000D01*
X150049193Y-68198678D01*
X150144575Y-68169745D01*
X150232479Y-68122759D01*
X150309527Y-68059527D01*
X150325376Y-68040215D01*
X153359592Y-65006000D01*
X157691553Y-65006000D01*
X157677316Y-65025056D01*
D17*
G36*
X132297522Y-65398310D02*
G01*
X132300838Y-65518715D01*
X132300903Y-65519700D01*
X132314263Y-65646056D01*
X132314413Y-65647072D01*
X132337559Y-65769920D01*
X132337797Y-65770947D01*
X132370727Y-65890286D01*
X132371053Y-65891302D01*
X132413769Y-66007132D01*
X132414180Y-66008116D01*
X132466680Y-66120438D01*
X132467163Y-66121369D01*
X132529447Y-66230181D01*
X132529989Y-66231045D01*
X132602059Y-66336349D01*
X132602642Y-66337134D01*
X132684496Y-66438928D01*
X132685104Y-66439631D01*
X132768381Y-66528949D01*
X132608949Y-66688381D01*
X132519631Y-66605104D01*
X132518928Y-66604496D01*
X132417134Y-66522642D01*
X132416349Y-66522059D01*
X132311045Y-66449989D01*
X132310181Y-66449447D01*
X132201369Y-66387163D01*
X132200438Y-66386680D01*
X132088116Y-66334180D01*
X132087132Y-66333769D01*
X131971302Y-66291053D01*
X131970286Y-66290727D01*
X131850947Y-66257797D01*
X131849920Y-66257559D01*
X131727072Y-66234413D01*
X131726056Y-66234263D01*
X131599700Y-66220903D01*
X131598715Y-66220838D01*
X131478310Y-66217522D01*
X131177459Y-65097459D01*
X132297522Y-65398310D01*
X132297522Y-65398310D01*
G37*
X132297522Y-65398310D02*
X132300838Y-65518715D01*
X132300903Y-65519700D01*
X132314263Y-65646056D01*
X132314413Y-65647072D01*
X132337559Y-65769920D01*
X132337797Y-65770947D01*
X132370727Y-65890286D01*
X132371053Y-65891302D01*
X132413769Y-66007132D01*
X132414180Y-66008116D01*
X132466680Y-66120438D01*
X132467163Y-66121369D01*
X132529447Y-66230181D01*
X132529989Y-66231045D01*
X132602059Y-66336349D01*
X132602642Y-66337134D01*
X132684496Y-66438928D01*
X132685104Y-66439631D01*
X132768381Y-66528949D01*
X132608949Y-66688381D01*
X132519631Y-66605104D01*
X132518928Y-66604496D01*
X132417134Y-66522642D01*
X132416349Y-66522059D01*
X132311045Y-66449989D01*
X132310181Y-66449447D01*
X132201369Y-66387163D01*
X132200438Y-66386680D01*
X132088116Y-66334180D01*
X132087132Y-66333769D01*
X131971302Y-66291053D01*
X131970286Y-66290727D01*
X131850947Y-66257797D01*
X131849920Y-66257559D01*
X131727072Y-66234413D01*
X131726056Y-66234263D01*
X131599700Y-66220903D01*
X131598715Y-66220838D01*
X131478310Y-66217522D01*
X131177459Y-65097459D01*
X132297522Y-65398310D01*
G36*
X139441690Y-68757522D02*
G01*
X139321284Y-68760838D01*
X139320299Y-68760903D01*
X139193943Y-68774263D01*
X139192927Y-68774413D01*
X139070079Y-68797559D01*
X139069052Y-68797797D01*
X138949713Y-68830727D01*
X138948697Y-68831053D01*
X138832867Y-68873769D01*
X138831883Y-68874180D01*
X138719561Y-68926680D01*
X138718630Y-68927163D01*
X138609818Y-68989447D01*
X138608954Y-68989989D01*
X138503650Y-69062059D01*
X138502865Y-69062642D01*
X138401071Y-69144496D01*
X138400368Y-69145104D01*
X138311051Y-69228381D01*
X138151619Y-69068949D01*
X138234895Y-68979631D01*
X138235503Y-68978928D01*
X138317357Y-68877134D01*
X138317940Y-68876349D01*
X138390010Y-68771045D01*
X138390552Y-68770181D01*
X138452837Y-68661369D01*
X138453320Y-68660438D01*
X138505820Y-68548116D01*
X138506231Y-68547132D01*
X138548946Y-68431302D01*
X138549272Y-68430286D01*
X138582202Y-68310947D01*
X138582440Y-68309920D01*
X138605586Y-68187072D01*
X138605736Y-68186056D01*
X138619097Y-68059700D01*
X138619162Y-68058715D01*
X138622478Y-67938310D01*
X139742541Y-67637459D01*
X139441690Y-68757522D01*
X139441690Y-68757522D01*
G37*
X139441690Y-68757522D02*
X139321284Y-68760838D01*
X139320299Y-68760903D01*
X139193943Y-68774263D01*
X139192927Y-68774413D01*
X139070079Y-68797559D01*
X139069052Y-68797797D01*
X138949713Y-68830727D01*
X138948697Y-68831053D01*
X138832867Y-68873769D01*
X138831883Y-68874180D01*
X138719561Y-68926680D01*
X138718630Y-68927163D01*
X138609818Y-68989447D01*
X138608954Y-68989989D01*
X138503650Y-69062059D01*
X138502865Y-69062642D01*
X138401071Y-69144496D01*
X138400368Y-69145104D01*
X138311051Y-69228381D01*
X138151619Y-69068949D01*
X138234895Y-68979631D01*
X138235503Y-68978928D01*
X138317357Y-68877134D01*
X138317940Y-68876349D01*
X138390010Y-68771045D01*
X138390552Y-68770181D01*
X138452837Y-68661369D01*
X138453320Y-68660438D01*
X138505820Y-68548116D01*
X138506231Y-68547132D01*
X138548946Y-68431302D01*
X138549272Y-68430286D01*
X138582202Y-68310947D01*
X138582440Y-68309920D01*
X138605586Y-68187072D01*
X138605736Y-68186056D01*
X138619097Y-68059700D01*
X138619162Y-68058715D01*
X138622478Y-67938310D01*
X139742541Y-67637459D01*
X139441690Y-68757522D01*
G36*
X161481558Y-64111106D02*
G01*
X161358747Y-64114299D01*
X161357796Y-64114360D01*
X161229506Y-64127365D01*
X161228518Y-64127504D01*
X161104227Y-64150074D01*
X161103218Y-64150300D01*
X160982924Y-64182435D01*
X160981915Y-64182750D01*
X160865618Y-64224451D01*
X160864631Y-64224853D01*
X160752333Y-64276119D01*
X160751388Y-64276599D01*
X160643087Y-64337430D01*
X160642201Y-64337976D01*
X160537897Y-64408372D01*
X160537085Y-64408968D01*
X160436780Y-64488930D01*
X160436050Y-64489559D01*
X160348710Y-64570749D01*
X160189251Y-64411290D01*
X160270440Y-64323949D01*
X160271069Y-64323219D01*
X160351031Y-64222914D01*
X160351627Y-64222102D01*
X160422023Y-64117798D01*
X160422569Y-64116912D01*
X160483400Y-64008611D01*
X160483880Y-64007666D01*
X160535146Y-63895368D01*
X160535548Y-63894381D01*
X160577249Y-63778084D01*
X160577564Y-63777075D01*
X160609699Y-63656781D01*
X160609925Y-63655772D01*
X160632495Y-63531481D01*
X160632634Y-63530493D01*
X160645639Y-63402203D01*
X160645700Y-63401252D01*
X160648894Y-63278442D01*
X161787349Y-62972651D01*
X161481558Y-64111106D01*
X161481558Y-64111106D01*
G37*
X161481558Y-64111106D02*
X161358747Y-64114299D01*
X161357796Y-64114360D01*
X161229506Y-64127365D01*
X161228518Y-64127504D01*
X161104227Y-64150074D01*
X161103218Y-64150300D01*
X160982924Y-64182435D01*
X160981915Y-64182750D01*
X160865618Y-64224451D01*
X160864631Y-64224853D01*
X160752333Y-64276119D01*
X160751388Y-64276599D01*
X160643087Y-64337430D01*
X160642201Y-64337976D01*
X160537897Y-64408372D01*
X160537085Y-64408968D01*
X160436780Y-64488930D01*
X160436050Y-64489559D01*
X160348710Y-64570749D01*
X160189251Y-64411290D01*
X160270440Y-64323949D01*
X160271069Y-64323219D01*
X160351031Y-64222914D01*
X160351627Y-64222102D01*
X160422023Y-64117798D01*
X160422569Y-64116912D01*
X160483400Y-64008611D01*
X160483880Y-64007666D01*
X160535146Y-63895368D01*
X160535548Y-63894381D01*
X160577249Y-63778084D01*
X160577564Y-63777075D01*
X160609699Y-63656781D01*
X160609925Y-63655772D01*
X160632495Y-63531481D01*
X160632634Y-63530493D01*
X160645639Y-63402203D01*
X160645700Y-63401252D01*
X160648894Y-63278442D01*
X161787349Y-62972651D01*
X161481558Y-64111106D01*
G36*
X140297517Y-67938308D02*
G01*
X140300761Y-68058630D01*
X140300824Y-68059603D01*
X140313956Y-68185731D01*
X140314102Y-68186737D01*
X140336865Y-68309202D01*
X140337098Y-68310222D01*
X140369493Y-68429026D01*
X140369816Y-68430040D01*
X140411843Y-68545182D01*
X140412250Y-68546167D01*
X140463909Y-68657647D01*
X140464391Y-68658583D01*
X140525682Y-68766401D01*
X140526226Y-68767273D01*
X140597149Y-68871430D01*
X140597737Y-68872225D01*
X140678292Y-68972720D01*
X140678907Y-68973433D01*
X140760741Y-69061298D01*
X140601298Y-69220741D01*
X140513433Y-69138907D01*
X140512720Y-69138292D01*
X140412225Y-69057737D01*
X140411430Y-69057149D01*
X140307273Y-68986226D01*
X140306401Y-68985682D01*
X140198583Y-68924391D01*
X140197647Y-68923909D01*
X140086167Y-68872250D01*
X140085182Y-68871843D01*
X139970040Y-68829816D01*
X139969026Y-68829493D01*
X139850222Y-68797098D01*
X139849202Y-68796865D01*
X139726737Y-68774102D01*
X139725731Y-68773956D01*
X139599603Y-68760824D01*
X139598630Y-68760761D01*
X139478308Y-68757517D01*
X139177459Y-67637459D01*
X140297517Y-67938308D01*
X140297517Y-67938308D01*
G37*
X140297517Y-67938308D02*
X140300761Y-68058630D01*
X140300824Y-68059603D01*
X140313956Y-68185731D01*
X140314102Y-68186737D01*
X140336865Y-68309202D01*
X140337098Y-68310222D01*
X140369493Y-68429026D01*
X140369816Y-68430040D01*
X140411843Y-68545182D01*
X140412250Y-68546167D01*
X140463909Y-68657647D01*
X140464391Y-68658583D01*
X140525682Y-68766401D01*
X140526226Y-68767273D01*
X140597149Y-68871430D01*
X140597737Y-68872225D01*
X140678292Y-68972720D01*
X140678907Y-68973433D01*
X140760741Y-69061298D01*
X140601298Y-69220741D01*
X140513433Y-69138907D01*
X140512720Y-69138292D01*
X140412225Y-69057737D01*
X140411430Y-69057149D01*
X140307273Y-68986226D01*
X140306401Y-68985682D01*
X140198583Y-68924391D01*
X140197647Y-68923909D01*
X140086167Y-68872250D01*
X140085182Y-68871843D01*
X139970040Y-68829816D01*
X139969026Y-68829493D01*
X139850222Y-68797098D01*
X139849202Y-68796865D01*
X139726737Y-68774102D01*
X139725731Y-68773956D01*
X139599603Y-68760824D01*
X139598630Y-68760761D01*
X139478308Y-68757517D01*
X139177459Y-67637459D01*
X140297517Y-67938308D01*
G36*
X141981768Y-66217234D02*
G01*
X141865541Y-66216956D01*
X141865319Y-66216957D01*
X141750591Y-66218688D01*
X141750321Y-66218695D01*
X141646856Y-66222459D01*
X141646521Y-66222476D01*
X141554317Y-66228271D01*
X141553892Y-66228305D01*
X141472951Y-66236132D01*
X141472394Y-66236198D01*
X141402713Y-66246057D01*
X141401959Y-66246187D01*
X141343541Y-66258078D01*
X141342478Y-66258343D01*
X141295321Y-66272265D01*
X141293758Y-66272840D01*
X141257864Y-66288795D01*
X141255534Y-66290143D01*
X141239681Y-66301718D01*
X141078281Y-66140318D01*
X141089856Y-66124465D01*
X141091204Y-66122135D01*
X141107159Y-66086241D01*
X141107734Y-66084678D01*
X141121656Y-66037521D01*
X141121921Y-66036458D01*
X141133812Y-65978040D01*
X141133942Y-65977286D01*
X141143801Y-65907606D01*
X141143867Y-65907049D01*
X141151694Y-65826107D01*
X141151728Y-65825682D01*
X141157523Y-65733478D01*
X141157540Y-65733143D01*
X141161304Y-65629678D01*
X141161311Y-65629408D01*
X141163042Y-65514680D01*
X141163043Y-65514458D01*
X141162766Y-65398232D01*
X142282541Y-65097459D01*
X141981768Y-66217234D01*
X141981768Y-66217234D01*
G37*
X141981768Y-66217234D02*
X141865541Y-66216956D01*
X141865319Y-66216957D01*
X141750591Y-66218688D01*
X141750321Y-66218695D01*
X141646856Y-66222459D01*
X141646521Y-66222476D01*
X141554317Y-66228271D01*
X141553892Y-66228305D01*
X141472951Y-66236132D01*
X141472394Y-66236198D01*
X141402713Y-66246057D01*
X141401959Y-66246187D01*
X141343541Y-66258078D01*
X141342478Y-66258343D01*
X141295321Y-66272265D01*
X141293758Y-66272840D01*
X141257864Y-66288795D01*
X141255534Y-66290143D01*
X141239681Y-66301718D01*
X141078281Y-66140318D01*
X141089856Y-66124465D01*
X141091204Y-66122135D01*
X141107159Y-66086241D01*
X141107734Y-66084678D01*
X141121656Y-66037521D01*
X141121921Y-66036458D01*
X141133812Y-65978040D01*
X141133942Y-65977286D01*
X141143801Y-65907606D01*
X141143867Y-65907049D01*
X141151694Y-65826107D01*
X141151728Y-65825682D01*
X141157523Y-65733478D01*
X141157540Y-65733143D01*
X141161304Y-65629678D01*
X141161311Y-65629408D01*
X141163042Y-65514680D01*
X141163043Y-65514458D01*
X141162766Y-65398232D01*
X142282541Y-65097459D01*
X141981768Y-66217234D01*
G36*
X135245781Y-66833740D02*
G01*
X135174320Y-66911157D01*
X135173644Y-66911952D01*
X135102439Y-67003097D01*
X135101816Y-67003969D01*
X135039143Y-67099876D01*
X135038589Y-67100808D01*
X134984448Y-67201477D01*
X134983977Y-67202450D01*
X134938368Y-67307880D01*
X134937987Y-67308872D01*
X134900909Y-67419064D01*
X134900620Y-67420053D01*
X134872075Y-67535007D01*
X134871875Y-67535974D01*
X134851862Y-67655689D01*
X134851742Y-67656616D01*
X134840260Y-67781094D01*
X134840209Y-67781971D01*
X134837477Y-67901702D01*
X133717459Y-68202541D01*
X134018298Y-67082523D01*
X134138028Y-67079790D01*
X134138905Y-67079739D01*
X134263383Y-67068257D01*
X134264310Y-67068137D01*
X134384025Y-67048124D01*
X134384992Y-67047924D01*
X134499946Y-67019379D01*
X134500935Y-67019090D01*
X134611127Y-66982013D01*
X134612120Y-66981632D01*
X134717550Y-66936022D01*
X134718522Y-66935551D01*
X134819191Y-66881410D01*
X134820123Y-66880856D01*
X134916030Y-66818183D01*
X134916902Y-66817560D01*
X135008047Y-66746355D01*
X135008842Y-66745679D01*
X135086260Y-66674219D01*
X135245781Y-66833740D01*
X135245781Y-66833740D01*
G37*
X135245781Y-66833740D02*
X135174320Y-66911157D01*
X135173644Y-66911952D01*
X135102439Y-67003097D01*
X135101816Y-67003969D01*
X135039143Y-67099876D01*
X135038589Y-67100808D01*
X134984448Y-67201477D01*
X134983977Y-67202450D01*
X134938368Y-67307880D01*
X134937987Y-67308872D01*
X134900909Y-67419064D01*
X134900620Y-67420053D01*
X134872075Y-67535007D01*
X134871875Y-67535974D01*
X134851862Y-67655689D01*
X134851742Y-67656616D01*
X134840260Y-67781094D01*
X134840209Y-67781971D01*
X134837477Y-67901702D01*
X133717459Y-68202541D01*
X134018298Y-67082523D01*
X134138028Y-67079790D01*
X134138905Y-67079739D01*
X134263383Y-67068257D01*
X134264310Y-67068137D01*
X134384025Y-67048124D01*
X134384992Y-67047924D01*
X134499946Y-67019379D01*
X134500935Y-67019090D01*
X134611127Y-66982013D01*
X134612120Y-66981632D01*
X134717550Y-66936022D01*
X134718522Y-66935551D01*
X134819191Y-66881410D01*
X134820123Y-66880856D01*
X134916030Y-66818183D01*
X134916902Y-66817560D01*
X135008047Y-66746355D01*
X135008842Y-66745679D01*
X135086260Y-66674219D01*
X135245781Y-66833740D01*
G36*
X140297522Y-70478310D02*
G01*
X140300838Y-70598715D01*
X140300903Y-70599700D01*
X140314263Y-70726056D01*
X140314413Y-70727072D01*
X140337559Y-70849920D01*
X140337797Y-70850947D01*
X140370727Y-70970286D01*
X140371053Y-70971302D01*
X140413769Y-71087132D01*
X140414180Y-71088116D01*
X140466680Y-71200438D01*
X140467163Y-71201369D01*
X140529447Y-71310181D01*
X140529989Y-71311045D01*
X140602059Y-71416349D01*
X140602642Y-71417134D01*
X140684496Y-71518928D01*
X140685104Y-71519631D01*
X140768381Y-71608949D01*
X140608949Y-71768381D01*
X140519631Y-71685104D01*
X140518928Y-71684496D01*
X140417134Y-71602642D01*
X140416349Y-71602059D01*
X140311045Y-71529989D01*
X140310181Y-71529447D01*
X140201369Y-71467163D01*
X140200438Y-71466680D01*
X140088116Y-71414180D01*
X140087132Y-71413769D01*
X139971302Y-71371053D01*
X139970286Y-71370727D01*
X139850947Y-71337797D01*
X139849920Y-71337559D01*
X139727072Y-71314413D01*
X139726056Y-71314263D01*
X139599700Y-71300903D01*
X139598715Y-71300838D01*
X139478310Y-71297522D01*
X139177459Y-70177459D01*
X140297522Y-70478310D01*
X140297522Y-70478310D01*
G37*
X140297522Y-70478310D02*
X140300838Y-70598715D01*
X140300903Y-70599700D01*
X140314263Y-70726056D01*
X140314413Y-70727072D01*
X140337559Y-70849920D01*
X140337797Y-70850947D01*
X140370727Y-70970286D01*
X140371053Y-70971302D01*
X140413769Y-71087132D01*
X140414180Y-71088116D01*
X140466680Y-71200438D01*
X140467163Y-71201369D01*
X140529447Y-71310181D01*
X140529989Y-71311045D01*
X140602059Y-71416349D01*
X140602642Y-71417134D01*
X140684496Y-71518928D01*
X140685104Y-71519631D01*
X140768381Y-71608949D01*
X140608949Y-71768381D01*
X140519631Y-71685104D01*
X140518928Y-71684496D01*
X140417134Y-71602642D01*
X140416349Y-71602059D01*
X140311045Y-71529989D01*
X140310181Y-71529447D01*
X140201369Y-71467163D01*
X140200438Y-71466680D01*
X140088116Y-71414180D01*
X140087132Y-71413769D01*
X139971302Y-71371053D01*
X139970286Y-71370727D01*
X139850947Y-71337797D01*
X139849920Y-71337559D01*
X139727072Y-71314413D01*
X139726056Y-71314263D01*
X139599700Y-71300903D01*
X139598715Y-71300838D01*
X139478310Y-71297522D01*
X139177459Y-70177459D01*
X140297522Y-70478310D01*
G36*
X162351121Y-60738446D02*
G01*
X162354509Y-60861481D01*
X162354574Y-60862466D01*
X162368204Y-60991381D01*
X162368354Y-60992397D01*
X162391968Y-61117732D01*
X162392205Y-61118759D01*
X162425800Y-61240513D01*
X162426127Y-61241529D01*
X162469706Y-61359703D01*
X162470117Y-61360686D01*
X162523677Y-61475280D01*
X162524160Y-61476212D01*
X162587703Y-61587225D01*
X162588245Y-61588089D01*
X162661771Y-61695521D01*
X162662354Y-61696306D01*
X162745862Y-61800159D01*
X162746470Y-61800862D01*
X162831598Y-61892165D01*
X162672165Y-62051598D01*
X162580862Y-61966470D01*
X162580159Y-61965862D01*
X162476306Y-61882354D01*
X162475521Y-61881771D01*
X162368089Y-61808245D01*
X162367225Y-61807703D01*
X162256212Y-61744160D01*
X162255280Y-61743677D01*
X162140686Y-61690117D01*
X162139703Y-61689706D01*
X162021529Y-61646127D01*
X162020513Y-61645800D01*
X161898759Y-61612205D01*
X161897732Y-61611968D01*
X161772397Y-61588354D01*
X161771381Y-61588204D01*
X161642466Y-61574574D01*
X161641481Y-61574509D01*
X161518446Y-61571121D01*
X161212651Y-60432651D01*
X162351121Y-60738446D01*
X162351121Y-60738446D01*
G37*
X162351121Y-60738446D02*
X162354509Y-60861481D01*
X162354574Y-60862466D01*
X162368204Y-60991381D01*
X162368354Y-60992397D01*
X162391968Y-61117732D01*
X162392205Y-61118759D01*
X162425800Y-61240513D01*
X162426127Y-61241529D01*
X162469706Y-61359703D01*
X162470117Y-61360686D01*
X162523677Y-61475280D01*
X162524160Y-61476212D01*
X162587703Y-61587225D01*
X162588245Y-61588089D01*
X162661771Y-61695521D01*
X162662354Y-61696306D01*
X162745862Y-61800159D01*
X162746470Y-61800862D01*
X162831598Y-61892165D01*
X162672165Y-62051598D01*
X162580862Y-61966470D01*
X162580159Y-61965862D01*
X162476306Y-61882354D01*
X162475521Y-61881771D01*
X162368089Y-61808245D01*
X162367225Y-61807703D01*
X162256212Y-61744160D01*
X162255280Y-61743677D01*
X162140686Y-61690117D01*
X162139703Y-61689706D01*
X162021529Y-61646127D01*
X162020513Y-61645800D01*
X161898759Y-61612205D01*
X161897732Y-61611968D01*
X161772397Y-61588354D01*
X161771381Y-61588204D01*
X161642466Y-61574574D01*
X161641481Y-61574509D01*
X161518446Y-61571121D01*
X161212651Y-60432651D01*
X162351121Y-60738446D01*
G36*
X160419837Y-74714227D02*
G01*
X160420540Y-74714836D01*
X160524245Y-74798198D01*
X160525032Y-74798782D01*
X160632336Y-74872178D01*
X160633201Y-74872720D01*
X160744102Y-74936151D01*
X160745034Y-74936634D01*
X160859532Y-74990100D01*
X160860515Y-74990510D01*
X160978612Y-75034011D01*
X160979628Y-75034338D01*
X161101322Y-75067873D01*
X161102348Y-75068110D01*
X161227639Y-75091680D01*
X161228654Y-75091829D01*
X161357544Y-75105434D01*
X161358528Y-75105499D01*
X161481554Y-75108879D01*
X161787349Y-76247349D01*
X160648879Y-75941554D01*
X160645499Y-75818528D01*
X160645434Y-75817544D01*
X160631829Y-75688654D01*
X160631680Y-75687639D01*
X160608110Y-75562348D01*
X160607873Y-75561322D01*
X160574338Y-75439628D01*
X160574011Y-75438612D01*
X160530510Y-75320515D01*
X160530100Y-75319532D01*
X160476634Y-75205034D01*
X160476151Y-75204102D01*
X160412720Y-75093201D01*
X160412178Y-75092336D01*
X160338782Y-74985032D01*
X160338198Y-74984245D01*
X160254836Y-74880540D01*
X160254227Y-74879837D01*
X160169263Y-74788698D01*
X160328698Y-74629263D01*
X160419837Y-74714227D01*
X160419837Y-74714227D01*
G37*
X160419837Y-74714227D02*
X160420540Y-74714836D01*
X160524245Y-74798198D01*
X160525032Y-74798782D01*
X160632336Y-74872178D01*
X160633201Y-74872720D01*
X160744102Y-74936151D01*
X160745034Y-74936634D01*
X160859532Y-74990100D01*
X160860515Y-74990510D01*
X160978612Y-75034011D01*
X160979628Y-75034338D01*
X161101322Y-75067873D01*
X161102348Y-75068110D01*
X161227639Y-75091680D01*
X161228654Y-75091829D01*
X161357544Y-75105434D01*
X161358528Y-75105499D01*
X161481554Y-75108879D01*
X161787349Y-76247349D01*
X160648879Y-75941554D01*
X160645499Y-75818528D01*
X160645434Y-75817544D01*
X160631829Y-75688654D01*
X160631680Y-75687639D01*
X160608110Y-75562348D01*
X160607873Y-75561322D01*
X160574338Y-75439628D01*
X160574011Y-75438612D01*
X160530510Y-75320515D01*
X160530100Y-75319532D01*
X160476634Y-75205034D01*
X160476151Y-75204102D01*
X160412720Y-75093201D01*
X160412178Y-75092336D01*
X160338782Y-74985032D01*
X160338198Y-74984245D01*
X160254836Y-74880540D01*
X160254227Y-74879837D01*
X160169263Y-74788698D01*
X160328698Y-74629263D01*
X160419837Y-74714227D01*
G36*
X142694410Y-69962075D02*
G01*
X142695524Y-69962982D01*
X142799119Y-70038082D01*
X142800352Y-70038872D01*
X142911585Y-70101372D01*
X142912890Y-70102010D01*
X143031761Y-70151910D01*
X143033085Y-70152382D01*
X143159593Y-70189682D01*
X143160885Y-70189990D01*
X143295031Y-70214690D01*
X143296251Y-70214854D01*
X143438035Y-70226954D01*
X143439157Y-70227000D01*
X143588579Y-70226500D01*
X143589593Y-70226456D01*
X143746653Y-70213356D01*
X143747555Y-70213248D01*
X143897595Y-70189835D01*
X143897595Y-70414721D01*
X143742950Y-70447679D01*
X143742367Y-70447818D01*
X143585307Y-70489118D01*
X143584690Y-70489297D01*
X143435268Y-70536797D01*
X143434617Y-70537023D01*
X143292833Y-70590723D01*
X143292153Y-70591004D01*
X143158007Y-70650904D01*
X143157304Y-70651244D01*
X143030796Y-70717344D01*
X143030077Y-70717749D01*
X142911206Y-70790049D01*
X142910483Y-70790524D01*
X142799250Y-70869024D01*
X142798534Y-70869568D01*
X142694939Y-70954268D01*
X142694244Y-70954880D01*
X142605161Y-71039269D01*
X141600426Y-70460000D01*
X142605312Y-69880644D01*
X142694410Y-69962075D01*
X142694410Y-69962075D01*
G37*
X142694410Y-69962075D02*
X142695524Y-69962982D01*
X142799119Y-70038082D01*
X142800352Y-70038872D01*
X142911585Y-70101372D01*
X142912890Y-70102010D01*
X143031761Y-70151910D01*
X143033085Y-70152382D01*
X143159593Y-70189682D01*
X143160885Y-70189990D01*
X143295031Y-70214690D01*
X143296251Y-70214854D01*
X143438035Y-70226954D01*
X143439157Y-70227000D01*
X143588579Y-70226500D01*
X143589593Y-70226456D01*
X143746653Y-70213356D01*
X143747555Y-70213248D01*
X143897595Y-70189835D01*
X143897595Y-70414721D01*
X143742950Y-70447679D01*
X143742367Y-70447818D01*
X143585307Y-70489118D01*
X143584690Y-70489297D01*
X143435268Y-70536797D01*
X143434617Y-70537023D01*
X143292833Y-70590723D01*
X143292153Y-70591004D01*
X143158007Y-70650904D01*
X143157304Y-70651244D01*
X143030796Y-70717344D01*
X143030077Y-70717749D01*
X142911206Y-70790049D01*
X142910483Y-70790524D01*
X142799250Y-70869024D01*
X142798534Y-70869568D01*
X142694939Y-70954268D01*
X142694244Y-70954880D01*
X142605161Y-71039269D01*
X141600426Y-70460000D01*
X142605312Y-69880644D01*
X142694410Y-69962075D01*
G36*
X159077102Y-61614326D02*
G01*
X159077168Y-61615253D01*
X159091554Y-61747737D01*
X159091697Y-61748705D01*
X159115673Y-61876662D01*
X159115901Y-61877656D01*
X159149467Y-62001086D01*
X159149784Y-62002086D01*
X159192941Y-62120989D01*
X159193346Y-62121975D01*
X159246094Y-62236351D01*
X159246582Y-62237300D01*
X159308919Y-62347149D01*
X159309476Y-62348043D01*
X159381404Y-62453365D01*
X159382017Y-62454189D01*
X159463536Y-62554984D01*
X159464187Y-62555728D01*
X159548791Y-62645123D01*
X158960000Y-63666374D01*
X158371209Y-62645123D01*
X158455812Y-62555728D01*
X158456463Y-62554984D01*
X158537982Y-62454189D01*
X158538595Y-62453365D01*
X158610523Y-62348043D01*
X158611080Y-62347149D01*
X158673417Y-62237300D01*
X158673905Y-62236351D01*
X158726653Y-62121975D01*
X158727058Y-62120989D01*
X158770215Y-62002086D01*
X158770532Y-62001086D01*
X158804098Y-61877656D01*
X158804326Y-61876662D01*
X158828302Y-61748705D01*
X158828445Y-61747737D01*
X158842831Y-61615253D01*
X158842897Y-61614326D01*
X158847264Y-61489572D01*
X159072736Y-61489572D01*
X159077102Y-61614326D01*
X159077102Y-61614326D01*
G37*
X159077102Y-61614326D02*
X159077168Y-61615253D01*
X159091554Y-61747737D01*
X159091697Y-61748705D01*
X159115673Y-61876662D01*
X159115901Y-61877656D01*
X159149467Y-62001086D01*
X159149784Y-62002086D01*
X159192941Y-62120989D01*
X159193346Y-62121975D01*
X159246094Y-62236351D01*
X159246582Y-62237300D01*
X159308919Y-62347149D01*
X159309476Y-62348043D01*
X159381404Y-62453365D01*
X159382017Y-62454189D01*
X159463536Y-62554984D01*
X159464187Y-62555728D01*
X159548791Y-62645123D01*
X158960000Y-63666374D01*
X158371209Y-62645123D01*
X158455812Y-62555728D01*
X158456463Y-62554984D01*
X158537982Y-62454189D01*
X158538595Y-62453365D01*
X158610523Y-62348043D01*
X158611080Y-62347149D01*
X158673417Y-62237300D01*
X158673905Y-62236351D01*
X158726653Y-62121975D01*
X158727058Y-62120989D01*
X158770215Y-62002086D01*
X158770532Y-62001086D01*
X158804098Y-61877656D01*
X158804326Y-61876662D01*
X158828302Y-61748705D01*
X158828445Y-61747737D01*
X158842831Y-61615253D01*
X158842897Y-61614326D01*
X158847264Y-61489572D01*
X159072736Y-61489572D01*
X159077102Y-61614326D01*
G36*
X159548641Y-56254616D02*
G01*
X159464453Y-56338380D01*
X159464300Y-56338535D01*
X159382781Y-56422475D01*
X159382598Y-56422668D01*
X159310670Y-56499900D01*
X159310449Y-56500144D01*
X159248112Y-56570666D01*
X159247838Y-56570986D01*
X159195091Y-56634799D01*
X159194748Y-56635233D01*
X159151591Y-56692336D01*
X159151153Y-56692953D01*
X159117586Y-56743347D01*
X159117023Y-56744277D01*
X159093047Y-56787962D01*
X159092344Y-56789467D01*
X159077959Y-56826442D01*
X159077251Y-56829060D01*
X159074153Y-56848614D01*
X158845847Y-56848614D01*
X158842748Y-56829059D01*
X158842040Y-56826442D01*
X158827655Y-56789467D01*
X158826952Y-56787962D01*
X158802976Y-56744277D01*
X158802413Y-56743347D01*
X158768846Y-56692953D01*
X158768408Y-56692336D01*
X158725252Y-56635233D01*
X158724909Y-56634799D01*
X158672161Y-56570986D01*
X158671887Y-56570666D01*
X158609550Y-56500144D01*
X158609329Y-56499900D01*
X158537401Y-56422668D01*
X158537218Y-56422475D01*
X158455699Y-56338535D01*
X158455546Y-56338380D01*
X158371359Y-56254616D01*
X158960000Y-55233626D01*
X159548641Y-56254616D01*
X159548641Y-56254616D01*
G37*
X159548641Y-56254616D02*
X159464453Y-56338380D01*
X159464300Y-56338535D01*
X159382781Y-56422475D01*
X159382598Y-56422668D01*
X159310670Y-56499900D01*
X159310449Y-56500144D01*
X159248112Y-56570666D01*
X159247838Y-56570986D01*
X159195091Y-56634799D01*
X159194748Y-56635233D01*
X159151591Y-56692336D01*
X159151153Y-56692953D01*
X159117586Y-56743347D01*
X159117023Y-56744277D01*
X159093047Y-56787962D01*
X159092344Y-56789467D01*
X159077959Y-56826442D01*
X159077251Y-56829060D01*
X159074153Y-56848614D01*
X158845847Y-56848614D01*
X158842748Y-56829059D01*
X158842040Y-56826442D01*
X158827655Y-56789467D01*
X158826952Y-56787962D01*
X158802976Y-56744277D01*
X158802413Y-56743347D01*
X158768846Y-56692953D01*
X158768408Y-56692336D01*
X158725252Y-56635233D01*
X158724909Y-56634799D01*
X158672161Y-56570986D01*
X158671887Y-56570666D01*
X158609550Y-56500144D01*
X158609329Y-56499900D01*
X158537401Y-56422668D01*
X158537218Y-56422475D01*
X158455699Y-56338535D01*
X158455546Y-56338380D01*
X158371359Y-56254616D01*
X158960000Y-55233626D01*
X159548641Y-56254616D01*
G36*
X159548791Y-66414877D02*
G01*
X159464187Y-66504271D01*
X159463536Y-66505015D01*
X159382017Y-66605810D01*
X159381404Y-66606634D01*
X159309476Y-66711956D01*
X159308919Y-66712850D01*
X159246582Y-66822699D01*
X159246094Y-66823648D01*
X159193346Y-66938024D01*
X159192941Y-66939010D01*
X159149784Y-67057913D01*
X159149467Y-67058913D01*
X159115901Y-67182343D01*
X159115673Y-67183337D01*
X159091697Y-67311294D01*
X159091554Y-67312262D01*
X159077168Y-67444746D01*
X159077102Y-67445673D01*
X159072736Y-67570428D01*
X158847264Y-67570428D01*
X158842897Y-67445673D01*
X158842831Y-67444746D01*
X158828445Y-67312262D01*
X158828302Y-67311294D01*
X158804326Y-67183337D01*
X158804098Y-67182343D01*
X158770532Y-67058913D01*
X158770215Y-67057913D01*
X158727058Y-66939010D01*
X158726653Y-66938024D01*
X158673905Y-66823648D01*
X158673417Y-66822699D01*
X158611080Y-66712850D01*
X158610523Y-66711956D01*
X158538595Y-66606634D01*
X158537982Y-66605810D01*
X158456463Y-66505015D01*
X158455812Y-66504271D01*
X158371209Y-66414877D01*
X158960000Y-65393626D01*
X159548791Y-66414877D01*
X159548791Y-66414877D01*
G37*
X159548791Y-66414877D02*
X159464187Y-66504271D01*
X159463536Y-66505015D01*
X159382017Y-66605810D01*
X159381404Y-66606634D01*
X159309476Y-66711956D01*
X159308919Y-66712850D01*
X159246582Y-66822699D01*
X159246094Y-66823648D01*
X159193346Y-66938024D01*
X159192941Y-66939010D01*
X159149784Y-67057913D01*
X159149467Y-67058913D01*
X159115901Y-67182343D01*
X159115673Y-67183337D01*
X159091697Y-67311294D01*
X159091554Y-67312262D01*
X159077168Y-67444746D01*
X159077102Y-67445673D01*
X159072736Y-67570428D01*
X158847264Y-67570428D01*
X158842897Y-67445673D01*
X158842831Y-67444746D01*
X158828445Y-67312262D01*
X158828302Y-67311294D01*
X158804326Y-67183337D01*
X158804098Y-67182343D01*
X158770532Y-67058913D01*
X158770215Y-67057913D01*
X158727058Y-66939010D01*
X158726653Y-66938024D01*
X158673905Y-66823648D01*
X158673417Y-66822699D01*
X158611080Y-66712850D01*
X158610523Y-66711956D01*
X158538595Y-66606634D01*
X158537982Y-66605810D01*
X158456463Y-66505015D01*
X158455812Y-66504271D01*
X158371209Y-66414877D01*
X158960000Y-65393626D01*
X159548791Y-66414877D01*
G36*
X159077102Y-69234326D02*
G01*
X159077168Y-69235253D01*
X159091554Y-69367737D01*
X159091697Y-69368705D01*
X159115673Y-69496662D01*
X159115901Y-69497656D01*
X159149467Y-69621086D01*
X159149784Y-69622086D01*
X159192941Y-69740989D01*
X159193346Y-69741975D01*
X159246094Y-69856351D01*
X159246582Y-69857300D01*
X159308919Y-69967149D01*
X159309476Y-69968043D01*
X159381404Y-70073365D01*
X159382017Y-70074189D01*
X159463536Y-70174984D01*
X159464187Y-70175728D01*
X159548791Y-70265123D01*
X158960000Y-71286374D01*
X158371209Y-70265123D01*
X158455812Y-70175728D01*
X158456463Y-70174984D01*
X158537982Y-70074189D01*
X158538595Y-70073365D01*
X158610523Y-69968043D01*
X158611080Y-69967149D01*
X158673417Y-69857300D01*
X158673905Y-69856351D01*
X158726653Y-69741975D01*
X158727058Y-69740989D01*
X158770215Y-69622086D01*
X158770532Y-69621086D01*
X158804098Y-69497656D01*
X158804326Y-69496662D01*
X158828302Y-69368705D01*
X158828445Y-69367737D01*
X158842831Y-69235253D01*
X158842897Y-69234326D01*
X158847264Y-69109572D01*
X159072736Y-69109572D01*
X159077102Y-69234326D01*
X159077102Y-69234326D01*
G37*
X159077102Y-69234326D02*
X159077168Y-69235253D01*
X159091554Y-69367737D01*
X159091697Y-69368705D01*
X159115673Y-69496662D01*
X159115901Y-69497656D01*
X159149467Y-69621086D01*
X159149784Y-69622086D01*
X159192941Y-69740989D01*
X159193346Y-69741975D01*
X159246094Y-69856351D01*
X159246582Y-69857300D01*
X159308919Y-69967149D01*
X159309476Y-69968043D01*
X159381404Y-70073365D01*
X159382017Y-70074189D01*
X159463536Y-70174984D01*
X159464187Y-70175728D01*
X159548791Y-70265123D01*
X158960000Y-71286374D01*
X158371209Y-70265123D01*
X158455812Y-70175728D01*
X158456463Y-70174984D01*
X158537982Y-70074189D01*
X158538595Y-70073365D01*
X158610523Y-69968043D01*
X158611080Y-69967149D01*
X158673417Y-69857300D01*
X158673905Y-69856351D01*
X158726653Y-69741975D01*
X158727058Y-69740989D01*
X158770215Y-69622086D01*
X158770532Y-69621086D01*
X158804098Y-69497656D01*
X158804326Y-69496662D01*
X158828302Y-69368705D01*
X158828445Y-69367737D01*
X158842831Y-69235253D01*
X158842897Y-69234326D01*
X158847264Y-69109572D01*
X159072736Y-69109572D01*
X159077102Y-69234326D01*
G36*
X159548668Y-71494664D02*
G01*
X159464406Y-71579401D01*
X159464150Y-71579665D01*
X159382631Y-71666527D01*
X159382339Y-71666849D01*
X159310411Y-71748949D01*
X159310076Y-71749348D01*
X159247739Y-71826687D01*
X159247354Y-71827190D01*
X159194606Y-71899766D01*
X159194165Y-71900414D01*
X159151008Y-71968228D01*
X159150512Y-71969079D01*
X159116946Y-72032132D01*
X159116411Y-72033269D01*
X159092435Y-72091559D01*
X159091915Y-72093094D01*
X159077529Y-72146623D01*
X159077155Y-72148676D01*
X159073487Y-72185986D01*
X158846513Y-72185986D01*
X158842844Y-72148676D01*
X158842470Y-72146623D01*
X158828084Y-72093094D01*
X158827564Y-72091559D01*
X158803588Y-72033269D01*
X158803053Y-72032132D01*
X158769487Y-71969079D01*
X158768991Y-71968228D01*
X158725834Y-71900414D01*
X158725393Y-71899766D01*
X158672645Y-71827190D01*
X158672260Y-71826687D01*
X158609923Y-71749348D01*
X158609588Y-71748949D01*
X158537660Y-71666849D01*
X158537368Y-71666527D01*
X158455849Y-71579665D01*
X158455594Y-71579401D01*
X158371332Y-71494663D01*
X158960000Y-70473626D01*
X159548668Y-71494664D01*
X159548668Y-71494664D01*
G37*
X159548668Y-71494664D02*
X159464406Y-71579401D01*
X159464150Y-71579665D01*
X159382631Y-71666527D01*
X159382339Y-71666849D01*
X159310411Y-71748949D01*
X159310076Y-71749348D01*
X159247739Y-71826687D01*
X159247354Y-71827190D01*
X159194606Y-71899766D01*
X159194165Y-71900414D01*
X159151008Y-71968228D01*
X159150512Y-71969079D01*
X159116946Y-72032132D01*
X159116411Y-72033269D01*
X159092435Y-72091559D01*
X159091915Y-72093094D01*
X159077529Y-72146623D01*
X159077155Y-72148676D01*
X159073487Y-72185986D01*
X158846513Y-72185986D01*
X158842844Y-72148676D01*
X158842470Y-72146623D01*
X158828084Y-72093094D01*
X158827564Y-72091559D01*
X158803588Y-72033269D01*
X158803053Y-72032132D01*
X158769487Y-71969079D01*
X158768991Y-71968228D01*
X158725834Y-71900414D01*
X158725393Y-71899766D01*
X158672645Y-71827190D01*
X158672260Y-71826687D01*
X158609923Y-71749348D01*
X158609588Y-71748949D01*
X158537660Y-71666849D01*
X158537368Y-71666527D01*
X158455849Y-71579665D01*
X158455594Y-71579401D01*
X158371332Y-71494663D01*
X158960000Y-70473626D01*
X159548668Y-71494664D01*
G36*
X159077251Y-72230939D02*
G01*
X159077959Y-72233557D01*
X159092344Y-72270532D01*
X159093047Y-72272037D01*
X159117023Y-72315722D01*
X159117586Y-72316652D01*
X159151153Y-72367046D01*
X159151591Y-72367663D01*
X159194748Y-72424766D01*
X159195091Y-72425200D01*
X159247838Y-72489013D01*
X159248112Y-72489333D01*
X159310449Y-72559855D01*
X159310670Y-72560099D01*
X159382598Y-72637331D01*
X159382781Y-72637524D01*
X159464300Y-72721464D01*
X159464453Y-72721619D01*
X159548641Y-72805384D01*
X158960000Y-73826374D01*
X158371359Y-72805383D01*
X158455546Y-72721619D01*
X158455699Y-72721464D01*
X158537218Y-72637524D01*
X158537401Y-72637331D01*
X158609329Y-72560099D01*
X158609550Y-72559855D01*
X158671887Y-72489333D01*
X158672161Y-72489013D01*
X158724909Y-72425200D01*
X158725252Y-72424766D01*
X158768408Y-72367663D01*
X158768846Y-72367046D01*
X158802413Y-72316652D01*
X158802976Y-72315722D01*
X158826952Y-72272037D01*
X158827655Y-72270532D01*
X158842040Y-72233557D01*
X158842747Y-72230940D01*
X158845846Y-72211386D01*
X159074153Y-72211386D01*
X159077251Y-72230939D01*
X159077251Y-72230939D01*
G37*
X159077251Y-72230939D02*
X159077959Y-72233557D01*
X159092344Y-72270532D01*
X159093047Y-72272037D01*
X159117023Y-72315722D01*
X159117586Y-72316652D01*
X159151153Y-72367046D01*
X159151591Y-72367663D01*
X159194748Y-72424766D01*
X159195091Y-72425200D01*
X159247838Y-72489013D01*
X159248112Y-72489333D01*
X159310449Y-72559855D01*
X159310670Y-72560099D01*
X159382598Y-72637331D01*
X159382781Y-72637524D01*
X159464300Y-72721464D01*
X159464453Y-72721619D01*
X159548641Y-72805384D01*
X158960000Y-73826374D01*
X158371359Y-72805383D01*
X158455546Y-72721619D01*
X158455699Y-72721464D01*
X158537218Y-72637524D01*
X158537401Y-72637331D01*
X158609329Y-72560099D01*
X158609550Y-72559855D01*
X158671887Y-72489333D01*
X158672161Y-72489013D01*
X158724909Y-72425200D01*
X158725252Y-72424766D01*
X158768408Y-72367663D01*
X158768846Y-72367046D01*
X158802413Y-72316652D01*
X158802976Y-72315722D01*
X158826952Y-72272037D01*
X158827655Y-72270532D01*
X158842040Y-72233557D01*
X158842747Y-72230940D01*
X158845846Y-72211386D01*
X159074153Y-72211386D01*
X159077251Y-72230939D01*
G36*
X157879137Y-54393529D02*
G01*
X157879840Y-54394137D01*
X157983693Y-54477645D01*
X157984478Y-54478228D01*
X158091910Y-54551754D01*
X158092774Y-54552296D01*
X158203787Y-54615839D01*
X158204718Y-54616322D01*
X158319312Y-54669883D01*
X158320296Y-54670294D01*
X158438470Y-54713872D01*
X158439486Y-54714199D01*
X158561240Y-54747794D01*
X158562267Y-54748031D01*
X158687602Y-54771645D01*
X158688618Y-54771795D01*
X158817533Y-54785425D01*
X158818518Y-54785490D01*
X158941554Y-54788878D01*
X159247349Y-55927349D01*
X158108878Y-55621554D01*
X158105490Y-55498518D01*
X158105425Y-55497533D01*
X158091795Y-55368618D01*
X158091645Y-55367602D01*
X158068031Y-55242267D01*
X158067794Y-55241240D01*
X158034199Y-55119486D01*
X158033872Y-55118470D01*
X157990294Y-55000296D01*
X157989883Y-54999312D01*
X157936322Y-54884718D01*
X157935839Y-54883787D01*
X157872296Y-54772774D01*
X157871754Y-54771910D01*
X157798228Y-54664478D01*
X157797645Y-54663693D01*
X157714137Y-54559840D01*
X157713529Y-54559137D01*
X157628402Y-54467835D01*
X157787835Y-54308402D01*
X157879137Y-54393529D01*
X157879137Y-54393529D01*
G37*
X157879137Y-54393529D02*
X157879840Y-54394137D01*
X157983693Y-54477645D01*
X157984478Y-54478228D01*
X158091910Y-54551754D01*
X158092774Y-54552296D01*
X158203787Y-54615839D01*
X158204718Y-54616322D01*
X158319312Y-54669883D01*
X158320296Y-54670294D01*
X158438470Y-54713872D01*
X158439486Y-54714199D01*
X158561240Y-54747794D01*
X158562267Y-54748031D01*
X158687602Y-54771645D01*
X158688618Y-54771795D01*
X158817533Y-54785425D01*
X158818518Y-54785490D01*
X158941554Y-54788878D01*
X159247349Y-55927349D01*
X158108878Y-55621554D01*
X158105490Y-55498518D01*
X158105425Y-55497533D01*
X158091795Y-55368618D01*
X158091645Y-55367602D01*
X158068031Y-55242267D01*
X158067794Y-55241240D01*
X158034199Y-55119486D01*
X158033872Y-55118470D01*
X157990294Y-55000296D01*
X157989883Y-54999312D01*
X157936322Y-54884718D01*
X157935839Y-54883787D01*
X157872296Y-54772774D01*
X157871754Y-54771910D01*
X157798228Y-54664478D01*
X157797645Y-54663693D01*
X157714137Y-54559840D01*
X157713529Y-54559137D01*
X157628402Y-54467835D01*
X157787835Y-54308402D01*
X157879137Y-54393529D01*
G36*
X152892648Y-53103524D02*
G01*
X152893392Y-53104175D01*
X152992187Y-53184075D01*
X152993011Y-53184688D01*
X153096244Y-53255188D01*
X153097138Y-53255745D01*
X153204809Y-53316845D01*
X153205759Y-53317333D01*
X153317867Y-53369033D01*
X153318852Y-53369438D01*
X153435398Y-53411738D01*
X153436398Y-53412055D01*
X153557382Y-53444955D01*
X153558376Y-53445183D01*
X153683798Y-53468683D01*
X153684766Y-53468826D01*
X153814626Y-53482926D01*
X153815553Y-53482992D01*
X153937595Y-53487263D01*
X153937595Y-53712737D01*
X153815553Y-53717008D01*
X153814626Y-53717074D01*
X153684766Y-53731174D01*
X153683798Y-53731317D01*
X153558376Y-53754817D01*
X153557382Y-53755045D01*
X153436398Y-53787945D01*
X153435398Y-53788262D01*
X153318852Y-53830562D01*
X153317867Y-53830967D01*
X153205759Y-53882667D01*
X153204809Y-53883155D01*
X153097138Y-53944255D01*
X153096244Y-53944812D01*
X152993011Y-54015312D01*
X152992187Y-54015925D01*
X152893392Y-54095825D01*
X152892648Y-54096476D01*
X152805165Y-54179271D01*
X151800426Y-53600000D01*
X152805165Y-53020729D01*
X152892648Y-53103524D01*
X152892648Y-53103524D01*
G37*
X152892648Y-53103524D02*
X152893392Y-53104175D01*
X152992187Y-53184075D01*
X152993011Y-53184688D01*
X153096244Y-53255188D01*
X153097138Y-53255745D01*
X153204809Y-53316845D01*
X153205759Y-53317333D01*
X153317867Y-53369033D01*
X153318852Y-53369438D01*
X153435398Y-53411738D01*
X153436398Y-53412055D01*
X153557382Y-53444955D01*
X153558376Y-53445183D01*
X153683798Y-53468683D01*
X153684766Y-53468826D01*
X153814626Y-53482926D01*
X153815553Y-53482992D01*
X153937595Y-53487263D01*
X153937595Y-53712737D01*
X153815553Y-53717008D01*
X153814626Y-53717074D01*
X153684766Y-53731174D01*
X153683798Y-53731317D01*
X153558376Y-53754817D01*
X153557382Y-53755045D01*
X153436398Y-53787945D01*
X153435398Y-53788262D01*
X153318852Y-53830562D01*
X153317867Y-53830967D01*
X153205759Y-53882667D01*
X153204809Y-53883155D01*
X153097138Y-53944255D01*
X153096244Y-53944812D01*
X152993011Y-54015312D01*
X152992187Y-54015925D01*
X152893392Y-54095825D01*
X152892648Y-54096476D01*
X152805165Y-54179271D01*
X151800426Y-53600000D01*
X152805165Y-53020729D01*
X152892648Y-53103524D01*
G36*
X133308058Y-59758676D02*
G01*
X133308805Y-59759329D01*
X133341423Y-59785679D01*
X133342250Y-59786294D01*
X133376355Y-59809544D01*
X133377252Y-59810102D01*
X133412845Y-59830252D01*
X133413796Y-59830739D01*
X133450877Y-59847789D01*
X133451863Y-59848193D01*
X133490432Y-59862143D01*
X133491432Y-59862458D01*
X133531488Y-59873308D01*
X133532479Y-59873535D01*
X133574023Y-59881285D01*
X133574988Y-59881426D01*
X133618020Y-59886076D01*
X133618942Y-59886142D01*
X133651204Y-59887265D01*
X133651204Y-60112734D01*
X133618942Y-60113857D01*
X133618020Y-60113923D01*
X133574988Y-60118573D01*
X133574023Y-60118714D01*
X133532479Y-60126464D01*
X133531488Y-60126691D01*
X133491432Y-60137541D01*
X133490432Y-60137856D01*
X133451863Y-60151806D01*
X133450877Y-60152210D01*
X133413796Y-60169260D01*
X133412845Y-60169747D01*
X133377252Y-60189897D01*
X133376355Y-60190455D01*
X133342250Y-60213705D01*
X133341423Y-60214320D01*
X133308805Y-60240670D01*
X133308058Y-60241324D01*
X133283803Y-60264272D01*
X132825426Y-60000000D01*
X133283802Y-59735728D01*
X133308058Y-59758676D01*
X133308058Y-59758676D01*
G37*
X133308058Y-59758676D02*
X133308805Y-59759329D01*
X133341423Y-59785679D01*
X133342250Y-59786294D01*
X133376355Y-59809544D01*
X133377252Y-59810102D01*
X133412845Y-59830252D01*
X133413796Y-59830739D01*
X133450877Y-59847789D01*
X133451863Y-59848193D01*
X133490432Y-59862143D01*
X133491432Y-59862458D01*
X133531488Y-59873308D01*
X133532479Y-59873535D01*
X133574023Y-59881285D01*
X133574988Y-59881426D01*
X133618020Y-59886076D01*
X133618942Y-59886142D01*
X133651204Y-59887265D01*
X133651204Y-60112734D01*
X133618942Y-60113857D01*
X133618020Y-60113923D01*
X133574988Y-60118573D01*
X133574023Y-60118714D01*
X133532479Y-60126464D01*
X133531488Y-60126691D01*
X133491432Y-60137541D01*
X133490432Y-60137856D01*
X133451863Y-60151806D01*
X133450877Y-60152210D01*
X133413796Y-60169260D01*
X133412845Y-60169747D01*
X133377252Y-60189897D01*
X133376355Y-60190455D01*
X133342250Y-60213705D01*
X133341423Y-60214320D01*
X133308805Y-60240670D01*
X133308058Y-60241324D01*
X133283803Y-60264272D01*
X132825426Y-60000000D01*
X133283802Y-59735728D01*
X133308058Y-59758676D01*
G36*
X160258684Y-77254761D02*
G01*
X160259218Y-77255102D01*
X160397071Y-77338610D01*
X160397660Y-77338946D01*
X160535092Y-77412472D01*
X160535740Y-77412795D01*
X160672753Y-77476338D01*
X160673460Y-77476641D01*
X160810054Y-77530202D01*
X160810819Y-77530474D01*
X160946993Y-77574052D01*
X160947813Y-77574284D01*
X161083567Y-77607879D01*
X161084435Y-77608062D01*
X161219770Y-77631676D01*
X161220676Y-77631801D01*
X161355591Y-77645431D01*
X161356524Y-77645490D01*
X161481555Y-77648882D01*
X161787349Y-78787349D01*
X160648735Y-78481516D01*
X160643483Y-78358327D01*
X160643350Y-78356956D01*
X160623720Y-78228041D01*
X160623432Y-78226663D01*
X160589818Y-78101328D01*
X160589379Y-78099994D01*
X160541784Y-77978240D01*
X160541219Y-77976995D01*
X160479641Y-77858821D01*
X160478981Y-77857699D01*
X160403420Y-77743105D01*
X160402702Y-77742123D01*
X160313159Y-77631110D01*
X160312419Y-77630271D01*
X160208893Y-77522839D01*
X160208158Y-77522135D01*
X160090650Y-77418282D01*
X160089941Y-77417699D01*
X159970001Y-77326236D01*
X160129095Y-77167142D01*
X160258684Y-77254761D01*
X160258684Y-77254761D01*
G37*
X160258684Y-77254761D02*
X160259218Y-77255102D01*
X160397071Y-77338610D01*
X160397660Y-77338946D01*
X160535092Y-77412472D01*
X160535740Y-77412795D01*
X160672753Y-77476338D01*
X160673460Y-77476641D01*
X160810054Y-77530202D01*
X160810819Y-77530474D01*
X160946993Y-77574052D01*
X160947813Y-77574284D01*
X161083567Y-77607879D01*
X161084435Y-77608062D01*
X161219770Y-77631676D01*
X161220676Y-77631801D01*
X161355591Y-77645431D01*
X161356524Y-77645490D01*
X161481555Y-77648882D01*
X161787349Y-78787349D01*
X160648735Y-78481516D01*
X160643483Y-78358327D01*
X160643350Y-78356956D01*
X160623720Y-78228041D01*
X160623432Y-78226663D01*
X160589818Y-78101328D01*
X160589379Y-78099994D01*
X160541784Y-77978240D01*
X160541219Y-77976995D01*
X160479641Y-77858821D01*
X160478981Y-77857699D01*
X160403420Y-77743105D01*
X160402702Y-77742123D01*
X160313159Y-77631110D01*
X160312419Y-77630271D01*
X160208893Y-77522839D01*
X160208158Y-77522135D01*
X160090650Y-77418282D01*
X160089941Y-77417699D01*
X159970001Y-77326236D01*
X160129095Y-77167142D01*
X160258684Y-77254761D01*
M02*
