G04 #@! TF.GenerationSoftware,KiCad,Pcbnew,5.1.5-52549c5~84~ubuntu18.04.1*
G04 #@! TF.CreationDate,2020-02-29T23:35:11+08:00*
G04 #@! TF.ProjectId,adapter_20p,61646170-7465-4725-9f32-30702e6b6963,rev?*
G04 #@! TF.SameCoordinates,Original*
G04 #@! TF.FileFunction,Copper,L2,Bot*
G04 #@! TF.FilePolarity,Positive*
%FSLAX46Y46*%
G04 Gerber Fmt 4.6, Leading zero omitted, Abs format (unit mm)*
G04 Created by KiCad (PCBNEW 5.1.5-52549c5~84~ubuntu18.04.1) date 2020-02-29 23:35:11*
%MOMM*%
%LPD*%
G04 APERTURE LIST*
%ADD10O,1.700000X1.700000*%
%ADD11R,1.700000X1.700000*%
%ADD12O,1.727200X1.727200*%
%ADD13R,1.727200X1.727200*%
%ADD14C,0.800000*%
%ADD15C,0.250000*%
%ADD16C,0.254000*%
G04 APERTURE END LIST*
D10*
X131460000Y-62840000D03*
X134000000Y-62840000D03*
X131460000Y-65380000D03*
X134000000Y-65380000D03*
X131460000Y-67920000D03*
X134000000Y-67920000D03*
X131460000Y-70460000D03*
X134000000Y-70460000D03*
X131460000Y-73000000D03*
D11*
X134000000Y-73000000D03*
D10*
X149000000Y-63920000D03*
X149000000Y-66460000D03*
X149000000Y-69000000D03*
D11*
X149000000Y-71540000D03*
D10*
X139460000Y-62840000D03*
X142000000Y-62840000D03*
X139460000Y-65380000D03*
X142000000Y-65380000D03*
X139460000Y-67920000D03*
X142000000Y-67920000D03*
X139460000Y-70460000D03*
X142000000Y-70460000D03*
X139460000Y-73000000D03*
D11*
X142000000Y-73000000D03*
D10*
X147120000Y-53600000D03*
X149660000Y-53600000D03*
D11*
X152200000Y-53600000D03*
D12*
X158960000Y-55640000D03*
X161500000Y-55640000D03*
X158960000Y-58180000D03*
X161500000Y-58180000D03*
X158960000Y-60720000D03*
X161500000Y-60720000D03*
X158960000Y-63260000D03*
X161500000Y-63260000D03*
X158960000Y-65800000D03*
X161500000Y-65800000D03*
X158960000Y-68340000D03*
X161500000Y-68340000D03*
X158960000Y-70880000D03*
X161500000Y-70880000D03*
X158960000Y-73420000D03*
X161500000Y-73420000D03*
X158960000Y-75960000D03*
X161500000Y-75960000D03*
X158960000Y-78500000D03*
D13*
X161500000Y-78500000D03*
D14*
X133000000Y-60000000D03*
D15*
X131460000Y-65380000D02*
X132700000Y-66620000D01*
X132700000Y-68359002D02*
X133540998Y-69200000D01*
X132700000Y-66620000D02*
X132700000Y-68359002D01*
X138180000Y-69200000D02*
X139460000Y-67920000D01*
X133540998Y-69200000D02*
X138180000Y-69200000D01*
X161500000Y-63260000D02*
X160260000Y-64500000D01*
X160260000Y-64500000D02*
X153150000Y-64500000D01*
X153150000Y-64500000D02*
X149950000Y-67700000D01*
X149950000Y-67700000D02*
X145450000Y-67700000D01*
X145450000Y-67700000D02*
X144000000Y-69150000D01*
X140690000Y-69150000D02*
X139460000Y-67920000D01*
X144000000Y-69150000D02*
X140690000Y-69150000D01*
X141150001Y-66229999D02*
X142000000Y-65380000D01*
X140635001Y-66744999D02*
X141150001Y-66229999D01*
X135175001Y-66744999D02*
X140635001Y-66744999D01*
X134000000Y-67920000D02*
X135175001Y-66744999D01*
X139460000Y-70460000D02*
X140700000Y-71700000D01*
X140700000Y-71700000D02*
X145150000Y-71700000D01*
X145150000Y-71700000D02*
X154100000Y-80650000D01*
X154100000Y-80650000D02*
X162350000Y-80650000D01*
X162350000Y-80650000D02*
X163550000Y-79450000D01*
X163550000Y-62770000D02*
X161500000Y-60720000D01*
X163550000Y-79450000D02*
X163550000Y-62770000D01*
X142160000Y-70300000D02*
X142000000Y-70460000D01*
X154750000Y-74700000D02*
X150350000Y-70300000D01*
X161500000Y-75960000D02*
X160240000Y-74700000D01*
X150350000Y-70300000D02*
X142160000Y-70300000D01*
X160240000Y-74700000D02*
X154750000Y-74700000D01*
X158960000Y-56861314D02*
X158960000Y-63260000D01*
X158960000Y-55640000D02*
X158960000Y-56861314D01*
X158960000Y-65800000D02*
X158960000Y-70880000D01*
X158960000Y-72198686D02*
X158960000Y-70880000D01*
X158960000Y-73420000D02*
X158960000Y-72198686D01*
X156920000Y-53600000D02*
X158960000Y-55640000D01*
X152200000Y-53600000D02*
X156920000Y-53600000D01*
X152200000Y-54700000D02*
X146900000Y-60000000D01*
X152200000Y-53600000D02*
X152200000Y-54700000D01*
X146900000Y-60000000D02*
X133000000Y-60000000D01*
X160000000Y-77200000D02*
X161300000Y-78500000D01*
X161300000Y-78500000D02*
X161500000Y-78500000D01*
X155760000Y-77200000D02*
X160000000Y-77200000D01*
X149000000Y-71540000D02*
X150100000Y-71540000D01*
X150100000Y-71540000D02*
X155760000Y-77200000D01*
D16*
G36*
X146536903Y-52509102D02*
G01*
X146335283Y-52643820D01*
X146163820Y-52815283D01*
X146029102Y-53016903D01*
X145936307Y-53240931D01*
X145889000Y-53478757D01*
X145889000Y-53721243D01*
X145936307Y-53959069D01*
X146029102Y-54183097D01*
X146163820Y-54384717D01*
X146335283Y-54556180D01*
X146536903Y-54690898D01*
X146760931Y-54783693D01*
X146998757Y-54831000D01*
X147241243Y-54831000D01*
X147479069Y-54783693D01*
X147703097Y-54690898D01*
X147904717Y-54556180D01*
X148076180Y-54384717D01*
X148210898Y-54183097D01*
X148303693Y-53959069D01*
X148351000Y-53721243D01*
X148351000Y-53478757D01*
X148303693Y-53240931D01*
X148210898Y-53016903D01*
X148076180Y-52815283D01*
X147904717Y-52643820D01*
X147703097Y-52509102D01*
X147514541Y-52431000D01*
X149265459Y-52431000D01*
X149076903Y-52509102D01*
X148875283Y-52643820D01*
X148703820Y-52815283D01*
X148569102Y-53016903D01*
X148476307Y-53240931D01*
X148429000Y-53478757D01*
X148429000Y-53721243D01*
X148476307Y-53959069D01*
X148569102Y-54183097D01*
X148703820Y-54384717D01*
X148875283Y-54556180D01*
X149076903Y-54690898D01*
X149300931Y-54783693D01*
X149538757Y-54831000D01*
X149781243Y-54831000D01*
X150019069Y-54783693D01*
X150243097Y-54690898D01*
X150444717Y-54556180D01*
X150616180Y-54384717D01*
X150713073Y-54239706D01*
X150711928Y-54450000D01*
X150724188Y-54574482D01*
X150760498Y-54694180D01*
X150819463Y-54804494D01*
X150898815Y-54901185D01*
X150995506Y-54980537D01*
X151105820Y-55039502D01*
X151225518Y-55075812D01*
X151350000Y-55088072D01*
X151914250Y-55085000D01*
X152073000Y-54926250D01*
X152073000Y-53727000D01*
X152327000Y-53727000D01*
X152327000Y-54926250D01*
X152485750Y-55085000D01*
X153050000Y-55088072D01*
X153174482Y-55075812D01*
X153294180Y-55039502D01*
X153404494Y-54980537D01*
X153501185Y-54901185D01*
X153580537Y-54804494D01*
X153639502Y-54694180D01*
X153675812Y-54574482D01*
X153688072Y-54450000D01*
X153685000Y-53885750D01*
X153526250Y-53727000D01*
X152327000Y-53727000D01*
X152073000Y-53727000D01*
X152053000Y-53727000D01*
X152053000Y-53473000D01*
X152073000Y-53473000D01*
X152073000Y-53453000D01*
X152327000Y-53453000D01*
X152327000Y-53473000D01*
X153526250Y-53473000D01*
X153685000Y-53314250D01*
X153688072Y-52750000D01*
X153675812Y-52625518D01*
X153639502Y-52505820D01*
X153599509Y-52431000D01*
X160978921Y-52431000D01*
X161692819Y-52500998D01*
X162359257Y-52702208D01*
X162973911Y-53029026D01*
X163513384Y-53469009D01*
X163957123Y-54005398D01*
X164288225Y-54617760D01*
X164494079Y-55282768D01*
X164568982Y-55995414D01*
X164569000Y-56000634D01*
X164569001Y-77978911D01*
X164499002Y-78692819D01*
X164297793Y-79359255D01*
X163970975Y-79973911D01*
X163530989Y-80513386D01*
X162994602Y-80957123D01*
X162382245Y-81288223D01*
X161717232Y-81494079D01*
X161004586Y-81568982D01*
X160999367Y-81569000D01*
X134021079Y-81569000D01*
X133307181Y-81499002D01*
X132640745Y-81297793D01*
X132026089Y-80970975D01*
X131486614Y-80530989D01*
X131042877Y-79994602D01*
X130711777Y-79382245D01*
X130505921Y-78717232D01*
X130431018Y-78004586D01*
X130431000Y-77999367D01*
X130431000Y-74062093D01*
X130578645Y-74195178D01*
X130828748Y-74344157D01*
X131103109Y-74441481D01*
X131333000Y-74320814D01*
X131333000Y-73127000D01*
X131313000Y-73127000D01*
X131313000Y-72873000D01*
X131333000Y-72873000D01*
X131333000Y-72853000D01*
X131587000Y-72853000D01*
X131587000Y-72873000D01*
X131607000Y-72873000D01*
X131607000Y-73127000D01*
X131587000Y-73127000D01*
X131587000Y-74320814D01*
X131816891Y-74441481D01*
X132091252Y-74344157D01*
X132341355Y-74195178D01*
X132557588Y-74000269D01*
X132731641Y-73766920D01*
X132767157Y-73692355D01*
X132767157Y-73850000D01*
X132774513Y-73924689D01*
X132796299Y-73996508D01*
X132831678Y-74062696D01*
X132879289Y-74120711D01*
X132937304Y-74168322D01*
X133003492Y-74203701D01*
X133075311Y-74225487D01*
X133150000Y-74232843D01*
X134850000Y-74232843D01*
X134924689Y-74225487D01*
X134996508Y-74203701D01*
X135062696Y-74168322D01*
X135120711Y-74120711D01*
X135168322Y-74062696D01*
X135203701Y-73996508D01*
X135225487Y-73924689D01*
X135232843Y-73850000D01*
X135232843Y-72878757D01*
X138229000Y-72878757D01*
X138229000Y-73121243D01*
X138276307Y-73359069D01*
X138369102Y-73583097D01*
X138503820Y-73784717D01*
X138675283Y-73956180D01*
X138876903Y-74090898D01*
X139100931Y-74183693D01*
X139338757Y-74231000D01*
X139581243Y-74231000D01*
X139819069Y-74183693D01*
X140043097Y-74090898D01*
X140244717Y-73956180D01*
X140416180Y-73784717D01*
X140550898Y-73583097D01*
X140643693Y-73359069D01*
X140691000Y-73121243D01*
X140691000Y-72878757D01*
X140643693Y-72640931D01*
X140550898Y-72416903D01*
X140416180Y-72215283D01*
X140244717Y-72043820D01*
X140043097Y-71909102D01*
X139819069Y-71816307D01*
X139581243Y-71769000D01*
X139338757Y-71769000D01*
X139100931Y-71816307D01*
X138876903Y-71909102D01*
X138675283Y-72043820D01*
X138503820Y-72215283D01*
X138369102Y-72416903D01*
X138276307Y-72640931D01*
X138229000Y-72878757D01*
X135232843Y-72878757D01*
X135232843Y-72150000D01*
X135225487Y-72075311D01*
X135203701Y-72003492D01*
X135168322Y-71937304D01*
X135120711Y-71879289D01*
X135062696Y-71831678D01*
X134996508Y-71796299D01*
X134924689Y-71774513D01*
X134850000Y-71767157D01*
X133150000Y-71767157D01*
X133075311Y-71774513D01*
X133003492Y-71796299D01*
X132937304Y-71831678D01*
X132879289Y-71879289D01*
X132831678Y-71937304D01*
X132796299Y-72003492D01*
X132774513Y-72075311D01*
X132767157Y-72150000D01*
X132767157Y-72307645D01*
X132731641Y-72233080D01*
X132557588Y-71999731D01*
X132341355Y-71804822D01*
X132091252Y-71655843D01*
X131928832Y-71598228D01*
X132043097Y-71550898D01*
X132244717Y-71416180D01*
X132416180Y-71244717D01*
X132550898Y-71043097D01*
X132643693Y-70819069D01*
X132691000Y-70581243D01*
X132691000Y-70338757D01*
X132643693Y-70100931D01*
X132550898Y-69876903D01*
X132416180Y-69675283D01*
X132244717Y-69503820D01*
X132043097Y-69369102D01*
X131819069Y-69276307D01*
X131581243Y-69229000D01*
X131338757Y-69229000D01*
X131100931Y-69276307D01*
X130876903Y-69369102D01*
X130675283Y-69503820D01*
X130503820Y-69675283D01*
X130431000Y-69784266D01*
X130431000Y-68595734D01*
X130503820Y-68704717D01*
X130675283Y-68876180D01*
X130876903Y-69010898D01*
X131100931Y-69103693D01*
X131338757Y-69151000D01*
X131581243Y-69151000D01*
X131819069Y-69103693D01*
X132043097Y-69010898D01*
X132244717Y-68876180D01*
X132373152Y-68747745D01*
X133165626Y-69540220D01*
X133171602Y-69547501D01*
X133043820Y-69675283D01*
X132909102Y-69876903D01*
X132816307Y-70100931D01*
X132769000Y-70338757D01*
X132769000Y-70581243D01*
X132816307Y-70819069D01*
X132909102Y-71043097D01*
X133043820Y-71244717D01*
X133215283Y-71416180D01*
X133416903Y-71550898D01*
X133640931Y-71643693D01*
X133878757Y-71691000D01*
X134121243Y-71691000D01*
X134359069Y-71643693D01*
X134583097Y-71550898D01*
X134784717Y-71416180D01*
X134956180Y-71244717D01*
X135090898Y-71043097D01*
X135183693Y-70819069D01*
X135231000Y-70581243D01*
X135231000Y-70338757D01*
X135183693Y-70100931D01*
X135090898Y-69876903D01*
X134976704Y-69706000D01*
X138155154Y-69706000D01*
X138180000Y-69708447D01*
X138204846Y-69706000D01*
X138204854Y-69706000D01*
X138279193Y-69698678D01*
X138374575Y-69669745D01*
X138462479Y-69622759D01*
X138539527Y-69559527D01*
X138555376Y-69540215D01*
X139023833Y-69071758D01*
X139100931Y-69103693D01*
X139338757Y-69151000D01*
X139581243Y-69151000D01*
X139819069Y-69103693D01*
X139896167Y-69071758D01*
X140314628Y-69490220D01*
X140330473Y-69509527D01*
X140407521Y-69572759D01*
X140495425Y-69619745D01*
X140590807Y-69648678D01*
X140690000Y-69658448D01*
X140714854Y-69656000D01*
X141063103Y-69656000D01*
X141043820Y-69675283D01*
X140909102Y-69876903D01*
X140816307Y-70100931D01*
X140769000Y-70338757D01*
X140769000Y-70581243D01*
X140816307Y-70819069D01*
X140909102Y-71043097D01*
X141009932Y-71194000D01*
X140909592Y-71194000D01*
X140611758Y-70896167D01*
X140643693Y-70819069D01*
X140691000Y-70581243D01*
X140691000Y-70338757D01*
X140643693Y-70100931D01*
X140550898Y-69876903D01*
X140416180Y-69675283D01*
X140244717Y-69503820D01*
X140043097Y-69369102D01*
X139819069Y-69276307D01*
X139581243Y-69229000D01*
X139338757Y-69229000D01*
X139100931Y-69276307D01*
X138876903Y-69369102D01*
X138675283Y-69503820D01*
X138503820Y-69675283D01*
X138369102Y-69876903D01*
X138276307Y-70100931D01*
X138229000Y-70338757D01*
X138229000Y-70581243D01*
X138276307Y-70819069D01*
X138369102Y-71043097D01*
X138503820Y-71244717D01*
X138675283Y-71416180D01*
X138876903Y-71550898D01*
X139100931Y-71643693D01*
X139338757Y-71691000D01*
X139581243Y-71691000D01*
X139819069Y-71643693D01*
X139896167Y-71611758D01*
X140324628Y-72040220D01*
X140340473Y-72059527D01*
X140417521Y-72122759D01*
X140505425Y-72169745D01*
X140600807Y-72198678D01*
X140700000Y-72208448D01*
X140724854Y-72206000D01*
X140767157Y-72206000D01*
X140767157Y-73850000D01*
X140774513Y-73924689D01*
X140796299Y-73996508D01*
X140831678Y-74062696D01*
X140879289Y-74120711D01*
X140937304Y-74168322D01*
X141003492Y-74203701D01*
X141075311Y-74225487D01*
X141150000Y-74232843D01*
X142850000Y-74232843D01*
X142924689Y-74225487D01*
X142996508Y-74203701D01*
X143062696Y-74168322D01*
X143120711Y-74120711D01*
X143168322Y-74062696D01*
X143203701Y-73996508D01*
X143225487Y-73924689D01*
X143232843Y-73850000D01*
X143232843Y-72206000D01*
X144940409Y-72206000D01*
X153724628Y-80990220D01*
X153740473Y-81009527D01*
X153817521Y-81072759D01*
X153905425Y-81119745D01*
X153978607Y-81141944D01*
X154000806Y-81148678D01*
X154010694Y-81149652D01*
X154075146Y-81156000D01*
X154075153Y-81156000D01*
X154099999Y-81158447D01*
X154124845Y-81156000D01*
X162325154Y-81156000D01*
X162350000Y-81158447D01*
X162374846Y-81156000D01*
X162374854Y-81156000D01*
X162449193Y-81148678D01*
X162544575Y-81119745D01*
X162632479Y-81072759D01*
X162709527Y-81009527D01*
X162725376Y-80990215D01*
X163890220Y-79825372D01*
X163909527Y-79809527D01*
X163972759Y-79732479D01*
X164019745Y-79644575D01*
X164048678Y-79549193D01*
X164056000Y-79474854D01*
X164056000Y-79474847D01*
X164058447Y-79450001D01*
X164056000Y-79425155D01*
X164056000Y-62794854D01*
X164058448Y-62770000D01*
X164048678Y-62670807D01*
X164019745Y-62575425D01*
X163972759Y-62487521D01*
X163909527Y-62410473D01*
X163890220Y-62394628D01*
X162662167Y-61166576D01*
X162696771Y-61083036D01*
X162744600Y-60842582D01*
X162744600Y-60597418D01*
X162696771Y-60356964D01*
X162602950Y-60130461D01*
X162466744Y-59926614D01*
X162293386Y-59753256D01*
X162089539Y-59617050D01*
X161863036Y-59523229D01*
X161622582Y-59475400D01*
X161377418Y-59475400D01*
X161136964Y-59523229D01*
X160910461Y-59617050D01*
X160706614Y-59753256D01*
X160533256Y-59926614D01*
X160397050Y-60130461D01*
X160366441Y-60204358D01*
X160242684Y-59945056D01*
X160066854Y-59709707D01*
X159848488Y-59513183D01*
X159742230Y-59450000D01*
X159848488Y-59386817D01*
X160066854Y-59190293D01*
X160242684Y-58954944D01*
X160366441Y-58695642D01*
X160397050Y-58769539D01*
X160533256Y-58973386D01*
X160706614Y-59146744D01*
X160910461Y-59282950D01*
X161136964Y-59376771D01*
X161377418Y-59424600D01*
X161622582Y-59424600D01*
X161863036Y-59376771D01*
X162089539Y-59282950D01*
X162293386Y-59146744D01*
X162466744Y-58973386D01*
X162602950Y-58769539D01*
X162696771Y-58543036D01*
X162744600Y-58302582D01*
X162744600Y-58057418D01*
X162696771Y-57816964D01*
X162602950Y-57590461D01*
X162466744Y-57386614D01*
X162293386Y-57213256D01*
X162089539Y-57077050D01*
X161863036Y-56983229D01*
X161622582Y-56935400D01*
X161377418Y-56935400D01*
X161136964Y-56983229D01*
X160910461Y-57077050D01*
X160706614Y-57213256D01*
X160533256Y-57386614D01*
X160397050Y-57590461D01*
X160366441Y-57664358D01*
X160242684Y-57405056D01*
X160066854Y-57169707D01*
X159848488Y-56973183D01*
X159742230Y-56910000D01*
X159848488Y-56846817D01*
X160066854Y-56650293D01*
X160242684Y-56414944D01*
X160366441Y-56155642D01*
X160397050Y-56229539D01*
X160533256Y-56433386D01*
X160706614Y-56606744D01*
X160910461Y-56742950D01*
X161136964Y-56836771D01*
X161377418Y-56884600D01*
X161622582Y-56884600D01*
X161863036Y-56836771D01*
X162089539Y-56742950D01*
X162293386Y-56606744D01*
X162466744Y-56433386D01*
X162602950Y-56229539D01*
X162696771Y-56003036D01*
X162744600Y-55762582D01*
X162744600Y-55517418D01*
X162696771Y-55276964D01*
X162602950Y-55050461D01*
X162466744Y-54846614D01*
X162293386Y-54673256D01*
X162089539Y-54537050D01*
X161863036Y-54443229D01*
X161622582Y-54395400D01*
X161377418Y-54395400D01*
X161136964Y-54443229D01*
X160910461Y-54537050D01*
X160706614Y-54673256D01*
X160533256Y-54846614D01*
X160397050Y-55050461D01*
X160366441Y-55124358D01*
X160242684Y-54865056D01*
X160066854Y-54629707D01*
X159848488Y-54433183D01*
X159595978Y-54283036D01*
X159319027Y-54185037D01*
X159087000Y-54305536D01*
X159087000Y-55513000D01*
X159107000Y-55513000D01*
X159107000Y-55767000D01*
X159087000Y-55767000D01*
X159087000Y-58053000D01*
X159107000Y-58053000D01*
X159107000Y-58307000D01*
X159087000Y-58307000D01*
X159087000Y-60593000D01*
X159107000Y-60593000D01*
X159107000Y-60847000D01*
X159087000Y-60847000D01*
X159087000Y-63133000D01*
X159107000Y-63133000D01*
X159107000Y-63387000D01*
X159087000Y-63387000D01*
X159087000Y-63407000D01*
X158833000Y-63407000D01*
X158833000Y-63387000D01*
X157626183Y-63387000D01*
X157505042Y-63619026D01*
X157550778Y-63769814D01*
X157657775Y-63994000D01*
X153174845Y-63994000D01*
X153149999Y-63991553D01*
X153125153Y-63994000D01*
X153125146Y-63994000D01*
X153060694Y-64000348D01*
X153050806Y-64001322D01*
X153028607Y-64008056D01*
X152955425Y-64030255D01*
X152867521Y-64077241D01*
X152790473Y-64140473D01*
X152774629Y-64159779D01*
X150485000Y-66449408D01*
X150485000Y-66332998D01*
X150320156Y-66332998D01*
X150441476Y-66103110D01*
X150396825Y-65955901D01*
X150271641Y-65693080D01*
X150097588Y-65459731D01*
X149881355Y-65264822D01*
X149631252Y-65115843D01*
X149468832Y-65058228D01*
X149583097Y-65010898D01*
X149784717Y-64876180D01*
X149956180Y-64704717D01*
X150090898Y-64503097D01*
X150183693Y-64279069D01*
X150231000Y-64041243D01*
X150231000Y-63798757D01*
X150183693Y-63560931D01*
X150090898Y-63336903D01*
X149956180Y-63135283D01*
X149784717Y-62963820D01*
X149583097Y-62829102D01*
X149359069Y-62736307D01*
X149121243Y-62689000D01*
X148878757Y-62689000D01*
X148640931Y-62736307D01*
X148416903Y-62829102D01*
X148215283Y-62963820D01*
X148043820Y-63135283D01*
X147909102Y-63336903D01*
X147816307Y-63560931D01*
X147769000Y-63798757D01*
X147769000Y-64041243D01*
X147816307Y-64279069D01*
X147909102Y-64503097D01*
X148043820Y-64704717D01*
X148215283Y-64876180D01*
X148416903Y-65010898D01*
X148531168Y-65058228D01*
X148368748Y-65115843D01*
X148118645Y-65264822D01*
X147902412Y-65459731D01*
X147728359Y-65693080D01*
X147603175Y-65955901D01*
X147558524Y-66103110D01*
X147679845Y-66333000D01*
X148873000Y-66333000D01*
X148873000Y-66313000D01*
X149127000Y-66313000D01*
X149127000Y-66333000D01*
X149147000Y-66333000D01*
X149147000Y-66587000D01*
X149127000Y-66587000D01*
X149127000Y-66607000D01*
X148873000Y-66607000D01*
X148873000Y-66587000D01*
X147679845Y-66587000D01*
X147558524Y-66816890D01*
X147603175Y-66964099D01*
X147712679Y-67194000D01*
X145474854Y-67194000D01*
X145450000Y-67191552D01*
X145425146Y-67194000D01*
X145350807Y-67201322D01*
X145255425Y-67230255D01*
X145167521Y-67277241D01*
X145090473Y-67340473D01*
X145074629Y-67359779D01*
X143790409Y-68644000D01*
X142996750Y-68644000D01*
X143090898Y-68503097D01*
X143183693Y-68279069D01*
X143231000Y-68041243D01*
X143231000Y-67798757D01*
X143183693Y-67560931D01*
X143090898Y-67336903D01*
X142956180Y-67135283D01*
X142784717Y-66963820D01*
X142583097Y-66829102D01*
X142359069Y-66736307D01*
X142121243Y-66689000D01*
X141878757Y-66689000D01*
X141640931Y-66736307D01*
X141416903Y-66829102D01*
X141215283Y-66963820D01*
X141043820Y-67135283D01*
X140909102Y-67336903D01*
X140816307Y-67560931D01*
X140769000Y-67798757D01*
X140769000Y-68041243D01*
X140816307Y-68279069D01*
X140909102Y-68503097D01*
X141003250Y-68644000D01*
X140899592Y-68644000D01*
X140611758Y-68356167D01*
X140643693Y-68279069D01*
X140691000Y-68041243D01*
X140691000Y-67798757D01*
X140643693Y-67560931D01*
X140550898Y-67336903D01*
X140493499Y-67250999D01*
X140610155Y-67250999D01*
X140635001Y-67253446D01*
X140659847Y-67250999D01*
X140659855Y-67250999D01*
X140734194Y-67243677D01*
X140829576Y-67214744D01*
X140917480Y-67167758D01*
X140994528Y-67104526D01*
X141010377Y-67085214D01*
X141525371Y-66570221D01*
X141525375Y-66570216D01*
X141563833Y-66531758D01*
X141640931Y-66563693D01*
X141878757Y-66611000D01*
X142121243Y-66611000D01*
X142359069Y-66563693D01*
X142583097Y-66470898D01*
X142784717Y-66336180D01*
X142956180Y-66164717D01*
X143090898Y-65963097D01*
X143183693Y-65739069D01*
X143231000Y-65501243D01*
X143231000Y-65258757D01*
X143183693Y-65020931D01*
X143090898Y-64796903D01*
X142956180Y-64595283D01*
X142784717Y-64423820D01*
X142583097Y-64289102D01*
X142359069Y-64196307D01*
X142121243Y-64149000D01*
X141878757Y-64149000D01*
X141640931Y-64196307D01*
X141416903Y-64289102D01*
X141215283Y-64423820D01*
X141043820Y-64595283D01*
X140909102Y-64796903D01*
X140816307Y-65020931D01*
X140769000Y-65258757D01*
X140769000Y-65501243D01*
X140816307Y-65739069D01*
X140848242Y-65816167D01*
X140809784Y-65854625D01*
X140809779Y-65854629D01*
X140425410Y-66238999D01*
X140341898Y-66238999D01*
X140416180Y-66164717D01*
X140550898Y-65963097D01*
X140643693Y-65739069D01*
X140691000Y-65501243D01*
X140691000Y-65258757D01*
X140643693Y-65020931D01*
X140550898Y-64796903D01*
X140416180Y-64595283D01*
X140244717Y-64423820D01*
X140043097Y-64289102D01*
X139928832Y-64241772D01*
X140091252Y-64184157D01*
X140341355Y-64035178D01*
X140557588Y-63840269D01*
X140731641Y-63606920D01*
X140856825Y-63344099D01*
X140865091Y-63316846D01*
X140909102Y-63423097D01*
X141043820Y-63624717D01*
X141215283Y-63796180D01*
X141416903Y-63930898D01*
X141640931Y-64023693D01*
X141878757Y-64071000D01*
X142121243Y-64071000D01*
X142359069Y-64023693D01*
X142583097Y-63930898D01*
X142784717Y-63796180D01*
X142956180Y-63624717D01*
X143090898Y-63423097D01*
X143183693Y-63199069D01*
X143231000Y-62961243D01*
X143231000Y-62718757D01*
X143183693Y-62480931D01*
X143090898Y-62256903D01*
X142956180Y-62055283D01*
X142784717Y-61883820D01*
X142583097Y-61749102D01*
X142359069Y-61656307D01*
X142121243Y-61609000D01*
X141878757Y-61609000D01*
X141640931Y-61656307D01*
X141416903Y-61749102D01*
X141215283Y-61883820D01*
X141043820Y-62055283D01*
X140909102Y-62256903D01*
X140865091Y-62363154D01*
X140856825Y-62335901D01*
X140731641Y-62073080D01*
X140557588Y-61839731D01*
X140341355Y-61644822D01*
X140091252Y-61495843D01*
X139816891Y-61398519D01*
X139587000Y-61519186D01*
X139587000Y-62713000D01*
X139607000Y-62713000D01*
X139607000Y-62967000D01*
X139587000Y-62967000D01*
X139587000Y-62987000D01*
X139333000Y-62987000D01*
X139333000Y-62967000D01*
X138139845Y-62967000D01*
X138018524Y-63196890D01*
X138063175Y-63344099D01*
X138188359Y-63606920D01*
X138362412Y-63840269D01*
X138578645Y-64035178D01*
X138828748Y-64184157D01*
X138991168Y-64241772D01*
X138876903Y-64289102D01*
X138675283Y-64423820D01*
X138503820Y-64595283D01*
X138369102Y-64796903D01*
X138276307Y-65020931D01*
X138229000Y-65258757D01*
X138229000Y-65501243D01*
X138276307Y-65739069D01*
X138369102Y-65963097D01*
X138503820Y-66164717D01*
X138578102Y-66238999D01*
X135199846Y-66238999D01*
X135175000Y-66236552D01*
X135150154Y-66238999D01*
X135150147Y-66238999D01*
X135085695Y-66245347D01*
X135075807Y-66246321D01*
X135053608Y-66253055D01*
X134980426Y-66275254D01*
X134892522Y-66322240D01*
X134815474Y-66385472D01*
X134799630Y-66404778D01*
X134436167Y-66768242D01*
X134359069Y-66736307D01*
X134121243Y-66689000D01*
X133878757Y-66689000D01*
X133640931Y-66736307D01*
X133416903Y-66829102D01*
X133215283Y-66963820D01*
X133206000Y-66973103D01*
X133206000Y-66644854D01*
X133208448Y-66620000D01*
X133198678Y-66520807D01*
X133169745Y-66425425D01*
X133148390Y-66385473D01*
X133122759Y-66337521D01*
X133059527Y-66260473D01*
X133040220Y-66244628D01*
X132611758Y-65816167D01*
X132643693Y-65739069D01*
X132691000Y-65501243D01*
X132691000Y-65258757D01*
X132769000Y-65258757D01*
X132769000Y-65501243D01*
X132816307Y-65739069D01*
X132909102Y-65963097D01*
X133043820Y-66164717D01*
X133215283Y-66336180D01*
X133416903Y-66470898D01*
X133640931Y-66563693D01*
X133878757Y-66611000D01*
X134121243Y-66611000D01*
X134359069Y-66563693D01*
X134583097Y-66470898D01*
X134784717Y-66336180D01*
X134956180Y-66164717D01*
X135090898Y-65963097D01*
X135183693Y-65739069D01*
X135231000Y-65501243D01*
X135231000Y-65258757D01*
X135183693Y-65020931D01*
X135090898Y-64796903D01*
X134956180Y-64595283D01*
X134784717Y-64423820D01*
X134583097Y-64289102D01*
X134359069Y-64196307D01*
X134121243Y-64149000D01*
X133878757Y-64149000D01*
X133640931Y-64196307D01*
X133416903Y-64289102D01*
X133215283Y-64423820D01*
X133043820Y-64595283D01*
X132909102Y-64796903D01*
X132816307Y-65020931D01*
X132769000Y-65258757D01*
X132691000Y-65258757D01*
X132643693Y-65020931D01*
X132550898Y-64796903D01*
X132416180Y-64595283D01*
X132244717Y-64423820D01*
X132043097Y-64289102D01*
X131819069Y-64196307D01*
X131581243Y-64149000D01*
X131338757Y-64149000D01*
X131100931Y-64196307D01*
X130876903Y-64289102D01*
X130675283Y-64423820D01*
X130503820Y-64595283D01*
X130431000Y-64704266D01*
X130431000Y-63515734D01*
X130503820Y-63624717D01*
X130675283Y-63796180D01*
X130876903Y-63930898D01*
X131100931Y-64023693D01*
X131338757Y-64071000D01*
X131581243Y-64071000D01*
X131819069Y-64023693D01*
X132043097Y-63930898D01*
X132244717Y-63796180D01*
X132416180Y-63624717D01*
X132550898Y-63423097D01*
X132643693Y-63199069D01*
X132691000Y-62961243D01*
X132691000Y-62718757D01*
X132769000Y-62718757D01*
X132769000Y-62961243D01*
X132816307Y-63199069D01*
X132909102Y-63423097D01*
X133043820Y-63624717D01*
X133215283Y-63796180D01*
X133416903Y-63930898D01*
X133640931Y-64023693D01*
X133878757Y-64071000D01*
X134121243Y-64071000D01*
X134359069Y-64023693D01*
X134583097Y-63930898D01*
X134784717Y-63796180D01*
X134956180Y-63624717D01*
X135090898Y-63423097D01*
X135183693Y-63199069D01*
X135231000Y-62961243D01*
X135231000Y-62718757D01*
X135184127Y-62483110D01*
X138018524Y-62483110D01*
X138139845Y-62713000D01*
X139333000Y-62713000D01*
X139333000Y-61519186D01*
X139103109Y-61398519D01*
X138828748Y-61495843D01*
X138578645Y-61644822D01*
X138362412Y-61839731D01*
X138188359Y-62073080D01*
X138063175Y-62335901D01*
X138018524Y-62483110D01*
X135184127Y-62483110D01*
X135183693Y-62480931D01*
X135090898Y-62256903D01*
X134956180Y-62055283D01*
X134784717Y-61883820D01*
X134583097Y-61749102D01*
X134359069Y-61656307D01*
X134121243Y-61609000D01*
X133878757Y-61609000D01*
X133640931Y-61656307D01*
X133416903Y-61749102D01*
X133215283Y-61883820D01*
X133043820Y-62055283D01*
X132909102Y-62256903D01*
X132816307Y-62480931D01*
X132769000Y-62718757D01*
X132691000Y-62718757D01*
X132643693Y-62480931D01*
X132550898Y-62256903D01*
X132416180Y-62055283D01*
X132244717Y-61883820D01*
X132043097Y-61749102D01*
X131819069Y-61656307D01*
X131581243Y-61609000D01*
X131338757Y-61609000D01*
X131100931Y-61656307D01*
X130876903Y-61749102D01*
X130675283Y-61883820D01*
X130503820Y-62055283D01*
X130431000Y-62164266D01*
X130431000Y-61079026D01*
X157505042Y-61079026D01*
X157550778Y-61229814D01*
X157677316Y-61494944D01*
X157853146Y-61730293D01*
X158071512Y-61926817D01*
X158177770Y-61990000D01*
X158071512Y-62053183D01*
X157853146Y-62249707D01*
X157677316Y-62485056D01*
X157550778Y-62750186D01*
X157505042Y-62900974D01*
X157626183Y-63133000D01*
X158833000Y-63133000D01*
X158833000Y-60847000D01*
X157626183Y-60847000D01*
X157505042Y-61079026D01*
X130431000Y-61079026D01*
X130431000Y-58539026D01*
X157505042Y-58539026D01*
X157550778Y-58689814D01*
X157677316Y-58954944D01*
X157853146Y-59190293D01*
X158071512Y-59386817D01*
X158177770Y-59450000D01*
X158071512Y-59513183D01*
X157853146Y-59709707D01*
X157677316Y-59945056D01*
X157550778Y-60210186D01*
X157505042Y-60360974D01*
X157626183Y-60593000D01*
X158833000Y-60593000D01*
X158833000Y-58307000D01*
X157626183Y-58307000D01*
X157505042Y-58539026D01*
X130431000Y-58539026D01*
X130431000Y-56021079D01*
X130433162Y-55999026D01*
X157505042Y-55999026D01*
X157550778Y-56149814D01*
X157677316Y-56414944D01*
X157853146Y-56650293D01*
X158071512Y-56846817D01*
X158177770Y-56910000D01*
X158071512Y-56973183D01*
X157853146Y-57169707D01*
X157677316Y-57405056D01*
X157550778Y-57670186D01*
X157505042Y-57820974D01*
X157626183Y-58053000D01*
X158833000Y-58053000D01*
X158833000Y-55767000D01*
X157626183Y-55767000D01*
X157505042Y-55999026D01*
X130433162Y-55999026D01*
X130500998Y-55307181D01*
X130508910Y-55280974D01*
X157505042Y-55280974D01*
X157626183Y-55513000D01*
X158833000Y-55513000D01*
X158833000Y-54305536D01*
X158600973Y-54185037D01*
X158324022Y-54283036D01*
X158071512Y-54433183D01*
X157853146Y-54629707D01*
X157677316Y-54865056D01*
X157550778Y-55130186D01*
X157505042Y-55280974D01*
X130508910Y-55280974D01*
X130702208Y-54640743D01*
X131029026Y-54026089D01*
X131469009Y-53486616D01*
X132005398Y-53042877D01*
X132617760Y-52711775D01*
X133282768Y-52505921D01*
X133995414Y-52431018D01*
X134000633Y-52431000D01*
X146725459Y-52431000D01*
X146536903Y-52509102D01*
G37*
X146536903Y-52509102D02*
X146335283Y-52643820D01*
X146163820Y-52815283D01*
X146029102Y-53016903D01*
X145936307Y-53240931D01*
X145889000Y-53478757D01*
X145889000Y-53721243D01*
X145936307Y-53959069D01*
X146029102Y-54183097D01*
X146163820Y-54384717D01*
X146335283Y-54556180D01*
X146536903Y-54690898D01*
X146760931Y-54783693D01*
X146998757Y-54831000D01*
X147241243Y-54831000D01*
X147479069Y-54783693D01*
X147703097Y-54690898D01*
X147904717Y-54556180D01*
X148076180Y-54384717D01*
X148210898Y-54183097D01*
X148303693Y-53959069D01*
X148351000Y-53721243D01*
X148351000Y-53478757D01*
X148303693Y-53240931D01*
X148210898Y-53016903D01*
X148076180Y-52815283D01*
X147904717Y-52643820D01*
X147703097Y-52509102D01*
X147514541Y-52431000D01*
X149265459Y-52431000D01*
X149076903Y-52509102D01*
X148875283Y-52643820D01*
X148703820Y-52815283D01*
X148569102Y-53016903D01*
X148476307Y-53240931D01*
X148429000Y-53478757D01*
X148429000Y-53721243D01*
X148476307Y-53959069D01*
X148569102Y-54183097D01*
X148703820Y-54384717D01*
X148875283Y-54556180D01*
X149076903Y-54690898D01*
X149300931Y-54783693D01*
X149538757Y-54831000D01*
X149781243Y-54831000D01*
X150019069Y-54783693D01*
X150243097Y-54690898D01*
X150444717Y-54556180D01*
X150616180Y-54384717D01*
X150713073Y-54239706D01*
X150711928Y-54450000D01*
X150724188Y-54574482D01*
X150760498Y-54694180D01*
X150819463Y-54804494D01*
X150898815Y-54901185D01*
X150995506Y-54980537D01*
X151105820Y-55039502D01*
X151225518Y-55075812D01*
X151350000Y-55088072D01*
X151914250Y-55085000D01*
X152073000Y-54926250D01*
X152073000Y-53727000D01*
X152327000Y-53727000D01*
X152327000Y-54926250D01*
X152485750Y-55085000D01*
X153050000Y-55088072D01*
X153174482Y-55075812D01*
X153294180Y-55039502D01*
X153404494Y-54980537D01*
X153501185Y-54901185D01*
X153580537Y-54804494D01*
X153639502Y-54694180D01*
X153675812Y-54574482D01*
X153688072Y-54450000D01*
X153685000Y-53885750D01*
X153526250Y-53727000D01*
X152327000Y-53727000D01*
X152073000Y-53727000D01*
X152053000Y-53727000D01*
X152053000Y-53473000D01*
X152073000Y-53473000D01*
X152073000Y-53453000D01*
X152327000Y-53453000D01*
X152327000Y-53473000D01*
X153526250Y-53473000D01*
X153685000Y-53314250D01*
X153688072Y-52750000D01*
X153675812Y-52625518D01*
X153639502Y-52505820D01*
X153599509Y-52431000D01*
X160978921Y-52431000D01*
X161692819Y-52500998D01*
X162359257Y-52702208D01*
X162973911Y-53029026D01*
X163513384Y-53469009D01*
X163957123Y-54005398D01*
X164288225Y-54617760D01*
X164494079Y-55282768D01*
X164568982Y-55995414D01*
X164569000Y-56000634D01*
X164569001Y-77978911D01*
X164499002Y-78692819D01*
X164297793Y-79359255D01*
X163970975Y-79973911D01*
X163530989Y-80513386D01*
X162994602Y-80957123D01*
X162382245Y-81288223D01*
X161717232Y-81494079D01*
X161004586Y-81568982D01*
X160999367Y-81569000D01*
X134021079Y-81569000D01*
X133307181Y-81499002D01*
X132640745Y-81297793D01*
X132026089Y-80970975D01*
X131486614Y-80530989D01*
X131042877Y-79994602D01*
X130711777Y-79382245D01*
X130505921Y-78717232D01*
X130431018Y-78004586D01*
X130431000Y-77999367D01*
X130431000Y-74062093D01*
X130578645Y-74195178D01*
X130828748Y-74344157D01*
X131103109Y-74441481D01*
X131333000Y-74320814D01*
X131333000Y-73127000D01*
X131313000Y-73127000D01*
X131313000Y-72873000D01*
X131333000Y-72873000D01*
X131333000Y-72853000D01*
X131587000Y-72853000D01*
X131587000Y-72873000D01*
X131607000Y-72873000D01*
X131607000Y-73127000D01*
X131587000Y-73127000D01*
X131587000Y-74320814D01*
X131816891Y-74441481D01*
X132091252Y-74344157D01*
X132341355Y-74195178D01*
X132557588Y-74000269D01*
X132731641Y-73766920D01*
X132767157Y-73692355D01*
X132767157Y-73850000D01*
X132774513Y-73924689D01*
X132796299Y-73996508D01*
X132831678Y-74062696D01*
X132879289Y-74120711D01*
X132937304Y-74168322D01*
X133003492Y-74203701D01*
X133075311Y-74225487D01*
X133150000Y-74232843D01*
X134850000Y-74232843D01*
X134924689Y-74225487D01*
X134996508Y-74203701D01*
X135062696Y-74168322D01*
X135120711Y-74120711D01*
X135168322Y-74062696D01*
X135203701Y-73996508D01*
X135225487Y-73924689D01*
X135232843Y-73850000D01*
X135232843Y-72878757D01*
X138229000Y-72878757D01*
X138229000Y-73121243D01*
X138276307Y-73359069D01*
X138369102Y-73583097D01*
X138503820Y-73784717D01*
X138675283Y-73956180D01*
X138876903Y-74090898D01*
X139100931Y-74183693D01*
X139338757Y-74231000D01*
X139581243Y-74231000D01*
X139819069Y-74183693D01*
X140043097Y-74090898D01*
X140244717Y-73956180D01*
X140416180Y-73784717D01*
X140550898Y-73583097D01*
X140643693Y-73359069D01*
X140691000Y-73121243D01*
X140691000Y-72878757D01*
X140643693Y-72640931D01*
X140550898Y-72416903D01*
X140416180Y-72215283D01*
X140244717Y-72043820D01*
X140043097Y-71909102D01*
X139819069Y-71816307D01*
X139581243Y-71769000D01*
X139338757Y-71769000D01*
X139100931Y-71816307D01*
X138876903Y-71909102D01*
X138675283Y-72043820D01*
X138503820Y-72215283D01*
X138369102Y-72416903D01*
X138276307Y-72640931D01*
X138229000Y-72878757D01*
X135232843Y-72878757D01*
X135232843Y-72150000D01*
X135225487Y-72075311D01*
X135203701Y-72003492D01*
X135168322Y-71937304D01*
X135120711Y-71879289D01*
X135062696Y-71831678D01*
X134996508Y-71796299D01*
X134924689Y-71774513D01*
X134850000Y-71767157D01*
X133150000Y-71767157D01*
X133075311Y-71774513D01*
X133003492Y-71796299D01*
X132937304Y-71831678D01*
X132879289Y-71879289D01*
X132831678Y-71937304D01*
X132796299Y-72003492D01*
X132774513Y-72075311D01*
X132767157Y-72150000D01*
X132767157Y-72307645D01*
X132731641Y-72233080D01*
X132557588Y-71999731D01*
X132341355Y-71804822D01*
X132091252Y-71655843D01*
X131928832Y-71598228D01*
X132043097Y-71550898D01*
X132244717Y-71416180D01*
X132416180Y-71244717D01*
X132550898Y-71043097D01*
X132643693Y-70819069D01*
X132691000Y-70581243D01*
X132691000Y-70338757D01*
X132643693Y-70100931D01*
X132550898Y-69876903D01*
X132416180Y-69675283D01*
X132244717Y-69503820D01*
X132043097Y-69369102D01*
X131819069Y-69276307D01*
X131581243Y-69229000D01*
X131338757Y-69229000D01*
X131100931Y-69276307D01*
X130876903Y-69369102D01*
X130675283Y-69503820D01*
X130503820Y-69675283D01*
X130431000Y-69784266D01*
X130431000Y-68595734D01*
X130503820Y-68704717D01*
X130675283Y-68876180D01*
X130876903Y-69010898D01*
X131100931Y-69103693D01*
X131338757Y-69151000D01*
X131581243Y-69151000D01*
X131819069Y-69103693D01*
X132043097Y-69010898D01*
X132244717Y-68876180D01*
X132373152Y-68747745D01*
X133165626Y-69540220D01*
X133171602Y-69547501D01*
X133043820Y-69675283D01*
X132909102Y-69876903D01*
X132816307Y-70100931D01*
X132769000Y-70338757D01*
X132769000Y-70581243D01*
X132816307Y-70819069D01*
X132909102Y-71043097D01*
X133043820Y-71244717D01*
X133215283Y-71416180D01*
X133416903Y-71550898D01*
X133640931Y-71643693D01*
X133878757Y-71691000D01*
X134121243Y-71691000D01*
X134359069Y-71643693D01*
X134583097Y-71550898D01*
X134784717Y-71416180D01*
X134956180Y-71244717D01*
X135090898Y-71043097D01*
X135183693Y-70819069D01*
X135231000Y-70581243D01*
X135231000Y-70338757D01*
X135183693Y-70100931D01*
X135090898Y-69876903D01*
X134976704Y-69706000D01*
X138155154Y-69706000D01*
X138180000Y-69708447D01*
X138204846Y-69706000D01*
X138204854Y-69706000D01*
X138279193Y-69698678D01*
X138374575Y-69669745D01*
X138462479Y-69622759D01*
X138539527Y-69559527D01*
X138555376Y-69540215D01*
X139023833Y-69071758D01*
X139100931Y-69103693D01*
X139338757Y-69151000D01*
X139581243Y-69151000D01*
X139819069Y-69103693D01*
X139896167Y-69071758D01*
X140314628Y-69490220D01*
X140330473Y-69509527D01*
X140407521Y-69572759D01*
X140495425Y-69619745D01*
X140590807Y-69648678D01*
X140690000Y-69658448D01*
X140714854Y-69656000D01*
X141063103Y-69656000D01*
X141043820Y-69675283D01*
X140909102Y-69876903D01*
X140816307Y-70100931D01*
X140769000Y-70338757D01*
X140769000Y-70581243D01*
X140816307Y-70819069D01*
X140909102Y-71043097D01*
X141009932Y-71194000D01*
X140909592Y-71194000D01*
X140611758Y-70896167D01*
X140643693Y-70819069D01*
X140691000Y-70581243D01*
X140691000Y-70338757D01*
X140643693Y-70100931D01*
X140550898Y-69876903D01*
X140416180Y-69675283D01*
X140244717Y-69503820D01*
X140043097Y-69369102D01*
X139819069Y-69276307D01*
X139581243Y-69229000D01*
X139338757Y-69229000D01*
X139100931Y-69276307D01*
X138876903Y-69369102D01*
X138675283Y-69503820D01*
X138503820Y-69675283D01*
X138369102Y-69876903D01*
X138276307Y-70100931D01*
X138229000Y-70338757D01*
X138229000Y-70581243D01*
X138276307Y-70819069D01*
X138369102Y-71043097D01*
X138503820Y-71244717D01*
X138675283Y-71416180D01*
X138876903Y-71550898D01*
X139100931Y-71643693D01*
X139338757Y-71691000D01*
X139581243Y-71691000D01*
X139819069Y-71643693D01*
X139896167Y-71611758D01*
X140324628Y-72040220D01*
X140340473Y-72059527D01*
X140417521Y-72122759D01*
X140505425Y-72169745D01*
X140600807Y-72198678D01*
X140700000Y-72208448D01*
X140724854Y-72206000D01*
X140767157Y-72206000D01*
X140767157Y-73850000D01*
X140774513Y-73924689D01*
X140796299Y-73996508D01*
X140831678Y-74062696D01*
X140879289Y-74120711D01*
X140937304Y-74168322D01*
X141003492Y-74203701D01*
X141075311Y-74225487D01*
X141150000Y-74232843D01*
X142850000Y-74232843D01*
X142924689Y-74225487D01*
X142996508Y-74203701D01*
X143062696Y-74168322D01*
X143120711Y-74120711D01*
X143168322Y-74062696D01*
X143203701Y-73996508D01*
X143225487Y-73924689D01*
X143232843Y-73850000D01*
X143232843Y-72206000D01*
X144940409Y-72206000D01*
X153724628Y-80990220D01*
X153740473Y-81009527D01*
X153817521Y-81072759D01*
X153905425Y-81119745D01*
X153978607Y-81141944D01*
X154000806Y-81148678D01*
X154010694Y-81149652D01*
X154075146Y-81156000D01*
X154075153Y-81156000D01*
X154099999Y-81158447D01*
X154124845Y-81156000D01*
X162325154Y-81156000D01*
X162350000Y-81158447D01*
X162374846Y-81156000D01*
X162374854Y-81156000D01*
X162449193Y-81148678D01*
X162544575Y-81119745D01*
X162632479Y-81072759D01*
X162709527Y-81009527D01*
X162725376Y-80990215D01*
X163890220Y-79825372D01*
X163909527Y-79809527D01*
X163972759Y-79732479D01*
X164019745Y-79644575D01*
X164048678Y-79549193D01*
X164056000Y-79474854D01*
X164056000Y-79474847D01*
X164058447Y-79450001D01*
X164056000Y-79425155D01*
X164056000Y-62794854D01*
X164058448Y-62770000D01*
X164048678Y-62670807D01*
X164019745Y-62575425D01*
X163972759Y-62487521D01*
X163909527Y-62410473D01*
X163890220Y-62394628D01*
X162662167Y-61166576D01*
X162696771Y-61083036D01*
X162744600Y-60842582D01*
X162744600Y-60597418D01*
X162696771Y-60356964D01*
X162602950Y-60130461D01*
X162466744Y-59926614D01*
X162293386Y-59753256D01*
X162089539Y-59617050D01*
X161863036Y-59523229D01*
X161622582Y-59475400D01*
X161377418Y-59475400D01*
X161136964Y-59523229D01*
X160910461Y-59617050D01*
X160706614Y-59753256D01*
X160533256Y-59926614D01*
X160397050Y-60130461D01*
X160366441Y-60204358D01*
X160242684Y-59945056D01*
X160066854Y-59709707D01*
X159848488Y-59513183D01*
X159742230Y-59450000D01*
X159848488Y-59386817D01*
X160066854Y-59190293D01*
X160242684Y-58954944D01*
X160366441Y-58695642D01*
X160397050Y-58769539D01*
X160533256Y-58973386D01*
X160706614Y-59146744D01*
X160910461Y-59282950D01*
X161136964Y-59376771D01*
X161377418Y-59424600D01*
X161622582Y-59424600D01*
X161863036Y-59376771D01*
X162089539Y-59282950D01*
X162293386Y-59146744D01*
X162466744Y-58973386D01*
X162602950Y-58769539D01*
X162696771Y-58543036D01*
X162744600Y-58302582D01*
X162744600Y-58057418D01*
X162696771Y-57816964D01*
X162602950Y-57590461D01*
X162466744Y-57386614D01*
X162293386Y-57213256D01*
X162089539Y-57077050D01*
X161863036Y-56983229D01*
X161622582Y-56935400D01*
X161377418Y-56935400D01*
X161136964Y-56983229D01*
X160910461Y-57077050D01*
X160706614Y-57213256D01*
X160533256Y-57386614D01*
X160397050Y-57590461D01*
X160366441Y-57664358D01*
X160242684Y-57405056D01*
X160066854Y-57169707D01*
X159848488Y-56973183D01*
X159742230Y-56910000D01*
X159848488Y-56846817D01*
X160066854Y-56650293D01*
X160242684Y-56414944D01*
X160366441Y-56155642D01*
X160397050Y-56229539D01*
X160533256Y-56433386D01*
X160706614Y-56606744D01*
X160910461Y-56742950D01*
X161136964Y-56836771D01*
X161377418Y-56884600D01*
X161622582Y-56884600D01*
X161863036Y-56836771D01*
X162089539Y-56742950D01*
X162293386Y-56606744D01*
X162466744Y-56433386D01*
X162602950Y-56229539D01*
X162696771Y-56003036D01*
X162744600Y-55762582D01*
X162744600Y-55517418D01*
X162696771Y-55276964D01*
X162602950Y-55050461D01*
X162466744Y-54846614D01*
X162293386Y-54673256D01*
X162089539Y-54537050D01*
X161863036Y-54443229D01*
X161622582Y-54395400D01*
X161377418Y-54395400D01*
X161136964Y-54443229D01*
X160910461Y-54537050D01*
X160706614Y-54673256D01*
X160533256Y-54846614D01*
X160397050Y-55050461D01*
X160366441Y-55124358D01*
X160242684Y-54865056D01*
X160066854Y-54629707D01*
X159848488Y-54433183D01*
X159595978Y-54283036D01*
X159319027Y-54185037D01*
X159087000Y-54305536D01*
X159087000Y-55513000D01*
X159107000Y-55513000D01*
X159107000Y-55767000D01*
X159087000Y-55767000D01*
X159087000Y-58053000D01*
X159107000Y-58053000D01*
X159107000Y-58307000D01*
X159087000Y-58307000D01*
X159087000Y-60593000D01*
X159107000Y-60593000D01*
X159107000Y-60847000D01*
X159087000Y-60847000D01*
X159087000Y-63133000D01*
X159107000Y-63133000D01*
X159107000Y-63387000D01*
X159087000Y-63387000D01*
X159087000Y-63407000D01*
X158833000Y-63407000D01*
X158833000Y-63387000D01*
X157626183Y-63387000D01*
X157505042Y-63619026D01*
X157550778Y-63769814D01*
X157657775Y-63994000D01*
X153174845Y-63994000D01*
X153149999Y-63991553D01*
X153125153Y-63994000D01*
X153125146Y-63994000D01*
X153060694Y-64000348D01*
X153050806Y-64001322D01*
X153028607Y-64008056D01*
X152955425Y-64030255D01*
X152867521Y-64077241D01*
X152790473Y-64140473D01*
X152774629Y-64159779D01*
X150485000Y-66449408D01*
X150485000Y-66332998D01*
X150320156Y-66332998D01*
X150441476Y-66103110D01*
X150396825Y-65955901D01*
X150271641Y-65693080D01*
X150097588Y-65459731D01*
X149881355Y-65264822D01*
X149631252Y-65115843D01*
X149468832Y-65058228D01*
X149583097Y-65010898D01*
X149784717Y-64876180D01*
X149956180Y-64704717D01*
X150090898Y-64503097D01*
X150183693Y-64279069D01*
X150231000Y-64041243D01*
X150231000Y-63798757D01*
X150183693Y-63560931D01*
X150090898Y-63336903D01*
X149956180Y-63135283D01*
X149784717Y-62963820D01*
X149583097Y-62829102D01*
X149359069Y-62736307D01*
X149121243Y-62689000D01*
X148878757Y-62689000D01*
X148640931Y-62736307D01*
X148416903Y-62829102D01*
X148215283Y-62963820D01*
X148043820Y-63135283D01*
X147909102Y-63336903D01*
X147816307Y-63560931D01*
X147769000Y-63798757D01*
X147769000Y-64041243D01*
X147816307Y-64279069D01*
X147909102Y-64503097D01*
X148043820Y-64704717D01*
X148215283Y-64876180D01*
X148416903Y-65010898D01*
X148531168Y-65058228D01*
X148368748Y-65115843D01*
X148118645Y-65264822D01*
X147902412Y-65459731D01*
X147728359Y-65693080D01*
X147603175Y-65955901D01*
X147558524Y-66103110D01*
X147679845Y-66333000D01*
X148873000Y-66333000D01*
X148873000Y-66313000D01*
X149127000Y-66313000D01*
X149127000Y-66333000D01*
X149147000Y-66333000D01*
X149147000Y-66587000D01*
X149127000Y-66587000D01*
X149127000Y-66607000D01*
X148873000Y-66607000D01*
X148873000Y-66587000D01*
X147679845Y-66587000D01*
X147558524Y-66816890D01*
X147603175Y-66964099D01*
X147712679Y-67194000D01*
X145474854Y-67194000D01*
X145450000Y-67191552D01*
X145425146Y-67194000D01*
X145350807Y-67201322D01*
X145255425Y-67230255D01*
X145167521Y-67277241D01*
X145090473Y-67340473D01*
X145074629Y-67359779D01*
X143790409Y-68644000D01*
X142996750Y-68644000D01*
X143090898Y-68503097D01*
X143183693Y-68279069D01*
X143231000Y-68041243D01*
X143231000Y-67798757D01*
X143183693Y-67560931D01*
X143090898Y-67336903D01*
X142956180Y-67135283D01*
X142784717Y-66963820D01*
X142583097Y-66829102D01*
X142359069Y-66736307D01*
X142121243Y-66689000D01*
X141878757Y-66689000D01*
X141640931Y-66736307D01*
X141416903Y-66829102D01*
X141215283Y-66963820D01*
X141043820Y-67135283D01*
X140909102Y-67336903D01*
X140816307Y-67560931D01*
X140769000Y-67798757D01*
X140769000Y-68041243D01*
X140816307Y-68279069D01*
X140909102Y-68503097D01*
X141003250Y-68644000D01*
X140899592Y-68644000D01*
X140611758Y-68356167D01*
X140643693Y-68279069D01*
X140691000Y-68041243D01*
X140691000Y-67798757D01*
X140643693Y-67560931D01*
X140550898Y-67336903D01*
X140493499Y-67250999D01*
X140610155Y-67250999D01*
X140635001Y-67253446D01*
X140659847Y-67250999D01*
X140659855Y-67250999D01*
X140734194Y-67243677D01*
X140829576Y-67214744D01*
X140917480Y-67167758D01*
X140994528Y-67104526D01*
X141010377Y-67085214D01*
X141525371Y-66570221D01*
X141525375Y-66570216D01*
X141563833Y-66531758D01*
X141640931Y-66563693D01*
X141878757Y-66611000D01*
X142121243Y-66611000D01*
X142359069Y-66563693D01*
X142583097Y-66470898D01*
X142784717Y-66336180D01*
X142956180Y-66164717D01*
X143090898Y-65963097D01*
X143183693Y-65739069D01*
X143231000Y-65501243D01*
X143231000Y-65258757D01*
X143183693Y-65020931D01*
X143090898Y-64796903D01*
X142956180Y-64595283D01*
X142784717Y-64423820D01*
X142583097Y-64289102D01*
X142359069Y-64196307D01*
X142121243Y-64149000D01*
X141878757Y-64149000D01*
X141640931Y-64196307D01*
X141416903Y-64289102D01*
X141215283Y-64423820D01*
X141043820Y-64595283D01*
X140909102Y-64796903D01*
X140816307Y-65020931D01*
X140769000Y-65258757D01*
X140769000Y-65501243D01*
X140816307Y-65739069D01*
X140848242Y-65816167D01*
X140809784Y-65854625D01*
X140809779Y-65854629D01*
X140425410Y-66238999D01*
X140341898Y-66238999D01*
X140416180Y-66164717D01*
X140550898Y-65963097D01*
X140643693Y-65739069D01*
X140691000Y-65501243D01*
X140691000Y-65258757D01*
X140643693Y-65020931D01*
X140550898Y-64796903D01*
X140416180Y-64595283D01*
X140244717Y-64423820D01*
X140043097Y-64289102D01*
X139928832Y-64241772D01*
X140091252Y-64184157D01*
X140341355Y-64035178D01*
X140557588Y-63840269D01*
X140731641Y-63606920D01*
X140856825Y-63344099D01*
X140865091Y-63316846D01*
X140909102Y-63423097D01*
X141043820Y-63624717D01*
X141215283Y-63796180D01*
X141416903Y-63930898D01*
X141640931Y-64023693D01*
X141878757Y-64071000D01*
X142121243Y-64071000D01*
X142359069Y-64023693D01*
X142583097Y-63930898D01*
X142784717Y-63796180D01*
X142956180Y-63624717D01*
X143090898Y-63423097D01*
X143183693Y-63199069D01*
X143231000Y-62961243D01*
X143231000Y-62718757D01*
X143183693Y-62480931D01*
X143090898Y-62256903D01*
X142956180Y-62055283D01*
X142784717Y-61883820D01*
X142583097Y-61749102D01*
X142359069Y-61656307D01*
X142121243Y-61609000D01*
X141878757Y-61609000D01*
X141640931Y-61656307D01*
X141416903Y-61749102D01*
X141215283Y-61883820D01*
X141043820Y-62055283D01*
X140909102Y-62256903D01*
X140865091Y-62363154D01*
X140856825Y-62335901D01*
X140731641Y-62073080D01*
X140557588Y-61839731D01*
X140341355Y-61644822D01*
X140091252Y-61495843D01*
X139816891Y-61398519D01*
X139587000Y-61519186D01*
X139587000Y-62713000D01*
X139607000Y-62713000D01*
X139607000Y-62967000D01*
X139587000Y-62967000D01*
X139587000Y-62987000D01*
X139333000Y-62987000D01*
X139333000Y-62967000D01*
X138139845Y-62967000D01*
X138018524Y-63196890D01*
X138063175Y-63344099D01*
X138188359Y-63606920D01*
X138362412Y-63840269D01*
X138578645Y-64035178D01*
X138828748Y-64184157D01*
X138991168Y-64241772D01*
X138876903Y-64289102D01*
X138675283Y-64423820D01*
X138503820Y-64595283D01*
X138369102Y-64796903D01*
X138276307Y-65020931D01*
X138229000Y-65258757D01*
X138229000Y-65501243D01*
X138276307Y-65739069D01*
X138369102Y-65963097D01*
X138503820Y-66164717D01*
X138578102Y-66238999D01*
X135199846Y-66238999D01*
X135175000Y-66236552D01*
X135150154Y-66238999D01*
X135150147Y-66238999D01*
X135085695Y-66245347D01*
X135075807Y-66246321D01*
X135053608Y-66253055D01*
X134980426Y-66275254D01*
X134892522Y-66322240D01*
X134815474Y-66385472D01*
X134799630Y-66404778D01*
X134436167Y-66768242D01*
X134359069Y-66736307D01*
X134121243Y-66689000D01*
X133878757Y-66689000D01*
X133640931Y-66736307D01*
X133416903Y-66829102D01*
X133215283Y-66963820D01*
X133206000Y-66973103D01*
X133206000Y-66644854D01*
X133208448Y-66620000D01*
X133198678Y-66520807D01*
X133169745Y-66425425D01*
X133148390Y-66385473D01*
X133122759Y-66337521D01*
X133059527Y-66260473D01*
X133040220Y-66244628D01*
X132611758Y-65816167D01*
X132643693Y-65739069D01*
X132691000Y-65501243D01*
X132691000Y-65258757D01*
X132769000Y-65258757D01*
X132769000Y-65501243D01*
X132816307Y-65739069D01*
X132909102Y-65963097D01*
X133043820Y-66164717D01*
X133215283Y-66336180D01*
X133416903Y-66470898D01*
X133640931Y-66563693D01*
X133878757Y-66611000D01*
X134121243Y-66611000D01*
X134359069Y-66563693D01*
X134583097Y-66470898D01*
X134784717Y-66336180D01*
X134956180Y-66164717D01*
X135090898Y-65963097D01*
X135183693Y-65739069D01*
X135231000Y-65501243D01*
X135231000Y-65258757D01*
X135183693Y-65020931D01*
X135090898Y-64796903D01*
X134956180Y-64595283D01*
X134784717Y-64423820D01*
X134583097Y-64289102D01*
X134359069Y-64196307D01*
X134121243Y-64149000D01*
X133878757Y-64149000D01*
X133640931Y-64196307D01*
X133416903Y-64289102D01*
X133215283Y-64423820D01*
X133043820Y-64595283D01*
X132909102Y-64796903D01*
X132816307Y-65020931D01*
X132769000Y-65258757D01*
X132691000Y-65258757D01*
X132643693Y-65020931D01*
X132550898Y-64796903D01*
X132416180Y-64595283D01*
X132244717Y-64423820D01*
X132043097Y-64289102D01*
X131819069Y-64196307D01*
X131581243Y-64149000D01*
X131338757Y-64149000D01*
X131100931Y-64196307D01*
X130876903Y-64289102D01*
X130675283Y-64423820D01*
X130503820Y-64595283D01*
X130431000Y-64704266D01*
X130431000Y-63515734D01*
X130503820Y-63624717D01*
X130675283Y-63796180D01*
X130876903Y-63930898D01*
X131100931Y-64023693D01*
X131338757Y-64071000D01*
X131581243Y-64071000D01*
X131819069Y-64023693D01*
X132043097Y-63930898D01*
X132244717Y-63796180D01*
X132416180Y-63624717D01*
X132550898Y-63423097D01*
X132643693Y-63199069D01*
X132691000Y-62961243D01*
X132691000Y-62718757D01*
X132769000Y-62718757D01*
X132769000Y-62961243D01*
X132816307Y-63199069D01*
X132909102Y-63423097D01*
X133043820Y-63624717D01*
X133215283Y-63796180D01*
X133416903Y-63930898D01*
X133640931Y-64023693D01*
X133878757Y-64071000D01*
X134121243Y-64071000D01*
X134359069Y-64023693D01*
X134583097Y-63930898D01*
X134784717Y-63796180D01*
X134956180Y-63624717D01*
X135090898Y-63423097D01*
X135183693Y-63199069D01*
X135231000Y-62961243D01*
X135231000Y-62718757D01*
X135184127Y-62483110D01*
X138018524Y-62483110D01*
X138139845Y-62713000D01*
X139333000Y-62713000D01*
X139333000Y-61519186D01*
X139103109Y-61398519D01*
X138828748Y-61495843D01*
X138578645Y-61644822D01*
X138362412Y-61839731D01*
X138188359Y-62073080D01*
X138063175Y-62335901D01*
X138018524Y-62483110D01*
X135184127Y-62483110D01*
X135183693Y-62480931D01*
X135090898Y-62256903D01*
X134956180Y-62055283D01*
X134784717Y-61883820D01*
X134583097Y-61749102D01*
X134359069Y-61656307D01*
X134121243Y-61609000D01*
X133878757Y-61609000D01*
X133640931Y-61656307D01*
X133416903Y-61749102D01*
X133215283Y-61883820D01*
X133043820Y-62055283D01*
X132909102Y-62256903D01*
X132816307Y-62480931D01*
X132769000Y-62718757D01*
X132691000Y-62718757D01*
X132643693Y-62480931D01*
X132550898Y-62256903D01*
X132416180Y-62055283D01*
X132244717Y-61883820D01*
X132043097Y-61749102D01*
X131819069Y-61656307D01*
X131581243Y-61609000D01*
X131338757Y-61609000D01*
X131100931Y-61656307D01*
X130876903Y-61749102D01*
X130675283Y-61883820D01*
X130503820Y-62055283D01*
X130431000Y-62164266D01*
X130431000Y-61079026D01*
X157505042Y-61079026D01*
X157550778Y-61229814D01*
X157677316Y-61494944D01*
X157853146Y-61730293D01*
X158071512Y-61926817D01*
X158177770Y-61990000D01*
X158071512Y-62053183D01*
X157853146Y-62249707D01*
X157677316Y-62485056D01*
X157550778Y-62750186D01*
X157505042Y-62900974D01*
X157626183Y-63133000D01*
X158833000Y-63133000D01*
X158833000Y-60847000D01*
X157626183Y-60847000D01*
X157505042Y-61079026D01*
X130431000Y-61079026D01*
X130431000Y-58539026D01*
X157505042Y-58539026D01*
X157550778Y-58689814D01*
X157677316Y-58954944D01*
X157853146Y-59190293D01*
X158071512Y-59386817D01*
X158177770Y-59450000D01*
X158071512Y-59513183D01*
X157853146Y-59709707D01*
X157677316Y-59945056D01*
X157550778Y-60210186D01*
X157505042Y-60360974D01*
X157626183Y-60593000D01*
X158833000Y-60593000D01*
X158833000Y-58307000D01*
X157626183Y-58307000D01*
X157505042Y-58539026D01*
X130431000Y-58539026D01*
X130431000Y-56021079D01*
X130433162Y-55999026D01*
X157505042Y-55999026D01*
X157550778Y-56149814D01*
X157677316Y-56414944D01*
X157853146Y-56650293D01*
X158071512Y-56846817D01*
X158177770Y-56910000D01*
X158071512Y-56973183D01*
X157853146Y-57169707D01*
X157677316Y-57405056D01*
X157550778Y-57670186D01*
X157505042Y-57820974D01*
X157626183Y-58053000D01*
X158833000Y-58053000D01*
X158833000Y-55767000D01*
X157626183Y-55767000D01*
X157505042Y-55999026D01*
X130433162Y-55999026D01*
X130500998Y-55307181D01*
X130508910Y-55280974D01*
X157505042Y-55280974D01*
X157626183Y-55513000D01*
X158833000Y-55513000D01*
X158833000Y-54305536D01*
X158600973Y-54185037D01*
X158324022Y-54283036D01*
X158071512Y-54433183D01*
X157853146Y-54629707D01*
X157677316Y-54865056D01*
X157550778Y-55130186D01*
X157505042Y-55280974D01*
X130508910Y-55280974D01*
X130702208Y-54640743D01*
X131029026Y-54026089D01*
X131469009Y-53486616D01*
X132005398Y-53042877D01*
X132617760Y-52711775D01*
X133282768Y-52505921D01*
X133995414Y-52431018D01*
X134000633Y-52431000D01*
X146725459Y-52431000D01*
X146536903Y-52509102D01*
G36*
X154374628Y-75040220D02*
G01*
X154390473Y-75059527D01*
X154467521Y-75122759D01*
X154549567Y-75166614D01*
X154555425Y-75169745D01*
X154650807Y-75198678D01*
X154750000Y-75208448D01*
X154774854Y-75206000D01*
X157667320Y-75206000D01*
X157550778Y-75450186D01*
X157505042Y-75600974D01*
X157626183Y-75833000D01*
X158833000Y-75833000D01*
X158833000Y-75813000D01*
X159087000Y-75813000D01*
X159087000Y-75833000D01*
X159107000Y-75833000D01*
X159107000Y-76087000D01*
X159087000Y-76087000D01*
X159087000Y-76107000D01*
X158833000Y-76107000D01*
X158833000Y-76087000D01*
X157626183Y-76087000D01*
X157505042Y-76319026D01*
X157550778Y-76469814D01*
X157657775Y-76694000D01*
X155969592Y-76694000D01*
X150475376Y-71199785D01*
X150459527Y-71180473D01*
X150382479Y-71117241D01*
X150294575Y-71070255D01*
X150232843Y-71051529D01*
X150232843Y-70898434D01*
X154374628Y-75040220D01*
G37*
X154374628Y-75040220D02*
X154390473Y-75059527D01*
X154467521Y-75122759D01*
X154549567Y-75166614D01*
X154555425Y-75169745D01*
X154650807Y-75198678D01*
X154750000Y-75208448D01*
X154774854Y-75206000D01*
X157667320Y-75206000D01*
X157550778Y-75450186D01*
X157505042Y-75600974D01*
X157626183Y-75833000D01*
X158833000Y-75833000D01*
X158833000Y-75813000D01*
X159087000Y-75813000D01*
X159087000Y-75833000D01*
X159107000Y-75833000D01*
X159107000Y-76087000D01*
X159087000Y-76087000D01*
X159087000Y-76107000D01*
X158833000Y-76107000D01*
X158833000Y-76087000D01*
X157626183Y-76087000D01*
X157505042Y-76319026D01*
X157550778Y-76469814D01*
X157657775Y-76694000D01*
X155969592Y-76694000D01*
X150475376Y-71199785D01*
X150459527Y-71180473D01*
X150382479Y-71117241D01*
X150294575Y-71070255D01*
X150232843Y-71051529D01*
X150232843Y-70898434D01*
X154374628Y-75040220D01*
G36*
X157677316Y-65025056D02*
G01*
X157550778Y-65290186D01*
X157505042Y-65440974D01*
X157626183Y-65673000D01*
X158833000Y-65673000D01*
X158833000Y-65653000D01*
X159087000Y-65653000D01*
X159087000Y-65673000D01*
X159107000Y-65673000D01*
X159107000Y-65927000D01*
X159087000Y-65927000D01*
X159087000Y-68213000D01*
X159107000Y-68213000D01*
X159107000Y-68467000D01*
X159087000Y-68467000D01*
X159087000Y-70753000D01*
X159107000Y-70753000D01*
X159107000Y-71007000D01*
X159087000Y-71007000D01*
X159087000Y-73293000D01*
X159107000Y-73293000D01*
X159107000Y-73547000D01*
X159087000Y-73547000D01*
X159087000Y-73567000D01*
X158833000Y-73567000D01*
X158833000Y-73547000D01*
X157626183Y-73547000D01*
X157505042Y-73779026D01*
X157550778Y-73929814D01*
X157676865Y-74194000D01*
X154959592Y-74194000D01*
X152004618Y-71239026D01*
X157505042Y-71239026D01*
X157550778Y-71389814D01*
X157677316Y-71654944D01*
X157853146Y-71890293D01*
X158071512Y-72086817D01*
X158177770Y-72150000D01*
X158071512Y-72213183D01*
X157853146Y-72409707D01*
X157677316Y-72645056D01*
X157550778Y-72910186D01*
X157505042Y-73060974D01*
X157626183Y-73293000D01*
X158833000Y-73293000D01*
X158833000Y-71007000D01*
X157626183Y-71007000D01*
X157505042Y-71239026D01*
X152004618Y-71239026D01*
X150725376Y-69959785D01*
X150709527Y-69940473D01*
X150632479Y-69877241D01*
X150544575Y-69830255D01*
X150449193Y-69801322D01*
X150374854Y-69794000D01*
X150374846Y-69794000D01*
X150350000Y-69791553D01*
X150325154Y-69794000D01*
X149946897Y-69794000D01*
X149956180Y-69784717D01*
X150090898Y-69583097D01*
X150183693Y-69359069D01*
X150231000Y-69121243D01*
X150231000Y-68878757D01*
X150195249Y-68699026D01*
X157505042Y-68699026D01*
X157550778Y-68849814D01*
X157677316Y-69114944D01*
X157853146Y-69350293D01*
X158071512Y-69546817D01*
X158177770Y-69610000D01*
X158071512Y-69673183D01*
X157853146Y-69869707D01*
X157677316Y-70105056D01*
X157550778Y-70370186D01*
X157505042Y-70520974D01*
X157626183Y-70753000D01*
X158833000Y-70753000D01*
X158833000Y-68467000D01*
X157626183Y-68467000D01*
X157505042Y-68699026D01*
X150195249Y-68699026D01*
X150183693Y-68640931D01*
X150090898Y-68416903D01*
X149956180Y-68215283D01*
X149949272Y-68208375D01*
X149950000Y-68208447D01*
X149974846Y-68206000D01*
X149974854Y-68206000D01*
X150049193Y-68198678D01*
X150144575Y-68169745D01*
X150232479Y-68122759D01*
X150309527Y-68059527D01*
X150325376Y-68040215D01*
X152206565Y-66159026D01*
X157505042Y-66159026D01*
X157550778Y-66309814D01*
X157677316Y-66574944D01*
X157853146Y-66810293D01*
X158071512Y-67006817D01*
X158177770Y-67070000D01*
X158071512Y-67133183D01*
X157853146Y-67329707D01*
X157677316Y-67565056D01*
X157550778Y-67830186D01*
X157505042Y-67980974D01*
X157626183Y-68213000D01*
X158833000Y-68213000D01*
X158833000Y-65927000D01*
X157626183Y-65927000D01*
X157505042Y-66159026D01*
X152206565Y-66159026D01*
X153359592Y-65006000D01*
X157691553Y-65006000D01*
X157677316Y-65025056D01*
G37*
X157677316Y-65025056D02*
X157550778Y-65290186D01*
X157505042Y-65440974D01*
X157626183Y-65673000D01*
X158833000Y-65673000D01*
X158833000Y-65653000D01*
X159087000Y-65653000D01*
X159087000Y-65673000D01*
X159107000Y-65673000D01*
X159107000Y-65927000D01*
X159087000Y-65927000D01*
X159087000Y-68213000D01*
X159107000Y-68213000D01*
X159107000Y-68467000D01*
X159087000Y-68467000D01*
X159087000Y-70753000D01*
X159107000Y-70753000D01*
X159107000Y-71007000D01*
X159087000Y-71007000D01*
X159087000Y-73293000D01*
X159107000Y-73293000D01*
X159107000Y-73547000D01*
X159087000Y-73547000D01*
X159087000Y-73567000D01*
X158833000Y-73567000D01*
X158833000Y-73547000D01*
X157626183Y-73547000D01*
X157505042Y-73779026D01*
X157550778Y-73929814D01*
X157676865Y-74194000D01*
X154959592Y-74194000D01*
X152004618Y-71239026D01*
X157505042Y-71239026D01*
X157550778Y-71389814D01*
X157677316Y-71654944D01*
X157853146Y-71890293D01*
X158071512Y-72086817D01*
X158177770Y-72150000D01*
X158071512Y-72213183D01*
X157853146Y-72409707D01*
X157677316Y-72645056D01*
X157550778Y-72910186D01*
X157505042Y-73060974D01*
X157626183Y-73293000D01*
X158833000Y-73293000D01*
X158833000Y-71007000D01*
X157626183Y-71007000D01*
X157505042Y-71239026D01*
X152004618Y-71239026D01*
X150725376Y-69959785D01*
X150709527Y-69940473D01*
X150632479Y-69877241D01*
X150544575Y-69830255D01*
X150449193Y-69801322D01*
X150374854Y-69794000D01*
X150374846Y-69794000D01*
X150350000Y-69791553D01*
X150325154Y-69794000D01*
X149946897Y-69794000D01*
X149956180Y-69784717D01*
X150090898Y-69583097D01*
X150183693Y-69359069D01*
X150231000Y-69121243D01*
X150231000Y-68878757D01*
X150195249Y-68699026D01*
X157505042Y-68699026D01*
X157550778Y-68849814D01*
X157677316Y-69114944D01*
X157853146Y-69350293D01*
X158071512Y-69546817D01*
X158177770Y-69610000D01*
X158071512Y-69673183D01*
X157853146Y-69869707D01*
X157677316Y-70105056D01*
X157550778Y-70370186D01*
X157505042Y-70520974D01*
X157626183Y-70753000D01*
X158833000Y-70753000D01*
X158833000Y-68467000D01*
X157626183Y-68467000D01*
X157505042Y-68699026D01*
X150195249Y-68699026D01*
X150183693Y-68640931D01*
X150090898Y-68416903D01*
X149956180Y-68215283D01*
X149949272Y-68208375D01*
X149950000Y-68208447D01*
X149974846Y-68206000D01*
X149974854Y-68206000D01*
X150049193Y-68198678D01*
X150144575Y-68169745D01*
X150232479Y-68122759D01*
X150309527Y-68059527D01*
X150325376Y-68040215D01*
X152206565Y-66159026D01*
X157505042Y-66159026D01*
X157550778Y-66309814D01*
X157677316Y-66574944D01*
X157853146Y-66810293D01*
X158071512Y-67006817D01*
X158177770Y-67070000D01*
X158071512Y-67133183D01*
X157853146Y-67329707D01*
X157677316Y-67565056D01*
X157550778Y-67830186D01*
X157505042Y-67980974D01*
X157626183Y-68213000D01*
X158833000Y-68213000D01*
X158833000Y-65927000D01*
X157626183Y-65927000D01*
X157505042Y-66159026D01*
X152206565Y-66159026D01*
X153359592Y-65006000D01*
X157691553Y-65006000D01*
X157677316Y-65025056D01*
M02*
