G04 #@! TF.GenerationSoftware,KiCad,Pcbnew,5.1.5-52549c5~84~ubuntu18.04.1*
G04 #@! TF.CreationDate,2020-02-29T23:35:11+08:00*
G04 #@! TF.ProjectId,adapter_20p,61646170-7465-4725-9f32-30702e6b6963,rev?*
G04 #@! TF.SameCoordinates,Original*
G04 #@! TF.FileFunction,Copper,L1,Top*
G04 #@! TF.FilePolarity,Positive*
%FSLAX46Y46*%
G04 Gerber Fmt 4.6, Leading zero omitted, Abs format (unit mm)*
G04 Created by KiCad (PCBNEW 5.1.5-52549c5~84~ubuntu18.04.1) date 2020-02-29 23:35:11*
%MOMM*%
%LPD*%
G04 APERTURE LIST*
%ADD10O,1.700000X1.700000*%
%ADD11R,1.700000X1.700000*%
%ADD12O,1.727200X1.727200*%
%ADD13R,1.727200X1.727200*%
%ADD14C,0.800000*%
%ADD15C,0.250000*%
%ADD16C,0.254000*%
G04 APERTURE END LIST*
D10*
X131460000Y-62840000D03*
X134000000Y-62840000D03*
X131460000Y-65380000D03*
X134000000Y-65380000D03*
X131460000Y-67920000D03*
X134000000Y-67920000D03*
X131460000Y-70460000D03*
X134000000Y-70460000D03*
X131460000Y-73000000D03*
D11*
X134000000Y-73000000D03*
D10*
X149000000Y-63920000D03*
X149000000Y-66460000D03*
X149000000Y-69000000D03*
D11*
X149000000Y-71540000D03*
D10*
X139460000Y-62840000D03*
X142000000Y-62840000D03*
X139460000Y-65380000D03*
X142000000Y-65380000D03*
X139460000Y-67920000D03*
X142000000Y-67920000D03*
X139460000Y-70460000D03*
X142000000Y-70460000D03*
X139460000Y-73000000D03*
D11*
X142000000Y-73000000D03*
D10*
X147120000Y-53600000D03*
X149660000Y-53600000D03*
D11*
X152200000Y-53600000D03*
D12*
X158960000Y-55640000D03*
X161500000Y-55640000D03*
X158960000Y-58180000D03*
X161500000Y-58180000D03*
X158960000Y-60720000D03*
X161500000Y-60720000D03*
X158960000Y-63260000D03*
X161500000Y-63260000D03*
X158960000Y-65800000D03*
X161500000Y-65800000D03*
X158960000Y-68340000D03*
X161500000Y-68340000D03*
X158960000Y-70880000D03*
X161500000Y-70880000D03*
X158960000Y-73420000D03*
X161500000Y-73420000D03*
X158960000Y-75960000D03*
X161500000Y-75960000D03*
X158960000Y-78500000D03*
D13*
X161500000Y-78500000D03*
D14*
X133000000Y-60000000D03*
D15*
X131460000Y-62840000D02*
X135800000Y-58500000D01*
X142220000Y-58500000D02*
X147120000Y-53600000D01*
X135800000Y-58500000D02*
X142220000Y-58500000D01*
X134000000Y-62840000D02*
X137640000Y-59200000D01*
X144060000Y-59200000D02*
X149660000Y-53600000D01*
X137640000Y-59200000D02*
X144060000Y-59200000D01*
X141150001Y-67070001D02*
X142000000Y-67920000D01*
X140824999Y-66744999D02*
X141150001Y-67070001D01*
X135364999Y-66744999D02*
X140824999Y-66744999D01*
X134000000Y-65380000D02*
X135364999Y-66744999D01*
X142000000Y-67920000D02*
X144380000Y-70300000D01*
X144380000Y-70300000D02*
X155550000Y-70300000D01*
X155550000Y-70300000D02*
X157400000Y-72150000D01*
X160230000Y-72150000D02*
X161500000Y-73420000D01*
X157400000Y-72150000D02*
X160230000Y-72150000D01*
X142000000Y-63100000D02*
X142000000Y-62840000D01*
X141000000Y-64100000D02*
X142000000Y-63100000D01*
X133540998Y-64100000D02*
X141000000Y-64100000D01*
X132700000Y-64940998D02*
X133540998Y-64100000D01*
X131460000Y-67920000D02*
X132700000Y-66680000D01*
X132700000Y-66680000D02*
X132700000Y-64940998D01*
X147920000Y-62840000D02*
X149000000Y-63920000D01*
X142000000Y-62840000D02*
X147920000Y-62840000D01*
X149000000Y-63920000D02*
X152130000Y-67050000D01*
X160210000Y-67050000D02*
X161500000Y-68340000D01*
X152130000Y-67050000D02*
X160210000Y-67050000D01*
X145380000Y-65380000D02*
X149000000Y-69000000D01*
X142000000Y-65380000D02*
X145380000Y-65380000D01*
X149600000Y-69600000D02*
X149000000Y-69000000D01*
X161500000Y-70880000D02*
X160220000Y-69600000D01*
X160220000Y-69600000D02*
X149600000Y-69600000D01*
X131460000Y-70460000D02*
X132720000Y-69200000D01*
X138200000Y-69200000D02*
X139460000Y-70460000D01*
X132720000Y-69200000D02*
X138200000Y-69200000D01*
X141150001Y-71309999D02*
X142000000Y-70460000D01*
X140824999Y-71635001D02*
X141150001Y-71309999D01*
X135175001Y-71635001D02*
X140824999Y-71635001D01*
X134000000Y-70460000D02*
X135175001Y-71635001D01*
X158960000Y-75960000D02*
X158960000Y-73420000D01*
X158960000Y-63260000D02*
X158960000Y-65800000D01*
X150880000Y-68340000D02*
X158960000Y-68340000D01*
X149000000Y-66460000D02*
X150880000Y-68340000D01*
X141580000Y-60720000D02*
X158960000Y-60720000D01*
X139460000Y-62840000D02*
X141580000Y-60720000D01*
X133217919Y-75960000D02*
X157738686Y-75960000D01*
X131460000Y-74202081D02*
X133217919Y-75960000D01*
X157738686Y-75960000D02*
X158960000Y-75960000D01*
X131460000Y-73000000D02*
X131460000Y-74202081D01*
X135100000Y-73000000D02*
X137100000Y-75000000D01*
X134000000Y-73000000D02*
X135100000Y-73000000D01*
X137100000Y-75000000D02*
X140000000Y-75000000D01*
X140000000Y-75000000D02*
X142000000Y-73000000D01*
X142000000Y-73000000D02*
X146000000Y-73000000D01*
X147460000Y-71540000D02*
X149000000Y-71540000D01*
X146000000Y-73000000D02*
X147460000Y-71540000D01*
D16*
G36*
X161692819Y-52500998D02*
G01*
X162359257Y-52702208D01*
X162973911Y-53029026D01*
X163513384Y-53469009D01*
X163957123Y-54005398D01*
X164288225Y-54617760D01*
X164494079Y-55282768D01*
X164568982Y-55995414D01*
X164569000Y-56000634D01*
X164569001Y-77978911D01*
X164499002Y-78692819D01*
X164297793Y-79359255D01*
X163970975Y-79973911D01*
X163530989Y-80513386D01*
X162994602Y-80957123D01*
X162382245Y-81288223D01*
X161717232Y-81494079D01*
X161004586Y-81568982D01*
X160999367Y-81569000D01*
X134021079Y-81569000D01*
X133307181Y-81499002D01*
X132640745Y-81297793D01*
X132026089Y-80970975D01*
X131486614Y-80530989D01*
X131042877Y-79994602D01*
X130711777Y-79382245D01*
X130505921Y-78717232D01*
X130431018Y-78004586D01*
X130431000Y-77999367D01*
X130431000Y-74062093D01*
X130578645Y-74195178D01*
X130828748Y-74344157D01*
X131103109Y-74441481D01*
X131333000Y-74320814D01*
X131333000Y-73127000D01*
X131313000Y-73127000D01*
X131313000Y-72873000D01*
X131333000Y-72873000D01*
X131333000Y-72853000D01*
X131587000Y-72853000D01*
X131587000Y-72873000D01*
X131607000Y-72873000D01*
X131607000Y-73127000D01*
X131587000Y-73127000D01*
X131587000Y-74320814D01*
X131816891Y-74441481D01*
X132091252Y-74344157D01*
X132341355Y-74195178D01*
X132557588Y-74000269D01*
X132731641Y-73766920D01*
X132767157Y-73692355D01*
X132767157Y-73850000D01*
X132774513Y-73924689D01*
X132796299Y-73996508D01*
X132831678Y-74062696D01*
X132879289Y-74120711D01*
X132937304Y-74168322D01*
X133003492Y-74203701D01*
X133075311Y-74225487D01*
X133150000Y-74232843D01*
X134850000Y-74232843D01*
X134924689Y-74225487D01*
X134996508Y-74203701D01*
X135062696Y-74168322D01*
X135120711Y-74120711D01*
X135168322Y-74062696D01*
X135203701Y-73996508D01*
X135225487Y-73924689D01*
X135232843Y-73850000D01*
X135232843Y-73848434D01*
X136724628Y-75340220D01*
X136740473Y-75359527D01*
X136817521Y-75422759D01*
X136905425Y-75469745D01*
X137000806Y-75498678D01*
X137010694Y-75499652D01*
X137075146Y-75506000D01*
X137075153Y-75506000D01*
X137099999Y-75508447D01*
X137124845Y-75506000D01*
X139975154Y-75506000D01*
X140000000Y-75508447D01*
X140024846Y-75506000D01*
X140024854Y-75506000D01*
X140099193Y-75498678D01*
X140194575Y-75469745D01*
X140282479Y-75422759D01*
X140359527Y-75359527D01*
X140375376Y-75340215D01*
X141482749Y-74232843D01*
X142850000Y-74232843D01*
X142924689Y-74225487D01*
X142996508Y-74203701D01*
X143062696Y-74168322D01*
X143120711Y-74120711D01*
X143168322Y-74062696D01*
X143203701Y-73996508D01*
X143225487Y-73924689D01*
X143232843Y-73850000D01*
X143232843Y-73779026D01*
X157505042Y-73779026D01*
X157550778Y-73929814D01*
X157677316Y-74194944D01*
X157853146Y-74430293D01*
X158071512Y-74626817D01*
X158177770Y-74690000D01*
X158071512Y-74753183D01*
X157853146Y-74949707D01*
X157677316Y-75185056D01*
X157550778Y-75450186D01*
X157505042Y-75600974D01*
X157626183Y-75833000D01*
X158833000Y-75833000D01*
X158833000Y-73547000D01*
X157626183Y-73547000D01*
X157505042Y-73779026D01*
X143232843Y-73779026D01*
X143232843Y-73506000D01*
X145975154Y-73506000D01*
X146000000Y-73508447D01*
X146024846Y-73506000D01*
X146024854Y-73506000D01*
X146099193Y-73498678D01*
X146194575Y-73469745D01*
X146282479Y-73422759D01*
X146359527Y-73359527D01*
X146375376Y-73340215D01*
X147669592Y-72046000D01*
X147767157Y-72046000D01*
X147767157Y-72390000D01*
X147774513Y-72464689D01*
X147796299Y-72536508D01*
X147831678Y-72602696D01*
X147879289Y-72660711D01*
X147937304Y-72708322D01*
X148003492Y-72743701D01*
X148075311Y-72765487D01*
X148150000Y-72772843D01*
X149850000Y-72772843D01*
X149924689Y-72765487D01*
X149996508Y-72743701D01*
X150062696Y-72708322D01*
X150120711Y-72660711D01*
X150168322Y-72602696D01*
X150203701Y-72536508D01*
X150225487Y-72464689D01*
X150232843Y-72390000D01*
X150232843Y-70806000D01*
X155340409Y-70806000D01*
X157024628Y-72490220D01*
X157040473Y-72509527D01*
X157117521Y-72572759D01*
X157173529Y-72602696D01*
X157205425Y-72619745D01*
X157300806Y-72648678D01*
X157310694Y-72649652D01*
X157375146Y-72656000D01*
X157375153Y-72656000D01*
X157399999Y-72658447D01*
X157424845Y-72656000D01*
X157672093Y-72656000D01*
X157550778Y-72910186D01*
X157505042Y-73060974D01*
X157626183Y-73293000D01*
X158833000Y-73293000D01*
X158833000Y-73273000D01*
X159087000Y-73273000D01*
X159087000Y-73293000D01*
X159107000Y-73293000D01*
X159107000Y-73547000D01*
X159087000Y-73547000D01*
X159087000Y-75833000D01*
X159107000Y-75833000D01*
X159107000Y-76087000D01*
X159087000Y-76087000D01*
X159087000Y-76107000D01*
X158833000Y-76107000D01*
X158833000Y-76087000D01*
X157626183Y-76087000D01*
X157505042Y-76319026D01*
X157550778Y-76469814D01*
X157677316Y-76734944D01*
X157853146Y-76970293D01*
X158071512Y-77166817D01*
X158324022Y-77316964D01*
X158453336Y-77362722D01*
X158370461Y-77397050D01*
X158166614Y-77533256D01*
X157993256Y-77706614D01*
X157857050Y-77910461D01*
X157763229Y-78136964D01*
X157715400Y-78377418D01*
X157715400Y-78622582D01*
X157763229Y-78863036D01*
X157857050Y-79089539D01*
X157993256Y-79293386D01*
X158166614Y-79466744D01*
X158370461Y-79602950D01*
X158596964Y-79696771D01*
X158837418Y-79744600D01*
X159082582Y-79744600D01*
X159323036Y-79696771D01*
X159549539Y-79602950D01*
X159753386Y-79466744D01*
X159926744Y-79293386D01*
X160062950Y-79089539D01*
X160156771Y-78863036D01*
X160204600Y-78622582D01*
X160204600Y-78377418D01*
X160156771Y-78136964D01*
X160062950Y-77910461D01*
X159926744Y-77706614D01*
X159856530Y-77636400D01*
X160253557Y-77636400D01*
X160253557Y-79363600D01*
X160260913Y-79438289D01*
X160282699Y-79510108D01*
X160318078Y-79576296D01*
X160365689Y-79634311D01*
X160423704Y-79681922D01*
X160489892Y-79717301D01*
X160561711Y-79739087D01*
X160636400Y-79746443D01*
X162363600Y-79746443D01*
X162438289Y-79739087D01*
X162510108Y-79717301D01*
X162576296Y-79681922D01*
X162634311Y-79634311D01*
X162681922Y-79576296D01*
X162717301Y-79510108D01*
X162739087Y-79438289D01*
X162746443Y-79363600D01*
X162746443Y-77636400D01*
X162739087Y-77561711D01*
X162717301Y-77489892D01*
X162681922Y-77423704D01*
X162634311Y-77365689D01*
X162576296Y-77318078D01*
X162510108Y-77282699D01*
X162438289Y-77260913D01*
X162363600Y-77253557D01*
X160636400Y-77253557D01*
X160561711Y-77260913D01*
X160489892Y-77282699D01*
X160423704Y-77318078D01*
X160365689Y-77365689D01*
X160318078Y-77423704D01*
X160282699Y-77489892D01*
X160260913Y-77561711D01*
X160253557Y-77636400D01*
X159856530Y-77636400D01*
X159753386Y-77533256D01*
X159549539Y-77397050D01*
X159466664Y-77362722D01*
X159595978Y-77316964D01*
X159848488Y-77166817D01*
X160066854Y-76970293D01*
X160242684Y-76734944D01*
X160366441Y-76475642D01*
X160397050Y-76549539D01*
X160533256Y-76753386D01*
X160706614Y-76926744D01*
X160910461Y-77062950D01*
X161136964Y-77156771D01*
X161377418Y-77204600D01*
X161622582Y-77204600D01*
X161863036Y-77156771D01*
X162089539Y-77062950D01*
X162293386Y-76926744D01*
X162466744Y-76753386D01*
X162602950Y-76549539D01*
X162696771Y-76323036D01*
X162744600Y-76082582D01*
X162744600Y-75837418D01*
X162696771Y-75596964D01*
X162602950Y-75370461D01*
X162466744Y-75166614D01*
X162293386Y-74993256D01*
X162089539Y-74857050D01*
X161863036Y-74763229D01*
X161622582Y-74715400D01*
X161377418Y-74715400D01*
X161136964Y-74763229D01*
X160910461Y-74857050D01*
X160706614Y-74993256D01*
X160533256Y-75166614D01*
X160397050Y-75370461D01*
X160366441Y-75444358D01*
X160242684Y-75185056D01*
X160066854Y-74949707D01*
X159848488Y-74753183D01*
X159742230Y-74690000D01*
X159848488Y-74626817D01*
X160066854Y-74430293D01*
X160242684Y-74194944D01*
X160366441Y-73935642D01*
X160397050Y-74009539D01*
X160533256Y-74213386D01*
X160706614Y-74386744D01*
X160910461Y-74522950D01*
X161136964Y-74616771D01*
X161377418Y-74664600D01*
X161622582Y-74664600D01*
X161863036Y-74616771D01*
X162089539Y-74522950D01*
X162293386Y-74386744D01*
X162466744Y-74213386D01*
X162602950Y-74009539D01*
X162696771Y-73783036D01*
X162744600Y-73542582D01*
X162744600Y-73297418D01*
X162696771Y-73056964D01*
X162602950Y-72830461D01*
X162466744Y-72626614D01*
X162293386Y-72453256D01*
X162089539Y-72317050D01*
X161863036Y-72223229D01*
X161622582Y-72175400D01*
X161377418Y-72175400D01*
X161136964Y-72223229D01*
X161053424Y-72257833D01*
X160605376Y-71809785D01*
X160589527Y-71790473D01*
X160512479Y-71727241D01*
X160424575Y-71680255D01*
X160329193Y-71651322D01*
X160254854Y-71644000D01*
X160254846Y-71644000D01*
X160248219Y-71643347D01*
X160366441Y-71395642D01*
X160397050Y-71469539D01*
X160533256Y-71673386D01*
X160706614Y-71846744D01*
X160910461Y-71982950D01*
X161136964Y-72076771D01*
X161377418Y-72124600D01*
X161622582Y-72124600D01*
X161863036Y-72076771D01*
X162089539Y-71982950D01*
X162293386Y-71846744D01*
X162466744Y-71673386D01*
X162602950Y-71469539D01*
X162696771Y-71243036D01*
X162744600Y-71002582D01*
X162744600Y-70757418D01*
X162696771Y-70516964D01*
X162602950Y-70290461D01*
X162466744Y-70086614D01*
X162293386Y-69913256D01*
X162089539Y-69777050D01*
X161863036Y-69683229D01*
X161622582Y-69635400D01*
X161377418Y-69635400D01*
X161136964Y-69683229D01*
X161053424Y-69717833D01*
X160595376Y-69259785D01*
X160579527Y-69240473D01*
X160502479Y-69177241D01*
X160414575Y-69130255D01*
X160319193Y-69101322D01*
X160252329Y-69094736D01*
X160366441Y-68855642D01*
X160397050Y-68929539D01*
X160533256Y-69133386D01*
X160706614Y-69306744D01*
X160910461Y-69442950D01*
X161136964Y-69536771D01*
X161377418Y-69584600D01*
X161622582Y-69584600D01*
X161863036Y-69536771D01*
X162089539Y-69442950D01*
X162293386Y-69306744D01*
X162466744Y-69133386D01*
X162602950Y-68929539D01*
X162696771Y-68703036D01*
X162744600Y-68462582D01*
X162744600Y-68217418D01*
X162696771Y-67976964D01*
X162602950Y-67750461D01*
X162466744Y-67546614D01*
X162293386Y-67373256D01*
X162089539Y-67237050D01*
X161863036Y-67143229D01*
X161622582Y-67095400D01*
X161377418Y-67095400D01*
X161136964Y-67143229D01*
X161053424Y-67177833D01*
X160585376Y-66709785D01*
X160569527Y-66690473D01*
X160492479Y-66627241D01*
X160404575Y-66580255D01*
X160309193Y-66551322D01*
X160256438Y-66546126D01*
X160366441Y-66315642D01*
X160397050Y-66389539D01*
X160533256Y-66593386D01*
X160706614Y-66766744D01*
X160910461Y-66902950D01*
X161136964Y-66996771D01*
X161377418Y-67044600D01*
X161622582Y-67044600D01*
X161863036Y-66996771D01*
X162089539Y-66902950D01*
X162293386Y-66766744D01*
X162466744Y-66593386D01*
X162602950Y-66389539D01*
X162696771Y-66163036D01*
X162744600Y-65922582D01*
X162744600Y-65677418D01*
X162696771Y-65436964D01*
X162602950Y-65210461D01*
X162466744Y-65006614D01*
X162293386Y-64833256D01*
X162089539Y-64697050D01*
X161863036Y-64603229D01*
X161622582Y-64555400D01*
X161377418Y-64555400D01*
X161136964Y-64603229D01*
X160910461Y-64697050D01*
X160706614Y-64833256D01*
X160533256Y-65006614D01*
X160397050Y-65210461D01*
X160366441Y-65284358D01*
X160242684Y-65025056D01*
X160066854Y-64789707D01*
X159848488Y-64593183D01*
X159742230Y-64530000D01*
X159848488Y-64466817D01*
X160066854Y-64270293D01*
X160242684Y-64034944D01*
X160366441Y-63775642D01*
X160397050Y-63849539D01*
X160533256Y-64053386D01*
X160706614Y-64226744D01*
X160910461Y-64362950D01*
X161136964Y-64456771D01*
X161377418Y-64504600D01*
X161622582Y-64504600D01*
X161863036Y-64456771D01*
X162089539Y-64362950D01*
X162293386Y-64226744D01*
X162466744Y-64053386D01*
X162602950Y-63849539D01*
X162696771Y-63623036D01*
X162744600Y-63382582D01*
X162744600Y-63137418D01*
X162696771Y-62896964D01*
X162602950Y-62670461D01*
X162466744Y-62466614D01*
X162293386Y-62293256D01*
X162089539Y-62157050D01*
X161863036Y-62063229D01*
X161622582Y-62015400D01*
X161377418Y-62015400D01*
X161136964Y-62063229D01*
X160910461Y-62157050D01*
X160706614Y-62293256D01*
X160533256Y-62466614D01*
X160397050Y-62670461D01*
X160366441Y-62744358D01*
X160242684Y-62485056D01*
X160066854Y-62249707D01*
X159848488Y-62053183D01*
X159742230Y-61990000D01*
X159848488Y-61926817D01*
X160066854Y-61730293D01*
X160242684Y-61494944D01*
X160366441Y-61235642D01*
X160397050Y-61309539D01*
X160533256Y-61513386D01*
X160706614Y-61686744D01*
X160910461Y-61822950D01*
X161136964Y-61916771D01*
X161377418Y-61964600D01*
X161622582Y-61964600D01*
X161863036Y-61916771D01*
X162089539Y-61822950D01*
X162293386Y-61686744D01*
X162466744Y-61513386D01*
X162602950Y-61309539D01*
X162696771Y-61083036D01*
X162744600Y-60842582D01*
X162744600Y-60597418D01*
X162696771Y-60356964D01*
X162602950Y-60130461D01*
X162466744Y-59926614D01*
X162293386Y-59753256D01*
X162089539Y-59617050D01*
X161863036Y-59523229D01*
X161622582Y-59475400D01*
X161377418Y-59475400D01*
X161136964Y-59523229D01*
X160910461Y-59617050D01*
X160706614Y-59753256D01*
X160533256Y-59926614D01*
X160397050Y-60130461D01*
X160366441Y-60204358D01*
X160242684Y-59945056D01*
X160066854Y-59709707D01*
X159848488Y-59513183D01*
X159742230Y-59450000D01*
X159848488Y-59386817D01*
X160066854Y-59190293D01*
X160242684Y-58954944D01*
X160366441Y-58695642D01*
X160397050Y-58769539D01*
X160533256Y-58973386D01*
X160706614Y-59146744D01*
X160910461Y-59282950D01*
X161136964Y-59376771D01*
X161377418Y-59424600D01*
X161622582Y-59424600D01*
X161863036Y-59376771D01*
X162089539Y-59282950D01*
X162293386Y-59146744D01*
X162466744Y-58973386D01*
X162602950Y-58769539D01*
X162696771Y-58543036D01*
X162744600Y-58302582D01*
X162744600Y-58057418D01*
X162696771Y-57816964D01*
X162602950Y-57590461D01*
X162466744Y-57386614D01*
X162293386Y-57213256D01*
X162089539Y-57077050D01*
X161863036Y-56983229D01*
X161622582Y-56935400D01*
X161377418Y-56935400D01*
X161136964Y-56983229D01*
X160910461Y-57077050D01*
X160706614Y-57213256D01*
X160533256Y-57386614D01*
X160397050Y-57590461D01*
X160366441Y-57664358D01*
X160242684Y-57405056D01*
X160066854Y-57169707D01*
X159848488Y-56973183D01*
X159742230Y-56910000D01*
X159848488Y-56846817D01*
X160066854Y-56650293D01*
X160242684Y-56414944D01*
X160366441Y-56155642D01*
X160397050Y-56229539D01*
X160533256Y-56433386D01*
X160706614Y-56606744D01*
X160910461Y-56742950D01*
X161136964Y-56836771D01*
X161377418Y-56884600D01*
X161622582Y-56884600D01*
X161863036Y-56836771D01*
X162089539Y-56742950D01*
X162293386Y-56606744D01*
X162466744Y-56433386D01*
X162602950Y-56229539D01*
X162696771Y-56003036D01*
X162744600Y-55762582D01*
X162744600Y-55517418D01*
X162696771Y-55276964D01*
X162602950Y-55050461D01*
X162466744Y-54846614D01*
X162293386Y-54673256D01*
X162089539Y-54537050D01*
X161863036Y-54443229D01*
X161622582Y-54395400D01*
X161377418Y-54395400D01*
X161136964Y-54443229D01*
X160910461Y-54537050D01*
X160706614Y-54673256D01*
X160533256Y-54846614D01*
X160397050Y-55050461D01*
X160366441Y-55124358D01*
X160242684Y-54865056D01*
X160066854Y-54629707D01*
X159848488Y-54433183D01*
X159595978Y-54283036D01*
X159319027Y-54185037D01*
X159087000Y-54305536D01*
X159087000Y-55513000D01*
X159107000Y-55513000D01*
X159107000Y-55767000D01*
X159087000Y-55767000D01*
X159087000Y-58053000D01*
X159107000Y-58053000D01*
X159107000Y-58307000D01*
X159087000Y-58307000D01*
X159087000Y-60593000D01*
X159107000Y-60593000D01*
X159107000Y-60847000D01*
X159087000Y-60847000D01*
X159087000Y-63133000D01*
X159107000Y-63133000D01*
X159107000Y-63387000D01*
X159087000Y-63387000D01*
X159087000Y-65673000D01*
X159107000Y-65673000D01*
X159107000Y-65927000D01*
X159087000Y-65927000D01*
X159087000Y-65947000D01*
X158833000Y-65947000D01*
X158833000Y-65927000D01*
X157626183Y-65927000D01*
X157505042Y-66159026D01*
X157550778Y-66309814D01*
X157662547Y-66544000D01*
X152339592Y-66544000D01*
X150151758Y-64356167D01*
X150183693Y-64279069D01*
X150231000Y-64041243D01*
X150231000Y-63798757D01*
X150195249Y-63619026D01*
X157505042Y-63619026D01*
X157550778Y-63769814D01*
X157677316Y-64034944D01*
X157853146Y-64270293D01*
X158071512Y-64466817D01*
X158177770Y-64530000D01*
X158071512Y-64593183D01*
X157853146Y-64789707D01*
X157677316Y-65025056D01*
X157550778Y-65290186D01*
X157505042Y-65440974D01*
X157626183Y-65673000D01*
X158833000Y-65673000D01*
X158833000Y-63387000D01*
X157626183Y-63387000D01*
X157505042Y-63619026D01*
X150195249Y-63619026D01*
X150183693Y-63560931D01*
X150090898Y-63336903D01*
X149956180Y-63135283D01*
X149784717Y-62963820D01*
X149583097Y-62829102D01*
X149359069Y-62736307D01*
X149121243Y-62689000D01*
X148878757Y-62689000D01*
X148640931Y-62736307D01*
X148563833Y-62768242D01*
X148295376Y-62499785D01*
X148279527Y-62480473D01*
X148202479Y-62417241D01*
X148114575Y-62370255D01*
X148019193Y-62341322D01*
X147944854Y-62334000D01*
X147944846Y-62334000D01*
X147920000Y-62331553D01*
X147895154Y-62334000D01*
X143122832Y-62334000D01*
X143090898Y-62256903D01*
X142956180Y-62055283D01*
X142784717Y-61883820D01*
X142583097Y-61749102D01*
X142359069Y-61656307D01*
X142121243Y-61609000D01*
X141878757Y-61609000D01*
X141640931Y-61656307D01*
X141416903Y-61749102D01*
X141215283Y-61883820D01*
X141043820Y-62055283D01*
X140909102Y-62256903D01*
X140865091Y-62363154D01*
X140856825Y-62335901D01*
X140731641Y-62073080D01*
X140557588Y-61839731D01*
X140341355Y-61644822D01*
X140091252Y-61495843D01*
X139816891Y-61398519D01*
X139587000Y-61519186D01*
X139587000Y-62713000D01*
X139607000Y-62713000D01*
X139607000Y-62967000D01*
X139587000Y-62967000D01*
X139587000Y-62987000D01*
X139333000Y-62987000D01*
X139333000Y-62967000D01*
X138139845Y-62967000D01*
X138018524Y-63196890D01*
X138063175Y-63344099D01*
X138182205Y-63594000D01*
X134976704Y-63594000D01*
X135090898Y-63423097D01*
X135183693Y-63199069D01*
X135231000Y-62961243D01*
X135231000Y-62718757D01*
X135184127Y-62483110D01*
X138018524Y-62483110D01*
X138139845Y-62713000D01*
X139333000Y-62713000D01*
X139333000Y-61519186D01*
X139103109Y-61398519D01*
X138828748Y-61495843D01*
X138578645Y-61644822D01*
X138362412Y-61839731D01*
X138188359Y-62073080D01*
X138063175Y-62335901D01*
X138018524Y-62483110D01*
X135184127Y-62483110D01*
X135183693Y-62480931D01*
X135151758Y-62403833D01*
X136476565Y-61079026D01*
X157505042Y-61079026D01*
X157550778Y-61229814D01*
X157677316Y-61494944D01*
X157853146Y-61730293D01*
X158071512Y-61926817D01*
X158177770Y-61990000D01*
X158071512Y-62053183D01*
X157853146Y-62249707D01*
X157677316Y-62485056D01*
X157550778Y-62750186D01*
X157505042Y-62900974D01*
X157626183Y-63133000D01*
X158833000Y-63133000D01*
X158833000Y-60847000D01*
X157626183Y-60847000D01*
X157505042Y-61079026D01*
X136476565Y-61079026D01*
X137849592Y-59706000D01*
X144035154Y-59706000D01*
X144060000Y-59708447D01*
X144084846Y-59706000D01*
X144084854Y-59706000D01*
X144159193Y-59698678D01*
X144254575Y-59669745D01*
X144342479Y-59622759D01*
X144419527Y-59559527D01*
X144435376Y-59540215D01*
X145436565Y-58539026D01*
X157505042Y-58539026D01*
X157550778Y-58689814D01*
X157677316Y-58954944D01*
X157853146Y-59190293D01*
X158071512Y-59386817D01*
X158177770Y-59450000D01*
X158071512Y-59513183D01*
X157853146Y-59709707D01*
X157677316Y-59945056D01*
X157550778Y-60210186D01*
X157505042Y-60360974D01*
X157626183Y-60593000D01*
X158833000Y-60593000D01*
X158833000Y-58307000D01*
X157626183Y-58307000D01*
X157505042Y-58539026D01*
X145436565Y-58539026D01*
X147976565Y-55999026D01*
X157505042Y-55999026D01*
X157550778Y-56149814D01*
X157677316Y-56414944D01*
X157853146Y-56650293D01*
X158071512Y-56846817D01*
X158177770Y-56910000D01*
X158071512Y-56973183D01*
X157853146Y-57169707D01*
X157677316Y-57405056D01*
X157550778Y-57670186D01*
X157505042Y-57820974D01*
X157626183Y-58053000D01*
X158833000Y-58053000D01*
X158833000Y-55767000D01*
X157626183Y-55767000D01*
X157505042Y-55999026D01*
X147976565Y-55999026D01*
X148694617Y-55280974D01*
X157505042Y-55280974D01*
X157626183Y-55513000D01*
X158833000Y-55513000D01*
X158833000Y-54305536D01*
X158600973Y-54185037D01*
X158324022Y-54283036D01*
X158071512Y-54433183D01*
X157853146Y-54629707D01*
X157677316Y-54865056D01*
X157550778Y-55130186D01*
X157505042Y-55280974D01*
X148694617Y-55280974D01*
X149223834Y-54751758D01*
X149300931Y-54783693D01*
X149538757Y-54831000D01*
X149781243Y-54831000D01*
X150019069Y-54783693D01*
X150243097Y-54690898D01*
X150444717Y-54556180D01*
X150616180Y-54384717D01*
X150713073Y-54239706D01*
X150711928Y-54450000D01*
X150724188Y-54574482D01*
X150760498Y-54694180D01*
X150819463Y-54804494D01*
X150898815Y-54901185D01*
X150995506Y-54980537D01*
X151105820Y-55039502D01*
X151225518Y-55075812D01*
X151350000Y-55088072D01*
X151914250Y-55085000D01*
X152073000Y-54926250D01*
X152073000Y-53727000D01*
X152327000Y-53727000D01*
X152327000Y-54926250D01*
X152485750Y-55085000D01*
X153050000Y-55088072D01*
X153174482Y-55075812D01*
X153294180Y-55039502D01*
X153404494Y-54980537D01*
X153501185Y-54901185D01*
X153580537Y-54804494D01*
X153639502Y-54694180D01*
X153675812Y-54574482D01*
X153688072Y-54450000D01*
X153685000Y-53885750D01*
X153526250Y-53727000D01*
X152327000Y-53727000D01*
X152073000Y-53727000D01*
X152053000Y-53727000D01*
X152053000Y-53473000D01*
X152073000Y-53473000D01*
X152073000Y-53453000D01*
X152327000Y-53453000D01*
X152327000Y-53473000D01*
X153526250Y-53473000D01*
X153685000Y-53314250D01*
X153688072Y-52750000D01*
X153675812Y-52625518D01*
X153639502Y-52505820D01*
X153599509Y-52431000D01*
X160978921Y-52431000D01*
X161692819Y-52500998D01*
G37*
X161692819Y-52500998D02*
X162359257Y-52702208D01*
X162973911Y-53029026D01*
X163513384Y-53469009D01*
X163957123Y-54005398D01*
X164288225Y-54617760D01*
X164494079Y-55282768D01*
X164568982Y-55995414D01*
X164569000Y-56000634D01*
X164569001Y-77978911D01*
X164499002Y-78692819D01*
X164297793Y-79359255D01*
X163970975Y-79973911D01*
X163530989Y-80513386D01*
X162994602Y-80957123D01*
X162382245Y-81288223D01*
X161717232Y-81494079D01*
X161004586Y-81568982D01*
X160999367Y-81569000D01*
X134021079Y-81569000D01*
X133307181Y-81499002D01*
X132640745Y-81297793D01*
X132026089Y-80970975D01*
X131486614Y-80530989D01*
X131042877Y-79994602D01*
X130711777Y-79382245D01*
X130505921Y-78717232D01*
X130431018Y-78004586D01*
X130431000Y-77999367D01*
X130431000Y-74062093D01*
X130578645Y-74195178D01*
X130828748Y-74344157D01*
X131103109Y-74441481D01*
X131333000Y-74320814D01*
X131333000Y-73127000D01*
X131313000Y-73127000D01*
X131313000Y-72873000D01*
X131333000Y-72873000D01*
X131333000Y-72853000D01*
X131587000Y-72853000D01*
X131587000Y-72873000D01*
X131607000Y-72873000D01*
X131607000Y-73127000D01*
X131587000Y-73127000D01*
X131587000Y-74320814D01*
X131816891Y-74441481D01*
X132091252Y-74344157D01*
X132341355Y-74195178D01*
X132557588Y-74000269D01*
X132731641Y-73766920D01*
X132767157Y-73692355D01*
X132767157Y-73850000D01*
X132774513Y-73924689D01*
X132796299Y-73996508D01*
X132831678Y-74062696D01*
X132879289Y-74120711D01*
X132937304Y-74168322D01*
X133003492Y-74203701D01*
X133075311Y-74225487D01*
X133150000Y-74232843D01*
X134850000Y-74232843D01*
X134924689Y-74225487D01*
X134996508Y-74203701D01*
X135062696Y-74168322D01*
X135120711Y-74120711D01*
X135168322Y-74062696D01*
X135203701Y-73996508D01*
X135225487Y-73924689D01*
X135232843Y-73850000D01*
X135232843Y-73848434D01*
X136724628Y-75340220D01*
X136740473Y-75359527D01*
X136817521Y-75422759D01*
X136905425Y-75469745D01*
X137000806Y-75498678D01*
X137010694Y-75499652D01*
X137075146Y-75506000D01*
X137075153Y-75506000D01*
X137099999Y-75508447D01*
X137124845Y-75506000D01*
X139975154Y-75506000D01*
X140000000Y-75508447D01*
X140024846Y-75506000D01*
X140024854Y-75506000D01*
X140099193Y-75498678D01*
X140194575Y-75469745D01*
X140282479Y-75422759D01*
X140359527Y-75359527D01*
X140375376Y-75340215D01*
X141482749Y-74232843D01*
X142850000Y-74232843D01*
X142924689Y-74225487D01*
X142996508Y-74203701D01*
X143062696Y-74168322D01*
X143120711Y-74120711D01*
X143168322Y-74062696D01*
X143203701Y-73996508D01*
X143225487Y-73924689D01*
X143232843Y-73850000D01*
X143232843Y-73779026D01*
X157505042Y-73779026D01*
X157550778Y-73929814D01*
X157677316Y-74194944D01*
X157853146Y-74430293D01*
X158071512Y-74626817D01*
X158177770Y-74690000D01*
X158071512Y-74753183D01*
X157853146Y-74949707D01*
X157677316Y-75185056D01*
X157550778Y-75450186D01*
X157505042Y-75600974D01*
X157626183Y-75833000D01*
X158833000Y-75833000D01*
X158833000Y-73547000D01*
X157626183Y-73547000D01*
X157505042Y-73779026D01*
X143232843Y-73779026D01*
X143232843Y-73506000D01*
X145975154Y-73506000D01*
X146000000Y-73508447D01*
X146024846Y-73506000D01*
X146024854Y-73506000D01*
X146099193Y-73498678D01*
X146194575Y-73469745D01*
X146282479Y-73422759D01*
X146359527Y-73359527D01*
X146375376Y-73340215D01*
X147669592Y-72046000D01*
X147767157Y-72046000D01*
X147767157Y-72390000D01*
X147774513Y-72464689D01*
X147796299Y-72536508D01*
X147831678Y-72602696D01*
X147879289Y-72660711D01*
X147937304Y-72708322D01*
X148003492Y-72743701D01*
X148075311Y-72765487D01*
X148150000Y-72772843D01*
X149850000Y-72772843D01*
X149924689Y-72765487D01*
X149996508Y-72743701D01*
X150062696Y-72708322D01*
X150120711Y-72660711D01*
X150168322Y-72602696D01*
X150203701Y-72536508D01*
X150225487Y-72464689D01*
X150232843Y-72390000D01*
X150232843Y-70806000D01*
X155340409Y-70806000D01*
X157024628Y-72490220D01*
X157040473Y-72509527D01*
X157117521Y-72572759D01*
X157173529Y-72602696D01*
X157205425Y-72619745D01*
X157300806Y-72648678D01*
X157310694Y-72649652D01*
X157375146Y-72656000D01*
X157375153Y-72656000D01*
X157399999Y-72658447D01*
X157424845Y-72656000D01*
X157672093Y-72656000D01*
X157550778Y-72910186D01*
X157505042Y-73060974D01*
X157626183Y-73293000D01*
X158833000Y-73293000D01*
X158833000Y-73273000D01*
X159087000Y-73273000D01*
X159087000Y-73293000D01*
X159107000Y-73293000D01*
X159107000Y-73547000D01*
X159087000Y-73547000D01*
X159087000Y-75833000D01*
X159107000Y-75833000D01*
X159107000Y-76087000D01*
X159087000Y-76087000D01*
X159087000Y-76107000D01*
X158833000Y-76107000D01*
X158833000Y-76087000D01*
X157626183Y-76087000D01*
X157505042Y-76319026D01*
X157550778Y-76469814D01*
X157677316Y-76734944D01*
X157853146Y-76970293D01*
X158071512Y-77166817D01*
X158324022Y-77316964D01*
X158453336Y-77362722D01*
X158370461Y-77397050D01*
X158166614Y-77533256D01*
X157993256Y-77706614D01*
X157857050Y-77910461D01*
X157763229Y-78136964D01*
X157715400Y-78377418D01*
X157715400Y-78622582D01*
X157763229Y-78863036D01*
X157857050Y-79089539D01*
X157993256Y-79293386D01*
X158166614Y-79466744D01*
X158370461Y-79602950D01*
X158596964Y-79696771D01*
X158837418Y-79744600D01*
X159082582Y-79744600D01*
X159323036Y-79696771D01*
X159549539Y-79602950D01*
X159753386Y-79466744D01*
X159926744Y-79293386D01*
X160062950Y-79089539D01*
X160156771Y-78863036D01*
X160204600Y-78622582D01*
X160204600Y-78377418D01*
X160156771Y-78136964D01*
X160062950Y-77910461D01*
X159926744Y-77706614D01*
X159856530Y-77636400D01*
X160253557Y-77636400D01*
X160253557Y-79363600D01*
X160260913Y-79438289D01*
X160282699Y-79510108D01*
X160318078Y-79576296D01*
X160365689Y-79634311D01*
X160423704Y-79681922D01*
X160489892Y-79717301D01*
X160561711Y-79739087D01*
X160636400Y-79746443D01*
X162363600Y-79746443D01*
X162438289Y-79739087D01*
X162510108Y-79717301D01*
X162576296Y-79681922D01*
X162634311Y-79634311D01*
X162681922Y-79576296D01*
X162717301Y-79510108D01*
X162739087Y-79438289D01*
X162746443Y-79363600D01*
X162746443Y-77636400D01*
X162739087Y-77561711D01*
X162717301Y-77489892D01*
X162681922Y-77423704D01*
X162634311Y-77365689D01*
X162576296Y-77318078D01*
X162510108Y-77282699D01*
X162438289Y-77260913D01*
X162363600Y-77253557D01*
X160636400Y-77253557D01*
X160561711Y-77260913D01*
X160489892Y-77282699D01*
X160423704Y-77318078D01*
X160365689Y-77365689D01*
X160318078Y-77423704D01*
X160282699Y-77489892D01*
X160260913Y-77561711D01*
X160253557Y-77636400D01*
X159856530Y-77636400D01*
X159753386Y-77533256D01*
X159549539Y-77397050D01*
X159466664Y-77362722D01*
X159595978Y-77316964D01*
X159848488Y-77166817D01*
X160066854Y-76970293D01*
X160242684Y-76734944D01*
X160366441Y-76475642D01*
X160397050Y-76549539D01*
X160533256Y-76753386D01*
X160706614Y-76926744D01*
X160910461Y-77062950D01*
X161136964Y-77156771D01*
X161377418Y-77204600D01*
X161622582Y-77204600D01*
X161863036Y-77156771D01*
X162089539Y-77062950D01*
X162293386Y-76926744D01*
X162466744Y-76753386D01*
X162602950Y-76549539D01*
X162696771Y-76323036D01*
X162744600Y-76082582D01*
X162744600Y-75837418D01*
X162696771Y-75596964D01*
X162602950Y-75370461D01*
X162466744Y-75166614D01*
X162293386Y-74993256D01*
X162089539Y-74857050D01*
X161863036Y-74763229D01*
X161622582Y-74715400D01*
X161377418Y-74715400D01*
X161136964Y-74763229D01*
X160910461Y-74857050D01*
X160706614Y-74993256D01*
X160533256Y-75166614D01*
X160397050Y-75370461D01*
X160366441Y-75444358D01*
X160242684Y-75185056D01*
X160066854Y-74949707D01*
X159848488Y-74753183D01*
X159742230Y-74690000D01*
X159848488Y-74626817D01*
X160066854Y-74430293D01*
X160242684Y-74194944D01*
X160366441Y-73935642D01*
X160397050Y-74009539D01*
X160533256Y-74213386D01*
X160706614Y-74386744D01*
X160910461Y-74522950D01*
X161136964Y-74616771D01*
X161377418Y-74664600D01*
X161622582Y-74664600D01*
X161863036Y-74616771D01*
X162089539Y-74522950D01*
X162293386Y-74386744D01*
X162466744Y-74213386D01*
X162602950Y-74009539D01*
X162696771Y-73783036D01*
X162744600Y-73542582D01*
X162744600Y-73297418D01*
X162696771Y-73056964D01*
X162602950Y-72830461D01*
X162466744Y-72626614D01*
X162293386Y-72453256D01*
X162089539Y-72317050D01*
X161863036Y-72223229D01*
X161622582Y-72175400D01*
X161377418Y-72175400D01*
X161136964Y-72223229D01*
X161053424Y-72257833D01*
X160605376Y-71809785D01*
X160589527Y-71790473D01*
X160512479Y-71727241D01*
X160424575Y-71680255D01*
X160329193Y-71651322D01*
X160254854Y-71644000D01*
X160254846Y-71644000D01*
X160248219Y-71643347D01*
X160366441Y-71395642D01*
X160397050Y-71469539D01*
X160533256Y-71673386D01*
X160706614Y-71846744D01*
X160910461Y-71982950D01*
X161136964Y-72076771D01*
X161377418Y-72124600D01*
X161622582Y-72124600D01*
X161863036Y-72076771D01*
X162089539Y-71982950D01*
X162293386Y-71846744D01*
X162466744Y-71673386D01*
X162602950Y-71469539D01*
X162696771Y-71243036D01*
X162744600Y-71002582D01*
X162744600Y-70757418D01*
X162696771Y-70516964D01*
X162602950Y-70290461D01*
X162466744Y-70086614D01*
X162293386Y-69913256D01*
X162089539Y-69777050D01*
X161863036Y-69683229D01*
X161622582Y-69635400D01*
X161377418Y-69635400D01*
X161136964Y-69683229D01*
X161053424Y-69717833D01*
X160595376Y-69259785D01*
X160579527Y-69240473D01*
X160502479Y-69177241D01*
X160414575Y-69130255D01*
X160319193Y-69101322D01*
X160252329Y-69094736D01*
X160366441Y-68855642D01*
X160397050Y-68929539D01*
X160533256Y-69133386D01*
X160706614Y-69306744D01*
X160910461Y-69442950D01*
X161136964Y-69536771D01*
X161377418Y-69584600D01*
X161622582Y-69584600D01*
X161863036Y-69536771D01*
X162089539Y-69442950D01*
X162293386Y-69306744D01*
X162466744Y-69133386D01*
X162602950Y-68929539D01*
X162696771Y-68703036D01*
X162744600Y-68462582D01*
X162744600Y-68217418D01*
X162696771Y-67976964D01*
X162602950Y-67750461D01*
X162466744Y-67546614D01*
X162293386Y-67373256D01*
X162089539Y-67237050D01*
X161863036Y-67143229D01*
X161622582Y-67095400D01*
X161377418Y-67095400D01*
X161136964Y-67143229D01*
X161053424Y-67177833D01*
X160585376Y-66709785D01*
X160569527Y-66690473D01*
X160492479Y-66627241D01*
X160404575Y-66580255D01*
X160309193Y-66551322D01*
X160256438Y-66546126D01*
X160366441Y-66315642D01*
X160397050Y-66389539D01*
X160533256Y-66593386D01*
X160706614Y-66766744D01*
X160910461Y-66902950D01*
X161136964Y-66996771D01*
X161377418Y-67044600D01*
X161622582Y-67044600D01*
X161863036Y-66996771D01*
X162089539Y-66902950D01*
X162293386Y-66766744D01*
X162466744Y-66593386D01*
X162602950Y-66389539D01*
X162696771Y-66163036D01*
X162744600Y-65922582D01*
X162744600Y-65677418D01*
X162696771Y-65436964D01*
X162602950Y-65210461D01*
X162466744Y-65006614D01*
X162293386Y-64833256D01*
X162089539Y-64697050D01*
X161863036Y-64603229D01*
X161622582Y-64555400D01*
X161377418Y-64555400D01*
X161136964Y-64603229D01*
X160910461Y-64697050D01*
X160706614Y-64833256D01*
X160533256Y-65006614D01*
X160397050Y-65210461D01*
X160366441Y-65284358D01*
X160242684Y-65025056D01*
X160066854Y-64789707D01*
X159848488Y-64593183D01*
X159742230Y-64530000D01*
X159848488Y-64466817D01*
X160066854Y-64270293D01*
X160242684Y-64034944D01*
X160366441Y-63775642D01*
X160397050Y-63849539D01*
X160533256Y-64053386D01*
X160706614Y-64226744D01*
X160910461Y-64362950D01*
X161136964Y-64456771D01*
X161377418Y-64504600D01*
X161622582Y-64504600D01*
X161863036Y-64456771D01*
X162089539Y-64362950D01*
X162293386Y-64226744D01*
X162466744Y-64053386D01*
X162602950Y-63849539D01*
X162696771Y-63623036D01*
X162744600Y-63382582D01*
X162744600Y-63137418D01*
X162696771Y-62896964D01*
X162602950Y-62670461D01*
X162466744Y-62466614D01*
X162293386Y-62293256D01*
X162089539Y-62157050D01*
X161863036Y-62063229D01*
X161622582Y-62015400D01*
X161377418Y-62015400D01*
X161136964Y-62063229D01*
X160910461Y-62157050D01*
X160706614Y-62293256D01*
X160533256Y-62466614D01*
X160397050Y-62670461D01*
X160366441Y-62744358D01*
X160242684Y-62485056D01*
X160066854Y-62249707D01*
X159848488Y-62053183D01*
X159742230Y-61990000D01*
X159848488Y-61926817D01*
X160066854Y-61730293D01*
X160242684Y-61494944D01*
X160366441Y-61235642D01*
X160397050Y-61309539D01*
X160533256Y-61513386D01*
X160706614Y-61686744D01*
X160910461Y-61822950D01*
X161136964Y-61916771D01*
X161377418Y-61964600D01*
X161622582Y-61964600D01*
X161863036Y-61916771D01*
X162089539Y-61822950D01*
X162293386Y-61686744D01*
X162466744Y-61513386D01*
X162602950Y-61309539D01*
X162696771Y-61083036D01*
X162744600Y-60842582D01*
X162744600Y-60597418D01*
X162696771Y-60356964D01*
X162602950Y-60130461D01*
X162466744Y-59926614D01*
X162293386Y-59753256D01*
X162089539Y-59617050D01*
X161863036Y-59523229D01*
X161622582Y-59475400D01*
X161377418Y-59475400D01*
X161136964Y-59523229D01*
X160910461Y-59617050D01*
X160706614Y-59753256D01*
X160533256Y-59926614D01*
X160397050Y-60130461D01*
X160366441Y-60204358D01*
X160242684Y-59945056D01*
X160066854Y-59709707D01*
X159848488Y-59513183D01*
X159742230Y-59450000D01*
X159848488Y-59386817D01*
X160066854Y-59190293D01*
X160242684Y-58954944D01*
X160366441Y-58695642D01*
X160397050Y-58769539D01*
X160533256Y-58973386D01*
X160706614Y-59146744D01*
X160910461Y-59282950D01*
X161136964Y-59376771D01*
X161377418Y-59424600D01*
X161622582Y-59424600D01*
X161863036Y-59376771D01*
X162089539Y-59282950D01*
X162293386Y-59146744D01*
X162466744Y-58973386D01*
X162602950Y-58769539D01*
X162696771Y-58543036D01*
X162744600Y-58302582D01*
X162744600Y-58057418D01*
X162696771Y-57816964D01*
X162602950Y-57590461D01*
X162466744Y-57386614D01*
X162293386Y-57213256D01*
X162089539Y-57077050D01*
X161863036Y-56983229D01*
X161622582Y-56935400D01*
X161377418Y-56935400D01*
X161136964Y-56983229D01*
X160910461Y-57077050D01*
X160706614Y-57213256D01*
X160533256Y-57386614D01*
X160397050Y-57590461D01*
X160366441Y-57664358D01*
X160242684Y-57405056D01*
X160066854Y-57169707D01*
X159848488Y-56973183D01*
X159742230Y-56910000D01*
X159848488Y-56846817D01*
X160066854Y-56650293D01*
X160242684Y-56414944D01*
X160366441Y-56155642D01*
X160397050Y-56229539D01*
X160533256Y-56433386D01*
X160706614Y-56606744D01*
X160910461Y-56742950D01*
X161136964Y-56836771D01*
X161377418Y-56884600D01*
X161622582Y-56884600D01*
X161863036Y-56836771D01*
X162089539Y-56742950D01*
X162293386Y-56606744D01*
X162466744Y-56433386D01*
X162602950Y-56229539D01*
X162696771Y-56003036D01*
X162744600Y-55762582D01*
X162744600Y-55517418D01*
X162696771Y-55276964D01*
X162602950Y-55050461D01*
X162466744Y-54846614D01*
X162293386Y-54673256D01*
X162089539Y-54537050D01*
X161863036Y-54443229D01*
X161622582Y-54395400D01*
X161377418Y-54395400D01*
X161136964Y-54443229D01*
X160910461Y-54537050D01*
X160706614Y-54673256D01*
X160533256Y-54846614D01*
X160397050Y-55050461D01*
X160366441Y-55124358D01*
X160242684Y-54865056D01*
X160066854Y-54629707D01*
X159848488Y-54433183D01*
X159595978Y-54283036D01*
X159319027Y-54185037D01*
X159087000Y-54305536D01*
X159087000Y-55513000D01*
X159107000Y-55513000D01*
X159107000Y-55767000D01*
X159087000Y-55767000D01*
X159087000Y-58053000D01*
X159107000Y-58053000D01*
X159107000Y-58307000D01*
X159087000Y-58307000D01*
X159087000Y-60593000D01*
X159107000Y-60593000D01*
X159107000Y-60847000D01*
X159087000Y-60847000D01*
X159087000Y-63133000D01*
X159107000Y-63133000D01*
X159107000Y-63387000D01*
X159087000Y-63387000D01*
X159087000Y-65673000D01*
X159107000Y-65673000D01*
X159107000Y-65927000D01*
X159087000Y-65927000D01*
X159087000Y-65947000D01*
X158833000Y-65947000D01*
X158833000Y-65927000D01*
X157626183Y-65927000D01*
X157505042Y-66159026D01*
X157550778Y-66309814D01*
X157662547Y-66544000D01*
X152339592Y-66544000D01*
X150151758Y-64356167D01*
X150183693Y-64279069D01*
X150231000Y-64041243D01*
X150231000Y-63798757D01*
X150195249Y-63619026D01*
X157505042Y-63619026D01*
X157550778Y-63769814D01*
X157677316Y-64034944D01*
X157853146Y-64270293D01*
X158071512Y-64466817D01*
X158177770Y-64530000D01*
X158071512Y-64593183D01*
X157853146Y-64789707D01*
X157677316Y-65025056D01*
X157550778Y-65290186D01*
X157505042Y-65440974D01*
X157626183Y-65673000D01*
X158833000Y-65673000D01*
X158833000Y-63387000D01*
X157626183Y-63387000D01*
X157505042Y-63619026D01*
X150195249Y-63619026D01*
X150183693Y-63560931D01*
X150090898Y-63336903D01*
X149956180Y-63135283D01*
X149784717Y-62963820D01*
X149583097Y-62829102D01*
X149359069Y-62736307D01*
X149121243Y-62689000D01*
X148878757Y-62689000D01*
X148640931Y-62736307D01*
X148563833Y-62768242D01*
X148295376Y-62499785D01*
X148279527Y-62480473D01*
X148202479Y-62417241D01*
X148114575Y-62370255D01*
X148019193Y-62341322D01*
X147944854Y-62334000D01*
X147944846Y-62334000D01*
X147920000Y-62331553D01*
X147895154Y-62334000D01*
X143122832Y-62334000D01*
X143090898Y-62256903D01*
X142956180Y-62055283D01*
X142784717Y-61883820D01*
X142583097Y-61749102D01*
X142359069Y-61656307D01*
X142121243Y-61609000D01*
X141878757Y-61609000D01*
X141640931Y-61656307D01*
X141416903Y-61749102D01*
X141215283Y-61883820D01*
X141043820Y-62055283D01*
X140909102Y-62256903D01*
X140865091Y-62363154D01*
X140856825Y-62335901D01*
X140731641Y-62073080D01*
X140557588Y-61839731D01*
X140341355Y-61644822D01*
X140091252Y-61495843D01*
X139816891Y-61398519D01*
X139587000Y-61519186D01*
X139587000Y-62713000D01*
X139607000Y-62713000D01*
X139607000Y-62967000D01*
X139587000Y-62967000D01*
X139587000Y-62987000D01*
X139333000Y-62987000D01*
X139333000Y-62967000D01*
X138139845Y-62967000D01*
X138018524Y-63196890D01*
X138063175Y-63344099D01*
X138182205Y-63594000D01*
X134976704Y-63594000D01*
X135090898Y-63423097D01*
X135183693Y-63199069D01*
X135231000Y-62961243D01*
X135231000Y-62718757D01*
X135184127Y-62483110D01*
X138018524Y-62483110D01*
X138139845Y-62713000D01*
X139333000Y-62713000D01*
X139333000Y-61519186D01*
X139103109Y-61398519D01*
X138828748Y-61495843D01*
X138578645Y-61644822D01*
X138362412Y-61839731D01*
X138188359Y-62073080D01*
X138063175Y-62335901D01*
X138018524Y-62483110D01*
X135184127Y-62483110D01*
X135183693Y-62480931D01*
X135151758Y-62403833D01*
X136476565Y-61079026D01*
X157505042Y-61079026D01*
X157550778Y-61229814D01*
X157677316Y-61494944D01*
X157853146Y-61730293D01*
X158071512Y-61926817D01*
X158177770Y-61990000D01*
X158071512Y-62053183D01*
X157853146Y-62249707D01*
X157677316Y-62485056D01*
X157550778Y-62750186D01*
X157505042Y-62900974D01*
X157626183Y-63133000D01*
X158833000Y-63133000D01*
X158833000Y-60847000D01*
X157626183Y-60847000D01*
X157505042Y-61079026D01*
X136476565Y-61079026D01*
X137849592Y-59706000D01*
X144035154Y-59706000D01*
X144060000Y-59708447D01*
X144084846Y-59706000D01*
X144084854Y-59706000D01*
X144159193Y-59698678D01*
X144254575Y-59669745D01*
X144342479Y-59622759D01*
X144419527Y-59559527D01*
X144435376Y-59540215D01*
X145436565Y-58539026D01*
X157505042Y-58539026D01*
X157550778Y-58689814D01*
X157677316Y-58954944D01*
X157853146Y-59190293D01*
X158071512Y-59386817D01*
X158177770Y-59450000D01*
X158071512Y-59513183D01*
X157853146Y-59709707D01*
X157677316Y-59945056D01*
X157550778Y-60210186D01*
X157505042Y-60360974D01*
X157626183Y-60593000D01*
X158833000Y-60593000D01*
X158833000Y-58307000D01*
X157626183Y-58307000D01*
X157505042Y-58539026D01*
X145436565Y-58539026D01*
X147976565Y-55999026D01*
X157505042Y-55999026D01*
X157550778Y-56149814D01*
X157677316Y-56414944D01*
X157853146Y-56650293D01*
X158071512Y-56846817D01*
X158177770Y-56910000D01*
X158071512Y-56973183D01*
X157853146Y-57169707D01*
X157677316Y-57405056D01*
X157550778Y-57670186D01*
X157505042Y-57820974D01*
X157626183Y-58053000D01*
X158833000Y-58053000D01*
X158833000Y-55767000D01*
X157626183Y-55767000D01*
X157505042Y-55999026D01*
X147976565Y-55999026D01*
X148694617Y-55280974D01*
X157505042Y-55280974D01*
X157626183Y-55513000D01*
X158833000Y-55513000D01*
X158833000Y-54305536D01*
X158600973Y-54185037D01*
X158324022Y-54283036D01*
X158071512Y-54433183D01*
X157853146Y-54629707D01*
X157677316Y-54865056D01*
X157550778Y-55130186D01*
X157505042Y-55280974D01*
X148694617Y-55280974D01*
X149223834Y-54751758D01*
X149300931Y-54783693D01*
X149538757Y-54831000D01*
X149781243Y-54831000D01*
X150019069Y-54783693D01*
X150243097Y-54690898D01*
X150444717Y-54556180D01*
X150616180Y-54384717D01*
X150713073Y-54239706D01*
X150711928Y-54450000D01*
X150724188Y-54574482D01*
X150760498Y-54694180D01*
X150819463Y-54804494D01*
X150898815Y-54901185D01*
X150995506Y-54980537D01*
X151105820Y-55039502D01*
X151225518Y-55075812D01*
X151350000Y-55088072D01*
X151914250Y-55085000D01*
X152073000Y-54926250D01*
X152073000Y-53727000D01*
X152327000Y-53727000D01*
X152327000Y-54926250D01*
X152485750Y-55085000D01*
X153050000Y-55088072D01*
X153174482Y-55075812D01*
X153294180Y-55039502D01*
X153404494Y-54980537D01*
X153501185Y-54901185D01*
X153580537Y-54804494D01*
X153639502Y-54694180D01*
X153675812Y-54574482D01*
X153688072Y-54450000D01*
X153685000Y-53885750D01*
X153526250Y-53727000D01*
X152327000Y-53727000D01*
X152073000Y-53727000D01*
X152053000Y-53727000D01*
X152053000Y-53473000D01*
X152073000Y-53473000D01*
X152073000Y-53453000D01*
X152327000Y-53453000D01*
X152327000Y-53473000D01*
X153526250Y-53473000D01*
X153685000Y-53314250D01*
X153688072Y-52750000D01*
X153675812Y-52625518D01*
X153639502Y-52505820D01*
X153599509Y-52431000D01*
X160978921Y-52431000D01*
X161692819Y-52500998D01*
G36*
X157550778Y-70370186D02*
G01*
X157505042Y-70520974D01*
X157626183Y-70753000D01*
X158833000Y-70753000D01*
X158833000Y-70733000D01*
X159087000Y-70733000D01*
X159087000Y-70753000D01*
X159107000Y-70753000D01*
X159107000Y-71007000D01*
X159087000Y-71007000D01*
X159087000Y-71027000D01*
X158833000Y-71027000D01*
X158833000Y-71007000D01*
X157626183Y-71007000D01*
X157505042Y-71239026D01*
X157550778Y-71389814D01*
X157672093Y-71644000D01*
X157609592Y-71644000D01*
X156071591Y-70106000D01*
X157676865Y-70106000D01*
X157550778Y-70370186D01*
G37*
X157550778Y-70370186D02*
X157505042Y-70520974D01*
X157626183Y-70753000D01*
X158833000Y-70753000D01*
X158833000Y-70733000D01*
X159087000Y-70733000D01*
X159087000Y-70753000D01*
X159107000Y-70753000D01*
X159107000Y-71007000D01*
X159087000Y-71007000D01*
X159087000Y-71027000D01*
X158833000Y-71027000D01*
X158833000Y-71007000D01*
X157626183Y-71007000D01*
X157505042Y-71239026D01*
X157550778Y-71389814D01*
X157672093Y-71644000D01*
X157609592Y-71644000D01*
X156071591Y-70106000D01*
X157676865Y-70106000D01*
X157550778Y-70370186D01*
G36*
X147848242Y-63483833D02*
G01*
X147816307Y-63560931D01*
X147769000Y-63798757D01*
X147769000Y-64041243D01*
X147816307Y-64279069D01*
X147909102Y-64503097D01*
X148043820Y-64704717D01*
X148215283Y-64876180D01*
X148416903Y-65010898D01*
X148531168Y-65058228D01*
X148368748Y-65115843D01*
X148118645Y-65264822D01*
X147902412Y-65459731D01*
X147728359Y-65693080D01*
X147603175Y-65955901D01*
X147558524Y-66103110D01*
X147679845Y-66333000D01*
X148873000Y-66333000D01*
X148873000Y-66313000D01*
X149127000Y-66313000D01*
X149127000Y-66333000D01*
X150320155Y-66333000D01*
X150441476Y-66103110D01*
X150430138Y-66065729D01*
X151754628Y-67390220D01*
X151770473Y-67409527D01*
X151847521Y-67472759D01*
X151935425Y-67519745D01*
X152008607Y-67541944D01*
X152030806Y-67548678D01*
X152040694Y-67549652D01*
X152105146Y-67556000D01*
X152105153Y-67556000D01*
X152129999Y-67558447D01*
X152154845Y-67556000D01*
X157684082Y-67556000D01*
X157677316Y-67565056D01*
X157550778Y-67830186D01*
X157505042Y-67980974D01*
X157626183Y-68213000D01*
X158833000Y-68213000D01*
X158833000Y-68193000D01*
X159087000Y-68193000D01*
X159087000Y-68213000D01*
X159107000Y-68213000D01*
X159107000Y-68467000D01*
X159087000Y-68467000D01*
X159087000Y-68487000D01*
X158833000Y-68487000D01*
X158833000Y-68467000D01*
X157626183Y-68467000D01*
X157505042Y-68699026D01*
X157550778Y-68849814D01*
X157667320Y-69094000D01*
X150231000Y-69094000D01*
X150231000Y-68878757D01*
X150183693Y-68640931D01*
X150090898Y-68416903D01*
X149956180Y-68215283D01*
X149784717Y-68043820D01*
X149583097Y-67909102D01*
X149468832Y-67861772D01*
X149631252Y-67804157D01*
X149881355Y-67655178D01*
X150097588Y-67460269D01*
X150271641Y-67226920D01*
X150396825Y-66964099D01*
X150441476Y-66816890D01*
X150320155Y-66587000D01*
X149127000Y-66587000D01*
X149127000Y-66607000D01*
X148873000Y-66607000D01*
X148873000Y-66587000D01*
X147679845Y-66587000D01*
X147558524Y-66816890D01*
X147569862Y-66854271D01*
X145755376Y-65039785D01*
X145739527Y-65020473D01*
X145662479Y-64957241D01*
X145574575Y-64910255D01*
X145479193Y-64881322D01*
X145404854Y-64874000D01*
X145404846Y-64874000D01*
X145380000Y-64871553D01*
X145355154Y-64874000D01*
X143122832Y-64874000D01*
X143090898Y-64796903D01*
X142956180Y-64595283D01*
X142784717Y-64423820D01*
X142583097Y-64289102D01*
X142359069Y-64196307D01*
X142121243Y-64149000D01*
X141878757Y-64149000D01*
X141640931Y-64196307D01*
X141603978Y-64211613D01*
X141766851Y-64048740D01*
X141878757Y-64071000D01*
X142121243Y-64071000D01*
X142359069Y-64023693D01*
X142583097Y-63930898D01*
X142784717Y-63796180D01*
X142956180Y-63624717D01*
X143090898Y-63423097D01*
X143122832Y-63346000D01*
X147710409Y-63346000D01*
X147848242Y-63483833D01*
G37*
X147848242Y-63483833D02*
X147816307Y-63560931D01*
X147769000Y-63798757D01*
X147769000Y-64041243D01*
X147816307Y-64279069D01*
X147909102Y-64503097D01*
X148043820Y-64704717D01*
X148215283Y-64876180D01*
X148416903Y-65010898D01*
X148531168Y-65058228D01*
X148368748Y-65115843D01*
X148118645Y-65264822D01*
X147902412Y-65459731D01*
X147728359Y-65693080D01*
X147603175Y-65955901D01*
X147558524Y-66103110D01*
X147679845Y-66333000D01*
X148873000Y-66333000D01*
X148873000Y-66313000D01*
X149127000Y-66313000D01*
X149127000Y-66333000D01*
X150320155Y-66333000D01*
X150441476Y-66103110D01*
X150430138Y-66065729D01*
X151754628Y-67390220D01*
X151770473Y-67409527D01*
X151847521Y-67472759D01*
X151935425Y-67519745D01*
X152008607Y-67541944D01*
X152030806Y-67548678D01*
X152040694Y-67549652D01*
X152105146Y-67556000D01*
X152105153Y-67556000D01*
X152129999Y-67558447D01*
X152154845Y-67556000D01*
X157684082Y-67556000D01*
X157677316Y-67565056D01*
X157550778Y-67830186D01*
X157505042Y-67980974D01*
X157626183Y-68213000D01*
X158833000Y-68213000D01*
X158833000Y-68193000D01*
X159087000Y-68193000D01*
X159087000Y-68213000D01*
X159107000Y-68213000D01*
X159107000Y-68467000D01*
X159087000Y-68467000D01*
X159087000Y-68487000D01*
X158833000Y-68487000D01*
X158833000Y-68467000D01*
X157626183Y-68467000D01*
X157505042Y-68699026D01*
X157550778Y-68849814D01*
X157667320Y-69094000D01*
X150231000Y-69094000D01*
X150231000Y-68878757D01*
X150183693Y-68640931D01*
X150090898Y-68416903D01*
X149956180Y-68215283D01*
X149784717Y-68043820D01*
X149583097Y-67909102D01*
X149468832Y-67861772D01*
X149631252Y-67804157D01*
X149881355Y-67655178D01*
X150097588Y-67460269D01*
X150271641Y-67226920D01*
X150396825Y-66964099D01*
X150441476Y-66816890D01*
X150320155Y-66587000D01*
X149127000Y-66587000D01*
X149127000Y-66607000D01*
X148873000Y-66607000D01*
X148873000Y-66587000D01*
X147679845Y-66587000D01*
X147558524Y-66816890D01*
X147569862Y-66854271D01*
X145755376Y-65039785D01*
X145739527Y-65020473D01*
X145662479Y-64957241D01*
X145574575Y-64910255D01*
X145479193Y-64881322D01*
X145404854Y-64874000D01*
X145404846Y-64874000D01*
X145380000Y-64871553D01*
X145355154Y-64874000D01*
X143122832Y-64874000D01*
X143090898Y-64796903D01*
X142956180Y-64595283D01*
X142784717Y-64423820D01*
X142583097Y-64289102D01*
X142359069Y-64196307D01*
X142121243Y-64149000D01*
X141878757Y-64149000D01*
X141640931Y-64196307D01*
X141603978Y-64211613D01*
X141766851Y-64048740D01*
X141878757Y-64071000D01*
X142121243Y-64071000D01*
X142359069Y-64023693D01*
X142583097Y-63930898D01*
X142784717Y-63796180D01*
X142956180Y-63624717D01*
X143090898Y-63423097D01*
X143122832Y-63346000D01*
X147710409Y-63346000D01*
X147848242Y-63483833D01*
G36*
X146536903Y-52509102D02*
G01*
X146335283Y-52643820D01*
X146163820Y-52815283D01*
X146029102Y-53016903D01*
X145936307Y-53240931D01*
X145889000Y-53478757D01*
X145889000Y-53721243D01*
X145936307Y-53959069D01*
X145968242Y-54036166D01*
X142010409Y-57994000D01*
X135824854Y-57994000D01*
X135800000Y-57991552D01*
X135775146Y-57994000D01*
X135700807Y-58001322D01*
X135605425Y-58030255D01*
X135517521Y-58077241D01*
X135440473Y-58140473D01*
X135424629Y-58159779D01*
X131896167Y-61688242D01*
X131819069Y-61656307D01*
X131581243Y-61609000D01*
X131338757Y-61609000D01*
X131100931Y-61656307D01*
X130876903Y-61749102D01*
X130675283Y-61883820D01*
X130503820Y-62055283D01*
X130431000Y-62164266D01*
X130431000Y-56021079D01*
X130500998Y-55307181D01*
X130702208Y-54640743D01*
X131029026Y-54026089D01*
X131469009Y-53486616D01*
X132005398Y-53042877D01*
X132617760Y-52711775D01*
X133282768Y-52505921D01*
X133995414Y-52431018D01*
X134000633Y-52431000D01*
X146725459Y-52431000D01*
X146536903Y-52509102D01*
G37*
X146536903Y-52509102D02*
X146335283Y-52643820D01*
X146163820Y-52815283D01*
X146029102Y-53016903D01*
X145936307Y-53240931D01*
X145889000Y-53478757D01*
X145889000Y-53721243D01*
X145936307Y-53959069D01*
X145968242Y-54036166D01*
X142010409Y-57994000D01*
X135824854Y-57994000D01*
X135800000Y-57991552D01*
X135775146Y-57994000D01*
X135700807Y-58001322D01*
X135605425Y-58030255D01*
X135517521Y-58077241D01*
X135440473Y-58140473D01*
X135424629Y-58159779D01*
X131896167Y-61688242D01*
X131819069Y-61656307D01*
X131581243Y-61609000D01*
X131338757Y-61609000D01*
X131100931Y-61656307D01*
X130876903Y-61749102D01*
X130675283Y-61883820D01*
X130503820Y-62055283D01*
X130431000Y-62164266D01*
X130431000Y-56021079D01*
X130500998Y-55307181D01*
X130702208Y-54640743D01*
X131029026Y-54026089D01*
X131469009Y-53486616D01*
X132005398Y-53042877D01*
X132617760Y-52711775D01*
X133282768Y-52505921D01*
X133995414Y-52431018D01*
X134000633Y-52431000D01*
X146725459Y-52431000D01*
X146536903Y-52509102D01*
M02*
