G04 #@! TF.GenerationSoftware,KiCad,Pcbnew,(5.1.4)-1*
G04 #@! TF.CreationDate,2020-02-29T23:53:28+08:00*
G04 #@! TF.ProjectId,adapter_20p,61646170-7465-4725-9f32-30702e6b6963,rev?*
G04 #@! TF.SameCoordinates,Original*
G04 #@! TF.FileFunction,Soldermask,Top*
G04 #@! TF.FilePolarity,Negative*
%FSLAX46Y46*%
G04 Gerber Fmt 4.6, Leading zero omitted, Abs format (unit mm)*
G04 Created by KiCad (PCBNEW (5.1.4)-1) date 2020-02-29 23:53:28*
%MOMM*%
%LPD*%
G04 APERTURE LIST*
%ADD10C,0.100000*%
G04 APERTURE END LIST*
D10*
G36*
X162414600Y-79414600D02*
G01*
X160585400Y-79414600D01*
X160585400Y-77585400D01*
X162414600Y-77585400D01*
X162414600Y-79414600D01*
X162414600Y-79414600D01*
G37*
G36*
X159139294Y-77598633D02*
G01*
X159311695Y-77650931D01*
X159470583Y-77735858D01*
X159609849Y-77850151D01*
X159724142Y-77989417D01*
X159809069Y-78148305D01*
X159861367Y-78320706D01*
X159879025Y-78500000D01*
X159861367Y-78679294D01*
X159809069Y-78851695D01*
X159724142Y-79010583D01*
X159609849Y-79149849D01*
X159470583Y-79264142D01*
X159311695Y-79349069D01*
X159139294Y-79401367D01*
X159004931Y-79414600D01*
X158915069Y-79414600D01*
X158780706Y-79401367D01*
X158608305Y-79349069D01*
X158449417Y-79264142D01*
X158310151Y-79149849D01*
X158195858Y-79010583D01*
X158110931Y-78851695D01*
X158058633Y-78679294D01*
X158040975Y-78500000D01*
X158058633Y-78320706D01*
X158110931Y-78148305D01*
X158195858Y-77989417D01*
X158310151Y-77850151D01*
X158449417Y-77735858D01*
X158608305Y-77650931D01*
X158780706Y-77598633D01*
X158915069Y-77585400D01*
X159004931Y-77585400D01*
X159139294Y-77598633D01*
X159139294Y-77598633D01*
G37*
G36*
X159139294Y-75058633D02*
G01*
X159311695Y-75110931D01*
X159470583Y-75195858D01*
X159609849Y-75310151D01*
X159724142Y-75449417D01*
X159809069Y-75608305D01*
X159861367Y-75780706D01*
X159879025Y-75960000D01*
X159861367Y-76139294D01*
X159809069Y-76311695D01*
X159724142Y-76470583D01*
X159609849Y-76609849D01*
X159470583Y-76724142D01*
X159311695Y-76809069D01*
X159139294Y-76861367D01*
X159004931Y-76874600D01*
X158915069Y-76874600D01*
X158780706Y-76861367D01*
X158608305Y-76809069D01*
X158449417Y-76724142D01*
X158310151Y-76609849D01*
X158195858Y-76470583D01*
X158110931Y-76311695D01*
X158058633Y-76139294D01*
X158040975Y-75960000D01*
X158058633Y-75780706D01*
X158110931Y-75608305D01*
X158195858Y-75449417D01*
X158310151Y-75310151D01*
X158449417Y-75195858D01*
X158608305Y-75110931D01*
X158780706Y-75058633D01*
X158915069Y-75045400D01*
X159004931Y-75045400D01*
X159139294Y-75058633D01*
X159139294Y-75058633D01*
G37*
G36*
X161679294Y-75058633D02*
G01*
X161851695Y-75110931D01*
X162010583Y-75195858D01*
X162149849Y-75310151D01*
X162264142Y-75449417D01*
X162349069Y-75608305D01*
X162401367Y-75780706D01*
X162419025Y-75960000D01*
X162401367Y-76139294D01*
X162349069Y-76311695D01*
X162264142Y-76470583D01*
X162149849Y-76609849D01*
X162010583Y-76724142D01*
X161851695Y-76809069D01*
X161679294Y-76861367D01*
X161544931Y-76874600D01*
X161455069Y-76874600D01*
X161320706Y-76861367D01*
X161148305Y-76809069D01*
X160989417Y-76724142D01*
X160850151Y-76609849D01*
X160735858Y-76470583D01*
X160650931Y-76311695D01*
X160598633Y-76139294D01*
X160580975Y-75960000D01*
X160598633Y-75780706D01*
X160650931Y-75608305D01*
X160735858Y-75449417D01*
X160850151Y-75310151D01*
X160989417Y-75195858D01*
X161148305Y-75110931D01*
X161320706Y-75058633D01*
X161455069Y-75045400D01*
X161544931Y-75045400D01*
X161679294Y-75058633D01*
X161679294Y-75058633D01*
G37*
G36*
X161679294Y-72518633D02*
G01*
X161851695Y-72570931D01*
X162010583Y-72655858D01*
X162149849Y-72770151D01*
X162264142Y-72909417D01*
X162349069Y-73068305D01*
X162401367Y-73240706D01*
X162419025Y-73420000D01*
X162401367Y-73599294D01*
X162349069Y-73771695D01*
X162264142Y-73930583D01*
X162149849Y-74069849D01*
X162010583Y-74184142D01*
X161851695Y-74269069D01*
X161679294Y-74321367D01*
X161544931Y-74334600D01*
X161455069Y-74334600D01*
X161320706Y-74321367D01*
X161148305Y-74269069D01*
X160989417Y-74184142D01*
X160850151Y-74069849D01*
X160735858Y-73930583D01*
X160650931Y-73771695D01*
X160598633Y-73599294D01*
X160580975Y-73420000D01*
X160598633Y-73240706D01*
X160650931Y-73068305D01*
X160735858Y-72909417D01*
X160850151Y-72770151D01*
X160989417Y-72655858D01*
X161148305Y-72570931D01*
X161320706Y-72518633D01*
X161455069Y-72505400D01*
X161544931Y-72505400D01*
X161679294Y-72518633D01*
X161679294Y-72518633D01*
G37*
G36*
X159139294Y-72518633D02*
G01*
X159311695Y-72570931D01*
X159470583Y-72655858D01*
X159609849Y-72770151D01*
X159724142Y-72909417D01*
X159809069Y-73068305D01*
X159861367Y-73240706D01*
X159879025Y-73420000D01*
X159861367Y-73599294D01*
X159809069Y-73771695D01*
X159724142Y-73930583D01*
X159609849Y-74069849D01*
X159470583Y-74184142D01*
X159311695Y-74269069D01*
X159139294Y-74321367D01*
X159004931Y-74334600D01*
X158915069Y-74334600D01*
X158780706Y-74321367D01*
X158608305Y-74269069D01*
X158449417Y-74184142D01*
X158310151Y-74069849D01*
X158195858Y-73930583D01*
X158110931Y-73771695D01*
X158058633Y-73599294D01*
X158040975Y-73420000D01*
X158058633Y-73240706D01*
X158110931Y-73068305D01*
X158195858Y-72909417D01*
X158310151Y-72770151D01*
X158449417Y-72655858D01*
X158608305Y-72570931D01*
X158780706Y-72518633D01*
X158915069Y-72505400D01*
X159004931Y-72505400D01*
X159139294Y-72518633D01*
X159139294Y-72518633D01*
G37*
G36*
X142901000Y-73901000D02*
G01*
X141099000Y-73901000D01*
X141099000Y-72099000D01*
X142901000Y-72099000D01*
X142901000Y-73901000D01*
X142901000Y-73901000D01*
G37*
G36*
X139570442Y-72105518D02*
G01*
X139636627Y-72112037D01*
X139806466Y-72163557D01*
X139962991Y-72247222D01*
X139998729Y-72276552D01*
X140100186Y-72359814D01*
X140183448Y-72461271D01*
X140212778Y-72497009D01*
X140296443Y-72653534D01*
X140347963Y-72823373D01*
X140365359Y-73000000D01*
X140347963Y-73176627D01*
X140296443Y-73346466D01*
X140212778Y-73502991D01*
X140183448Y-73538729D01*
X140100186Y-73640186D01*
X139998729Y-73723448D01*
X139962991Y-73752778D01*
X139806466Y-73836443D01*
X139636627Y-73887963D01*
X139570443Y-73894481D01*
X139504260Y-73901000D01*
X139415740Y-73901000D01*
X139349557Y-73894481D01*
X139283373Y-73887963D01*
X139113534Y-73836443D01*
X138957009Y-73752778D01*
X138921271Y-73723448D01*
X138819814Y-73640186D01*
X138736552Y-73538729D01*
X138707222Y-73502991D01*
X138623557Y-73346466D01*
X138572037Y-73176627D01*
X138554641Y-73000000D01*
X138572037Y-72823373D01*
X138623557Y-72653534D01*
X138707222Y-72497009D01*
X138736552Y-72461271D01*
X138819814Y-72359814D01*
X138921271Y-72276552D01*
X138957009Y-72247222D01*
X139113534Y-72163557D01*
X139283373Y-72112037D01*
X139349558Y-72105518D01*
X139415740Y-72099000D01*
X139504260Y-72099000D01*
X139570442Y-72105518D01*
X139570442Y-72105518D01*
G37*
G36*
X134901000Y-73901000D02*
G01*
X133099000Y-73901000D01*
X133099000Y-72099000D01*
X134901000Y-72099000D01*
X134901000Y-73901000D01*
X134901000Y-73901000D01*
G37*
G36*
X131570442Y-72105518D02*
G01*
X131636627Y-72112037D01*
X131806466Y-72163557D01*
X131962991Y-72247222D01*
X131998729Y-72276552D01*
X132100186Y-72359814D01*
X132183448Y-72461271D01*
X132212778Y-72497009D01*
X132296443Y-72653534D01*
X132347963Y-72823373D01*
X132365359Y-73000000D01*
X132347963Y-73176627D01*
X132296443Y-73346466D01*
X132212778Y-73502991D01*
X132183448Y-73538729D01*
X132100186Y-73640186D01*
X131998729Y-73723448D01*
X131962991Y-73752778D01*
X131806466Y-73836443D01*
X131636627Y-73887963D01*
X131570443Y-73894481D01*
X131504260Y-73901000D01*
X131415740Y-73901000D01*
X131349557Y-73894481D01*
X131283373Y-73887963D01*
X131113534Y-73836443D01*
X130957009Y-73752778D01*
X130921271Y-73723448D01*
X130819814Y-73640186D01*
X130736552Y-73538729D01*
X130707222Y-73502991D01*
X130623557Y-73346466D01*
X130572037Y-73176627D01*
X130554641Y-73000000D01*
X130572037Y-72823373D01*
X130623557Y-72653534D01*
X130707222Y-72497009D01*
X130736552Y-72461271D01*
X130819814Y-72359814D01*
X130921271Y-72276552D01*
X130957009Y-72247222D01*
X131113534Y-72163557D01*
X131283373Y-72112037D01*
X131349558Y-72105518D01*
X131415740Y-72099000D01*
X131504260Y-72099000D01*
X131570442Y-72105518D01*
X131570442Y-72105518D01*
G37*
G36*
X149901000Y-72441000D02*
G01*
X148099000Y-72441000D01*
X148099000Y-70639000D01*
X149901000Y-70639000D01*
X149901000Y-72441000D01*
X149901000Y-72441000D01*
G37*
G36*
X159139294Y-69978633D02*
G01*
X159311695Y-70030931D01*
X159470583Y-70115858D01*
X159609849Y-70230151D01*
X159724142Y-70369417D01*
X159809069Y-70528305D01*
X159861367Y-70700706D01*
X159879025Y-70880000D01*
X159861367Y-71059294D01*
X159809069Y-71231695D01*
X159724142Y-71390583D01*
X159609849Y-71529849D01*
X159470583Y-71644142D01*
X159311695Y-71729069D01*
X159139294Y-71781367D01*
X159004931Y-71794600D01*
X158915069Y-71794600D01*
X158780706Y-71781367D01*
X158608305Y-71729069D01*
X158449417Y-71644142D01*
X158310151Y-71529849D01*
X158195858Y-71390583D01*
X158110931Y-71231695D01*
X158058633Y-71059294D01*
X158040975Y-70880000D01*
X158058633Y-70700706D01*
X158110931Y-70528305D01*
X158195858Y-70369417D01*
X158310151Y-70230151D01*
X158449417Y-70115858D01*
X158608305Y-70030931D01*
X158780706Y-69978633D01*
X158915069Y-69965400D01*
X159004931Y-69965400D01*
X159139294Y-69978633D01*
X159139294Y-69978633D01*
G37*
G36*
X161679294Y-69978633D02*
G01*
X161851695Y-70030931D01*
X162010583Y-70115858D01*
X162149849Y-70230151D01*
X162264142Y-70369417D01*
X162349069Y-70528305D01*
X162401367Y-70700706D01*
X162419025Y-70880000D01*
X162401367Y-71059294D01*
X162349069Y-71231695D01*
X162264142Y-71390583D01*
X162149849Y-71529849D01*
X162010583Y-71644142D01*
X161851695Y-71729069D01*
X161679294Y-71781367D01*
X161544931Y-71794600D01*
X161455069Y-71794600D01*
X161320706Y-71781367D01*
X161148305Y-71729069D01*
X160989417Y-71644142D01*
X160850151Y-71529849D01*
X160735858Y-71390583D01*
X160650931Y-71231695D01*
X160598633Y-71059294D01*
X160580975Y-70880000D01*
X160598633Y-70700706D01*
X160650931Y-70528305D01*
X160735858Y-70369417D01*
X160850151Y-70230151D01*
X160989417Y-70115858D01*
X161148305Y-70030931D01*
X161320706Y-69978633D01*
X161455069Y-69965400D01*
X161544931Y-69965400D01*
X161679294Y-69978633D01*
X161679294Y-69978633D01*
G37*
G36*
X142110443Y-69565519D02*
G01*
X142176627Y-69572037D01*
X142346466Y-69623557D01*
X142346468Y-69623558D01*
X142424729Y-69665390D01*
X142502991Y-69707222D01*
X142538729Y-69736552D01*
X142640186Y-69819814D01*
X142723448Y-69921271D01*
X142752778Y-69957009D01*
X142836443Y-70113534D01*
X142887963Y-70283373D01*
X142905359Y-70460000D01*
X142887963Y-70636627D01*
X142836443Y-70806466D01*
X142752778Y-70962991D01*
X142723448Y-70998729D01*
X142640186Y-71100186D01*
X142538729Y-71183448D01*
X142502991Y-71212778D01*
X142346466Y-71296443D01*
X142176627Y-71347963D01*
X142110443Y-71354481D01*
X142044260Y-71361000D01*
X141955740Y-71361000D01*
X141889557Y-71354481D01*
X141823373Y-71347963D01*
X141653534Y-71296443D01*
X141497009Y-71212778D01*
X141461271Y-71183448D01*
X141359814Y-71100186D01*
X141276552Y-70998729D01*
X141247222Y-70962991D01*
X141163557Y-70806466D01*
X141112037Y-70636627D01*
X141094641Y-70460000D01*
X141112037Y-70283373D01*
X141163557Y-70113534D01*
X141247222Y-69957009D01*
X141276552Y-69921271D01*
X141359814Y-69819814D01*
X141461271Y-69736552D01*
X141497009Y-69707222D01*
X141575271Y-69665390D01*
X141653532Y-69623558D01*
X141653534Y-69623557D01*
X141823373Y-69572037D01*
X141889557Y-69565519D01*
X141955740Y-69559000D01*
X142044260Y-69559000D01*
X142110443Y-69565519D01*
X142110443Y-69565519D01*
G37*
G36*
X139570443Y-69565519D02*
G01*
X139636627Y-69572037D01*
X139806466Y-69623557D01*
X139806468Y-69623558D01*
X139884729Y-69665390D01*
X139962991Y-69707222D01*
X139998729Y-69736552D01*
X140100186Y-69819814D01*
X140183448Y-69921271D01*
X140212778Y-69957009D01*
X140296443Y-70113534D01*
X140347963Y-70283373D01*
X140365359Y-70460000D01*
X140347963Y-70636627D01*
X140296443Y-70806466D01*
X140212778Y-70962991D01*
X140183448Y-70998729D01*
X140100186Y-71100186D01*
X139998729Y-71183448D01*
X139962991Y-71212778D01*
X139806466Y-71296443D01*
X139636627Y-71347963D01*
X139570443Y-71354481D01*
X139504260Y-71361000D01*
X139415740Y-71361000D01*
X139349557Y-71354481D01*
X139283373Y-71347963D01*
X139113534Y-71296443D01*
X138957009Y-71212778D01*
X138921271Y-71183448D01*
X138819814Y-71100186D01*
X138736552Y-70998729D01*
X138707222Y-70962991D01*
X138623557Y-70806466D01*
X138572037Y-70636627D01*
X138554641Y-70460000D01*
X138572037Y-70283373D01*
X138623557Y-70113534D01*
X138707222Y-69957009D01*
X138736552Y-69921271D01*
X138819814Y-69819814D01*
X138921271Y-69736552D01*
X138957009Y-69707222D01*
X139035271Y-69665390D01*
X139113532Y-69623558D01*
X139113534Y-69623557D01*
X139283373Y-69572037D01*
X139349557Y-69565519D01*
X139415740Y-69559000D01*
X139504260Y-69559000D01*
X139570443Y-69565519D01*
X139570443Y-69565519D01*
G37*
G36*
X134110443Y-69565519D02*
G01*
X134176627Y-69572037D01*
X134346466Y-69623557D01*
X134346468Y-69623558D01*
X134424729Y-69665390D01*
X134502991Y-69707222D01*
X134538729Y-69736552D01*
X134640186Y-69819814D01*
X134723448Y-69921271D01*
X134752778Y-69957009D01*
X134836443Y-70113534D01*
X134887963Y-70283373D01*
X134905359Y-70460000D01*
X134887963Y-70636627D01*
X134836443Y-70806466D01*
X134752778Y-70962991D01*
X134723448Y-70998729D01*
X134640186Y-71100186D01*
X134538729Y-71183448D01*
X134502991Y-71212778D01*
X134346466Y-71296443D01*
X134176627Y-71347963D01*
X134110443Y-71354481D01*
X134044260Y-71361000D01*
X133955740Y-71361000D01*
X133889557Y-71354481D01*
X133823373Y-71347963D01*
X133653534Y-71296443D01*
X133497009Y-71212778D01*
X133461271Y-71183448D01*
X133359814Y-71100186D01*
X133276552Y-70998729D01*
X133247222Y-70962991D01*
X133163557Y-70806466D01*
X133112037Y-70636627D01*
X133094641Y-70460000D01*
X133112037Y-70283373D01*
X133163557Y-70113534D01*
X133247222Y-69957009D01*
X133276552Y-69921271D01*
X133359814Y-69819814D01*
X133461271Y-69736552D01*
X133497009Y-69707222D01*
X133575271Y-69665390D01*
X133653532Y-69623558D01*
X133653534Y-69623557D01*
X133823373Y-69572037D01*
X133889557Y-69565519D01*
X133955740Y-69559000D01*
X134044260Y-69559000D01*
X134110443Y-69565519D01*
X134110443Y-69565519D01*
G37*
G36*
X131570443Y-69565519D02*
G01*
X131636627Y-69572037D01*
X131806466Y-69623557D01*
X131806468Y-69623558D01*
X131884729Y-69665390D01*
X131962991Y-69707222D01*
X131998729Y-69736552D01*
X132100186Y-69819814D01*
X132183448Y-69921271D01*
X132212778Y-69957009D01*
X132296443Y-70113534D01*
X132347963Y-70283373D01*
X132365359Y-70460000D01*
X132347963Y-70636627D01*
X132296443Y-70806466D01*
X132212778Y-70962991D01*
X132183448Y-70998729D01*
X132100186Y-71100186D01*
X131998729Y-71183448D01*
X131962991Y-71212778D01*
X131806466Y-71296443D01*
X131636627Y-71347963D01*
X131570443Y-71354481D01*
X131504260Y-71361000D01*
X131415740Y-71361000D01*
X131349557Y-71354481D01*
X131283373Y-71347963D01*
X131113534Y-71296443D01*
X130957009Y-71212778D01*
X130921271Y-71183448D01*
X130819814Y-71100186D01*
X130736552Y-70998729D01*
X130707222Y-70962991D01*
X130623557Y-70806466D01*
X130572037Y-70636627D01*
X130554641Y-70460000D01*
X130572037Y-70283373D01*
X130623557Y-70113534D01*
X130707222Y-69957009D01*
X130736552Y-69921271D01*
X130819814Y-69819814D01*
X130921271Y-69736552D01*
X130957009Y-69707222D01*
X131035271Y-69665390D01*
X131113532Y-69623558D01*
X131113534Y-69623557D01*
X131283373Y-69572037D01*
X131349557Y-69565519D01*
X131415740Y-69559000D01*
X131504260Y-69559000D01*
X131570443Y-69565519D01*
X131570443Y-69565519D01*
G37*
G36*
X149110443Y-68105519D02*
G01*
X149176627Y-68112037D01*
X149346466Y-68163557D01*
X149502991Y-68247222D01*
X149526442Y-68266468D01*
X149640186Y-68359814D01*
X149692033Y-68422991D01*
X149752778Y-68497009D01*
X149836443Y-68653534D01*
X149887963Y-68823373D01*
X149905359Y-69000000D01*
X149887963Y-69176627D01*
X149836443Y-69346466D01*
X149752778Y-69502991D01*
X149723448Y-69538729D01*
X149640186Y-69640186D01*
X149558502Y-69707221D01*
X149502991Y-69752778D01*
X149502989Y-69752779D01*
X149377577Y-69819814D01*
X149346466Y-69836443D01*
X149176627Y-69887963D01*
X149110443Y-69894481D01*
X149044260Y-69901000D01*
X148955740Y-69901000D01*
X148889557Y-69894481D01*
X148823373Y-69887963D01*
X148653534Y-69836443D01*
X148622424Y-69819814D01*
X148497011Y-69752779D01*
X148497009Y-69752778D01*
X148441498Y-69707221D01*
X148359814Y-69640186D01*
X148276552Y-69538729D01*
X148247222Y-69502991D01*
X148163557Y-69346466D01*
X148112037Y-69176627D01*
X148094641Y-69000000D01*
X148112037Y-68823373D01*
X148163557Y-68653534D01*
X148247222Y-68497009D01*
X148307967Y-68422991D01*
X148359814Y-68359814D01*
X148473558Y-68266468D01*
X148497009Y-68247222D01*
X148653534Y-68163557D01*
X148823373Y-68112037D01*
X148889557Y-68105519D01*
X148955740Y-68099000D01*
X149044260Y-68099000D01*
X149110443Y-68105519D01*
X149110443Y-68105519D01*
G37*
G36*
X161679294Y-67438633D02*
G01*
X161851695Y-67490931D01*
X162010583Y-67575858D01*
X162149849Y-67690151D01*
X162264142Y-67829417D01*
X162349069Y-67988305D01*
X162401367Y-68160706D01*
X162419025Y-68340000D01*
X162401367Y-68519294D01*
X162349069Y-68691695D01*
X162264142Y-68850583D01*
X162149849Y-68989849D01*
X162010583Y-69104142D01*
X161851695Y-69189069D01*
X161679294Y-69241367D01*
X161544931Y-69254600D01*
X161455069Y-69254600D01*
X161320706Y-69241367D01*
X161148305Y-69189069D01*
X160989417Y-69104142D01*
X160850151Y-68989849D01*
X160735858Y-68850583D01*
X160650931Y-68691695D01*
X160598633Y-68519294D01*
X160580975Y-68340000D01*
X160598633Y-68160706D01*
X160650931Y-67988305D01*
X160735858Y-67829417D01*
X160850151Y-67690151D01*
X160989417Y-67575858D01*
X161148305Y-67490931D01*
X161320706Y-67438633D01*
X161455069Y-67425400D01*
X161544931Y-67425400D01*
X161679294Y-67438633D01*
X161679294Y-67438633D01*
G37*
G36*
X159139294Y-67438633D02*
G01*
X159311695Y-67490931D01*
X159470583Y-67575858D01*
X159609849Y-67690151D01*
X159724142Y-67829417D01*
X159809069Y-67988305D01*
X159861367Y-68160706D01*
X159879025Y-68340000D01*
X159861367Y-68519294D01*
X159809069Y-68691695D01*
X159724142Y-68850583D01*
X159609849Y-68989849D01*
X159470583Y-69104142D01*
X159311695Y-69189069D01*
X159139294Y-69241367D01*
X159004931Y-69254600D01*
X158915069Y-69254600D01*
X158780706Y-69241367D01*
X158608305Y-69189069D01*
X158449417Y-69104142D01*
X158310151Y-68989849D01*
X158195858Y-68850583D01*
X158110931Y-68691695D01*
X158058633Y-68519294D01*
X158040975Y-68340000D01*
X158058633Y-68160706D01*
X158110931Y-67988305D01*
X158195858Y-67829417D01*
X158310151Y-67690151D01*
X158449417Y-67575858D01*
X158608305Y-67490931D01*
X158780706Y-67438633D01*
X158915069Y-67425400D01*
X159004931Y-67425400D01*
X159139294Y-67438633D01*
X159139294Y-67438633D01*
G37*
G36*
X139570443Y-67025519D02*
G01*
X139636627Y-67032037D01*
X139806466Y-67083557D01*
X139806468Y-67083558D01*
X139884728Y-67125389D01*
X139962991Y-67167222D01*
X139998729Y-67196552D01*
X140100186Y-67279814D01*
X140183448Y-67381271D01*
X140212778Y-67417009D01*
X140296443Y-67573534D01*
X140347963Y-67743373D01*
X140365359Y-67920000D01*
X140347963Y-68096627D01*
X140296443Y-68266466D01*
X140212778Y-68422991D01*
X140183448Y-68458729D01*
X140100186Y-68560186D01*
X139998729Y-68643448D01*
X139962991Y-68672778D01*
X139806466Y-68756443D01*
X139636627Y-68807963D01*
X139570442Y-68814482D01*
X139504260Y-68821000D01*
X139415740Y-68821000D01*
X139349558Y-68814482D01*
X139283373Y-68807963D01*
X139113534Y-68756443D01*
X138957009Y-68672778D01*
X138921271Y-68643448D01*
X138819814Y-68560186D01*
X138736552Y-68458729D01*
X138707222Y-68422991D01*
X138623557Y-68266466D01*
X138572037Y-68096627D01*
X138554641Y-67920000D01*
X138572037Y-67743373D01*
X138623557Y-67573534D01*
X138707222Y-67417009D01*
X138736552Y-67381271D01*
X138819814Y-67279814D01*
X138921271Y-67196552D01*
X138957009Y-67167222D01*
X139035272Y-67125389D01*
X139113532Y-67083558D01*
X139113534Y-67083557D01*
X139283373Y-67032037D01*
X139349557Y-67025519D01*
X139415740Y-67019000D01*
X139504260Y-67019000D01*
X139570443Y-67025519D01*
X139570443Y-67025519D01*
G37*
G36*
X131570443Y-67025519D02*
G01*
X131636627Y-67032037D01*
X131806466Y-67083557D01*
X131806468Y-67083558D01*
X131884728Y-67125389D01*
X131962991Y-67167222D01*
X131998729Y-67196552D01*
X132100186Y-67279814D01*
X132183448Y-67381271D01*
X132212778Y-67417009D01*
X132296443Y-67573534D01*
X132347963Y-67743373D01*
X132365359Y-67920000D01*
X132347963Y-68096627D01*
X132296443Y-68266466D01*
X132212778Y-68422991D01*
X132183448Y-68458729D01*
X132100186Y-68560186D01*
X131998729Y-68643448D01*
X131962991Y-68672778D01*
X131806466Y-68756443D01*
X131636627Y-68807963D01*
X131570442Y-68814482D01*
X131504260Y-68821000D01*
X131415740Y-68821000D01*
X131349558Y-68814482D01*
X131283373Y-68807963D01*
X131113534Y-68756443D01*
X130957009Y-68672778D01*
X130921271Y-68643448D01*
X130819814Y-68560186D01*
X130736552Y-68458729D01*
X130707222Y-68422991D01*
X130623557Y-68266466D01*
X130572037Y-68096627D01*
X130554641Y-67920000D01*
X130572037Y-67743373D01*
X130623557Y-67573534D01*
X130707222Y-67417009D01*
X130736552Y-67381271D01*
X130819814Y-67279814D01*
X130921271Y-67196552D01*
X130957009Y-67167222D01*
X131035272Y-67125389D01*
X131113532Y-67083558D01*
X131113534Y-67083557D01*
X131283373Y-67032037D01*
X131349557Y-67025519D01*
X131415740Y-67019000D01*
X131504260Y-67019000D01*
X131570443Y-67025519D01*
X131570443Y-67025519D01*
G37*
G36*
X142110443Y-67025519D02*
G01*
X142176627Y-67032037D01*
X142346466Y-67083557D01*
X142346468Y-67083558D01*
X142424728Y-67125389D01*
X142502991Y-67167222D01*
X142538729Y-67196552D01*
X142640186Y-67279814D01*
X142723448Y-67381271D01*
X142752778Y-67417009D01*
X142836443Y-67573534D01*
X142887963Y-67743373D01*
X142905359Y-67920000D01*
X142887963Y-68096627D01*
X142836443Y-68266466D01*
X142752778Y-68422991D01*
X142723448Y-68458729D01*
X142640186Y-68560186D01*
X142538729Y-68643448D01*
X142502991Y-68672778D01*
X142346466Y-68756443D01*
X142176627Y-68807963D01*
X142110442Y-68814482D01*
X142044260Y-68821000D01*
X141955740Y-68821000D01*
X141889558Y-68814482D01*
X141823373Y-68807963D01*
X141653534Y-68756443D01*
X141497009Y-68672778D01*
X141461271Y-68643448D01*
X141359814Y-68560186D01*
X141276552Y-68458729D01*
X141247222Y-68422991D01*
X141163557Y-68266466D01*
X141112037Y-68096627D01*
X141094641Y-67920000D01*
X141112037Y-67743373D01*
X141163557Y-67573534D01*
X141247222Y-67417009D01*
X141276552Y-67381271D01*
X141359814Y-67279814D01*
X141461271Y-67196552D01*
X141497009Y-67167222D01*
X141575272Y-67125389D01*
X141653532Y-67083558D01*
X141653534Y-67083557D01*
X141823373Y-67032037D01*
X141889557Y-67025519D01*
X141955740Y-67019000D01*
X142044260Y-67019000D01*
X142110443Y-67025519D01*
X142110443Y-67025519D01*
G37*
G36*
X134110443Y-67025519D02*
G01*
X134176627Y-67032037D01*
X134346466Y-67083557D01*
X134346468Y-67083558D01*
X134424728Y-67125389D01*
X134502991Y-67167222D01*
X134538729Y-67196552D01*
X134640186Y-67279814D01*
X134723448Y-67381271D01*
X134752778Y-67417009D01*
X134836443Y-67573534D01*
X134887963Y-67743373D01*
X134905359Y-67920000D01*
X134887963Y-68096627D01*
X134836443Y-68266466D01*
X134752778Y-68422991D01*
X134723448Y-68458729D01*
X134640186Y-68560186D01*
X134538729Y-68643448D01*
X134502991Y-68672778D01*
X134346466Y-68756443D01*
X134176627Y-68807963D01*
X134110442Y-68814482D01*
X134044260Y-68821000D01*
X133955740Y-68821000D01*
X133889558Y-68814482D01*
X133823373Y-68807963D01*
X133653534Y-68756443D01*
X133497009Y-68672778D01*
X133461271Y-68643448D01*
X133359814Y-68560186D01*
X133276552Y-68458729D01*
X133247222Y-68422991D01*
X133163557Y-68266466D01*
X133112037Y-68096627D01*
X133094641Y-67920000D01*
X133112037Y-67743373D01*
X133163557Y-67573534D01*
X133247222Y-67417009D01*
X133276552Y-67381271D01*
X133359814Y-67279814D01*
X133461271Y-67196552D01*
X133497009Y-67167222D01*
X133575272Y-67125389D01*
X133653532Y-67083558D01*
X133653534Y-67083557D01*
X133823373Y-67032037D01*
X133889557Y-67025519D01*
X133955740Y-67019000D01*
X134044260Y-67019000D01*
X134110443Y-67025519D01*
X134110443Y-67025519D01*
G37*
G36*
X149110443Y-65565519D02*
G01*
X149176627Y-65572037D01*
X149346466Y-65623557D01*
X149502991Y-65707222D01*
X149526442Y-65726468D01*
X149640186Y-65819814D01*
X149692033Y-65882991D01*
X149752778Y-65957009D01*
X149836443Y-66113534D01*
X149887963Y-66283373D01*
X149905359Y-66460000D01*
X149887963Y-66636627D01*
X149836443Y-66806466D01*
X149752778Y-66962991D01*
X149723448Y-66998729D01*
X149640186Y-67100186D01*
X149558502Y-67167221D01*
X149502991Y-67212778D01*
X149502989Y-67212779D01*
X149377577Y-67279814D01*
X149346466Y-67296443D01*
X149176627Y-67347963D01*
X149110442Y-67354482D01*
X149044260Y-67361000D01*
X148955740Y-67361000D01*
X148889558Y-67354482D01*
X148823373Y-67347963D01*
X148653534Y-67296443D01*
X148622424Y-67279814D01*
X148497011Y-67212779D01*
X148497009Y-67212778D01*
X148441498Y-67167221D01*
X148359814Y-67100186D01*
X148276552Y-66998729D01*
X148247222Y-66962991D01*
X148163557Y-66806466D01*
X148112037Y-66636627D01*
X148094641Y-66460000D01*
X148112037Y-66283373D01*
X148163557Y-66113534D01*
X148247222Y-65957009D01*
X148307967Y-65882991D01*
X148359814Y-65819814D01*
X148473558Y-65726468D01*
X148497009Y-65707222D01*
X148653534Y-65623557D01*
X148823373Y-65572037D01*
X148889557Y-65565519D01*
X148955740Y-65559000D01*
X149044260Y-65559000D01*
X149110443Y-65565519D01*
X149110443Y-65565519D01*
G37*
G36*
X159139294Y-64898633D02*
G01*
X159311695Y-64950931D01*
X159470583Y-65035858D01*
X159609849Y-65150151D01*
X159724142Y-65289417D01*
X159809069Y-65448305D01*
X159861367Y-65620706D01*
X159879025Y-65800000D01*
X159861367Y-65979294D01*
X159809069Y-66151695D01*
X159724142Y-66310583D01*
X159609849Y-66449849D01*
X159470583Y-66564142D01*
X159311695Y-66649069D01*
X159139294Y-66701367D01*
X159004931Y-66714600D01*
X158915069Y-66714600D01*
X158780706Y-66701367D01*
X158608305Y-66649069D01*
X158449417Y-66564142D01*
X158310151Y-66449849D01*
X158195858Y-66310583D01*
X158110931Y-66151695D01*
X158058633Y-65979294D01*
X158040975Y-65800000D01*
X158058633Y-65620706D01*
X158110931Y-65448305D01*
X158195858Y-65289417D01*
X158310151Y-65150151D01*
X158449417Y-65035858D01*
X158608305Y-64950931D01*
X158780706Y-64898633D01*
X158915069Y-64885400D01*
X159004931Y-64885400D01*
X159139294Y-64898633D01*
X159139294Y-64898633D01*
G37*
G36*
X161679294Y-64898633D02*
G01*
X161851695Y-64950931D01*
X162010583Y-65035858D01*
X162149849Y-65150151D01*
X162264142Y-65289417D01*
X162349069Y-65448305D01*
X162401367Y-65620706D01*
X162419025Y-65800000D01*
X162401367Y-65979294D01*
X162349069Y-66151695D01*
X162264142Y-66310583D01*
X162149849Y-66449849D01*
X162010583Y-66564142D01*
X161851695Y-66649069D01*
X161679294Y-66701367D01*
X161544931Y-66714600D01*
X161455069Y-66714600D01*
X161320706Y-66701367D01*
X161148305Y-66649069D01*
X160989417Y-66564142D01*
X160850151Y-66449849D01*
X160735858Y-66310583D01*
X160650931Y-66151695D01*
X160598633Y-65979294D01*
X160580975Y-65800000D01*
X160598633Y-65620706D01*
X160650931Y-65448305D01*
X160735858Y-65289417D01*
X160850151Y-65150151D01*
X160989417Y-65035858D01*
X161148305Y-64950931D01*
X161320706Y-64898633D01*
X161455069Y-64885400D01*
X161544931Y-64885400D01*
X161679294Y-64898633D01*
X161679294Y-64898633D01*
G37*
G36*
X134110442Y-64485518D02*
G01*
X134176627Y-64492037D01*
X134346466Y-64543557D01*
X134346468Y-64543558D01*
X134424729Y-64585390D01*
X134502991Y-64627222D01*
X134538729Y-64656552D01*
X134640186Y-64739814D01*
X134723448Y-64841271D01*
X134752778Y-64877009D01*
X134836443Y-65033534D01*
X134887963Y-65203373D01*
X134905359Y-65380000D01*
X134887963Y-65556627D01*
X134836443Y-65726466D01*
X134752778Y-65882991D01*
X134723448Y-65918729D01*
X134640186Y-66020186D01*
X134538729Y-66103448D01*
X134502991Y-66132778D01*
X134346466Y-66216443D01*
X134176627Y-66267963D01*
X134110443Y-66274481D01*
X134044260Y-66281000D01*
X133955740Y-66281000D01*
X133889557Y-66274481D01*
X133823373Y-66267963D01*
X133653534Y-66216443D01*
X133497009Y-66132778D01*
X133461271Y-66103448D01*
X133359814Y-66020186D01*
X133276552Y-65918729D01*
X133247222Y-65882991D01*
X133163557Y-65726466D01*
X133112037Y-65556627D01*
X133094641Y-65380000D01*
X133112037Y-65203373D01*
X133163557Y-65033534D01*
X133247222Y-64877009D01*
X133276552Y-64841271D01*
X133359814Y-64739814D01*
X133461271Y-64656552D01*
X133497009Y-64627222D01*
X133575272Y-64585389D01*
X133653532Y-64543558D01*
X133653534Y-64543557D01*
X133823373Y-64492037D01*
X133889558Y-64485518D01*
X133955740Y-64479000D01*
X134044260Y-64479000D01*
X134110442Y-64485518D01*
X134110442Y-64485518D01*
G37*
G36*
X131570442Y-64485518D02*
G01*
X131636627Y-64492037D01*
X131806466Y-64543557D01*
X131806468Y-64543558D01*
X131884729Y-64585390D01*
X131962991Y-64627222D01*
X131998729Y-64656552D01*
X132100186Y-64739814D01*
X132183448Y-64841271D01*
X132212778Y-64877009D01*
X132296443Y-65033534D01*
X132347963Y-65203373D01*
X132365359Y-65380000D01*
X132347963Y-65556627D01*
X132296443Y-65726466D01*
X132212778Y-65882991D01*
X132183448Y-65918729D01*
X132100186Y-66020186D01*
X131998729Y-66103448D01*
X131962991Y-66132778D01*
X131806466Y-66216443D01*
X131636627Y-66267963D01*
X131570443Y-66274481D01*
X131504260Y-66281000D01*
X131415740Y-66281000D01*
X131349557Y-66274481D01*
X131283373Y-66267963D01*
X131113534Y-66216443D01*
X130957009Y-66132778D01*
X130921271Y-66103448D01*
X130819814Y-66020186D01*
X130736552Y-65918729D01*
X130707222Y-65882991D01*
X130623557Y-65726466D01*
X130572037Y-65556627D01*
X130554641Y-65380000D01*
X130572037Y-65203373D01*
X130623557Y-65033534D01*
X130707222Y-64877009D01*
X130736552Y-64841271D01*
X130819814Y-64739814D01*
X130921271Y-64656552D01*
X130957009Y-64627222D01*
X131035272Y-64585389D01*
X131113532Y-64543558D01*
X131113534Y-64543557D01*
X131283373Y-64492037D01*
X131349558Y-64485518D01*
X131415740Y-64479000D01*
X131504260Y-64479000D01*
X131570442Y-64485518D01*
X131570442Y-64485518D01*
G37*
G36*
X142110442Y-64485518D02*
G01*
X142176627Y-64492037D01*
X142346466Y-64543557D01*
X142346468Y-64543558D01*
X142424729Y-64585390D01*
X142502991Y-64627222D01*
X142538729Y-64656552D01*
X142640186Y-64739814D01*
X142723448Y-64841271D01*
X142752778Y-64877009D01*
X142836443Y-65033534D01*
X142887963Y-65203373D01*
X142905359Y-65380000D01*
X142887963Y-65556627D01*
X142836443Y-65726466D01*
X142752778Y-65882991D01*
X142723448Y-65918729D01*
X142640186Y-66020186D01*
X142538729Y-66103448D01*
X142502991Y-66132778D01*
X142346466Y-66216443D01*
X142176627Y-66267963D01*
X142110443Y-66274481D01*
X142044260Y-66281000D01*
X141955740Y-66281000D01*
X141889557Y-66274481D01*
X141823373Y-66267963D01*
X141653534Y-66216443D01*
X141497009Y-66132778D01*
X141461271Y-66103448D01*
X141359814Y-66020186D01*
X141276552Y-65918729D01*
X141247222Y-65882991D01*
X141163557Y-65726466D01*
X141112037Y-65556627D01*
X141094641Y-65380000D01*
X141112037Y-65203373D01*
X141163557Y-65033534D01*
X141247222Y-64877009D01*
X141276552Y-64841271D01*
X141359814Y-64739814D01*
X141461271Y-64656552D01*
X141497009Y-64627222D01*
X141575272Y-64585389D01*
X141653532Y-64543558D01*
X141653534Y-64543557D01*
X141823373Y-64492037D01*
X141889558Y-64485518D01*
X141955740Y-64479000D01*
X142044260Y-64479000D01*
X142110442Y-64485518D01*
X142110442Y-64485518D01*
G37*
G36*
X139570442Y-64485518D02*
G01*
X139636627Y-64492037D01*
X139806466Y-64543557D01*
X139806468Y-64543558D01*
X139884729Y-64585390D01*
X139962991Y-64627222D01*
X139998729Y-64656552D01*
X140100186Y-64739814D01*
X140183448Y-64841271D01*
X140212778Y-64877009D01*
X140296443Y-65033534D01*
X140347963Y-65203373D01*
X140365359Y-65380000D01*
X140347963Y-65556627D01*
X140296443Y-65726466D01*
X140212778Y-65882991D01*
X140183448Y-65918729D01*
X140100186Y-66020186D01*
X139998729Y-66103448D01*
X139962991Y-66132778D01*
X139806466Y-66216443D01*
X139636627Y-66267963D01*
X139570443Y-66274481D01*
X139504260Y-66281000D01*
X139415740Y-66281000D01*
X139349557Y-66274481D01*
X139283373Y-66267963D01*
X139113534Y-66216443D01*
X138957009Y-66132778D01*
X138921271Y-66103448D01*
X138819814Y-66020186D01*
X138736552Y-65918729D01*
X138707222Y-65882991D01*
X138623557Y-65726466D01*
X138572037Y-65556627D01*
X138554641Y-65380000D01*
X138572037Y-65203373D01*
X138623557Y-65033534D01*
X138707222Y-64877009D01*
X138736552Y-64841271D01*
X138819814Y-64739814D01*
X138921271Y-64656552D01*
X138957009Y-64627222D01*
X139035272Y-64585389D01*
X139113532Y-64543558D01*
X139113534Y-64543557D01*
X139283373Y-64492037D01*
X139349558Y-64485518D01*
X139415740Y-64479000D01*
X139504260Y-64479000D01*
X139570442Y-64485518D01*
X139570442Y-64485518D01*
G37*
G36*
X149110442Y-63025518D02*
G01*
X149176627Y-63032037D01*
X149346466Y-63083557D01*
X149502991Y-63167222D01*
X149526442Y-63186468D01*
X149640186Y-63279814D01*
X149692033Y-63342991D01*
X149752778Y-63417009D01*
X149836443Y-63573534D01*
X149887963Y-63743373D01*
X149905359Y-63920000D01*
X149887963Y-64096627D01*
X149836443Y-64266466D01*
X149752778Y-64422991D01*
X149723448Y-64458729D01*
X149640186Y-64560186D01*
X149558502Y-64627221D01*
X149502991Y-64672778D01*
X149502989Y-64672779D01*
X149377577Y-64739814D01*
X149346466Y-64756443D01*
X149176627Y-64807963D01*
X149110443Y-64814481D01*
X149044260Y-64821000D01*
X148955740Y-64821000D01*
X148889557Y-64814481D01*
X148823373Y-64807963D01*
X148653534Y-64756443D01*
X148622424Y-64739814D01*
X148497011Y-64672779D01*
X148497009Y-64672778D01*
X148441498Y-64627221D01*
X148359814Y-64560186D01*
X148276552Y-64458729D01*
X148247222Y-64422991D01*
X148163557Y-64266466D01*
X148112037Y-64096627D01*
X148094641Y-63920000D01*
X148112037Y-63743373D01*
X148163557Y-63573534D01*
X148247222Y-63417009D01*
X148307967Y-63342991D01*
X148359814Y-63279814D01*
X148473558Y-63186468D01*
X148497009Y-63167222D01*
X148653534Y-63083557D01*
X148823373Y-63032037D01*
X148889558Y-63025518D01*
X148955740Y-63019000D01*
X149044260Y-63019000D01*
X149110442Y-63025518D01*
X149110442Y-63025518D01*
G37*
G36*
X159139294Y-62358633D02*
G01*
X159311695Y-62410931D01*
X159470583Y-62495858D01*
X159609849Y-62610151D01*
X159724142Y-62749417D01*
X159809069Y-62908305D01*
X159861367Y-63080706D01*
X159879025Y-63260000D01*
X159861367Y-63439294D01*
X159809069Y-63611695D01*
X159724142Y-63770583D01*
X159609849Y-63909849D01*
X159470583Y-64024142D01*
X159311695Y-64109069D01*
X159139294Y-64161367D01*
X159004931Y-64174600D01*
X158915069Y-64174600D01*
X158780706Y-64161367D01*
X158608305Y-64109069D01*
X158449417Y-64024142D01*
X158310151Y-63909849D01*
X158195858Y-63770583D01*
X158110931Y-63611695D01*
X158058633Y-63439294D01*
X158040975Y-63260000D01*
X158058633Y-63080706D01*
X158110931Y-62908305D01*
X158195858Y-62749417D01*
X158310151Y-62610151D01*
X158449417Y-62495858D01*
X158608305Y-62410931D01*
X158780706Y-62358633D01*
X158915069Y-62345400D01*
X159004931Y-62345400D01*
X159139294Y-62358633D01*
X159139294Y-62358633D01*
G37*
G36*
X161679294Y-62358633D02*
G01*
X161851695Y-62410931D01*
X162010583Y-62495858D01*
X162149849Y-62610151D01*
X162264142Y-62749417D01*
X162349069Y-62908305D01*
X162401367Y-63080706D01*
X162419025Y-63260000D01*
X162401367Y-63439294D01*
X162349069Y-63611695D01*
X162264142Y-63770583D01*
X162149849Y-63909849D01*
X162010583Y-64024142D01*
X161851695Y-64109069D01*
X161679294Y-64161367D01*
X161544931Y-64174600D01*
X161455069Y-64174600D01*
X161320706Y-64161367D01*
X161148305Y-64109069D01*
X160989417Y-64024142D01*
X160850151Y-63909849D01*
X160735858Y-63770583D01*
X160650931Y-63611695D01*
X160598633Y-63439294D01*
X160580975Y-63260000D01*
X160598633Y-63080706D01*
X160650931Y-62908305D01*
X160735858Y-62749417D01*
X160850151Y-62610151D01*
X160989417Y-62495858D01*
X161148305Y-62410931D01*
X161320706Y-62358633D01*
X161455069Y-62345400D01*
X161544931Y-62345400D01*
X161679294Y-62358633D01*
X161679294Y-62358633D01*
G37*
G36*
X131570442Y-61945518D02*
G01*
X131636627Y-61952037D01*
X131806466Y-62003557D01*
X131962991Y-62087222D01*
X131998729Y-62116552D01*
X132100186Y-62199814D01*
X132183448Y-62301271D01*
X132212778Y-62337009D01*
X132296443Y-62493534D01*
X132347963Y-62663373D01*
X132365359Y-62840000D01*
X132347963Y-63016627D01*
X132296443Y-63186466D01*
X132212778Y-63342991D01*
X132183448Y-63378729D01*
X132100186Y-63480186D01*
X131998729Y-63563448D01*
X131962991Y-63592778D01*
X131806466Y-63676443D01*
X131636627Y-63727963D01*
X131570443Y-63734481D01*
X131504260Y-63741000D01*
X131415740Y-63741000D01*
X131349557Y-63734481D01*
X131283373Y-63727963D01*
X131113534Y-63676443D01*
X130957009Y-63592778D01*
X130921271Y-63563448D01*
X130819814Y-63480186D01*
X130736552Y-63378729D01*
X130707222Y-63342991D01*
X130623557Y-63186466D01*
X130572037Y-63016627D01*
X130554641Y-62840000D01*
X130572037Y-62663373D01*
X130623557Y-62493534D01*
X130707222Y-62337009D01*
X130736552Y-62301271D01*
X130819814Y-62199814D01*
X130921271Y-62116552D01*
X130957009Y-62087222D01*
X131113534Y-62003557D01*
X131283373Y-61952037D01*
X131349558Y-61945518D01*
X131415740Y-61939000D01*
X131504260Y-61939000D01*
X131570442Y-61945518D01*
X131570442Y-61945518D01*
G37*
G36*
X142110442Y-61945518D02*
G01*
X142176627Y-61952037D01*
X142346466Y-62003557D01*
X142502991Y-62087222D01*
X142538729Y-62116552D01*
X142640186Y-62199814D01*
X142723448Y-62301271D01*
X142752778Y-62337009D01*
X142836443Y-62493534D01*
X142887963Y-62663373D01*
X142905359Y-62840000D01*
X142887963Y-63016627D01*
X142836443Y-63186466D01*
X142752778Y-63342991D01*
X142723448Y-63378729D01*
X142640186Y-63480186D01*
X142538729Y-63563448D01*
X142502991Y-63592778D01*
X142346466Y-63676443D01*
X142176627Y-63727963D01*
X142110443Y-63734481D01*
X142044260Y-63741000D01*
X141955740Y-63741000D01*
X141889557Y-63734481D01*
X141823373Y-63727963D01*
X141653534Y-63676443D01*
X141497009Y-63592778D01*
X141461271Y-63563448D01*
X141359814Y-63480186D01*
X141276552Y-63378729D01*
X141247222Y-63342991D01*
X141163557Y-63186466D01*
X141112037Y-63016627D01*
X141094641Y-62840000D01*
X141112037Y-62663373D01*
X141163557Y-62493534D01*
X141247222Y-62337009D01*
X141276552Y-62301271D01*
X141359814Y-62199814D01*
X141461271Y-62116552D01*
X141497009Y-62087222D01*
X141653534Y-62003557D01*
X141823373Y-61952037D01*
X141889558Y-61945518D01*
X141955740Y-61939000D01*
X142044260Y-61939000D01*
X142110442Y-61945518D01*
X142110442Y-61945518D01*
G37*
G36*
X139570442Y-61945518D02*
G01*
X139636627Y-61952037D01*
X139806466Y-62003557D01*
X139962991Y-62087222D01*
X139998729Y-62116552D01*
X140100186Y-62199814D01*
X140183448Y-62301271D01*
X140212778Y-62337009D01*
X140296443Y-62493534D01*
X140347963Y-62663373D01*
X140365359Y-62840000D01*
X140347963Y-63016627D01*
X140296443Y-63186466D01*
X140212778Y-63342991D01*
X140183448Y-63378729D01*
X140100186Y-63480186D01*
X139998729Y-63563448D01*
X139962991Y-63592778D01*
X139806466Y-63676443D01*
X139636627Y-63727963D01*
X139570443Y-63734481D01*
X139504260Y-63741000D01*
X139415740Y-63741000D01*
X139349557Y-63734481D01*
X139283373Y-63727963D01*
X139113534Y-63676443D01*
X138957009Y-63592778D01*
X138921271Y-63563448D01*
X138819814Y-63480186D01*
X138736552Y-63378729D01*
X138707222Y-63342991D01*
X138623557Y-63186466D01*
X138572037Y-63016627D01*
X138554641Y-62840000D01*
X138572037Y-62663373D01*
X138623557Y-62493534D01*
X138707222Y-62337009D01*
X138736552Y-62301271D01*
X138819814Y-62199814D01*
X138921271Y-62116552D01*
X138957009Y-62087222D01*
X139113534Y-62003557D01*
X139283373Y-61952037D01*
X139349558Y-61945518D01*
X139415740Y-61939000D01*
X139504260Y-61939000D01*
X139570442Y-61945518D01*
X139570442Y-61945518D01*
G37*
G36*
X134110442Y-61945518D02*
G01*
X134176627Y-61952037D01*
X134346466Y-62003557D01*
X134502991Y-62087222D01*
X134538729Y-62116552D01*
X134640186Y-62199814D01*
X134723448Y-62301271D01*
X134752778Y-62337009D01*
X134836443Y-62493534D01*
X134887963Y-62663373D01*
X134905359Y-62840000D01*
X134887963Y-63016627D01*
X134836443Y-63186466D01*
X134752778Y-63342991D01*
X134723448Y-63378729D01*
X134640186Y-63480186D01*
X134538729Y-63563448D01*
X134502991Y-63592778D01*
X134346466Y-63676443D01*
X134176627Y-63727963D01*
X134110443Y-63734481D01*
X134044260Y-63741000D01*
X133955740Y-63741000D01*
X133889557Y-63734481D01*
X133823373Y-63727963D01*
X133653534Y-63676443D01*
X133497009Y-63592778D01*
X133461271Y-63563448D01*
X133359814Y-63480186D01*
X133276552Y-63378729D01*
X133247222Y-63342991D01*
X133163557Y-63186466D01*
X133112037Y-63016627D01*
X133094641Y-62840000D01*
X133112037Y-62663373D01*
X133163557Y-62493534D01*
X133247222Y-62337009D01*
X133276552Y-62301271D01*
X133359814Y-62199814D01*
X133461271Y-62116552D01*
X133497009Y-62087222D01*
X133653534Y-62003557D01*
X133823373Y-61952037D01*
X133889558Y-61945518D01*
X133955740Y-61939000D01*
X134044260Y-61939000D01*
X134110442Y-61945518D01*
X134110442Y-61945518D01*
G37*
G36*
X159139294Y-59818633D02*
G01*
X159311695Y-59870931D01*
X159470583Y-59955858D01*
X159609849Y-60070151D01*
X159724142Y-60209417D01*
X159809069Y-60368305D01*
X159861367Y-60540706D01*
X159879025Y-60720000D01*
X159861367Y-60899294D01*
X159809069Y-61071695D01*
X159724142Y-61230583D01*
X159609849Y-61369849D01*
X159470583Y-61484142D01*
X159311695Y-61569069D01*
X159139294Y-61621367D01*
X159004931Y-61634600D01*
X158915069Y-61634600D01*
X158780706Y-61621367D01*
X158608305Y-61569069D01*
X158449417Y-61484142D01*
X158310151Y-61369849D01*
X158195858Y-61230583D01*
X158110931Y-61071695D01*
X158058633Y-60899294D01*
X158040975Y-60720000D01*
X158058633Y-60540706D01*
X158110931Y-60368305D01*
X158195858Y-60209417D01*
X158310151Y-60070151D01*
X158449417Y-59955858D01*
X158608305Y-59870931D01*
X158780706Y-59818633D01*
X158915069Y-59805400D01*
X159004931Y-59805400D01*
X159139294Y-59818633D01*
X159139294Y-59818633D01*
G37*
G36*
X161679294Y-59818633D02*
G01*
X161851695Y-59870931D01*
X162010583Y-59955858D01*
X162149849Y-60070151D01*
X162264142Y-60209417D01*
X162349069Y-60368305D01*
X162401367Y-60540706D01*
X162419025Y-60720000D01*
X162401367Y-60899294D01*
X162349069Y-61071695D01*
X162264142Y-61230583D01*
X162149849Y-61369849D01*
X162010583Y-61484142D01*
X161851695Y-61569069D01*
X161679294Y-61621367D01*
X161544931Y-61634600D01*
X161455069Y-61634600D01*
X161320706Y-61621367D01*
X161148305Y-61569069D01*
X160989417Y-61484142D01*
X160850151Y-61369849D01*
X160735858Y-61230583D01*
X160650931Y-61071695D01*
X160598633Y-60899294D01*
X160580975Y-60720000D01*
X160598633Y-60540706D01*
X160650931Y-60368305D01*
X160735858Y-60209417D01*
X160850151Y-60070151D01*
X160989417Y-59955858D01*
X161148305Y-59870931D01*
X161320706Y-59818633D01*
X161455069Y-59805400D01*
X161544931Y-59805400D01*
X161679294Y-59818633D01*
X161679294Y-59818633D01*
G37*
G36*
X159139294Y-57278633D02*
G01*
X159311695Y-57330931D01*
X159470583Y-57415858D01*
X159609849Y-57530151D01*
X159724142Y-57669417D01*
X159809069Y-57828305D01*
X159861367Y-58000706D01*
X159879025Y-58180000D01*
X159861367Y-58359294D01*
X159809069Y-58531695D01*
X159724142Y-58690583D01*
X159609849Y-58829849D01*
X159470583Y-58944142D01*
X159311695Y-59029069D01*
X159139294Y-59081367D01*
X159004931Y-59094600D01*
X158915069Y-59094600D01*
X158780706Y-59081367D01*
X158608305Y-59029069D01*
X158449417Y-58944142D01*
X158310151Y-58829849D01*
X158195858Y-58690583D01*
X158110931Y-58531695D01*
X158058633Y-58359294D01*
X158040975Y-58180000D01*
X158058633Y-58000706D01*
X158110931Y-57828305D01*
X158195858Y-57669417D01*
X158310151Y-57530151D01*
X158449417Y-57415858D01*
X158608305Y-57330931D01*
X158780706Y-57278633D01*
X158915069Y-57265400D01*
X159004931Y-57265400D01*
X159139294Y-57278633D01*
X159139294Y-57278633D01*
G37*
G36*
X161679294Y-57278633D02*
G01*
X161851695Y-57330931D01*
X162010583Y-57415858D01*
X162149849Y-57530151D01*
X162264142Y-57669417D01*
X162349069Y-57828305D01*
X162401367Y-58000706D01*
X162419025Y-58180000D01*
X162401367Y-58359294D01*
X162349069Y-58531695D01*
X162264142Y-58690583D01*
X162149849Y-58829849D01*
X162010583Y-58944142D01*
X161851695Y-59029069D01*
X161679294Y-59081367D01*
X161544931Y-59094600D01*
X161455069Y-59094600D01*
X161320706Y-59081367D01*
X161148305Y-59029069D01*
X160989417Y-58944142D01*
X160850151Y-58829849D01*
X160735858Y-58690583D01*
X160650931Y-58531695D01*
X160598633Y-58359294D01*
X160580975Y-58180000D01*
X160598633Y-58000706D01*
X160650931Y-57828305D01*
X160735858Y-57669417D01*
X160850151Y-57530151D01*
X160989417Y-57415858D01*
X161148305Y-57330931D01*
X161320706Y-57278633D01*
X161455069Y-57265400D01*
X161544931Y-57265400D01*
X161679294Y-57278633D01*
X161679294Y-57278633D01*
G37*
G36*
X161679294Y-54738633D02*
G01*
X161851695Y-54790931D01*
X162010583Y-54875858D01*
X162149849Y-54990151D01*
X162264142Y-55129417D01*
X162349069Y-55288305D01*
X162401367Y-55460706D01*
X162419025Y-55640000D01*
X162401367Y-55819294D01*
X162349069Y-55991695D01*
X162264142Y-56150583D01*
X162149849Y-56289849D01*
X162010583Y-56404142D01*
X161851695Y-56489069D01*
X161679294Y-56541367D01*
X161544931Y-56554600D01*
X161455069Y-56554600D01*
X161320706Y-56541367D01*
X161148305Y-56489069D01*
X160989417Y-56404142D01*
X160850151Y-56289849D01*
X160735858Y-56150583D01*
X160650931Y-55991695D01*
X160598633Y-55819294D01*
X160580975Y-55640000D01*
X160598633Y-55460706D01*
X160650931Y-55288305D01*
X160735858Y-55129417D01*
X160850151Y-54990151D01*
X160989417Y-54875858D01*
X161148305Y-54790931D01*
X161320706Y-54738633D01*
X161455069Y-54725400D01*
X161544931Y-54725400D01*
X161679294Y-54738633D01*
X161679294Y-54738633D01*
G37*
G36*
X159139294Y-54738633D02*
G01*
X159311695Y-54790931D01*
X159470583Y-54875858D01*
X159609849Y-54990151D01*
X159724142Y-55129417D01*
X159809069Y-55288305D01*
X159861367Y-55460706D01*
X159879025Y-55640000D01*
X159861367Y-55819294D01*
X159809069Y-55991695D01*
X159724142Y-56150583D01*
X159609849Y-56289849D01*
X159470583Y-56404142D01*
X159311695Y-56489069D01*
X159139294Y-56541367D01*
X159004931Y-56554600D01*
X158915069Y-56554600D01*
X158780706Y-56541367D01*
X158608305Y-56489069D01*
X158449417Y-56404142D01*
X158310151Y-56289849D01*
X158195858Y-56150583D01*
X158110931Y-55991695D01*
X158058633Y-55819294D01*
X158040975Y-55640000D01*
X158058633Y-55460706D01*
X158110931Y-55288305D01*
X158195858Y-55129417D01*
X158310151Y-54990151D01*
X158449417Y-54875858D01*
X158608305Y-54790931D01*
X158780706Y-54738633D01*
X158915069Y-54725400D01*
X159004931Y-54725400D01*
X159139294Y-54738633D01*
X159139294Y-54738633D01*
G37*
G36*
X147230442Y-52705518D02*
G01*
X147296627Y-52712037D01*
X147466466Y-52763557D01*
X147622991Y-52847222D01*
X147658729Y-52876552D01*
X147760186Y-52959814D01*
X147843448Y-53061271D01*
X147872778Y-53097009D01*
X147956443Y-53253534D01*
X148007963Y-53423373D01*
X148025359Y-53600000D01*
X148007963Y-53776627D01*
X147956443Y-53946466D01*
X147872778Y-54102991D01*
X147843448Y-54138729D01*
X147760186Y-54240186D01*
X147658729Y-54323448D01*
X147622991Y-54352778D01*
X147466466Y-54436443D01*
X147296627Y-54487963D01*
X147230443Y-54494481D01*
X147164260Y-54501000D01*
X147075740Y-54501000D01*
X147009557Y-54494481D01*
X146943373Y-54487963D01*
X146773534Y-54436443D01*
X146617009Y-54352778D01*
X146581271Y-54323448D01*
X146479814Y-54240186D01*
X146396552Y-54138729D01*
X146367222Y-54102991D01*
X146283557Y-53946466D01*
X146232037Y-53776627D01*
X146214641Y-53600000D01*
X146232037Y-53423373D01*
X146283557Y-53253534D01*
X146367222Y-53097009D01*
X146396552Y-53061271D01*
X146479814Y-52959814D01*
X146581271Y-52876552D01*
X146617009Y-52847222D01*
X146773534Y-52763557D01*
X146943373Y-52712037D01*
X147009558Y-52705518D01*
X147075740Y-52699000D01*
X147164260Y-52699000D01*
X147230442Y-52705518D01*
X147230442Y-52705518D01*
G37*
G36*
X153101000Y-54501000D02*
G01*
X151299000Y-54501000D01*
X151299000Y-52699000D01*
X153101000Y-52699000D01*
X153101000Y-54501000D01*
X153101000Y-54501000D01*
G37*
G36*
X149770442Y-52705518D02*
G01*
X149836627Y-52712037D01*
X150006466Y-52763557D01*
X150162991Y-52847222D01*
X150198729Y-52876552D01*
X150300186Y-52959814D01*
X150383448Y-53061271D01*
X150412778Y-53097009D01*
X150496443Y-53253534D01*
X150547963Y-53423373D01*
X150565359Y-53600000D01*
X150547963Y-53776627D01*
X150496443Y-53946466D01*
X150412778Y-54102991D01*
X150383448Y-54138729D01*
X150300186Y-54240186D01*
X150198729Y-54323448D01*
X150162991Y-54352778D01*
X150006466Y-54436443D01*
X149836627Y-54487963D01*
X149770443Y-54494481D01*
X149704260Y-54501000D01*
X149615740Y-54501000D01*
X149549557Y-54494481D01*
X149483373Y-54487963D01*
X149313534Y-54436443D01*
X149157009Y-54352778D01*
X149121271Y-54323448D01*
X149019814Y-54240186D01*
X148936552Y-54138729D01*
X148907222Y-54102991D01*
X148823557Y-53946466D01*
X148772037Y-53776627D01*
X148754641Y-53600000D01*
X148772037Y-53423373D01*
X148823557Y-53253534D01*
X148907222Y-53097009D01*
X148936552Y-53061271D01*
X149019814Y-52959814D01*
X149121271Y-52876552D01*
X149157009Y-52847222D01*
X149313534Y-52763557D01*
X149483373Y-52712037D01*
X149549558Y-52705518D01*
X149615740Y-52699000D01*
X149704260Y-52699000D01*
X149770442Y-52705518D01*
X149770442Y-52705518D01*
G37*
M02*
