M48
; DRILL file {KiCad (5.1.4)-1} date 2020/2/29 23:53:25
; FORMAT={-:-/ absolute / inch / decimal}
; #@! TF.CreationDate,2020-02-29T23:53:25+08:00
; #@! TF.GenerationSoftware,Kicad,Pcbnew,(5.1.4)-1
; #@! TF.FileFunction,Plated,1,2,PTH
FMAT,2
INCH
T1C0.0157
T2C0.0394
T3C0.0400
%
G90
G05
T1
X5.2362Y-2.3622
T2
X5.1756Y-2.474
X5.1756Y-2.574
X5.1756Y-2.674
X5.1756Y-2.774
X5.1756Y-2.874
X5.2756Y-2.474
X5.2756Y-2.574
X5.2756Y-2.674
X5.2756Y-2.774
X5.2756Y-2.874
X5.8661Y-2.5165
X5.8661Y-2.6165
X5.8661Y-2.7165
X5.8661Y-2.8165
X5.4906Y-2.474
X5.4906Y-2.574
X5.4906Y-2.674
X5.4906Y-2.774
X5.4906Y-2.874
X5.5906Y-2.474
X5.5906Y-2.574
X5.5906Y-2.674
X5.5906Y-2.774
X5.5906Y-2.874
X5.7921Y-2.1102
X5.8921Y-2.1102
X5.9921Y-2.1102
T3
X6.2583Y-2.1906
X6.2583Y-2.2906
X6.2583Y-2.3906
X6.2583Y-2.4906
X6.2583Y-2.5906
X6.2583Y-2.6906
X6.2583Y-2.7906
X6.2583Y-2.8906
X6.2583Y-2.9906
X6.2583Y-3.0906
X6.3583Y-2.1906
X6.3583Y-2.2906
X6.3583Y-2.3906
X6.3583Y-2.4906
X6.3583Y-2.5906
X6.3583Y-2.6906
X6.3583Y-2.7906
X6.3583Y-2.8906
X6.3583Y-2.9906
X6.3583Y-3.0906
T0
M30
