G04 #@! TF.GenerationSoftware,KiCad,Pcbnew,(5.1.4)-1*
G04 #@! TF.CreationDate,2020-02-29T23:53:27+08:00*
G04 #@! TF.ProjectId,adapter_20p,61646170-7465-4725-9f32-30702e6b6963,rev?*
G04 #@! TF.SameCoordinates,Original*
G04 #@! TF.FileFunction,Copper,L1,Top*
G04 #@! TF.FilePolarity,Positive*
%FSLAX46Y46*%
G04 Gerber Fmt 4.6, Leading zero omitted, Abs format (unit mm)*
G04 Created by KiCad (PCBNEW (5.1.4)-1) date 2020-02-29 23:53:27*
%MOMM*%
%LPD*%
G04 APERTURE LIST*
%ADD10O,1.700000X1.700000*%
%ADD11R,1.700000X1.700000*%
%ADD12O,1.727200X1.727200*%
%ADD13R,1.727200X1.727200*%
%ADD14C,0.800000*%
%ADD15C,0.250000*%
%ADD16C,0.254000*%
%ADD17C,0.025400*%
G04 APERTURE END LIST*
D10*
X131460000Y-62840000D03*
X134000000Y-62840000D03*
X131460000Y-65380000D03*
X134000000Y-65380000D03*
X131460000Y-67920000D03*
X134000000Y-67920000D03*
X131460000Y-70460000D03*
X134000000Y-70460000D03*
X131460000Y-73000000D03*
D11*
X134000000Y-73000000D03*
D10*
X149000000Y-63920000D03*
X149000000Y-66460000D03*
X149000000Y-69000000D03*
D11*
X149000000Y-71540000D03*
D10*
X139460000Y-62840000D03*
X142000000Y-62840000D03*
X139460000Y-65380000D03*
X142000000Y-65380000D03*
X139460000Y-67920000D03*
X142000000Y-67920000D03*
X139460000Y-70460000D03*
X142000000Y-70460000D03*
X139460000Y-73000000D03*
D11*
X142000000Y-73000000D03*
D10*
X147120000Y-53600000D03*
X149660000Y-53600000D03*
D11*
X152200000Y-53600000D03*
D12*
X158960000Y-55640000D03*
X161500000Y-55640000D03*
X158960000Y-58180000D03*
X161500000Y-58180000D03*
X158960000Y-60720000D03*
X161500000Y-60720000D03*
X158960000Y-63260000D03*
X161500000Y-63260000D03*
X158960000Y-65800000D03*
X161500000Y-65800000D03*
X158960000Y-68340000D03*
X161500000Y-68340000D03*
X158960000Y-70880000D03*
X161500000Y-70880000D03*
X158960000Y-73420000D03*
X161500000Y-73420000D03*
X158960000Y-75960000D03*
X161500000Y-75960000D03*
X158960000Y-78500000D03*
D13*
X161500000Y-78500000D03*
D14*
X133000000Y-60000000D03*
D15*
X131460000Y-62840000D02*
X135800000Y-58500000D01*
X142220000Y-58500000D02*
X147120000Y-53600000D01*
X135800000Y-58500000D02*
X142220000Y-58500000D01*
X134000000Y-62840000D02*
X137640000Y-59200000D01*
X144060000Y-59200000D02*
X149660000Y-53600000D01*
X137640000Y-59200000D02*
X144060000Y-59200000D01*
X141150001Y-67070001D02*
X142000000Y-67920000D01*
X140824999Y-66744999D02*
X141150001Y-67070001D01*
X135364999Y-66744999D02*
X140824999Y-66744999D01*
X134000000Y-65380000D02*
X135364999Y-66744999D01*
X142000000Y-67920000D02*
X144380000Y-70300000D01*
X144380000Y-70300000D02*
X155550000Y-70300000D01*
X155550000Y-70300000D02*
X157400000Y-72150000D01*
X160230000Y-72150000D02*
X161500000Y-73420000D01*
X157400000Y-72150000D02*
X160230000Y-72150000D01*
X142000000Y-63100000D02*
X142000000Y-62840000D01*
X141000000Y-64100000D02*
X142000000Y-63100000D01*
X133540998Y-64100000D02*
X141000000Y-64100000D01*
X132700000Y-64940998D02*
X133540998Y-64100000D01*
X131460000Y-67920000D02*
X132700000Y-66680000D01*
X132700000Y-66680000D02*
X132700000Y-64940998D01*
X147920000Y-62840000D02*
X149000000Y-63920000D01*
X142000000Y-62840000D02*
X147920000Y-62840000D01*
X149000000Y-63920000D02*
X152130000Y-67050000D01*
X160210000Y-67050000D02*
X161500000Y-68340000D01*
X152130000Y-67050000D02*
X160210000Y-67050000D01*
X145380000Y-65380000D02*
X149000000Y-69000000D01*
X142000000Y-65380000D02*
X145380000Y-65380000D01*
X149600000Y-69600000D02*
X149000000Y-69000000D01*
X161500000Y-70880000D02*
X160220000Y-69600000D01*
X160220000Y-69600000D02*
X149600000Y-69600000D01*
X131460000Y-70460000D02*
X132720000Y-69200000D01*
X138200000Y-69200000D02*
X139460000Y-70460000D01*
X132720000Y-69200000D02*
X138200000Y-69200000D01*
X141150001Y-71309999D02*
X142000000Y-70460000D01*
X140824999Y-71635001D02*
X141150001Y-71309999D01*
X135175001Y-71635001D02*
X140824999Y-71635001D01*
X134000000Y-70460000D02*
X135175001Y-71635001D01*
X158960000Y-75960000D02*
X158960000Y-73420000D01*
X158960000Y-63260000D02*
X158960000Y-65800000D01*
X150880000Y-68340000D02*
X158960000Y-68340000D01*
X149000000Y-66460000D02*
X150880000Y-68340000D01*
X141580000Y-60720000D02*
X158960000Y-60720000D01*
X139460000Y-62840000D02*
X141580000Y-60720000D01*
X133217919Y-75960000D02*
X157738686Y-75960000D01*
X131460000Y-74202081D02*
X133217919Y-75960000D01*
X157738686Y-75960000D02*
X158960000Y-75960000D01*
X131460000Y-73000000D02*
X131460000Y-74202081D01*
X135100000Y-73000000D02*
X137100000Y-75000000D01*
X134000000Y-73000000D02*
X135100000Y-73000000D01*
X137100000Y-75000000D02*
X140000000Y-75000000D01*
X140000000Y-75000000D02*
X142000000Y-73000000D01*
X142000000Y-73000000D02*
X146000000Y-73000000D01*
X147460000Y-71540000D02*
X149000000Y-71540000D01*
X146000000Y-73000000D02*
X147460000Y-71540000D01*
D16*
G36*
X161692819Y-52500998D02*
G01*
X162359257Y-52702208D01*
X162973911Y-53029026D01*
X163513384Y-53469009D01*
X163957123Y-54005398D01*
X164288225Y-54617760D01*
X164494079Y-55282768D01*
X164568982Y-55995414D01*
X164569000Y-56000634D01*
X164569001Y-77978911D01*
X164499002Y-78692819D01*
X164297793Y-79359255D01*
X163970975Y-79973911D01*
X163530989Y-80513386D01*
X162994602Y-80957123D01*
X162382245Y-81288223D01*
X161717232Y-81494079D01*
X161004586Y-81568982D01*
X160999367Y-81569000D01*
X134021079Y-81569000D01*
X133307181Y-81499002D01*
X132640745Y-81297793D01*
X132026089Y-80970975D01*
X131486614Y-80530989D01*
X131042877Y-79994602D01*
X130711777Y-79382245D01*
X130505921Y-78717232D01*
X130431018Y-78004586D01*
X130431000Y-77999367D01*
X130431000Y-74062093D01*
X130578645Y-74195178D01*
X130828748Y-74344157D01*
X131103109Y-74441481D01*
X131320054Y-74327609D01*
X131335000Y-74329081D01*
X131585000Y-74329081D01*
X131599457Y-74327352D01*
X131816891Y-74441481D01*
X132091252Y-74344157D01*
X132341355Y-74195178D01*
X132557588Y-74000269D01*
X132731641Y-73766920D01*
X132767157Y-73692355D01*
X132767157Y-73850000D01*
X132774513Y-73924689D01*
X132796299Y-73996508D01*
X132831678Y-74062696D01*
X132879289Y-74120711D01*
X132937304Y-74168322D01*
X133003492Y-74203701D01*
X133075311Y-74225487D01*
X133150000Y-74232843D01*
X134850000Y-74232843D01*
X134924689Y-74225487D01*
X134996508Y-74203701D01*
X135062696Y-74168322D01*
X135120711Y-74120711D01*
X135168322Y-74062696D01*
X135203701Y-73996508D01*
X135225487Y-73924689D01*
X135232843Y-73850000D01*
X135232843Y-73848434D01*
X136724628Y-75340220D01*
X136740473Y-75359527D01*
X136817521Y-75422759D01*
X136905425Y-75469745D01*
X137000806Y-75498678D01*
X137010694Y-75499652D01*
X137075146Y-75506000D01*
X137075153Y-75506000D01*
X137099999Y-75508447D01*
X137124845Y-75506000D01*
X139975154Y-75506000D01*
X140000000Y-75508447D01*
X140024846Y-75506000D01*
X140024854Y-75506000D01*
X140099193Y-75498678D01*
X140194575Y-75469745D01*
X140282479Y-75422759D01*
X140359527Y-75359527D01*
X140375376Y-75340215D01*
X141115450Y-74600142D01*
X141198645Y-74522572D01*
X141278132Y-74458656D01*
X141358680Y-74403529D01*
X141440536Y-74356674D01*
X141524099Y-74317616D01*
X141609886Y-74285979D01*
X141698522Y-74261522D01*
X141790668Y-74244160D01*
X141886942Y-74233981D01*
X141928268Y-74232843D01*
X142850000Y-74232843D01*
X142924689Y-74225487D01*
X142996508Y-74203701D01*
X143062696Y-74168322D01*
X143120711Y-74120711D01*
X143168322Y-74062696D01*
X143203701Y-73996508D01*
X143225487Y-73924689D01*
X143232843Y-73850000D01*
X143232843Y-73611492D01*
X143268206Y-73595184D01*
X143354912Y-73563715D01*
X143445930Y-73538963D01*
X143541859Y-73520989D01*
X143643261Y-73509979D01*
X143756963Y-73506000D01*
X145975154Y-73506000D01*
X146000000Y-73508447D01*
X146024846Y-73506000D01*
X146024854Y-73506000D01*
X146099193Y-73498678D01*
X146194575Y-73469745D01*
X146282479Y-73422759D01*
X146359527Y-73359527D01*
X146375376Y-73340215D01*
X147640306Y-72075286D01*
X147693979Y-72094142D01*
X147758091Y-72123174D01*
X147767157Y-72128204D01*
X147767157Y-72390000D01*
X147774513Y-72464689D01*
X147796299Y-72536508D01*
X147831678Y-72602696D01*
X147879289Y-72660711D01*
X147937304Y-72708322D01*
X148003492Y-72743701D01*
X148075311Y-72765487D01*
X148150000Y-72772843D01*
X149850000Y-72772843D01*
X149924689Y-72765487D01*
X149996508Y-72743701D01*
X150062696Y-72708322D01*
X150120711Y-72660711D01*
X150168322Y-72602696D01*
X150203701Y-72536508D01*
X150225487Y-72464689D01*
X150232843Y-72390000D01*
X150232843Y-70806000D01*
X155340409Y-70806000D01*
X157024628Y-72490220D01*
X157040473Y-72509527D01*
X157117521Y-72572759D01*
X157169694Y-72600646D01*
X157205425Y-72619745D01*
X157300806Y-72648678D01*
X157310694Y-72649652D01*
X157375146Y-72656000D01*
X157375153Y-72656000D01*
X157399999Y-72658447D01*
X157424845Y-72656000D01*
X157672093Y-72656000D01*
X157550778Y-72910186D01*
X157505042Y-73060974D01*
X157626183Y-73293000D01*
X158637675Y-73293000D01*
X158491235Y-73547000D01*
X157626183Y-73547000D01*
X157505042Y-73779026D01*
X157550778Y-73929814D01*
X157677316Y-74194944D01*
X157853146Y-74430293D01*
X158071512Y-74626817D01*
X158177770Y-74690000D01*
X158071512Y-74753183D01*
X157853146Y-74949707D01*
X157677316Y-75185056D01*
X157550778Y-75450186D01*
X157505042Y-75600974D01*
X157614187Y-75810023D01*
X157614126Y-75810224D01*
X157611686Y-75835000D01*
X157611686Y-76085000D01*
X157614558Y-76109266D01*
X157505042Y-76319026D01*
X157550778Y-76469814D01*
X157677316Y-76734944D01*
X157853146Y-76970293D01*
X158071512Y-77166817D01*
X158324022Y-77316964D01*
X158449800Y-77361471D01*
X158265192Y-77460146D01*
X158075677Y-77615677D01*
X157920146Y-77805192D01*
X157804576Y-78021408D01*
X157733408Y-78256016D01*
X157709378Y-78500000D01*
X157733408Y-78743984D01*
X157804576Y-78978592D01*
X157920146Y-79194808D01*
X158075677Y-79384323D01*
X158265192Y-79539854D01*
X158481408Y-79655424D01*
X158716016Y-79726592D01*
X158898857Y-79744600D01*
X159021143Y-79744600D01*
X159203984Y-79726592D01*
X159438592Y-79655424D01*
X159654808Y-79539854D01*
X159844323Y-79384323D01*
X159999854Y-79194808D01*
X160115424Y-78978592D01*
X160186592Y-78743984D01*
X160210622Y-78500000D01*
X160186592Y-78256016D01*
X160115424Y-78021408D01*
X159999854Y-77805192D01*
X159861330Y-77636400D01*
X160253557Y-77636400D01*
X160253557Y-79363600D01*
X160260913Y-79438289D01*
X160282699Y-79510108D01*
X160318078Y-79576296D01*
X160365689Y-79634311D01*
X160423704Y-79681922D01*
X160489892Y-79717301D01*
X160561711Y-79739087D01*
X160636400Y-79746443D01*
X162363600Y-79746443D01*
X162438289Y-79739087D01*
X162510108Y-79717301D01*
X162576296Y-79681922D01*
X162634311Y-79634311D01*
X162681922Y-79576296D01*
X162717301Y-79510108D01*
X162739087Y-79438289D01*
X162746443Y-79363600D01*
X162746443Y-77636400D01*
X162739087Y-77561711D01*
X162717301Y-77489892D01*
X162681922Y-77423704D01*
X162634311Y-77365689D01*
X162576296Y-77318078D01*
X162510108Y-77282699D01*
X162438289Y-77260913D01*
X162363600Y-77253557D01*
X160636400Y-77253557D01*
X160561711Y-77260913D01*
X160489892Y-77282699D01*
X160423704Y-77318078D01*
X160365689Y-77365689D01*
X160318078Y-77423704D01*
X160282699Y-77489892D01*
X160260913Y-77561711D01*
X160253557Y-77636400D01*
X159861330Y-77636400D01*
X159844323Y-77615677D01*
X159654808Y-77460146D01*
X159470200Y-77361471D01*
X159595978Y-77316964D01*
X159848488Y-77166817D01*
X160066854Y-76970293D01*
X160242684Y-76734944D01*
X160365468Y-76477679D01*
X160460146Y-76654808D01*
X160615677Y-76844323D01*
X160805192Y-76999854D01*
X161021408Y-77115424D01*
X161256016Y-77186592D01*
X161438857Y-77204600D01*
X161561143Y-77204600D01*
X161743984Y-77186592D01*
X161978592Y-77115424D01*
X162194808Y-76999854D01*
X162384323Y-76844323D01*
X162539854Y-76654808D01*
X162655424Y-76438592D01*
X162726592Y-76203984D01*
X162750622Y-75960000D01*
X162726592Y-75716016D01*
X162655424Y-75481408D01*
X162539854Y-75265192D01*
X162384323Y-75075677D01*
X162194808Y-74920146D01*
X161978592Y-74804576D01*
X161743984Y-74733408D01*
X161561143Y-74715400D01*
X161438857Y-74715400D01*
X161256016Y-74733408D01*
X161021408Y-74804576D01*
X160805192Y-74920146D01*
X160615677Y-75075677D01*
X160460146Y-75265192D01*
X160365468Y-75442321D01*
X160242684Y-75185056D01*
X160066854Y-74949707D01*
X159848488Y-74753183D01*
X159742230Y-74690000D01*
X159848488Y-74626817D01*
X160066854Y-74430293D01*
X160242684Y-74194944D01*
X160365468Y-73937679D01*
X160460146Y-74114808D01*
X160615677Y-74304323D01*
X160805192Y-74459854D01*
X161021408Y-74575424D01*
X161256016Y-74646592D01*
X161438857Y-74664600D01*
X161561143Y-74664600D01*
X161743984Y-74646592D01*
X161978592Y-74575424D01*
X162194808Y-74459854D01*
X162384323Y-74304323D01*
X162539854Y-74114808D01*
X162655424Y-73898592D01*
X162726592Y-73663984D01*
X162750622Y-73420000D01*
X162726592Y-73176016D01*
X162655424Y-72941408D01*
X162539854Y-72725192D01*
X162384323Y-72535677D01*
X162194808Y-72380146D01*
X161978592Y-72264576D01*
X161743984Y-72193408D01*
X161561143Y-72175400D01*
X161495027Y-72175400D01*
X161384172Y-72172347D01*
X161285351Y-72161899D01*
X161190702Y-72144066D01*
X161099650Y-72118943D01*
X161011526Y-72086446D01*
X160925688Y-72046326D01*
X160841638Y-71998216D01*
X160758960Y-71941631D01*
X160677408Y-71876056D01*
X160602265Y-71805994D01*
X160589527Y-71790473D01*
X160512479Y-71727241D01*
X160424575Y-71680255D01*
X160329193Y-71651322D01*
X160254854Y-71644000D01*
X160254846Y-71644000D01*
X160248219Y-71643347D01*
X160365468Y-71397679D01*
X160460146Y-71574808D01*
X160615677Y-71764323D01*
X160805192Y-71919854D01*
X161021408Y-72035424D01*
X161256016Y-72106592D01*
X161438857Y-72124600D01*
X161561143Y-72124600D01*
X161743984Y-72106592D01*
X161978592Y-72035424D01*
X162194808Y-71919854D01*
X162384323Y-71764323D01*
X162539854Y-71574808D01*
X162655424Y-71358592D01*
X162726592Y-71123984D01*
X162750622Y-70880000D01*
X162726592Y-70636016D01*
X162655424Y-70401408D01*
X162539854Y-70185192D01*
X162384323Y-69995677D01*
X162194808Y-69840146D01*
X161978592Y-69724576D01*
X161743984Y-69653408D01*
X161561143Y-69635400D01*
X161495027Y-69635400D01*
X161384172Y-69632347D01*
X161285351Y-69621899D01*
X161190702Y-69604066D01*
X161099650Y-69578943D01*
X161011526Y-69546446D01*
X160925688Y-69506326D01*
X160841638Y-69458216D01*
X160758960Y-69401631D01*
X160677408Y-69336056D01*
X160594628Y-69258874D01*
X160579527Y-69240473D01*
X160502479Y-69177241D01*
X160414575Y-69130255D01*
X160319193Y-69101322D01*
X160252329Y-69094736D01*
X160365468Y-68857679D01*
X160460146Y-69034808D01*
X160615677Y-69224323D01*
X160805192Y-69379854D01*
X161021408Y-69495424D01*
X161256016Y-69566592D01*
X161438857Y-69584600D01*
X161561143Y-69584600D01*
X161743984Y-69566592D01*
X161978592Y-69495424D01*
X162194808Y-69379854D01*
X162384323Y-69224323D01*
X162539854Y-69034808D01*
X162655424Y-68818592D01*
X162726592Y-68583984D01*
X162750622Y-68340000D01*
X162726592Y-68096016D01*
X162655424Y-67861408D01*
X162539854Y-67645192D01*
X162384323Y-67455677D01*
X162194808Y-67300146D01*
X161978592Y-67184576D01*
X161743984Y-67113408D01*
X161561143Y-67095400D01*
X161495027Y-67095400D01*
X161384172Y-67092347D01*
X161285351Y-67081899D01*
X161190702Y-67064066D01*
X161099650Y-67038943D01*
X161011526Y-67006446D01*
X160925688Y-66966326D01*
X160841638Y-66918216D01*
X160758960Y-66861631D01*
X160677408Y-66796056D01*
X160592213Y-66716622D01*
X160585376Y-66709785D01*
X160569527Y-66690473D01*
X160492479Y-66627241D01*
X160404575Y-66580255D01*
X160309193Y-66551322D01*
X160256438Y-66546126D01*
X160365468Y-66317679D01*
X160460146Y-66494808D01*
X160615677Y-66684323D01*
X160805192Y-66839854D01*
X161021408Y-66955424D01*
X161256016Y-67026592D01*
X161438857Y-67044600D01*
X161561143Y-67044600D01*
X161743984Y-67026592D01*
X161978592Y-66955424D01*
X162194808Y-66839854D01*
X162384323Y-66684323D01*
X162539854Y-66494808D01*
X162655424Y-66278592D01*
X162726592Y-66043984D01*
X162750622Y-65800000D01*
X162726592Y-65556016D01*
X162655424Y-65321408D01*
X162539854Y-65105192D01*
X162384323Y-64915677D01*
X162194808Y-64760146D01*
X161978592Y-64644576D01*
X161743984Y-64573408D01*
X161561143Y-64555400D01*
X161438857Y-64555400D01*
X161256016Y-64573408D01*
X161021408Y-64644576D01*
X160805192Y-64760146D01*
X160615677Y-64915677D01*
X160460146Y-65105192D01*
X160365468Y-65282321D01*
X160242684Y-65025056D01*
X160066854Y-64789707D01*
X159848488Y-64593183D01*
X159742230Y-64530000D01*
X159848488Y-64466817D01*
X160066854Y-64270293D01*
X160242684Y-64034944D01*
X160365468Y-63777679D01*
X160460146Y-63954808D01*
X160615677Y-64144323D01*
X160805192Y-64299854D01*
X161021408Y-64415424D01*
X161256016Y-64486592D01*
X161438857Y-64504600D01*
X161561143Y-64504600D01*
X161743984Y-64486592D01*
X161978592Y-64415424D01*
X162194808Y-64299854D01*
X162384323Y-64144323D01*
X162539854Y-63954808D01*
X162655424Y-63738592D01*
X162726592Y-63503984D01*
X162750622Y-63260000D01*
X162726592Y-63016016D01*
X162655424Y-62781408D01*
X162539854Y-62565192D01*
X162384323Y-62375677D01*
X162194808Y-62220146D01*
X161978592Y-62104576D01*
X161743984Y-62033408D01*
X161561143Y-62015400D01*
X161438857Y-62015400D01*
X161256016Y-62033408D01*
X161021408Y-62104576D01*
X160805192Y-62220146D01*
X160615677Y-62375677D01*
X160460146Y-62565192D01*
X160365468Y-62742321D01*
X160242684Y-62485056D01*
X160066854Y-62249707D01*
X159848488Y-62053183D01*
X159742230Y-61990000D01*
X159848488Y-61926817D01*
X160066854Y-61730293D01*
X160242684Y-61494944D01*
X160365468Y-61237679D01*
X160460146Y-61414808D01*
X160615677Y-61604323D01*
X160805192Y-61759854D01*
X161021408Y-61875424D01*
X161256016Y-61946592D01*
X161438857Y-61964600D01*
X161561143Y-61964600D01*
X161743984Y-61946592D01*
X161978592Y-61875424D01*
X162194808Y-61759854D01*
X162384323Y-61604323D01*
X162539854Y-61414808D01*
X162655424Y-61198592D01*
X162726592Y-60963984D01*
X162750622Y-60720000D01*
X162726592Y-60476016D01*
X162655424Y-60241408D01*
X162539854Y-60025192D01*
X162384323Y-59835677D01*
X162194808Y-59680146D01*
X161978592Y-59564576D01*
X161743984Y-59493408D01*
X161561143Y-59475400D01*
X161438857Y-59475400D01*
X161256016Y-59493408D01*
X161021408Y-59564576D01*
X160805192Y-59680146D01*
X160615677Y-59835677D01*
X160460146Y-60025192D01*
X160365468Y-60202321D01*
X160242684Y-59945056D01*
X160066854Y-59709707D01*
X159848488Y-59513183D01*
X159742230Y-59450000D01*
X159848488Y-59386817D01*
X160066854Y-59190293D01*
X160242684Y-58954944D01*
X160365468Y-58697679D01*
X160460146Y-58874808D01*
X160615677Y-59064323D01*
X160805192Y-59219854D01*
X161021408Y-59335424D01*
X161256016Y-59406592D01*
X161438857Y-59424600D01*
X161561143Y-59424600D01*
X161743984Y-59406592D01*
X161978592Y-59335424D01*
X162194808Y-59219854D01*
X162384323Y-59064323D01*
X162539854Y-58874808D01*
X162655424Y-58658592D01*
X162726592Y-58423984D01*
X162750622Y-58180000D01*
X162726592Y-57936016D01*
X162655424Y-57701408D01*
X162539854Y-57485192D01*
X162384323Y-57295677D01*
X162194808Y-57140146D01*
X161978592Y-57024576D01*
X161743984Y-56953408D01*
X161561143Y-56935400D01*
X161438857Y-56935400D01*
X161256016Y-56953408D01*
X161021408Y-57024576D01*
X160805192Y-57140146D01*
X160615677Y-57295677D01*
X160460146Y-57485192D01*
X160365468Y-57662321D01*
X160242684Y-57405056D01*
X160066854Y-57169707D01*
X159848488Y-56973183D01*
X159742230Y-56910000D01*
X159848488Y-56846817D01*
X160066854Y-56650293D01*
X160242684Y-56414944D01*
X160365468Y-56157679D01*
X160460146Y-56334808D01*
X160615677Y-56524323D01*
X160805192Y-56679854D01*
X161021408Y-56795424D01*
X161256016Y-56866592D01*
X161438857Y-56884600D01*
X161561143Y-56884600D01*
X161743984Y-56866592D01*
X161978592Y-56795424D01*
X162194808Y-56679854D01*
X162384323Y-56524323D01*
X162539854Y-56334808D01*
X162655424Y-56118592D01*
X162726592Y-55883984D01*
X162750622Y-55640000D01*
X162726592Y-55396016D01*
X162655424Y-55161408D01*
X162539854Y-54945192D01*
X162384323Y-54755677D01*
X162194808Y-54600146D01*
X161978592Y-54484576D01*
X161743984Y-54413408D01*
X161561143Y-54395400D01*
X161438857Y-54395400D01*
X161256016Y-54413408D01*
X161021408Y-54484576D01*
X160805192Y-54600146D01*
X160615677Y-54755677D01*
X160460146Y-54945192D01*
X160365468Y-55122321D01*
X160242684Y-54865056D01*
X160066854Y-54629707D01*
X159848488Y-54433183D01*
X159595978Y-54283036D01*
X159319027Y-54185037D01*
X159087000Y-54305536D01*
X159087000Y-55513000D01*
X159107000Y-55513000D01*
X159107000Y-55767000D01*
X159087000Y-55767000D01*
X159087000Y-58053000D01*
X159107000Y-58053000D01*
X159107000Y-58307000D01*
X159087000Y-58307000D01*
X159087000Y-60397675D01*
X158833000Y-60251235D01*
X158833000Y-58307000D01*
X157626183Y-58307000D01*
X157505042Y-58539026D01*
X157550778Y-58689814D01*
X157677316Y-58954944D01*
X157853146Y-59190293D01*
X158071512Y-59386817D01*
X158177770Y-59450000D01*
X158071512Y-59513183D01*
X157853146Y-59709707D01*
X157677316Y-59945056D01*
X157550778Y-60210186D01*
X157505042Y-60360974D01*
X157540539Y-60428963D01*
X157427785Y-60450090D01*
X157304787Y-60463446D01*
X157172429Y-60468079D01*
X157152096Y-60470441D01*
X157128271Y-60477668D01*
X157106315Y-60489404D01*
X157087069Y-60505198D01*
X157071275Y-60524444D01*
X157059539Y-60546400D01*
X157052312Y-60570225D01*
X157049872Y-60595001D01*
X157049872Y-60844999D01*
X157051522Y-60865404D01*
X157057911Y-60889466D01*
X157068872Y-60911820D01*
X157083983Y-60931606D01*
X157102664Y-60948063D01*
X157124197Y-60960560D01*
X157147754Y-60968616D01*
X157172430Y-60971921D01*
X157304787Y-60976553D01*
X157427785Y-60989909D01*
X157540539Y-61011036D01*
X157505042Y-61079026D01*
X157550778Y-61229814D01*
X157677316Y-61494944D01*
X157853146Y-61730293D01*
X158071512Y-61926817D01*
X158177770Y-61990000D01*
X158071512Y-62053183D01*
X157853146Y-62249707D01*
X157677316Y-62485056D01*
X157550778Y-62750186D01*
X157505042Y-62900974D01*
X157626183Y-63133000D01*
X158637675Y-63133000D01*
X158491235Y-63387000D01*
X157626183Y-63387000D01*
X157505042Y-63619026D01*
X157550778Y-63769814D01*
X157677316Y-64034944D01*
X157853146Y-64270293D01*
X158071512Y-64466817D01*
X158177770Y-64530000D01*
X158071512Y-64593183D01*
X157853146Y-64789707D01*
X157677316Y-65025056D01*
X157550778Y-65290186D01*
X157505042Y-65440974D01*
X157626183Y-65673000D01*
X158491235Y-65673000D01*
X158637675Y-65927000D01*
X157626183Y-65927000D01*
X157505042Y-66159026D01*
X157550778Y-66309814D01*
X157662547Y-66544000D01*
X152339592Y-66544000D01*
X150600158Y-64804567D01*
X150522566Y-64721346D01*
X150458656Y-64641867D01*
X150403529Y-64561319D01*
X150356674Y-64479463D01*
X150317616Y-64395900D01*
X150285979Y-64310113D01*
X150261522Y-64221477D01*
X150244160Y-64129331D01*
X150233981Y-64033057D01*
X150232198Y-63968308D01*
X150236956Y-63920000D01*
X150213188Y-63678682D01*
X150142798Y-63446637D01*
X150028491Y-63232784D01*
X149874660Y-63045340D01*
X149687216Y-62891509D01*
X149473363Y-62777202D01*
X149241318Y-62706812D01*
X149060472Y-62689000D01*
X148991730Y-62689000D01*
X148879667Y-62687253D01*
X148780188Y-62680194D01*
X148689504Y-62668153D01*
X148607660Y-62651608D01*
X148534475Y-62631067D01*
X148469586Y-62607047D01*
X148412417Y-62579996D01*
X148362123Y-62550171D01*
X148317714Y-62517570D01*
X148287838Y-62490601D01*
X148279527Y-62480473D01*
X148202479Y-62417241D01*
X148114575Y-62370255D01*
X148019193Y-62341322D01*
X147944854Y-62334000D01*
X147944846Y-62334000D01*
X147920000Y-62331553D01*
X147895154Y-62334000D01*
X143756963Y-62334000D01*
X143643261Y-62330021D01*
X143541859Y-62319011D01*
X143445930Y-62301037D01*
X143354912Y-62276285D01*
X143268206Y-62244816D01*
X143185177Y-62206526D01*
X143105209Y-62161147D01*
X143027771Y-62108263D01*
X142952496Y-62047384D01*
X142905457Y-62002866D01*
X142874660Y-61965340D01*
X142687216Y-61811509D01*
X142473363Y-61697202D01*
X142241318Y-61626812D01*
X142060472Y-61609000D01*
X141939528Y-61609000D01*
X141758682Y-61626812D01*
X141526637Y-61697202D01*
X141312784Y-61811509D01*
X141125340Y-61965340D01*
X140971509Y-62152784D01*
X140862909Y-62355960D01*
X140856825Y-62335901D01*
X140731641Y-62073080D01*
X140684736Y-62010196D01*
X140714582Y-61966587D01*
X140790448Y-61872239D01*
X140878921Y-61777350D01*
X140891630Y-61761300D01*
X140903366Y-61739344D01*
X140910593Y-61715519D01*
X140913033Y-61690743D01*
X140910593Y-61665967D01*
X140903366Y-61642142D01*
X140891630Y-61620186D01*
X140875836Y-61600940D01*
X140699060Y-61424164D01*
X140683465Y-61410903D01*
X140661933Y-61398406D01*
X140638376Y-61390350D01*
X140613700Y-61387045D01*
X140588853Y-61388617D01*
X140564790Y-61395006D01*
X140542437Y-61405967D01*
X140522651Y-61421078D01*
X140427760Y-61509551D01*
X140333412Y-61585417D01*
X140290701Y-61614649D01*
X140091252Y-61495843D01*
X139816891Y-61398519D01*
X139587000Y-61519186D01*
X139587000Y-61859732D01*
X139465004Y-61863091D01*
X139452000Y-61864119D01*
X139427750Y-61869758D01*
X139405067Y-61880019D01*
X139384821Y-61894508D01*
X139367791Y-61912669D01*
X139354631Y-61933803D01*
X139345847Y-61957098D01*
X139333000Y-62004927D01*
X139333000Y-61519186D01*
X139103109Y-61398519D01*
X138828748Y-61495843D01*
X138578645Y-61644822D01*
X138362412Y-61839731D01*
X138188359Y-62073080D01*
X138063175Y-62335901D01*
X138018524Y-62483110D01*
X138139845Y-62713000D01*
X139142810Y-62713000D01*
X139074586Y-62967000D01*
X138139845Y-62967000D01*
X138018524Y-63196890D01*
X138063175Y-63344099D01*
X138182205Y-63594000D01*
X134973683Y-63594000D01*
X135028491Y-63527216D01*
X135142798Y-63313363D01*
X135213188Y-63081318D01*
X135236956Y-62840000D01*
X135232198Y-62791692D01*
X135233981Y-62726942D01*
X135244160Y-62630668D01*
X135261522Y-62538522D01*
X135285979Y-62449886D01*
X135317616Y-62364099D01*
X135356674Y-62280536D01*
X135403529Y-62198680D01*
X135458656Y-62118132D01*
X135522572Y-62038645D01*
X135600142Y-61955449D01*
X137849592Y-59706000D01*
X144035154Y-59706000D01*
X144060000Y-59708447D01*
X144084846Y-59706000D01*
X144084854Y-59706000D01*
X144159193Y-59698678D01*
X144254575Y-59669745D01*
X144342479Y-59622759D01*
X144419527Y-59559527D01*
X144435376Y-59540215D01*
X147976565Y-55999026D01*
X157505042Y-55999026D01*
X157550778Y-56149814D01*
X157677316Y-56414944D01*
X157853146Y-56650293D01*
X158071512Y-56846817D01*
X158177770Y-56910000D01*
X158071512Y-56973183D01*
X157853146Y-57169707D01*
X157677316Y-57405056D01*
X157550778Y-57670186D01*
X157505042Y-57820974D01*
X157626183Y-58053000D01*
X158833000Y-58053000D01*
X158833000Y-55767000D01*
X157626183Y-55767000D01*
X157505042Y-55999026D01*
X147976565Y-55999026D01*
X148694617Y-55280974D01*
X157505042Y-55280974D01*
X157626183Y-55513000D01*
X158833000Y-55513000D01*
X158833000Y-54305536D01*
X158600973Y-54185037D01*
X158324022Y-54283036D01*
X158071512Y-54433183D01*
X157853146Y-54629707D01*
X157677316Y-54865056D01*
X157550778Y-55130186D01*
X157505042Y-55280974D01*
X148694617Y-55280974D01*
X148775456Y-55200136D01*
X148858645Y-55122572D01*
X148938132Y-55058656D01*
X149018680Y-55003529D01*
X149100536Y-54956674D01*
X149184099Y-54917616D01*
X149269886Y-54885979D01*
X149358522Y-54861522D01*
X149450668Y-54844160D01*
X149546942Y-54833981D01*
X149655196Y-54831000D01*
X149720472Y-54831000D01*
X149901318Y-54813188D01*
X150133363Y-54742798D01*
X150347216Y-54628491D01*
X150534660Y-54474660D01*
X150688491Y-54287216D01*
X150713065Y-54241242D01*
X150711928Y-54450000D01*
X150724188Y-54574482D01*
X150760498Y-54694180D01*
X150819463Y-54804494D01*
X150898815Y-54901185D01*
X150995506Y-54980537D01*
X151105820Y-55039502D01*
X151225518Y-55075812D01*
X151350000Y-55088072D01*
X151914250Y-55085000D01*
X152073000Y-54926250D01*
X152073000Y-53727000D01*
X152327000Y-53727000D01*
X152327000Y-54926250D01*
X152485750Y-55085000D01*
X153050000Y-55088072D01*
X153174482Y-55075812D01*
X153294180Y-55039502D01*
X153404494Y-54980537D01*
X153501185Y-54901185D01*
X153580537Y-54804494D01*
X153639502Y-54694180D01*
X153675812Y-54574482D01*
X153688072Y-54450000D01*
X153685000Y-53885750D01*
X153526250Y-53727000D01*
X152327000Y-53727000D01*
X152073000Y-53727000D01*
X152053000Y-53727000D01*
X152053000Y-53473000D01*
X152073000Y-53473000D01*
X152073000Y-53453000D01*
X152327000Y-53453000D01*
X152327000Y-53473000D01*
X153526250Y-53473000D01*
X153685000Y-53314250D01*
X153688072Y-52750000D01*
X153675812Y-52625518D01*
X153639502Y-52505820D01*
X153599509Y-52431000D01*
X160978921Y-52431000D01*
X161692819Y-52500998D01*
X161692819Y-52500998D01*
G37*
X161692819Y-52500998D02*
X162359257Y-52702208D01*
X162973911Y-53029026D01*
X163513384Y-53469009D01*
X163957123Y-54005398D01*
X164288225Y-54617760D01*
X164494079Y-55282768D01*
X164568982Y-55995414D01*
X164569000Y-56000634D01*
X164569001Y-77978911D01*
X164499002Y-78692819D01*
X164297793Y-79359255D01*
X163970975Y-79973911D01*
X163530989Y-80513386D01*
X162994602Y-80957123D01*
X162382245Y-81288223D01*
X161717232Y-81494079D01*
X161004586Y-81568982D01*
X160999367Y-81569000D01*
X134021079Y-81569000D01*
X133307181Y-81499002D01*
X132640745Y-81297793D01*
X132026089Y-80970975D01*
X131486614Y-80530989D01*
X131042877Y-79994602D01*
X130711777Y-79382245D01*
X130505921Y-78717232D01*
X130431018Y-78004586D01*
X130431000Y-77999367D01*
X130431000Y-74062093D01*
X130578645Y-74195178D01*
X130828748Y-74344157D01*
X131103109Y-74441481D01*
X131320054Y-74327609D01*
X131335000Y-74329081D01*
X131585000Y-74329081D01*
X131599457Y-74327352D01*
X131816891Y-74441481D01*
X132091252Y-74344157D01*
X132341355Y-74195178D01*
X132557588Y-74000269D01*
X132731641Y-73766920D01*
X132767157Y-73692355D01*
X132767157Y-73850000D01*
X132774513Y-73924689D01*
X132796299Y-73996508D01*
X132831678Y-74062696D01*
X132879289Y-74120711D01*
X132937304Y-74168322D01*
X133003492Y-74203701D01*
X133075311Y-74225487D01*
X133150000Y-74232843D01*
X134850000Y-74232843D01*
X134924689Y-74225487D01*
X134996508Y-74203701D01*
X135062696Y-74168322D01*
X135120711Y-74120711D01*
X135168322Y-74062696D01*
X135203701Y-73996508D01*
X135225487Y-73924689D01*
X135232843Y-73850000D01*
X135232843Y-73848434D01*
X136724628Y-75340220D01*
X136740473Y-75359527D01*
X136817521Y-75422759D01*
X136905425Y-75469745D01*
X137000806Y-75498678D01*
X137010694Y-75499652D01*
X137075146Y-75506000D01*
X137075153Y-75506000D01*
X137099999Y-75508447D01*
X137124845Y-75506000D01*
X139975154Y-75506000D01*
X140000000Y-75508447D01*
X140024846Y-75506000D01*
X140024854Y-75506000D01*
X140099193Y-75498678D01*
X140194575Y-75469745D01*
X140282479Y-75422759D01*
X140359527Y-75359527D01*
X140375376Y-75340215D01*
X141115450Y-74600142D01*
X141198645Y-74522572D01*
X141278132Y-74458656D01*
X141358680Y-74403529D01*
X141440536Y-74356674D01*
X141524099Y-74317616D01*
X141609886Y-74285979D01*
X141698522Y-74261522D01*
X141790668Y-74244160D01*
X141886942Y-74233981D01*
X141928268Y-74232843D01*
X142850000Y-74232843D01*
X142924689Y-74225487D01*
X142996508Y-74203701D01*
X143062696Y-74168322D01*
X143120711Y-74120711D01*
X143168322Y-74062696D01*
X143203701Y-73996508D01*
X143225487Y-73924689D01*
X143232843Y-73850000D01*
X143232843Y-73611492D01*
X143268206Y-73595184D01*
X143354912Y-73563715D01*
X143445930Y-73538963D01*
X143541859Y-73520989D01*
X143643261Y-73509979D01*
X143756963Y-73506000D01*
X145975154Y-73506000D01*
X146000000Y-73508447D01*
X146024846Y-73506000D01*
X146024854Y-73506000D01*
X146099193Y-73498678D01*
X146194575Y-73469745D01*
X146282479Y-73422759D01*
X146359527Y-73359527D01*
X146375376Y-73340215D01*
X147640306Y-72075286D01*
X147693979Y-72094142D01*
X147758091Y-72123174D01*
X147767157Y-72128204D01*
X147767157Y-72390000D01*
X147774513Y-72464689D01*
X147796299Y-72536508D01*
X147831678Y-72602696D01*
X147879289Y-72660711D01*
X147937304Y-72708322D01*
X148003492Y-72743701D01*
X148075311Y-72765487D01*
X148150000Y-72772843D01*
X149850000Y-72772843D01*
X149924689Y-72765487D01*
X149996508Y-72743701D01*
X150062696Y-72708322D01*
X150120711Y-72660711D01*
X150168322Y-72602696D01*
X150203701Y-72536508D01*
X150225487Y-72464689D01*
X150232843Y-72390000D01*
X150232843Y-70806000D01*
X155340409Y-70806000D01*
X157024628Y-72490220D01*
X157040473Y-72509527D01*
X157117521Y-72572759D01*
X157169694Y-72600646D01*
X157205425Y-72619745D01*
X157300806Y-72648678D01*
X157310694Y-72649652D01*
X157375146Y-72656000D01*
X157375153Y-72656000D01*
X157399999Y-72658447D01*
X157424845Y-72656000D01*
X157672093Y-72656000D01*
X157550778Y-72910186D01*
X157505042Y-73060974D01*
X157626183Y-73293000D01*
X158637675Y-73293000D01*
X158491235Y-73547000D01*
X157626183Y-73547000D01*
X157505042Y-73779026D01*
X157550778Y-73929814D01*
X157677316Y-74194944D01*
X157853146Y-74430293D01*
X158071512Y-74626817D01*
X158177770Y-74690000D01*
X158071512Y-74753183D01*
X157853146Y-74949707D01*
X157677316Y-75185056D01*
X157550778Y-75450186D01*
X157505042Y-75600974D01*
X157614187Y-75810023D01*
X157614126Y-75810224D01*
X157611686Y-75835000D01*
X157611686Y-76085000D01*
X157614558Y-76109266D01*
X157505042Y-76319026D01*
X157550778Y-76469814D01*
X157677316Y-76734944D01*
X157853146Y-76970293D01*
X158071512Y-77166817D01*
X158324022Y-77316964D01*
X158449800Y-77361471D01*
X158265192Y-77460146D01*
X158075677Y-77615677D01*
X157920146Y-77805192D01*
X157804576Y-78021408D01*
X157733408Y-78256016D01*
X157709378Y-78500000D01*
X157733408Y-78743984D01*
X157804576Y-78978592D01*
X157920146Y-79194808D01*
X158075677Y-79384323D01*
X158265192Y-79539854D01*
X158481408Y-79655424D01*
X158716016Y-79726592D01*
X158898857Y-79744600D01*
X159021143Y-79744600D01*
X159203984Y-79726592D01*
X159438592Y-79655424D01*
X159654808Y-79539854D01*
X159844323Y-79384323D01*
X159999854Y-79194808D01*
X160115424Y-78978592D01*
X160186592Y-78743984D01*
X160210622Y-78500000D01*
X160186592Y-78256016D01*
X160115424Y-78021408D01*
X159999854Y-77805192D01*
X159861330Y-77636400D01*
X160253557Y-77636400D01*
X160253557Y-79363600D01*
X160260913Y-79438289D01*
X160282699Y-79510108D01*
X160318078Y-79576296D01*
X160365689Y-79634311D01*
X160423704Y-79681922D01*
X160489892Y-79717301D01*
X160561711Y-79739087D01*
X160636400Y-79746443D01*
X162363600Y-79746443D01*
X162438289Y-79739087D01*
X162510108Y-79717301D01*
X162576296Y-79681922D01*
X162634311Y-79634311D01*
X162681922Y-79576296D01*
X162717301Y-79510108D01*
X162739087Y-79438289D01*
X162746443Y-79363600D01*
X162746443Y-77636400D01*
X162739087Y-77561711D01*
X162717301Y-77489892D01*
X162681922Y-77423704D01*
X162634311Y-77365689D01*
X162576296Y-77318078D01*
X162510108Y-77282699D01*
X162438289Y-77260913D01*
X162363600Y-77253557D01*
X160636400Y-77253557D01*
X160561711Y-77260913D01*
X160489892Y-77282699D01*
X160423704Y-77318078D01*
X160365689Y-77365689D01*
X160318078Y-77423704D01*
X160282699Y-77489892D01*
X160260913Y-77561711D01*
X160253557Y-77636400D01*
X159861330Y-77636400D01*
X159844323Y-77615677D01*
X159654808Y-77460146D01*
X159470200Y-77361471D01*
X159595978Y-77316964D01*
X159848488Y-77166817D01*
X160066854Y-76970293D01*
X160242684Y-76734944D01*
X160365468Y-76477679D01*
X160460146Y-76654808D01*
X160615677Y-76844323D01*
X160805192Y-76999854D01*
X161021408Y-77115424D01*
X161256016Y-77186592D01*
X161438857Y-77204600D01*
X161561143Y-77204600D01*
X161743984Y-77186592D01*
X161978592Y-77115424D01*
X162194808Y-76999854D01*
X162384323Y-76844323D01*
X162539854Y-76654808D01*
X162655424Y-76438592D01*
X162726592Y-76203984D01*
X162750622Y-75960000D01*
X162726592Y-75716016D01*
X162655424Y-75481408D01*
X162539854Y-75265192D01*
X162384323Y-75075677D01*
X162194808Y-74920146D01*
X161978592Y-74804576D01*
X161743984Y-74733408D01*
X161561143Y-74715400D01*
X161438857Y-74715400D01*
X161256016Y-74733408D01*
X161021408Y-74804576D01*
X160805192Y-74920146D01*
X160615677Y-75075677D01*
X160460146Y-75265192D01*
X160365468Y-75442321D01*
X160242684Y-75185056D01*
X160066854Y-74949707D01*
X159848488Y-74753183D01*
X159742230Y-74690000D01*
X159848488Y-74626817D01*
X160066854Y-74430293D01*
X160242684Y-74194944D01*
X160365468Y-73937679D01*
X160460146Y-74114808D01*
X160615677Y-74304323D01*
X160805192Y-74459854D01*
X161021408Y-74575424D01*
X161256016Y-74646592D01*
X161438857Y-74664600D01*
X161561143Y-74664600D01*
X161743984Y-74646592D01*
X161978592Y-74575424D01*
X162194808Y-74459854D01*
X162384323Y-74304323D01*
X162539854Y-74114808D01*
X162655424Y-73898592D01*
X162726592Y-73663984D01*
X162750622Y-73420000D01*
X162726592Y-73176016D01*
X162655424Y-72941408D01*
X162539854Y-72725192D01*
X162384323Y-72535677D01*
X162194808Y-72380146D01*
X161978592Y-72264576D01*
X161743984Y-72193408D01*
X161561143Y-72175400D01*
X161495027Y-72175400D01*
X161384172Y-72172347D01*
X161285351Y-72161899D01*
X161190702Y-72144066D01*
X161099650Y-72118943D01*
X161011526Y-72086446D01*
X160925688Y-72046326D01*
X160841638Y-71998216D01*
X160758960Y-71941631D01*
X160677408Y-71876056D01*
X160602265Y-71805994D01*
X160589527Y-71790473D01*
X160512479Y-71727241D01*
X160424575Y-71680255D01*
X160329193Y-71651322D01*
X160254854Y-71644000D01*
X160254846Y-71644000D01*
X160248219Y-71643347D01*
X160365468Y-71397679D01*
X160460146Y-71574808D01*
X160615677Y-71764323D01*
X160805192Y-71919854D01*
X161021408Y-72035424D01*
X161256016Y-72106592D01*
X161438857Y-72124600D01*
X161561143Y-72124600D01*
X161743984Y-72106592D01*
X161978592Y-72035424D01*
X162194808Y-71919854D01*
X162384323Y-71764323D01*
X162539854Y-71574808D01*
X162655424Y-71358592D01*
X162726592Y-71123984D01*
X162750622Y-70880000D01*
X162726592Y-70636016D01*
X162655424Y-70401408D01*
X162539854Y-70185192D01*
X162384323Y-69995677D01*
X162194808Y-69840146D01*
X161978592Y-69724576D01*
X161743984Y-69653408D01*
X161561143Y-69635400D01*
X161495027Y-69635400D01*
X161384172Y-69632347D01*
X161285351Y-69621899D01*
X161190702Y-69604066D01*
X161099650Y-69578943D01*
X161011526Y-69546446D01*
X160925688Y-69506326D01*
X160841638Y-69458216D01*
X160758960Y-69401631D01*
X160677408Y-69336056D01*
X160594628Y-69258874D01*
X160579527Y-69240473D01*
X160502479Y-69177241D01*
X160414575Y-69130255D01*
X160319193Y-69101322D01*
X160252329Y-69094736D01*
X160365468Y-68857679D01*
X160460146Y-69034808D01*
X160615677Y-69224323D01*
X160805192Y-69379854D01*
X161021408Y-69495424D01*
X161256016Y-69566592D01*
X161438857Y-69584600D01*
X161561143Y-69584600D01*
X161743984Y-69566592D01*
X161978592Y-69495424D01*
X162194808Y-69379854D01*
X162384323Y-69224323D01*
X162539854Y-69034808D01*
X162655424Y-68818592D01*
X162726592Y-68583984D01*
X162750622Y-68340000D01*
X162726592Y-68096016D01*
X162655424Y-67861408D01*
X162539854Y-67645192D01*
X162384323Y-67455677D01*
X162194808Y-67300146D01*
X161978592Y-67184576D01*
X161743984Y-67113408D01*
X161561143Y-67095400D01*
X161495027Y-67095400D01*
X161384172Y-67092347D01*
X161285351Y-67081899D01*
X161190702Y-67064066D01*
X161099650Y-67038943D01*
X161011526Y-67006446D01*
X160925688Y-66966326D01*
X160841638Y-66918216D01*
X160758960Y-66861631D01*
X160677408Y-66796056D01*
X160592213Y-66716622D01*
X160585376Y-66709785D01*
X160569527Y-66690473D01*
X160492479Y-66627241D01*
X160404575Y-66580255D01*
X160309193Y-66551322D01*
X160256438Y-66546126D01*
X160365468Y-66317679D01*
X160460146Y-66494808D01*
X160615677Y-66684323D01*
X160805192Y-66839854D01*
X161021408Y-66955424D01*
X161256016Y-67026592D01*
X161438857Y-67044600D01*
X161561143Y-67044600D01*
X161743984Y-67026592D01*
X161978592Y-66955424D01*
X162194808Y-66839854D01*
X162384323Y-66684323D01*
X162539854Y-66494808D01*
X162655424Y-66278592D01*
X162726592Y-66043984D01*
X162750622Y-65800000D01*
X162726592Y-65556016D01*
X162655424Y-65321408D01*
X162539854Y-65105192D01*
X162384323Y-64915677D01*
X162194808Y-64760146D01*
X161978592Y-64644576D01*
X161743984Y-64573408D01*
X161561143Y-64555400D01*
X161438857Y-64555400D01*
X161256016Y-64573408D01*
X161021408Y-64644576D01*
X160805192Y-64760146D01*
X160615677Y-64915677D01*
X160460146Y-65105192D01*
X160365468Y-65282321D01*
X160242684Y-65025056D01*
X160066854Y-64789707D01*
X159848488Y-64593183D01*
X159742230Y-64530000D01*
X159848488Y-64466817D01*
X160066854Y-64270293D01*
X160242684Y-64034944D01*
X160365468Y-63777679D01*
X160460146Y-63954808D01*
X160615677Y-64144323D01*
X160805192Y-64299854D01*
X161021408Y-64415424D01*
X161256016Y-64486592D01*
X161438857Y-64504600D01*
X161561143Y-64504600D01*
X161743984Y-64486592D01*
X161978592Y-64415424D01*
X162194808Y-64299854D01*
X162384323Y-64144323D01*
X162539854Y-63954808D01*
X162655424Y-63738592D01*
X162726592Y-63503984D01*
X162750622Y-63260000D01*
X162726592Y-63016016D01*
X162655424Y-62781408D01*
X162539854Y-62565192D01*
X162384323Y-62375677D01*
X162194808Y-62220146D01*
X161978592Y-62104576D01*
X161743984Y-62033408D01*
X161561143Y-62015400D01*
X161438857Y-62015400D01*
X161256016Y-62033408D01*
X161021408Y-62104576D01*
X160805192Y-62220146D01*
X160615677Y-62375677D01*
X160460146Y-62565192D01*
X160365468Y-62742321D01*
X160242684Y-62485056D01*
X160066854Y-62249707D01*
X159848488Y-62053183D01*
X159742230Y-61990000D01*
X159848488Y-61926817D01*
X160066854Y-61730293D01*
X160242684Y-61494944D01*
X160365468Y-61237679D01*
X160460146Y-61414808D01*
X160615677Y-61604323D01*
X160805192Y-61759854D01*
X161021408Y-61875424D01*
X161256016Y-61946592D01*
X161438857Y-61964600D01*
X161561143Y-61964600D01*
X161743984Y-61946592D01*
X161978592Y-61875424D01*
X162194808Y-61759854D01*
X162384323Y-61604323D01*
X162539854Y-61414808D01*
X162655424Y-61198592D01*
X162726592Y-60963984D01*
X162750622Y-60720000D01*
X162726592Y-60476016D01*
X162655424Y-60241408D01*
X162539854Y-60025192D01*
X162384323Y-59835677D01*
X162194808Y-59680146D01*
X161978592Y-59564576D01*
X161743984Y-59493408D01*
X161561143Y-59475400D01*
X161438857Y-59475400D01*
X161256016Y-59493408D01*
X161021408Y-59564576D01*
X160805192Y-59680146D01*
X160615677Y-59835677D01*
X160460146Y-60025192D01*
X160365468Y-60202321D01*
X160242684Y-59945056D01*
X160066854Y-59709707D01*
X159848488Y-59513183D01*
X159742230Y-59450000D01*
X159848488Y-59386817D01*
X160066854Y-59190293D01*
X160242684Y-58954944D01*
X160365468Y-58697679D01*
X160460146Y-58874808D01*
X160615677Y-59064323D01*
X160805192Y-59219854D01*
X161021408Y-59335424D01*
X161256016Y-59406592D01*
X161438857Y-59424600D01*
X161561143Y-59424600D01*
X161743984Y-59406592D01*
X161978592Y-59335424D01*
X162194808Y-59219854D01*
X162384323Y-59064323D01*
X162539854Y-58874808D01*
X162655424Y-58658592D01*
X162726592Y-58423984D01*
X162750622Y-58180000D01*
X162726592Y-57936016D01*
X162655424Y-57701408D01*
X162539854Y-57485192D01*
X162384323Y-57295677D01*
X162194808Y-57140146D01*
X161978592Y-57024576D01*
X161743984Y-56953408D01*
X161561143Y-56935400D01*
X161438857Y-56935400D01*
X161256016Y-56953408D01*
X161021408Y-57024576D01*
X160805192Y-57140146D01*
X160615677Y-57295677D01*
X160460146Y-57485192D01*
X160365468Y-57662321D01*
X160242684Y-57405056D01*
X160066854Y-57169707D01*
X159848488Y-56973183D01*
X159742230Y-56910000D01*
X159848488Y-56846817D01*
X160066854Y-56650293D01*
X160242684Y-56414944D01*
X160365468Y-56157679D01*
X160460146Y-56334808D01*
X160615677Y-56524323D01*
X160805192Y-56679854D01*
X161021408Y-56795424D01*
X161256016Y-56866592D01*
X161438857Y-56884600D01*
X161561143Y-56884600D01*
X161743984Y-56866592D01*
X161978592Y-56795424D01*
X162194808Y-56679854D01*
X162384323Y-56524323D01*
X162539854Y-56334808D01*
X162655424Y-56118592D01*
X162726592Y-55883984D01*
X162750622Y-55640000D01*
X162726592Y-55396016D01*
X162655424Y-55161408D01*
X162539854Y-54945192D01*
X162384323Y-54755677D01*
X162194808Y-54600146D01*
X161978592Y-54484576D01*
X161743984Y-54413408D01*
X161561143Y-54395400D01*
X161438857Y-54395400D01*
X161256016Y-54413408D01*
X161021408Y-54484576D01*
X160805192Y-54600146D01*
X160615677Y-54755677D01*
X160460146Y-54945192D01*
X160365468Y-55122321D01*
X160242684Y-54865056D01*
X160066854Y-54629707D01*
X159848488Y-54433183D01*
X159595978Y-54283036D01*
X159319027Y-54185037D01*
X159087000Y-54305536D01*
X159087000Y-55513000D01*
X159107000Y-55513000D01*
X159107000Y-55767000D01*
X159087000Y-55767000D01*
X159087000Y-58053000D01*
X159107000Y-58053000D01*
X159107000Y-58307000D01*
X159087000Y-58307000D01*
X159087000Y-60397675D01*
X158833000Y-60251235D01*
X158833000Y-58307000D01*
X157626183Y-58307000D01*
X157505042Y-58539026D01*
X157550778Y-58689814D01*
X157677316Y-58954944D01*
X157853146Y-59190293D01*
X158071512Y-59386817D01*
X158177770Y-59450000D01*
X158071512Y-59513183D01*
X157853146Y-59709707D01*
X157677316Y-59945056D01*
X157550778Y-60210186D01*
X157505042Y-60360974D01*
X157540539Y-60428963D01*
X157427785Y-60450090D01*
X157304787Y-60463446D01*
X157172429Y-60468079D01*
X157152096Y-60470441D01*
X157128271Y-60477668D01*
X157106315Y-60489404D01*
X157087069Y-60505198D01*
X157071275Y-60524444D01*
X157059539Y-60546400D01*
X157052312Y-60570225D01*
X157049872Y-60595001D01*
X157049872Y-60844999D01*
X157051522Y-60865404D01*
X157057911Y-60889466D01*
X157068872Y-60911820D01*
X157083983Y-60931606D01*
X157102664Y-60948063D01*
X157124197Y-60960560D01*
X157147754Y-60968616D01*
X157172430Y-60971921D01*
X157304787Y-60976553D01*
X157427785Y-60989909D01*
X157540539Y-61011036D01*
X157505042Y-61079026D01*
X157550778Y-61229814D01*
X157677316Y-61494944D01*
X157853146Y-61730293D01*
X158071512Y-61926817D01*
X158177770Y-61990000D01*
X158071512Y-62053183D01*
X157853146Y-62249707D01*
X157677316Y-62485056D01*
X157550778Y-62750186D01*
X157505042Y-62900974D01*
X157626183Y-63133000D01*
X158637675Y-63133000D01*
X158491235Y-63387000D01*
X157626183Y-63387000D01*
X157505042Y-63619026D01*
X157550778Y-63769814D01*
X157677316Y-64034944D01*
X157853146Y-64270293D01*
X158071512Y-64466817D01*
X158177770Y-64530000D01*
X158071512Y-64593183D01*
X157853146Y-64789707D01*
X157677316Y-65025056D01*
X157550778Y-65290186D01*
X157505042Y-65440974D01*
X157626183Y-65673000D01*
X158491235Y-65673000D01*
X158637675Y-65927000D01*
X157626183Y-65927000D01*
X157505042Y-66159026D01*
X157550778Y-66309814D01*
X157662547Y-66544000D01*
X152339592Y-66544000D01*
X150600158Y-64804567D01*
X150522566Y-64721346D01*
X150458656Y-64641867D01*
X150403529Y-64561319D01*
X150356674Y-64479463D01*
X150317616Y-64395900D01*
X150285979Y-64310113D01*
X150261522Y-64221477D01*
X150244160Y-64129331D01*
X150233981Y-64033057D01*
X150232198Y-63968308D01*
X150236956Y-63920000D01*
X150213188Y-63678682D01*
X150142798Y-63446637D01*
X150028491Y-63232784D01*
X149874660Y-63045340D01*
X149687216Y-62891509D01*
X149473363Y-62777202D01*
X149241318Y-62706812D01*
X149060472Y-62689000D01*
X148991730Y-62689000D01*
X148879667Y-62687253D01*
X148780188Y-62680194D01*
X148689504Y-62668153D01*
X148607660Y-62651608D01*
X148534475Y-62631067D01*
X148469586Y-62607047D01*
X148412417Y-62579996D01*
X148362123Y-62550171D01*
X148317714Y-62517570D01*
X148287838Y-62490601D01*
X148279527Y-62480473D01*
X148202479Y-62417241D01*
X148114575Y-62370255D01*
X148019193Y-62341322D01*
X147944854Y-62334000D01*
X147944846Y-62334000D01*
X147920000Y-62331553D01*
X147895154Y-62334000D01*
X143756963Y-62334000D01*
X143643261Y-62330021D01*
X143541859Y-62319011D01*
X143445930Y-62301037D01*
X143354912Y-62276285D01*
X143268206Y-62244816D01*
X143185177Y-62206526D01*
X143105209Y-62161147D01*
X143027771Y-62108263D01*
X142952496Y-62047384D01*
X142905457Y-62002866D01*
X142874660Y-61965340D01*
X142687216Y-61811509D01*
X142473363Y-61697202D01*
X142241318Y-61626812D01*
X142060472Y-61609000D01*
X141939528Y-61609000D01*
X141758682Y-61626812D01*
X141526637Y-61697202D01*
X141312784Y-61811509D01*
X141125340Y-61965340D01*
X140971509Y-62152784D01*
X140862909Y-62355960D01*
X140856825Y-62335901D01*
X140731641Y-62073080D01*
X140684736Y-62010196D01*
X140714582Y-61966587D01*
X140790448Y-61872239D01*
X140878921Y-61777350D01*
X140891630Y-61761300D01*
X140903366Y-61739344D01*
X140910593Y-61715519D01*
X140913033Y-61690743D01*
X140910593Y-61665967D01*
X140903366Y-61642142D01*
X140891630Y-61620186D01*
X140875836Y-61600940D01*
X140699060Y-61424164D01*
X140683465Y-61410903D01*
X140661933Y-61398406D01*
X140638376Y-61390350D01*
X140613700Y-61387045D01*
X140588853Y-61388617D01*
X140564790Y-61395006D01*
X140542437Y-61405967D01*
X140522651Y-61421078D01*
X140427760Y-61509551D01*
X140333412Y-61585417D01*
X140290701Y-61614649D01*
X140091252Y-61495843D01*
X139816891Y-61398519D01*
X139587000Y-61519186D01*
X139587000Y-61859732D01*
X139465004Y-61863091D01*
X139452000Y-61864119D01*
X139427750Y-61869758D01*
X139405067Y-61880019D01*
X139384821Y-61894508D01*
X139367791Y-61912669D01*
X139354631Y-61933803D01*
X139345847Y-61957098D01*
X139333000Y-62004927D01*
X139333000Y-61519186D01*
X139103109Y-61398519D01*
X138828748Y-61495843D01*
X138578645Y-61644822D01*
X138362412Y-61839731D01*
X138188359Y-62073080D01*
X138063175Y-62335901D01*
X138018524Y-62483110D01*
X138139845Y-62713000D01*
X139142810Y-62713000D01*
X139074586Y-62967000D01*
X138139845Y-62967000D01*
X138018524Y-63196890D01*
X138063175Y-63344099D01*
X138182205Y-63594000D01*
X134973683Y-63594000D01*
X135028491Y-63527216D01*
X135142798Y-63313363D01*
X135213188Y-63081318D01*
X135236956Y-62840000D01*
X135232198Y-62791692D01*
X135233981Y-62726942D01*
X135244160Y-62630668D01*
X135261522Y-62538522D01*
X135285979Y-62449886D01*
X135317616Y-62364099D01*
X135356674Y-62280536D01*
X135403529Y-62198680D01*
X135458656Y-62118132D01*
X135522572Y-62038645D01*
X135600142Y-61955449D01*
X137849592Y-59706000D01*
X144035154Y-59706000D01*
X144060000Y-59708447D01*
X144084846Y-59706000D01*
X144084854Y-59706000D01*
X144159193Y-59698678D01*
X144254575Y-59669745D01*
X144342479Y-59622759D01*
X144419527Y-59559527D01*
X144435376Y-59540215D01*
X147976565Y-55999026D01*
X157505042Y-55999026D01*
X157550778Y-56149814D01*
X157677316Y-56414944D01*
X157853146Y-56650293D01*
X158071512Y-56846817D01*
X158177770Y-56910000D01*
X158071512Y-56973183D01*
X157853146Y-57169707D01*
X157677316Y-57405056D01*
X157550778Y-57670186D01*
X157505042Y-57820974D01*
X157626183Y-58053000D01*
X158833000Y-58053000D01*
X158833000Y-55767000D01*
X157626183Y-55767000D01*
X157505042Y-55999026D01*
X147976565Y-55999026D01*
X148694617Y-55280974D01*
X157505042Y-55280974D01*
X157626183Y-55513000D01*
X158833000Y-55513000D01*
X158833000Y-54305536D01*
X158600973Y-54185037D01*
X158324022Y-54283036D01*
X158071512Y-54433183D01*
X157853146Y-54629707D01*
X157677316Y-54865056D01*
X157550778Y-55130186D01*
X157505042Y-55280974D01*
X148694617Y-55280974D01*
X148775456Y-55200136D01*
X148858645Y-55122572D01*
X148938132Y-55058656D01*
X149018680Y-55003529D01*
X149100536Y-54956674D01*
X149184099Y-54917616D01*
X149269886Y-54885979D01*
X149358522Y-54861522D01*
X149450668Y-54844160D01*
X149546942Y-54833981D01*
X149655196Y-54831000D01*
X149720472Y-54831000D01*
X149901318Y-54813188D01*
X150133363Y-54742798D01*
X150347216Y-54628491D01*
X150534660Y-54474660D01*
X150688491Y-54287216D01*
X150713065Y-54241242D01*
X150711928Y-54450000D01*
X150724188Y-54574482D01*
X150760498Y-54694180D01*
X150819463Y-54804494D01*
X150898815Y-54901185D01*
X150995506Y-54980537D01*
X151105820Y-55039502D01*
X151225518Y-55075812D01*
X151350000Y-55088072D01*
X151914250Y-55085000D01*
X152073000Y-54926250D01*
X152073000Y-53727000D01*
X152327000Y-53727000D01*
X152327000Y-54926250D01*
X152485750Y-55085000D01*
X153050000Y-55088072D01*
X153174482Y-55075812D01*
X153294180Y-55039502D01*
X153404494Y-54980537D01*
X153501185Y-54901185D01*
X153580537Y-54804494D01*
X153639502Y-54694180D01*
X153675812Y-54574482D01*
X153688072Y-54450000D01*
X153685000Y-53885750D01*
X153526250Y-53727000D01*
X152327000Y-53727000D01*
X152073000Y-53727000D01*
X152053000Y-53727000D01*
X152053000Y-53473000D01*
X152073000Y-53473000D01*
X152073000Y-53453000D01*
X152327000Y-53453000D01*
X152327000Y-53473000D01*
X153526250Y-53473000D01*
X153685000Y-53314250D01*
X153688072Y-52750000D01*
X153675812Y-52625518D01*
X153639502Y-52505820D01*
X153599509Y-52431000D01*
X160978921Y-52431000D01*
X161692819Y-52500998D01*
G36*
X157550778Y-70370186D02*
G01*
X157505042Y-70520974D01*
X157626183Y-70753000D01*
X158833000Y-70753000D01*
X158833000Y-70733000D01*
X159087000Y-70733000D01*
X159087000Y-70753000D01*
X159107000Y-70753000D01*
X159107000Y-71007000D01*
X159087000Y-71007000D01*
X159087000Y-71027000D01*
X158833000Y-71027000D01*
X158833000Y-71007000D01*
X157626183Y-71007000D01*
X157505042Y-71239026D01*
X157550778Y-71389814D01*
X157672093Y-71644000D01*
X157609592Y-71644000D01*
X156071591Y-70106000D01*
X157676865Y-70106000D01*
X157550778Y-70370186D01*
X157550778Y-70370186D01*
G37*
X157550778Y-70370186D02*
X157505042Y-70520974D01*
X157626183Y-70753000D01*
X158833000Y-70753000D01*
X158833000Y-70733000D01*
X159087000Y-70733000D01*
X159087000Y-70753000D01*
X159107000Y-70753000D01*
X159107000Y-71007000D01*
X159087000Y-71007000D01*
X159087000Y-71027000D01*
X158833000Y-71027000D01*
X158833000Y-71007000D01*
X157626183Y-71007000D01*
X157505042Y-71239026D01*
X157550778Y-71389814D01*
X157672093Y-71644000D01*
X157609592Y-71644000D01*
X156071591Y-70106000D01*
X157676865Y-70106000D01*
X157550778Y-70370186D01*
G36*
X151754628Y-67390220D02*
G01*
X151770473Y-67409527D01*
X151847521Y-67472759D01*
X151935425Y-67519745D01*
X152006626Y-67541343D01*
X152030806Y-67548678D01*
X152040694Y-67549652D01*
X152105146Y-67556000D01*
X152105153Y-67556000D01*
X152129999Y-67558447D01*
X152154845Y-67556000D01*
X157684082Y-67556000D01*
X157677316Y-67565056D01*
X157550778Y-67830186D01*
X157505042Y-67980974D01*
X157540539Y-68048963D01*
X157427785Y-68070090D01*
X157304787Y-68083446D01*
X157172429Y-68088079D01*
X157152096Y-68090441D01*
X157128271Y-68097668D01*
X157106315Y-68109404D01*
X157087069Y-68125198D01*
X157071275Y-68144444D01*
X157059539Y-68166400D01*
X157052312Y-68190225D01*
X157049872Y-68215001D01*
X157049872Y-68464999D01*
X157051522Y-68485404D01*
X157057911Y-68509466D01*
X157068872Y-68531820D01*
X157083983Y-68551606D01*
X157102664Y-68568063D01*
X157124197Y-68580560D01*
X157147754Y-68588616D01*
X157172430Y-68591921D01*
X157304787Y-68596553D01*
X157427785Y-68609909D01*
X157540539Y-68631036D01*
X157505042Y-68699026D01*
X157550778Y-68849814D01*
X157667320Y-69094000D01*
X151436683Y-69094000D01*
X151269459Y-69014058D01*
X151044219Y-68901272D01*
X150836302Y-68791727D01*
X150645703Y-68685500D01*
X150472702Y-68582863D01*
X150317493Y-68484098D01*
X150180290Y-68389587D01*
X150061420Y-68299921D01*
X149961186Y-68215903D01*
X149905887Y-68163391D01*
X149874660Y-68125340D01*
X149687216Y-67971509D01*
X149476695Y-67858983D01*
X149631252Y-67804157D01*
X149830701Y-67685351D01*
X149873412Y-67714582D01*
X149967752Y-67790442D01*
X150062650Y-67878922D01*
X150078700Y-67891630D01*
X150100656Y-67903366D01*
X150124481Y-67910593D01*
X150149257Y-67913033D01*
X150174033Y-67910593D01*
X150197858Y-67903366D01*
X150219814Y-67891630D01*
X150239060Y-67875836D01*
X150415836Y-67699060D01*
X150429097Y-67683465D01*
X150441594Y-67661932D01*
X150449650Y-67638375D01*
X150452955Y-67613699D01*
X150451383Y-67588852D01*
X150444994Y-67564790D01*
X150434033Y-67542436D01*
X150418922Y-67522650D01*
X150330442Y-67427752D01*
X150254582Y-67333412D01*
X150224736Y-67289804D01*
X150271641Y-67226920D01*
X150396825Y-66964099D01*
X150441476Y-66816890D01*
X150320155Y-66587000D01*
X149980268Y-66587000D01*
X149976909Y-66465004D01*
X149975881Y-66452000D01*
X149970242Y-66427750D01*
X149959981Y-66405067D01*
X149945492Y-66384821D01*
X149927331Y-66367791D01*
X149906197Y-66354631D01*
X149882902Y-66345847D01*
X149835073Y-66333000D01*
X150320155Y-66333000D01*
X150441476Y-66103110D01*
X150430138Y-66065729D01*
X151754628Y-67390220D01*
X151754628Y-67390220D01*
G37*
X151754628Y-67390220D02*
X151770473Y-67409527D01*
X151847521Y-67472759D01*
X151935425Y-67519745D01*
X152006626Y-67541343D01*
X152030806Y-67548678D01*
X152040694Y-67549652D01*
X152105146Y-67556000D01*
X152105153Y-67556000D01*
X152129999Y-67558447D01*
X152154845Y-67556000D01*
X157684082Y-67556000D01*
X157677316Y-67565056D01*
X157550778Y-67830186D01*
X157505042Y-67980974D01*
X157540539Y-68048963D01*
X157427785Y-68070090D01*
X157304787Y-68083446D01*
X157172429Y-68088079D01*
X157152096Y-68090441D01*
X157128271Y-68097668D01*
X157106315Y-68109404D01*
X157087069Y-68125198D01*
X157071275Y-68144444D01*
X157059539Y-68166400D01*
X157052312Y-68190225D01*
X157049872Y-68215001D01*
X157049872Y-68464999D01*
X157051522Y-68485404D01*
X157057911Y-68509466D01*
X157068872Y-68531820D01*
X157083983Y-68551606D01*
X157102664Y-68568063D01*
X157124197Y-68580560D01*
X157147754Y-68588616D01*
X157172430Y-68591921D01*
X157304787Y-68596553D01*
X157427785Y-68609909D01*
X157540539Y-68631036D01*
X157505042Y-68699026D01*
X157550778Y-68849814D01*
X157667320Y-69094000D01*
X151436683Y-69094000D01*
X151269459Y-69014058D01*
X151044219Y-68901272D01*
X150836302Y-68791727D01*
X150645703Y-68685500D01*
X150472702Y-68582863D01*
X150317493Y-68484098D01*
X150180290Y-68389587D01*
X150061420Y-68299921D01*
X149961186Y-68215903D01*
X149905887Y-68163391D01*
X149874660Y-68125340D01*
X149687216Y-67971509D01*
X149476695Y-67858983D01*
X149631252Y-67804157D01*
X149830701Y-67685351D01*
X149873412Y-67714582D01*
X149967752Y-67790442D01*
X150062650Y-67878922D01*
X150078700Y-67891630D01*
X150100656Y-67903366D01*
X150124481Y-67910593D01*
X150149257Y-67913033D01*
X150174033Y-67910593D01*
X150197858Y-67903366D01*
X150219814Y-67891630D01*
X150239060Y-67875836D01*
X150415836Y-67699060D01*
X150429097Y-67683465D01*
X150441594Y-67661932D01*
X150449650Y-67638375D01*
X150452955Y-67613699D01*
X150451383Y-67588852D01*
X150444994Y-67564790D01*
X150434033Y-67542436D01*
X150418922Y-67522650D01*
X150330442Y-67427752D01*
X150254582Y-67333412D01*
X150224736Y-67289804D01*
X150271641Y-67226920D01*
X150396825Y-66964099D01*
X150441476Y-66816890D01*
X150320155Y-66587000D01*
X149980268Y-66587000D01*
X149976909Y-66465004D01*
X149975881Y-66452000D01*
X149970242Y-66427750D01*
X149959981Y-66405067D01*
X149945492Y-66384821D01*
X149927331Y-66367791D01*
X149906197Y-66354631D01*
X149882902Y-66345847D01*
X149835073Y-66333000D01*
X150320155Y-66333000D01*
X150441476Y-66103110D01*
X150430138Y-66065729D01*
X151754628Y-67390220D01*
G36*
X147687047Y-63389586D02*
G01*
X147711067Y-63454475D01*
X147731608Y-63527660D01*
X147748153Y-63609504D01*
X147760194Y-63700188D01*
X147767253Y-63799667D01*
X147768297Y-63866662D01*
X147763044Y-63920000D01*
X147786812Y-64161318D01*
X147857202Y-64393363D01*
X147971509Y-64607216D01*
X148125340Y-64794660D01*
X148312784Y-64948491D01*
X148523305Y-65061017D01*
X148368748Y-65115843D01*
X148118645Y-65264822D01*
X147902412Y-65459731D01*
X147728359Y-65693080D01*
X147603175Y-65955901D01*
X147558524Y-66103110D01*
X147679845Y-66333000D01*
X148614586Y-66333000D01*
X148682810Y-66587000D01*
X147679845Y-66587000D01*
X147558524Y-66816890D01*
X147569862Y-66854271D01*
X145755376Y-65039785D01*
X145739527Y-65020473D01*
X145662479Y-64957241D01*
X145574575Y-64910255D01*
X145479193Y-64881322D01*
X145404854Y-64874000D01*
X145404846Y-64874000D01*
X145380000Y-64871553D01*
X145355154Y-64874000D01*
X143756963Y-64874000D01*
X143643261Y-64870021D01*
X143541859Y-64859011D01*
X143445930Y-64841037D01*
X143354912Y-64816285D01*
X143268206Y-64784816D01*
X143185177Y-64746526D01*
X143105209Y-64701147D01*
X143027771Y-64648263D01*
X142952496Y-64587384D01*
X142905457Y-64542866D01*
X142874660Y-64505340D01*
X142687216Y-64351509D01*
X142473363Y-64237202D01*
X142241318Y-64166812D01*
X142060472Y-64149000D01*
X141939528Y-64149000D01*
X141758682Y-64166812D01*
X141600924Y-64214667D01*
X141705802Y-64109790D01*
X141735467Y-64099826D01*
X141807895Y-64083989D01*
X141891999Y-64074091D01*
X141995733Y-64071000D01*
X142060472Y-64071000D01*
X142241318Y-64053188D01*
X142473363Y-63982798D01*
X142687216Y-63868491D01*
X142874660Y-63714660D01*
X142905457Y-63677134D01*
X142952496Y-63632616D01*
X143027771Y-63571737D01*
X143105209Y-63518853D01*
X143185177Y-63473474D01*
X143268206Y-63435184D01*
X143354912Y-63403715D01*
X143445930Y-63378963D01*
X143541859Y-63360989D01*
X143643261Y-63349979D01*
X143756963Y-63346000D01*
X147666423Y-63346000D01*
X147687047Y-63389586D01*
X147687047Y-63389586D01*
G37*
X147687047Y-63389586D02*
X147711067Y-63454475D01*
X147731608Y-63527660D01*
X147748153Y-63609504D01*
X147760194Y-63700188D01*
X147767253Y-63799667D01*
X147768297Y-63866662D01*
X147763044Y-63920000D01*
X147786812Y-64161318D01*
X147857202Y-64393363D01*
X147971509Y-64607216D01*
X148125340Y-64794660D01*
X148312784Y-64948491D01*
X148523305Y-65061017D01*
X148368748Y-65115843D01*
X148118645Y-65264822D01*
X147902412Y-65459731D01*
X147728359Y-65693080D01*
X147603175Y-65955901D01*
X147558524Y-66103110D01*
X147679845Y-66333000D01*
X148614586Y-66333000D01*
X148682810Y-66587000D01*
X147679845Y-66587000D01*
X147558524Y-66816890D01*
X147569862Y-66854271D01*
X145755376Y-65039785D01*
X145739527Y-65020473D01*
X145662479Y-64957241D01*
X145574575Y-64910255D01*
X145479193Y-64881322D01*
X145404854Y-64874000D01*
X145404846Y-64874000D01*
X145380000Y-64871553D01*
X145355154Y-64874000D01*
X143756963Y-64874000D01*
X143643261Y-64870021D01*
X143541859Y-64859011D01*
X143445930Y-64841037D01*
X143354912Y-64816285D01*
X143268206Y-64784816D01*
X143185177Y-64746526D01*
X143105209Y-64701147D01*
X143027771Y-64648263D01*
X142952496Y-64587384D01*
X142905457Y-64542866D01*
X142874660Y-64505340D01*
X142687216Y-64351509D01*
X142473363Y-64237202D01*
X142241318Y-64166812D01*
X142060472Y-64149000D01*
X141939528Y-64149000D01*
X141758682Y-64166812D01*
X141600924Y-64214667D01*
X141705802Y-64109790D01*
X141735467Y-64099826D01*
X141807895Y-64083989D01*
X141891999Y-64074091D01*
X141995733Y-64071000D01*
X142060472Y-64071000D01*
X142241318Y-64053188D01*
X142473363Y-63982798D01*
X142687216Y-63868491D01*
X142874660Y-63714660D01*
X142905457Y-63677134D01*
X142952496Y-63632616D01*
X143027771Y-63571737D01*
X143105209Y-63518853D01*
X143185177Y-63473474D01*
X143268206Y-63435184D01*
X143354912Y-63403715D01*
X143445930Y-63378963D01*
X143541859Y-63360989D01*
X143643261Y-63349979D01*
X143756963Y-63346000D01*
X147666423Y-63346000D01*
X147687047Y-63389586D01*
G36*
X159087000Y-62794212D02*
G01*
X159070024Y-62764767D01*
X159060709Y-62750826D01*
X159043679Y-62732665D01*
X159023433Y-62718176D01*
X159000750Y-62707915D01*
X158976500Y-62702276D01*
X158951617Y-62701477D01*
X158927055Y-62705547D01*
X158903760Y-62714331D01*
X158882626Y-62727491D01*
X158864465Y-62744521D01*
X158849976Y-62764767D01*
X158833000Y-62794212D01*
X158833000Y-61188765D01*
X159087000Y-61042325D01*
X159087000Y-62794212D01*
X159087000Y-62794212D01*
G37*
X159087000Y-62794212D02*
X159070024Y-62764767D01*
X159060709Y-62750826D01*
X159043679Y-62732665D01*
X159023433Y-62718176D01*
X159000750Y-62707915D01*
X158976500Y-62702276D01*
X158951617Y-62701477D01*
X158927055Y-62705547D01*
X158903760Y-62714331D01*
X158882626Y-62727491D01*
X158864465Y-62744521D01*
X158849976Y-62764767D01*
X158833000Y-62794212D01*
X158833000Y-61188765D01*
X159087000Y-61042325D01*
X159087000Y-62794212D01*
G36*
X146646637Y-52457202D02*
G01*
X146432784Y-52571509D01*
X146245340Y-52725340D01*
X146091509Y-52912784D01*
X145977202Y-53126637D01*
X145906812Y-53358682D01*
X145883044Y-53600000D01*
X145887802Y-53648308D01*
X145886019Y-53713052D01*
X145875838Y-53809334D01*
X145858477Y-53901477D01*
X145834020Y-53990111D01*
X145802382Y-54075904D01*
X145763327Y-54159461D01*
X145716470Y-54241320D01*
X145661343Y-54321867D01*
X145597427Y-54401354D01*
X145519859Y-54484549D01*
X142010409Y-57994000D01*
X135824854Y-57994000D01*
X135800000Y-57991552D01*
X135775146Y-57994000D01*
X135700807Y-58001322D01*
X135605425Y-58030255D01*
X135517521Y-58077241D01*
X135440473Y-58140473D01*
X135424629Y-58159779D01*
X132344556Y-61239853D01*
X132261354Y-61317427D01*
X132181867Y-61381343D01*
X132101320Y-61436470D01*
X132019461Y-61483327D01*
X131935904Y-61522382D01*
X131850111Y-61554020D01*
X131761477Y-61578477D01*
X131669334Y-61595838D01*
X131573052Y-61606019D01*
X131464803Y-61609000D01*
X131399528Y-61609000D01*
X131218682Y-61626812D01*
X130986637Y-61697202D01*
X130772784Y-61811509D01*
X130585340Y-61965340D01*
X130431509Y-62152784D01*
X130431000Y-62153736D01*
X130431000Y-56021079D01*
X130500998Y-55307181D01*
X130702208Y-54640743D01*
X131029026Y-54026089D01*
X131469009Y-53486616D01*
X132005398Y-53042877D01*
X132617760Y-52711775D01*
X133282768Y-52505921D01*
X133995414Y-52431018D01*
X134000633Y-52431000D01*
X146733014Y-52431000D01*
X146646637Y-52457202D01*
X146646637Y-52457202D01*
G37*
X146646637Y-52457202D02*
X146432784Y-52571509D01*
X146245340Y-52725340D01*
X146091509Y-52912784D01*
X145977202Y-53126637D01*
X145906812Y-53358682D01*
X145883044Y-53600000D01*
X145887802Y-53648308D01*
X145886019Y-53713052D01*
X145875838Y-53809334D01*
X145858477Y-53901477D01*
X145834020Y-53990111D01*
X145802382Y-54075904D01*
X145763327Y-54159461D01*
X145716470Y-54241320D01*
X145661343Y-54321867D01*
X145597427Y-54401354D01*
X145519859Y-54484549D01*
X142010409Y-57994000D01*
X135824854Y-57994000D01*
X135800000Y-57991552D01*
X135775146Y-57994000D01*
X135700807Y-58001322D01*
X135605425Y-58030255D01*
X135517521Y-58077241D01*
X135440473Y-58140473D01*
X135424629Y-58159779D01*
X132344556Y-61239853D01*
X132261354Y-61317427D01*
X132181867Y-61381343D01*
X132101320Y-61436470D01*
X132019461Y-61483327D01*
X131935904Y-61522382D01*
X131850111Y-61554020D01*
X131761477Y-61578477D01*
X131669334Y-61595838D01*
X131573052Y-61606019D01*
X131464803Y-61609000D01*
X131399528Y-61609000D01*
X131218682Y-61626812D01*
X130986637Y-61697202D01*
X130772784Y-61811509D01*
X130585340Y-61965340D01*
X130431509Y-62152784D01*
X130431000Y-62153736D01*
X130431000Y-56021079D01*
X130500998Y-55307181D01*
X130702208Y-54640743D01*
X131029026Y-54026089D01*
X131469009Y-53486616D01*
X132005398Y-53042877D01*
X132617760Y-52711775D01*
X133282768Y-52505921D01*
X133995414Y-52431018D01*
X134000633Y-52431000D01*
X146733014Y-52431000D01*
X146646637Y-52457202D01*
D17*
G36*
X132768381Y-61691051D02*
G01*
X132685104Y-61780368D01*
X132684496Y-61781071D01*
X132602642Y-61882865D01*
X132602059Y-61883650D01*
X132529989Y-61988954D01*
X132529447Y-61989818D01*
X132467163Y-62098630D01*
X132466680Y-62099561D01*
X132414180Y-62211883D01*
X132413769Y-62212867D01*
X132371053Y-62328697D01*
X132370727Y-62329713D01*
X132337797Y-62449052D01*
X132337559Y-62450079D01*
X132314413Y-62572927D01*
X132314263Y-62573943D01*
X132300903Y-62700299D01*
X132300838Y-62701284D01*
X132297522Y-62821690D01*
X131177459Y-63122541D01*
X131478310Y-62002478D01*
X131598715Y-61999162D01*
X131599700Y-61999097D01*
X131726056Y-61985736D01*
X131727072Y-61985586D01*
X131849920Y-61962440D01*
X131850947Y-61962202D01*
X131970286Y-61929272D01*
X131971302Y-61928946D01*
X132087132Y-61886231D01*
X132088116Y-61885820D01*
X132200438Y-61833320D01*
X132201369Y-61832837D01*
X132310181Y-61770552D01*
X132311045Y-61770010D01*
X132416349Y-61697940D01*
X132417134Y-61697357D01*
X132518928Y-61615503D01*
X132519631Y-61614895D01*
X132608949Y-61531619D01*
X132768381Y-61691051D01*
X132768381Y-61691051D01*
G37*
X132768381Y-61691051D02*
X132685104Y-61780368D01*
X132684496Y-61781071D01*
X132602642Y-61882865D01*
X132602059Y-61883650D01*
X132529989Y-61988954D01*
X132529447Y-61989818D01*
X132467163Y-62098630D01*
X132466680Y-62099561D01*
X132414180Y-62211883D01*
X132413769Y-62212867D01*
X132371053Y-62328697D01*
X132370727Y-62329713D01*
X132337797Y-62449052D01*
X132337559Y-62450079D01*
X132314413Y-62572927D01*
X132314263Y-62573943D01*
X132300903Y-62700299D01*
X132300838Y-62701284D01*
X132297522Y-62821690D01*
X131177459Y-63122541D01*
X131478310Y-62002478D01*
X131598715Y-61999162D01*
X131599700Y-61999097D01*
X131726056Y-61985736D01*
X131727072Y-61985586D01*
X131849920Y-61962440D01*
X131850947Y-61962202D01*
X131970286Y-61929272D01*
X131971302Y-61928946D01*
X132087132Y-61886231D01*
X132088116Y-61885820D01*
X132200438Y-61833320D01*
X132201369Y-61832837D01*
X132310181Y-61770552D01*
X132311045Y-61770010D01*
X132416349Y-61697940D01*
X132417134Y-61697357D01*
X132518928Y-61615503D01*
X132519631Y-61614895D01*
X132608949Y-61531619D01*
X132768381Y-61691051D01*
G36*
X147101690Y-54437522D02*
G01*
X146981284Y-54440838D01*
X146980299Y-54440903D01*
X146853943Y-54454263D01*
X146852927Y-54454413D01*
X146730079Y-54477559D01*
X146729052Y-54477797D01*
X146609713Y-54510727D01*
X146608697Y-54511053D01*
X146492867Y-54553769D01*
X146491883Y-54554180D01*
X146379561Y-54606680D01*
X146378630Y-54607163D01*
X146269818Y-54669447D01*
X146268954Y-54669989D01*
X146163650Y-54742059D01*
X146162865Y-54742642D01*
X146061071Y-54824496D01*
X146060368Y-54825104D01*
X145971051Y-54908381D01*
X145811619Y-54748949D01*
X145894895Y-54659631D01*
X145895503Y-54658928D01*
X145977357Y-54557134D01*
X145977940Y-54556349D01*
X146050010Y-54451045D01*
X146050552Y-54450181D01*
X146112837Y-54341369D01*
X146113320Y-54340438D01*
X146165820Y-54228116D01*
X146166231Y-54227132D01*
X146208946Y-54111302D01*
X146209272Y-54110286D01*
X146242202Y-53990947D01*
X146242440Y-53989920D01*
X146265586Y-53867072D01*
X146265736Y-53866056D01*
X146279097Y-53739700D01*
X146279162Y-53738715D01*
X146282478Y-53618310D01*
X147402541Y-53317459D01*
X147101690Y-54437522D01*
X147101690Y-54437522D01*
G37*
X147101690Y-54437522D02*
X146981284Y-54440838D01*
X146980299Y-54440903D01*
X146853943Y-54454263D01*
X146852927Y-54454413D01*
X146730079Y-54477559D01*
X146729052Y-54477797D01*
X146609713Y-54510727D01*
X146608697Y-54511053D01*
X146492867Y-54553769D01*
X146491883Y-54554180D01*
X146379561Y-54606680D01*
X146378630Y-54607163D01*
X146269818Y-54669447D01*
X146268954Y-54669989D01*
X146163650Y-54742059D01*
X146162865Y-54742642D01*
X146061071Y-54824496D01*
X146060368Y-54825104D01*
X145971051Y-54908381D01*
X145811619Y-54748949D01*
X145894895Y-54659631D01*
X145895503Y-54658928D01*
X145977357Y-54557134D01*
X145977940Y-54556349D01*
X146050010Y-54451045D01*
X146050552Y-54450181D01*
X146112837Y-54341369D01*
X146113320Y-54340438D01*
X146165820Y-54228116D01*
X146166231Y-54227132D01*
X146208946Y-54111302D01*
X146209272Y-54110286D01*
X146242202Y-53990947D01*
X146242440Y-53989920D01*
X146265586Y-53867072D01*
X146265736Y-53866056D01*
X146279097Y-53739700D01*
X146279162Y-53738715D01*
X146282478Y-53618310D01*
X147402541Y-53317459D01*
X147101690Y-54437522D01*
G36*
X135308381Y-61691051D02*
G01*
X135225104Y-61780368D01*
X135224496Y-61781071D01*
X135142642Y-61882865D01*
X135142059Y-61883650D01*
X135069989Y-61988954D01*
X135069447Y-61989818D01*
X135007163Y-62098630D01*
X135006680Y-62099561D01*
X134954180Y-62211883D01*
X134953769Y-62212867D01*
X134911053Y-62328697D01*
X134910727Y-62329713D01*
X134877797Y-62449052D01*
X134877559Y-62450079D01*
X134854413Y-62572927D01*
X134854263Y-62573943D01*
X134840903Y-62700299D01*
X134840838Y-62701284D01*
X134837522Y-62821690D01*
X133717459Y-63122541D01*
X134018310Y-62002478D01*
X134138715Y-61999162D01*
X134139700Y-61999097D01*
X134266056Y-61985736D01*
X134267072Y-61985586D01*
X134389920Y-61962440D01*
X134390947Y-61962202D01*
X134510286Y-61929272D01*
X134511302Y-61928946D01*
X134627132Y-61886231D01*
X134628116Y-61885820D01*
X134740438Y-61833320D01*
X134741369Y-61832837D01*
X134850181Y-61770552D01*
X134851045Y-61770010D01*
X134956349Y-61697940D01*
X134957134Y-61697357D01*
X135058928Y-61615503D01*
X135059631Y-61614895D01*
X135148949Y-61531619D01*
X135308381Y-61691051D01*
X135308381Y-61691051D01*
G37*
X135308381Y-61691051D02*
X135225104Y-61780368D01*
X135224496Y-61781071D01*
X135142642Y-61882865D01*
X135142059Y-61883650D01*
X135069989Y-61988954D01*
X135069447Y-61989818D01*
X135007163Y-62098630D01*
X135006680Y-62099561D01*
X134954180Y-62211883D01*
X134953769Y-62212867D01*
X134911053Y-62328697D01*
X134910727Y-62329713D01*
X134877797Y-62449052D01*
X134877559Y-62450079D01*
X134854413Y-62572927D01*
X134854263Y-62573943D01*
X134840903Y-62700299D01*
X134840838Y-62701284D01*
X134837522Y-62821690D01*
X133717459Y-63122541D01*
X134018310Y-62002478D01*
X134138715Y-61999162D01*
X134139700Y-61999097D01*
X134266056Y-61985736D01*
X134267072Y-61985586D01*
X134389920Y-61962440D01*
X134390947Y-61962202D01*
X134510286Y-61929272D01*
X134511302Y-61928946D01*
X134627132Y-61886231D01*
X134628116Y-61885820D01*
X134740438Y-61833320D01*
X134741369Y-61832837D01*
X134850181Y-61770552D01*
X134851045Y-61770010D01*
X134956349Y-61697940D01*
X134957134Y-61697357D01*
X135058928Y-61615503D01*
X135059631Y-61614895D01*
X135148949Y-61531619D01*
X135308381Y-61691051D01*
G36*
X149641690Y-54437522D02*
G01*
X149521284Y-54440838D01*
X149520299Y-54440903D01*
X149393943Y-54454263D01*
X149392927Y-54454413D01*
X149270079Y-54477559D01*
X149269052Y-54477797D01*
X149149713Y-54510727D01*
X149148697Y-54511053D01*
X149032867Y-54553769D01*
X149031883Y-54554180D01*
X148919561Y-54606680D01*
X148918630Y-54607163D01*
X148809818Y-54669447D01*
X148808954Y-54669989D01*
X148703650Y-54742059D01*
X148702865Y-54742642D01*
X148601071Y-54824496D01*
X148600368Y-54825104D01*
X148511051Y-54908381D01*
X148351619Y-54748949D01*
X148434895Y-54659631D01*
X148435503Y-54658928D01*
X148517357Y-54557134D01*
X148517940Y-54556349D01*
X148590010Y-54451045D01*
X148590552Y-54450181D01*
X148652837Y-54341369D01*
X148653320Y-54340438D01*
X148705820Y-54228116D01*
X148706231Y-54227132D01*
X148748946Y-54111302D01*
X148749272Y-54110286D01*
X148782202Y-53990947D01*
X148782440Y-53989920D01*
X148805586Y-53867072D01*
X148805736Y-53866056D01*
X148819097Y-53739700D01*
X148819162Y-53738715D01*
X148822478Y-53618310D01*
X149942541Y-53317459D01*
X149641690Y-54437522D01*
X149641690Y-54437522D01*
G37*
X149641690Y-54437522D02*
X149521284Y-54440838D01*
X149520299Y-54440903D01*
X149393943Y-54454263D01*
X149392927Y-54454413D01*
X149270079Y-54477559D01*
X149269052Y-54477797D01*
X149149713Y-54510727D01*
X149148697Y-54511053D01*
X149032867Y-54553769D01*
X149031883Y-54554180D01*
X148919561Y-54606680D01*
X148918630Y-54607163D01*
X148809818Y-54669447D01*
X148808954Y-54669989D01*
X148703650Y-54742059D01*
X148702865Y-54742642D01*
X148601071Y-54824496D01*
X148600368Y-54825104D01*
X148511051Y-54908381D01*
X148351619Y-54748949D01*
X148434895Y-54659631D01*
X148435503Y-54658928D01*
X148517357Y-54557134D01*
X148517940Y-54556349D01*
X148590010Y-54451045D01*
X148590552Y-54450181D01*
X148652837Y-54341369D01*
X148653320Y-54340438D01*
X148705820Y-54228116D01*
X148706231Y-54227132D01*
X148748946Y-54111302D01*
X148749272Y-54110286D01*
X148782202Y-53990947D01*
X148782440Y-53989920D01*
X148805586Y-53867072D01*
X148805736Y-53866056D01*
X148819097Y-53739700D01*
X148819162Y-53738715D01*
X148822478Y-53618310D01*
X149942541Y-53317459D01*
X149641690Y-54437522D01*
G36*
X141255534Y-67009856D02*
G01*
X141257864Y-67011204D01*
X141293758Y-67027159D01*
X141295321Y-67027734D01*
X141342478Y-67041656D01*
X141343541Y-67041921D01*
X141401959Y-67053812D01*
X141402713Y-67053942D01*
X141472394Y-67063801D01*
X141472951Y-67063867D01*
X141553892Y-67071694D01*
X141554317Y-67071728D01*
X141646521Y-67077523D01*
X141646856Y-67077540D01*
X141750321Y-67081304D01*
X141750591Y-67081311D01*
X141865319Y-67083042D01*
X141865541Y-67083043D01*
X141981768Y-67082766D01*
X142282541Y-68202541D01*
X141162766Y-67901768D01*
X141163043Y-67785541D01*
X141163042Y-67785319D01*
X141161311Y-67670591D01*
X141161304Y-67670321D01*
X141157540Y-67566856D01*
X141157523Y-67566521D01*
X141151728Y-67474317D01*
X141151694Y-67473892D01*
X141143867Y-67392951D01*
X141143801Y-67392394D01*
X141133942Y-67322713D01*
X141133812Y-67321959D01*
X141121921Y-67263541D01*
X141121656Y-67262478D01*
X141107734Y-67215321D01*
X141107159Y-67213758D01*
X141091204Y-67177864D01*
X141089856Y-67175534D01*
X141078281Y-67159682D01*
X141239682Y-66998281D01*
X141255534Y-67009856D01*
X141255534Y-67009856D01*
G37*
X141255534Y-67009856D02*
X141257864Y-67011204D01*
X141293758Y-67027159D01*
X141295321Y-67027734D01*
X141342478Y-67041656D01*
X141343541Y-67041921D01*
X141401959Y-67053812D01*
X141402713Y-67053942D01*
X141472394Y-67063801D01*
X141472951Y-67063867D01*
X141553892Y-67071694D01*
X141554317Y-67071728D01*
X141646521Y-67077523D01*
X141646856Y-67077540D01*
X141750321Y-67081304D01*
X141750591Y-67081311D01*
X141865319Y-67083042D01*
X141865541Y-67083043D01*
X141981768Y-67082766D01*
X142282541Y-68202541D01*
X141162766Y-67901768D01*
X141163043Y-67785541D01*
X141163042Y-67785319D01*
X141161311Y-67670591D01*
X141161304Y-67670321D01*
X141157540Y-67566856D01*
X141157523Y-67566521D01*
X141151728Y-67474317D01*
X141151694Y-67473892D01*
X141143867Y-67392951D01*
X141143801Y-67392394D01*
X141133942Y-67322713D01*
X141133812Y-67321959D01*
X141121921Y-67263541D01*
X141121656Y-67262478D01*
X141107734Y-67215321D01*
X141107159Y-67213758D01*
X141091204Y-67177864D01*
X141089856Y-67175534D01*
X141078281Y-67159682D01*
X141239682Y-66998281D01*
X141255534Y-67009856D01*
G36*
X134837522Y-65398310D02*
G01*
X134840838Y-65518715D01*
X134840903Y-65519700D01*
X134854263Y-65646056D01*
X134854413Y-65647072D01*
X134877559Y-65769920D01*
X134877797Y-65770947D01*
X134910727Y-65890286D01*
X134911053Y-65891302D01*
X134953769Y-66007132D01*
X134954180Y-66008116D01*
X135006680Y-66120438D01*
X135007163Y-66121369D01*
X135069447Y-66230181D01*
X135069989Y-66231045D01*
X135142059Y-66336349D01*
X135142642Y-66337134D01*
X135224496Y-66438928D01*
X135225104Y-66439631D01*
X135308381Y-66528949D01*
X135148949Y-66688381D01*
X135059631Y-66605104D01*
X135058928Y-66604496D01*
X134957134Y-66522642D01*
X134956349Y-66522059D01*
X134851045Y-66449989D01*
X134850181Y-66449447D01*
X134741369Y-66387163D01*
X134740438Y-66386680D01*
X134628116Y-66334180D01*
X134627132Y-66333769D01*
X134511302Y-66291053D01*
X134510286Y-66290727D01*
X134390947Y-66257797D01*
X134389920Y-66257559D01*
X134267072Y-66234413D01*
X134266056Y-66234263D01*
X134139700Y-66220903D01*
X134138715Y-66220838D01*
X134018310Y-66217522D01*
X133717459Y-65097459D01*
X134837522Y-65398310D01*
X134837522Y-65398310D01*
G37*
X134837522Y-65398310D02*
X134840838Y-65518715D01*
X134840903Y-65519700D01*
X134854263Y-65646056D01*
X134854413Y-65647072D01*
X134877559Y-65769920D01*
X134877797Y-65770947D01*
X134910727Y-65890286D01*
X134911053Y-65891302D01*
X134953769Y-66007132D01*
X134954180Y-66008116D01*
X135006680Y-66120438D01*
X135007163Y-66121369D01*
X135069447Y-66230181D01*
X135069989Y-66231045D01*
X135142059Y-66336349D01*
X135142642Y-66337134D01*
X135224496Y-66438928D01*
X135225104Y-66439631D01*
X135308381Y-66528949D01*
X135148949Y-66688381D01*
X135059631Y-66605104D01*
X135058928Y-66604496D01*
X134957134Y-66522642D01*
X134956349Y-66522059D01*
X134851045Y-66449989D01*
X134850181Y-66449447D01*
X134741369Y-66387163D01*
X134740438Y-66386680D01*
X134628116Y-66334180D01*
X134627132Y-66333769D01*
X134511302Y-66291053D01*
X134510286Y-66290727D01*
X134390947Y-66257797D01*
X134389920Y-66257559D01*
X134267072Y-66234413D01*
X134266056Y-66234263D01*
X134139700Y-66220903D01*
X134138715Y-66220838D01*
X134018310Y-66217522D01*
X133717459Y-65097459D01*
X134837522Y-65398310D01*
G36*
X142837522Y-67938310D02*
G01*
X142840838Y-68058715D01*
X142840903Y-68059700D01*
X142854263Y-68186056D01*
X142854413Y-68187072D01*
X142877559Y-68309920D01*
X142877797Y-68310947D01*
X142910727Y-68430286D01*
X142911053Y-68431302D01*
X142953769Y-68547132D01*
X142954180Y-68548116D01*
X143006680Y-68660438D01*
X143007163Y-68661369D01*
X143069447Y-68770181D01*
X143069989Y-68771045D01*
X143142059Y-68876349D01*
X143142642Y-68877134D01*
X143224496Y-68978928D01*
X143225104Y-68979631D01*
X143308381Y-69068949D01*
X143148949Y-69228381D01*
X143059631Y-69145104D01*
X143058928Y-69144496D01*
X142957134Y-69062642D01*
X142956349Y-69062059D01*
X142851045Y-68989989D01*
X142850181Y-68989447D01*
X142741369Y-68927163D01*
X142740438Y-68926680D01*
X142628116Y-68874180D01*
X142627132Y-68873769D01*
X142511302Y-68831053D01*
X142510286Y-68830727D01*
X142390947Y-68797797D01*
X142389920Y-68797559D01*
X142267072Y-68774413D01*
X142266056Y-68774263D01*
X142139700Y-68760903D01*
X142138715Y-68760838D01*
X142018310Y-68757522D01*
X141717459Y-67637459D01*
X142837522Y-67938310D01*
X142837522Y-67938310D01*
G37*
X142837522Y-67938310D02*
X142840838Y-68058715D01*
X142840903Y-68059700D01*
X142854263Y-68186056D01*
X142854413Y-68187072D01*
X142877559Y-68309920D01*
X142877797Y-68310947D01*
X142910727Y-68430286D01*
X142911053Y-68431302D01*
X142953769Y-68547132D01*
X142954180Y-68548116D01*
X143006680Y-68660438D01*
X143007163Y-68661369D01*
X143069447Y-68770181D01*
X143069989Y-68771045D01*
X143142059Y-68876349D01*
X143142642Y-68877134D01*
X143224496Y-68978928D01*
X143225104Y-68979631D01*
X143308381Y-69068949D01*
X143148949Y-69228381D01*
X143059631Y-69145104D01*
X143058928Y-69144496D01*
X142957134Y-69062642D01*
X142956349Y-69062059D01*
X142851045Y-68989989D01*
X142850181Y-68989447D01*
X142741369Y-68927163D01*
X142740438Y-68926680D01*
X142628116Y-68874180D01*
X142627132Y-68873769D01*
X142511302Y-68831053D01*
X142510286Y-68830727D01*
X142390947Y-68797797D01*
X142389920Y-68797559D01*
X142267072Y-68774413D01*
X142266056Y-68774263D01*
X142139700Y-68760903D01*
X142138715Y-68760838D01*
X142018310Y-68757522D01*
X141717459Y-67637459D01*
X142837522Y-67938310D01*
G36*
X160419137Y-72173529D02*
G01*
X160419840Y-72174137D01*
X160523693Y-72257645D01*
X160524478Y-72258228D01*
X160631910Y-72331754D01*
X160632774Y-72332296D01*
X160743787Y-72395839D01*
X160744718Y-72396322D01*
X160859312Y-72449883D01*
X160860296Y-72450294D01*
X160978470Y-72493872D01*
X160979486Y-72494199D01*
X161101240Y-72527794D01*
X161102267Y-72528031D01*
X161227602Y-72551645D01*
X161228618Y-72551795D01*
X161357533Y-72565425D01*
X161358518Y-72565490D01*
X161481554Y-72568878D01*
X161787349Y-73707349D01*
X160648878Y-73401554D01*
X160645490Y-73278518D01*
X160645425Y-73277533D01*
X160631795Y-73148618D01*
X160631645Y-73147602D01*
X160608031Y-73022267D01*
X160607794Y-73021240D01*
X160574199Y-72899486D01*
X160573872Y-72898470D01*
X160530294Y-72780296D01*
X160529883Y-72779312D01*
X160476322Y-72664718D01*
X160475839Y-72663787D01*
X160412296Y-72552774D01*
X160411754Y-72551910D01*
X160338228Y-72444478D01*
X160337645Y-72443693D01*
X160254137Y-72339840D01*
X160253529Y-72339137D01*
X160168402Y-72247835D01*
X160327835Y-72088402D01*
X160419137Y-72173529D01*
X160419137Y-72173529D01*
G37*
X160419137Y-72173529D02*
X160419840Y-72174137D01*
X160523693Y-72257645D01*
X160524478Y-72258228D01*
X160631910Y-72331754D01*
X160632774Y-72332296D01*
X160743787Y-72395839D01*
X160744718Y-72396322D01*
X160859312Y-72449883D01*
X160860296Y-72450294D01*
X160978470Y-72493872D01*
X160979486Y-72494199D01*
X161101240Y-72527794D01*
X161102267Y-72528031D01*
X161227602Y-72551645D01*
X161228618Y-72551795D01*
X161357533Y-72565425D01*
X161358518Y-72565490D01*
X161481554Y-72568878D01*
X161787349Y-73707349D01*
X160648878Y-73401554D01*
X160645490Y-73278518D01*
X160645425Y-73277533D01*
X160631795Y-73148618D01*
X160631645Y-73147602D01*
X160608031Y-73022267D01*
X160607794Y-73021240D01*
X160574199Y-72899486D01*
X160573872Y-72898470D01*
X160530294Y-72780296D01*
X160529883Y-72779312D01*
X160476322Y-72664718D01*
X160475839Y-72663787D01*
X160412296Y-72552774D01*
X160411754Y-72551910D01*
X160338228Y-72444478D01*
X160337645Y-72443693D01*
X160254137Y-72339840D01*
X160253529Y-72339137D01*
X160168402Y-72247835D01*
X160327835Y-72088402D01*
X160419137Y-72173529D01*
G36*
X141981684Y-63677544D02*
G01*
X141863633Y-63681062D01*
X141862527Y-63681143D01*
X141743299Y-63695175D01*
X141742070Y-63695381D01*
X141631105Y-63719644D01*
X141629774Y-63720012D01*
X141527070Y-63754507D01*
X141525678Y-63755068D01*
X141431236Y-63799795D01*
X141429843Y-63800565D01*
X141343663Y-63855524D01*
X141342343Y-63856492D01*
X141264425Y-63921683D01*
X141263244Y-63922806D01*
X141193587Y-63998229D01*
X141192595Y-63999447D01*
X141131200Y-64085102D01*
X141130413Y-64086346D01*
X141085450Y-64167489D01*
X140926809Y-64008848D01*
X140969665Y-63914321D01*
X140969920Y-63913718D01*
X141011375Y-63808123D01*
X141011594Y-63807518D01*
X141048017Y-63698861D01*
X141048203Y-63698260D01*
X141079594Y-63586542D01*
X141079745Y-63585950D01*
X141106104Y-63471170D01*
X141106223Y-63470589D01*
X141127550Y-63352747D01*
X141127639Y-63352181D01*
X141143934Y-63231277D01*
X141143996Y-63230730D01*
X141155260Y-63106765D01*
X141155297Y-63106238D01*
X141161528Y-62979210D01*
X141161542Y-62978705D01*
X141162653Y-62858263D01*
X142282541Y-62557459D01*
X141981684Y-63677544D01*
X141981684Y-63677544D01*
G37*
X141981684Y-63677544D02*
X141863633Y-63681062D01*
X141862527Y-63681143D01*
X141743299Y-63695175D01*
X141742070Y-63695381D01*
X141631105Y-63719644D01*
X141629774Y-63720012D01*
X141527070Y-63754507D01*
X141525678Y-63755068D01*
X141431236Y-63799795D01*
X141429843Y-63800565D01*
X141343663Y-63855524D01*
X141342343Y-63856492D01*
X141264425Y-63921683D01*
X141263244Y-63922806D01*
X141193587Y-63998229D01*
X141192595Y-63999447D01*
X141131200Y-64085102D01*
X141130413Y-64086346D01*
X141085450Y-64167489D01*
X140926809Y-64008848D01*
X140969665Y-63914321D01*
X140969920Y-63913718D01*
X141011375Y-63808123D01*
X141011594Y-63807518D01*
X141048017Y-63698861D01*
X141048203Y-63698260D01*
X141079594Y-63586542D01*
X141079745Y-63585950D01*
X141106104Y-63471170D01*
X141106223Y-63470589D01*
X141127550Y-63352747D01*
X141127639Y-63352181D01*
X141143934Y-63231277D01*
X141143996Y-63230730D01*
X141155260Y-63106765D01*
X141155297Y-63106238D01*
X141161528Y-62979210D01*
X141161542Y-62978705D01*
X141162653Y-62858263D01*
X142282541Y-62557459D01*
X141981684Y-63677544D01*
G36*
X132768381Y-66771051D02*
G01*
X132685104Y-66860368D01*
X132684496Y-66861071D01*
X132602642Y-66962865D01*
X132602059Y-66963650D01*
X132529989Y-67068954D01*
X132529447Y-67069818D01*
X132467163Y-67178630D01*
X132466680Y-67179561D01*
X132414180Y-67291883D01*
X132413769Y-67292867D01*
X132371053Y-67408697D01*
X132370727Y-67409713D01*
X132337797Y-67529052D01*
X132337559Y-67530079D01*
X132314413Y-67652927D01*
X132314263Y-67653943D01*
X132300903Y-67780299D01*
X132300838Y-67781284D01*
X132297522Y-67901690D01*
X131177459Y-68202541D01*
X131478310Y-67082478D01*
X131598715Y-67079162D01*
X131599700Y-67079097D01*
X131726056Y-67065736D01*
X131727072Y-67065586D01*
X131849920Y-67042440D01*
X131850947Y-67042202D01*
X131970286Y-67009272D01*
X131971302Y-67008946D01*
X132087132Y-66966231D01*
X132088116Y-66965820D01*
X132200438Y-66913320D01*
X132201369Y-66912837D01*
X132310181Y-66850552D01*
X132311045Y-66850010D01*
X132416349Y-66777940D01*
X132417134Y-66777357D01*
X132518928Y-66695503D01*
X132519631Y-66694895D01*
X132608949Y-66611619D01*
X132768381Y-66771051D01*
X132768381Y-66771051D01*
G37*
X132768381Y-66771051D02*
X132685104Y-66860368D01*
X132684496Y-66861071D01*
X132602642Y-66962865D01*
X132602059Y-66963650D01*
X132529989Y-67068954D01*
X132529447Y-67069818D01*
X132467163Y-67178630D01*
X132466680Y-67179561D01*
X132414180Y-67291883D01*
X132413769Y-67292867D01*
X132371053Y-67408697D01*
X132370727Y-67409713D01*
X132337797Y-67529052D01*
X132337559Y-67530079D01*
X132314413Y-67652927D01*
X132314263Y-67653943D01*
X132300903Y-67780299D01*
X132300838Y-67781284D01*
X132297522Y-67901690D01*
X131177459Y-68202541D01*
X131478310Y-67082478D01*
X131598715Y-67079162D01*
X131599700Y-67079097D01*
X131726056Y-67065736D01*
X131727072Y-67065586D01*
X131849920Y-67042440D01*
X131850947Y-67042202D01*
X131970286Y-67009272D01*
X131971302Y-67008946D01*
X132087132Y-66966231D01*
X132088116Y-66965820D01*
X132200438Y-66913320D01*
X132201369Y-66912837D01*
X132310181Y-66850552D01*
X132311045Y-66850010D01*
X132416349Y-66777940D01*
X132417134Y-66777357D01*
X132518928Y-66695503D01*
X132519631Y-66694895D01*
X132608949Y-66611619D01*
X132768381Y-66771051D01*
G36*
X148068212Y-62822725D02*
G01*
X148069206Y-62823536D01*
X148144201Y-62878591D01*
X148145239Y-62879277D01*
X148226896Y-62927700D01*
X148227942Y-62928256D01*
X148316260Y-62970047D01*
X148317283Y-62970477D01*
X148412263Y-63005636D01*
X148413240Y-63005954D01*
X148514882Y-63034481D01*
X148515797Y-63034701D01*
X148624101Y-63056596D01*
X148624946Y-63056738D01*
X148739911Y-63072002D01*
X148740684Y-63072080D01*
X148862312Y-63080711D01*
X148863013Y-63080741D01*
X148981721Y-63082592D01*
X149282541Y-64202541D01*
X148162592Y-63901721D01*
X148160741Y-63783013D01*
X148160711Y-63782312D01*
X148152080Y-63660684D01*
X148152002Y-63659911D01*
X148136738Y-63544946D01*
X148136596Y-63544101D01*
X148114701Y-63435797D01*
X148114481Y-63434882D01*
X148085954Y-63333240D01*
X148085636Y-63332263D01*
X148050477Y-63237283D01*
X148050047Y-63236260D01*
X148008256Y-63147942D01*
X148007700Y-63146896D01*
X147959277Y-63065239D01*
X147958591Y-63064201D01*
X147903536Y-62989206D01*
X147902725Y-62988212D01*
X147849125Y-62928836D01*
X148008836Y-62769125D01*
X148068212Y-62822725D01*
X148068212Y-62822725D01*
G37*
X148068212Y-62822725D02*
X148069206Y-62823536D01*
X148144201Y-62878591D01*
X148145239Y-62879277D01*
X148226896Y-62927700D01*
X148227942Y-62928256D01*
X148316260Y-62970047D01*
X148317283Y-62970477D01*
X148412263Y-63005636D01*
X148413240Y-63005954D01*
X148514882Y-63034481D01*
X148515797Y-63034701D01*
X148624101Y-63056596D01*
X148624946Y-63056738D01*
X148739911Y-63072002D01*
X148740684Y-63072080D01*
X148862312Y-63080711D01*
X148863013Y-63080741D01*
X148981721Y-63082592D01*
X149282541Y-64202541D01*
X148162592Y-63901721D01*
X148160741Y-63783013D01*
X148160711Y-63782312D01*
X148152080Y-63660684D01*
X148152002Y-63659911D01*
X148136738Y-63544946D01*
X148136596Y-63544101D01*
X148114701Y-63435797D01*
X148114481Y-63434882D01*
X148085954Y-63333240D01*
X148085636Y-63332263D01*
X148050477Y-63237283D01*
X148050047Y-63236260D01*
X148008256Y-63147942D01*
X148007700Y-63146896D01*
X147959277Y-63065239D01*
X147958591Y-63064201D01*
X147903536Y-62989206D01*
X147902725Y-62988212D01*
X147849125Y-62928836D01*
X148008836Y-62769125D01*
X148068212Y-62822725D01*
G36*
X142692648Y-62343524D02*
G01*
X142693392Y-62344175D01*
X142792187Y-62424075D01*
X142793011Y-62424688D01*
X142896244Y-62495188D01*
X142897138Y-62495745D01*
X143004809Y-62556845D01*
X143005759Y-62557333D01*
X143117867Y-62609033D01*
X143118852Y-62609438D01*
X143235398Y-62651738D01*
X143236398Y-62652055D01*
X143357382Y-62684955D01*
X143358376Y-62685183D01*
X143483798Y-62708683D01*
X143484766Y-62708826D01*
X143614626Y-62722926D01*
X143615553Y-62722992D01*
X143737595Y-62727263D01*
X143737595Y-62952737D01*
X143615553Y-62957008D01*
X143614626Y-62957074D01*
X143484766Y-62971174D01*
X143483798Y-62971317D01*
X143358376Y-62994817D01*
X143357382Y-62995045D01*
X143236398Y-63027945D01*
X143235398Y-63028262D01*
X143118852Y-63070562D01*
X143117867Y-63070967D01*
X143005759Y-63122667D01*
X143004809Y-63123155D01*
X142897138Y-63184255D01*
X142896244Y-63184812D01*
X142793011Y-63255312D01*
X142792187Y-63255925D01*
X142693392Y-63335825D01*
X142692648Y-63336476D01*
X142605165Y-63419271D01*
X141600426Y-62840000D01*
X142605165Y-62260729D01*
X142692648Y-62343524D01*
X142692648Y-62343524D01*
G37*
X142692648Y-62343524D02*
X142693392Y-62344175D01*
X142792187Y-62424075D01*
X142793011Y-62424688D01*
X142896244Y-62495188D01*
X142897138Y-62495745D01*
X143004809Y-62556845D01*
X143005759Y-62557333D01*
X143117867Y-62609033D01*
X143118852Y-62609438D01*
X143235398Y-62651738D01*
X143236398Y-62652055D01*
X143357382Y-62684955D01*
X143358376Y-62685183D01*
X143483798Y-62708683D01*
X143484766Y-62708826D01*
X143614626Y-62722926D01*
X143615553Y-62722992D01*
X143737595Y-62727263D01*
X143737595Y-62952737D01*
X143615553Y-62957008D01*
X143614626Y-62957074D01*
X143484766Y-62971174D01*
X143483798Y-62971317D01*
X143358376Y-62994817D01*
X143357382Y-62995045D01*
X143236398Y-63027945D01*
X143235398Y-63028262D01*
X143118852Y-63070562D01*
X143117867Y-63070967D01*
X143005759Y-63122667D01*
X143004809Y-63123155D01*
X142897138Y-63184255D01*
X142896244Y-63184812D01*
X142793011Y-63255312D01*
X142792187Y-63255925D01*
X142693392Y-63335825D01*
X142692648Y-63336476D01*
X142605165Y-63419271D01*
X141600426Y-62840000D01*
X142605165Y-62260729D01*
X142692648Y-62343524D01*
G36*
X149837522Y-63938310D02*
G01*
X149840838Y-64058715D01*
X149840903Y-64059700D01*
X149854263Y-64186056D01*
X149854413Y-64187072D01*
X149877559Y-64309920D01*
X149877797Y-64310947D01*
X149910727Y-64430286D01*
X149911053Y-64431302D01*
X149953769Y-64547132D01*
X149954180Y-64548116D01*
X150006680Y-64660438D01*
X150007163Y-64661369D01*
X150069447Y-64770181D01*
X150069989Y-64771045D01*
X150142059Y-64876349D01*
X150142642Y-64877134D01*
X150224496Y-64978928D01*
X150225104Y-64979631D01*
X150308381Y-65068949D01*
X150148949Y-65228381D01*
X150059631Y-65145104D01*
X150058928Y-65144496D01*
X149957134Y-65062642D01*
X149956349Y-65062059D01*
X149851045Y-64989989D01*
X149850181Y-64989447D01*
X149741369Y-64927163D01*
X149740438Y-64926680D01*
X149628116Y-64874180D01*
X149627132Y-64873769D01*
X149511302Y-64831053D01*
X149510286Y-64830727D01*
X149390947Y-64797797D01*
X149389920Y-64797559D01*
X149267072Y-64774413D01*
X149266056Y-64774263D01*
X149139700Y-64760903D01*
X149138715Y-64760838D01*
X149018310Y-64757522D01*
X148717459Y-63637459D01*
X149837522Y-63938310D01*
X149837522Y-63938310D01*
G37*
X149837522Y-63938310D02*
X149840838Y-64058715D01*
X149840903Y-64059700D01*
X149854263Y-64186056D01*
X149854413Y-64187072D01*
X149877559Y-64309920D01*
X149877797Y-64310947D01*
X149910727Y-64430286D01*
X149911053Y-64431302D01*
X149953769Y-64547132D01*
X149954180Y-64548116D01*
X150006680Y-64660438D01*
X150007163Y-64661369D01*
X150069447Y-64770181D01*
X150069989Y-64771045D01*
X150142059Y-64876349D01*
X150142642Y-64877134D01*
X150224496Y-64978928D01*
X150225104Y-64979631D01*
X150308381Y-65068949D01*
X150148949Y-65228381D01*
X150059631Y-65145104D01*
X150058928Y-65144496D01*
X149957134Y-65062642D01*
X149956349Y-65062059D01*
X149851045Y-64989989D01*
X149850181Y-64989447D01*
X149741369Y-64927163D01*
X149740438Y-64926680D01*
X149628116Y-64874180D01*
X149627132Y-64873769D01*
X149511302Y-64831053D01*
X149510286Y-64830727D01*
X149390947Y-64797797D01*
X149389920Y-64797559D01*
X149267072Y-64774413D01*
X149266056Y-64774263D01*
X149139700Y-64760903D01*
X149138715Y-64760838D01*
X149018310Y-64757522D01*
X148717459Y-63637459D01*
X149837522Y-63938310D01*
G36*
X160419137Y-67093529D02*
G01*
X160419840Y-67094137D01*
X160523693Y-67177645D01*
X160524478Y-67178228D01*
X160631910Y-67251754D01*
X160632774Y-67252296D01*
X160743787Y-67315839D01*
X160744718Y-67316322D01*
X160859312Y-67369883D01*
X160860296Y-67370294D01*
X160978470Y-67413872D01*
X160979486Y-67414199D01*
X161101240Y-67447794D01*
X161102267Y-67448031D01*
X161227602Y-67471645D01*
X161228618Y-67471795D01*
X161357533Y-67485425D01*
X161358518Y-67485490D01*
X161481554Y-67488878D01*
X161787349Y-68627349D01*
X160648878Y-68321554D01*
X160645490Y-68198518D01*
X160645425Y-68197533D01*
X160631795Y-68068618D01*
X160631645Y-68067602D01*
X160608031Y-67942267D01*
X160607794Y-67941240D01*
X160574199Y-67819486D01*
X160573872Y-67818470D01*
X160530294Y-67700296D01*
X160529883Y-67699312D01*
X160476322Y-67584718D01*
X160475839Y-67583787D01*
X160412296Y-67472774D01*
X160411754Y-67471910D01*
X160338228Y-67364478D01*
X160337645Y-67363693D01*
X160254137Y-67259840D01*
X160253529Y-67259137D01*
X160168402Y-67167835D01*
X160327835Y-67008402D01*
X160419137Y-67093529D01*
X160419137Y-67093529D01*
G37*
X160419137Y-67093529D02*
X160419840Y-67094137D01*
X160523693Y-67177645D01*
X160524478Y-67178228D01*
X160631910Y-67251754D01*
X160632774Y-67252296D01*
X160743787Y-67315839D01*
X160744718Y-67316322D01*
X160859312Y-67369883D01*
X160860296Y-67370294D01*
X160978470Y-67413872D01*
X160979486Y-67414199D01*
X161101240Y-67447794D01*
X161102267Y-67448031D01*
X161227602Y-67471645D01*
X161228618Y-67471795D01*
X161357533Y-67485425D01*
X161358518Y-67485490D01*
X161481554Y-67488878D01*
X161787349Y-68627349D01*
X160648878Y-68321554D01*
X160645490Y-68198518D01*
X160645425Y-68197533D01*
X160631795Y-68068618D01*
X160631645Y-68067602D01*
X160608031Y-67942267D01*
X160607794Y-67941240D01*
X160574199Y-67819486D01*
X160573872Y-67818470D01*
X160530294Y-67700296D01*
X160529883Y-67699312D01*
X160476322Y-67584718D01*
X160475839Y-67583787D01*
X160412296Y-67472774D01*
X160411754Y-67471910D01*
X160338228Y-67364478D01*
X160337645Y-67363693D01*
X160254137Y-67259840D01*
X160253529Y-67259137D01*
X160168402Y-67167835D01*
X160327835Y-67008402D01*
X160419137Y-67093529D01*
G36*
X147940368Y-67774895D02*
G01*
X147941071Y-67775503D01*
X148042865Y-67857357D01*
X148043650Y-67857940D01*
X148148954Y-67930010D01*
X148149818Y-67930552D01*
X148258630Y-67992837D01*
X148259561Y-67993320D01*
X148371883Y-68045820D01*
X148372867Y-68046231D01*
X148488697Y-68088946D01*
X148489713Y-68089272D01*
X148609052Y-68122202D01*
X148610079Y-68122440D01*
X148732927Y-68145586D01*
X148733943Y-68145736D01*
X148860299Y-68159097D01*
X148861284Y-68159162D01*
X148981690Y-68162478D01*
X149282541Y-69282541D01*
X148162478Y-68981690D01*
X148159162Y-68861284D01*
X148159097Y-68860299D01*
X148145736Y-68733943D01*
X148145586Y-68732927D01*
X148122440Y-68610079D01*
X148122202Y-68609052D01*
X148089272Y-68489713D01*
X148088946Y-68488697D01*
X148046231Y-68372867D01*
X148045820Y-68371883D01*
X147993320Y-68259561D01*
X147992837Y-68258630D01*
X147930552Y-68149818D01*
X147930010Y-68148954D01*
X147857940Y-68043650D01*
X147857357Y-68042865D01*
X147775503Y-67941071D01*
X147774895Y-67940368D01*
X147691619Y-67851051D01*
X147851051Y-67691619D01*
X147940368Y-67774895D01*
X147940368Y-67774895D01*
G37*
X147940368Y-67774895D02*
X147941071Y-67775503D01*
X148042865Y-67857357D01*
X148043650Y-67857940D01*
X148148954Y-67930010D01*
X148149818Y-67930552D01*
X148258630Y-67992837D01*
X148259561Y-67993320D01*
X148371883Y-68045820D01*
X148372867Y-68046231D01*
X148488697Y-68088946D01*
X148489713Y-68089272D01*
X148609052Y-68122202D01*
X148610079Y-68122440D01*
X148732927Y-68145586D01*
X148733943Y-68145736D01*
X148860299Y-68159097D01*
X148861284Y-68159162D01*
X148981690Y-68162478D01*
X149282541Y-69282541D01*
X148162478Y-68981690D01*
X148159162Y-68861284D01*
X148159097Y-68860299D01*
X148145736Y-68733943D01*
X148145586Y-68732927D01*
X148122440Y-68610079D01*
X148122202Y-68609052D01*
X148089272Y-68489713D01*
X148088946Y-68488697D01*
X148046231Y-68372867D01*
X148045820Y-68371883D01*
X147993320Y-68259561D01*
X147992837Y-68258630D01*
X147930552Y-68149818D01*
X147930010Y-68148954D01*
X147857940Y-68043650D01*
X147857357Y-68042865D01*
X147775503Y-67941071D01*
X147774895Y-67940368D01*
X147691619Y-67851051D01*
X147851051Y-67691619D01*
X147940368Y-67774895D01*
G36*
X142692648Y-64883524D02*
G01*
X142693392Y-64884175D01*
X142792187Y-64964075D01*
X142793011Y-64964688D01*
X142896244Y-65035188D01*
X142897138Y-65035745D01*
X143004809Y-65096845D01*
X143005759Y-65097333D01*
X143117867Y-65149033D01*
X143118852Y-65149438D01*
X143235398Y-65191738D01*
X143236398Y-65192055D01*
X143357382Y-65224955D01*
X143358376Y-65225183D01*
X143483798Y-65248683D01*
X143484766Y-65248826D01*
X143614626Y-65262926D01*
X143615553Y-65262992D01*
X143737595Y-65267263D01*
X143737595Y-65492737D01*
X143615553Y-65497008D01*
X143614626Y-65497074D01*
X143484766Y-65511174D01*
X143483798Y-65511317D01*
X143358376Y-65534817D01*
X143357382Y-65535045D01*
X143236398Y-65567945D01*
X143235398Y-65568262D01*
X143118852Y-65610562D01*
X143117867Y-65610967D01*
X143005759Y-65662667D01*
X143004809Y-65663155D01*
X142897138Y-65724255D01*
X142896244Y-65724812D01*
X142793011Y-65795312D01*
X142792187Y-65795925D01*
X142693392Y-65875825D01*
X142692648Y-65876476D01*
X142605165Y-65959271D01*
X141600426Y-65380000D01*
X142605165Y-64800729D01*
X142692648Y-64883524D01*
X142692648Y-64883524D01*
G37*
X142692648Y-64883524D02*
X142693392Y-64884175D01*
X142792187Y-64964075D01*
X142793011Y-64964688D01*
X142896244Y-65035188D01*
X142897138Y-65035745D01*
X143004809Y-65096845D01*
X143005759Y-65097333D01*
X143117867Y-65149033D01*
X143118852Y-65149438D01*
X143235398Y-65191738D01*
X143236398Y-65192055D01*
X143357382Y-65224955D01*
X143358376Y-65225183D01*
X143483798Y-65248683D01*
X143484766Y-65248826D01*
X143614626Y-65262926D01*
X143615553Y-65262992D01*
X143737595Y-65267263D01*
X143737595Y-65492737D01*
X143615553Y-65497008D01*
X143614626Y-65497074D01*
X143484766Y-65511174D01*
X143483798Y-65511317D01*
X143358376Y-65534817D01*
X143357382Y-65535045D01*
X143236398Y-65567945D01*
X143235398Y-65568262D01*
X143118852Y-65610562D01*
X143117867Y-65610967D01*
X143005759Y-65662667D01*
X143004809Y-65663155D01*
X142897138Y-65724255D01*
X142896244Y-65724812D01*
X142793011Y-65795312D01*
X142792187Y-65795925D01*
X142693392Y-65875825D01*
X142692648Y-65876476D01*
X142605165Y-65959271D01*
X141600426Y-65380000D01*
X142605165Y-64800729D01*
X142692648Y-64883524D01*
G36*
X160419137Y-69633529D02*
G01*
X160419840Y-69634137D01*
X160523693Y-69717645D01*
X160524478Y-69718228D01*
X160631910Y-69791754D01*
X160632774Y-69792296D01*
X160743787Y-69855839D01*
X160744718Y-69856322D01*
X160859312Y-69909883D01*
X160860296Y-69910294D01*
X160978470Y-69953872D01*
X160979486Y-69954199D01*
X161101240Y-69987794D01*
X161102267Y-69988031D01*
X161227602Y-70011645D01*
X161228618Y-70011795D01*
X161357533Y-70025425D01*
X161358518Y-70025490D01*
X161481554Y-70028878D01*
X161787349Y-71167349D01*
X160648878Y-70861554D01*
X160645490Y-70738518D01*
X160645425Y-70737533D01*
X160631795Y-70608618D01*
X160631645Y-70607602D01*
X160608031Y-70482267D01*
X160607794Y-70481240D01*
X160574199Y-70359486D01*
X160573872Y-70358470D01*
X160530294Y-70240296D01*
X160529883Y-70239312D01*
X160476322Y-70124718D01*
X160475839Y-70123787D01*
X160412296Y-70012774D01*
X160411754Y-70011910D01*
X160338228Y-69904478D01*
X160337645Y-69903693D01*
X160254137Y-69799840D01*
X160253529Y-69799137D01*
X160168402Y-69707835D01*
X160327835Y-69548402D01*
X160419137Y-69633529D01*
X160419137Y-69633529D01*
G37*
X160419137Y-69633529D02*
X160419840Y-69634137D01*
X160523693Y-69717645D01*
X160524478Y-69718228D01*
X160631910Y-69791754D01*
X160632774Y-69792296D01*
X160743787Y-69855839D01*
X160744718Y-69856322D01*
X160859312Y-69909883D01*
X160860296Y-69910294D01*
X160978470Y-69953872D01*
X160979486Y-69954199D01*
X161101240Y-69987794D01*
X161102267Y-69988031D01*
X161227602Y-70011645D01*
X161228618Y-70011795D01*
X161357533Y-70025425D01*
X161358518Y-70025490D01*
X161481554Y-70028878D01*
X161787349Y-71167349D01*
X160648878Y-70861554D01*
X160645490Y-70738518D01*
X160645425Y-70737533D01*
X160631795Y-70608618D01*
X160631645Y-70607602D01*
X160608031Y-70482267D01*
X160607794Y-70481240D01*
X160574199Y-70359486D01*
X160573872Y-70358470D01*
X160530294Y-70240296D01*
X160529883Y-70239312D01*
X160476322Y-70124718D01*
X160475839Y-70123787D01*
X160412296Y-70012774D01*
X160411754Y-70011910D01*
X160338228Y-69904478D01*
X160337645Y-69903693D01*
X160254137Y-69799840D01*
X160253529Y-69799137D01*
X160168402Y-69707835D01*
X160327835Y-69548402D01*
X160419137Y-69633529D01*
G36*
X149698633Y-68509509D02*
G01*
X149699220Y-68510033D01*
X149816015Y-68607933D01*
X149816525Y-68608339D01*
X149949758Y-68708839D01*
X149950202Y-68709159D01*
X150099873Y-68812259D01*
X150100259Y-68812515D01*
X150266367Y-68918215D01*
X150266705Y-68918422D01*
X150449251Y-69026722D01*
X150449548Y-69026893D01*
X150648532Y-69137793D01*
X150648795Y-69137936D01*
X150864217Y-69251436D01*
X150864451Y-69251556D01*
X151096311Y-69367656D01*
X151096519Y-69367758D01*
X151337595Y-69483005D01*
X151337595Y-69705533D01*
X151107114Y-69604076D01*
X151106499Y-69603825D01*
X150874639Y-69515925D01*
X150873883Y-69515665D01*
X150658461Y-69449165D01*
X150657522Y-69448914D01*
X150458538Y-69403814D01*
X150457366Y-69403606D01*
X150274820Y-69379906D01*
X150273361Y-69379801D01*
X150107253Y-69377501D01*
X150105469Y-69377602D01*
X149955798Y-69396702D01*
X149953712Y-69397149D01*
X149820479Y-69437649D01*
X149818226Y-69438579D01*
X149701431Y-69500479D01*
X149699267Y-69501928D01*
X149605709Y-69579585D01*
X148600426Y-69000000D01*
X149605151Y-68420737D01*
X149698633Y-68509509D01*
X149698633Y-68509509D01*
G37*
X149698633Y-68509509D02*
X149699220Y-68510033D01*
X149816015Y-68607933D01*
X149816525Y-68608339D01*
X149949758Y-68708839D01*
X149950202Y-68709159D01*
X150099873Y-68812259D01*
X150100259Y-68812515D01*
X150266367Y-68918215D01*
X150266705Y-68918422D01*
X150449251Y-69026722D01*
X150449548Y-69026893D01*
X150648532Y-69137793D01*
X150648795Y-69137936D01*
X150864217Y-69251436D01*
X150864451Y-69251556D01*
X151096311Y-69367656D01*
X151096519Y-69367758D01*
X151337595Y-69483005D01*
X151337595Y-69705533D01*
X151107114Y-69604076D01*
X151106499Y-69603825D01*
X150874639Y-69515925D01*
X150873883Y-69515665D01*
X150658461Y-69449165D01*
X150657522Y-69448914D01*
X150458538Y-69403814D01*
X150457366Y-69403606D01*
X150274820Y-69379906D01*
X150273361Y-69379801D01*
X150107253Y-69377501D01*
X150105469Y-69377602D01*
X149955798Y-69396702D01*
X149953712Y-69397149D01*
X149820479Y-69437649D01*
X149818226Y-69438579D01*
X149701431Y-69500479D01*
X149699267Y-69501928D01*
X149605709Y-69579585D01*
X148600426Y-69000000D01*
X149605151Y-68420737D01*
X149698633Y-68509509D01*
G36*
X132768381Y-69311051D02*
G01*
X132685104Y-69400368D01*
X132684496Y-69401071D01*
X132602642Y-69502865D01*
X132602059Y-69503650D01*
X132529989Y-69608954D01*
X132529447Y-69609818D01*
X132467163Y-69718630D01*
X132466680Y-69719561D01*
X132414180Y-69831883D01*
X132413769Y-69832867D01*
X132371053Y-69948697D01*
X132370727Y-69949713D01*
X132337797Y-70069052D01*
X132337559Y-70070079D01*
X132314413Y-70192927D01*
X132314263Y-70193943D01*
X132300903Y-70320299D01*
X132300838Y-70321284D01*
X132297522Y-70441690D01*
X131177459Y-70742541D01*
X131478310Y-69622478D01*
X131598715Y-69619162D01*
X131599700Y-69619097D01*
X131726056Y-69605736D01*
X131727072Y-69605586D01*
X131849920Y-69582440D01*
X131850947Y-69582202D01*
X131970286Y-69549272D01*
X131971302Y-69548946D01*
X132087132Y-69506231D01*
X132088116Y-69505820D01*
X132200438Y-69453320D01*
X132201369Y-69452837D01*
X132310181Y-69390552D01*
X132311045Y-69390010D01*
X132416349Y-69317940D01*
X132417134Y-69317357D01*
X132518928Y-69235503D01*
X132519631Y-69234895D01*
X132608949Y-69151619D01*
X132768381Y-69311051D01*
X132768381Y-69311051D01*
G37*
X132768381Y-69311051D02*
X132685104Y-69400368D01*
X132684496Y-69401071D01*
X132602642Y-69502865D01*
X132602059Y-69503650D01*
X132529989Y-69608954D01*
X132529447Y-69609818D01*
X132467163Y-69718630D01*
X132466680Y-69719561D01*
X132414180Y-69831883D01*
X132413769Y-69832867D01*
X132371053Y-69948697D01*
X132370727Y-69949713D01*
X132337797Y-70069052D01*
X132337559Y-70070079D01*
X132314413Y-70192927D01*
X132314263Y-70193943D01*
X132300903Y-70320299D01*
X132300838Y-70321284D01*
X132297522Y-70441690D01*
X131177459Y-70742541D01*
X131478310Y-69622478D01*
X131598715Y-69619162D01*
X131599700Y-69619097D01*
X131726056Y-69605736D01*
X131727072Y-69605586D01*
X131849920Y-69582440D01*
X131850947Y-69582202D01*
X131970286Y-69549272D01*
X131971302Y-69548946D01*
X132087132Y-69506231D01*
X132088116Y-69505820D01*
X132200438Y-69453320D01*
X132201369Y-69452837D01*
X132310181Y-69390552D01*
X132311045Y-69390010D01*
X132416349Y-69317940D01*
X132417134Y-69317357D01*
X132518928Y-69235503D01*
X132519631Y-69234895D01*
X132608949Y-69151619D01*
X132768381Y-69311051D01*
G36*
X138400368Y-69234895D02*
G01*
X138401071Y-69235503D01*
X138502865Y-69317357D01*
X138503650Y-69317940D01*
X138608954Y-69390010D01*
X138609818Y-69390552D01*
X138718630Y-69452837D01*
X138719561Y-69453320D01*
X138831883Y-69505820D01*
X138832867Y-69506231D01*
X138948697Y-69548946D01*
X138949713Y-69549272D01*
X139069052Y-69582202D01*
X139070079Y-69582440D01*
X139192927Y-69605586D01*
X139193943Y-69605736D01*
X139320299Y-69619097D01*
X139321284Y-69619162D01*
X139441690Y-69622478D01*
X139742541Y-70742541D01*
X138622478Y-70441690D01*
X138619162Y-70321284D01*
X138619097Y-70320299D01*
X138605736Y-70193943D01*
X138605586Y-70192927D01*
X138582440Y-70070079D01*
X138582202Y-70069052D01*
X138549272Y-69949713D01*
X138548946Y-69948697D01*
X138506231Y-69832867D01*
X138505820Y-69831883D01*
X138453320Y-69719561D01*
X138452837Y-69718630D01*
X138390552Y-69609818D01*
X138390010Y-69608954D01*
X138317940Y-69503650D01*
X138317357Y-69502865D01*
X138235503Y-69401071D01*
X138234895Y-69400368D01*
X138151619Y-69311051D01*
X138311051Y-69151619D01*
X138400368Y-69234895D01*
X138400368Y-69234895D01*
G37*
X138400368Y-69234895D02*
X138401071Y-69235503D01*
X138502865Y-69317357D01*
X138503650Y-69317940D01*
X138608954Y-69390010D01*
X138609818Y-69390552D01*
X138718630Y-69452837D01*
X138719561Y-69453320D01*
X138831883Y-69505820D01*
X138832867Y-69506231D01*
X138948697Y-69548946D01*
X138949713Y-69549272D01*
X139069052Y-69582202D01*
X139070079Y-69582440D01*
X139192927Y-69605586D01*
X139193943Y-69605736D01*
X139320299Y-69619097D01*
X139321284Y-69619162D01*
X139441690Y-69622478D01*
X139742541Y-70742541D01*
X138622478Y-70441690D01*
X138619162Y-70321284D01*
X138619097Y-70320299D01*
X138605736Y-70193943D01*
X138605586Y-70192927D01*
X138582440Y-70070079D01*
X138582202Y-70069052D01*
X138549272Y-69949713D01*
X138548946Y-69948697D01*
X138506231Y-69832867D01*
X138505820Y-69831883D01*
X138453320Y-69719561D01*
X138452837Y-69718630D01*
X138390552Y-69609818D01*
X138390010Y-69608954D01*
X138317940Y-69503650D01*
X138317357Y-69502865D01*
X138235503Y-69401071D01*
X138234895Y-69400368D01*
X138151619Y-69311051D01*
X138311051Y-69151619D01*
X138400368Y-69234895D01*
G36*
X141981768Y-71297234D02*
G01*
X141865541Y-71296956D01*
X141865319Y-71296957D01*
X141750591Y-71298688D01*
X141750321Y-71298695D01*
X141646856Y-71302459D01*
X141646521Y-71302476D01*
X141554317Y-71308271D01*
X141553892Y-71308305D01*
X141472951Y-71316132D01*
X141472394Y-71316198D01*
X141402713Y-71326057D01*
X141401959Y-71326187D01*
X141343541Y-71338078D01*
X141342478Y-71338343D01*
X141295321Y-71352265D01*
X141293758Y-71352840D01*
X141257864Y-71368795D01*
X141255534Y-71370143D01*
X141239681Y-71381718D01*
X141078281Y-71220318D01*
X141089856Y-71204465D01*
X141091204Y-71202135D01*
X141107159Y-71166241D01*
X141107734Y-71164678D01*
X141121656Y-71117521D01*
X141121921Y-71116458D01*
X141133812Y-71058040D01*
X141133942Y-71057286D01*
X141143801Y-70987606D01*
X141143867Y-70987049D01*
X141151694Y-70906107D01*
X141151728Y-70905682D01*
X141157523Y-70813478D01*
X141157540Y-70813143D01*
X141161304Y-70709678D01*
X141161311Y-70709408D01*
X141163042Y-70594680D01*
X141163043Y-70594458D01*
X141162766Y-70478232D01*
X142282541Y-70177459D01*
X141981768Y-71297234D01*
X141981768Y-71297234D01*
G37*
X141981768Y-71297234D02*
X141865541Y-71296956D01*
X141865319Y-71296957D01*
X141750591Y-71298688D01*
X141750321Y-71298695D01*
X141646856Y-71302459D01*
X141646521Y-71302476D01*
X141554317Y-71308271D01*
X141553892Y-71308305D01*
X141472951Y-71316132D01*
X141472394Y-71316198D01*
X141402713Y-71326057D01*
X141401959Y-71326187D01*
X141343541Y-71338078D01*
X141342478Y-71338343D01*
X141295321Y-71352265D01*
X141293758Y-71352840D01*
X141257864Y-71368795D01*
X141255534Y-71370143D01*
X141239681Y-71381718D01*
X141078281Y-71220318D01*
X141089856Y-71204465D01*
X141091204Y-71202135D01*
X141107159Y-71166241D01*
X141107734Y-71164678D01*
X141121656Y-71117521D01*
X141121921Y-71116458D01*
X141133812Y-71058040D01*
X141133942Y-71057286D01*
X141143801Y-70987606D01*
X141143867Y-70987049D01*
X141151694Y-70906107D01*
X141151728Y-70905682D01*
X141157523Y-70813478D01*
X141157540Y-70813143D01*
X141161304Y-70709678D01*
X141161311Y-70709408D01*
X141163042Y-70594680D01*
X141163043Y-70594458D01*
X141162766Y-70478232D01*
X142282541Y-70177459D01*
X141981768Y-71297234D01*
G36*
X134837477Y-70478298D02*
G01*
X134840209Y-70598028D01*
X134840260Y-70598905D01*
X134851742Y-70723383D01*
X134851862Y-70724310D01*
X134871875Y-70844025D01*
X134872075Y-70844992D01*
X134900620Y-70959946D01*
X134900909Y-70960935D01*
X134937987Y-71071127D01*
X134938368Y-71072119D01*
X134983977Y-71177549D01*
X134984448Y-71178522D01*
X135038589Y-71279191D01*
X135039143Y-71280123D01*
X135101816Y-71376030D01*
X135102439Y-71376902D01*
X135173644Y-71468047D01*
X135174320Y-71468842D01*
X135245781Y-71546260D01*
X135086260Y-71705781D01*
X135008842Y-71634320D01*
X135008047Y-71633644D01*
X134916902Y-71562439D01*
X134916030Y-71561816D01*
X134820123Y-71499143D01*
X134819191Y-71498589D01*
X134718522Y-71444448D01*
X134717549Y-71443977D01*
X134612119Y-71398368D01*
X134611127Y-71397987D01*
X134500935Y-71360909D01*
X134499946Y-71360620D01*
X134384992Y-71332075D01*
X134384025Y-71331875D01*
X134264310Y-71311862D01*
X134263383Y-71311742D01*
X134138905Y-71300260D01*
X134138028Y-71300209D01*
X134018298Y-71297477D01*
X133717459Y-70177459D01*
X134837477Y-70478298D01*
X134837477Y-70478298D01*
G37*
X134837477Y-70478298D02*
X134840209Y-70598028D01*
X134840260Y-70598905D01*
X134851742Y-70723383D01*
X134851862Y-70724310D01*
X134871875Y-70844025D01*
X134872075Y-70844992D01*
X134900620Y-70959946D01*
X134900909Y-70960935D01*
X134937987Y-71071127D01*
X134938368Y-71072119D01*
X134983977Y-71177549D01*
X134984448Y-71178522D01*
X135038589Y-71279191D01*
X135039143Y-71280123D01*
X135101816Y-71376030D01*
X135102439Y-71376902D01*
X135173644Y-71468047D01*
X135174320Y-71468842D01*
X135245781Y-71546260D01*
X135086260Y-71705781D01*
X135008842Y-71634320D01*
X135008047Y-71633644D01*
X134916902Y-71562439D01*
X134916030Y-71561816D01*
X134820123Y-71499143D01*
X134819191Y-71498589D01*
X134718522Y-71444448D01*
X134717549Y-71443977D01*
X134612119Y-71398368D01*
X134611127Y-71397987D01*
X134500935Y-71360909D01*
X134499946Y-71360620D01*
X134384992Y-71332075D01*
X134384025Y-71331875D01*
X134264310Y-71311862D01*
X134263383Y-71311742D01*
X134138905Y-71300260D01*
X134138028Y-71300209D01*
X134018298Y-71297477D01*
X133717459Y-70177459D01*
X134837477Y-70478298D01*
G36*
X159548791Y-74034877D02*
G01*
X159464187Y-74124271D01*
X159463536Y-74125015D01*
X159382017Y-74225810D01*
X159381404Y-74226634D01*
X159309476Y-74331956D01*
X159308919Y-74332850D01*
X159246582Y-74442699D01*
X159246094Y-74443648D01*
X159193346Y-74558024D01*
X159192941Y-74559010D01*
X159149784Y-74677913D01*
X159149467Y-74678913D01*
X159115901Y-74802343D01*
X159115673Y-74803337D01*
X159091697Y-74931294D01*
X159091554Y-74932262D01*
X159077168Y-75064746D01*
X159077102Y-75065673D01*
X159072736Y-75190428D01*
X158847264Y-75190428D01*
X158842897Y-75065673D01*
X158842831Y-75064746D01*
X158828445Y-74932262D01*
X158828302Y-74931294D01*
X158804326Y-74803337D01*
X158804098Y-74802343D01*
X158770532Y-74678913D01*
X158770215Y-74677913D01*
X158727058Y-74559010D01*
X158726653Y-74558024D01*
X158673905Y-74443648D01*
X158673417Y-74442699D01*
X158611080Y-74332850D01*
X158610523Y-74331956D01*
X158538595Y-74226634D01*
X158537982Y-74225810D01*
X158456463Y-74125015D01*
X158455812Y-74124271D01*
X158371209Y-74034877D01*
X158960000Y-73013626D01*
X159548791Y-74034877D01*
X159548791Y-74034877D01*
G37*
X159548791Y-74034877D02*
X159464187Y-74124271D01*
X159463536Y-74125015D01*
X159382017Y-74225810D01*
X159381404Y-74226634D01*
X159309476Y-74331956D01*
X159308919Y-74332850D01*
X159246582Y-74442699D01*
X159246094Y-74443648D01*
X159193346Y-74558024D01*
X159192941Y-74559010D01*
X159149784Y-74677913D01*
X159149467Y-74678913D01*
X159115901Y-74802343D01*
X159115673Y-74803337D01*
X159091697Y-74931294D01*
X159091554Y-74932262D01*
X159077168Y-75064746D01*
X159077102Y-75065673D01*
X159072736Y-75190428D01*
X158847264Y-75190428D01*
X158842897Y-75065673D01*
X158842831Y-75064746D01*
X158828445Y-74932262D01*
X158828302Y-74931294D01*
X158804326Y-74803337D01*
X158804098Y-74802343D01*
X158770532Y-74678913D01*
X158770215Y-74677913D01*
X158727058Y-74559010D01*
X158726653Y-74558024D01*
X158673905Y-74443648D01*
X158673417Y-74442699D01*
X158611080Y-74332850D01*
X158610523Y-74331956D01*
X158538595Y-74226634D01*
X158537982Y-74225810D01*
X158456463Y-74125015D01*
X158455812Y-74124271D01*
X158371209Y-74034877D01*
X158960000Y-73013626D01*
X159548791Y-74034877D01*
G36*
X159077102Y-74314326D02*
G01*
X159077168Y-74315253D01*
X159091554Y-74447737D01*
X159091697Y-74448705D01*
X159115673Y-74576662D01*
X159115901Y-74577656D01*
X159149467Y-74701086D01*
X159149784Y-74702086D01*
X159192941Y-74820989D01*
X159193346Y-74821975D01*
X159246094Y-74936351D01*
X159246582Y-74937300D01*
X159308919Y-75047149D01*
X159309476Y-75048043D01*
X159381404Y-75153365D01*
X159382017Y-75154189D01*
X159463536Y-75254984D01*
X159464187Y-75255728D01*
X159548791Y-75345123D01*
X158960000Y-76366374D01*
X158371209Y-75345123D01*
X158455812Y-75255728D01*
X158456463Y-75254984D01*
X158537982Y-75154189D01*
X158538595Y-75153365D01*
X158610523Y-75048043D01*
X158611080Y-75047149D01*
X158673417Y-74937300D01*
X158673905Y-74936351D01*
X158726653Y-74821975D01*
X158727058Y-74820989D01*
X158770215Y-74702086D01*
X158770532Y-74701086D01*
X158804098Y-74577656D01*
X158804326Y-74576662D01*
X158828302Y-74448705D01*
X158828445Y-74447737D01*
X158842831Y-74315253D01*
X158842897Y-74314326D01*
X158847264Y-74189572D01*
X159072736Y-74189572D01*
X159077102Y-74314326D01*
X159077102Y-74314326D01*
G37*
X159077102Y-74314326D02*
X159077168Y-74315253D01*
X159091554Y-74447737D01*
X159091697Y-74448705D01*
X159115673Y-74576662D01*
X159115901Y-74577656D01*
X159149467Y-74701086D01*
X159149784Y-74702086D01*
X159192941Y-74820989D01*
X159193346Y-74821975D01*
X159246094Y-74936351D01*
X159246582Y-74937300D01*
X159308919Y-75047149D01*
X159309476Y-75048043D01*
X159381404Y-75153365D01*
X159382017Y-75154189D01*
X159463536Y-75254984D01*
X159464187Y-75255728D01*
X159548791Y-75345123D01*
X158960000Y-76366374D01*
X158371209Y-75345123D01*
X158455812Y-75255728D01*
X158456463Y-75254984D01*
X158537982Y-75154189D01*
X158538595Y-75153365D01*
X158610523Y-75048043D01*
X158611080Y-75047149D01*
X158673417Y-74937300D01*
X158673905Y-74936351D01*
X158726653Y-74821975D01*
X158727058Y-74820989D01*
X158770215Y-74702086D01*
X158770532Y-74701086D01*
X158804098Y-74577656D01*
X158804326Y-74576662D01*
X158828302Y-74448705D01*
X158828445Y-74447737D01*
X158842831Y-74315253D01*
X158842897Y-74314326D01*
X158847264Y-74189572D01*
X159072736Y-74189572D01*
X159077102Y-74314326D01*
G36*
X159548791Y-63874877D02*
G01*
X159464187Y-63964271D01*
X159463536Y-63965015D01*
X159382017Y-64065810D01*
X159381404Y-64066634D01*
X159309476Y-64171956D01*
X159308919Y-64172850D01*
X159246582Y-64282699D01*
X159246094Y-64283648D01*
X159193346Y-64398024D01*
X159192941Y-64399010D01*
X159149784Y-64517913D01*
X159149467Y-64518913D01*
X159115901Y-64642343D01*
X159115673Y-64643337D01*
X159091697Y-64771294D01*
X159091554Y-64772262D01*
X159077168Y-64904746D01*
X159077102Y-64905673D01*
X159072736Y-65030428D01*
X158847264Y-65030428D01*
X158842897Y-64905673D01*
X158842831Y-64904746D01*
X158828445Y-64772262D01*
X158828302Y-64771294D01*
X158804326Y-64643337D01*
X158804098Y-64642343D01*
X158770532Y-64518913D01*
X158770215Y-64517913D01*
X158727058Y-64399010D01*
X158726653Y-64398024D01*
X158673905Y-64283648D01*
X158673417Y-64282699D01*
X158611080Y-64172850D01*
X158610523Y-64171956D01*
X158538595Y-64066634D01*
X158537982Y-64065810D01*
X158456463Y-63965015D01*
X158455812Y-63964271D01*
X158371209Y-63874877D01*
X158960000Y-62853626D01*
X159548791Y-63874877D01*
X159548791Y-63874877D01*
G37*
X159548791Y-63874877D02*
X159464187Y-63964271D01*
X159463536Y-63965015D01*
X159382017Y-64065810D01*
X159381404Y-64066634D01*
X159309476Y-64171956D01*
X159308919Y-64172850D01*
X159246582Y-64282699D01*
X159246094Y-64283648D01*
X159193346Y-64398024D01*
X159192941Y-64399010D01*
X159149784Y-64517913D01*
X159149467Y-64518913D01*
X159115901Y-64642343D01*
X159115673Y-64643337D01*
X159091697Y-64771294D01*
X159091554Y-64772262D01*
X159077168Y-64904746D01*
X159077102Y-64905673D01*
X159072736Y-65030428D01*
X158847264Y-65030428D01*
X158842897Y-64905673D01*
X158842831Y-64904746D01*
X158828445Y-64772262D01*
X158828302Y-64771294D01*
X158804326Y-64643337D01*
X158804098Y-64642343D01*
X158770532Y-64518913D01*
X158770215Y-64517913D01*
X158727058Y-64399010D01*
X158726653Y-64398024D01*
X158673905Y-64283648D01*
X158673417Y-64282699D01*
X158611080Y-64172850D01*
X158610523Y-64171956D01*
X158538595Y-64066634D01*
X158537982Y-64065810D01*
X158456463Y-63965015D01*
X158455812Y-63964271D01*
X158371209Y-63874877D01*
X158960000Y-62853626D01*
X159548791Y-63874877D01*
G36*
X159077102Y-64154326D02*
G01*
X159077168Y-64155253D01*
X159091554Y-64287737D01*
X159091697Y-64288705D01*
X159115673Y-64416662D01*
X159115901Y-64417656D01*
X159149467Y-64541086D01*
X159149784Y-64542086D01*
X159192941Y-64660989D01*
X159193346Y-64661975D01*
X159246094Y-64776351D01*
X159246582Y-64777300D01*
X159308919Y-64887149D01*
X159309476Y-64888043D01*
X159381404Y-64993365D01*
X159382017Y-64994189D01*
X159463536Y-65094984D01*
X159464187Y-65095728D01*
X159548791Y-65185123D01*
X158960000Y-66206374D01*
X158371209Y-65185123D01*
X158455812Y-65095728D01*
X158456463Y-65094984D01*
X158537982Y-64994189D01*
X158538595Y-64993365D01*
X158610523Y-64888043D01*
X158611080Y-64887149D01*
X158673417Y-64777300D01*
X158673905Y-64776351D01*
X158726653Y-64661975D01*
X158727058Y-64660989D01*
X158770215Y-64542086D01*
X158770532Y-64541086D01*
X158804098Y-64417656D01*
X158804326Y-64416662D01*
X158828302Y-64288705D01*
X158828445Y-64287737D01*
X158842831Y-64155253D01*
X158842897Y-64154326D01*
X158847264Y-64029572D01*
X159072736Y-64029572D01*
X159077102Y-64154326D01*
X159077102Y-64154326D01*
G37*
X159077102Y-64154326D02*
X159077168Y-64155253D01*
X159091554Y-64287737D01*
X159091697Y-64288705D01*
X159115673Y-64416662D01*
X159115901Y-64417656D01*
X159149467Y-64541086D01*
X159149784Y-64542086D01*
X159192941Y-64660989D01*
X159193346Y-64661975D01*
X159246094Y-64776351D01*
X159246582Y-64777300D01*
X159308919Y-64887149D01*
X159309476Y-64888043D01*
X159381404Y-64993365D01*
X159382017Y-64994189D01*
X159463536Y-65094984D01*
X159464187Y-65095728D01*
X159548791Y-65185123D01*
X158960000Y-66206374D01*
X158371209Y-65185123D01*
X158455812Y-65095728D01*
X158456463Y-65094984D01*
X158537982Y-64994189D01*
X158538595Y-64993365D01*
X158610523Y-64888043D01*
X158611080Y-64887149D01*
X158673417Y-64777300D01*
X158673905Y-64776351D01*
X158726653Y-64661975D01*
X158727058Y-64660989D01*
X158770215Y-64542086D01*
X158770532Y-64541086D01*
X158804098Y-64417656D01*
X158804326Y-64416662D01*
X158828302Y-64288705D01*
X158828445Y-64287737D01*
X158842831Y-64155253D01*
X158842897Y-64154326D01*
X158847264Y-64029572D01*
X159072736Y-64029572D01*
X159077102Y-64154326D01*
G36*
X159366374Y-68340000D02*
G01*
X158345123Y-68928791D01*
X158255728Y-68844187D01*
X158254984Y-68843536D01*
X158154189Y-68762017D01*
X158153365Y-68761404D01*
X158048043Y-68689476D01*
X158047149Y-68688919D01*
X157937300Y-68626582D01*
X157936351Y-68626094D01*
X157821975Y-68573346D01*
X157820989Y-68572941D01*
X157702086Y-68529784D01*
X157701086Y-68529467D01*
X157577656Y-68495901D01*
X157576662Y-68495673D01*
X157448705Y-68471697D01*
X157447737Y-68471554D01*
X157315253Y-68457168D01*
X157314326Y-68457102D01*
X157189572Y-68452736D01*
X157189572Y-68227264D01*
X157314326Y-68222897D01*
X157315253Y-68222831D01*
X157447737Y-68208445D01*
X157448705Y-68208302D01*
X157576662Y-68184326D01*
X157577656Y-68184098D01*
X157701086Y-68150532D01*
X157702086Y-68150215D01*
X157820989Y-68107058D01*
X157821975Y-68106653D01*
X157936351Y-68053905D01*
X157937300Y-68053417D01*
X158047149Y-67991080D01*
X158048043Y-67990523D01*
X158153365Y-67918595D01*
X158154189Y-67917982D01*
X158254984Y-67836463D01*
X158255728Y-67835812D01*
X158345123Y-67751209D01*
X159366374Y-68340000D01*
X159366374Y-68340000D01*
G37*
X159366374Y-68340000D02*
X158345123Y-68928791D01*
X158255728Y-68844187D01*
X158254984Y-68843536D01*
X158154189Y-68762017D01*
X158153365Y-68761404D01*
X158048043Y-68689476D01*
X158047149Y-68688919D01*
X157937300Y-68626582D01*
X157936351Y-68626094D01*
X157821975Y-68573346D01*
X157820989Y-68572941D01*
X157702086Y-68529784D01*
X157701086Y-68529467D01*
X157577656Y-68495901D01*
X157576662Y-68495673D01*
X157448705Y-68471697D01*
X157447737Y-68471554D01*
X157315253Y-68457168D01*
X157314326Y-68457102D01*
X157189572Y-68452736D01*
X157189572Y-68227264D01*
X157314326Y-68222897D01*
X157315253Y-68222831D01*
X157447737Y-68208445D01*
X157448705Y-68208302D01*
X157576662Y-68184326D01*
X157577656Y-68184098D01*
X157701086Y-68150532D01*
X157702086Y-68150215D01*
X157820989Y-68107058D01*
X157821975Y-68106653D01*
X157936351Y-68053905D01*
X157937300Y-68053417D01*
X158047149Y-67991080D01*
X158048043Y-67990523D01*
X158153365Y-67918595D01*
X158154189Y-67917982D01*
X158254984Y-67836463D01*
X158255728Y-67835812D01*
X158345123Y-67751209D01*
X159366374Y-68340000D01*
G36*
X149837522Y-66478310D02*
G01*
X149840838Y-66598715D01*
X149840903Y-66599700D01*
X149854263Y-66726056D01*
X149854413Y-66727072D01*
X149877559Y-66849920D01*
X149877797Y-66850947D01*
X149910727Y-66970286D01*
X149911053Y-66971302D01*
X149953769Y-67087132D01*
X149954180Y-67088116D01*
X150006680Y-67200438D01*
X150007163Y-67201369D01*
X150069447Y-67310181D01*
X150069989Y-67311045D01*
X150142059Y-67416349D01*
X150142642Y-67417134D01*
X150224496Y-67518928D01*
X150225104Y-67519631D01*
X150308381Y-67608949D01*
X150148949Y-67768381D01*
X150059631Y-67685104D01*
X150058928Y-67684496D01*
X149957134Y-67602642D01*
X149956349Y-67602059D01*
X149851045Y-67529989D01*
X149850181Y-67529447D01*
X149741369Y-67467163D01*
X149740438Y-67466680D01*
X149628116Y-67414180D01*
X149627132Y-67413769D01*
X149511302Y-67371053D01*
X149510286Y-67370727D01*
X149390947Y-67337797D01*
X149389920Y-67337559D01*
X149267072Y-67314413D01*
X149266056Y-67314263D01*
X149139700Y-67300903D01*
X149138715Y-67300838D01*
X149018310Y-67297522D01*
X148717459Y-66177459D01*
X149837522Y-66478310D01*
X149837522Y-66478310D01*
G37*
X149837522Y-66478310D02*
X149840838Y-66598715D01*
X149840903Y-66599700D01*
X149854263Y-66726056D01*
X149854413Y-66727072D01*
X149877559Y-66849920D01*
X149877797Y-66850947D01*
X149910727Y-66970286D01*
X149911053Y-66971302D01*
X149953769Y-67087132D01*
X149954180Y-67088116D01*
X150006680Y-67200438D01*
X150007163Y-67201369D01*
X150069447Y-67310181D01*
X150069989Y-67311045D01*
X150142059Y-67416349D01*
X150142642Y-67417134D01*
X150224496Y-67518928D01*
X150225104Y-67519631D01*
X150308381Y-67608949D01*
X150148949Y-67768381D01*
X150059631Y-67685104D01*
X150058928Y-67684496D01*
X149957134Y-67602642D01*
X149956349Y-67602059D01*
X149851045Y-67529989D01*
X149850181Y-67529447D01*
X149741369Y-67467163D01*
X149740438Y-67466680D01*
X149628116Y-67414180D01*
X149627132Y-67413769D01*
X149511302Y-67371053D01*
X149510286Y-67370727D01*
X149390947Y-67337797D01*
X149389920Y-67337559D01*
X149267072Y-67314413D01*
X149266056Y-67314263D01*
X149139700Y-67300903D01*
X149138715Y-67300838D01*
X149018310Y-67297522D01*
X148717459Y-66177459D01*
X149837522Y-66478310D01*
G36*
X159366374Y-60720000D02*
G01*
X158345123Y-61308791D01*
X158255728Y-61224187D01*
X158254984Y-61223536D01*
X158154189Y-61142017D01*
X158153365Y-61141404D01*
X158048043Y-61069476D01*
X158047149Y-61068919D01*
X157937300Y-61006582D01*
X157936351Y-61006094D01*
X157821975Y-60953346D01*
X157820989Y-60952941D01*
X157702086Y-60909784D01*
X157701086Y-60909467D01*
X157577656Y-60875901D01*
X157576662Y-60875673D01*
X157448705Y-60851697D01*
X157447737Y-60851554D01*
X157315253Y-60837168D01*
X157314326Y-60837102D01*
X157189572Y-60832736D01*
X157189572Y-60607264D01*
X157314326Y-60602897D01*
X157315253Y-60602831D01*
X157447737Y-60588445D01*
X157448705Y-60588302D01*
X157576662Y-60564326D01*
X157577656Y-60564098D01*
X157701086Y-60530532D01*
X157702086Y-60530215D01*
X157820989Y-60487058D01*
X157821975Y-60486653D01*
X157936351Y-60433905D01*
X157937300Y-60433417D01*
X158047149Y-60371080D01*
X158048043Y-60370523D01*
X158153365Y-60298595D01*
X158154189Y-60297982D01*
X158254984Y-60216463D01*
X158255728Y-60215812D01*
X158345123Y-60131209D01*
X159366374Y-60720000D01*
X159366374Y-60720000D01*
G37*
X159366374Y-60720000D02*
X158345123Y-61308791D01*
X158255728Y-61224187D01*
X158254984Y-61223536D01*
X158154189Y-61142017D01*
X158153365Y-61141404D01*
X158048043Y-61069476D01*
X158047149Y-61068919D01*
X157937300Y-61006582D01*
X157936351Y-61006094D01*
X157821975Y-60953346D01*
X157820989Y-60952941D01*
X157702086Y-60909784D01*
X157701086Y-60909467D01*
X157577656Y-60875901D01*
X157576662Y-60875673D01*
X157448705Y-60851697D01*
X157447737Y-60851554D01*
X157315253Y-60837168D01*
X157314326Y-60837102D01*
X157189572Y-60832736D01*
X157189572Y-60607264D01*
X157314326Y-60602897D01*
X157315253Y-60602831D01*
X157447737Y-60588445D01*
X157448705Y-60588302D01*
X157576662Y-60564326D01*
X157577656Y-60564098D01*
X157701086Y-60530532D01*
X157702086Y-60530215D01*
X157820989Y-60487058D01*
X157821975Y-60486653D01*
X157936351Y-60433905D01*
X157937300Y-60433417D01*
X158047149Y-60371080D01*
X158048043Y-60370523D01*
X158153365Y-60298595D01*
X158154189Y-60297982D01*
X158254984Y-60216463D01*
X158255728Y-60215812D01*
X158345123Y-60131209D01*
X159366374Y-60720000D01*
G36*
X140768381Y-61691051D02*
G01*
X140685104Y-61780368D01*
X140684496Y-61781071D01*
X140602642Y-61882865D01*
X140602059Y-61883650D01*
X140529989Y-61988954D01*
X140529447Y-61989818D01*
X140467163Y-62098630D01*
X140466680Y-62099561D01*
X140414180Y-62211883D01*
X140413769Y-62212867D01*
X140371053Y-62328697D01*
X140370727Y-62329713D01*
X140337797Y-62449052D01*
X140337559Y-62450079D01*
X140314413Y-62572927D01*
X140314263Y-62573943D01*
X140300903Y-62700299D01*
X140300838Y-62701284D01*
X140297522Y-62821690D01*
X139177459Y-63122541D01*
X139478310Y-62002478D01*
X139598715Y-61999162D01*
X139599700Y-61999097D01*
X139726056Y-61985736D01*
X139727072Y-61985586D01*
X139849920Y-61962440D01*
X139850947Y-61962202D01*
X139970286Y-61929272D01*
X139971302Y-61928946D01*
X140087132Y-61886231D01*
X140088116Y-61885820D01*
X140200438Y-61833320D01*
X140201369Y-61832837D01*
X140310181Y-61770552D01*
X140311045Y-61770010D01*
X140416349Y-61697940D01*
X140417134Y-61697357D01*
X140518928Y-61615503D01*
X140519631Y-61614895D01*
X140608949Y-61531619D01*
X140768381Y-61691051D01*
X140768381Y-61691051D01*
G37*
X140768381Y-61691051D02*
X140685104Y-61780368D01*
X140684496Y-61781071D01*
X140602642Y-61882865D01*
X140602059Y-61883650D01*
X140529989Y-61988954D01*
X140529447Y-61989818D01*
X140467163Y-62098630D01*
X140466680Y-62099561D01*
X140414180Y-62211883D01*
X140413769Y-62212867D01*
X140371053Y-62328697D01*
X140370727Y-62329713D01*
X140337797Y-62449052D01*
X140337559Y-62450079D01*
X140314413Y-62572927D01*
X140314263Y-62573943D01*
X140300903Y-62700299D01*
X140300838Y-62701284D01*
X140297522Y-62821690D01*
X139177459Y-63122541D01*
X139478310Y-62002478D01*
X139598715Y-61999162D01*
X139599700Y-61999097D01*
X139726056Y-61985736D01*
X139727072Y-61985586D01*
X139849920Y-61962440D01*
X139850947Y-61962202D01*
X139970286Y-61929272D01*
X139971302Y-61928946D01*
X140087132Y-61886231D01*
X140088116Y-61885820D01*
X140200438Y-61833320D01*
X140201369Y-61832837D01*
X140310181Y-61770552D01*
X140311045Y-61770010D01*
X140416349Y-61697940D01*
X140417134Y-61697357D01*
X140518928Y-61615503D01*
X140519631Y-61614895D01*
X140608949Y-61531619D01*
X140768381Y-61691051D01*
G36*
X159366374Y-75960000D02*
G01*
X158345384Y-76548641D01*
X158261619Y-76464453D01*
X158261464Y-76464300D01*
X158177524Y-76382781D01*
X158177331Y-76382598D01*
X158100099Y-76310670D01*
X158099855Y-76310449D01*
X158029333Y-76248112D01*
X158029013Y-76247838D01*
X157965200Y-76195091D01*
X157964766Y-76194748D01*
X157907663Y-76151591D01*
X157907046Y-76151153D01*
X157856652Y-76117586D01*
X157855722Y-76117023D01*
X157812037Y-76093047D01*
X157810532Y-76092344D01*
X157773557Y-76077959D01*
X157770939Y-76077251D01*
X157751386Y-76074153D01*
X157751386Y-75845846D01*
X157770940Y-75842747D01*
X157773557Y-75842040D01*
X157810532Y-75827655D01*
X157812037Y-75826952D01*
X157855722Y-75802976D01*
X157856652Y-75802413D01*
X157907046Y-75768846D01*
X157907663Y-75768408D01*
X157964766Y-75725252D01*
X157965200Y-75724909D01*
X158029013Y-75672161D01*
X158029333Y-75671887D01*
X158099855Y-75609550D01*
X158100099Y-75609329D01*
X158177331Y-75537401D01*
X158177524Y-75537218D01*
X158261464Y-75455699D01*
X158261619Y-75455546D01*
X158345383Y-75371359D01*
X159366374Y-75960000D01*
X159366374Y-75960000D01*
G37*
X159366374Y-75960000D02*
X158345384Y-76548641D01*
X158261619Y-76464453D01*
X158261464Y-76464300D01*
X158177524Y-76382781D01*
X158177331Y-76382598D01*
X158100099Y-76310670D01*
X158099855Y-76310449D01*
X158029333Y-76248112D01*
X158029013Y-76247838D01*
X157965200Y-76195091D01*
X157964766Y-76194748D01*
X157907663Y-76151591D01*
X157907046Y-76151153D01*
X157856652Y-76117586D01*
X157855722Y-76117023D01*
X157812037Y-76093047D01*
X157810532Y-76092344D01*
X157773557Y-76077959D01*
X157770939Y-76077251D01*
X157751386Y-76074153D01*
X157751386Y-75845846D01*
X157770940Y-75842747D01*
X157773557Y-75842040D01*
X157810532Y-75827655D01*
X157812037Y-75826952D01*
X157855722Y-75802976D01*
X157856652Y-75802413D01*
X157907046Y-75768846D01*
X157907663Y-75768408D01*
X157964766Y-75725252D01*
X157965200Y-75724909D01*
X158029013Y-75672161D01*
X158029333Y-75671887D01*
X158099855Y-75609550D01*
X158100099Y-75609329D01*
X158177331Y-75537401D01*
X158177524Y-75537218D01*
X158261464Y-75455699D01*
X158261619Y-75455546D01*
X158345383Y-75371359D01*
X159366374Y-75960000D01*
G36*
X132039121Y-73604906D02*
G01*
X131956741Y-73686894D01*
X131956585Y-73687052D01*
X131876685Y-73769400D01*
X131876499Y-73769596D01*
X131805999Y-73845419D01*
X131805774Y-73845668D01*
X131744674Y-73914963D01*
X131744397Y-73915288D01*
X131692697Y-73978058D01*
X131692350Y-73978498D01*
X131650050Y-74034740D01*
X131649609Y-74035365D01*
X131616709Y-74085082D01*
X131616144Y-74086021D01*
X131592644Y-74129210D01*
X131591946Y-74130721D01*
X131577846Y-74167385D01*
X131577152Y-74169987D01*
X131574127Y-74189381D01*
X131345873Y-74189381D01*
X131342848Y-74169987D01*
X131342154Y-74167385D01*
X131328054Y-74130721D01*
X131327356Y-74129210D01*
X131303856Y-74086021D01*
X131303291Y-74085082D01*
X131270391Y-74035365D01*
X131269950Y-74034740D01*
X131227650Y-73978498D01*
X131227303Y-73978058D01*
X131175603Y-73915288D01*
X131175326Y-73914963D01*
X131114226Y-73845668D01*
X131114001Y-73845419D01*
X131043501Y-73769596D01*
X131043315Y-73769400D01*
X130963415Y-73687052D01*
X130963259Y-73686894D01*
X130880879Y-73604906D01*
X131460000Y-72600426D01*
X132039121Y-73604906D01*
X132039121Y-73604906D01*
G37*
X132039121Y-73604906D02*
X131956741Y-73686894D01*
X131956585Y-73687052D01*
X131876685Y-73769400D01*
X131876499Y-73769596D01*
X131805999Y-73845419D01*
X131805774Y-73845668D01*
X131744674Y-73914963D01*
X131744397Y-73915288D01*
X131692697Y-73978058D01*
X131692350Y-73978498D01*
X131650050Y-74034740D01*
X131649609Y-74035365D01*
X131616709Y-74085082D01*
X131616144Y-74086021D01*
X131592644Y-74129210D01*
X131591946Y-74130721D01*
X131577846Y-74167385D01*
X131577152Y-74169987D01*
X131574127Y-74189381D01*
X131345873Y-74189381D01*
X131342848Y-74169987D01*
X131342154Y-74167385D01*
X131328054Y-74130721D01*
X131327356Y-74129210D01*
X131303856Y-74086021D01*
X131303291Y-74085082D01*
X131270391Y-74035365D01*
X131269950Y-74034740D01*
X131227650Y-73978498D01*
X131227303Y-73978058D01*
X131175603Y-73915288D01*
X131175326Y-73914963D01*
X131114226Y-73845668D01*
X131114001Y-73845419D01*
X131043501Y-73769596D01*
X131043315Y-73769400D01*
X130963415Y-73687052D01*
X130963259Y-73686894D01*
X130880879Y-73604906D01*
X131460000Y-72600426D01*
X132039121Y-73604906D01*
G36*
X141981690Y-73837522D02*
G01*
X141861284Y-73840838D01*
X141860299Y-73840903D01*
X141733943Y-73854263D01*
X141732927Y-73854413D01*
X141610079Y-73877559D01*
X141609052Y-73877797D01*
X141489713Y-73910727D01*
X141488697Y-73911053D01*
X141372867Y-73953769D01*
X141371883Y-73954180D01*
X141259561Y-74006680D01*
X141258630Y-74007163D01*
X141149818Y-74069447D01*
X141148954Y-74069989D01*
X141043650Y-74142059D01*
X141042865Y-74142642D01*
X140941071Y-74224496D01*
X140940368Y-74225104D01*
X140851051Y-74308381D01*
X140691619Y-74148949D01*
X140774895Y-74059631D01*
X140775503Y-74058928D01*
X140857357Y-73957134D01*
X140857940Y-73956349D01*
X140930010Y-73851045D01*
X140930552Y-73850181D01*
X140992837Y-73741369D01*
X140993320Y-73740438D01*
X141045820Y-73628116D01*
X141046231Y-73627132D01*
X141088946Y-73511302D01*
X141089272Y-73510286D01*
X141122202Y-73390947D01*
X141122440Y-73389920D01*
X141145586Y-73267072D01*
X141145736Y-73266056D01*
X141159097Y-73139700D01*
X141159162Y-73138715D01*
X141162478Y-73018310D01*
X142282541Y-72717459D01*
X141981690Y-73837522D01*
X141981690Y-73837522D01*
G37*
X141981690Y-73837522D02*
X141861284Y-73840838D01*
X141860299Y-73840903D01*
X141733943Y-73854263D01*
X141732927Y-73854413D01*
X141610079Y-73877559D01*
X141609052Y-73877797D01*
X141489713Y-73910727D01*
X141488697Y-73911053D01*
X141372867Y-73953769D01*
X141371883Y-73954180D01*
X141259561Y-74006680D01*
X141258630Y-74007163D01*
X141149818Y-74069447D01*
X141148954Y-74069989D01*
X141043650Y-74142059D01*
X141042865Y-74142642D01*
X140941071Y-74224496D01*
X140940368Y-74225104D01*
X140851051Y-74308381D01*
X140691619Y-74148949D01*
X140774895Y-74059631D01*
X140775503Y-74058928D01*
X140857357Y-73957134D01*
X140857940Y-73956349D01*
X140930010Y-73851045D01*
X140930552Y-73850181D01*
X140992837Y-73741369D01*
X140993320Y-73740438D01*
X141045820Y-73628116D01*
X141046231Y-73627132D01*
X141088946Y-73511302D01*
X141089272Y-73510286D01*
X141122202Y-73390947D01*
X141122440Y-73389920D01*
X141145586Y-73267072D01*
X141145736Y-73266056D01*
X141159097Y-73139700D01*
X141159162Y-73138715D01*
X141162478Y-73018310D01*
X142282541Y-72717459D01*
X141981690Y-73837522D01*
G36*
X142692648Y-72503524D02*
G01*
X142693392Y-72504175D01*
X142792187Y-72584075D01*
X142793011Y-72584688D01*
X142896244Y-72655188D01*
X142897138Y-72655745D01*
X143004809Y-72716845D01*
X143005759Y-72717333D01*
X143117867Y-72769033D01*
X143118852Y-72769438D01*
X143235398Y-72811738D01*
X143236398Y-72812055D01*
X143357382Y-72844955D01*
X143358376Y-72845183D01*
X143483798Y-72868683D01*
X143484766Y-72868826D01*
X143614626Y-72882926D01*
X143615553Y-72882992D01*
X143737595Y-72887263D01*
X143737595Y-73112737D01*
X143615553Y-73117008D01*
X143614626Y-73117074D01*
X143484766Y-73131174D01*
X143483798Y-73131317D01*
X143358376Y-73154817D01*
X143357382Y-73155045D01*
X143236398Y-73187945D01*
X143235398Y-73188262D01*
X143118852Y-73230562D01*
X143117867Y-73230967D01*
X143005759Y-73282667D01*
X143004809Y-73283155D01*
X142897138Y-73344255D01*
X142896244Y-73344812D01*
X142793011Y-73415312D01*
X142792187Y-73415925D01*
X142693392Y-73495825D01*
X142692648Y-73496476D01*
X142605165Y-73579271D01*
X141600426Y-73000000D01*
X142605165Y-72420729D01*
X142692648Y-72503524D01*
X142692648Y-72503524D01*
G37*
X142692648Y-72503524D02*
X142693392Y-72504175D01*
X142792187Y-72584075D01*
X142793011Y-72584688D01*
X142896244Y-72655188D01*
X142897138Y-72655745D01*
X143004809Y-72716845D01*
X143005759Y-72717333D01*
X143117867Y-72769033D01*
X143118852Y-72769438D01*
X143235398Y-72811738D01*
X143236398Y-72812055D01*
X143357382Y-72844955D01*
X143358376Y-72845183D01*
X143483798Y-72868683D01*
X143484766Y-72868826D01*
X143614626Y-72882926D01*
X143615553Y-72882992D01*
X143737595Y-72887263D01*
X143737595Y-73112737D01*
X143615553Y-73117008D01*
X143614626Y-73117074D01*
X143484766Y-73131174D01*
X143483798Y-73131317D01*
X143358376Y-73154817D01*
X143357382Y-73155045D01*
X143236398Y-73187945D01*
X143235398Y-73188262D01*
X143118852Y-73230562D01*
X143117867Y-73230967D01*
X143005759Y-73282667D01*
X143004809Y-73283155D01*
X142897138Y-73344255D01*
X142896244Y-73344812D01*
X142793011Y-73415312D01*
X142792187Y-73415925D01*
X142693392Y-73495825D01*
X142692648Y-73496476D01*
X142605165Y-73579271D01*
X141600426Y-73000000D01*
X142605165Y-72420729D01*
X142692648Y-72503524D01*
G36*
X149399574Y-71540000D02*
G01*
X148394932Y-72119215D01*
X148309557Y-72036575D01*
X148309027Y-72036090D01*
X148216541Y-71956190D01*
X148215925Y-71955691D01*
X148123207Y-71885191D01*
X148122496Y-71884688D01*
X148029546Y-71823588D01*
X148028731Y-71823095D01*
X147935549Y-71771395D01*
X147934627Y-71770931D01*
X147841213Y-71728631D01*
X147840184Y-71728218D01*
X147746538Y-71695318D01*
X147745412Y-71694980D01*
X147651535Y-71671480D01*
X147650333Y-71671240D01*
X147556223Y-71657140D01*
X147554973Y-71657016D01*
X147472700Y-71652917D01*
X147472700Y-71427083D01*
X147554973Y-71422984D01*
X147556223Y-71422860D01*
X147650333Y-71408760D01*
X147651535Y-71408520D01*
X147745412Y-71385020D01*
X147746538Y-71384682D01*
X147840184Y-71351782D01*
X147841213Y-71351369D01*
X147934627Y-71309069D01*
X147935549Y-71308605D01*
X148028731Y-71256905D01*
X148029546Y-71256412D01*
X148122496Y-71195312D01*
X148123207Y-71194809D01*
X148215925Y-71124309D01*
X148216541Y-71123810D01*
X148309027Y-71043910D01*
X148309557Y-71043425D01*
X148394932Y-70960785D01*
X149399574Y-71540000D01*
X149399574Y-71540000D01*
G37*
X149399574Y-71540000D02*
X148394932Y-72119215D01*
X148309557Y-72036575D01*
X148309027Y-72036090D01*
X148216541Y-71956190D01*
X148215925Y-71955691D01*
X148123207Y-71885191D01*
X148122496Y-71884688D01*
X148029546Y-71823588D01*
X148028731Y-71823095D01*
X147935549Y-71771395D01*
X147934627Y-71770931D01*
X147841213Y-71728631D01*
X147840184Y-71728218D01*
X147746538Y-71695318D01*
X147745412Y-71694980D01*
X147651535Y-71671480D01*
X147650333Y-71671240D01*
X147556223Y-71657140D01*
X147554973Y-71657016D01*
X147472700Y-71652917D01*
X147472700Y-71427083D01*
X147554973Y-71422984D01*
X147556223Y-71422860D01*
X147650333Y-71408760D01*
X147651535Y-71408520D01*
X147745412Y-71385020D01*
X147746538Y-71384682D01*
X147840184Y-71351782D01*
X147841213Y-71351369D01*
X147934627Y-71309069D01*
X147935549Y-71308605D01*
X148028731Y-71256905D01*
X148029546Y-71256412D01*
X148122496Y-71195312D01*
X148123207Y-71194809D01*
X148215925Y-71124309D01*
X148216541Y-71123810D01*
X148309027Y-71043910D01*
X148309557Y-71043425D01*
X148394932Y-70960785D01*
X149399574Y-71540000D01*
M02*
