G04 #@! TF.GenerationSoftware,KiCad,Pcbnew,(5.1.4)-1*
G04 #@! TF.CreationDate,2019-11-19T21:39:16+08:00*
G04 #@! TF.ProjectId,dap-stm32f103,6461702d-7374-46d3-9332-663130332e6b,rev?*
G04 #@! TF.SameCoordinates,Original*
G04 #@! TF.FileFunction,Legend,Top*
G04 #@! TF.FilePolarity,Positive*
%FSLAX46Y46*%
G04 Gerber Fmt 4.6, Leading zero omitted, Abs format (unit mm)*
G04 Created by KiCad (PCBNEW (5.1.4)-1) date 2019-11-19 21:39:16*
%MOMM*%
%LPD*%
G04 APERTURE LIST*
%ADD10C,0.150000*%
%ADD11C,0.200000*%
%ADD12C,0.120000*%
%ADD13C,0.010000*%
%ADD14C,0.254000*%
%ADD15C,0.400000*%
%ADD16C,0.300000*%
G04 APERTURE END LIST*
D10*
X163702095Y-88120380D02*
X163368761Y-87644190D01*
X163130666Y-88120380D02*
X163130666Y-87120380D01*
X163511619Y-87120380D01*
X163606857Y-87168000D01*
X163654476Y-87215619D01*
X163702095Y-87310857D01*
X163702095Y-87453714D01*
X163654476Y-87548952D01*
X163606857Y-87596571D01*
X163511619Y-87644190D01*
X163130666Y-87644190D01*
X163987809Y-87120380D02*
X164559238Y-87120380D01*
X164273523Y-88120380D02*
X164273523Y-87120380D01*
X164892571Y-87739428D02*
X165654476Y-87739428D01*
X165987809Y-87120380D02*
X166559238Y-87120380D01*
X166273523Y-88120380D02*
X166273523Y-87120380D01*
X166892571Y-88120380D02*
X166892571Y-87120380D01*
X167321142Y-88120380D02*
X167321142Y-87596571D01*
X167273523Y-87501333D01*
X167178285Y-87453714D01*
X167035428Y-87453714D01*
X166940190Y-87501333D01*
X166892571Y-87548952D01*
X167797333Y-88120380D02*
X167797333Y-87453714D01*
X167797333Y-87644190D02*
X167844952Y-87548952D01*
X167892571Y-87501333D01*
X167987809Y-87453714D01*
X168083047Y-87453714D01*
X168797333Y-88072761D02*
X168702095Y-88120380D01*
X168511619Y-88120380D01*
X168416380Y-88072761D01*
X168368761Y-87977523D01*
X168368761Y-87596571D01*
X168416380Y-87501333D01*
X168511619Y-87453714D01*
X168702095Y-87453714D01*
X168797333Y-87501333D01*
X168844952Y-87596571D01*
X168844952Y-87691809D01*
X168368761Y-87787047D01*
X169702095Y-88120380D02*
X169702095Y-87596571D01*
X169654476Y-87501333D01*
X169559238Y-87453714D01*
X169368761Y-87453714D01*
X169273523Y-87501333D01*
X169702095Y-88072761D02*
X169606857Y-88120380D01*
X169368761Y-88120380D01*
X169273523Y-88072761D01*
X169225904Y-87977523D01*
X169225904Y-87882285D01*
X169273523Y-87787047D01*
X169368761Y-87739428D01*
X169606857Y-87739428D01*
X169702095Y-87691809D01*
X170606857Y-88120380D02*
X170606857Y-87120380D01*
X170606857Y-88072761D02*
X170511619Y-88120380D01*
X170321142Y-88120380D01*
X170225904Y-88072761D01*
X170178285Y-88025142D01*
X170130666Y-87929904D01*
X170130666Y-87644190D01*
X170178285Y-87548952D01*
X170225904Y-87501333D01*
X170321142Y-87453714D01*
X170511619Y-87453714D01*
X170606857Y-87501333D01*
X171844952Y-88120380D02*
X171844952Y-87120380D01*
X172321142Y-87453714D02*
X172321142Y-88120380D01*
X172321142Y-87548952D02*
X172368761Y-87501333D01*
X172464000Y-87453714D01*
X172606857Y-87453714D01*
X172702095Y-87501333D01*
X172749714Y-87596571D01*
X172749714Y-88120380D01*
X173178285Y-88072761D02*
X173273523Y-88120380D01*
X173464000Y-88120380D01*
X173559238Y-88072761D01*
X173606857Y-87977523D01*
X173606857Y-87929904D01*
X173559238Y-87834666D01*
X173464000Y-87787047D01*
X173321142Y-87787047D01*
X173225904Y-87739428D01*
X173178285Y-87644190D01*
X173178285Y-87596571D01*
X173225904Y-87501333D01*
X173321142Y-87453714D01*
X173464000Y-87453714D01*
X173559238Y-87501333D01*
X174035428Y-88120380D02*
X174035428Y-87453714D01*
X174035428Y-87120380D02*
X173987809Y-87168000D01*
X174035428Y-87215619D01*
X174083047Y-87168000D01*
X174035428Y-87120380D01*
X174035428Y-87215619D01*
X174940190Y-88120380D02*
X174940190Y-87120380D01*
X174940190Y-88072761D02*
X174844952Y-88120380D01*
X174654476Y-88120380D01*
X174559238Y-88072761D01*
X174511619Y-88025142D01*
X174464000Y-87929904D01*
X174464000Y-87644190D01*
X174511619Y-87548952D01*
X174559238Y-87501333D01*
X174654476Y-87453714D01*
X174844952Y-87453714D01*
X174940190Y-87501333D01*
X175797333Y-88072761D02*
X175702095Y-88120380D01*
X175511619Y-88120380D01*
X175416380Y-88072761D01*
X175368761Y-87977523D01*
X175368761Y-87596571D01*
X175416380Y-87501333D01*
X175511619Y-87453714D01*
X175702095Y-87453714D01*
X175797333Y-87501333D01*
X175844952Y-87596571D01*
X175844952Y-87691809D01*
X175368761Y-87787047D01*
D11*
X177522380Y-98361095D02*
X177522380Y-97061095D01*
X177831904Y-97061095D01*
X178017619Y-97123000D01*
X178141428Y-97246809D01*
X178203333Y-97370619D01*
X178265238Y-97618238D01*
X178265238Y-97803952D01*
X178203333Y-98051571D01*
X178141428Y-98175380D01*
X178017619Y-98299190D01*
X177831904Y-98361095D01*
X177522380Y-98361095D01*
X178760476Y-97989666D02*
X179379523Y-97989666D01*
X178636666Y-98361095D02*
X179070000Y-97061095D01*
X179503333Y-98361095D01*
X179936666Y-98361095D02*
X179936666Y-97061095D01*
X180431904Y-97061095D01*
X180555714Y-97123000D01*
X180617619Y-97184904D01*
X180679523Y-97308714D01*
X180679523Y-97494428D01*
X180617619Y-97618238D01*
X180555714Y-97680142D01*
X180431904Y-97742047D01*
X179936666Y-97742047D01*
X181855714Y-98361095D02*
X181236666Y-98361095D01*
X181236666Y-97061095D01*
X182289047Y-98361095D02*
X182289047Y-97494428D01*
X182289047Y-97061095D02*
X182227142Y-97123000D01*
X182289047Y-97184904D01*
X182350952Y-97123000D01*
X182289047Y-97061095D01*
X182289047Y-97184904D01*
X182908095Y-97494428D02*
X182908095Y-98361095D01*
X182908095Y-97618238D02*
X182970000Y-97556333D01*
X183093809Y-97494428D01*
X183279523Y-97494428D01*
X183403333Y-97556333D01*
X183465238Y-97680142D01*
X183465238Y-98361095D01*
X184084285Y-98361095D02*
X184084285Y-97061095D01*
X184208095Y-97865857D02*
X184579523Y-98361095D01*
X184579523Y-97494428D02*
X184084285Y-97989666D01*
D10*
X195686380Y-92225142D02*
X195734000Y-92272761D01*
X195781619Y-92368000D01*
X195781619Y-92606095D01*
X195734000Y-92701333D01*
X195686380Y-92748952D01*
X195591142Y-92796571D01*
X195495904Y-92796571D01*
X195353047Y-92748952D01*
X194781619Y-92177523D01*
X194781619Y-92796571D01*
X195781619Y-93701333D02*
X195781619Y-93225142D01*
X195305428Y-93177523D01*
X195353047Y-93225142D01*
X195400666Y-93320380D01*
X195400666Y-93558476D01*
X195353047Y-93653714D01*
X195305428Y-93701333D01*
X195210190Y-93748952D01*
X194972095Y-93748952D01*
X194876857Y-93701333D01*
X194829238Y-93653714D01*
X194781619Y-93558476D01*
X194781619Y-93320380D01*
X194829238Y-93225142D01*
X194876857Y-93177523D01*
X194876857Y-94177523D02*
X194829238Y-94225142D01*
X194781619Y-94177523D01*
X194829238Y-94129904D01*
X194876857Y-94177523D01*
X194781619Y-94177523D01*
X195781619Y-94844190D02*
X195781619Y-94939428D01*
X195734000Y-95034666D01*
X195686380Y-95082285D01*
X195591142Y-95129904D01*
X195400666Y-95177523D01*
X195162571Y-95177523D01*
X194972095Y-95129904D01*
X194876857Y-95082285D01*
X194829238Y-95034666D01*
X194781619Y-94939428D01*
X194781619Y-94844190D01*
X194829238Y-94748952D01*
X194876857Y-94701333D01*
X194972095Y-94653714D01*
X195162571Y-94606095D01*
X195400666Y-94606095D01*
X195591142Y-94653714D01*
X195686380Y-94701333D01*
X195734000Y-94748952D01*
X195781619Y-94844190D01*
X195781619Y-95796571D02*
X195781619Y-95891809D01*
X195734000Y-95987047D01*
X195686380Y-96034666D01*
X195591142Y-96082285D01*
X195400666Y-96129904D01*
X195162571Y-96129904D01*
X194972095Y-96082285D01*
X194876857Y-96034666D01*
X194829238Y-95987047D01*
X194781619Y-95891809D01*
X194781619Y-95796571D01*
X194829238Y-95701333D01*
X194876857Y-95653714D01*
X194972095Y-95606095D01*
X195162571Y-95558476D01*
X195400666Y-95558476D01*
X195591142Y-95606095D01*
X195686380Y-95653714D01*
X195734000Y-95701333D01*
X195781619Y-95796571D01*
X195781619Y-96748952D02*
X195781619Y-96844190D01*
X195734000Y-96939428D01*
X195686380Y-96987047D01*
X195591142Y-97034666D01*
X195400666Y-97082285D01*
X195162571Y-97082285D01*
X194972095Y-97034666D01*
X194876857Y-96987047D01*
X194829238Y-96939428D01*
X194781619Y-96844190D01*
X194781619Y-96748952D01*
X194829238Y-96653714D01*
X194876857Y-96606095D01*
X194972095Y-96558476D01*
X195162571Y-96510857D01*
X195400666Y-96510857D01*
X195591142Y-96558476D01*
X195686380Y-96606095D01*
X195734000Y-96653714D01*
X195781619Y-96748952D01*
X194781619Y-98272761D02*
X195448285Y-98272761D01*
X195353047Y-98272761D02*
X195400666Y-98320380D01*
X195448285Y-98415619D01*
X195448285Y-98558476D01*
X195400666Y-98653714D01*
X195305428Y-98701333D01*
X194781619Y-98701333D01*
X195305428Y-98701333D02*
X195400666Y-98748952D01*
X195448285Y-98844190D01*
X195448285Y-98987047D01*
X195400666Y-99082285D01*
X195305428Y-99129904D01*
X194781619Y-99129904D01*
X194781619Y-99606095D02*
X195448285Y-99606095D01*
X195353047Y-99606095D02*
X195400666Y-99653714D01*
X195448285Y-99748952D01*
X195448285Y-99891809D01*
X195400666Y-99987047D01*
X195305428Y-100034666D01*
X194781619Y-100034666D01*
X195305428Y-100034666D02*
X195400666Y-100082285D01*
X195448285Y-100177523D01*
X195448285Y-100320380D01*
X195400666Y-100415619D01*
X195305428Y-100463238D01*
X194781619Y-100463238D01*
D12*
X193964000Y-83868000D02*
X193964000Y-108868000D01*
X187964000Y-83868000D02*
X194550421Y-83868000D01*
X187964000Y-108868000D02*
X194550421Y-108868000D01*
X193964000Y-108868000D02*
X193377579Y-107741496D01*
X193964000Y-108868000D02*
X194550421Y-107741496D01*
X193964000Y-83868000D02*
X193377579Y-84994504D01*
X193964000Y-83868000D02*
X194550421Y-84994504D01*
D10*
X164797333Y-79383714D02*
X164797333Y-80050380D01*
X164559238Y-79002761D02*
X164321142Y-79717047D01*
X164940190Y-79717047D01*
X165797333Y-79050380D02*
X165321142Y-79050380D01*
X165273523Y-79526571D01*
X165321142Y-79478952D01*
X165416380Y-79431333D01*
X165654476Y-79431333D01*
X165749714Y-79478952D01*
X165797333Y-79526571D01*
X165844952Y-79621809D01*
X165844952Y-79859904D01*
X165797333Y-79955142D01*
X165749714Y-80002761D01*
X165654476Y-80050380D01*
X165416380Y-80050380D01*
X165321142Y-80002761D01*
X165273523Y-79955142D01*
X166273523Y-79955142D02*
X166321142Y-80002761D01*
X166273523Y-80050380D01*
X166225904Y-80002761D01*
X166273523Y-79955142D01*
X166273523Y-80050380D01*
X166940190Y-79050380D02*
X167035428Y-79050380D01*
X167130666Y-79098000D01*
X167178285Y-79145619D01*
X167225904Y-79240857D01*
X167273523Y-79431333D01*
X167273523Y-79669428D01*
X167225904Y-79859904D01*
X167178285Y-79955142D01*
X167130666Y-80002761D01*
X167035428Y-80050380D01*
X166940190Y-80050380D01*
X166844952Y-80002761D01*
X166797333Y-79955142D01*
X166749714Y-79859904D01*
X166702095Y-79669428D01*
X166702095Y-79431333D01*
X166749714Y-79240857D01*
X166797333Y-79145619D01*
X166844952Y-79098000D01*
X166940190Y-79050380D01*
X167892571Y-79050380D02*
X167987809Y-79050380D01*
X168083047Y-79098000D01*
X168130666Y-79145619D01*
X168178285Y-79240857D01*
X168225904Y-79431333D01*
X168225904Y-79669428D01*
X168178285Y-79859904D01*
X168130666Y-79955142D01*
X168083047Y-80002761D01*
X167987809Y-80050380D01*
X167892571Y-80050380D01*
X167797333Y-80002761D01*
X167749714Y-79955142D01*
X167702095Y-79859904D01*
X167654476Y-79669428D01*
X167654476Y-79431333D01*
X167702095Y-79240857D01*
X167749714Y-79145619D01*
X167797333Y-79098000D01*
X167892571Y-79050380D01*
X168844952Y-79050380D02*
X168940190Y-79050380D01*
X169035428Y-79098000D01*
X169083047Y-79145619D01*
X169130666Y-79240857D01*
X169178285Y-79431333D01*
X169178285Y-79669428D01*
X169130666Y-79859904D01*
X169083047Y-79955142D01*
X169035428Y-80002761D01*
X168940190Y-80050380D01*
X168844952Y-80050380D01*
X168749714Y-80002761D01*
X168702095Y-79955142D01*
X168654476Y-79859904D01*
X168606857Y-79669428D01*
X168606857Y-79431333D01*
X168654476Y-79240857D01*
X168702095Y-79145619D01*
X168749714Y-79098000D01*
X168844952Y-79050380D01*
X170368761Y-80050380D02*
X170368761Y-79383714D01*
X170368761Y-79478952D02*
X170416380Y-79431333D01*
X170511619Y-79383714D01*
X170654476Y-79383714D01*
X170749714Y-79431333D01*
X170797333Y-79526571D01*
X170797333Y-80050380D01*
X170797333Y-79526571D02*
X170844952Y-79431333D01*
X170940190Y-79383714D01*
X171083047Y-79383714D01*
X171178285Y-79431333D01*
X171225904Y-79526571D01*
X171225904Y-80050380D01*
X171702095Y-80050380D02*
X171702095Y-79383714D01*
X171702095Y-79478952D02*
X171749714Y-79431333D01*
X171844952Y-79383714D01*
X171987809Y-79383714D01*
X172083047Y-79431333D01*
X172130666Y-79526571D01*
X172130666Y-80050380D01*
X172130666Y-79526571D02*
X172178285Y-79431333D01*
X172273523Y-79383714D01*
X172416380Y-79383714D01*
X172511619Y-79431333D01*
X172559238Y-79526571D01*
X172559238Y-80050380D01*
D12*
X145964000Y-80868000D02*
X190964000Y-80868000D01*
X145964000Y-86868000D02*
X145964000Y-80281579D01*
X190964000Y-86868000D02*
X190964000Y-80281579D01*
X190964000Y-80868000D02*
X189837496Y-81454421D01*
X190964000Y-80868000D02*
X189837496Y-80281579D01*
X145964000Y-80868000D02*
X147090504Y-81454421D01*
X145964000Y-80868000D02*
X147090504Y-80281579D01*
D13*
G36*
X158803467Y-104512467D02*
G01*
X154468534Y-104512467D01*
X154468534Y-102366022D01*
X155062888Y-102366022D01*
X155069340Y-102529522D01*
X155092332Y-102694604D01*
X155095976Y-102713300D01*
X155134724Y-102863712D01*
X155189535Y-103009807D01*
X155259877Y-103150623D01*
X155345215Y-103285200D01*
X155445018Y-103412579D01*
X155540950Y-103514597D01*
X155659547Y-103620288D01*
X155784638Y-103711482D01*
X155915199Y-103787534D01*
X156050206Y-103847800D01*
X156097445Y-103864750D01*
X156144324Y-103877614D01*
X156180187Y-103880227D01*
X156207627Y-103872415D01*
X156227483Y-103856075D01*
X156234144Y-103847685D01*
X156239039Y-103838334D01*
X156242441Y-103825443D01*
X156244621Y-103806435D01*
X156245848Y-103778731D01*
X156246395Y-103739753D01*
X156246532Y-103686923D01*
X156246533Y-103674781D01*
X156246533Y-103515372D01*
X156138583Y-103519681D01*
X156091001Y-103520655D01*
X156043415Y-103520040D01*
X156001647Y-103517999D01*
X155973777Y-103515069D01*
X155897285Y-103495922D01*
X155832105Y-103464197D01*
X155778078Y-103419769D01*
X155735041Y-103362515D01*
X155709894Y-103311116D01*
X155676766Y-103242693D01*
X155635871Y-103180860D01*
X155589959Y-103129321D01*
X155551798Y-103098215D01*
X155514535Y-103069650D01*
X155492469Y-103045293D01*
X155485621Y-103025775D01*
X155494013Y-103011729D01*
X155517667Y-103003785D01*
X155548436Y-103002266D01*
X155602896Y-103011441D01*
X155658064Y-103035063D01*
X155710856Y-103071078D01*
X155758190Y-103117430D01*
X155792978Y-103165298D01*
X155827456Y-103213045D01*
X155869284Y-103257011D01*
X155913857Y-103292832D01*
X155948361Y-103312671D01*
X155984928Y-103323543D01*
X156032177Y-103329332D01*
X156084624Y-103330010D01*
X156136789Y-103325546D01*
X156183190Y-103315910D01*
X156189392Y-103313991D01*
X156221090Y-103302851D01*
X156240295Y-103292626D01*
X156250840Y-103279725D01*
X156256555Y-103260557D01*
X156258532Y-103249180D01*
X156269372Y-103209789D01*
X156288248Y-103166579D01*
X156311460Y-103127118D01*
X156328918Y-103105134D01*
X156340406Y-103092022D01*
X156343302Y-103083400D01*
X156335533Y-103077734D01*
X156315023Y-103073486D01*
X156280400Y-103069201D01*
X156196496Y-103054618D01*
X156109425Y-103030484D01*
X156024519Y-102998724D01*
X155947110Y-102961263D01*
X155897853Y-102931048D01*
X155828187Y-102872944D01*
X155768511Y-102801786D01*
X155719280Y-102718514D01*
X155680949Y-102624067D01*
X155653974Y-102519385D01*
X155638810Y-102405408D01*
X155638039Y-102394706D01*
X155635888Y-102289495D01*
X155644560Y-102195274D01*
X155664276Y-102109831D01*
X155667619Y-102099381D01*
X155682490Y-102061327D01*
X155702597Y-102019258D01*
X155725536Y-101977371D01*
X155748900Y-101939866D01*
X155770286Y-101910942D01*
X155783066Y-101897823D01*
X155790940Y-101889257D01*
X155792030Y-101878244D01*
X155786398Y-101859038D01*
X155783567Y-101851256D01*
X155777406Y-101827123D01*
X155771780Y-101791908D01*
X155767534Y-101751460D01*
X155766168Y-101730627D01*
X155765146Y-101669775D01*
X155769503Y-101615759D01*
X155780226Y-101560994D01*
X155795173Y-101507898D01*
X155809226Y-101462430D01*
X155869130Y-101466701D01*
X155915225Y-101474360D01*
X155971012Y-101490627D01*
X156032611Y-101513978D01*
X156096146Y-101542892D01*
X156157736Y-101575847D01*
X156177678Y-101587785D01*
X156241758Y-101627330D01*
X156318229Y-101609766D01*
X156452537Y-101586600D01*
X156593572Y-101576648D01*
X156737503Y-101579888D01*
X156880502Y-101596293D01*
X156971079Y-101613991D01*
X157030991Y-101627736D01*
X157079020Y-101597013D01*
X157138878Y-101561393D01*
X157199363Y-101530266D01*
X157258411Y-101504277D01*
X157313956Y-101484071D01*
X157363934Y-101470297D01*
X157406278Y-101463599D01*
X157438926Y-101464623D01*
X157459810Y-101474017D01*
X157462445Y-101477027D01*
X157472068Y-101497286D01*
X157482027Y-101530091D01*
X157491460Y-101571095D01*
X157499505Y-101615953D01*
X157505298Y-101660319D01*
X157507980Y-101699848D01*
X157508067Y-101706998D01*
X157505491Y-101754758D01*
X157498654Y-101803095D01*
X157492659Y-101829432D01*
X157477251Y-101884998D01*
X157501617Y-101913916D01*
X157545843Y-101975789D01*
X157584472Y-102048414D01*
X157606872Y-102103781D01*
X157615312Y-102128462D01*
X157621473Y-102149724D01*
X157625700Y-102170899D01*
X157628340Y-102195322D01*
X157629739Y-102226323D01*
X157630244Y-102267238D01*
X157630200Y-102321397D01*
X157630177Y-102328067D01*
X157629769Y-102385720D01*
X157628762Y-102430206D01*
X157626794Y-102465291D01*
X157623505Y-102494740D01*
X157618535Y-102522318D01*
X157611524Y-102551791D01*
X157607175Y-102568281D01*
X157592842Y-102615071D01*
X157574414Y-102666216D01*
X157555212Y-102712687D01*
X157549535Y-102724915D01*
X157504872Y-102798713D01*
X157445870Y-102866076D01*
X157374266Y-102925893D01*
X157291795Y-102977058D01*
X157200191Y-103018462D01*
X157101190Y-103048998D01*
X157017000Y-103064971D01*
X156975341Y-103070807D01*
X156948296Y-103075407D01*
X156933736Y-103080043D01*
X156929527Y-103085987D01*
X156933541Y-103094514D01*
X156943644Y-103106895D01*
X156944700Y-103108148D01*
X156964662Y-103133532D01*
X156981083Y-103159047D01*
X156994300Y-103186620D01*
X157004647Y-103218176D01*
X157012463Y-103255643D01*
X157018083Y-103300948D01*
X157021843Y-103356016D01*
X157024081Y-103422776D01*
X157025131Y-103503152D01*
X157025342Y-103570078D01*
X157025399Y-103643835D01*
X157025579Y-103702560D01*
X157026014Y-103748156D01*
X157026835Y-103782525D01*
X157028173Y-103807568D01*
X157030159Y-103825187D01*
X157032923Y-103837285D01*
X157036598Y-103845763D01*
X157041314Y-103852524D01*
X157045120Y-103857038D01*
X157065479Y-103873060D01*
X157092378Y-103879828D01*
X157127750Y-103877243D01*
X157173527Y-103865208D01*
X157220361Y-103848150D01*
X157364868Y-103781982D01*
X157501567Y-103701047D01*
X157629744Y-103605953D01*
X157748684Y-103497307D01*
X157857672Y-103375720D01*
X157955994Y-103241798D01*
X157984263Y-103197766D01*
X158057768Y-103063686D01*
X158116799Y-102922246D01*
X158161277Y-102775004D01*
X158191122Y-102623519D01*
X158206254Y-102469351D01*
X158206593Y-102314060D01*
X158192058Y-102159204D01*
X158162571Y-102006343D01*
X158118050Y-101857035D01*
X158060238Y-101716681D01*
X157983682Y-101574085D01*
X157893818Y-101441150D01*
X157791637Y-101318691D01*
X157678131Y-101207525D01*
X157554291Y-101108470D01*
X157421109Y-101022343D01*
X157279575Y-100949960D01*
X157130680Y-100892138D01*
X157021234Y-100860420D01*
X156959390Y-100845755D01*
X156904034Y-100834745D01*
X156850840Y-100826923D01*
X156795479Y-100821821D01*
X156733625Y-100818971D01*
X156660951Y-100817905D01*
X156627534Y-100817875D01*
X156559737Y-100818389D01*
X156504864Y-100819820D01*
X156458917Y-100822439D01*
X156417899Y-100826517D01*
X156377812Y-100832324D01*
X156354655Y-100836365D01*
X156203590Y-100872235D01*
X156055610Y-100923554D01*
X155912675Y-100989224D01*
X155776740Y-101068150D01*
X155649765Y-101159234D01*
X155533705Y-101261378D01*
X155462020Y-101336593D01*
X155358965Y-101465431D01*
X155270882Y-101601746D01*
X155197996Y-101744698D01*
X155140529Y-101893443D01*
X155098706Y-102047141D01*
X155072751Y-102204948D01*
X155062888Y-102366022D01*
X154468534Y-102366022D01*
X154468534Y-100177534D01*
X158803467Y-100177534D01*
X158803467Y-104512467D01*
X158803467Y-104512467D01*
G37*
X158803467Y-104512467D02*
X154468534Y-104512467D01*
X154468534Y-102366022D01*
X155062888Y-102366022D01*
X155069340Y-102529522D01*
X155092332Y-102694604D01*
X155095976Y-102713300D01*
X155134724Y-102863712D01*
X155189535Y-103009807D01*
X155259877Y-103150623D01*
X155345215Y-103285200D01*
X155445018Y-103412579D01*
X155540950Y-103514597D01*
X155659547Y-103620288D01*
X155784638Y-103711482D01*
X155915199Y-103787534D01*
X156050206Y-103847800D01*
X156097445Y-103864750D01*
X156144324Y-103877614D01*
X156180187Y-103880227D01*
X156207627Y-103872415D01*
X156227483Y-103856075D01*
X156234144Y-103847685D01*
X156239039Y-103838334D01*
X156242441Y-103825443D01*
X156244621Y-103806435D01*
X156245848Y-103778731D01*
X156246395Y-103739753D01*
X156246532Y-103686923D01*
X156246533Y-103674781D01*
X156246533Y-103515372D01*
X156138583Y-103519681D01*
X156091001Y-103520655D01*
X156043415Y-103520040D01*
X156001647Y-103517999D01*
X155973777Y-103515069D01*
X155897285Y-103495922D01*
X155832105Y-103464197D01*
X155778078Y-103419769D01*
X155735041Y-103362515D01*
X155709894Y-103311116D01*
X155676766Y-103242693D01*
X155635871Y-103180860D01*
X155589959Y-103129321D01*
X155551798Y-103098215D01*
X155514535Y-103069650D01*
X155492469Y-103045293D01*
X155485621Y-103025775D01*
X155494013Y-103011729D01*
X155517667Y-103003785D01*
X155548436Y-103002266D01*
X155602896Y-103011441D01*
X155658064Y-103035063D01*
X155710856Y-103071078D01*
X155758190Y-103117430D01*
X155792978Y-103165298D01*
X155827456Y-103213045D01*
X155869284Y-103257011D01*
X155913857Y-103292832D01*
X155948361Y-103312671D01*
X155984928Y-103323543D01*
X156032177Y-103329332D01*
X156084624Y-103330010D01*
X156136789Y-103325546D01*
X156183190Y-103315910D01*
X156189392Y-103313991D01*
X156221090Y-103302851D01*
X156240295Y-103292626D01*
X156250840Y-103279725D01*
X156256555Y-103260557D01*
X156258532Y-103249180D01*
X156269372Y-103209789D01*
X156288248Y-103166579D01*
X156311460Y-103127118D01*
X156328918Y-103105134D01*
X156340406Y-103092022D01*
X156343302Y-103083400D01*
X156335533Y-103077734D01*
X156315023Y-103073486D01*
X156280400Y-103069201D01*
X156196496Y-103054618D01*
X156109425Y-103030484D01*
X156024519Y-102998724D01*
X155947110Y-102961263D01*
X155897853Y-102931048D01*
X155828187Y-102872944D01*
X155768511Y-102801786D01*
X155719280Y-102718514D01*
X155680949Y-102624067D01*
X155653974Y-102519385D01*
X155638810Y-102405408D01*
X155638039Y-102394706D01*
X155635888Y-102289495D01*
X155644560Y-102195274D01*
X155664276Y-102109831D01*
X155667619Y-102099381D01*
X155682490Y-102061327D01*
X155702597Y-102019258D01*
X155725536Y-101977371D01*
X155748900Y-101939866D01*
X155770286Y-101910942D01*
X155783066Y-101897823D01*
X155790940Y-101889257D01*
X155792030Y-101878244D01*
X155786398Y-101859038D01*
X155783567Y-101851256D01*
X155777406Y-101827123D01*
X155771780Y-101791908D01*
X155767534Y-101751460D01*
X155766168Y-101730627D01*
X155765146Y-101669775D01*
X155769503Y-101615759D01*
X155780226Y-101560994D01*
X155795173Y-101507898D01*
X155809226Y-101462430D01*
X155869130Y-101466701D01*
X155915225Y-101474360D01*
X155971012Y-101490627D01*
X156032611Y-101513978D01*
X156096146Y-101542892D01*
X156157736Y-101575847D01*
X156177678Y-101587785D01*
X156241758Y-101627330D01*
X156318229Y-101609766D01*
X156452537Y-101586600D01*
X156593572Y-101576648D01*
X156737503Y-101579888D01*
X156880502Y-101596293D01*
X156971079Y-101613991D01*
X157030991Y-101627736D01*
X157079020Y-101597013D01*
X157138878Y-101561393D01*
X157199363Y-101530266D01*
X157258411Y-101504277D01*
X157313956Y-101484071D01*
X157363934Y-101470297D01*
X157406278Y-101463599D01*
X157438926Y-101464623D01*
X157459810Y-101474017D01*
X157462445Y-101477027D01*
X157472068Y-101497286D01*
X157482027Y-101530091D01*
X157491460Y-101571095D01*
X157499505Y-101615953D01*
X157505298Y-101660319D01*
X157507980Y-101699848D01*
X157508067Y-101706998D01*
X157505491Y-101754758D01*
X157498654Y-101803095D01*
X157492659Y-101829432D01*
X157477251Y-101884998D01*
X157501617Y-101913916D01*
X157545843Y-101975789D01*
X157584472Y-102048414D01*
X157606872Y-102103781D01*
X157615312Y-102128462D01*
X157621473Y-102149724D01*
X157625700Y-102170899D01*
X157628340Y-102195322D01*
X157629739Y-102226323D01*
X157630244Y-102267238D01*
X157630200Y-102321397D01*
X157630177Y-102328067D01*
X157629769Y-102385720D01*
X157628762Y-102430206D01*
X157626794Y-102465291D01*
X157623505Y-102494740D01*
X157618535Y-102522318D01*
X157611524Y-102551791D01*
X157607175Y-102568281D01*
X157592842Y-102615071D01*
X157574414Y-102666216D01*
X157555212Y-102712687D01*
X157549535Y-102724915D01*
X157504872Y-102798713D01*
X157445870Y-102866076D01*
X157374266Y-102925893D01*
X157291795Y-102977058D01*
X157200191Y-103018462D01*
X157101190Y-103048998D01*
X157017000Y-103064971D01*
X156975341Y-103070807D01*
X156948296Y-103075407D01*
X156933736Y-103080043D01*
X156929527Y-103085987D01*
X156933541Y-103094514D01*
X156943644Y-103106895D01*
X156944700Y-103108148D01*
X156964662Y-103133532D01*
X156981083Y-103159047D01*
X156994300Y-103186620D01*
X157004647Y-103218176D01*
X157012463Y-103255643D01*
X157018083Y-103300948D01*
X157021843Y-103356016D01*
X157024081Y-103422776D01*
X157025131Y-103503152D01*
X157025342Y-103570078D01*
X157025399Y-103643835D01*
X157025579Y-103702560D01*
X157026014Y-103748156D01*
X157026835Y-103782525D01*
X157028173Y-103807568D01*
X157030159Y-103825187D01*
X157032923Y-103837285D01*
X157036598Y-103845763D01*
X157041314Y-103852524D01*
X157045120Y-103857038D01*
X157065479Y-103873060D01*
X157092378Y-103879828D01*
X157127750Y-103877243D01*
X157173527Y-103865208D01*
X157220361Y-103848150D01*
X157364868Y-103781982D01*
X157501567Y-103701047D01*
X157629744Y-103605953D01*
X157748684Y-103497307D01*
X157857672Y-103375720D01*
X157955994Y-103241798D01*
X157984263Y-103197766D01*
X158057768Y-103063686D01*
X158116799Y-102922246D01*
X158161277Y-102775004D01*
X158191122Y-102623519D01*
X158206254Y-102469351D01*
X158206593Y-102314060D01*
X158192058Y-102159204D01*
X158162571Y-102006343D01*
X158118050Y-101857035D01*
X158060238Y-101716681D01*
X157983682Y-101574085D01*
X157893818Y-101441150D01*
X157791637Y-101318691D01*
X157678131Y-101207525D01*
X157554291Y-101108470D01*
X157421109Y-101022343D01*
X157279575Y-100949960D01*
X157130680Y-100892138D01*
X157021234Y-100860420D01*
X156959390Y-100845755D01*
X156904034Y-100834745D01*
X156850840Y-100826923D01*
X156795479Y-100821821D01*
X156733625Y-100818971D01*
X156660951Y-100817905D01*
X156627534Y-100817875D01*
X156559737Y-100818389D01*
X156504864Y-100819820D01*
X156458917Y-100822439D01*
X156417899Y-100826517D01*
X156377812Y-100832324D01*
X156354655Y-100836365D01*
X156203590Y-100872235D01*
X156055610Y-100923554D01*
X155912675Y-100989224D01*
X155776740Y-101068150D01*
X155649765Y-101159234D01*
X155533705Y-101261378D01*
X155462020Y-101336593D01*
X155358965Y-101465431D01*
X155270882Y-101601746D01*
X155197996Y-101744698D01*
X155140529Y-101893443D01*
X155098706Y-102047141D01*
X155072751Y-102204948D01*
X155062888Y-102366022D01*
X154468534Y-102366022D01*
X154468534Y-100177534D01*
X158803467Y-100177534D01*
X158803467Y-104512467D01*
D11*
X178538990Y-105213000D02*
X178538990Y-105923000D01*
X178314000Y-104993000D02*
X177863990Y-104993000D01*
X178314000Y-106143000D02*
X177864000Y-106143000D01*
X177264000Y-104993000D02*
X176814000Y-104993000D01*
X177264000Y-106143000D02*
X176814000Y-106143000D01*
X176589000Y-105213000D02*
X176589000Y-105923000D01*
X178319000Y-104993000D02*
G75*
G02X178539000Y-105213000I0J-220000D01*
G01*
X178539000Y-105923000D02*
G75*
G02X178319000Y-106143000I-220000J0D01*
G01*
X176589000Y-105213000D02*
G75*
G02X176809000Y-104993000I220000J0D01*
G01*
X176809000Y-106143000D02*
G75*
G02X176589000Y-105923000I0J220000D01*
G01*
D12*
X162364000Y-105428000D02*
X162364000Y-106758000D01*
X161034000Y-105428000D02*
X162364000Y-105428000D01*
X159764000Y-105428000D02*
X159764000Y-108088000D01*
X159764000Y-108088000D02*
X152084000Y-108088000D01*
X159764000Y-105428000D02*
X152084000Y-105428000D01*
X152084000Y-105428000D02*
X152084000Y-108088000D01*
X179414000Y-87638000D02*
X182814000Y-87638000D01*
X177774000Y-87638000D02*
X178314000Y-87638000D01*
X184974000Y-90468000D02*
X184974000Y-90978000D01*
X184454000Y-90978000D02*
X184974000Y-90978000D01*
X184454000Y-90468000D02*
X184454000Y-90978000D01*
X183914000Y-87638000D02*
X184454000Y-87638000D01*
X177254000Y-90468000D02*
X177254000Y-90978000D01*
X177774000Y-90468000D02*
X177774000Y-90978000D01*
X184454000Y-87638000D02*
X184454000Y-87868000D01*
X177254000Y-83968000D02*
X177254000Y-87868000D01*
X177254000Y-90978000D02*
X177774000Y-90978000D01*
X184974000Y-83968000D02*
X184974000Y-87868000D01*
X177254000Y-83968000D02*
X184974000Y-83968000D01*
X177774000Y-87638000D02*
X177774000Y-87868000D01*
D11*
X162304000Y-95383000D02*
X162979000Y-95383000D01*
X161029000Y-95383000D02*
X161704000Y-95383000D01*
X162304000Y-94233000D02*
X162979000Y-94233000D01*
X161029000Y-94233000D02*
X161704000Y-94233000D01*
X162979000Y-95383000D02*
X162979000Y-94233000D01*
X161029000Y-95383000D02*
X161029000Y-94233000D01*
X164524000Y-99403000D02*
X165199000Y-99403000D01*
X163249000Y-99403000D02*
X163924000Y-99403000D01*
X164524000Y-98253000D02*
X165199000Y-98253000D01*
X163249000Y-98253000D02*
X163924000Y-98253000D01*
X165199000Y-99403000D02*
X165199000Y-98253000D01*
X163249000Y-99403000D02*
X163249000Y-98253000D01*
X159704000Y-95383000D02*
X160379000Y-95383000D01*
X158429000Y-95383000D02*
X159104000Y-95383000D01*
X159704000Y-94233000D02*
X160379000Y-94233000D01*
X158429000Y-94233000D02*
X159104000Y-94233000D01*
X160379000Y-95383000D02*
X160379000Y-94233000D01*
X158429000Y-95383000D02*
X158429000Y-94233000D01*
X181139000Y-88698000D02*
X181139000Y-88023000D01*
X181139000Y-89973000D02*
X181139000Y-89298000D01*
X179989000Y-88698000D02*
X179989000Y-88023000D01*
X179989000Y-89973000D02*
X179989000Y-89298000D01*
X181139000Y-88023000D02*
X179989000Y-88023000D01*
X181139000Y-89973000D02*
X179989000Y-89973000D01*
D12*
X162634000Y-108068000D02*
X162634000Y-106738000D01*
X163964000Y-108068000D02*
X162634000Y-108068000D01*
X165234000Y-108068000D02*
X165234000Y-105408000D01*
X165234000Y-105408000D02*
X167834000Y-105408000D01*
X165234000Y-108068000D02*
X167834000Y-108068000D01*
X167834000Y-108068000D02*
X167834000Y-105408000D01*
X151574000Y-86698000D02*
X151574000Y-85368000D01*
X152904000Y-86698000D02*
X151574000Y-86698000D01*
X154174000Y-86698000D02*
X154174000Y-84038000D01*
X154174000Y-84038000D02*
X177094000Y-84038000D01*
X154174000Y-86698000D02*
X177094000Y-86698000D01*
X177094000Y-86698000D02*
X177094000Y-84038000D01*
D14*
X174669000Y-104308000D02*
X168019000Y-104308000D01*
X174669000Y-103408000D02*
X174669000Y-104308000D01*
X168019000Y-103408000D02*
X168019000Y-104308000D01*
X174669000Y-101108000D02*
X174669000Y-102008000D01*
X168019000Y-101108000D02*
X168019000Y-102008000D01*
X174669000Y-101108000D02*
X168019000Y-101108000D01*
X178994000Y-104988000D02*
X184994000Y-104988000D01*
X178994000Y-102188000D02*
X178994000Y-104988000D01*
X178994000Y-102188000D02*
X184994000Y-102188000D01*
X184994000Y-102188000D02*
X184994000Y-104988000D01*
D12*
X168034000Y-97868000D02*
X168034000Y-99158000D01*
X167584000Y-97868000D02*
X168034000Y-97868000D01*
X167584000Y-97418000D02*
X167584000Y-97868000D01*
X167584000Y-90648000D02*
X168034000Y-90648000D01*
X167584000Y-91098000D02*
X167584000Y-90648000D01*
X174804000Y-97868000D02*
X174354000Y-97868000D01*
X174804000Y-97418000D02*
X174804000Y-97868000D01*
X174804000Y-90648000D02*
X174354000Y-90648000D01*
X174804000Y-91098000D02*
X174804000Y-90648000D01*
D14*
X157564000Y-88468000D02*
X157564000Y-93468000D01*
X161364000Y-88468000D02*
X161364000Y-93468000D01*
X157564000Y-88468000D02*
X161364000Y-88468000D01*
X157564000Y-93468000D02*
X161364000Y-93468000D01*
D15*
X158464000Y-89168000D02*
G75*
G03X158464000Y-89168000I-200000J0D01*
G01*
D16*
X155864000Y-88170500D02*
G75*
G03X155864000Y-88170500I-150000J0D01*
G01*
D11*
X155464000Y-95593000D02*
X154789000Y-95593000D01*
X156739000Y-95593000D02*
X156064000Y-95593000D01*
X155464000Y-96743000D02*
X154789000Y-96743000D01*
X156739000Y-96743000D02*
X156064000Y-96743000D01*
X154789000Y-95593000D02*
X154789000Y-96743000D01*
X156739000Y-95593000D02*
X156739000Y-96743000D01*
X155464000Y-96993000D02*
X154789000Y-96993000D01*
X156739000Y-96993000D02*
X156064000Y-96993000D01*
X155464000Y-98143000D02*
X154789000Y-98143000D01*
X156739000Y-98143000D02*
X156064000Y-98143000D01*
X154789000Y-96993000D02*
X154789000Y-98143000D01*
X156739000Y-96993000D02*
X156739000Y-98143000D01*
X185019000Y-95158000D02*
X185019000Y-94483000D01*
X185019000Y-96433000D02*
X185019000Y-95758000D01*
X183869000Y-95158000D02*
X183869000Y-94483000D01*
X183869000Y-96433000D02*
X183869000Y-95758000D01*
X185019000Y-94483000D02*
X183869000Y-94483000D01*
X185019000Y-96433000D02*
X183869000Y-96433000D01*
X176164000Y-98793000D02*
X175489000Y-98793000D01*
X177439000Y-98793000D02*
X176764000Y-98793000D01*
X176164000Y-99943000D02*
X175489000Y-99943000D01*
X177439000Y-99943000D02*
X176764000Y-99943000D01*
X175489000Y-98793000D02*
X175489000Y-99943000D01*
X177439000Y-98793000D02*
X177439000Y-99943000D01*
X167379000Y-101488000D02*
X167379000Y-100813000D01*
X167379000Y-102763000D02*
X167379000Y-102088000D01*
X166229000Y-101488000D02*
X166229000Y-100813000D01*
X166229000Y-102763000D02*
X166229000Y-102088000D01*
X167379000Y-100813000D02*
X166229000Y-100813000D01*
X167379000Y-102763000D02*
X166229000Y-102763000D01*
X164524000Y-101283000D02*
X165199000Y-101283000D01*
X163249000Y-101283000D02*
X163924000Y-101283000D01*
X164524000Y-100133000D02*
X165199000Y-100133000D01*
X163249000Y-100133000D02*
X163924000Y-100133000D01*
X165199000Y-101283000D02*
X165199000Y-100133000D01*
X163249000Y-101283000D02*
X163249000Y-100133000D01*
X178504000Y-94283000D02*
X179179000Y-94283000D01*
X177229000Y-94283000D02*
X177904000Y-94283000D01*
X178504000Y-93133000D02*
X179179000Y-93133000D01*
X177229000Y-93133000D02*
X177904000Y-93133000D01*
X179179000Y-94283000D02*
X179179000Y-93133000D01*
X177229000Y-94283000D02*
X177229000Y-93133000D01*
X180439000Y-91928000D02*
X180439000Y-92603000D01*
X180439000Y-90653000D02*
X180439000Y-91328000D01*
X181589000Y-91928000D02*
X181589000Y-92603000D01*
X181589000Y-90653000D02*
X181589000Y-91328000D01*
X180439000Y-92603000D02*
X181589000Y-92603000D01*
X180439000Y-90653000D02*
X181589000Y-90653000D01*
D12*
X185594000Y-89958000D02*
X186924000Y-89958000D01*
X185594000Y-91288000D02*
X185594000Y-89958000D01*
X188194000Y-89958000D02*
X190794000Y-89958000D01*
X188194000Y-92558000D02*
X188194000Y-89958000D01*
X185594000Y-92558000D02*
X188194000Y-92558000D01*
X190794000Y-89958000D02*
X190794000Y-102778000D01*
X185594000Y-92558000D02*
X185594000Y-102778000D01*
X185594000Y-102778000D02*
X190794000Y-102778000D01*
X151444000Y-92398000D02*
X149644000Y-92398000D01*
X145934000Y-92398000D02*
X147394000Y-92398000D01*
X145934000Y-101338000D02*
X147394000Y-101338000D01*
X151444000Y-101338000D02*
X149644000Y-101338000D01*
X145934000Y-101338000D02*
X145934000Y-92398000D01*
D11*
X161578990Y-99543000D02*
X161578990Y-100253000D01*
X161354000Y-99323000D02*
X160903990Y-99323000D01*
X161354000Y-100473000D02*
X160904000Y-100473000D01*
X160304000Y-99323000D02*
X159854000Y-99323000D01*
X160304000Y-100473000D02*
X159854000Y-100473000D01*
X159629000Y-99543000D02*
X159629000Y-100253000D01*
X161359000Y-99323000D02*
G75*
G02X161579000Y-99543000I0J-220000D01*
G01*
X161579000Y-100253000D02*
G75*
G02X161359000Y-100473000I-220000J0D01*
G01*
X159629000Y-99543000D02*
G75*
G02X159849000Y-99323000I220000J0D01*
G01*
X159849000Y-100473000D02*
G75*
G02X159629000Y-100253000I0J220000D01*
G01*
X182449000Y-89972990D02*
X181739000Y-89972990D01*
X182669000Y-89748000D02*
X182669000Y-89297990D01*
X181519000Y-89748000D02*
X181519000Y-89298000D01*
X182669000Y-88698000D02*
X182669000Y-88248000D01*
X181519000Y-88698000D02*
X181519000Y-88248000D01*
X182449000Y-88023000D02*
X181739000Y-88023000D01*
X182669000Y-89753000D02*
G75*
G02X182449000Y-89973000I-220000J0D01*
G01*
X181739000Y-89973000D02*
G75*
G02X181519000Y-89753000I0J220000D01*
G01*
X182449000Y-88023000D02*
G75*
G02X182669000Y-88243000I0J-220000D01*
G01*
X181519000Y-88243000D02*
G75*
G02X181739000Y-88023000I220000J0D01*
G01*
X178449000Y-90653010D02*
X179159000Y-90653010D01*
X178229000Y-90878000D02*
X178229000Y-91328010D01*
X179379000Y-90878000D02*
X179379000Y-91328000D01*
X178229000Y-91928000D02*
X178229000Y-92378000D01*
X179379000Y-91928000D02*
X179379000Y-92378000D01*
X178449000Y-92603000D02*
X179159000Y-92603000D01*
X178229000Y-90873000D02*
G75*
G02X178449000Y-90653000I220000J0D01*
G01*
X179159000Y-90653000D02*
G75*
G02X179379000Y-90873000I0J-220000D01*
G01*
X178449000Y-92603000D02*
G75*
G02X178229000Y-92383000I0J220000D01*
G01*
X179379000Y-92383000D02*
G75*
G02X179159000Y-92603000I-220000J0D01*
G01*
X178408990Y-101913000D02*
X178408990Y-102623000D01*
X178184000Y-101693000D02*
X177733990Y-101693000D01*
X178184000Y-102843000D02*
X177734000Y-102843000D01*
X177134000Y-101693000D02*
X176684000Y-101693000D01*
X177134000Y-102843000D02*
X176684000Y-102843000D01*
X176459000Y-101913000D02*
X176459000Y-102623000D01*
X178189000Y-101693000D02*
G75*
G02X178409000Y-101913000I0J-220000D01*
G01*
X178409000Y-102623000D02*
G75*
G02X178189000Y-102843000I-220000J0D01*
G01*
X176459000Y-101913000D02*
G75*
G02X176679000Y-101693000I220000J0D01*
G01*
X176679000Y-102843000D02*
G75*
G02X176459000Y-102623000I0J220000D01*
G01*
X161578990Y-103683000D02*
X161578990Y-104393000D01*
X161354000Y-103463000D02*
X160903990Y-103463000D01*
X161354000Y-104613000D02*
X160904000Y-104613000D01*
X160304000Y-103463000D02*
X159854000Y-103463000D01*
X160304000Y-104613000D02*
X159854000Y-104613000D01*
X159629000Y-103683000D02*
X159629000Y-104393000D01*
X161359000Y-103463000D02*
G75*
G02X161579000Y-103683000I0J-220000D01*
G01*
X161579000Y-104393000D02*
G75*
G02X161359000Y-104613000I-220000J0D01*
G01*
X159629000Y-103683000D02*
G75*
G02X159849000Y-103463000I220000J0D01*
G01*
X159849000Y-104613000D02*
G75*
G02X159629000Y-104393000I0J220000D01*
G01*
X178129000Y-104708000D02*
X177394000Y-104708000D01*
X175459000Y-103528000D02*
X175459000Y-104308000D01*
X178529000Y-103528000D02*
X178529000Y-104308000D01*
X176594000Y-104708000D02*
X175859000Y-104708000D01*
X176594000Y-103128000D02*
X175859000Y-103128000D01*
X178129000Y-103128000D02*
X177394000Y-103128000D01*
X175859000Y-104708000D02*
G75*
G02X175459000Y-104308000I0J400000D01*
G01*
X175459000Y-103528000D02*
G75*
G02X175859000Y-103128000I400000J0D01*
G01*
X178129000Y-103128000D02*
G75*
G02X178529000Y-103528000I0J-400000D01*
G01*
X178529000Y-104308000D02*
G75*
G02X178129000Y-104708000I-400000J0D01*
G01*
X157919000Y-96742990D02*
X157209000Y-96742990D01*
X158139000Y-96518000D02*
X158139000Y-96067990D01*
X156989000Y-96518000D02*
X156989000Y-96068000D01*
X158139000Y-95468000D02*
X158139000Y-95018000D01*
X156989000Y-95468000D02*
X156989000Y-95018000D01*
X157919000Y-94793000D02*
X157209000Y-94793000D01*
X158139000Y-96523000D02*
G75*
G02X157919000Y-96743000I-220000J0D01*
G01*
X157209000Y-96743000D02*
G75*
G02X156989000Y-96523000I0J220000D01*
G01*
X157919000Y-94793000D02*
G75*
G02X158139000Y-95013000I0J-220000D01*
G01*
X156989000Y-95013000D02*
G75*
G02X157209000Y-94793000I220000J0D01*
G01*
X157209000Y-96993010D02*
X157919000Y-96993010D01*
X156989000Y-97218000D02*
X156989000Y-97668010D01*
X158139000Y-97218000D02*
X158139000Y-97668000D01*
X156989000Y-98268000D02*
X156989000Y-98718000D01*
X158139000Y-98268000D02*
X158139000Y-98718000D01*
X157209000Y-98943000D02*
X157919000Y-98943000D01*
X156989000Y-97213000D02*
G75*
G02X157209000Y-96993000I220000J0D01*
G01*
X157919000Y-96993000D02*
G75*
G02X158139000Y-97213000I0J-220000D01*
G01*
X157209000Y-98943000D02*
G75*
G02X156989000Y-98723000I0J220000D01*
G01*
X158139000Y-98723000D02*
G75*
G02X157919000Y-98943000I-220000J0D01*
G01*
X178189000Y-107968000D02*
X177454000Y-107968000D01*
X175519000Y-106788000D02*
X175519000Y-107568000D01*
X178589000Y-106788000D02*
X178589000Y-107568000D01*
X176654000Y-107968000D02*
X175919000Y-107968000D01*
X176654000Y-106388000D02*
X175919000Y-106388000D01*
X178189000Y-106388000D02*
X177454000Y-106388000D01*
X175919000Y-107968000D02*
G75*
G02X175519000Y-107568000I0J400000D01*
G01*
X175519000Y-106788000D02*
G75*
G02X175919000Y-106388000I400000J0D01*
G01*
X178189000Y-106388000D02*
G75*
G02X178589000Y-106788000I0J-400000D01*
G01*
X178589000Y-107568000D02*
G75*
G02X178189000Y-107968000I-400000J0D01*
G01*
X164573555Y-89359601D02*
X165075601Y-88857555D01*
X164577084Y-89674256D02*
X164895289Y-89992461D01*
X165390256Y-88861084D02*
X165708454Y-89179282D01*
X165319546Y-90416718D02*
X165637744Y-90734916D01*
X166132718Y-89603546D02*
X166450916Y-89921744D01*
X165952406Y-90738452D02*
X166454452Y-90236406D01*
X164573548Y-89670720D02*
G75*
G02X164573548Y-89359594I155563J155563D01*
G01*
X165075594Y-88857547D02*
G75*
G02X165386721Y-88857548I155563J-155564D01*
G01*
X165952406Y-90738453D02*
G75*
G02X165641279Y-90738452I-155563J155564D01*
G01*
X166454452Y-89925280D02*
G75*
G02X166454452Y-90236406I-155563J-155563D01*
G01*
X177438990Y-100493000D02*
X177438990Y-101203000D01*
X177214000Y-100273000D02*
X176763990Y-100273000D01*
X177214000Y-101423000D02*
X176764000Y-101423000D01*
X176164000Y-100273000D02*
X175714000Y-100273000D01*
X176164000Y-101423000D02*
X175714000Y-101423000D01*
X175489000Y-100493000D02*
X175489000Y-101203000D01*
X177219000Y-100273000D02*
G75*
G02X177439000Y-100493000I0J-220000D01*
G01*
X177439000Y-101203000D02*
G75*
G02X177219000Y-101423000I-220000J0D01*
G01*
X175489000Y-100493000D02*
G75*
G02X175709000Y-100273000I220000J0D01*
G01*
X175709000Y-101423000D02*
G75*
G02X175489000Y-101203000I0J220000D01*
G01*
X182819000Y-92592990D02*
X182109000Y-92592990D01*
X183039000Y-92368000D02*
X183039000Y-91917990D01*
X181889000Y-92368000D02*
X181889000Y-91918000D01*
X183039000Y-91318000D02*
X183039000Y-90868000D01*
X181889000Y-91318000D02*
X181889000Y-90868000D01*
X182819000Y-90643000D02*
X182109000Y-90643000D01*
X183039000Y-92373000D02*
G75*
G02X182819000Y-92593000I-220000J0D01*
G01*
X182109000Y-92593000D02*
G75*
G02X181889000Y-92373000I0J220000D01*
G01*
X182819000Y-90643000D02*
G75*
G02X183039000Y-90863000I0J-220000D01*
G01*
X181889000Y-90863000D02*
G75*
G02X182109000Y-90643000I220000J0D01*
G01*
X168479010Y-105573001D02*
X168479010Y-104863001D01*
X168704000Y-105793001D02*
X169154010Y-105793001D01*
X168704000Y-104643001D02*
X169154000Y-104643001D01*
X169754000Y-105793001D02*
X170204000Y-105793001D01*
X169754000Y-104643001D02*
X170204000Y-104643001D01*
X170429000Y-105573001D02*
X170429000Y-104863001D01*
X168699000Y-105793001D02*
G75*
G02X168479000Y-105573001I0J220000D01*
G01*
X168479000Y-104863001D02*
G75*
G02X168699000Y-104643001I220000J0D01*
G01*
X170429000Y-105573001D02*
G75*
G02X170209000Y-105793001I-220000J0D01*
G01*
X170209000Y-104643001D02*
G75*
G02X170429000Y-104863001I0J-220000D01*
G01*
X174288990Y-104873000D02*
X174288990Y-105583000D01*
X174064000Y-104653000D02*
X173613990Y-104653000D01*
X174064000Y-105803000D02*
X173614000Y-105803000D01*
X173014000Y-104653000D02*
X172564000Y-104653000D01*
X173014000Y-105803000D02*
X172564000Y-105803000D01*
X172339000Y-104873000D02*
X172339000Y-105583000D01*
X174069000Y-104653000D02*
G75*
G02X174289000Y-104873000I0J-220000D01*
G01*
X174289000Y-105583000D02*
G75*
G02X174069000Y-105803000I-220000J0D01*
G01*
X172339000Y-104873000D02*
G75*
G02X172559000Y-104653000I220000J0D01*
G01*
X172559000Y-105803000D02*
G75*
G02X172339000Y-105583000I0J220000D01*
G01*
M02*
