G04 #@! TF.GenerationSoftware,KiCad,Pcbnew,5.1.5-52549c5~84~ubuntu18.04.1*
G04 #@! TF.CreationDate,2019-11-30T22:40:06+08:00*
G04 #@! TF.ProjectId,dap-stm32f103,6461702d-7374-46d3-9332-663130332e6b,rev?*
G04 #@! TF.SameCoordinates,Original*
G04 #@! TF.FileFunction,Paste,Top*
G04 #@! TF.FilePolarity,Positive*
%FSLAX46Y46*%
G04 Gerber Fmt 4.6, Leading zero omitted, Abs format (unit mm)*
G04 Created by KiCad (PCBNEW 5.1.5-52549c5~84~ubuntu18.04.1) date 2019-11-30 22:40:06*
%MOMM*%
%LPD*%
G04 APERTURE LIST*
%ADD10R,0.600000X0.650000*%
%ADD11R,1.160000X0.600000*%
%ADD12R,1.160000X0.300000*%
%ADD13R,0.980000X0.930000*%
%ADD14R,0.930000X0.980000*%
%ADD15R,0.650000X0.600000*%
%ADD16C,0.100000*%
%ADD17O,2.200000X0.700000*%
%ADD18R,1.900000X2.400000*%
%ADD19R,2.200000X1.000000*%
%ADD20R,2.200000X3.500000*%
G04 APERTURE END LIST*
D10*
X155389001Y-96348000D03*
X156239001Y-96348000D03*
D11*
X152494000Y-100058000D03*
X152494000Y-99258000D03*
X152494000Y-100058000D03*
X152494000Y-99258000D03*
X152494000Y-93658000D03*
X152494000Y-93658000D03*
X152494000Y-94458000D03*
X152494000Y-94458000D03*
D12*
X152494000Y-98608000D03*
X152494000Y-97608000D03*
X152494000Y-98108000D03*
X152494000Y-95608000D03*
X152494000Y-95108000D03*
X152494000Y-97108000D03*
X152494000Y-96608000D03*
X152494000Y-96108000D03*
D13*
X155534000Y-93308000D03*
X155534000Y-94848000D03*
D14*
X155504000Y-91408000D03*
X157044000Y-91408000D03*
D15*
X181380000Y-104083000D03*
X181380000Y-103233000D03*
X179868000Y-102763000D03*
X179868000Y-103613000D03*
X177044000Y-102763000D03*
X177044000Y-103613000D03*
X178456000Y-102763000D03*
X178456000Y-103613000D03*
D16*
G36*
X170387988Y-104499746D02*
G01*
X170395269Y-104500826D01*
X170402408Y-104502614D01*
X170409338Y-104505094D01*
X170415992Y-104508241D01*
X170422305Y-104512025D01*
X170428216Y-104516409D01*
X170433670Y-104521352D01*
X170539736Y-104627418D01*
X170544679Y-104632872D01*
X170549063Y-104638783D01*
X170552847Y-104645096D01*
X170555994Y-104651750D01*
X170558474Y-104658680D01*
X170560262Y-104665819D01*
X170561342Y-104673100D01*
X170561703Y-104680451D01*
X170561342Y-104687802D01*
X170560262Y-104695083D01*
X170558474Y-104702222D01*
X170555994Y-104709152D01*
X170552847Y-104715806D01*
X170549063Y-104722119D01*
X170544679Y-104728030D01*
X170539736Y-104733484D01*
X169602820Y-105670400D01*
X169597366Y-105675343D01*
X169591455Y-105679727D01*
X169585142Y-105683511D01*
X169578488Y-105686658D01*
X169571558Y-105689138D01*
X169564419Y-105690926D01*
X169557138Y-105692006D01*
X169549787Y-105692367D01*
X169542436Y-105692006D01*
X169535155Y-105690926D01*
X169528016Y-105689138D01*
X169521086Y-105686658D01*
X169514432Y-105683511D01*
X169508119Y-105679727D01*
X169502208Y-105675343D01*
X169496754Y-105670400D01*
X169390688Y-105564334D01*
X169385745Y-105558880D01*
X169381361Y-105552969D01*
X169377577Y-105546656D01*
X169374430Y-105540002D01*
X169371950Y-105533072D01*
X169370162Y-105525933D01*
X169369082Y-105518652D01*
X169368721Y-105511301D01*
X169369082Y-105503950D01*
X169370162Y-105496669D01*
X169371950Y-105489530D01*
X169374430Y-105482600D01*
X169377577Y-105475946D01*
X169381361Y-105469633D01*
X169385745Y-105463722D01*
X169390688Y-105458268D01*
X170327604Y-104521352D01*
X170333058Y-104516409D01*
X170338969Y-104512025D01*
X170345282Y-104508241D01*
X170351936Y-104505094D01*
X170358866Y-104502614D01*
X170366005Y-104500826D01*
X170373286Y-104499746D01*
X170380637Y-104499385D01*
X170387988Y-104499746D01*
G37*
G36*
X170034434Y-104146192D02*
G01*
X170041715Y-104147272D01*
X170048854Y-104149060D01*
X170055784Y-104151540D01*
X170062438Y-104154687D01*
X170068751Y-104158471D01*
X170074662Y-104162855D01*
X170080116Y-104167798D01*
X170186182Y-104273864D01*
X170191125Y-104279318D01*
X170195509Y-104285229D01*
X170199293Y-104291542D01*
X170202440Y-104298196D01*
X170204920Y-104305126D01*
X170206708Y-104312265D01*
X170207788Y-104319546D01*
X170208149Y-104326897D01*
X170207788Y-104334248D01*
X170206708Y-104341529D01*
X170204920Y-104348668D01*
X170202440Y-104355598D01*
X170199293Y-104362252D01*
X170195509Y-104368565D01*
X170191125Y-104374476D01*
X170186182Y-104379930D01*
X169249266Y-105316846D01*
X169243812Y-105321789D01*
X169237901Y-105326173D01*
X169231588Y-105329957D01*
X169224934Y-105333104D01*
X169218004Y-105335584D01*
X169210865Y-105337372D01*
X169203584Y-105338452D01*
X169196233Y-105338813D01*
X169188882Y-105338452D01*
X169181601Y-105337372D01*
X169174462Y-105335584D01*
X169167532Y-105333104D01*
X169160878Y-105329957D01*
X169154565Y-105326173D01*
X169148654Y-105321789D01*
X169143200Y-105316846D01*
X169037134Y-105210780D01*
X169032191Y-105205326D01*
X169027807Y-105199415D01*
X169024023Y-105193102D01*
X169020876Y-105186448D01*
X169018396Y-105179518D01*
X169016608Y-105172379D01*
X169015528Y-105165098D01*
X169015167Y-105157747D01*
X169015528Y-105150396D01*
X169016608Y-105143115D01*
X169018396Y-105135976D01*
X169020876Y-105129046D01*
X169024023Y-105122392D01*
X169027807Y-105116079D01*
X169032191Y-105110168D01*
X169037134Y-105104714D01*
X169974050Y-104167798D01*
X169979504Y-104162855D01*
X169985415Y-104158471D01*
X169991728Y-104154687D01*
X169998382Y-104151540D01*
X170005312Y-104149060D01*
X170012451Y-104147272D01*
X170019732Y-104146192D01*
X170027083Y-104145831D01*
X170034434Y-104146192D01*
G37*
G36*
X169680881Y-103792639D02*
G01*
X169688162Y-103793719D01*
X169695301Y-103795507D01*
X169702231Y-103797987D01*
X169708885Y-103801134D01*
X169715198Y-103804918D01*
X169721109Y-103809302D01*
X169726563Y-103814245D01*
X169832629Y-103920311D01*
X169837572Y-103925765D01*
X169841956Y-103931676D01*
X169845740Y-103937989D01*
X169848887Y-103944643D01*
X169851367Y-103951573D01*
X169853155Y-103958712D01*
X169854235Y-103965993D01*
X169854596Y-103973344D01*
X169854235Y-103980695D01*
X169853155Y-103987976D01*
X169851367Y-103995115D01*
X169848887Y-104002045D01*
X169845740Y-104008699D01*
X169841956Y-104015012D01*
X169837572Y-104020923D01*
X169832629Y-104026377D01*
X168895713Y-104963293D01*
X168890259Y-104968236D01*
X168884348Y-104972620D01*
X168878035Y-104976404D01*
X168871381Y-104979551D01*
X168864451Y-104982031D01*
X168857312Y-104983819D01*
X168850031Y-104984899D01*
X168842680Y-104985260D01*
X168835329Y-104984899D01*
X168828048Y-104983819D01*
X168820909Y-104982031D01*
X168813979Y-104979551D01*
X168807325Y-104976404D01*
X168801012Y-104972620D01*
X168795101Y-104968236D01*
X168789647Y-104963293D01*
X168683581Y-104857227D01*
X168678638Y-104851773D01*
X168674254Y-104845862D01*
X168670470Y-104839549D01*
X168667323Y-104832895D01*
X168664843Y-104825965D01*
X168663055Y-104818826D01*
X168661975Y-104811545D01*
X168661614Y-104804194D01*
X168661975Y-104796843D01*
X168663055Y-104789562D01*
X168664843Y-104782423D01*
X168667323Y-104775493D01*
X168670470Y-104768839D01*
X168674254Y-104762526D01*
X168678638Y-104756615D01*
X168683581Y-104751161D01*
X169620497Y-103814245D01*
X169625951Y-103809302D01*
X169631862Y-103804918D01*
X169638175Y-103801134D01*
X169644829Y-103797987D01*
X169651759Y-103795507D01*
X169658898Y-103793719D01*
X169666179Y-103792639D01*
X169673530Y-103792278D01*
X169680881Y-103792639D01*
G37*
G36*
X169327327Y-103439085D02*
G01*
X169334608Y-103440165D01*
X169341747Y-103441953D01*
X169348677Y-103444433D01*
X169355331Y-103447580D01*
X169361644Y-103451364D01*
X169367555Y-103455748D01*
X169373009Y-103460691D01*
X169479075Y-103566757D01*
X169484018Y-103572211D01*
X169488402Y-103578122D01*
X169492186Y-103584435D01*
X169495333Y-103591089D01*
X169497813Y-103598019D01*
X169499601Y-103605158D01*
X169500681Y-103612439D01*
X169501042Y-103619790D01*
X169500681Y-103627141D01*
X169499601Y-103634422D01*
X169497813Y-103641561D01*
X169495333Y-103648491D01*
X169492186Y-103655145D01*
X169488402Y-103661458D01*
X169484018Y-103667369D01*
X169479075Y-103672823D01*
X168542159Y-104609739D01*
X168536705Y-104614682D01*
X168530794Y-104619066D01*
X168524481Y-104622850D01*
X168517827Y-104625997D01*
X168510897Y-104628477D01*
X168503758Y-104630265D01*
X168496477Y-104631345D01*
X168489126Y-104631706D01*
X168481775Y-104631345D01*
X168474494Y-104630265D01*
X168467355Y-104628477D01*
X168460425Y-104625997D01*
X168453771Y-104622850D01*
X168447458Y-104619066D01*
X168441547Y-104614682D01*
X168436093Y-104609739D01*
X168330027Y-104503673D01*
X168325084Y-104498219D01*
X168320700Y-104492308D01*
X168316916Y-104485995D01*
X168313769Y-104479341D01*
X168311289Y-104472411D01*
X168309501Y-104465272D01*
X168308421Y-104457991D01*
X168308060Y-104450640D01*
X168308421Y-104443289D01*
X168309501Y-104436008D01*
X168311289Y-104428869D01*
X168313769Y-104421939D01*
X168316916Y-104415285D01*
X168320700Y-104408972D01*
X168325084Y-104403061D01*
X168330027Y-104397607D01*
X169266943Y-103460691D01*
X169272397Y-103455748D01*
X169278308Y-103451364D01*
X169284621Y-103447580D01*
X169291275Y-103444433D01*
X169298205Y-103441953D01*
X169305344Y-103440165D01*
X169312625Y-103439085D01*
X169319976Y-103438724D01*
X169327327Y-103439085D01*
G37*
G36*
X168973774Y-103085532D02*
G01*
X168981055Y-103086612D01*
X168988194Y-103088400D01*
X168995124Y-103090880D01*
X169001778Y-103094027D01*
X169008091Y-103097811D01*
X169014002Y-103102195D01*
X169019456Y-103107138D01*
X169125522Y-103213204D01*
X169130465Y-103218658D01*
X169134849Y-103224569D01*
X169138633Y-103230882D01*
X169141780Y-103237536D01*
X169144260Y-103244466D01*
X169146048Y-103251605D01*
X169147128Y-103258886D01*
X169147489Y-103266237D01*
X169147128Y-103273588D01*
X169146048Y-103280869D01*
X169144260Y-103288008D01*
X169141780Y-103294938D01*
X169138633Y-103301592D01*
X169134849Y-103307905D01*
X169130465Y-103313816D01*
X169125522Y-103319270D01*
X168188606Y-104256186D01*
X168183152Y-104261129D01*
X168177241Y-104265513D01*
X168170928Y-104269297D01*
X168164274Y-104272444D01*
X168157344Y-104274924D01*
X168150205Y-104276712D01*
X168142924Y-104277792D01*
X168135573Y-104278153D01*
X168128222Y-104277792D01*
X168120941Y-104276712D01*
X168113802Y-104274924D01*
X168106872Y-104272444D01*
X168100218Y-104269297D01*
X168093905Y-104265513D01*
X168087994Y-104261129D01*
X168082540Y-104256186D01*
X167976474Y-104150120D01*
X167971531Y-104144666D01*
X167967147Y-104138755D01*
X167963363Y-104132442D01*
X167960216Y-104125788D01*
X167957736Y-104118858D01*
X167955948Y-104111719D01*
X167954868Y-104104438D01*
X167954507Y-104097087D01*
X167954868Y-104089736D01*
X167955948Y-104082455D01*
X167957736Y-104075316D01*
X167960216Y-104068386D01*
X167963363Y-104061732D01*
X167967147Y-104055419D01*
X167971531Y-104049508D01*
X167976474Y-104044054D01*
X168913390Y-103107138D01*
X168918844Y-103102195D01*
X168924755Y-103097811D01*
X168931068Y-103094027D01*
X168937722Y-103090880D01*
X168944652Y-103088400D01*
X168951791Y-103086612D01*
X168959072Y-103085532D01*
X168966423Y-103085171D01*
X168973774Y-103085532D01*
G37*
G36*
X168620221Y-102731979D02*
G01*
X168627502Y-102733059D01*
X168634641Y-102734847D01*
X168641571Y-102737327D01*
X168648225Y-102740474D01*
X168654538Y-102744258D01*
X168660449Y-102748642D01*
X168665903Y-102753585D01*
X168771969Y-102859651D01*
X168776912Y-102865105D01*
X168781296Y-102871016D01*
X168785080Y-102877329D01*
X168788227Y-102883983D01*
X168790707Y-102890913D01*
X168792495Y-102898052D01*
X168793575Y-102905333D01*
X168793936Y-102912684D01*
X168793575Y-102920035D01*
X168792495Y-102927316D01*
X168790707Y-102934455D01*
X168788227Y-102941385D01*
X168785080Y-102948039D01*
X168781296Y-102954352D01*
X168776912Y-102960263D01*
X168771969Y-102965717D01*
X167835053Y-103902633D01*
X167829599Y-103907576D01*
X167823688Y-103911960D01*
X167817375Y-103915744D01*
X167810721Y-103918891D01*
X167803791Y-103921371D01*
X167796652Y-103923159D01*
X167789371Y-103924239D01*
X167782020Y-103924600D01*
X167774669Y-103924239D01*
X167767388Y-103923159D01*
X167760249Y-103921371D01*
X167753319Y-103918891D01*
X167746665Y-103915744D01*
X167740352Y-103911960D01*
X167734441Y-103907576D01*
X167728987Y-103902633D01*
X167622921Y-103796567D01*
X167617978Y-103791113D01*
X167613594Y-103785202D01*
X167609810Y-103778889D01*
X167606663Y-103772235D01*
X167604183Y-103765305D01*
X167602395Y-103758166D01*
X167601315Y-103750885D01*
X167600954Y-103743534D01*
X167601315Y-103736183D01*
X167602395Y-103728902D01*
X167604183Y-103721763D01*
X167606663Y-103714833D01*
X167609810Y-103708179D01*
X167613594Y-103701866D01*
X167617978Y-103695955D01*
X167622921Y-103690501D01*
X168559837Y-102753585D01*
X168565291Y-102748642D01*
X168571202Y-102744258D01*
X168577515Y-102740474D01*
X168584169Y-102737327D01*
X168591099Y-102734847D01*
X168598238Y-102733059D01*
X168605519Y-102731979D01*
X168612870Y-102731618D01*
X168620221Y-102731979D01*
G37*
G36*
X168266667Y-102378425D02*
G01*
X168273948Y-102379505D01*
X168281087Y-102381293D01*
X168288017Y-102383773D01*
X168294671Y-102386920D01*
X168300984Y-102390704D01*
X168306895Y-102395088D01*
X168312349Y-102400031D01*
X168418415Y-102506097D01*
X168423358Y-102511551D01*
X168427742Y-102517462D01*
X168431526Y-102523775D01*
X168434673Y-102530429D01*
X168437153Y-102537359D01*
X168438941Y-102544498D01*
X168440021Y-102551779D01*
X168440382Y-102559130D01*
X168440021Y-102566481D01*
X168438941Y-102573762D01*
X168437153Y-102580901D01*
X168434673Y-102587831D01*
X168431526Y-102594485D01*
X168427742Y-102600798D01*
X168423358Y-102606709D01*
X168418415Y-102612163D01*
X167481499Y-103549079D01*
X167476045Y-103554022D01*
X167470134Y-103558406D01*
X167463821Y-103562190D01*
X167457167Y-103565337D01*
X167450237Y-103567817D01*
X167443098Y-103569605D01*
X167435817Y-103570685D01*
X167428466Y-103571046D01*
X167421115Y-103570685D01*
X167413834Y-103569605D01*
X167406695Y-103567817D01*
X167399765Y-103565337D01*
X167393111Y-103562190D01*
X167386798Y-103558406D01*
X167380887Y-103554022D01*
X167375433Y-103549079D01*
X167269367Y-103443013D01*
X167264424Y-103437559D01*
X167260040Y-103431648D01*
X167256256Y-103425335D01*
X167253109Y-103418681D01*
X167250629Y-103411751D01*
X167248841Y-103404612D01*
X167247761Y-103397331D01*
X167247400Y-103389980D01*
X167247761Y-103382629D01*
X167248841Y-103375348D01*
X167250629Y-103368209D01*
X167253109Y-103361279D01*
X167256256Y-103354625D01*
X167260040Y-103348312D01*
X167264424Y-103342401D01*
X167269367Y-103336947D01*
X168206283Y-102400031D01*
X168211737Y-102395088D01*
X168217648Y-102390704D01*
X168223961Y-102386920D01*
X168230615Y-102383773D01*
X168237545Y-102381293D01*
X168244684Y-102379505D01*
X168251965Y-102378425D01*
X168259316Y-102378064D01*
X168266667Y-102378425D01*
G37*
G36*
X167913114Y-102024872D02*
G01*
X167920395Y-102025952D01*
X167927534Y-102027740D01*
X167934464Y-102030220D01*
X167941118Y-102033367D01*
X167947431Y-102037151D01*
X167953342Y-102041535D01*
X167958796Y-102046478D01*
X168064862Y-102152544D01*
X168069805Y-102157998D01*
X168074189Y-102163909D01*
X168077973Y-102170222D01*
X168081120Y-102176876D01*
X168083600Y-102183806D01*
X168085388Y-102190945D01*
X168086468Y-102198226D01*
X168086829Y-102205577D01*
X168086468Y-102212928D01*
X168085388Y-102220209D01*
X168083600Y-102227348D01*
X168081120Y-102234278D01*
X168077973Y-102240932D01*
X168074189Y-102247245D01*
X168069805Y-102253156D01*
X168064862Y-102258610D01*
X167127946Y-103195526D01*
X167122492Y-103200469D01*
X167116581Y-103204853D01*
X167110268Y-103208637D01*
X167103614Y-103211784D01*
X167096684Y-103214264D01*
X167089545Y-103216052D01*
X167082264Y-103217132D01*
X167074913Y-103217493D01*
X167067562Y-103217132D01*
X167060281Y-103216052D01*
X167053142Y-103214264D01*
X167046212Y-103211784D01*
X167039558Y-103208637D01*
X167033245Y-103204853D01*
X167027334Y-103200469D01*
X167021880Y-103195526D01*
X166915814Y-103089460D01*
X166910871Y-103084006D01*
X166906487Y-103078095D01*
X166902703Y-103071782D01*
X166899556Y-103065128D01*
X166897076Y-103058198D01*
X166895288Y-103051059D01*
X166894208Y-103043778D01*
X166893847Y-103036427D01*
X166894208Y-103029076D01*
X166895288Y-103021795D01*
X166897076Y-103014656D01*
X166899556Y-103007726D01*
X166902703Y-103001072D01*
X166906487Y-102994759D01*
X166910871Y-102988848D01*
X166915814Y-102983394D01*
X167852730Y-102046478D01*
X167858184Y-102041535D01*
X167864095Y-102037151D01*
X167870408Y-102033367D01*
X167877062Y-102030220D01*
X167883992Y-102027740D01*
X167891131Y-102025952D01*
X167898412Y-102024872D01*
X167905763Y-102024511D01*
X167913114Y-102024872D01*
G37*
G36*
X167559561Y-101671319D02*
G01*
X167566842Y-101672399D01*
X167573981Y-101674187D01*
X167580911Y-101676667D01*
X167587565Y-101679814D01*
X167593878Y-101683598D01*
X167599789Y-101687982D01*
X167605243Y-101692925D01*
X167711309Y-101798991D01*
X167716252Y-101804445D01*
X167720636Y-101810356D01*
X167724420Y-101816669D01*
X167727567Y-101823323D01*
X167730047Y-101830253D01*
X167731835Y-101837392D01*
X167732915Y-101844673D01*
X167733276Y-101852024D01*
X167732915Y-101859375D01*
X167731835Y-101866656D01*
X167730047Y-101873795D01*
X167727567Y-101880725D01*
X167724420Y-101887379D01*
X167720636Y-101893692D01*
X167716252Y-101899603D01*
X167711309Y-101905057D01*
X166774393Y-102841973D01*
X166768939Y-102846916D01*
X166763028Y-102851300D01*
X166756715Y-102855084D01*
X166750061Y-102858231D01*
X166743131Y-102860711D01*
X166735992Y-102862499D01*
X166728711Y-102863579D01*
X166721360Y-102863940D01*
X166714009Y-102863579D01*
X166706728Y-102862499D01*
X166699589Y-102860711D01*
X166692659Y-102858231D01*
X166686005Y-102855084D01*
X166679692Y-102851300D01*
X166673781Y-102846916D01*
X166668327Y-102841973D01*
X166562261Y-102735907D01*
X166557318Y-102730453D01*
X166552934Y-102724542D01*
X166549150Y-102718229D01*
X166546003Y-102711575D01*
X166543523Y-102704645D01*
X166541735Y-102697506D01*
X166540655Y-102690225D01*
X166540294Y-102682874D01*
X166540655Y-102675523D01*
X166541735Y-102668242D01*
X166543523Y-102661103D01*
X166546003Y-102654173D01*
X166549150Y-102647519D01*
X166552934Y-102641206D01*
X166557318Y-102635295D01*
X166562261Y-102629841D01*
X167499177Y-101692925D01*
X167504631Y-101687982D01*
X167510542Y-101683598D01*
X167516855Y-101679814D01*
X167523509Y-101676667D01*
X167530439Y-101674187D01*
X167537578Y-101672399D01*
X167544859Y-101671319D01*
X167552210Y-101670958D01*
X167559561Y-101671319D01*
G37*
G36*
X167206007Y-101317765D02*
G01*
X167213288Y-101318845D01*
X167220427Y-101320633D01*
X167227357Y-101323113D01*
X167234011Y-101326260D01*
X167240324Y-101330044D01*
X167246235Y-101334428D01*
X167251689Y-101339371D01*
X167357755Y-101445437D01*
X167362698Y-101450891D01*
X167367082Y-101456802D01*
X167370866Y-101463115D01*
X167374013Y-101469769D01*
X167376493Y-101476699D01*
X167378281Y-101483838D01*
X167379361Y-101491119D01*
X167379722Y-101498470D01*
X167379361Y-101505821D01*
X167378281Y-101513102D01*
X167376493Y-101520241D01*
X167374013Y-101527171D01*
X167370866Y-101533825D01*
X167367082Y-101540138D01*
X167362698Y-101546049D01*
X167357755Y-101551503D01*
X166420839Y-102488419D01*
X166415385Y-102493362D01*
X166409474Y-102497746D01*
X166403161Y-102501530D01*
X166396507Y-102504677D01*
X166389577Y-102507157D01*
X166382438Y-102508945D01*
X166375157Y-102510025D01*
X166367806Y-102510386D01*
X166360455Y-102510025D01*
X166353174Y-102508945D01*
X166346035Y-102507157D01*
X166339105Y-102504677D01*
X166332451Y-102501530D01*
X166326138Y-102497746D01*
X166320227Y-102493362D01*
X166314773Y-102488419D01*
X166208707Y-102382353D01*
X166203764Y-102376899D01*
X166199380Y-102370988D01*
X166195596Y-102364675D01*
X166192449Y-102358021D01*
X166189969Y-102351091D01*
X166188181Y-102343952D01*
X166187101Y-102336671D01*
X166186740Y-102329320D01*
X166187101Y-102321969D01*
X166188181Y-102314688D01*
X166189969Y-102307549D01*
X166192449Y-102300619D01*
X166195596Y-102293965D01*
X166199380Y-102287652D01*
X166203764Y-102281741D01*
X166208707Y-102276287D01*
X167145623Y-101339371D01*
X167151077Y-101334428D01*
X167156988Y-101330044D01*
X167163301Y-101326260D01*
X167169955Y-101323113D01*
X167176885Y-101320633D01*
X167184024Y-101318845D01*
X167191305Y-101317765D01*
X167198656Y-101317404D01*
X167206007Y-101317765D01*
G37*
G36*
X166852454Y-100964212D02*
G01*
X166859735Y-100965292D01*
X166866874Y-100967080D01*
X166873804Y-100969560D01*
X166880458Y-100972707D01*
X166886771Y-100976491D01*
X166892682Y-100980875D01*
X166898136Y-100985818D01*
X167004202Y-101091884D01*
X167009145Y-101097338D01*
X167013529Y-101103249D01*
X167017313Y-101109562D01*
X167020460Y-101116216D01*
X167022940Y-101123146D01*
X167024728Y-101130285D01*
X167025808Y-101137566D01*
X167026169Y-101144917D01*
X167025808Y-101152268D01*
X167024728Y-101159549D01*
X167022940Y-101166688D01*
X167020460Y-101173618D01*
X167017313Y-101180272D01*
X167013529Y-101186585D01*
X167009145Y-101192496D01*
X167004202Y-101197950D01*
X166067286Y-102134866D01*
X166061832Y-102139809D01*
X166055921Y-102144193D01*
X166049608Y-102147977D01*
X166042954Y-102151124D01*
X166036024Y-102153604D01*
X166028885Y-102155392D01*
X166021604Y-102156472D01*
X166014253Y-102156833D01*
X166006902Y-102156472D01*
X165999621Y-102155392D01*
X165992482Y-102153604D01*
X165985552Y-102151124D01*
X165978898Y-102147977D01*
X165972585Y-102144193D01*
X165966674Y-102139809D01*
X165961220Y-102134866D01*
X165855154Y-102028800D01*
X165850211Y-102023346D01*
X165845827Y-102017435D01*
X165842043Y-102011122D01*
X165838896Y-102004468D01*
X165836416Y-101997538D01*
X165834628Y-101990399D01*
X165833548Y-101983118D01*
X165833187Y-101975767D01*
X165833548Y-101968416D01*
X165834628Y-101961135D01*
X165836416Y-101953996D01*
X165838896Y-101947066D01*
X165842043Y-101940412D01*
X165845827Y-101934099D01*
X165850211Y-101928188D01*
X165855154Y-101922734D01*
X166792070Y-100985818D01*
X166797524Y-100980875D01*
X166803435Y-100976491D01*
X166809748Y-100972707D01*
X166816402Y-100969560D01*
X166823332Y-100967080D01*
X166830471Y-100965292D01*
X166837752Y-100964212D01*
X166845103Y-100963851D01*
X166852454Y-100964212D01*
G37*
G36*
X166498900Y-100610658D02*
G01*
X166506181Y-100611738D01*
X166513320Y-100613526D01*
X166520250Y-100616006D01*
X166526904Y-100619153D01*
X166533217Y-100622937D01*
X166539128Y-100627321D01*
X166544582Y-100632264D01*
X166650648Y-100738330D01*
X166655591Y-100743784D01*
X166659975Y-100749695D01*
X166663759Y-100756008D01*
X166666906Y-100762662D01*
X166669386Y-100769592D01*
X166671174Y-100776731D01*
X166672254Y-100784012D01*
X166672615Y-100791363D01*
X166672254Y-100798714D01*
X166671174Y-100805995D01*
X166669386Y-100813134D01*
X166666906Y-100820064D01*
X166663759Y-100826718D01*
X166659975Y-100833031D01*
X166655591Y-100838942D01*
X166650648Y-100844396D01*
X165713732Y-101781312D01*
X165708278Y-101786255D01*
X165702367Y-101790639D01*
X165696054Y-101794423D01*
X165689400Y-101797570D01*
X165682470Y-101800050D01*
X165675331Y-101801838D01*
X165668050Y-101802918D01*
X165660699Y-101803279D01*
X165653348Y-101802918D01*
X165646067Y-101801838D01*
X165638928Y-101800050D01*
X165631998Y-101797570D01*
X165625344Y-101794423D01*
X165619031Y-101790639D01*
X165613120Y-101786255D01*
X165607666Y-101781312D01*
X165501600Y-101675246D01*
X165496657Y-101669792D01*
X165492273Y-101663881D01*
X165488489Y-101657568D01*
X165485342Y-101650914D01*
X165482862Y-101643984D01*
X165481074Y-101636845D01*
X165479994Y-101629564D01*
X165479633Y-101622213D01*
X165479994Y-101614862D01*
X165481074Y-101607581D01*
X165482862Y-101600442D01*
X165485342Y-101593512D01*
X165488489Y-101586858D01*
X165492273Y-101580545D01*
X165496657Y-101574634D01*
X165501600Y-101569180D01*
X166438516Y-100632264D01*
X166443970Y-100627321D01*
X166449881Y-100622937D01*
X166456194Y-100619153D01*
X166462848Y-100616006D01*
X166469778Y-100613526D01*
X166476917Y-100611738D01*
X166484198Y-100610658D01*
X166491549Y-100610297D01*
X166498900Y-100610658D01*
G37*
G36*
X165668050Y-98613082D02*
G01*
X165675331Y-98614162D01*
X165682470Y-98615950D01*
X165689400Y-98618430D01*
X165696054Y-98621577D01*
X165702367Y-98625361D01*
X165708278Y-98629745D01*
X165713732Y-98634688D01*
X166650648Y-99571604D01*
X166655591Y-99577058D01*
X166659975Y-99582969D01*
X166663759Y-99589282D01*
X166666906Y-99595936D01*
X166669386Y-99602866D01*
X166671174Y-99610005D01*
X166672254Y-99617286D01*
X166672615Y-99624637D01*
X166672254Y-99631988D01*
X166671174Y-99639269D01*
X166669386Y-99646408D01*
X166666906Y-99653338D01*
X166663759Y-99659992D01*
X166659975Y-99666305D01*
X166655591Y-99672216D01*
X166650648Y-99677670D01*
X166544582Y-99783736D01*
X166539128Y-99788679D01*
X166533217Y-99793063D01*
X166526904Y-99796847D01*
X166520250Y-99799994D01*
X166513320Y-99802474D01*
X166506181Y-99804262D01*
X166498900Y-99805342D01*
X166491549Y-99805703D01*
X166484198Y-99805342D01*
X166476917Y-99804262D01*
X166469778Y-99802474D01*
X166462848Y-99799994D01*
X166456194Y-99796847D01*
X166449881Y-99793063D01*
X166443970Y-99788679D01*
X166438516Y-99783736D01*
X165501600Y-98846820D01*
X165496657Y-98841366D01*
X165492273Y-98835455D01*
X165488489Y-98829142D01*
X165485342Y-98822488D01*
X165482862Y-98815558D01*
X165481074Y-98808419D01*
X165479994Y-98801138D01*
X165479633Y-98793787D01*
X165479994Y-98786436D01*
X165481074Y-98779155D01*
X165482862Y-98772016D01*
X165485342Y-98765086D01*
X165488489Y-98758432D01*
X165492273Y-98752119D01*
X165496657Y-98746208D01*
X165501600Y-98740754D01*
X165607666Y-98634688D01*
X165613120Y-98629745D01*
X165619031Y-98625361D01*
X165625344Y-98621577D01*
X165631998Y-98618430D01*
X165638928Y-98615950D01*
X165646067Y-98614162D01*
X165653348Y-98613082D01*
X165660699Y-98612721D01*
X165668050Y-98613082D01*
G37*
G36*
X166021604Y-98259528D02*
G01*
X166028885Y-98260608D01*
X166036024Y-98262396D01*
X166042954Y-98264876D01*
X166049608Y-98268023D01*
X166055921Y-98271807D01*
X166061832Y-98276191D01*
X166067286Y-98281134D01*
X167004202Y-99218050D01*
X167009145Y-99223504D01*
X167013529Y-99229415D01*
X167017313Y-99235728D01*
X167020460Y-99242382D01*
X167022940Y-99249312D01*
X167024728Y-99256451D01*
X167025808Y-99263732D01*
X167026169Y-99271083D01*
X167025808Y-99278434D01*
X167024728Y-99285715D01*
X167022940Y-99292854D01*
X167020460Y-99299784D01*
X167017313Y-99306438D01*
X167013529Y-99312751D01*
X167009145Y-99318662D01*
X167004202Y-99324116D01*
X166898136Y-99430182D01*
X166892682Y-99435125D01*
X166886771Y-99439509D01*
X166880458Y-99443293D01*
X166873804Y-99446440D01*
X166866874Y-99448920D01*
X166859735Y-99450708D01*
X166852454Y-99451788D01*
X166845103Y-99452149D01*
X166837752Y-99451788D01*
X166830471Y-99450708D01*
X166823332Y-99448920D01*
X166816402Y-99446440D01*
X166809748Y-99443293D01*
X166803435Y-99439509D01*
X166797524Y-99435125D01*
X166792070Y-99430182D01*
X165855154Y-98493266D01*
X165850211Y-98487812D01*
X165845827Y-98481901D01*
X165842043Y-98475588D01*
X165838896Y-98468934D01*
X165836416Y-98462004D01*
X165834628Y-98454865D01*
X165833548Y-98447584D01*
X165833187Y-98440233D01*
X165833548Y-98432882D01*
X165834628Y-98425601D01*
X165836416Y-98418462D01*
X165838896Y-98411532D01*
X165842043Y-98404878D01*
X165845827Y-98398565D01*
X165850211Y-98392654D01*
X165855154Y-98387200D01*
X165961220Y-98281134D01*
X165966674Y-98276191D01*
X165972585Y-98271807D01*
X165978898Y-98268023D01*
X165985552Y-98264876D01*
X165992482Y-98262396D01*
X165999621Y-98260608D01*
X166006902Y-98259528D01*
X166014253Y-98259167D01*
X166021604Y-98259528D01*
G37*
G36*
X166375157Y-97905975D02*
G01*
X166382438Y-97907055D01*
X166389577Y-97908843D01*
X166396507Y-97911323D01*
X166403161Y-97914470D01*
X166409474Y-97918254D01*
X166415385Y-97922638D01*
X166420839Y-97927581D01*
X167357755Y-98864497D01*
X167362698Y-98869951D01*
X167367082Y-98875862D01*
X167370866Y-98882175D01*
X167374013Y-98888829D01*
X167376493Y-98895759D01*
X167378281Y-98902898D01*
X167379361Y-98910179D01*
X167379722Y-98917530D01*
X167379361Y-98924881D01*
X167378281Y-98932162D01*
X167376493Y-98939301D01*
X167374013Y-98946231D01*
X167370866Y-98952885D01*
X167367082Y-98959198D01*
X167362698Y-98965109D01*
X167357755Y-98970563D01*
X167251689Y-99076629D01*
X167246235Y-99081572D01*
X167240324Y-99085956D01*
X167234011Y-99089740D01*
X167227357Y-99092887D01*
X167220427Y-99095367D01*
X167213288Y-99097155D01*
X167206007Y-99098235D01*
X167198656Y-99098596D01*
X167191305Y-99098235D01*
X167184024Y-99097155D01*
X167176885Y-99095367D01*
X167169955Y-99092887D01*
X167163301Y-99089740D01*
X167156988Y-99085956D01*
X167151077Y-99081572D01*
X167145623Y-99076629D01*
X166208707Y-98139713D01*
X166203764Y-98134259D01*
X166199380Y-98128348D01*
X166195596Y-98122035D01*
X166192449Y-98115381D01*
X166189969Y-98108451D01*
X166188181Y-98101312D01*
X166187101Y-98094031D01*
X166186740Y-98086680D01*
X166187101Y-98079329D01*
X166188181Y-98072048D01*
X166189969Y-98064909D01*
X166192449Y-98057979D01*
X166195596Y-98051325D01*
X166199380Y-98045012D01*
X166203764Y-98039101D01*
X166208707Y-98033647D01*
X166314773Y-97927581D01*
X166320227Y-97922638D01*
X166326138Y-97918254D01*
X166332451Y-97914470D01*
X166339105Y-97911323D01*
X166346035Y-97908843D01*
X166353174Y-97907055D01*
X166360455Y-97905975D01*
X166367806Y-97905614D01*
X166375157Y-97905975D01*
G37*
G36*
X166728711Y-97552421D02*
G01*
X166735992Y-97553501D01*
X166743131Y-97555289D01*
X166750061Y-97557769D01*
X166756715Y-97560916D01*
X166763028Y-97564700D01*
X166768939Y-97569084D01*
X166774393Y-97574027D01*
X167711309Y-98510943D01*
X167716252Y-98516397D01*
X167720636Y-98522308D01*
X167724420Y-98528621D01*
X167727567Y-98535275D01*
X167730047Y-98542205D01*
X167731835Y-98549344D01*
X167732915Y-98556625D01*
X167733276Y-98563976D01*
X167732915Y-98571327D01*
X167731835Y-98578608D01*
X167730047Y-98585747D01*
X167727567Y-98592677D01*
X167724420Y-98599331D01*
X167720636Y-98605644D01*
X167716252Y-98611555D01*
X167711309Y-98617009D01*
X167605243Y-98723075D01*
X167599789Y-98728018D01*
X167593878Y-98732402D01*
X167587565Y-98736186D01*
X167580911Y-98739333D01*
X167573981Y-98741813D01*
X167566842Y-98743601D01*
X167559561Y-98744681D01*
X167552210Y-98745042D01*
X167544859Y-98744681D01*
X167537578Y-98743601D01*
X167530439Y-98741813D01*
X167523509Y-98739333D01*
X167516855Y-98736186D01*
X167510542Y-98732402D01*
X167504631Y-98728018D01*
X167499177Y-98723075D01*
X166562261Y-97786159D01*
X166557318Y-97780705D01*
X166552934Y-97774794D01*
X166549150Y-97768481D01*
X166546003Y-97761827D01*
X166543523Y-97754897D01*
X166541735Y-97747758D01*
X166540655Y-97740477D01*
X166540294Y-97733126D01*
X166540655Y-97725775D01*
X166541735Y-97718494D01*
X166543523Y-97711355D01*
X166546003Y-97704425D01*
X166549150Y-97697771D01*
X166552934Y-97691458D01*
X166557318Y-97685547D01*
X166562261Y-97680093D01*
X166668327Y-97574027D01*
X166673781Y-97569084D01*
X166679692Y-97564700D01*
X166686005Y-97560916D01*
X166692659Y-97557769D01*
X166699589Y-97555289D01*
X166706728Y-97553501D01*
X166714009Y-97552421D01*
X166721360Y-97552060D01*
X166728711Y-97552421D01*
G37*
G36*
X167082264Y-97198868D02*
G01*
X167089545Y-97199948D01*
X167096684Y-97201736D01*
X167103614Y-97204216D01*
X167110268Y-97207363D01*
X167116581Y-97211147D01*
X167122492Y-97215531D01*
X167127946Y-97220474D01*
X168064862Y-98157390D01*
X168069805Y-98162844D01*
X168074189Y-98168755D01*
X168077973Y-98175068D01*
X168081120Y-98181722D01*
X168083600Y-98188652D01*
X168085388Y-98195791D01*
X168086468Y-98203072D01*
X168086829Y-98210423D01*
X168086468Y-98217774D01*
X168085388Y-98225055D01*
X168083600Y-98232194D01*
X168081120Y-98239124D01*
X168077973Y-98245778D01*
X168074189Y-98252091D01*
X168069805Y-98258002D01*
X168064862Y-98263456D01*
X167958796Y-98369522D01*
X167953342Y-98374465D01*
X167947431Y-98378849D01*
X167941118Y-98382633D01*
X167934464Y-98385780D01*
X167927534Y-98388260D01*
X167920395Y-98390048D01*
X167913114Y-98391128D01*
X167905763Y-98391489D01*
X167898412Y-98391128D01*
X167891131Y-98390048D01*
X167883992Y-98388260D01*
X167877062Y-98385780D01*
X167870408Y-98382633D01*
X167864095Y-98378849D01*
X167858184Y-98374465D01*
X167852730Y-98369522D01*
X166915814Y-97432606D01*
X166910871Y-97427152D01*
X166906487Y-97421241D01*
X166902703Y-97414928D01*
X166899556Y-97408274D01*
X166897076Y-97401344D01*
X166895288Y-97394205D01*
X166894208Y-97386924D01*
X166893847Y-97379573D01*
X166894208Y-97372222D01*
X166895288Y-97364941D01*
X166897076Y-97357802D01*
X166899556Y-97350872D01*
X166902703Y-97344218D01*
X166906487Y-97337905D01*
X166910871Y-97331994D01*
X166915814Y-97326540D01*
X167021880Y-97220474D01*
X167027334Y-97215531D01*
X167033245Y-97211147D01*
X167039558Y-97207363D01*
X167046212Y-97204216D01*
X167053142Y-97201736D01*
X167060281Y-97199948D01*
X167067562Y-97198868D01*
X167074913Y-97198507D01*
X167082264Y-97198868D01*
G37*
G36*
X167435817Y-96845315D02*
G01*
X167443098Y-96846395D01*
X167450237Y-96848183D01*
X167457167Y-96850663D01*
X167463821Y-96853810D01*
X167470134Y-96857594D01*
X167476045Y-96861978D01*
X167481499Y-96866921D01*
X168418415Y-97803837D01*
X168423358Y-97809291D01*
X168427742Y-97815202D01*
X168431526Y-97821515D01*
X168434673Y-97828169D01*
X168437153Y-97835099D01*
X168438941Y-97842238D01*
X168440021Y-97849519D01*
X168440382Y-97856870D01*
X168440021Y-97864221D01*
X168438941Y-97871502D01*
X168437153Y-97878641D01*
X168434673Y-97885571D01*
X168431526Y-97892225D01*
X168427742Y-97898538D01*
X168423358Y-97904449D01*
X168418415Y-97909903D01*
X168312349Y-98015969D01*
X168306895Y-98020912D01*
X168300984Y-98025296D01*
X168294671Y-98029080D01*
X168288017Y-98032227D01*
X168281087Y-98034707D01*
X168273948Y-98036495D01*
X168266667Y-98037575D01*
X168259316Y-98037936D01*
X168251965Y-98037575D01*
X168244684Y-98036495D01*
X168237545Y-98034707D01*
X168230615Y-98032227D01*
X168223961Y-98029080D01*
X168217648Y-98025296D01*
X168211737Y-98020912D01*
X168206283Y-98015969D01*
X167269367Y-97079053D01*
X167264424Y-97073599D01*
X167260040Y-97067688D01*
X167256256Y-97061375D01*
X167253109Y-97054721D01*
X167250629Y-97047791D01*
X167248841Y-97040652D01*
X167247761Y-97033371D01*
X167247400Y-97026020D01*
X167247761Y-97018669D01*
X167248841Y-97011388D01*
X167250629Y-97004249D01*
X167253109Y-96997319D01*
X167256256Y-96990665D01*
X167260040Y-96984352D01*
X167264424Y-96978441D01*
X167269367Y-96972987D01*
X167375433Y-96866921D01*
X167380887Y-96861978D01*
X167386798Y-96857594D01*
X167393111Y-96853810D01*
X167399765Y-96850663D01*
X167406695Y-96848183D01*
X167413834Y-96846395D01*
X167421115Y-96845315D01*
X167428466Y-96844954D01*
X167435817Y-96845315D01*
G37*
G36*
X167789371Y-96491761D02*
G01*
X167796652Y-96492841D01*
X167803791Y-96494629D01*
X167810721Y-96497109D01*
X167817375Y-96500256D01*
X167823688Y-96504040D01*
X167829599Y-96508424D01*
X167835053Y-96513367D01*
X168771969Y-97450283D01*
X168776912Y-97455737D01*
X168781296Y-97461648D01*
X168785080Y-97467961D01*
X168788227Y-97474615D01*
X168790707Y-97481545D01*
X168792495Y-97488684D01*
X168793575Y-97495965D01*
X168793936Y-97503316D01*
X168793575Y-97510667D01*
X168792495Y-97517948D01*
X168790707Y-97525087D01*
X168788227Y-97532017D01*
X168785080Y-97538671D01*
X168781296Y-97544984D01*
X168776912Y-97550895D01*
X168771969Y-97556349D01*
X168665903Y-97662415D01*
X168660449Y-97667358D01*
X168654538Y-97671742D01*
X168648225Y-97675526D01*
X168641571Y-97678673D01*
X168634641Y-97681153D01*
X168627502Y-97682941D01*
X168620221Y-97684021D01*
X168612870Y-97684382D01*
X168605519Y-97684021D01*
X168598238Y-97682941D01*
X168591099Y-97681153D01*
X168584169Y-97678673D01*
X168577515Y-97675526D01*
X168571202Y-97671742D01*
X168565291Y-97667358D01*
X168559837Y-97662415D01*
X167622921Y-96725499D01*
X167617978Y-96720045D01*
X167613594Y-96714134D01*
X167609810Y-96707821D01*
X167606663Y-96701167D01*
X167604183Y-96694237D01*
X167602395Y-96687098D01*
X167601315Y-96679817D01*
X167600954Y-96672466D01*
X167601315Y-96665115D01*
X167602395Y-96657834D01*
X167604183Y-96650695D01*
X167606663Y-96643765D01*
X167609810Y-96637111D01*
X167613594Y-96630798D01*
X167617978Y-96624887D01*
X167622921Y-96619433D01*
X167728987Y-96513367D01*
X167734441Y-96508424D01*
X167740352Y-96504040D01*
X167746665Y-96500256D01*
X167753319Y-96497109D01*
X167760249Y-96494629D01*
X167767388Y-96492841D01*
X167774669Y-96491761D01*
X167782020Y-96491400D01*
X167789371Y-96491761D01*
G37*
G36*
X168142924Y-96138208D02*
G01*
X168150205Y-96139288D01*
X168157344Y-96141076D01*
X168164274Y-96143556D01*
X168170928Y-96146703D01*
X168177241Y-96150487D01*
X168183152Y-96154871D01*
X168188606Y-96159814D01*
X169125522Y-97096730D01*
X169130465Y-97102184D01*
X169134849Y-97108095D01*
X169138633Y-97114408D01*
X169141780Y-97121062D01*
X169144260Y-97127992D01*
X169146048Y-97135131D01*
X169147128Y-97142412D01*
X169147489Y-97149763D01*
X169147128Y-97157114D01*
X169146048Y-97164395D01*
X169144260Y-97171534D01*
X169141780Y-97178464D01*
X169138633Y-97185118D01*
X169134849Y-97191431D01*
X169130465Y-97197342D01*
X169125522Y-97202796D01*
X169019456Y-97308862D01*
X169014002Y-97313805D01*
X169008091Y-97318189D01*
X169001778Y-97321973D01*
X168995124Y-97325120D01*
X168988194Y-97327600D01*
X168981055Y-97329388D01*
X168973774Y-97330468D01*
X168966423Y-97330829D01*
X168959072Y-97330468D01*
X168951791Y-97329388D01*
X168944652Y-97327600D01*
X168937722Y-97325120D01*
X168931068Y-97321973D01*
X168924755Y-97318189D01*
X168918844Y-97313805D01*
X168913390Y-97308862D01*
X167976474Y-96371946D01*
X167971531Y-96366492D01*
X167967147Y-96360581D01*
X167963363Y-96354268D01*
X167960216Y-96347614D01*
X167957736Y-96340684D01*
X167955948Y-96333545D01*
X167954868Y-96326264D01*
X167954507Y-96318913D01*
X167954868Y-96311562D01*
X167955948Y-96304281D01*
X167957736Y-96297142D01*
X167960216Y-96290212D01*
X167963363Y-96283558D01*
X167967147Y-96277245D01*
X167971531Y-96271334D01*
X167976474Y-96265880D01*
X168082540Y-96159814D01*
X168087994Y-96154871D01*
X168093905Y-96150487D01*
X168100218Y-96146703D01*
X168106872Y-96143556D01*
X168113802Y-96141076D01*
X168120941Y-96139288D01*
X168128222Y-96138208D01*
X168135573Y-96137847D01*
X168142924Y-96138208D01*
G37*
G36*
X168496477Y-95784655D02*
G01*
X168503758Y-95785735D01*
X168510897Y-95787523D01*
X168517827Y-95790003D01*
X168524481Y-95793150D01*
X168530794Y-95796934D01*
X168536705Y-95801318D01*
X168542159Y-95806261D01*
X169479075Y-96743177D01*
X169484018Y-96748631D01*
X169488402Y-96754542D01*
X169492186Y-96760855D01*
X169495333Y-96767509D01*
X169497813Y-96774439D01*
X169499601Y-96781578D01*
X169500681Y-96788859D01*
X169501042Y-96796210D01*
X169500681Y-96803561D01*
X169499601Y-96810842D01*
X169497813Y-96817981D01*
X169495333Y-96824911D01*
X169492186Y-96831565D01*
X169488402Y-96837878D01*
X169484018Y-96843789D01*
X169479075Y-96849243D01*
X169373009Y-96955309D01*
X169367555Y-96960252D01*
X169361644Y-96964636D01*
X169355331Y-96968420D01*
X169348677Y-96971567D01*
X169341747Y-96974047D01*
X169334608Y-96975835D01*
X169327327Y-96976915D01*
X169319976Y-96977276D01*
X169312625Y-96976915D01*
X169305344Y-96975835D01*
X169298205Y-96974047D01*
X169291275Y-96971567D01*
X169284621Y-96968420D01*
X169278308Y-96964636D01*
X169272397Y-96960252D01*
X169266943Y-96955309D01*
X168330027Y-96018393D01*
X168325084Y-96012939D01*
X168320700Y-96007028D01*
X168316916Y-96000715D01*
X168313769Y-95994061D01*
X168311289Y-95987131D01*
X168309501Y-95979992D01*
X168308421Y-95972711D01*
X168308060Y-95965360D01*
X168308421Y-95958009D01*
X168309501Y-95950728D01*
X168311289Y-95943589D01*
X168313769Y-95936659D01*
X168316916Y-95930005D01*
X168320700Y-95923692D01*
X168325084Y-95917781D01*
X168330027Y-95912327D01*
X168436093Y-95806261D01*
X168441547Y-95801318D01*
X168447458Y-95796934D01*
X168453771Y-95793150D01*
X168460425Y-95790003D01*
X168467355Y-95787523D01*
X168474494Y-95785735D01*
X168481775Y-95784655D01*
X168489126Y-95784294D01*
X168496477Y-95784655D01*
G37*
G36*
X168850031Y-95431101D02*
G01*
X168857312Y-95432181D01*
X168864451Y-95433969D01*
X168871381Y-95436449D01*
X168878035Y-95439596D01*
X168884348Y-95443380D01*
X168890259Y-95447764D01*
X168895713Y-95452707D01*
X169832629Y-96389623D01*
X169837572Y-96395077D01*
X169841956Y-96400988D01*
X169845740Y-96407301D01*
X169848887Y-96413955D01*
X169851367Y-96420885D01*
X169853155Y-96428024D01*
X169854235Y-96435305D01*
X169854596Y-96442656D01*
X169854235Y-96450007D01*
X169853155Y-96457288D01*
X169851367Y-96464427D01*
X169848887Y-96471357D01*
X169845740Y-96478011D01*
X169841956Y-96484324D01*
X169837572Y-96490235D01*
X169832629Y-96495689D01*
X169726563Y-96601755D01*
X169721109Y-96606698D01*
X169715198Y-96611082D01*
X169708885Y-96614866D01*
X169702231Y-96618013D01*
X169695301Y-96620493D01*
X169688162Y-96622281D01*
X169680881Y-96623361D01*
X169673530Y-96623722D01*
X169666179Y-96623361D01*
X169658898Y-96622281D01*
X169651759Y-96620493D01*
X169644829Y-96618013D01*
X169638175Y-96614866D01*
X169631862Y-96611082D01*
X169625951Y-96606698D01*
X169620497Y-96601755D01*
X168683581Y-95664839D01*
X168678638Y-95659385D01*
X168674254Y-95653474D01*
X168670470Y-95647161D01*
X168667323Y-95640507D01*
X168664843Y-95633577D01*
X168663055Y-95626438D01*
X168661975Y-95619157D01*
X168661614Y-95611806D01*
X168661975Y-95604455D01*
X168663055Y-95597174D01*
X168664843Y-95590035D01*
X168667323Y-95583105D01*
X168670470Y-95576451D01*
X168674254Y-95570138D01*
X168678638Y-95564227D01*
X168683581Y-95558773D01*
X168789647Y-95452707D01*
X168795101Y-95447764D01*
X168801012Y-95443380D01*
X168807325Y-95439596D01*
X168813979Y-95436449D01*
X168820909Y-95433969D01*
X168828048Y-95432181D01*
X168835329Y-95431101D01*
X168842680Y-95430740D01*
X168850031Y-95431101D01*
G37*
G36*
X169203584Y-95077548D02*
G01*
X169210865Y-95078628D01*
X169218004Y-95080416D01*
X169224934Y-95082896D01*
X169231588Y-95086043D01*
X169237901Y-95089827D01*
X169243812Y-95094211D01*
X169249266Y-95099154D01*
X170186182Y-96036070D01*
X170191125Y-96041524D01*
X170195509Y-96047435D01*
X170199293Y-96053748D01*
X170202440Y-96060402D01*
X170204920Y-96067332D01*
X170206708Y-96074471D01*
X170207788Y-96081752D01*
X170208149Y-96089103D01*
X170207788Y-96096454D01*
X170206708Y-96103735D01*
X170204920Y-96110874D01*
X170202440Y-96117804D01*
X170199293Y-96124458D01*
X170195509Y-96130771D01*
X170191125Y-96136682D01*
X170186182Y-96142136D01*
X170080116Y-96248202D01*
X170074662Y-96253145D01*
X170068751Y-96257529D01*
X170062438Y-96261313D01*
X170055784Y-96264460D01*
X170048854Y-96266940D01*
X170041715Y-96268728D01*
X170034434Y-96269808D01*
X170027083Y-96270169D01*
X170019732Y-96269808D01*
X170012451Y-96268728D01*
X170005312Y-96266940D01*
X169998382Y-96264460D01*
X169991728Y-96261313D01*
X169985415Y-96257529D01*
X169979504Y-96253145D01*
X169974050Y-96248202D01*
X169037134Y-95311286D01*
X169032191Y-95305832D01*
X169027807Y-95299921D01*
X169024023Y-95293608D01*
X169020876Y-95286954D01*
X169018396Y-95280024D01*
X169016608Y-95272885D01*
X169015528Y-95265604D01*
X169015167Y-95258253D01*
X169015528Y-95250902D01*
X169016608Y-95243621D01*
X169018396Y-95236482D01*
X169020876Y-95229552D01*
X169024023Y-95222898D01*
X169027807Y-95216585D01*
X169032191Y-95210674D01*
X169037134Y-95205220D01*
X169143200Y-95099154D01*
X169148654Y-95094211D01*
X169154565Y-95089827D01*
X169160878Y-95086043D01*
X169167532Y-95082896D01*
X169174462Y-95080416D01*
X169181601Y-95078628D01*
X169188882Y-95077548D01*
X169196233Y-95077187D01*
X169203584Y-95077548D01*
G37*
G36*
X169557138Y-94723994D02*
G01*
X169564419Y-94725074D01*
X169571558Y-94726862D01*
X169578488Y-94729342D01*
X169585142Y-94732489D01*
X169591455Y-94736273D01*
X169597366Y-94740657D01*
X169602820Y-94745600D01*
X170539736Y-95682516D01*
X170544679Y-95687970D01*
X170549063Y-95693881D01*
X170552847Y-95700194D01*
X170555994Y-95706848D01*
X170558474Y-95713778D01*
X170560262Y-95720917D01*
X170561342Y-95728198D01*
X170561703Y-95735549D01*
X170561342Y-95742900D01*
X170560262Y-95750181D01*
X170558474Y-95757320D01*
X170555994Y-95764250D01*
X170552847Y-95770904D01*
X170549063Y-95777217D01*
X170544679Y-95783128D01*
X170539736Y-95788582D01*
X170433670Y-95894648D01*
X170428216Y-95899591D01*
X170422305Y-95903975D01*
X170415992Y-95907759D01*
X170409338Y-95910906D01*
X170402408Y-95913386D01*
X170395269Y-95915174D01*
X170387988Y-95916254D01*
X170380637Y-95916615D01*
X170373286Y-95916254D01*
X170366005Y-95915174D01*
X170358866Y-95913386D01*
X170351936Y-95910906D01*
X170345282Y-95907759D01*
X170338969Y-95903975D01*
X170333058Y-95899591D01*
X170327604Y-95894648D01*
X169390688Y-94957732D01*
X169385745Y-94952278D01*
X169381361Y-94946367D01*
X169377577Y-94940054D01*
X169374430Y-94933400D01*
X169371950Y-94926470D01*
X169370162Y-94919331D01*
X169369082Y-94912050D01*
X169368721Y-94904699D01*
X169369082Y-94897348D01*
X169370162Y-94890067D01*
X169371950Y-94882928D01*
X169374430Y-94875998D01*
X169377577Y-94869344D01*
X169381361Y-94863031D01*
X169385745Y-94857120D01*
X169390688Y-94851666D01*
X169496754Y-94745600D01*
X169502208Y-94740657D01*
X169508119Y-94736273D01*
X169514432Y-94732489D01*
X169521086Y-94729342D01*
X169528016Y-94726862D01*
X169535155Y-94725074D01*
X169542436Y-94723994D01*
X169549787Y-94723633D01*
X169557138Y-94723994D01*
G37*
G36*
X172385564Y-94723994D02*
G01*
X172392845Y-94725074D01*
X172399984Y-94726862D01*
X172406914Y-94729342D01*
X172413568Y-94732489D01*
X172419881Y-94736273D01*
X172425792Y-94740657D01*
X172431246Y-94745600D01*
X172537312Y-94851666D01*
X172542255Y-94857120D01*
X172546639Y-94863031D01*
X172550423Y-94869344D01*
X172553570Y-94875998D01*
X172556050Y-94882928D01*
X172557838Y-94890067D01*
X172558918Y-94897348D01*
X172559279Y-94904699D01*
X172558918Y-94912050D01*
X172557838Y-94919331D01*
X172556050Y-94926470D01*
X172553570Y-94933400D01*
X172550423Y-94940054D01*
X172546639Y-94946367D01*
X172542255Y-94952278D01*
X172537312Y-94957732D01*
X171600396Y-95894648D01*
X171594942Y-95899591D01*
X171589031Y-95903975D01*
X171582718Y-95907759D01*
X171576064Y-95910906D01*
X171569134Y-95913386D01*
X171561995Y-95915174D01*
X171554714Y-95916254D01*
X171547363Y-95916615D01*
X171540012Y-95916254D01*
X171532731Y-95915174D01*
X171525592Y-95913386D01*
X171518662Y-95910906D01*
X171512008Y-95907759D01*
X171505695Y-95903975D01*
X171499784Y-95899591D01*
X171494330Y-95894648D01*
X171388264Y-95788582D01*
X171383321Y-95783128D01*
X171378937Y-95777217D01*
X171375153Y-95770904D01*
X171372006Y-95764250D01*
X171369526Y-95757320D01*
X171367738Y-95750181D01*
X171366658Y-95742900D01*
X171366297Y-95735549D01*
X171366658Y-95728198D01*
X171367738Y-95720917D01*
X171369526Y-95713778D01*
X171372006Y-95706848D01*
X171375153Y-95700194D01*
X171378937Y-95693881D01*
X171383321Y-95687970D01*
X171388264Y-95682516D01*
X172325180Y-94745600D01*
X172330634Y-94740657D01*
X172336545Y-94736273D01*
X172342858Y-94732489D01*
X172349512Y-94729342D01*
X172356442Y-94726862D01*
X172363581Y-94725074D01*
X172370862Y-94723994D01*
X172378213Y-94723633D01*
X172385564Y-94723994D01*
G37*
G36*
X172739118Y-95077548D02*
G01*
X172746399Y-95078628D01*
X172753538Y-95080416D01*
X172760468Y-95082896D01*
X172767122Y-95086043D01*
X172773435Y-95089827D01*
X172779346Y-95094211D01*
X172784800Y-95099154D01*
X172890866Y-95205220D01*
X172895809Y-95210674D01*
X172900193Y-95216585D01*
X172903977Y-95222898D01*
X172907124Y-95229552D01*
X172909604Y-95236482D01*
X172911392Y-95243621D01*
X172912472Y-95250902D01*
X172912833Y-95258253D01*
X172912472Y-95265604D01*
X172911392Y-95272885D01*
X172909604Y-95280024D01*
X172907124Y-95286954D01*
X172903977Y-95293608D01*
X172900193Y-95299921D01*
X172895809Y-95305832D01*
X172890866Y-95311286D01*
X171953950Y-96248202D01*
X171948496Y-96253145D01*
X171942585Y-96257529D01*
X171936272Y-96261313D01*
X171929618Y-96264460D01*
X171922688Y-96266940D01*
X171915549Y-96268728D01*
X171908268Y-96269808D01*
X171900917Y-96270169D01*
X171893566Y-96269808D01*
X171886285Y-96268728D01*
X171879146Y-96266940D01*
X171872216Y-96264460D01*
X171865562Y-96261313D01*
X171859249Y-96257529D01*
X171853338Y-96253145D01*
X171847884Y-96248202D01*
X171741818Y-96142136D01*
X171736875Y-96136682D01*
X171732491Y-96130771D01*
X171728707Y-96124458D01*
X171725560Y-96117804D01*
X171723080Y-96110874D01*
X171721292Y-96103735D01*
X171720212Y-96096454D01*
X171719851Y-96089103D01*
X171720212Y-96081752D01*
X171721292Y-96074471D01*
X171723080Y-96067332D01*
X171725560Y-96060402D01*
X171728707Y-96053748D01*
X171732491Y-96047435D01*
X171736875Y-96041524D01*
X171741818Y-96036070D01*
X172678734Y-95099154D01*
X172684188Y-95094211D01*
X172690099Y-95089827D01*
X172696412Y-95086043D01*
X172703066Y-95082896D01*
X172709996Y-95080416D01*
X172717135Y-95078628D01*
X172724416Y-95077548D01*
X172731767Y-95077187D01*
X172739118Y-95077548D01*
G37*
G36*
X173092671Y-95431101D02*
G01*
X173099952Y-95432181D01*
X173107091Y-95433969D01*
X173114021Y-95436449D01*
X173120675Y-95439596D01*
X173126988Y-95443380D01*
X173132899Y-95447764D01*
X173138353Y-95452707D01*
X173244419Y-95558773D01*
X173249362Y-95564227D01*
X173253746Y-95570138D01*
X173257530Y-95576451D01*
X173260677Y-95583105D01*
X173263157Y-95590035D01*
X173264945Y-95597174D01*
X173266025Y-95604455D01*
X173266386Y-95611806D01*
X173266025Y-95619157D01*
X173264945Y-95626438D01*
X173263157Y-95633577D01*
X173260677Y-95640507D01*
X173257530Y-95647161D01*
X173253746Y-95653474D01*
X173249362Y-95659385D01*
X173244419Y-95664839D01*
X172307503Y-96601755D01*
X172302049Y-96606698D01*
X172296138Y-96611082D01*
X172289825Y-96614866D01*
X172283171Y-96618013D01*
X172276241Y-96620493D01*
X172269102Y-96622281D01*
X172261821Y-96623361D01*
X172254470Y-96623722D01*
X172247119Y-96623361D01*
X172239838Y-96622281D01*
X172232699Y-96620493D01*
X172225769Y-96618013D01*
X172219115Y-96614866D01*
X172212802Y-96611082D01*
X172206891Y-96606698D01*
X172201437Y-96601755D01*
X172095371Y-96495689D01*
X172090428Y-96490235D01*
X172086044Y-96484324D01*
X172082260Y-96478011D01*
X172079113Y-96471357D01*
X172076633Y-96464427D01*
X172074845Y-96457288D01*
X172073765Y-96450007D01*
X172073404Y-96442656D01*
X172073765Y-96435305D01*
X172074845Y-96428024D01*
X172076633Y-96420885D01*
X172079113Y-96413955D01*
X172082260Y-96407301D01*
X172086044Y-96400988D01*
X172090428Y-96395077D01*
X172095371Y-96389623D01*
X173032287Y-95452707D01*
X173037741Y-95447764D01*
X173043652Y-95443380D01*
X173049965Y-95439596D01*
X173056619Y-95436449D01*
X173063549Y-95433969D01*
X173070688Y-95432181D01*
X173077969Y-95431101D01*
X173085320Y-95430740D01*
X173092671Y-95431101D01*
G37*
G36*
X173446225Y-95784655D02*
G01*
X173453506Y-95785735D01*
X173460645Y-95787523D01*
X173467575Y-95790003D01*
X173474229Y-95793150D01*
X173480542Y-95796934D01*
X173486453Y-95801318D01*
X173491907Y-95806261D01*
X173597973Y-95912327D01*
X173602916Y-95917781D01*
X173607300Y-95923692D01*
X173611084Y-95930005D01*
X173614231Y-95936659D01*
X173616711Y-95943589D01*
X173618499Y-95950728D01*
X173619579Y-95958009D01*
X173619940Y-95965360D01*
X173619579Y-95972711D01*
X173618499Y-95979992D01*
X173616711Y-95987131D01*
X173614231Y-95994061D01*
X173611084Y-96000715D01*
X173607300Y-96007028D01*
X173602916Y-96012939D01*
X173597973Y-96018393D01*
X172661057Y-96955309D01*
X172655603Y-96960252D01*
X172649692Y-96964636D01*
X172643379Y-96968420D01*
X172636725Y-96971567D01*
X172629795Y-96974047D01*
X172622656Y-96975835D01*
X172615375Y-96976915D01*
X172608024Y-96977276D01*
X172600673Y-96976915D01*
X172593392Y-96975835D01*
X172586253Y-96974047D01*
X172579323Y-96971567D01*
X172572669Y-96968420D01*
X172566356Y-96964636D01*
X172560445Y-96960252D01*
X172554991Y-96955309D01*
X172448925Y-96849243D01*
X172443982Y-96843789D01*
X172439598Y-96837878D01*
X172435814Y-96831565D01*
X172432667Y-96824911D01*
X172430187Y-96817981D01*
X172428399Y-96810842D01*
X172427319Y-96803561D01*
X172426958Y-96796210D01*
X172427319Y-96788859D01*
X172428399Y-96781578D01*
X172430187Y-96774439D01*
X172432667Y-96767509D01*
X172435814Y-96760855D01*
X172439598Y-96754542D01*
X172443982Y-96748631D01*
X172448925Y-96743177D01*
X173385841Y-95806261D01*
X173391295Y-95801318D01*
X173397206Y-95796934D01*
X173403519Y-95793150D01*
X173410173Y-95790003D01*
X173417103Y-95787523D01*
X173424242Y-95785735D01*
X173431523Y-95784655D01*
X173438874Y-95784294D01*
X173446225Y-95784655D01*
G37*
G36*
X173799778Y-96138208D02*
G01*
X173807059Y-96139288D01*
X173814198Y-96141076D01*
X173821128Y-96143556D01*
X173827782Y-96146703D01*
X173834095Y-96150487D01*
X173840006Y-96154871D01*
X173845460Y-96159814D01*
X173951526Y-96265880D01*
X173956469Y-96271334D01*
X173960853Y-96277245D01*
X173964637Y-96283558D01*
X173967784Y-96290212D01*
X173970264Y-96297142D01*
X173972052Y-96304281D01*
X173973132Y-96311562D01*
X173973493Y-96318913D01*
X173973132Y-96326264D01*
X173972052Y-96333545D01*
X173970264Y-96340684D01*
X173967784Y-96347614D01*
X173964637Y-96354268D01*
X173960853Y-96360581D01*
X173956469Y-96366492D01*
X173951526Y-96371946D01*
X173014610Y-97308862D01*
X173009156Y-97313805D01*
X173003245Y-97318189D01*
X172996932Y-97321973D01*
X172990278Y-97325120D01*
X172983348Y-97327600D01*
X172976209Y-97329388D01*
X172968928Y-97330468D01*
X172961577Y-97330829D01*
X172954226Y-97330468D01*
X172946945Y-97329388D01*
X172939806Y-97327600D01*
X172932876Y-97325120D01*
X172926222Y-97321973D01*
X172919909Y-97318189D01*
X172913998Y-97313805D01*
X172908544Y-97308862D01*
X172802478Y-97202796D01*
X172797535Y-97197342D01*
X172793151Y-97191431D01*
X172789367Y-97185118D01*
X172786220Y-97178464D01*
X172783740Y-97171534D01*
X172781952Y-97164395D01*
X172780872Y-97157114D01*
X172780511Y-97149763D01*
X172780872Y-97142412D01*
X172781952Y-97135131D01*
X172783740Y-97127992D01*
X172786220Y-97121062D01*
X172789367Y-97114408D01*
X172793151Y-97108095D01*
X172797535Y-97102184D01*
X172802478Y-97096730D01*
X173739394Y-96159814D01*
X173744848Y-96154871D01*
X173750759Y-96150487D01*
X173757072Y-96146703D01*
X173763726Y-96143556D01*
X173770656Y-96141076D01*
X173777795Y-96139288D01*
X173785076Y-96138208D01*
X173792427Y-96137847D01*
X173799778Y-96138208D01*
G37*
G36*
X174153331Y-96491761D02*
G01*
X174160612Y-96492841D01*
X174167751Y-96494629D01*
X174174681Y-96497109D01*
X174181335Y-96500256D01*
X174187648Y-96504040D01*
X174193559Y-96508424D01*
X174199013Y-96513367D01*
X174305079Y-96619433D01*
X174310022Y-96624887D01*
X174314406Y-96630798D01*
X174318190Y-96637111D01*
X174321337Y-96643765D01*
X174323817Y-96650695D01*
X174325605Y-96657834D01*
X174326685Y-96665115D01*
X174327046Y-96672466D01*
X174326685Y-96679817D01*
X174325605Y-96687098D01*
X174323817Y-96694237D01*
X174321337Y-96701167D01*
X174318190Y-96707821D01*
X174314406Y-96714134D01*
X174310022Y-96720045D01*
X174305079Y-96725499D01*
X173368163Y-97662415D01*
X173362709Y-97667358D01*
X173356798Y-97671742D01*
X173350485Y-97675526D01*
X173343831Y-97678673D01*
X173336901Y-97681153D01*
X173329762Y-97682941D01*
X173322481Y-97684021D01*
X173315130Y-97684382D01*
X173307779Y-97684021D01*
X173300498Y-97682941D01*
X173293359Y-97681153D01*
X173286429Y-97678673D01*
X173279775Y-97675526D01*
X173273462Y-97671742D01*
X173267551Y-97667358D01*
X173262097Y-97662415D01*
X173156031Y-97556349D01*
X173151088Y-97550895D01*
X173146704Y-97544984D01*
X173142920Y-97538671D01*
X173139773Y-97532017D01*
X173137293Y-97525087D01*
X173135505Y-97517948D01*
X173134425Y-97510667D01*
X173134064Y-97503316D01*
X173134425Y-97495965D01*
X173135505Y-97488684D01*
X173137293Y-97481545D01*
X173139773Y-97474615D01*
X173142920Y-97467961D01*
X173146704Y-97461648D01*
X173151088Y-97455737D01*
X173156031Y-97450283D01*
X174092947Y-96513367D01*
X174098401Y-96508424D01*
X174104312Y-96504040D01*
X174110625Y-96500256D01*
X174117279Y-96497109D01*
X174124209Y-96494629D01*
X174131348Y-96492841D01*
X174138629Y-96491761D01*
X174145980Y-96491400D01*
X174153331Y-96491761D01*
G37*
G36*
X174506885Y-96845315D02*
G01*
X174514166Y-96846395D01*
X174521305Y-96848183D01*
X174528235Y-96850663D01*
X174534889Y-96853810D01*
X174541202Y-96857594D01*
X174547113Y-96861978D01*
X174552567Y-96866921D01*
X174658633Y-96972987D01*
X174663576Y-96978441D01*
X174667960Y-96984352D01*
X174671744Y-96990665D01*
X174674891Y-96997319D01*
X174677371Y-97004249D01*
X174679159Y-97011388D01*
X174680239Y-97018669D01*
X174680600Y-97026020D01*
X174680239Y-97033371D01*
X174679159Y-97040652D01*
X174677371Y-97047791D01*
X174674891Y-97054721D01*
X174671744Y-97061375D01*
X174667960Y-97067688D01*
X174663576Y-97073599D01*
X174658633Y-97079053D01*
X173721717Y-98015969D01*
X173716263Y-98020912D01*
X173710352Y-98025296D01*
X173704039Y-98029080D01*
X173697385Y-98032227D01*
X173690455Y-98034707D01*
X173683316Y-98036495D01*
X173676035Y-98037575D01*
X173668684Y-98037936D01*
X173661333Y-98037575D01*
X173654052Y-98036495D01*
X173646913Y-98034707D01*
X173639983Y-98032227D01*
X173633329Y-98029080D01*
X173627016Y-98025296D01*
X173621105Y-98020912D01*
X173615651Y-98015969D01*
X173509585Y-97909903D01*
X173504642Y-97904449D01*
X173500258Y-97898538D01*
X173496474Y-97892225D01*
X173493327Y-97885571D01*
X173490847Y-97878641D01*
X173489059Y-97871502D01*
X173487979Y-97864221D01*
X173487618Y-97856870D01*
X173487979Y-97849519D01*
X173489059Y-97842238D01*
X173490847Y-97835099D01*
X173493327Y-97828169D01*
X173496474Y-97821515D01*
X173500258Y-97815202D01*
X173504642Y-97809291D01*
X173509585Y-97803837D01*
X174446501Y-96866921D01*
X174451955Y-96861978D01*
X174457866Y-96857594D01*
X174464179Y-96853810D01*
X174470833Y-96850663D01*
X174477763Y-96848183D01*
X174484902Y-96846395D01*
X174492183Y-96845315D01*
X174499534Y-96844954D01*
X174506885Y-96845315D01*
G37*
G36*
X174860438Y-97198868D02*
G01*
X174867719Y-97199948D01*
X174874858Y-97201736D01*
X174881788Y-97204216D01*
X174888442Y-97207363D01*
X174894755Y-97211147D01*
X174900666Y-97215531D01*
X174906120Y-97220474D01*
X175012186Y-97326540D01*
X175017129Y-97331994D01*
X175021513Y-97337905D01*
X175025297Y-97344218D01*
X175028444Y-97350872D01*
X175030924Y-97357802D01*
X175032712Y-97364941D01*
X175033792Y-97372222D01*
X175034153Y-97379573D01*
X175033792Y-97386924D01*
X175032712Y-97394205D01*
X175030924Y-97401344D01*
X175028444Y-97408274D01*
X175025297Y-97414928D01*
X175021513Y-97421241D01*
X175017129Y-97427152D01*
X175012186Y-97432606D01*
X174075270Y-98369522D01*
X174069816Y-98374465D01*
X174063905Y-98378849D01*
X174057592Y-98382633D01*
X174050938Y-98385780D01*
X174044008Y-98388260D01*
X174036869Y-98390048D01*
X174029588Y-98391128D01*
X174022237Y-98391489D01*
X174014886Y-98391128D01*
X174007605Y-98390048D01*
X174000466Y-98388260D01*
X173993536Y-98385780D01*
X173986882Y-98382633D01*
X173980569Y-98378849D01*
X173974658Y-98374465D01*
X173969204Y-98369522D01*
X173863138Y-98263456D01*
X173858195Y-98258002D01*
X173853811Y-98252091D01*
X173850027Y-98245778D01*
X173846880Y-98239124D01*
X173844400Y-98232194D01*
X173842612Y-98225055D01*
X173841532Y-98217774D01*
X173841171Y-98210423D01*
X173841532Y-98203072D01*
X173842612Y-98195791D01*
X173844400Y-98188652D01*
X173846880Y-98181722D01*
X173850027Y-98175068D01*
X173853811Y-98168755D01*
X173858195Y-98162844D01*
X173863138Y-98157390D01*
X174800054Y-97220474D01*
X174805508Y-97215531D01*
X174811419Y-97211147D01*
X174817732Y-97207363D01*
X174824386Y-97204216D01*
X174831316Y-97201736D01*
X174838455Y-97199948D01*
X174845736Y-97198868D01*
X174853087Y-97198507D01*
X174860438Y-97198868D01*
G37*
G36*
X175213991Y-97552421D02*
G01*
X175221272Y-97553501D01*
X175228411Y-97555289D01*
X175235341Y-97557769D01*
X175241995Y-97560916D01*
X175248308Y-97564700D01*
X175254219Y-97569084D01*
X175259673Y-97574027D01*
X175365739Y-97680093D01*
X175370682Y-97685547D01*
X175375066Y-97691458D01*
X175378850Y-97697771D01*
X175381997Y-97704425D01*
X175384477Y-97711355D01*
X175386265Y-97718494D01*
X175387345Y-97725775D01*
X175387706Y-97733126D01*
X175387345Y-97740477D01*
X175386265Y-97747758D01*
X175384477Y-97754897D01*
X175381997Y-97761827D01*
X175378850Y-97768481D01*
X175375066Y-97774794D01*
X175370682Y-97780705D01*
X175365739Y-97786159D01*
X174428823Y-98723075D01*
X174423369Y-98728018D01*
X174417458Y-98732402D01*
X174411145Y-98736186D01*
X174404491Y-98739333D01*
X174397561Y-98741813D01*
X174390422Y-98743601D01*
X174383141Y-98744681D01*
X174375790Y-98745042D01*
X174368439Y-98744681D01*
X174361158Y-98743601D01*
X174354019Y-98741813D01*
X174347089Y-98739333D01*
X174340435Y-98736186D01*
X174334122Y-98732402D01*
X174328211Y-98728018D01*
X174322757Y-98723075D01*
X174216691Y-98617009D01*
X174211748Y-98611555D01*
X174207364Y-98605644D01*
X174203580Y-98599331D01*
X174200433Y-98592677D01*
X174197953Y-98585747D01*
X174196165Y-98578608D01*
X174195085Y-98571327D01*
X174194724Y-98563976D01*
X174195085Y-98556625D01*
X174196165Y-98549344D01*
X174197953Y-98542205D01*
X174200433Y-98535275D01*
X174203580Y-98528621D01*
X174207364Y-98522308D01*
X174211748Y-98516397D01*
X174216691Y-98510943D01*
X175153607Y-97574027D01*
X175159061Y-97569084D01*
X175164972Y-97564700D01*
X175171285Y-97560916D01*
X175177939Y-97557769D01*
X175184869Y-97555289D01*
X175192008Y-97553501D01*
X175199289Y-97552421D01*
X175206640Y-97552060D01*
X175213991Y-97552421D01*
G37*
G36*
X175567545Y-97905975D02*
G01*
X175574826Y-97907055D01*
X175581965Y-97908843D01*
X175588895Y-97911323D01*
X175595549Y-97914470D01*
X175601862Y-97918254D01*
X175607773Y-97922638D01*
X175613227Y-97927581D01*
X175719293Y-98033647D01*
X175724236Y-98039101D01*
X175728620Y-98045012D01*
X175732404Y-98051325D01*
X175735551Y-98057979D01*
X175738031Y-98064909D01*
X175739819Y-98072048D01*
X175740899Y-98079329D01*
X175741260Y-98086680D01*
X175740899Y-98094031D01*
X175739819Y-98101312D01*
X175738031Y-98108451D01*
X175735551Y-98115381D01*
X175732404Y-98122035D01*
X175728620Y-98128348D01*
X175724236Y-98134259D01*
X175719293Y-98139713D01*
X174782377Y-99076629D01*
X174776923Y-99081572D01*
X174771012Y-99085956D01*
X174764699Y-99089740D01*
X174758045Y-99092887D01*
X174751115Y-99095367D01*
X174743976Y-99097155D01*
X174736695Y-99098235D01*
X174729344Y-99098596D01*
X174721993Y-99098235D01*
X174714712Y-99097155D01*
X174707573Y-99095367D01*
X174700643Y-99092887D01*
X174693989Y-99089740D01*
X174687676Y-99085956D01*
X174681765Y-99081572D01*
X174676311Y-99076629D01*
X174570245Y-98970563D01*
X174565302Y-98965109D01*
X174560918Y-98959198D01*
X174557134Y-98952885D01*
X174553987Y-98946231D01*
X174551507Y-98939301D01*
X174549719Y-98932162D01*
X174548639Y-98924881D01*
X174548278Y-98917530D01*
X174548639Y-98910179D01*
X174549719Y-98902898D01*
X174551507Y-98895759D01*
X174553987Y-98888829D01*
X174557134Y-98882175D01*
X174560918Y-98875862D01*
X174565302Y-98869951D01*
X174570245Y-98864497D01*
X175507161Y-97927581D01*
X175512615Y-97922638D01*
X175518526Y-97918254D01*
X175524839Y-97914470D01*
X175531493Y-97911323D01*
X175538423Y-97908843D01*
X175545562Y-97907055D01*
X175552843Y-97905975D01*
X175560194Y-97905614D01*
X175567545Y-97905975D01*
G37*
G36*
X175921098Y-98259528D02*
G01*
X175928379Y-98260608D01*
X175935518Y-98262396D01*
X175942448Y-98264876D01*
X175949102Y-98268023D01*
X175955415Y-98271807D01*
X175961326Y-98276191D01*
X175966780Y-98281134D01*
X176072846Y-98387200D01*
X176077789Y-98392654D01*
X176082173Y-98398565D01*
X176085957Y-98404878D01*
X176089104Y-98411532D01*
X176091584Y-98418462D01*
X176093372Y-98425601D01*
X176094452Y-98432882D01*
X176094813Y-98440233D01*
X176094452Y-98447584D01*
X176093372Y-98454865D01*
X176091584Y-98462004D01*
X176089104Y-98468934D01*
X176085957Y-98475588D01*
X176082173Y-98481901D01*
X176077789Y-98487812D01*
X176072846Y-98493266D01*
X175135930Y-99430182D01*
X175130476Y-99435125D01*
X175124565Y-99439509D01*
X175118252Y-99443293D01*
X175111598Y-99446440D01*
X175104668Y-99448920D01*
X175097529Y-99450708D01*
X175090248Y-99451788D01*
X175082897Y-99452149D01*
X175075546Y-99451788D01*
X175068265Y-99450708D01*
X175061126Y-99448920D01*
X175054196Y-99446440D01*
X175047542Y-99443293D01*
X175041229Y-99439509D01*
X175035318Y-99435125D01*
X175029864Y-99430182D01*
X174923798Y-99324116D01*
X174918855Y-99318662D01*
X174914471Y-99312751D01*
X174910687Y-99306438D01*
X174907540Y-99299784D01*
X174905060Y-99292854D01*
X174903272Y-99285715D01*
X174902192Y-99278434D01*
X174901831Y-99271083D01*
X174902192Y-99263732D01*
X174903272Y-99256451D01*
X174905060Y-99249312D01*
X174907540Y-99242382D01*
X174910687Y-99235728D01*
X174914471Y-99229415D01*
X174918855Y-99223504D01*
X174923798Y-99218050D01*
X175860714Y-98281134D01*
X175866168Y-98276191D01*
X175872079Y-98271807D01*
X175878392Y-98268023D01*
X175885046Y-98264876D01*
X175891976Y-98262396D01*
X175899115Y-98260608D01*
X175906396Y-98259528D01*
X175913747Y-98259167D01*
X175921098Y-98259528D01*
G37*
G36*
X176274652Y-98613082D02*
G01*
X176281933Y-98614162D01*
X176289072Y-98615950D01*
X176296002Y-98618430D01*
X176302656Y-98621577D01*
X176308969Y-98625361D01*
X176314880Y-98629745D01*
X176320334Y-98634688D01*
X176426400Y-98740754D01*
X176431343Y-98746208D01*
X176435727Y-98752119D01*
X176439511Y-98758432D01*
X176442658Y-98765086D01*
X176445138Y-98772016D01*
X176446926Y-98779155D01*
X176448006Y-98786436D01*
X176448367Y-98793787D01*
X176448006Y-98801138D01*
X176446926Y-98808419D01*
X176445138Y-98815558D01*
X176442658Y-98822488D01*
X176439511Y-98829142D01*
X176435727Y-98835455D01*
X176431343Y-98841366D01*
X176426400Y-98846820D01*
X175489484Y-99783736D01*
X175484030Y-99788679D01*
X175478119Y-99793063D01*
X175471806Y-99796847D01*
X175465152Y-99799994D01*
X175458222Y-99802474D01*
X175451083Y-99804262D01*
X175443802Y-99805342D01*
X175436451Y-99805703D01*
X175429100Y-99805342D01*
X175421819Y-99804262D01*
X175414680Y-99802474D01*
X175407750Y-99799994D01*
X175401096Y-99796847D01*
X175394783Y-99793063D01*
X175388872Y-99788679D01*
X175383418Y-99783736D01*
X175277352Y-99677670D01*
X175272409Y-99672216D01*
X175268025Y-99666305D01*
X175264241Y-99659992D01*
X175261094Y-99653338D01*
X175258614Y-99646408D01*
X175256826Y-99639269D01*
X175255746Y-99631988D01*
X175255385Y-99624637D01*
X175255746Y-99617286D01*
X175256826Y-99610005D01*
X175258614Y-99602866D01*
X175261094Y-99595936D01*
X175264241Y-99589282D01*
X175268025Y-99582969D01*
X175272409Y-99577058D01*
X175277352Y-99571604D01*
X176214268Y-98634688D01*
X176219722Y-98629745D01*
X176225633Y-98625361D01*
X176231946Y-98621577D01*
X176238600Y-98618430D01*
X176245530Y-98615950D01*
X176252669Y-98614162D01*
X176259950Y-98613082D01*
X176267301Y-98612721D01*
X176274652Y-98613082D01*
G37*
G36*
X175443802Y-100610658D02*
G01*
X175451083Y-100611738D01*
X175458222Y-100613526D01*
X175465152Y-100616006D01*
X175471806Y-100619153D01*
X175478119Y-100622937D01*
X175484030Y-100627321D01*
X175489484Y-100632264D01*
X176426400Y-101569180D01*
X176431343Y-101574634D01*
X176435727Y-101580545D01*
X176439511Y-101586858D01*
X176442658Y-101593512D01*
X176445138Y-101600442D01*
X176446926Y-101607581D01*
X176448006Y-101614862D01*
X176448367Y-101622213D01*
X176448006Y-101629564D01*
X176446926Y-101636845D01*
X176445138Y-101643984D01*
X176442658Y-101650914D01*
X176439511Y-101657568D01*
X176435727Y-101663881D01*
X176431343Y-101669792D01*
X176426400Y-101675246D01*
X176320334Y-101781312D01*
X176314880Y-101786255D01*
X176308969Y-101790639D01*
X176302656Y-101794423D01*
X176296002Y-101797570D01*
X176289072Y-101800050D01*
X176281933Y-101801838D01*
X176274652Y-101802918D01*
X176267301Y-101803279D01*
X176259950Y-101802918D01*
X176252669Y-101801838D01*
X176245530Y-101800050D01*
X176238600Y-101797570D01*
X176231946Y-101794423D01*
X176225633Y-101790639D01*
X176219722Y-101786255D01*
X176214268Y-101781312D01*
X175277352Y-100844396D01*
X175272409Y-100838942D01*
X175268025Y-100833031D01*
X175264241Y-100826718D01*
X175261094Y-100820064D01*
X175258614Y-100813134D01*
X175256826Y-100805995D01*
X175255746Y-100798714D01*
X175255385Y-100791363D01*
X175255746Y-100784012D01*
X175256826Y-100776731D01*
X175258614Y-100769592D01*
X175261094Y-100762662D01*
X175264241Y-100756008D01*
X175268025Y-100749695D01*
X175272409Y-100743784D01*
X175277352Y-100738330D01*
X175383418Y-100632264D01*
X175388872Y-100627321D01*
X175394783Y-100622937D01*
X175401096Y-100619153D01*
X175407750Y-100616006D01*
X175414680Y-100613526D01*
X175421819Y-100611738D01*
X175429100Y-100610658D01*
X175436451Y-100610297D01*
X175443802Y-100610658D01*
G37*
G36*
X175090248Y-100964212D02*
G01*
X175097529Y-100965292D01*
X175104668Y-100967080D01*
X175111598Y-100969560D01*
X175118252Y-100972707D01*
X175124565Y-100976491D01*
X175130476Y-100980875D01*
X175135930Y-100985818D01*
X176072846Y-101922734D01*
X176077789Y-101928188D01*
X176082173Y-101934099D01*
X176085957Y-101940412D01*
X176089104Y-101947066D01*
X176091584Y-101953996D01*
X176093372Y-101961135D01*
X176094452Y-101968416D01*
X176094813Y-101975767D01*
X176094452Y-101983118D01*
X176093372Y-101990399D01*
X176091584Y-101997538D01*
X176089104Y-102004468D01*
X176085957Y-102011122D01*
X176082173Y-102017435D01*
X176077789Y-102023346D01*
X176072846Y-102028800D01*
X175966780Y-102134866D01*
X175961326Y-102139809D01*
X175955415Y-102144193D01*
X175949102Y-102147977D01*
X175942448Y-102151124D01*
X175935518Y-102153604D01*
X175928379Y-102155392D01*
X175921098Y-102156472D01*
X175913747Y-102156833D01*
X175906396Y-102156472D01*
X175899115Y-102155392D01*
X175891976Y-102153604D01*
X175885046Y-102151124D01*
X175878392Y-102147977D01*
X175872079Y-102144193D01*
X175866168Y-102139809D01*
X175860714Y-102134866D01*
X174923798Y-101197950D01*
X174918855Y-101192496D01*
X174914471Y-101186585D01*
X174910687Y-101180272D01*
X174907540Y-101173618D01*
X174905060Y-101166688D01*
X174903272Y-101159549D01*
X174902192Y-101152268D01*
X174901831Y-101144917D01*
X174902192Y-101137566D01*
X174903272Y-101130285D01*
X174905060Y-101123146D01*
X174907540Y-101116216D01*
X174910687Y-101109562D01*
X174914471Y-101103249D01*
X174918855Y-101097338D01*
X174923798Y-101091884D01*
X175029864Y-100985818D01*
X175035318Y-100980875D01*
X175041229Y-100976491D01*
X175047542Y-100972707D01*
X175054196Y-100969560D01*
X175061126Y-100967080D01*
X175068265Y-100965292D01*
X175075546Y-100964212D01*
X175082897Y-100963851D01*
X175090248Y-100964212D01*
G37*
G36*
X174736695Y-101317765D02*
G01*
X174743976Y-101318845D01*
X174751115Y-101320633D01*
X174758045Y-101323113D01*
X174764699Y-101326260D01*
X174771012Y-101330044D01*
X174776923Y-101334428D01*
X174782377Y-101339371D01*
X175719293Y-102276287D01*
X175724236Y-102281741D01*
X175728620Y-102287652D01*
X175732404Y-102293965D01*
X175735551Y-102300619D01*
X175738031Y-102307549D01*
X175739819Y-102314688D01*
X175740899Y-102321969D01*
X175741260Y-102329320D01*
X175740899Y-102336671D01*
X175739819Y-102343952D01*
X175738031Y-102351091D01*
X175735551Y-102358021D01*
X175732404Y-102364675D01*
X175728620Y-102370988D01*
X175724236Y-102376899D01*
X175719293Y-102382353D01*
X175613227Y-102488419D01*
X175607773Y-102493362D01*
X175601862Y-102497746D01*
X175595549Y-102501530D01*
X175588895Y-102504677D01*
X175581965Y-102507157D01*
X175574826Y-102508945D01*
X175567545Y-102510025D01*
X175560194Y-102510386D01*
X175552843Y-102510025D01*
X175545562Y-102508945D01*
X175538423Y-102507157D01*
X175531493Y-102504677D01*
X175524839Y-102501530D01*
X175518526Y-102497746D01*
X175512615Y-102493362D01*
X175507161Y-102488419D01*
X174570245Y-101551503D01*
X174565302Y-101546049D01*
X174560918Y-101540138D01*
X174557134Y-101533825D01*
X174553987Y-101527171D01*
X174551507Y-101520241D01*
X174549719Y-101513102D01*
X174548639Y-101505821D01*
X174548278Y-101498470D01*
X174548639Y-101491119D01*
X174549719Y-101483838D01*
X174551507Y-101476699D01*
X174553987Y-101469769D01*
X174557134Y-101463115D01*
X174560918Y-101456802D01*
X174565302Y-101450891D01*
X174570245Y-101445437D01*
X174676311Y-101339371D01*
X174681765Y-101334428D01*
X174687676Y-101330044D01*
X174693989Y-101326260D01*
X174700643Y-101323113D01*
X174707573Y-101320633D01*
X174714712Y-101318845D01*
X174721993Y-101317765D01*
X174729344Y-101317404D01*
X174736695Y-101317765D01*
G37*
G36*
X174383141Y-101671319D02*
G01*
X174390422Y-101672399D01*
X174397561Y-101674187D01*
X174404491Y-101676667D01*
X174411145Y-101679814D01*
X174417458Y-101683598D01*
X174423369Y-101687982D01*
X174428823Y-101692925D01*
X175365739Y-102629841D01*
X175370682Y-102635295D01*
X175375066Y-102641206D01*
X175378850Y-102647519D01*
X175381997Y-102654173D01*
X175384477Y-102661103D01*
X175386265Y-102668242D01*
X175387345Y-102675523D01*
X175387706Y-102682874D01*
X175387345Y-102690225D01*
X175386265Y-102697506D01*
X175384477Y-102704645D01*
X175381997Y-102711575D01*
X175378850Y-102718229D01*
X175375066Y-102724542D01*
X175370682Y-102730453D01*
X175365739Y-102735907D01*
X175259673Y-102841973D01*
X175254219Y-102846916D01*
X175248308Y-102851300D01*
X175241995Y-102855084D01*
X175235341Y-102858231D01*
X175228411Y-102860711D01*
X175221272Y-102862499D01*
X175213991Y-102863579D01*
X175206640Y-102863940D01*
X175199289Y-102863579D01*
X175192008Y-102862499D01*
X175184869Y-102860711D01*
X175177939Y-102858231D01*
X175171285Y-102855084D01*
X175164972Y-102851300D01*
X175159061Y-102846916D01*
X175153607Y-102841973D01*
X174216691Y-101905057D01*
X174211748Y-101899603D01*
X174207364Y-101893692D01*
X174203580Y-101887379D01*
X174200433Y-101880725D01*
X174197953Y-101873795D01*
X174196165Y-101866656D01*
X174195085Y-101859375D01*
X174194724Y-101852024D01*
X174195085Y-101844673D01*
X174196165Y-101837392D01*
X174197953Y-101830253D01*
X174200433Y-101823323D01*
X174203580Y-101816669D01*
X174207364Y-101810356D01*
X174211748Y-101804445D01*
X174216691Y-101798991D01*
X174322757Y-101692925D01*
X174328211Y-101687982D01*
X174334122Y-101683598D01*
X174340435Y-101679814D01*
X174347089Y-101676667D01*
X174354019Y-101674187D01*
X174361158Y-101672399D01*
X174368439Y-101671319D01*
X174375790Y-101670958D01*
X174383141Y-101671319D01*
G37*
G36*
X174029588Y-102024872D02*
G01*
X174036869Y-102025952D01*
X174044008Y-102027740D01*
X174050938Y-102030220D01*
X174057592Y-102033367D01*
X174063905Y-102037151D01*
X174069816Y-102041535D01*
X174075270Y-102046478D01*
X175012186Y-102983394D01*
X175017129Y-102988848D01*
X175021513Y-102994759D01*
X175025297Y-103001072D01*
X175028444Y-103007726D01*
X175030924Y-103014656D01*
X175032712Y-103021795D01*
X175033792Y-103029076D01*
X175034153Y-103036427D01*
X175033792Y-103043778D01*
X175032712Y-103051059D01*
X175030924Y-103058198D01*
X175028444Y-103065128D01*
X175025297Y-103071782D01*
X175021513Y-103078095D01*
X175017129Y-103084006D01*
X175012186Y-103089460D01*
X174906120Y-103195526D01*
X174900666Y-103200469D01*
X174894755Y-103204853D01*
X174888442Y-103208637D01*
X174881788Y-103211784D01*
X174874858Y-103214264D01*
X174867719Y-103216052D01*
X174860438Y-103217132D01*
X174853087Y-103217493D01*
X174845736Y-103217132D01*
X174838455Y-103216052D01*
X174831316Y-103214264D01*
X174824386Y-103211784D01*
X174817732Y-103208637D01*
X174811419Y-103204853D01*
X174805508Y-103200469D01*
X174800054Y-103195526D01*
X173863138Y-102258610D01*
X173858195Y-102253156D01*
X173853811Y-102247245D01*
X173850027Y-102240932D01*
X173846880Y-102234278D01*
X173844400Y-102227348D01*
X173842612Y-102220209D01*
X173841532Y-102212928D01*
X173841171Y-102205577D01*
X173841532Y-102198226D01*
X173842612Y-102190945D01*
X173844400Y-102183806D01*
X173846880Y-102176876D01*
X173850027Y-102170222D01*
X173853811Y-102163909D01*
X173858195Y-102157998D01*
X173863138Y-102152544D01*
X173969204Y-102046478D01*
X173974658Y-102041535D01*
X173980569Y-102037151D01*
X173986882Y-102033367D01*
X173993536Y-102030220D01*
X174000466Y-102027740D01*
X174007605Y-102025952D01*
X174014886Y-102024872D01*
X174022237Y-102024511D01*
X174029588Y-102024872D01*
G37*
G36*
X173676035Y-102378425D02*
G01*
X173683316Y-102379505D01*
X173690455Y-102381293D01*
X173697385Y-102383773D01*
X173704039Y-102386920D01*
X173710352Y-102390704D01*
X173716263Y-102395088D01*
X173721717Y-102400031D01*
X174658633Y-103336947D01*
X174663576Y-103342401D01*
X174667960Y-103348312D01*
X174671744Y-103354625D01*
X174674891Y-103361279D01*
X174677371Y-103368209D01*
X174679159Y-103375348D01*
X174680239Y-103382629D01*
X174680600Y-103389980D01*
X174680239Y-103397331D01*
X174679159Y-103404612D01*
X174677371Y-103411751D01*
X174674891Y-103418681D01*
X174671744Y-103425335D01*
X174667960Y-103431648D01*
X174663576Y-103437559D01*
X174658633Y-103443013D01*
X174552567Y-103549079D01*
X174547113Y-103554022D01*
X174541202Y-103558406D01*
X174534889Y-103562190D01*
X174528235Y-103565337D01*
X174521305Y-103567817D01*
X174514166Y-103569605D01*
X174506885Y-103570685D01*
X174499534Y-103571046D01*
X174492183Y-103570685D01*
X174484902Y-103569605D01*
X174477763Y-103567817D01*
X174470833Y-103565337D01*
X174464179Y-103562190D01*
X174457866Y-103558406D01*
X174451955Y-103554022D01*
X174446501Y-103549079D01*
X173509585Y-102612163D01*
X173504642Y-102606709D01*
X173500258Y-102600798D01*
X173496474Y-102594485D01*
X173493327Y-102587831D01*
X173490847Y-102580901D01*
X173489059Y-102573762D01*
X173487979Y-102566481D01*
X173487618Y-102559130D01*
X173487979Y-102551779D01*
X173489059Y-102544498D01*
X173490847Y-102537359D01*
X173493327Y-102530429D01*
X173496474Y-102523775D01*
X173500258Y-102517462D01*
X173504642Y-102511551D01*
X173509585Y-102506097D01*
X173615651Y-102400031D01*
X173621105Y-102395088D01*
X173627016Y-102390704D01*
X173633329Y-102386920D01*
X173639983Y-102383773D01*
X173646913Y-102381293D01*
X173654052Y-102379505D01*
X173661333Y-102378425D01*
X173668684Y-102378064D01*
X173676035Y-102378425D01*
G37*
G36*
X173322481Y-102731979D02*
G01*
X173329762Y-102733059D01*
X173336901Y-102734847D01*
X173343831Y-102737327D01*
X173350485Y-102740474D01*
X173356798Y-102744258D01*
X173362709Y-102748642D01*
X173368163Y-102753585D01*
X174305079Y-103690501D01*
X174310022Y-103695955D01*
X174314406Y-103701866D01*
X174318190Y-103708179D01*
X174321337Y-103714833D01*
X174323817Y-103721763D01*
X174325605Y-103728902D01*
X174326685Y-103736183D01*
X174327046Y-103743534D01*
X174326685Y-103750885D01*
X174325605Y-103758166D01*
X174323817Y-103765305D01*
X174321337Y-103772235D01*
X174318190Y-103778889D01*
X174314406Y-103785202D01*
X174310022Y-103791113D01*
X174305079Y-103796567D01*
X174199013Y-103902633D01*
X174193559Y-103907576D01*
X174187648Y-103911960D01*
X174181335Y-103915744D01*
X174174681Y-103918891D01*
X174167751Y-103921371D01*
X174160612Y-103923159D01*
X174153331Y-103924239D01*
X174145980Y-103924600D01*
X174138629Y-103924239D01*
X174131348Y-103923159D01*
X174124209Y-103921371D01*
X174117279Y-103918891D01*
X174110625Y-103915744D01*
X174104312Y-103911960D01*
X174098401Y-103907576D01*
X174092947Y-103902633D01*
X173156031Y-102965717D01*
X173151088Y-102960263D01*
X173146704Y-102954352D01*
X173142920Y-102948039D01*
X173139773Y-102941385D01*
X173137293Y-102934455D01*
X173135505Y-102927316D01*
X173134425Y-102920035D01*
X173134064Y-102912684D01*
X173134425Y-102905333D01*
X173135505Y-102898052D01*
X173137293Y-102890913D01*
X173139773Y-102883983D01*
X173142920Y-102877329D01*
X173146704Y-102871016D01*
X173151088Y-102865105D01*
X173156031Y-102859651D01*
X173262097Y-102753585D01*
X173267551Y-102748642D01*
X173273462Y-102744258D01*
X173279775Y-102740474D01*
X173286429Y-102737327D01*
X173293359Y-102734847D01*
X173300498Y-102733059D01*
X173307779Y-102731979D01*
X173315130Y-102731618D01*
X173322481Y-102731979D01*
G37*
G36*
X172968928Y-103085532D02*
G01*
X172976209Y-103086612D01*
X172983348Y-103088400D01*
X172990278Y-103090880D01*
X172996932Y-103094027D01*
X173003245Y-103097811D01*
X173009156Y-103102195D01*
X173014610Y-103107138D01*
X173951526Y-104044054D01*
X173956469Y-104049508D01*
X173960853Y-104055419D01*
X173964637Y-104061732D01*
X173967784Y-104068386D01*
X173970264Y-104075316D01*
X173972052Y-104082455D01*
X173973132Y-104089736D01*
X173973493Y-104097087D01*
X173973132Y-104104438D01*
X173972052Y-104111719D01*
X173970264Y-104118858D01*
X173967784Y-104125788D01*
X173964637Y-104132442D01*
X173960853Y-104138755D01*
X173956469Y-104144666D01*
X173951526Y-104150120D01*
X173845460Y-104256186D01*
X173840006Y-104261129D01*
X173834095Y-104265513D01*
X173827782Y-104269297D01*
X173821128Y-104272444D01*
X173814198Y-104274924D01*
X173807059Y-104276712D01*
X173799778Y-104277792D01*
X173792427Y-104278153D01*
X173785076Y-104277792D01*
X173777795Y-104276712D01*
X173770656Y-104274924D01*
X173763726Y-104272444D01*
X173757072Y-104269297D01*
X173750759Y-104265513D01*
X173744848Y-104261129D01*
X173739394Y-104256186D01*
X172802478Y-103319270D01*
X172797535Y-103313816D01*
X172793151Y-103307905D01*
X172789367Y-103301592D01*
X172786220Y-103294938D01*
X172783740Y-103288008D01*
X172781952Y-103280869D01*
X172780872Y-103273588D01*
X172780511Y-103266237D01*
X172780872Y-103258886D01*
X172781952Y-103251605D01*
X172783740Y-103244466D01*
X172786220Y-103237536D01*
X172789367Y-103230882D01*
X172793151Y-103224569D01*
X172797535Y-103218658D01*
X172802478Y-103213204D01*
X172908544Y-103107138D01*
X172913998Y-103102195D01*
X172919909Y-103097811D01*
X172926222Y-103094027D01*
X172932876Y-103090880D01*
X172939806Y-103088400D01*
X172946945Y-103086612D01*
X172954226Y-103085532D01*
X172961577Y-103085171D01*
X172968928Y-103085532D01*
G37*
G36*
X172615375Y-103439085D02*
G01*
X172622656Y-103440165D01*
X172629795Y-103441953D01*
X172636725Y-103444433D01*
X172643379Y-103447580D01*
X172649692Y-103451364D01*
X172655603Y-103455748D01*
X172661057Y-103460691D01*
X173597973Y-104397607D01*
X173602916Y-104403061D01*
X173607300Y-104408972D01*
X173611084Y-104415285D01*
X173614231Y-104421939D01*
X173616711Y-104428869D01*
X173618499Y-104436008D01*
X173619579Y-104443289D01*
X173619940Y-104450640D01*
X173619579Y-104457991D01*
X173618499Y-104465272D01*
X173616711Y-104472411D01*
X173614231Y-104479341D01*
X173611084Y-104485995D01*
X173607300Y-104492308D01*
X173602916Y-104498219D01*
X173597973Y-104503673D01*
X173491907Y-104609739D01*
X173486453Y-104614682D01*
X173480542Y-104619066D01*
X173474229Y-104622850D01*
X173467575Y-104625997D01*
X173460645Y-104628477D01*
X173453506Y-104630265D01*
X173446225Y-104631345D01*
X173438874Y-104631706D01*
X173431523Y-104631345D01*
X173424242Y-104630265D01*
X173417103Y-104628477D01*
X173410173Y-104625997D01*
X173403519Y-104622850D01*
X173397206Y-104619066D01*
X173391295Y-104614682D01*
X173385841Y-104609739D01*
X172448925Y-103672823D01*
X172443982Y-103667369D01*
X172439598Y-103661458D01*
X172435814Y-103655145D01*
X172432667Y-103648491D01*
X172430187Y-103641561D01*
X172428399Y-103634422D01*
X172427319Y-103627141D01*
X172426958Y-103619790D01*
X172427319Y-103612439D01*
X172428399Y-103605158D01*
X172430187Y-103598019D01*
X172432667Y-103591089D01*
X172435814Y-103584435D01*
X172439598Y-103578122D01*
X172443982Y-103572211D01*
X172448925Y-103566757D01*
X172554991Y-103460691D01*
X172560445Y-103455748D01*
X172566356Y-103451364D01*
X172572669Y-103447580D01*
X172579323Y-103444433D01*
X172586253Y-103441953D01*
X172593392Y-103440165D01*
X172600673Y-103439085D01*
X172608024Y-103438724D01*
X172615375Y-103439085D01*
G37*
G36*
X172261821Y-103792639D02*
G01*
X172269102Y-103793719D01*
X172276241Y-103795507D01*
X172283171Y-103797987D01*
X172289825Y-103801134D01*
X172296138Y-103804918D01*
X172302049Y-103809302D01*
X172307503Y-103814245D01*
X173244419Y-104751161D01*
X173249362Y-104756615D01*
X173253746Y-104762526D01*
X173257530Y-104768839D01*
X173260677Y-104775493D01*
X173263157Y-104782423D01*
X173264945Y-104789562D01*
X173266025Y-104796843D01*
X173266386Y-104804194D01*
X173266025Y-104811545D01*
X173264945Y-104818826D01*
X173263157Y-104825965D01*
X173260677Y-104832895D01*
X173257530Y-104839549D01*
X173253746Y-104845862D01*
X173249362Y-104851773D01*
X173244419Y-104857227D01*
X173138353Y-104963293D01*
X173132899Y-104968236D01*
X173126988Y-104972620D01*
X173120675Y-104976404D01*
X173114021Y-104979551D01*
X173107091Y-104982031D01*
X173099952Y-104983819D01*
X173092671Y-104984899D01*
X173085320Y-104985260D01*
X173077969Y-104984899D01*
X173070688Y-104983819D01*
X173063549Y-104982031D01*
X173056619Y-104979551D01*
X173049965Y-104976404D01*
X173043652Y-104972620D01*
X173037741Y-104968236D01*
X173032287Y-104963293D01*
X172095371Y-104026377D01*
X172090428Y-104020923D01*
X172086044Y-104015012D01*
X172082260Y-104008699D01*
X172079113Y-104002045D01*
X172076633Y-103995115D01*
X172074845Y-103987976D01*
X172073765Y-103980695D01*
X172073404Y-103973344D01*
X172073765Y-103965993D01*
X172074845Y-103958712D01*
X172076633Y-103951573D01*
X172079113Y-103944643D01*
X172082260Y-103937989D01*
X172086044Y-103931676D01*
X172090428Y-103925765D01*
X172095371Y-103920311D01*
X172201437Y-103814245D01*
X172206891Y-103809302D01*
X172212802Y-103804918D01*
X172219115Y-103801134D01*
X172225769Y-103797987D01*
X172232699Y-103795507D01*
X172239838Y-103793719D01*
X172247119Y-103792639D01*
X172254470Y-103792278D01*
X172261821Y-103792639D01*
G37*
G36*
X171908268Y-104146192D02*
G01*
X171915549Y-104147272D01*
X171922688Y-104149060D01*
X171929618Y-104151540D01*
X171936272Y-104154687D01*
X171942585Y-104158471D01*
X171948496Y-104162855D01*
X171953950Y-104167798D01*
X172890866Y-105104714D01*
X172895809Y-105110168D01*
X172900193Y-105116079D01*
X172903977Y-105122392D01*
X172907124Y-105129046D01*
X172909604Y-105135976D01*
X172911392Y-105143115D01*
X172912472Y-105150396D01*
X172912833Y-105157747D01*
X172912472Y-105165098D01*
X172911392Y-105172379D01*
X172909604Y-105179518D01*
X172907124Y-105186448D01*
X172903977Y-105193102D01*
X172900193Y-105199415D01*
X172895809Y-105205326D01*
X172890866Y-105210780D01*
X172784800Y-105316846D01*
X172779346Y-105321789D01*
X172773435Y-105326173D01*
X172767122Y-105329957D01*
X172760468Y-105333104D01*
X172753538Y-105335584D01*
X172746399Y-105337372D01*
X172739118Y-105338452D01*
X172731767Y-105338813D01*
X172724416Y-105338452D01*
X172717135Y-105337372D01*
X172709996Y-105335584D01*
X172703066Y-105333104D01*
X172696412Y-105329957D01*
X172690099Y-105326173D01*
X172684188Y-105321789D01*
X172678734Y-105316846D01*
X171741818Y-104379930D01*
X171736875Y-104374476D01*
X171732491Y-104368565D01*
X171728707Y-104362252D01*
X171725560Y-104355598D01*
X171723080Y-104348668D01*
X171721292Y-104341529D01*
X171720212Y-104334248D01*
X171719851Y-104326897D01*
X171720212Y-104319546D01*
X171721292Y-104312265D01*
X171723080Y-104305126D01*
X171725560Y-104298196D01*
X171728707Y-104291542D01*
X171732491Y-104285229D01*
X171736875Y-104279318D01*
X171741818Y-104273864D01*
X171847884Y-104167798D01*
X171853338Y-104162855D01*
X171859249Y-104158471D01*
X171865562Y-104154687D01*
X171872216Y-104151540D01*
X171879146Y-104149060D01*
X171886285Y-104147272D01*
X171893566Y-104146192D01*
X171900917Y-104145831D01*
X171908268Y-104146192D01*
G37*
G36*
X171554714Y-104499746D02*
G01*
X171561995Y-104500826D01*
X171569134Y-104502614D01*
X171576064Y-104505094D01*
X171582718Y-104508241D01*
X171589031Y-104512025D01*
X171594942Y-104516409D01*
X171600396Y-104521352D01*
X172537312Y-105458268D01*
X172542255Y-105463722D01*
X172546639Y-105469633D01*
X172550423Y-105475946D01*
X172553570Y-105482600D01*
X172556050Y-105489530D01*
X172557838Y-105496669D01*
X172558918Y-105503950D01*
X172559279Y-105511301D01*
X172558918Y-105518652D01*
X172557838Y-105525933D01*
X172556050Y-105533072D01*
X172553570Y-105540002D01*
X172550423Y-105546656D01*
X172546639Y-105552969D01*
X172542255Y-105558880D01*
X172537312Y-105564334D01*
X172431246Y-105670400D01*
X172425792Y-105675343D01*
X172419881Y-105679727D01*
X172413568Y-105683511D01*
X172406914Y-105686658D01*
X172399984Y-105689138D01*
X172392845Y-105690926D01*
X172385564Y-105692006D01*
X172378213Y-105692367D01*
X172370862Y-105692006D01*
X172363581Y-105690926D01*
X172356442Y-105689138D01*
X172349512Y-105686658D01*
X172342858Y-105683511D01*
X172336545Y-105679727D01*
X172330634Y-105675343D01*
X172325180Y-105670400D01*
X171388264Y-104733484D01*
X171383321Y-104728030D01*
X171378937Y-104722119D01*
X171375153Y-104715806D01*
X171372006Y-104709152D01*
X171369526Y-104702222D01*
X171367738Y-104695083D01*
X171366658Y-104687802D01*
X171366297Y-104680451D01*
X171366658Y-104673100D01*
X171367738Y-104665819D01*
X171369526Y-104658680D01*
X171372006Y-104651750D01*
X171375153Y-104645096D01*
X171378937Y-104638783D01*
X171383321Y-104632872D01*
X171388264Y-104627418D01*
X171494330Y-104521352D01*
X171499784Y-104516409D01*
X171505695Y-104512025D01*
X171512008Y-104508241D01*
X171518662Y-104505094D01*
X171525592Y-104502614D01*
X171532731Y-104500826D01*
X171540012Y-104499746D01*
X171547363Y-104499385D01*
X171554714Y-104499746D01*
G37*
D10*
X165019000Y-90188000D03*
X165869000Y-90188000D03*
D15*
X170384000Y-107173000D03*
X170384000Y-108023000D03*
D10*
X177089000Y-94558000D03*
X176239000Y-94558000D03*
D17*
X162654000Y-100963000D03*
X162654000Y-102233000D03*
X162654000Y-103503000D03*
X162654000Y-104773000D03*
X155854000Y-104773000D03*
X155854000Y-103503000D03*
X155854000Y-102233000D03*
X155854000Y-100963000D03*
D15*
X178014000Y-92043000D03*
X178014000Y-91193000D03*
X183814000Y-92043000D03*
X183814000Y-92893000D03*
D10*
X172689000Y-107368000D03*
X171839000Y-107368000D03*
X151749000Y-103488000D03*
X152599000Y-103488000D03*
X155389001Y-97548000D03*
X156239001Y-97548000D03*
X181239000Y-107368000D03*
X182089000Y-107368000D03*
D15*
X178684000Y-95833000D03*
X178684000Y-96683000D03*
D18*
X174914000Y-106868000D03*
X179014000Y-106868000D03*
D15*
X181304000Y-88563000D03*
X181304000Y-89413000D03*
D10*
X163379000Y-99418000D03*
X164229000Y-99418000D03*
D15*
X171904000Y-92563000D03*
X171904000Y-93413000D03*
X182364000Y-92903000D03*
X182364000Y-92053000D03*
D10*
X158389000Y-98948000D03*
X157539000Y-98948000D03*
D15*
X157144000Y-94163000D03*
X157144000Y-95013000D03*
X184204000Y-104083000D03*
X184204000Y-103233000D03*
X168984000Y-107173000D03*
X168984000Y-108023000D03*
D10*
X156239001Y-98948000D03*
X155389001Y-98948000D03*
D15*
X182792000Y-104083000D03*
X182792000Y-103233000D03*
X179774000Y-88563000D03*
X179774000Y-89413000D03*
D19*
X159374000Y-95348000D03*
D20*
X165374000Y-93048000D03*
D19*
X159374000Y-93048000D03*
X159374000Y-90748000D03*
D10*
X151739000Y-90298000D03*
X152589000Y-90298000D03*
M02*
