G04 #@! TF.GenerationSoftware,KiCad,Pcbnew,5.1.5-52549c5~84~ubuntu18.04.1*
G04 #@! TF.CreationDate,2020-02-08T18:05:16+08:00*
G04 #@! TF.ProjectId,dap-stm32f103,6461702d-7374-46d3-9332-663130332e6b,rev?*
G04 #@! TF.SameCoordinates,Original*
G04 #@! TF.FileFunction,Legend,Top*
G04 #@! TF.FilePolarity,Positive*
%FSLAX46Y46*%
G04 Gerber Fmt 4.6, Leading zero omitted, Abs format (unit mm)*
G04 Created by KiCad (PCBNEW 5.1.5-52549c5~84~ubuntu18.04.1) date 2020-02-08 18:05:16*
%MOMM*%
%LPD*%
G04 APERTURE LIST*
%ADD10C,0.200000*%
%ADD11C,0.150000*%
%ADD12C,0.120000*%
%ADD13C,0.010000*%
%ADD14C,0.254000*%
%ADD15C,0.400000*%
%ADD16C,0.300000*%
G04 APERTURE END LIST*
D10*
X160680666Y-87975142D02*
X160866380Y-88037047D01*
X160928285Y-88098952D01*
X160990190Y-88222761D01*
X160990190Y-88408476D01*
X160928285Y-88532285D01*
X160866380Y-88594190D01*
X160742571Y-88656095D01*
X160247333Y-88656095D01*
X160247333Y-87356095D01*
X160680666Y-87356095D01*
X160804476Y-87418000D01*
X160866380Y-87479904D01*
X160928285Y-87603714D01*
X160928285Y-87727523D01*
X160866380Y-87851333D01*
X160804476Y-87913238D01*
X160680666Y-87975142D01*
X160247333Y-87975142D01*
X162104476Y-88656095D02*
X162104476Y-87975142D01*
X162042571Y-87851333D01*
X161918761Y-87789428D01*
X161671142Y-87789428D01*
X161547333Y-87851333D01*
X162104476Y-88594190D02*
X161980666Y-88656095D01*
X161671142Y-88656095D01*
X161547333Y-88594190D01*
X161485428Y-88470380D01*
X161485428Y-88346571D01*
X161547333Y-88222761D01*
X161671142Y-88160857D01*
X161980666Y-88160857D01*
X162104476Y-88098952D01*
X162909238Y-88656095D02*
X162785428Y-88594190D01*
X162723523Y-88470380D01*
X162723523Y-87356095D01*
X163961619Y-88656095D02*
X163961619Y-87975142D01*
X163899714Y-87851333D01*
X163775904Y-87789428D01*
X163528285Y-87789428D01*
X163404476Y-87851333D01*
X163961619Y-88594190D02*
X163837809Y-88656095D01*
X163528285Y-88656095D01*
X163404476Y-88594190D01*
X163342571Y-88470380D01*
X163342571Y-88346571D01*
X163404476Y-88222761D01*
X163528285Y-88160857D01*
X163837809Y-88160857D01*
X163961619Y-88098952D01*
X164580666Y-87789428D02*
X164580666Y-88656095D01*
X164580666Y-87913238D02*
X164642571Y-87851333D01*
X164766380Y-87789428D01*
X164952095Y-87789428D01*
X165075904Y-87851333D01*
X165137809Y-87975142D01*
X165137809Y-88656095D01*
X166314000Y-88594190D02*
X166190190Y-88656095D01*
X165942571Y-88656095D01*
X165818761Y-88594190D01*
X165756857Y-88532285D01*
X165694952Y-88408476D01*
X165694952Y-88037047D01*
X165756857Y-87913238D01*
X165818761Y-87851333D01*
X165942571Y-87789428D01*
X166190190Y-87789428D01*
X166314000Y-87851333D01*
X167366380Y-88594190D02*
X167242571Y-88656095D01*
X166994952Y-88656095D01*
X166871142Y-88594190D01*
X166809238Y-88470380D01*
X166809238Y-87975142D01*
X166871142Y-87851333D01*
X166994952Y-87789428D01*
X167242571Y-87789428D01*
X167366380Y-87851333D01*
X167428285Y-87975142D01*
X167428285Y-88098952D01*
X166809238Y-88222761D01*
X167985428Y-88656095D02*
X167985428Y-87356095D01*
X168294952Y-87356095D01*
X168480666Y-87418000D01*
X168604476Y-87541809D01*
X168666380Y-87665619D01*
X168728285Y-87913238D01*
X168728285Y-88098952D01*
X168666380Y-88346571D01*
X168604476Y-88470380D01*
X168480666Y-88594190D01*
X168294952Y-88656095D01*
X167985428Y-88656095D01*
X169223523Y-88284666D02*
X169842571Y-88284666D01*
X169099714Y-88656095D02*
X169533047Y-87356095D01*
X169966380Y-88656095D01*
X170399714Y-88656095D02*
X170399714Y-87356095D01*
X170894952Y-87356095D01*
X171018761Y-87418000D01*
X171080666Y-87479904D01*
X171142571Y-87603714D01*
X171142571Y-87789428D01*
X171080666Y-87913238D01*
X171018761Y-87975142D01*
X170894952Y-88037047D01*
X170399714Y-88037047D01*
D11*
X194896380Y-92215142D02*
X194944000Y-92262761D01*
X194991619Y-92358000D01*
X194991619Y-92596095D01*
X194944000Y-92691333D01*
X194896380Y-92738952D01*
X194801142Y-92786571D01*
X194705904Y-92786571D01*
X194563047Y-92738952D01*
X193991619Y-92167523D01*
X193991619Y-92786571D01*
X194991619Y-93691333D02*
X194991619Y-93215142D01*
X194515428Y-93167523D01*
X194563047Y-93215142D01*
X194610666Y-93310380D01*
X194610666Y-93548476D01*
X194563047Y-93643714D01*
X194515428Y-93691333D01*
X194420190Y-93738952D01*
X194182095Y-93738952D01*
X194086857Y-93691333D01*
X194039238Y-93643714D01*
X193991619Y-93548476D01*
X193991619Y-93310380D01*
X194039238Y-93215142D01*
X194086857Y-93167523D01*
X194086857Y-94167523D02*
X194039238Y-94215142D01*
X193991619Y-94167523D01*
X194039238Y-94119904D01*
X194086857Y-94167523D01*
X193991619Y-94167523D01*
X194991619Y-94834190D02*
X194991619Y-94929428D01*
X194944000Y-95024666D01*
X194896380Y-95072285D01*
X194801142Y-95119904D01*
X194610666Y-95167523D01*
X194372571Y-95167523D01*
X194182095Y-95119904D01*
X194086857Y-95072285D01*
X194039238Y-95024666D01*
X193991619Y-94929428D01*
X193991619Y-94834190D01*
X194039238Y-94738952D01*
X194086857Y-94691333D01*
X194182095Y-94643714D01*
X194372571Y-94596095D01*
X194610666Y-94596095D01*
X194801142Y-94643714D01*
X194896380Y-94691333D01*
X194944000Y-94738952D01*
X194991619Y-94834190D01*
X194991619Y-95786571D02*
X194991619Y-95881809D01*
X194944000Y-95977047D01*
X194896380Y-96024666D01*
X194801142Y-96072285D01*
X194610666Y-96119904D01*
X194372571Y-96119904D01*
X194182095Y-96072285D01*
X194086857Y-96024666D01*
X194039238Y-95977047D01*
X193991619Y-95881809D01*
X193991619Y-95786571D01*
X194039238Y-95691333D01*
X194086857Y-95643714D01*
X194182095Y-95596095D01*
X194372571Y-95548476D01*
X194610666Y-95548476D01*
X194801142Y-95596095D01*
X194896380Y-95643714D01*
X194944000Y-95691333D01*
X194991619Y-95786571D01*
X194991619Y-96738952D02*
X194991619Y-96834190D01*
X194944000Y-96929428D01*
X194896380Y-96977047D01*
X194801142Y-97024666D01*
X194610666Y-97072285D01*
X194372571Y-97072285D01*
X194182095Y-97024666D01*
X194086857Y-96977047D01*
X194039238Y-96929428D01*
X193991619Y-96834190D01*
X193991619Y-96738952D01*
X194039238Y-96643714D01*
X194086857Y-96596095D01*
X194182095Y-96548476D01*
X194372571Y-96500857D01*
X194610666Y-96500857D01*
X194801142Y-96548476D01*
X194896380Y-96596095D01*
X194944000Y-96643714D01*
X194991619Y-96738952D01*
X193991619Y-98262761D02*
X194658285Y-98262761D01*
X194563047Y-98262761D02*
X194610666Y-98310380D01*
X194658285Y-98405619D01*
X194658285Y-98548476D01*
X194610666Y-98643714D01*
X194515428Y-98691333D01*
X193991619Y-98691333D01*
X194515428Y-98691333D02*
X194610666Y-98738952D01*
X194658285Y-98834190D01*
X194658285Y-98977047D01*
X194610666Y-99072285D01*
X194515428Y-99119904D01*
X193991619Y-99119904D01*
X193991619Y-99596095D02*
X194658285Y-99596095D01*
X194563047Y-99596095D02*
X194610666Y-99643714D01*
X194658285Y-99738952D01*
X194658285Y-99881809D01*
X194610666Y-99977047D01*
X194515428Y-100024666D01*
X193991619Y-100024666D01*
X194515428Y-100024666D02*
X194610666Y-100072285D01*
X194658285Y-100167523D01*
X194658285Y-100310380D01*
X194610666Y-100405619D01*
X194515428Y-100453238D01*
X193991619Y-100453238D01*
D12*
X193174000Y-83858000D02*
X193174000Y-108858000D01*
X187174000Y-83858000D02*
X193760421Y-83858000D01*
X187174000Y-108858000D02*
X193760421Y-108858000D01*
X193174000Y-108858000D02*
X192587579Y-107731496D01*
X193174000Y-108858000D02*
X193760421Y-107731496D01*
X193174000Y-83858000D02*
X192587579Y-84984504D01*
X193174000Y-83858000D02*
X193760421Y-84984504D01*
D11*
X164797333Y-79383714D02*
X164797333Y-80050380D01*
X164559238Y-79002761D02*
X164321142Y-79717047D01*
X164940190Y-79717047D01*
X165797333Y-79050380D02*
X165321142Y-79050380D01*
X165273523Y-79526571D01*
X165321142Y-79478952D01*
X165416380Y-79431333D01*
X165654476Y-79431333D01*
X165749714Y-79478952D01*
X165797333Y-79526571D01*
X165844952Y-79621809D01*
X165844952Y-79859904D01*
X165797333Y-79955142D01*
X165749714Y-80002761D01*
X165654476Y-80050380D01*
X165416380Y-80050380D01*
X165321142Y-80002761D01*
X165273523Y-79955142D01*
X166273523Y-79955142D02*
X166321142Y-80002761D01*
X166273523Y-80050380D01*
X166225904Y-80002761D01*
X166273523Y-79955142D01*
X166273523Y-80050380D01*
X166940190Y-79050380D02*
X167035428Y-79050380D01*
X167130666Y-79098000D01*
X167178285Y-79145619D01*
X167225904Y-79240857D01*
X167273523Y-79431333D01*
X167273523Y-79669428D01*
X167225904Y-79859904D01*
X167178285Y-79955142D01*
X167130666Y-80002761D01*
X167035428Y-80050380D01*
X166940190Y-80050380D01*
X166844952Y-80002761D01*
X166797333Y-79955142D01*
X166749714Y-79859904D01*
X166702095Y-79669428D01*
X166702095Y-79431333D01*
X166749714Y-79240857D01*
X166797333Y-79145619D01*
X166844952Y-79098000D01*
X166940190Y-79050380D01*
X167892571Y-79050380D02*
X167987809Y-79050380D01*
X168083047Y-79098000D01*
X168130666Y-79145619D01*
X168178285Y-79240857D01*
X168225904Y-79431333D01*
X168225904Y-79669428D01*
X168178285Y-79859904D01*
X168130666Y-79955142D01*
X168083047Y-80002761D01*
X167987809Y-80050380D01*
X167892571Y-80050380D01*
X167797333Y-80002761D01*
X167749714Y-79955142D01*
X167702095Y-79859904D01*
X167654476Y-79669428D01*
X167654476Y-79431333D01*
X167702095Y-79240857D01*
X167749714Y-79145619D01*
X167797333Y-79098000D01*
X167892571Y-79050380D01*
X168844952Y-79050380D02*
X168940190Y-79050380D01*
X169035428Y-79098000D01*
X169083047Y-79145619D01*
X169130666Y-79240857D01*
X169178285Y-79431333D01*
X169178285Y-79669428D01*
X169130666Y-79859904D01*
X169083047Y-79955142D01*
X169035428Y-80002761D01*
X168940190Y-80050380D01*
X168844952Y-80050380D01*
X168749714Y-80002761D01*
X168702095Y-79955142D01*
X168654476Y-79859904D01*
X168606857Y-79669428D01*
X168606857Y-79431333D01*
X168654476Y-79240857D01*
X168702095Y-79145619D01*
X168749714Y-79098000D01*
X168844952Y-79050380D01*
X170368761Y-80050380D02*
X170368761Y-79383714D01*
X170368761Y-79478952D02*
X170416380Y-79431333D01*
X170511619Y-79383714D01*
X170654476Y-79383714D01*
X170749714Y-79431333D01*
X170797333Y-79526571D01*
X170797333Y-80050380D01*
X170797333Y-79526571D02*
X170844952Y-79431333D01*
X170940190Y-79383714D01*
X171083047Y-79383714D01*
X171178285Y-79431333D01*
X171225904Y-79526571D01*
X171225904Y-80050380D01*
X171702095Y-80050380D02*
X171702095Y-79383714D01*
X171702095Y-79478952D02*
X171749714Y-79431333D01*
X171844952Y-79383714D01*
X171987809Y-79383714D01*
X172083047Y-79431333D01*
X172130666Y-79526571D01*
X172130666Y-80050380D01*
X172130666Y-79526571D02*
X172178285Y-79431333D01*
X172273523Y-79383714D01*
X172416380Y-79383714D01*
X172511619Y-79431333D01*
X172559238Y-79526571D01*
X172559238Y-80050380D01*
D12*
X145964000Y-80868000D02*
X190964000Y-80868000D01*
X145964000Y-86868000D02*
X145964000Y-80281579D01*
X190964000Y-86868000D02*
X190964000Y-80281579D01*
X190964000Y-80868000D02*
X189837496Y-81454421D01*
X190964000Y-80868000D02*
X189837496Y-80281579D01*
X145964000Y-80868000D02*
X147090504Y-81454421D01*
X145964000Y-80868000D02*
X147090504Y-80281579D01*
D13*
G36*
X179158136Y-97604775D02*
G01*
X179336066Y-97604805D01*
X179498519Y-97604862D01*
X179646223Y-97604952D01*
X179779906Y-97605083D01*
X179900295Y-97605259D01*
X180008119Y-97605488D01*
X180104106Y-97605776D01*
X180188984Y-97606128D01*
X180263480Y-97606551D01*
X180328324Y-97607052D01*
X180384242Y-97607636D01*
X180431963Y-97608310D01*
X180472215Y-97609080D01*
X180505726Y-97609953D01*
X180533223Y-97610933D01*
X180555436Y-97612029D01*
X180573092Y-97613246D01*
X180586918Y-97614590D01*
X180597644Y-97616067D01*
X180605996Y-97617684D01*
X180610767Y-97618887D01*
X180681423Y-97640906D01*
X180741242Y-97665304D01*
X180796315Y-97694729D01*
X180821049Y-97710235D01*
X180905503Y-97774487D01*
X180976872Y-97848704D01*
X181035687Y-97933633D01*
X181082477Y-98030018D01*
X181113113Y-98121233D01*
X181114828Y-98128362D01*
X181116400Y-98137359D01*
X181117834Y-98148953D01*
X181119136Y-98163869D01*
X181120314Y-98182834D01*
X181121373Y-98206577D01*
X181122320Y-98235824D01*
X181123160Y-98271301D01*
X181123899Y-98313736D01*
X181124545Y-98363856D01*
X181125104Y-98422387D01*
X181125580Y-98490058D01*
X181125982Y-98567594D01*
X181126314Y-98655723D01*
X181126584Y-98755171D01*
X181126797Y-98866667D01*
X181126959Y-98990936D01*
X181127077Y-99128706D01*
X181127158Y-99280704D01*
X181127206Y-99447656D01*
X181127229Y-99630290D01*
X181127234Y-99772234D01*
X181127256Y-99968709D01*
X181127304Y-100148995D01*
X181127349Y-100313834D01*
X181127365Y-100463971D01*
X181127322Y-100600148D01*
X181127193Y-100723109D01*
X181126949Y-100833597D01*
X181126564Y-100932356D01*
X181126008Y-101020130D01*
X181125253Y-101097661D01*
X181124272Y-101165694D01*
X181123037Y-101224971D01*
X181121520Y-101276236D01*
X181119692Y-101320233D01*
X181117526Y-101357705D01*
X181114993Y-101389395D01*
X181112066Y-101416047D01*
X181108716Y-101438405D01*
X181104916Y-101457211D01*
X181100638Y-101473210D01*
X181095853Y-101487144D01*
X181090534Y-101499757D01*
X181084652Y-101511793D01*
X181078180Y-101523994D01*
X181071089Y-101537106D01*
X181063351Y-101551870D01*
X181059923Y-101558700D01*
X181006129Y-101650560D01*
X180941586Y-101729555D01*
X180865360Y-101796620D01*
X180776515Y-101852691D01*
X180754700Y-101863882D01*
X180738942Y-101871943D01*
X180725215Y-101879338D01*
X180712771Y-101886095D01*
X180700863Y-101892244D01*
X180688742Y-101897814D01*
X180675661Y-101902833D01*
X180660871Y-101907332D01*
X180643625Y-101911338D01*
X180623175Y-101914882D01*
X180598772Y-101917992D01*
X180569668Y-101920698D01*
X180535117Y-101923028D01*
X180494368Y-101925012D01*
X180446676Y-101926679D01*
X180391291Y-101928057D01*
X180327465Y-101929177D01*
X180254452Y-101930067D01*
X180171502Y-101930756D01*
X180077867Y-101931274D01*
X179972800Y-101931649D01*
X179855553Y-101931910D01*
X179725378Y-101932088D01*
X179581526Y-101932210D01*
X179423251Y-101932306D01*
X179249802Y-101932405D01*
X179060434Y-101932537D01*
X178989400Y-101932597D01*
X178790123Y-101932754D01*
X178607118Y-101932856D01*
X178439722Y-101932898D01*
X178287274Y-101932876D01*
X178149112Y-101932787D01*
X178024575Y-101932625D01*
X177913000Y-101932388D01*
X177813726Y-101932072D01*
X177726091Y-101931671D01*
X177649433Y-101931184D01*
X177583091Y-101930605D01*
X177526402Y-101929930D01*
X177478705Y-101929157D01*
X177439339Y-101928280D01*
X177407640Y-101927296D01*
X177382949Y-101926201D01*
X177364602Y-101924990D01*
X177351938Y-101923661D01*
X177346867Y-101922820D01*
X177243183Y-101893536D01*
X177147550Y-101850093D01*
X177061081Y-101793646D01*
X176984884Y-101725349D01*
X176920070Y-101646358D01*
X176867749Y-101557827D01*
X176829032Y-101460912D01*
X176805477Y-101359685D01*
X176804183Y-101346668D01*
X176803010Y-101324681D01*
X176801958Y-101293200D01*
X176801022Y-101251704D01*
X176800202Y-101199670D01*
X176799495Y-101136577D01*
X176798899Y-101061901D01*
X176798410Y-100975121D01*
X176798028Y-100875715D01*
X176797749Y-100763161D01*
X176797571Y-100636935D01*
X176797492Y-100496516D01*
X176797510Y-100341382D01*
X176797621Y-100171011D01*
X176797825Y-99984880D01*
X176798118Y-99782467D01*
X176798128Y-99775837D01*
X177697817Y-99775837D01*
X177698890Y-99855335D01*
X177703101Y-99932115D01*
X177710406Y-100001344D01*
X177718308Y-100047400D01*
X177757064Y-100190293D01*
X177810405Y-100325915D01*
X177877546Y-100453305D01*
X177957697Y-100571502D01*
X178050073Y-100679545D01*
X178153885Y-100776475D01*
X178268348Y-100861331D01*
X178392673Y-100933152D01*
X178475299Y-100971104D01*
X178526610Y-100990703D01*
X178565944Y-101001253D01*
X178595545Y-101002904D01*
X178617655Y-100995803D01*
X178633415Y-100981533D01*
X178640588Y-100971131D01*
X178645423Y-100959292D01*
X178648283Y-100942794D01*
X178649529Y-100918419D01*
X178649521Y-100882944D01*
X178648846Y-100843950D01*
X178646500Y-100728967D01*
X178616867Y-100733200D01*
X178595106Y-100735065D01*
X178562134Y-100736449D01*
X178523670Y-100737147D01*
X178506800Y-100737184D01*
X178466487Y-100736464D01*
X178437036Y-100733815D01*
X178412396Y-100728063D01*
X178386513Y-100718034D01*
X178370583Y-100710752D01*
X178326379Y-100686592D01*
X178290358Y-100658155D01*
X178259339Y-100622007D01*
X178230140Y-100574713D01*
X178212378Y-100539986D01*
X178171594Y-100468542D01*
X178123471Y-100409150D01*
X178064329Y-100357329D01*
X178059415Y-100353673D01*
X178038471Y-100333430D01*
X178033049Y-100316007D01*
X178043107Y-100302931D01*
X178060952Y-100296861D01*
X178106532Y-100296668D01*
X178154212Y-100311820D01*
X178202102Y-100341203D01*
X178248314Y-100383705D01*
X178284221Y-100428400D01*
X178320946Y-100475973D01*
X178355869Y-100510515D01*
X178392613Y-100535039D01*
X178432835Y-100551909D01*
X178480257Y-100561037D01*
X178535044Y-100561012D01*
X178590469Y-100552070D01*
X178612620Y-100545610D01*
X178630717Y-100538456D01*
X178642750Y-100529150D01*
X178651968Y-100513405D01*
X178661616Y-100486932D01*
X178665038Y-100476388D01*
X178677789Y-100442385D01*
X178692732Y-100410713D01*
X178705388Y-100390044D01*
X178727175Y-100361480D01*
X178695304Y-100356072D01*
X178587670Y-100333560D01*
X178494787Y-100304689D01*
X178415429Y-100268698D01*
X178348365Y-100224829D01*
X178292369Y-100172322D01*
X178246211Y-100110418D01*
X178219531Y-100061981D01*
X178197617Y-100010855D01*
X178181026Y-99957001D01*
X178168635Y-99895872D01*
X178159323Y-99822924D01*
X178158495Y-99814567D01*
X178155679Y-99712555D01*
X178167712Y-99618363D01*
X178194551Y-99532163D01*
X178236153Y-99454126D01*
X178253768Y-99429333D01*
X178270002Y-99407139D01*
X178277498Y-99391486D01*
X178277784Y-99375451D01*
X178272392Y-99352112D01*
X178271544Y-99348900D01*
X178265670Y-99312156D01*
X178263466Y-99264832D01*
X178264680Y-99212821D01*
X178269060Y-99162017D01*
X178276352Y-99118313D01*
X178282350Y-99097017D01*
X178296725Y-99056800D01*
X178338019Y-99056800D01*
X178377567Y-99061586D01*
X178426677Y-99074953D01*
X178481293Y-99095418D01*
X178537360Y-99121498D01*
X178581086Y-99145739D01*
X178645891Y-99184690D01*
X178739329Y-99165662D01*
X178828576Y-99152391D01*
X178926883Y-99146228D01*
X179027941Y-99147177D01*
X179125439Y-99155242D01*
X179189505Y-99165381D01*
X179283777Y-99183937D01*
X179341351Y-99148960D01*
X179420995Y-99105474D01*
X179493729Y-99075872D01*
X179558786Y-99060449D01*
X179575065Y-99058745D01*
X179631563Y-99054618D01*
X179645721Y-99100159D01*
X179655254Y-99142025D01*
X179661564Y-99192595D01*
X179664409Y-99246076D01*
X179663543Y-99296673D01*
X179658723Y-99338593D01*
X179656221Y-99349544D01*
X179644578Y-99392522D01*
X179673436Y-99429978D01*
X179712361Y-99487414D01*
X179740456Y-99546130D01*
X179758798Y-99609771D01*
X179768462Y-99681984D01*
X179770609Y-99759534D01*
X179763261Y-99869874D01*
X179743514Y-99968925D01*
X179711413Y-100056590D01*
X179667001Y-100132774D01*
X179610320Y-100197381D01*
X179550077Y-100244747D01*
X179514068Y-100267300D01*
X179479506Y-100285962D01*
X179443378Y-100301760D01*
X179402671Y-100315722D01*
X179354372Y-100328875D01*
X179295466Y-100342247D01*
X179222942Y-100356866D01*
X179219166Y-100357598D01*
X179205395Y-100361730D01*
X179206535Y-100369165D01*
X179212421Y-100376113D01*
X179222893Y-100391323D01*
X179236880Y-100416249D01*
X179249355Y-100441330D01*
X179273034Y-100491900D01*
X179277267Y-100730218D01*
X179278590Y-100800466D01*
X179279878Y-100855758D01*
X179281288Y-100898068D01*
X179282978Y-100929372D01*
X179285104Y-100951646D01*
X179287824Y-100966865D01*
X179291294Y-100977004D01*
X179295672Y-100984039D01*
X179297629Y-100986335D01*
X179316123Y-100999193D01*
X179341630Y-101003131D01*
X179376096Y-100997960D01*
X179421464Y-100983486D01*
X179452701Y-100971104D01*
X179579357Y-100909393D01*
X179698453Y-100833462D01*
X179808698Y-100744705D01*
X179908801Y-100644515D01*
X179997473Y-100534288D01*
X180073423Y-100415416D01*
X180135361Y-100289293D01*
X180170121Y-100196114D01*
X180205097Y-100063546D01*
X180225895Y-99926219D01*
X180232397Y-99787294D01*
X180224485Y-99649930D01*
X180202041Y-99517287D01*
X180196411Y-99494009D01*
X180152821Y-99354156D01*
X180095102Y-99223250D01*
X180022792Y-99100480D01*
X179935425Y-98985034D01*
X179857217Y-98900236D01*
X179748215Y-98802762D01*
X179630218Y-98719537D01*
X179503036Y-98650460D01*
X179366483Y-98595428D01*
X179220370Y-98554341D01*
X179209534Y-98551931D01*
X179178760Y-98546050D01*
X179145951Y-98541756D01*
X179107839Y-98538839D01*
X179061152Y-98537090D01*
X179002621Y-98536299D01*
X178964000Y-98536197D01*
X178897521Y-98536548D01*
X178844693Y-98537742D01*
X178802246Y-98539987D01*
X178766911Y-98543494D01*
X178735417Y-98548472D01*
X178718467Y-98551931D01*
X178574346Y-98591554D01*
X178437429Y-98645535D01*
X178308854Y-98713183D01*
X178189763Y-98793809D01*
X178081293Y-98886723D01*
X177984585Y-98991233D01*
X177976411Y-99001293D01*
X177890854Y-99121127D01*
X177819874Y-99249521D01*
X177763585Y-99386231D01*
X177722099Y-99531011D01*
X177713873Y-99569341D01*
X177705263Y-99628009D01*
X177699926Y-99698452D01*
X177697817Y-99775837D01*
X176798128Y-99775837D01*
X176798204Y-99729900D01*
X176798534Y-99537648D01*
X176798858Y-99361596D01*
X176799185Y-99201011D01*
X176799521Y-99055161D01*
X176799875Y-98923312D01*
X176800255Y-98804731D01*
X176800667Y-98698686D01*
X176801119Y-98604444D01*
X176801620Y-98521270D01*
X176802176Y-98448434D01*
X176802796Y-98385201D01*
X176803487Y-98330838D01*
X176804256Y-98284614D01*
X176805111Y-98245793D01*
X176806060Y-98213645D01*
X176807111Y-98187434D01*
X176808271Y-98166430D01*
X176809547Y-98149898D01*
X176810948Y-98137106D01*
X176812480Y-98127321D01*
X176814152Y-98119809D01*
X176814983Y-98116875D01*
X176836319Y-98051820D01*
X176857930Y-97998089D01*
X176882243Y-97950207D01*
X176906235Y-97910951D01*
X176970487Y-97826497D01*
X177044704Y-97755128D01*
X177129633Y-97696313D01*
X177226018Y-97649523D01*
X177317233Y-97618887D01*
X177324371Y-97617170D01*
X177333377Y-97615597D01*
X177344981Y-97614161D01*
X177359911Y-97612857D01*
X177378894Y-97611679D01*
X177402659Y-97610619D01*
X177431933Y-97609672D01*
X177467445Y-97608832D01*
X177509922Y-97608093D01*
X177560093Y-97607447D01*
X177618686Y-97606889D01*
X177686428Y-97606413D01*
X177764048Y-97606012D01*
X177852274Y-97605681D01*
X177951834Y-97605412D01*
X178063455Y-97605200D01*
X178187865Y-97605038D01*
X178325794Y-97604921D01*
X178477968Y-97604841D01*
X178645116Y-97604793D01*
X178827966Y-97604771D01*
X178964000Y-97604767D01*
X179158136Y-97604775D01*
G37*
X179158136Y-97604775D02*
X179336066Y-97604805D01*
X179498519Y-97604862D01*
X179646223Y-97604952D01*
X179779906Y-97605083D01*
X179900295Y-97605259D01*
X180008119Y-97605488D01*
X180104106Y-97605776D01*
X180188984Y-97606128D01*
X180263480Y-97606551D01*
X180328324Y-97607052D01*
X180384242Y-97607636D01*
X180431963Y-97608310D01*
X180472215Y-97609080D01*
X180505726Y-97609953D01*
X180533223Y-97610933D01*
X180555436Y-97612029D01*
X180573092Y-97613246D01*
X180586918Y-97614590D01*
X180597644Y-97616067D01*
X180605996Y-97617684D01*
X180610767Y-97618887D01*
X180681423Y-97640906D01*
X180741242Y-97665304D01*
X180796315Y-97694729D01*
X180821049Y-97710235D01*
X180905503Y-97774487D01*
X180976872Y-97848704D01*
X181035687Y-97933633D01*
X181082477Y-98030018D01*
X181113113Y-98121233D01*
X181114828Y-98128362D01*
X181116400Y-98137359D01*
X181117834Y-98148953D01*
X181119136Y-98163869D01*
X181120314Y-98182834D01*
X181121373Y-98206577D01*
X181122320Y-98235824D01*
X181123160Y-98271301D01*
X181123899Y-98313736D01*
X181124545Y-98363856D01*
X181125104Y-98422387D01*
X181125580Y-98490058D01*
X181125982Y-98567594D01*
X181126314Y-98655723D01*
X181126584Y-98755171D01*
X181126797Y-98866667D01*
X181126959Y-98990936D01*
X181127077Y-99128706D01*
X181127158Y-99280704D01*
X181127206Y-99447656D01*
X181127229Y-99630290D01*
X181127234Y-99772234D01*
X181127256Y-99968709D01*
X181127304Y-100148995D01*
X181127349Y-100313834D01*
X181127365Y-100463971D01*
X181127322Y-100600148D01*
X181127193Y-100723109D01*
X181126949Y-100833597D01*
X181126564Y-100932356D01*
X181126008Y-101020130D01*
X181125253Y-101097661D01*
X181124272Y-101165694D01*
X181123037Y-101224971D01*
X181121520Y-101276236D01*
X181119692Y-101320233D01*
X181117526Y-101357705D01*
X181114993Y-101389395D01*
X181112066Y-101416047D01*
X181108716Y-101438405D01*
X181104916Y-101457211D01*
X181100638Y-101473210D01*
X181095853Y-101487144D01*
X181090534Y-101499757D01*
X181084652Y-101511793D01*
X181078180Y-101523994D01*
X181071089Y-101537106D01*
X181063351Y-101551870D01*
X181059923Y-101558700D01*
X181006129Y-101650560D01*
X180941586Y-101729555D01*
X180865360Y-101796620D01*
X180776515Y-101852691D01*
X180754700Y-101863882D01*
X180738942Y-101871943D01*
X180725215Y-101879338D01*
X180712771Y-101886095D01*
X180700863Y-101892244D01*
X180688742Y-101897814D01*
X180675661Y-101902833D01*
X180660871Y-101907332D01*
X180643625Y-101911338D01*
X180623175Y-101914882D01*
X180598772Y-101917992D01*
X180569668Y-101920698D01*
X180535117Y-101923028D01*
X180494368Y-101925012D01*
X180446676Y-101926679D01*
X180391291Y-101928057D01*
X180327465Y-101929177D01*
X180254452Y-101930067D01*
X180171502Y-101930756D01*
X180077867Y-101931274D01*
X179972800Y-101931649D01*
X179855553Y-101931910D01*
X179725378Y-101932088D01*
X179581526Y-101932210D01*
X179423251Y-101932306D01*
X179249802Y-101932405D01*
X179060434Y-101932537D01*
X178989400Y-101932597D01*
X178790123Y-101932754D01*
X178607118Y-101932856D01*
X178439722Y-101932898D01*
X178287274Y-101932876D01*
X178149112Y-101932787D01*
X178024575Y-101932625D01*
X177913000Y-101932388D01*
X177813726Y-101932072D01*
X177726091Y-101931671D01*
X177649433Y-101931184D01*
X177583091Y-101930605D01*
X177526402Y-101929930D01*
X177478705Y-101929157D01*
X177439339Y-101928280D01*
X177407640Y-101927296D01*
X177382949Y-101926201D01*
X177364602Y-101924990D01*
X177351938Y-101923661D01*
X177346867Y-101922820D01*
X177243183Y-101893536D01*
X177147550Y-101850093D01*
X177061081Y-101793646D01*
X176984884Y-101725349D01*
X176920070Y-101646358D01*
X176867749Y-101557827D01*
X176829032Y-101460912D01*
X176805477Y-101359685D01*
X176804183Y-101346668D01*
X176803010Y-101324681D01*
X176801958Y-101293200D01*
X176801022Y-101251704D01*
X176800202Y-101199670D01*
X176799495Y-101136577D01*
X176798899Y-101061901D01*
X176798410Y-100975121D01*
X176798028Y-100875715D01*
X176797749Y-100763161D01*
X176797571Y-100636935D01*
X176797492Y-100496516D01*
X176797510Y-100341382D01*
X176797621Y-100171011D01*
X176797825Y-99984880D01*
X176798118Y-99782467D01*
X176798128Y-99775837D01*
X177697817Y-99775837D01*
X177698890Y-99855335D01*
X177703101Y-99932115D01*
X177710406Y-100001344D01*
X177718308Y-100047400D01*
X177757064Y-100190293D01*
X177810405Y-100325915D01*
X177877546Y-100453305D01*
X177957697Y-100571502D01*
X178050073Y-100679545D01*
X178153885Y-100776475D01*
X178268348Y-100861331D01*
X178392673Y-100933152D01*
X178475299Y-100971104D01*
X178526610Y-100990703D01*
X178565944Y-101001253D01*
X178595545Y-101002904D01*
X178617655Y-100995803D01*
X178633415Y-100981533D01*
X178640588Y-100971131D01*
X178645423Y-100959292D01*
X178648283Y-100942794D01*
X178649529Y-100918419D01*
X178649521Y-100882944D01*
X178648846Y-100843950D01*
X178646500Y-100728967D01*
X178616867Y-100733200D01*
X178595106Y-100735065D01*
X178562134Y-100736449D01*
X178523670Y-100737147D01*
X178506800Y-100737184D01*
X178466487Y-100736464D01*
X178437036Y-100733815D01*
X178412396Y-100728063D01*
X178386513Y-100718034D01*
X178370583Y-100710752D01*
X178326379Y-100686592D01*
X178290358Y-100658155D01*
X178259339Y-100622007D01*
X178230140Y-100574713D01*
X178212378Y-100539986D01*
X178171594Y-100468542D01*
X178123471Y-100409150D01*
X178064329Y-100357329D01*
X178059415Y-100353673D01*
X178038471Y-100333430D01*
X178033049Y-100316007D01*
X178043107Y-100302931D01*
X178060952Y-100296861D01*
X178106532Y-100296668D01*
X178154212Y-100311820D01*
X178202102Y-100341203D01*
X178248314Y-100383705D01*
X178284221Y-100428400D01*
X178320946Y-100475973D01*
X178355869Y-100510515D01*
X178392613Y-100535039D01*
X178432835Y-100551909D01*
X178480257Y-100561037D01*
X178535044Y-100561012D01*
X178590469Y-100552070D01*
X178612620Y-100545610D01*
X178630717Y-100538456D01*
X178642750Y-100529150D01*
X178651968Y-100513405D01*
X178661616Y-100486932D01*
X178665038Y-100476388D01*
X178677789Y-100442385D01*
X178692732Y-100410713D01*
X178705388Y-100390044D01*
X178727175Y-100361480D01*
X178695304Y-100356072D01*
X178587670Y-100333560D01*
X178494787Y-100304689D01*
X178415429Y-100268698D01*
X178348365Y-100224829D01*
X178292369Y-100172322D01*
X178246211Y-100110418D01*
X178219531Y-100061981D01*
X178197617Y-100010855D01*
X178181026Y-99957001D01*
X178168635Y-99895872D01*
X178159323Y-99822924D01*
X178158495Y-99814567D01*
X178155679Y-99712555D01*
X178167712Y-99618363D01*
X178194551Y-99532163D01*
X178236153Y-99454126D01*
X178253768Y-99429333D01*
X178270002Y-99407139D01*
X178277498Y-99391486D01*
X178277784Y-99375451D01*
X178272392Y-99352112D01*
X178271544Y-99348900D01*
X178265670Y-99312156D01*
X178263466Y-99264832D01*
X178264680Y-99212821D01*
X178269060Y-99162017D01*
X178276352Y-99118313D01*
X178282350Y-99097017D01*
X178296725Y-99056800D01*
X178338019Y-99056800D01*
X178377567Y-99061586D01*
X178426677Y-99074953D01*
X178481293Y-99095418D01*
X178537360Y-99121498D01*
X178581086Y-99145739D01*
X178645891Y-99184690D01*
X178739329Y-99165662D01*
X178828576Y-99152391D01*
X178926883Y-99146228D01*
X179027941Y-99147177D01*
X179125439Y-99155242D01*
X179189505Y-99165381D01*
X179283777Y-99183937D01*
X179341351Y-99148960D01*
X179420995Y-99105474D01*
X179493729Y-99075872D01*
X179558786Y-99060449D01*
X179575065Y-99058745D01*
X179631563Y-99054618D01*
X179645721Y-99100159D01*
X179655254Y-99142025D01*
X179661564Y-99192595D01*
X179664409Y-99246076D01*
X179663543Y-99296673D01*
X179658723Y-99338593D01*
X179656221Y-99349544D01*
X179644578Y-99392522D01*
X179673436Y-99429978D01*
X179712361Y-99487414D01*
X179740456Y-99546130D01*
X179758798Y-99609771D01*
X179768462Y-99681984D01*
X179770609Y-99759534D01*
X179763261Y-99869874D01*
X179743514Y-99968925D01*
X179711413Y-100056590D01*
X179667001Y-100132774D01*
X179610320Y-100197381D01*
X179550077Y-100244747D01*
X179514068Y-100267300D01*
X179479506Y-100285962D01*
X179443378Y-100301760D01*
X179402671Y-100315722D01*
X179354372Y-100328875D01*
X179295466Y-100342247D01*
X179222942Y-100356866D01*
X179219166Y-100357598D01*
X179205395Y-100361730D01*
X179206535Y-100369165D01*
X179212421Y-100376113D01*
X179222893Y-100391323D01*
X179236880Y-100416249D01*
X179249355Y-100441330D01*
X179273034Y-100491900D01*
X179277267Y-100730218D01*
X179278590Y-100800466D01*
X179279878Y-100855758D01*
X179281288Y-100898068D01*
X179282978Y-100929372D01*
X179285104Y-100951646D01*
X179287824Y-100966865D01*
X179291294Y-100977004D01*
X179295672Y-100984039D01*
X179297629Y-100986335D01*
X179316123Y-100999193D01*
X179341630Y-101003131D01*
X179376096Y-100997960D01*
X179421464Y-100983486D01*
X179452701Y-100971104D01*
X179579357Y-100909393D01*
X179698453Y-100833462D01*
X179808698Y-100744705D01*
X179908801Y-100644515D01*
X179997473Y-100534288D01*
X180073423Y-100415416D01*
X180135361Y-100289293D01*
X180170121Y-100196114D01*
X180205097Y-100063546D01*
X180225895Y-99926219D01*
X180232397Y-99787294D01*
X180224485Y-99649930D01*
X180202041Y-99517287D01*
X180196411Y-99494009D01*
X180152821Y-99354156D01*
X180095102Y-99223250D01*
X180022792Y-99100480D01*
X179935425Y-98985034D01*
X179857217Y-98900236D01*
X179748215Y-98802762D01*
X179630218Y-98719537D01*
X179503036Y-98650460D01*
X179366483Y-98595428D01*
X179220370Y-98554341D01*
X179209534Y-98551931D01*
X179178760Y-98546050D01*
X179145951Y-98541756D01*
X179107839Y-98538839D01*
X179061152Y-98537090D01*
X179002621Y-98536299D01*
X178964000Y-98536197D01*
X178897521Y-98536548D01*
X178844693Y-98537742D01*
X178802246Y-98539987D01*
X178766911Y-98543494D01*
X178735417Y-98548472D01*
X178718467Y-98551931D01*
X178574346Y-98591554D01*
X178437429Y-98645535D01*
X178308854Y-98713183D01*
X178189763Y-98793809D01*
X178081293Y-98886723D01*
X177984585Y-98991233D01*
X177976411Y-99001293D01*
X177890854Y-99121127D01*
X177819874Y-99249521D01*
X177763585Y-99386231D01*
X177722099Y-99531011D01*
X177713873Y-99569341D01*
X177705263Y-99628009D01*
X177699926Y-99698452D01*
X177697817Y-99775837D01*
X176798128Y-99775837D01*
X176798204Y-99729900D01*
X176798534Y-99537648D01*
X176798858Y-99361596D01*
X176799185Y-99201011D01*
X176799521Y-99055161D01*
X176799875Y-98923312D01*
X176800255Y-98804731D01*
X176800667Y-98698686D01*
X176801119Y-98604444D01*
X176801620Y-98521270D01*
X176802176Y-98448434D01*
X176802796Y-98385201D01*
X176803487Y-98330838D01*
X176804256Y-98284614D01*
X176805111Y-98245793D01*
X176806060Y-98213645D01*
X176807111Y-98187434D01*
X176808271Y-98166430D01*
X176809547Y-98149898D01*
X176810948Y-98137106D01*
X176812480Y-98127321D01*
X176814152Y-98119809D01*
X176814983Y-98116875D01*
X176836319Y-98051820D01*
X176857930Y-97998089D01*
X176882243Y-97950207D01*
X176906235Y-97910951D01*
X176970487Y-97826497D01*
X177044704Y-97755128D01*
X177129633Y-97696313D01*
X177226018Y-97649523D01*
X177317233Y-97618887D01*
X177324371Y-97617170D01*
X177333377Y-97615597D01*
X177344981Y-97614161D01*
X177359911Y-97612857D01*
X177378894Y-97611679D01*
X177402659Y-97610619D01*
X177431933Y-97609672D01*
X177467445Y-97608832D01*
X177509922Y-97608093D01*
X177560093Y-97607447D01*
X177618686Y-97606889D01*
X177686428Y-97606413D01*
X177764048Y-97606012D01*
X177852274Y-97605681D01*
X177951834Y-97605412D01*
X178063455Y-97605200D01*
X178187865Y-97605038D01*
X178325794Y-97604921D01*
X178477968Y-97604841D01*
X178645116Y-97604793D01*
X178827966Y-97604771D01*
X178964000Y-97604767D01*
X179158136Y-97604775D01*
D10*
X155514001Y-95773000D02*
X154839001Y-95773000D01*
X156789001Y-95773000D02*
X156114001Y-95773000D01*
X155514001Y-96923000D02*
X154839001Y-96923000D01*
X156789001Y-96923000D02*
X156114001Y-96923000D01*
X154839001Y-95773000D02*
X154839001Y-96923000D01*
X156789001Y-95773000D02*
X156789001Y-96923000D01*
D12*
X150654000Y-92388000D02*
X148854000Y-92388000D01*
X145144000Y-92388000D02*
X146604000Y-92388000D01*
X145144000Y-101328000D02*
X146604000Y-101328000D01*
X150654000Y-101328000D02*
X148854000Y-101328000D01*
X145144000Y-101328000D02*
X145144000Y-92388000D01*
D10*
X154744000Y-95213000D02*
X154744000Y-94478000D01*
X155924000Y-92543000D02*
X155144000Y-92543000D01*
X155924000Y-95613000D02*
X155144000Y-95613000D01*
X154744000Y-93678000D02*
X154744000Y-92943000D01*
X156324000Y-93678000D02*
X156324000Y-92943000D01*
X156324000Y-95213000D02*
X156324000Y-94478000D01*
X154744000Y-92943000D02*
G75*
G02X155144000Y-92543000I400000J0D01*
G01*
X155924000Y-92543000D02*
G75*
G02X156324000Y-92943000I0J-400000D01*
G01*
X156324000Y-95213000D02*
G75*
G02X155924000Y-95613000I-400000J0D01*
G01*
X155144000Y-95613000D02*
G75*
G02X154744000Y-95213000I0J400000D01*
G01*
X157409000Y-92198000D02*
X156674000Y-92198000D01*
X154739000Y-91018000D02*
X154739000Y-91798000D01*
X157809000Y-91018000D02*
X157809000Y-91798000D01*
X155874000Y-92198000D02*
X155139000Y-92198000D01*
X155874000Y-90618000D02*
X155139000Y-90618000D01*
X157409000Y-90618000D02*
X156674000Y-90618000D01*
X155139000Y-92198000D02*
G75*
G02X154739000Y-91798000I0J400000D01*
G01*
X154739000Y-91018000D02*
G75*
G02X155139000Y-90618000I400000J0D01*
G01*
X157409000Y-90618000D02*
G75*
G02X157809000Y-91018000I0J-400000D01*
G01*
X157809000Y-91798000D02*
G75*
G02X157409000Y-92198000I-400000J0D01*
G01*
X180805000Y-103958000D02*
X180805000Y-104633000D01*
X180805000Y-102683000D02*
X180805000Y-103358000D01*
X181955000Y-103958000D02*
X181955000Y-104633000D01*
X181955000Y-102683000D02*
X181955000Y-103358000D01*
X180805000Y-104633000D02*
X181955000Y-104633000D01*
X180805000Y-102683000D02*
X181955000Y-102683000D01*
X180223000Y-104162990D02*
X179513000Y-104162990D01*
X180443000Y-103938000D02*
X180443000Y-103487990D01*
X179293000Y-103938000D02*
X179293000Y-103488000D01*
X180443000Y-102888000D02*
X180443000Y-102438000D01*
X179293000Y-102888000D02*
X179293000Y-102438000D01*
X180223000Y-102213000D02*
X179513000Y-102213000D01*
X180443000Y-103943000D02*
G75*
G02X180223000Y-104163000I-220000J0D01*
G01*
X179513000Y-104163000D02*
G75*
G02X179293000Y-103943000I0J220000D01*
G01*
X180223000Y-102213000D02*
G75*
G02X180443000Y-102433000I0J-220000D01*
G01*
X179293000Y-102433000D02*
G75*
G02X179513000Y-102213000I220000J0D01*
G01*
X177399000Y-104162990D02*
X176689000Y-104162990D01*
X177619000Y-103938000D02*
X177619000Y-103487990D01*
X176469000Y-103938000D02*
X176469000Y-103488000D01*
X177619000Y-102888000D02*
X177619000Y-102438000D01*
X176469000Y-102888000D02*
X176469000Y-102438000D01*
X177399000Y-102213000D02*
X176689000Y-102213000D01*
X177619000Y-103943000D02*
G75*
G02X177399000Y-104163000I-220000J0D01*
G01*
X176689000Y-104163000D02*
G75*
G02X176469000Y-103943000I0J220000D01*
G01*
X177399000Y-102213000D02*
G75*
G02X177619000Y-102433000I0J-220000D01*
G01*
X176469000Y-102433000D02*
G75*
G02X176689000Y-102213000I220000J0D01*
G01*
X179031000Y-102888000D02*
X179031000Y-102213000D01*
X179031000Y-104163000D02*
X179031000Y-103488000D01*
X177881000Y-102888000D02*
X177881000Y-102213000D01*
X177881000Y-104163000D02*
X177881000Y-103488000D01*
X179031000Y-102213000D02*
X177881000Y-102213000D01*
X179031000Y-104163000D02*
X177881000Y-104163000D01*
D12*
X171282198Y-104995113D02*
X172194366Y-105907281D01*
X170964000Y-105313311D02*
X171282198Y-104995113D01*
X170645802Y-104995113D02*
X170964000Y-105313311D01*
X165858689Y-100208000D02*
X166176887Y-99889802D01*
X166176887Y-100526198D02*
X165858689Y-100208000D01*
X176069311Y-100208000D02*
X175751113Y-100526198D01*
X175751113Y-99889802D02*
X176069311Y-100208000D01*
X170964000Y-95102689D02*
X170645802Y-95420887D01*
X171282198Y-95420887D02*
X170964000Y-95102689D01*
X152474000Y-108538000D02*
X152474000Y-107208000D01*
X153804000Y-108538000D02*
X152474000Y-108538000D01*
X155074000Y-108538000D02*
X155074000Y-105878000D01*
X155074000Y-105878000D02*
X167834000Y-105878000D01*
X155074000Y-108538000D02*
X167834000Y-108538000D01*
X167834000Y-108538000D02*
X167834000Y-105878000D01*
X185634000Y-89908000D02*
X186964000Y-89908000D01*
X185634000Y-91238000D02*
X185634000Y-89908000D01*
X188234000Y-89908000D02*
X190834000Y-89908000D01*
X188234000Y-92508000D02*
X188234000Y-89908000D01*
X185634000Y-92508000D02*
X188234000Y-92508000D01*
X190834000Y-89908000D02*
X190834000Y-102728000D01*
X185634000Y-92508000D02*
X185634000Y-102728000D01*
X185634000Y-102728000D02*
X190834000Y-102728000D01*
D10*
X166418990Y-89833000D02*
X166418990Y-90543000D01*
X166194000Y-89613000D02*
X165743990Y-89613000D01*
X166194000Y-90763000D02*
X165744000Y-90763000D01*
X165144000Y-89613000D02*
X164694000Y-89613000D01*
X165144000Y-90763000D02*
X164694000Y-90763000D01*
X164469000Y-89833000D02*
X164469000Y-90543000D01*
X166199000Y-89613000D02*
G75*
G02X166419000Y-89833000I0J-220000D01*
G01*
X166419000Y-90543000D02*
G75*
G02X166199000Y-90763000I-220000J0D01*
G01*
X164469000Y-89833000D02*
G75*
G02X164689000Y-89613000I220000J0D01*
G01*
X164689000Y-90763000D02*
G75*
G02X164469000Y-90543000I0J220000D01*
G01*
X170959000Y-107298000D02*
X170959000Y-106623000D01*
X170959000Y-108573000D02*
X170959000Y-107898000D01*
X169809000Y-107298000D02*
X169809000Y-106623000D01*
X169809000Y-108573000D02*
X169809000Y-107898000D01*
X170959000Y-106623000D02*
X169809000Y-106623000D01*
X170959000Y-108573000D02*
X169809000Y-108573000D01*
X176964000Y-95133000D02*
X177639000Y-95133000D01*
X175689000Y-95133000D02*
X176364000Y-95133000D01*
X176964000Y-93983000D02*
X177639000Y-93983000D01*
X175689000Y-93983000D02*
X176364000Y-93983000D01*
X177639000Y-95133000D02*
X177639000Y-93983000D01*
X175689000Y-95133000D02*
X175689000Y-93983000D01*
D14*
X157354000Y-100368000D02*
X157354000Y-105368000D01*
X161154000Y-100368000D02*
X161154000Y-105368000D01*
X157354000Y-100368000D02*
X161154000Y-100368000D01*
X157354000Y-105368000D02*
X161154000Y-105368000D01*
D15*
X158254000Y-101068000D02*
G75*
G03X158254000Y-101068000I-200000J0D01*
G01*
D16*
X155654000Y-100070500D02*
G75*
G03X155654000Y-100070500I-150000J0D01*
G01*
D10*
X177659000Y-90643010D02*
X178369000Y-90643010D01*
X177439000Y-90868000D02*
X177439000Y-91318010D01*
X178589000Y-90868000D02*
X178589000Y-91318000D01*
X177439000Y-91918000D02*
X177439000Y-92368000D01*
X178589000Y-91918000D02*
X178589000Y-92368000D01*
X177659000Y-92593000D02*
X178369000Y-92593000D01*
X177439000Y-90863000D02*
G75*
G02X177659000Y-90643000I220000J0D01*
G01*
X178369000Y-90643000D02*
G75*
G02X178589000Y-90863000I0J-220000D01*
G01*
X177659000Y-92593000D02*
G75*
G02X177439000Y-92373000I0J220000D01*
G01*
X178589000Y-92373000D02*
G75*
G02X178369000Y-92593000I-220000J0D01*
G01*
X184169000Y-93442990D02*
X183459000Y-93442990D01*
X184389000Y-93218000D02*
X184389000Y-92767990D01*
X183239000Y-93218000D02*
X183239000Y-92768000D01*
X184389000Y-92168000D02*
X184389000Y-91718000D01*
X183239000Y-92168000D02*
X183239000Y-91718000D01*
X184169000Y-91493000D02*
X183459000Y-91493000D01*
X184389000Y-93223000D02*
G75*
G02X184169000Y-93443000I-220000J0D01*
G01*
X183459000Y-93443000D02*
G75*
G02X183239000Y-93223000I0J220000D01*
G01*
X184169000Y-91493000D02*
G75*
G02X184389000Y-91713000I0J-220000D01*
G01*
X183239000Y-91713000D02*
G75*
G02X183459000Y-91493000I220000J0D01*
G01*
X171289010Y-107723000D02*
X171289010Y-107013000D01*
X171514000Y-107943000D02*
X171964010Y-107943000D01*
X171514000Y-106793000D02*
X171964000Y-106793000D01*
X172564000Y-107943000D02*
X173014000Y-107943000D01*
X172564000Y-106793000D02*
X173014000Y-106793000D01*
X173239000Y-107723000D02*
X173239000Y-107013000D01*
X171509000Y-107943000D02*
G75*
G02X171289000Y-107723000I0J220000D01*
G01*
X171289000Y-107013000D02*
G75*
G02X171509000Y-106793000I220000J0D01*
G01*
X173239000Y-107723000D02*
G75*
G02X173019000Y-107943000I-220000J0D01*
G01*
X173019000Y-106793000D02*
G75*
G02X173239000Y-107013000I0J-220000D01*
G01*
X151874000Y-102913000D02*
X151199000Y-102913000D01*
X153149000Y-102913000D02*
X152474000Y-102913000D01*
X151874000Y-104063000D02*
X151199000Y-104063000D01*
X153149000Y-104063000D02*
X152474000Y-104063000D01*
X151199000Y-102913000D02*
X151199000Y-104063000D01*
X153149000Y-102913000D02*
X153149000Y-104063000D01*
X155514001Y-96973000D02*
X154839001Y-96973000D01*
X156789001Y-96973000D02*
X156114001Y-96973000D01*
X155514001Y-98123000D02*
X154839001Y-98123000D01*
X156789001Y-98123000D02*
X156114001Y-98123000D01*
X154839001Y-96973000D02*
X154839001Y-98123000D01*
X156789001Y-96973000D02*
X156789001Y-98123000D01*
X182638990Y-107013000D02*
X182638990Y-107723000D01*
X182414000Y-106793000D02*
X181963990Y-106793000D01*
X182414000Y-107943000D02*
X181964000Y-107943000D01*
X181364000Y-106793000D02*
X180914000Y-106793000D01*
X181364000Y-107943000D02*
X180914000Y-107943000D01*
X180689000Y-107013000D02*
X180689000Y-107723000D01*
X182419000Y-106793000D02*
G75*
G02X182639000Y-107013000I0J-220000D01*
G01*
X182639000Y-107723000D02*
G75*
G02X182419000Y-107943000I-220000J0D01*
G01*
X180689000Y-107013000D02*
G75*
G02X180909000Y-106793000I220000J0D01*
G01*
X180909000Y-107943000D02*
G75*
G02X180689000Y-107723000I0J220000D01*
G01*
X179259000Y-95958000D02*
X179259000Y-95283000D01*
X179259000Y-97233000D02*
X179259000Y-96558000D01*
X178109000Y-95958000D02*
X178109000Y-95283000D01*
X178109000Y-97233000D02*
X178109000Y-96558000D01*
X179259000Y-95283000D02*
X178109000Y-95283000D01*
X179259000Y-97233000D02*
X178109000Y-97233000D01*
D14*
X180289000Y-108468000D02*
X173639000Y-108468000D01*
X180289000Y-107568000D02*
X180289000Y-108468000D01*
X173639000Y-107568000D02*
X173639000Y-108468000D01*
X180289000Y-105268000D02*
X180289000Y-106168000D01*
X173639000Y-105268000D02*
X173639000Y-106168000D01*
X180289000Y-105268000D02*
X173639000Y-105268000D01*
D10*
X181659000Y-89962990D02*
X180949000Y-89962990D01*
X181879000Y-89738000D02*
X181879000Y-89287990D01*
X180729000Y-89738000D02*
X180729000Y-89288000D01*
X181879000Y-88688000D02*
X181879000Y-88238000D01*
X180729000Y-88688000D02*
X180729000Y-88238000D01*
X181659000Y-88013000D02*
X180949000Y-88013000D01*
X181879000Y-89743000D02*
G75*
G02X181659000Y-89963000I-220000J0D01*
G01*
X180949000Y-89963000D02*
G75*
G02X180729000Y-89743000I0J220000D01*
G01*
X181659000Y-88013000D02*
G75*
G02X181879000Y-88233000I0J-220000D01*
G01*
X180729000Y-88233000D02*
G75*
G02X180949000Y-88013000I220000J0D01*
G01*
X164778990Y-99063000D02*
X164778990Y-99773000D01*
X164554000Y-98843000D02*
X164103990Y-98843000D01*
X164554000Y-99993000D02*
X164104000Y-99993000D01*
X163504000Y-98843000D02*
X163054000Y-98843000D01*
X163504000Y-99993000D02*
X163054000Y-99993000D01*
X162829000Y-99063000D02*
X162829000Y-99773000D01*
X164559000Y-98843000D02*
G75*
G02X164779000Y-99063000I0J-220000D01*
G01*
X164779000Y-99773000D02*
G75*
G02X164559000Y-99993000I-220000J0D01*
G01*
X162829000Y-99063000D02*
G75*
G02X163049000Y-98843000I220000J0D01*
G01*
X163049000Y-99993000D02*
G75*
G02X162829000Y-99773000I0J220000D01*
G01*
X172259000Y-93962990D02*
X171549000Y-93962990D01*
X172479000Y-93738000D02*
X172479000Y-93287990D01*
X171329000Y-93738000D02*
X171329000Y-93288000D01*
X172479000Y-92688000D02*
X172479000Y-92238000D01*
X171329000Y-92688000D02*
X171329000Y-92238000D01*
X172259000Y-92013000D02*
X171549000Y-92013000D01*
X172479000Y-93743000D02*
G75*
G02X172259000Y-93963000I-220000J0D01*
G01*
X171549000Y-93963000D02*
G75*
G02X171329000Y-93743000I0J220000D01*
G01*
X172259000Y-92013000D02*
G75*
G02X172479000Y-92233000I0J-220000D01*
G01*
X171329000Y-92233000D02*
G75*
G02X171549000Y-92013000I220000J0D01*
G01*
X181789000Y-92778000D02*
X181789000Y-93453000D01*
X181789000Y-91503000D02*
X181789000Y-92178000D01*
X182939000Y-92778000D02*
X182939000Y-93453000D01*
X182939000Y-91503000D02*
X182939000Y-92178000D01*
X181789000Y-93453000D02*
X182939000Y-93453000D01*
X181789000Y-91503000D02*
X182939000Y-91503000D01*
X158264000Y-99523000D02*
X158939000Y-99523000D01*
X156989000Y-99523000D02*
X157664000Y-99523000D01*
X158264000Y-98373000D02*
X158939000Y-98373000D01*
X156989000Y-98373000D02*
X157664000Y-98373000D01*
X158939000Y-99523000D02*
X158939000Y-98373000D01*
X156989000Y-99523000D02*
X156989000Y-98373000D01*
X157499000Y-95562990D02*
X156789000Y-95562990D01*
X157719000Y-95338000D02*
X157719000Y-94887990D01*
X156569000Y-95338000D02*
X156569000Y-94888000D01*
X157719000Y-94288000D02*
X157719000Y-93838000D01*
X156569000Y-94288000D02*
X156569000Y-93838000D01*
X157499000Y-93613000D02*
X156789000Y-93613000D01*
X157719000Y-95343000D02*
G75*
G02X157499000Y-95563000I-220000J0D01*
G01*
X156789000Y-95563000D02*
G75*
G02X156569000Y-95343000I0J220000D01*
G01*
X157499000Y-93613000D02*
G75*
G02X157719000Y-93833000I0J-220000D01*
G01*
X156569000Y-93833000D02*
G75*
G02X156789000Y-93613000I220000J0D01*
G01*
X183629000Y-103958000D02*
X183629000Y-104633000D01*
X183629000Y-102683000D02*
X183629000Y-103358000D01*
X184779000Y-103958000D02*
X184779000Y-104633000D01*
X184779000Y-102683000D02*
X184779000Y-103358000D01*
X183629000Y-104633000D02*
X184779000Y-104633000D01*
X183629000Y-102683000D02*
X184779000Y-102683000D01*
X169559000Y-107298000D02*
X169559000Y-106623000D01*
X169559000Y-108573000D02*
X169559000Y-107898000D01*
X168409000Y-107298000D02*
X168409000Y-106623000D01*
X168409000Y-108573000D02*
X168409000Y-107898000D01*
X169559000Y-106623000D02*
X168409000Y-106623000D01*
X169559000Y-108573000D02*
X168409000Y-108573000D01*
X156114001Y-99523000D02*
X156789001Y-99523000D01*
X154839001Y-99523000D02*
X155514001Y-99523000D01*
X156114001Y-98373000D02*
X156789001Y-98373000D01*
X154839001Y-98373000D02*
X155514001Y-98373000D01*
X156789001Y-99523000D02*
X156789001Y-98373000D01*
X154839001Y-99523000D02*
X154839001Y-98373000D01*
X182217000Y-103958000D02*
X182217000Y-104633000D01*
X182217000Y-102683000D02*
X182217000Y-103358000D01*
X183367000Y-103958000D02*
X183367000Y-104633000D01*
X183367000Y-102683000D02*
X183367000Y-103358000D01*
X182217000Y-104633000D02*
X183367000Y-104633000D01*
X182217000Y-102683000D02*
X183367000Y-102683000D01*
X180349000Y-88688000D02*
X180349000Y-88013000D01*
X180349000Y-89963000D02*
X180349000Y-89288000D01*
X179199000Y-88688000D02*
X179199000Y-88013000D01*
X179199000Y-89963000D02*
X179199000Y-89288000D01*
X180349000Y-88013000D02*
X179199000Y-88013000D01*
X180349000Y-89963000D02*
X179199000Y-89963000D01*
D12*
X153014000Y-86698000D02*
X153014000Y-85368000D01*
X154344000Y-86698000D02*
X153014000Y-86698000D01*
X155614000Y-86698000D02*
X155614000Y-84038000D01*
X155614000Y-84038000D02*
X175994000Y-84038000D01*
X155614000Y-86698000D02*
X175994000Y-86698000D01*
X175994000Y-86698000D02*
X175994000Y-84038000D01*
X178324000Y-87628000D02*
X181724000Y-87628000D01*
X176684000Y-87628000D02*
X177224000Y-87628000D01*
X183884000Y-90458000D02*
X183884000Y-90968000D01*
X183364000Y-90968000D02*
X183884000Y-90968000D01*
X183364000Y-90458000D02*
X183364000Y-90968000D01*
X182824000Y-87628000D02*
X183364000Y-87628000D01*
X176164000Y-90458000D02*
X176164000Y-90968000D01*
X176684000Y-90458000D02*
X176684000Y-90968000D01*
X183364000Y-87628000D02*
X183364000Y-87858000D01*
X176164000Y-83958000D02*
X176164000Y-87858000D01*
X176164000Y-90968000D02*
X176684000Y-90968000D01*
X183884000Y-83958000D02*
X183884000Y-87858000D01*
X176164000Y-83958000D02*
X183884000Y-83958000D01*
X176684000Y-87628000D02*
X176684000Y-87858000D01*
D14*
X160974000Y-90048000D02*
X160974000Y-96048000D01*
X163774000Y-90048000D02*
X160974000Y-90048000D01*
X163774000Y-90048000D02*
X163774000Y-96048000D01*
X163774000Y-96048000D02*
X160974000Y-96048000D01*
D10*
X151864000Y-89723000D02*
X151189000Y-89723000D01*
X153139000Y-89723000D02*
X152464000Y-89723000D01*
X151864000Y-90873000D02*
X151189000Y-90873000D01*
X153139000Y-90873000D02*
X152464000Y-90873000D01*
X151189000Y-89723000D02*
X151189000Y-90873000D01*
X153139000Y-89723000D02*
X153139000Y-90873000D01*
M02*
