G04 #@! TF.GenerationSoftware,KiCad,Pcbnew,5.1.5-52549c5~84~ubuntu18.04.1*
G04 #@! TF.CreationDate,2019-11-30T22:40:06+08:00*
G04 #@! TF.ProjectId,dap-stm32f103,6461702d-7374-46d3-9332-663130332e6b,rev?*
G04 #@! TF.SameCoordinates,Original*
G04 #@! TF.FileFunction,Legend,Top*
G04 #@! TF.FilePolarity,Positive*
%FSLAX46Y46*%
G04 Gerber Fmt 4.6, Leading zero omitted, Abs format (unit mm)*
G04 Created by KiCad (PCBNEW 5.1.5-52549c5~84~ubuntu18.04.1) date 2019-11-30 22:40:06*
%MOMM*%
%LPD*%
G04 APERTURE LIST*
%ADD10C,0.150000*%
%ADD11C,0.200000*%
%ADD12C,0.120000*%
%ADD13C,0.010000*%
%ADD14C,0.254000*%
%ADD15C,0.400000*%
%ADD16C,0.300000*%
G04 APERTURE END LIST*
D10*
X159452095Y-88570380D02*
X159118761Y-88094190D01*
X158880666Y-88570380D02*
X158880666Y-87570380D01*
X159261619Y-87570380D01*
X159356857Y-87618000D01*
X159404476Y-87665619D01*
X159452095Y-87760857D01*
X159452095Y-87903714D01*
X159404476Y-87998952D01*
X159356857Y-88046571D01*
X159261619Y-88094190D01*
X158880666Y-88094190D01*
X159737809Y-87570380D02*
X160309238Y-87570380D01*
X160023523Y-88570380D02*
X160023523Y-87570380D01*
X160642571Y-88189428D02*
X161404476Y-88189428D01*
X161737809Y-87570380D02*
X162309238Y-87570380D01*
X162023523Y-88570380D02*
X162023523Y-87570380D01*
X162642571Y-88570380D02*
X162642571Y-87570380D01*
X163071142Y-88570380D02*
X163071142Y-88046571D01*
X163023523Y-87951333D01*
X162928285Y-87903714D01*
X162785428Y-87903714D01*
X162690190Y-87951333D01*
X162642571Y-87998952D01*
X163547333Y-88570380D02*
X163547333Y-87903714D01*
X163547333Y-88094190D02*
X163594952Y-87998952D01*
X163642571Y-87951333D01*
X163737809Y-87903714D01*
X163833047Y-87903714D01*
X164547333Y-88522761D02*
X164452095Y-88570380D01*
X164261619Y-88570380D01*
X164166380Y-88522761D01*
X164118761Y-88427523D01*
X164118761Y-88046571D01*
X164166380Y-87951333D01*
X164261619Y-87903714D01*
X164452095Y-87903714D01*
X164547333Y-87951333D01*
X164594952Y-88046571D01*
X164594952Y-88141809D01*
X164118761Y-88237047D01*
X165452095Y-88570380D02*
X165452095Y-88046571D01*
X165404476Y-87951333D01*
X165309238Y-87903714D01*
X165118761Y-87903714D01*
X165023523Y-87951333D01*
X165452095Y-88522761D02*
X165356857Y-88570380D01*
X165118761Y-88570380D01*
X165023523Y-88522761D01*
X164975904Y-88427523D01*
X164975904Y-88332285D01*
X165023523Y-88237047D01*
X165118761Y-88189428D01*
X165356857Y-88189428D01*
X165452095Y-88141809D01*
X166356857Y-88570380D02*
X166356857Y-87570380D01*
X166356857Y-88522761D02*
X166261619Y-88570380D01*
X166071142Y-88570380D01*
X165975904Y-88522761D01*
X165928285Y-88475142D01*
X165880666Y-88379904D01*
X165880666Y-88094190D01*
X165928285Y-87998952D01*
X165975904Y-87951333D01*
X166071142Y-87903714D01*
X166261619Y-87903714D01*
X166356857Y-87951333D01*
X167594952Y-88570380D02*
X167594952Y-87570380D01*
X168071142Y-87903714D02*
X168071142Y-88570380D01*
X168071142Y-87998952D02*
X168118761Y-87951333D01*
X168214000Y-87903714D01*
X168356857Y-87903714D01*
X168452095Y-87951333D01*
X168499714Y-88046571D01*
X168499714Y-88570380D01*
X168928285Y-88522761D02*
X169023523Y-88570380D01*
X169214000Y-88570380D01*
X169309238Y-88522761D01*
X169356857Y-88427523D01*
X169356857Y-88379904D01*
X169309238Y-88284666D01*
X169214000Y-88237047D01*
X169071142Y-88237047D01*
X168975904Y-88189428D01*
X168928285Y-88094190D01*
X168928285Y-88046571D01*
X168975904Y-87951333D01*
X169071142Y-87903714D01*
X169214000Y-87903714D01*
X169309238Y-87951333D01*
X169785428Y-88570380D02*
X169785428Y-87903714D01*
X169785428Y-87570380D02*
X169737809Y-87618000D01*
X169785428Y-87665619D01*
X169833047Y-87618000D01*
X169785428Y-87570380D01*
X169785428Y-87665619D01*
X170690190Y-88570380D02*
X170690190Y-87570380D01*
X170690190Y-88522761D02*
X170594952Y-88570380D01*
X170404476Y-88570380D01*
X170309238Y-88522761D01*
X170261619Y-88475142D01*
X170214000Y-88379904D01*
X170214000Y-88094190D01*
X170261619Y-87998952D01*
X170309238Y-87951333D01*
X170404476Y-87903714D01*
X170594952Y-87903714D01*
X170690190Y-87951333D01*
X171547333Y-88522761D02*
X171452095Y-88570380D01*
X171261619Y-88570380D01*
X171166380Y-88522761D01*
X171118761Y-88427523D01*
X171118761Y-88046571D01*
X171166380Y-87951333D01*
X171261619Y-87903714D01*
X171452095Y-87903714D01*
X171547333Y-87951333D01*
X171594952Y-88046571D01*
X171594952Y-88141809D01*
X171118761Y-88237047D01*
D11*
X167716380Y-91206095D02*
X167716380Y-89906095D01*
X168025904Y-89906095D01*
X168211619Y-89968000D01*
X168335428Y-90091809D01*
X168397333Y-90215619D01*
X168459238Y-90463238D01*
X168459238Y-90648952D01*
X168397333Y-90896571D01*
X168335428Y-91020380D01*
X168211619Y-91144190D01*
X168025904Y-91206095D01*
X167716380Y-91206095D01*
X168954476Y-90834666D02*
X169573523Y-90834666D01*
X168830666Y-91206095D02*
X169264000Y-89906095D01*
X169697333Y-91206095D01*
X170130666Y-91206095D02*
X170130666Y-89906095D01*
X170625904Y-89906095D01*
X170749714Y-89968000D01*
X170811619Y-90029904D01*
X170873523Y-90153714D01*
X170873523Y-90339428D01*
X170811619Y-90463238D01*
X170749714Y-90525142D01*
X170625904Y-90587047D01*
X170130666Y-90587047D01*
X172049714Y-91206095D02*
X171430666Y-91206095D01*
X171430666Y-89906095D01*
X172483047Y-91206095D02*
X172483047Y-90339428D01*
X172483047Y-89906095D02*
X172421142Y-89968000D01*
X172483047Y-90029904D01*
X172544952Y-89968000D01*
X172483047Y-89906095D01*
X172483047Y-90029904D01*
X173102095Y-90339428D02*
X173102095Y-91206095D01*
X173102095Y-90463238D02*
X173164000Y-90401333D01*
X173287809Y-90339428D01*
X173473523Y-90339428D01*
X173597333Y-90401333D01*
X173659238Y-90525142D01*
X173659238Y-91206095D01*
X174278285Y-91206095D02*
X174278285Y-89906095D01*
X174402095Y-90710857D02*
X174773523Y-91206095D01*
X174773523Y-90339428D02*
X174278285Y-90834666D01*
D10*
X194896380Y-92215142D02*
X194944000Y-92262761D01*
X194991619Y-92358000D01*
X194991619Y-92596095D01*
X194944000Y-92691333D01*
X194896380Y-92738952D01*
X194801142Y-92786571D01*
X194705904Y-92786571D01*
X194563047Y-92738952D01*
X193991619Y-92167523D01*
X193991619Y-92786571D01*
X194991619Y-93691333D02*
X194991619Y-93215142D01*
X194515428Y-93167523D01*
X194563047Y-93215142D01*
X194610666Y-93310380D01*
X194610666Y-93548476D01*
X194563047Y-93643714D01*
X194515428Y-93691333D01*
X194420190Y-93738952D01*
X194182095Y-93738952D01*
X194086857Y-93691333D01*
X194039238Y-93643714D01*
X193991619Y-93548476D01*
X193991619Y-93310380D01*
X194039238Y-93215142D01*
X194086857Y-93167523D01*
X194086857Y-94167523D02*
X194039238Y-94215142D01*
X193991619Y-94167523D01*
X194039238Y-94119904D01*
X194086857Y-94167523D01*
X193991619Y-94167523D01*
X194991619Y-94834190D02*
X194991619Y-94929428D01*
X194944000Y-95024666D01*
X194896380Y-95072285D01*
X194801142Y-95119904D01*
X194610666Y-95167523D01*
X194372571Y-95167523D01*
X194182095Y-95119904D01*
X194086857Y-95072285D01*
X194039238Y-95024666D01*
X193991619Y-94929428D01*
X193991619Y-94834190D01*
X194039238Y-94738952D01*
X194086857Y-94691333D01*
X194182095Y-94643714D01*
X194372571Y-94596095D01*
X194610666Y-94596095D01*
X194801142Y-94643714D01*
X194896380Y-94691333D01*
X194944000Y-94738952D01*
X194991619Y-94834190D01*
X194991619Y-95786571D02*
X194991619Y-95881809D01*
X194944000Y-95977047D01*
X194896380Y-96024666D01*
X194801142Y-96072285D01*
X194610666Y-96119904D01*
X194372571Y-96119904D01*
X194182095Y-96072285D01*
X194086857Y-96024666D01*
X194039238Y-95977047D01*
X193991619Y-95881809D01*
X193991619Y-95786571D01*
X194039238Y-95691333D01*
X194086857Y-95643714D01*
X194182095Y-95596095D01*
X194372571Y-95548476D01*
X194610666Y-95548476D01*
X194801142Y-95596095D01*
X194896380Y-95643714D01*
X194944000Y-95691333D01*
X194991619Y-95786571D01*
X194991619Y-96738952D02*
X194991619Y-96834190D01*
X194944000Y-96929428D01*
X194896380Y-96977047D01*
X194801142Y-97024666D01*
X194610666Y-97072285D01*
X194372571Y-97072285D01*
X194182095Y-97024666D01*
X194086857Y-96977047D01*
X194039238Y-96929428D01*
X193991619Y-96834190D01*
X193991619Y-96738952D01*
X194039238Y-96643714D01*
X194086857Y-96596095D01*
X194182095Y-96548476D01*
X194372571Y-96500857D01*
X194610666Y-96500857D01*
X194801142Y-96548476D01*
X194896380Y-96596095D01*
X194944000Y-96643714D01*
X194991619Y-96738952D01*
X193991619Y-98262761D02*
X194658285Y-98262761D01*
X194563047Y-98262761D02*
X194610666Y-98310380D01*
X194658285Y-98405619D01*
X194658285Y-98548476D01*
X194610666Y-98643714D01*
X194515428Y-98691333D01*
X193991619Y-98691333D01*
X194515428Y-98691333D02*
X194610666Y-98738952D01*
X194658285Y-98834190D01*
X194658285Y-98977047D01*
X194610666Y-99072285D01*
X194515428Y-99119904D01*
X193991619Y-99119904D01*
X193991619Y-99596095D02*
X194658285Y-99596095D01*
X194563047Y-99596095D02*
X194610666Y-99643714D01*
X194658285Y-99738952D01*
X194658285Y-99881809D01*
X194610666Y-99977047D01*
X194515428Y-100024666D01*
X193991619Y-100024666D01*
X194515428Y-100024666D02*
X194610666Y-100072285D01*
X194658285Y-100167523D01*
X194658285Y-100310380D01*
X194610666Y-100405619D01*
X194515428Y-100453238D01*
X193991619Y-100453238D01*
D12*
X193174000Y-83858000D02*
X193174000Y-108858000D01*
X187174000Y-83858000D02*
X193760421Y-83858000D01*
X187174000Y-108858000D02*
X193760421Y-108858000D01*
X193174000Y-108858000D02*
X192587579Y-107731496D01*
X193174000Y-108858000D02*
X193760421Y-107731496D01*
X193174000Y-83858000D02*
X192587579Y-84984504D01*
X193174000Y-83858000D02*
X193760421Y-84984504D01*
D10*
X164797333Y-79383714D02*
X164797333Y-80050380D01*
X164559238Y-79002761D02*
X164321142Y-79717047D01*
X164940190Y-79717047D01*
X165797333Y-79050380D02*
X165321142Y-79050380D01*
X165273523Y-79526571D01*
X165321142Y-79478952D01*
X165416380Y-79431333D01*
X165654476Y-79431333D01*
X165749714Y-79478952D01*
X165797333Y-79526571D01*
X165844952Y-79621809D01*
X165844952Y-79859904D01*
X165797333Y-79955142D01*
X165749714Y-80002761D01*
X165654476Y-80050380D01*
X165416380Y-80050380D01*
X165321142Y-80002761D01*
X165273523Y-79955142D01*
X166273523Y-79955142D02*
X166321142Y-80002761D01*
X166273523Y-80050380D01*
X166225904Y-80002761D01*
X166273523Y-79955142D01*
X166273523Y-80050380D01*
X166940190Y-79050380D02*
X167035428Y-79050380D01*
X167130666Y-79098000D01*
X167178285Y-79145619D01*
X167225904Y-79240857D01*
X167273523Y-79431333D01*
X167273523Y-79669428D01*
X167225904Y-79859904D01*
X167178285Y-79955142D01*
X167130666Y-80002761D01*
X167035428Y-80050380D01*
X166940190Y-80050380D01*
X166844952Y-80002761D01*
X166797333Y-79955142D01*
X166749714Y-79859904D01*
X166702095Y-79669428D01*
X166702095Y-79431333D01*
X166749714Y-79240857D01*
X166797333Y-79145619D01*
X166844952Y-79098000D01*
X166940190Y-79050380D01*
X167892571Y-79050380D02*
X167987809Y-79050380D01*
X168083047Y-79098000D01*
X168130666Y-79145619D01*
X168178285Y-79240857D01*
X168225904Y-79431333D01*
X168225904Y-79669428D01*
X168178285Y-79859904D01*
X168130666Y-79955142D01*
X168083047Y-80002761D01*
X167987809Y-80050380D01*
X167892571Y-80050380D01*
X167797333Y-80002761D01*
X167749714Y-79955142D01*
X167702095Y-79859904D01*
X167654476Y-79669428D01*
X167654476Y-79431333D01*
X167702095Y-79240857D01*
X167749714Y-79145619D01*
X167797333Y-79098000D01*
X167892571Y-79050380D01*
X168844952Y-79050380D02*
X168940190Y-79050380D01*
X169035428Y-79098000D01*
X169083047Y-79145619D01*
X169130666Y-79240857D01*
X169178285Y-79431333D01*
X169178285Y-79669428D01*
X169130666Y-79859904D01*
X169083047Y-79955142D01*
X169035428Y-80002761D01*
X168940190Y-80050380D01*
X168844952Y-80050380D01*
X168749714Y-80002761D01*
X168702095Y-79955142D01*
X168654476Y-79859904D01*
X168606857Y-79669428D01*
X168606857Y-79431333D01*
X168654476Y-79240857D01*
X168702095Y-79145619D01*
X168749714Y-79098000D01*
X168844952Y-79050380D01*
X170368761Y-80050380D02*
X170368761Y-79383714D01*
X170368761Y-79478952D02*
X170416380Y-79431333D01*
X170511619Y-79383714D01*
X170654476Y-79383714D01*
X170749714Y-79431333D01*
X170797333Y-79526571D01*
X170797333Y-80050380D01*
X170797333Y-79526571D02*
X170844952Y-79431333D01*
X170940190Y-79383714D01*
X171083047Y-79383714D01*
X171178285Y-79431333D01*
X171225904Y-79526571D01*
X171225904Y-80050380D01*
X171702095Y-80050380D02*
X171702095Y-79383714D01*
X171702095Y-79478952D02*
X171749714Y-79431333D01*
X171844952Y-79383714D01*
X171987809Y-79383714D01*
X172083047Y-79431333D01*
X172130666Y-79526571D01*
X172130666Y-80050380D01*
X172130666Y-79526571D02*
X172178285Y-79431333D01*
X172273523Y-79383714D01*
X172416380Y-79383714D01*
X172511619Y-79431333D01*
X172559238Y-79526571D01*
X172559238Y-80050380D01*
D12*
X145964000Y-80868000D02*
X190964000Y-80868000D01*
X145964000Y-86868000D02*
X145964000Y-80281579D01*
X190964000Y-86868000D02*
X190964000Y-80281579D01*
X190964000Y-80868000D02*
X189837496Y-81454421D01*
X190964000Y-80868000D02*
X189837496Y-80281579D01*
X145964000Y-80868000D02*
X147090504Y-81454421D01*
X145964000Y-80868000D02*
X147090504Y-80281579D01*
D13*
G36*
X182658136Y-97704775D02*
G01*
X182836066Y-97704805D01*
X182998519Y-97704862D01*
X183146223Y-97704952D01*
X183279906Y-97705083D01*
X183400295Y-97705259D01*
X183508119Y-97705488D01*
X183604106Y-97705776D01*
X183688984Y-97706128D01*
X183763480Y-97706551D01*
X183828324Y-97707052D01*
X183884242Y-97707636D01*
X183931963Y-97708310D01*
X183972215Y-97709080D01*
X184005726Y-97709953D01*
X184033223Y-97710933D01*
X184055436Y-97712029D01*
X184073092Y-97713246D01*
X184086918Y-97714590D01*
X184097644Y-97716067D01*
X184105996Y-97717684D01*
X184110767Y-97718887D01*
X184181423Y-97740906D01*
X184241242Y-97765304D01*
X184296315Y-97794729D01*
X184321049Y-97810235D01*
X184405503Y-97874487D01*
X184476872Y-97948704D01*
X184535687Y-98033633D01*
X184582477Y-98130018D01*
X184613113Y-98221233D01*
X184614828Y-98228362D01*
X184616400Y-98237359D01*
X184617834Y-98248953D01*
X184619136Y-98263869D01*
X184620314Y-98282834D01*
X184621373Y-98306577D01*
X184622320Y-98335824D01*
X184623160Y-98371301D01*
X184623899Y-98413736D01*
X184624545Y-98463856D01*
X184625104Y-98522387D01*
X184625580Y-98590058D01*
X184625982Y-98667594D01*
X184626314Y-98755723D01*
X184626584Y-98855171D01*
X184626797Y-98966667D01*
X184626959Y-99090936D01*
X184627077Y-99228706D01*
X184627158Y-99380704D01*
X184627206Y-99547656D01*
X184627229Y-99730290D01*
X184627234Y-99872234D01*
X184627256Y-100068709D01*
X184627304Y-100248995D01*
X184627349Y-100413834D01*
X184627365Y-100563971D01*
X184627322Y-100700148D01*
X184627193Y-100823109D01*
X184626949Y-100933597D01*
X184626564Y-101032356D01*
X184626008Y-101120130D01*
X184625253Y-101197661D01*
X184624272Y-101265694D01*
X184623037Y-101324971D01*
X184621520Y-101376236D01*
X184619692Y-101420233D01*
X184617526Y-101457705D01*
X184614993Y-101489395D01*
X184612066Y-101516047D01*
X184608716Y-101538405D01*
X184604916Y-101557211D01*
X184600638Y-101573210D01*
X184595853Y-101587144D01*
X184590534Y-101599757D01*
X184584652Y-101611793D01*
X184578180Y-101623994D01*
X184571089Y-101637106D01*
X184563351Y-101651870D01*
X184559923Y-101658700D01*
X184506129Y-101750560D01*
X184441586Y-101829555D01*
X184365360Y-101896620D01*
X184276515Y-101952691D01*
X184254700Y-101963882D01*
X184238942Y-101971943D01*
X184225215Y-101979338D01*
X184212771Y-101986095D01*
X184200863Y-101992244D01*
X184188742Y-101997814D01*
X184175661Y-102002833D01*
X184160871Y-102007332D01*
X184143625Y-102011338D01*
X184123175Y-102014882D01*
X184098772Y-102017992D01*
X184069668Y-102020698D01*
X184035117Y-102023028D01*
X183994368Y-102025012D01*
X183946676Y-102026679D01*
X183891291Y-102028057D01*
X183827465Y-102029177D01*
X183754452Y-102030067D01*
X183671502Y-102030756D01*
X183577867Y-102031274D01*
X183472800Y-102031649D01*
X183355553Y-102031910D01*
X183225378Y-102032088D01*
X183081526Y-102032210D01*
X182923251Y-102032306D01*
X182749802Y-102032405D01*
X182560434Y-102032537D01*
X182489400Y-102032597D01*
X182290123Y-102032754D01*
X182107118Y-102032856D01*
X181939722Y-102032898D01*
X181787274Y-102032876D01*
X181649112Y-102032787D01*
X181524575Y-102032625D01*
X181413000Y-102032388D01*
X181313726Y-102032072D01*
X181226091Y-102031671D01*
X181149433Y-102031184D01*
X181083091Y-102030605D01*
X181026402Y-102029930D01*
X180978705Y-102029157D01*
X180939339Y-102028280D01*
X180907640Y-102027296D01*
X180882949Y-102026201D01*
X180864602Y-102024990D01*
X180851938Y-102023661D01*
X180846867Y-102022820D01*
X180743183Y-101993536D01*
X180647550Y-101950093D01*
X180561081Y-101893646D01*
X180484884Y-101825349D01*
X180420070Y-101746358D01*
X180367749Y-101657827D01*
X180329032Y-101560912D01*
X180305477Y-101459685D01*
X180304183Y-101446668D01*
X180303010Y-101424681D01*
X180301958Y-101393200D01*
X180301022Y-101351704D01*
X180300202Y-101299670D01*
X180299495Y-101236577D01*
X180298899Y-101161901D01*
X180298410Y-101075121D01*
X180298028Y-100975715D01*
X180297749Y-100863161D01*
X180297571Y-100736935D01*
X180297492Y-100596516D01*
X180297510Y-100441382D01*
X180297621Y-100271011D01*
X180297825Y-100084880D01*
X180298118Y-99882467D01*
X180298128Y-99875837D01*
X181197817Y-99875837D01*
X181198890Y-99955335D01*
X181203101Y-100032115D01*
X181210406Y-100101344D01*
X181218308Y-100147400D01*
X181257064Y-100290293D01*
X181310405Y-100425915D01*
X181377546Y-100553305D01*
X181457697Y-100671502D01*
X181550073Y-100779545D01*
X181653885Y-100876475D01*
X181768348Y-100961331D01*
X181892673Y-101033152D01*
X181975299Y-101071104D01*
X182026610Y-101090703D01*
X182065944Y-101101253D01*
X182095545Y-101102904D01*
X182117655Y-101095803D01*
X182133415Y-101081533D01*
X182140588Y-101071131D01*
X182145423Y-101059292D01*
X182148283Y-101042794D01*
X182149529Y-101018419D01*
X182149521Y-100982944D01*
X182148846Y-100943950D01*
X182146500Y-100828967D01*
X182116867Y-100833200D01*
X182095106Y-100835065D01*
X182062134Y-100836449D01*
X182023670Y-100837147D01*
X182006800Y-100837184D01*
X181966487Y-100836464D01*
X181937036Y-100833815D01*
X181912396Y-100828063D01*
X181886513Y-100818034D01*
X181870583Y-100810752D01*
X181826379Y-100786592D01*
X181790358Y-100758155D01*
X181759339Y-100722007D01*
X181730140Y-100674713D01*
X181712378Y-100639986D01*
X181671594Y-100568542D01*
X181623471Y-100509150D01*
X181564329Y-100457329D01*
X181559415Y-100453673D01*
X181538471Y-100433430D01*
X181533049Y-100416007D01*
X181543107Y-100402931D01*
X181560952Y-100396861D01*
X181606532Y-100396668D01*
X181654212Y-100411820D01*
X181702102Y-100441203D01*
X181748314Y-100483705D01*
X181784221Y-100528400D01*
X181820946Y-100575973D01*
X181855869Y-100610515D01*
X181892613Y-100635039D01*
X181932835Y-100651909D01*
X181980257Y-100661037D01*
X182035044Y-100661012D01*
X182090469Y-100652070D01*
X182112620Y-100645610D01*
X182130717Y-100638456D01*
X182142750Y-100629150D01*
X182151968Y-100613405D01*
X182161616Y-100586932D01*
X182165038Y-100576388D01*
X182177789Y-100542385D01*
X182192732Y-100510713D01*
X182205388Y-100490044D01*
X182227175Y-100461480D01*
X182195304Y-100456072D01*
X182087670Y-100433560D01*
X181994787Y-100404689D01*
X181915429Y-100368698D01*
X181848365Y-100324829D01*
X181792369Y-100272322D01*
X181746211Y-100210418D01*
X181719531Y-100161981D01*
X181697617Y-100110855D01*
X181681026Y-100057001D01*
X181668635Y-99995872D01*
X181659323Y-99922924D01*
X181658495Y-99914567D01*
X181655679Y-99812555D01*
X181667712Y-99718363D01*
X181694551Y-99632163D01*
X181736153Y-99554126D01*
X181753768Y-99529333D01*
X181770002Y-99507139D01*
X181777498Y-99491486D01*
X181777784Y-99475451D01*
X181772392Y-99452112D01*
X181771544Y-99448900D01*
X181765670Y-99412156D01*
X181763466Y-99364832D01*
X181764680Y-99312821D01*
X181769060Y-99262017D01*
X181776352Y-99218313D01*
X181782350Y-99197017D01*
X181796725Y-99156800D01*
X181838019Y-99156800D01*
X181877567Y-99161586D01*
X181926677Y-99174953D01*
X181981293Y-99195418D01*
X182037360Y-99221498D01*
X182081086Y-99245739D01*
X182145891Y-99284690D01*
X182239329Y-99265662D01*
X182328576Y-99252391D01*
X182426883Y-99246228D01*
X182527941Y-99247177D01*
X182625439Y-99255242D01*
X182689505Y-99265381D01*
X182783777Y-99283937D01*
X182841351Y-99248960D01*
X182920995Y-99205474D01*
X182993729Y-99175872D01*
X183058786Y-99160449D01*
X183075065Y-99158745D01*
X183131563Y-99154618D01*
X183145721Y-99200159D01*
X183155254Y-99242025D01*
X183161564Y-99292595D01*
X183164409Y-99346076D01*
X183163543Y-99396673D01*
X183158723Y-99438593D01*
X183156221Y-99449544D01*
X183144578Y-99492522D01*
X183173436Y-99529978D01*
X183212361Y-99587414D01*
X183240456Y-99646130D01*
X183258798Y-99709771D01*
X183268462Y-99781984D01*
X183270609Y-99859534D01*
X183263261Y-99969874D01*
X183243514Y-100068925D01*
X183211413Y-100156590D01*
X183167001Y-100232774D01*
X183110320Y-100297381D01*
X183050077Y-100344747D01*
X183014068Y-100367300D01*
X182979506Y-100385962D01*
X182943378Y-100401760D01*
X182902671Y-100415722D01*
X182854372Y-100428875D01*
X182795466Y-100442247D01*
X182722942Y-100456866D01*
X182719166Y-100457598D01*
X182705395Y-100461730D01*
X182706535Y-100469165D01*
X182712421Y-100476113D01*
X182722893Y-100491323D01*
X182736880Y-100516249D01*
X182749355Y-100541330D01*
X182773034Y-100591900D01*
X182777267Y-100830218D01*
X182778590Y-100900466D01*
X182779878Y-100955758D01*
X182781288Y-100998068D01*
X182782978Y-101029372D01*
X182785104Y-101051646D01*
X182787824Y-101066865D01*
X182791294Y-101077004D01*
X182795672Y-101084039D01*
X182797629Y-101086335D01*
X182816123Y-101099193D01*
X182841630Y-101103131D01*
X182876096Y-101097960D01*
X182921464Y-101083486D01*
X182952701Y-101071104D01*
X183079357Y-101009393D01*
X183198453Y-100933462D01*
X183308698Y-100844705D01*
X183408801Y-100744515D01*
X183497473Y-100634288D01*
X183573423Y-100515416D01*
X183635361Y-100389293D01*
X183670121Y-100296114D01*
X183705097Y-100163546D01*
X183725895Y-100026219D01*
X183732397Y-99887294D01*
X183724485Y-99749930D01*
X183702041Y-99617287D01*
X183696411Y-99594009D01*
X183652821Y-99454156D01*
X183595102Y-99323250D01*
X183522792Y-99200480D01*
X183435425Y-99085034D01*
X183357217Y-99000236D01*
X183248215Y-98902762D01*
X183130218Y-98819537D01*
X183003036Y-98750460D01*
X182866483Y-98695428D01*
X182720370Y-98654341D01*
X182709534Y-98651931D01*
X182678760Y-98646050D01*
X182645951Y-98641756D01*
X182607839Y-98638839D01*
X182561152Y-98637090D01*
X182502621Y-98636299D01*
X182464000Y-98636197D01*
X182397521Y-98636548D01*
X182344693Y-98637742D01*
X182302246Y-98639987D01*
X182266911Y-98643494D01*
X182235417Y-98648472D01*
X182218467Y-98651931D01*
X182074346Y-98691554D01*
X181937429Y-98745535D01*
X181808854Y-98813183D01*
X181689763Y-98893809D01*
X181581293Y-98986723D01*
X181484585Y-99091233D01*
X181476411Y-99101293D01*
X181390854Y-99221127D01*
X181319874Y-99349521D01*
X181263585Y-99486231D01*
X181222099Y-99631011D01*
X181213873Y-99669341D01*
X181205263Y-99728009D01*
X181199926Y-99798452D01*
X181197817Y-99875837D01*
X180298128Y-99875837D01*
X180298204Y-99829900D01*
X180298534Y-99637648D01*
X180298858Y-99461596D01*
X180299185Y-99301011D01*
X180299521Y-99155161D01*
X180299875Y-99023312D01*
X180300255Y-98904731D01*
X180300667Y-98798686D01*
X180301119Y-98704444D01*
X180301620Y-98621270D01*
X180302176Y-98548434D01*
X180302796Y-98485201D01*
X180303487Y-98430838D01*
X180304256Y-98384614D01*
X180305111Y-98345793D01*
X180306060Y-98313645D01*
X180307111Y-98287434D01*
X180308271Y-98266430D01*
X180309547Y-98249898D01*
X180310948Y-98237106D01*
X180312480Y-98227321D01*
X180314152Y-98219809D01*
X180314983Y-98216875D01*
X180336319Y-98151820D01*
X180357930Y-98098089D01*
X180382243Y-98050207D01*
X180406235Y-98010951D01*
X180470487Y-97926497D01*
X180544704Y-97855128D01*
X180629633Y-97796313D01*
X180726018Y-97749523D01*
X180817233Y-97718887D01*
X180824371Y-97717170D01*
X180833377Y-97715597D01*
X180844981Y-97714161D01*
X180859911Y-97712857D01*
X180878894Y-97711679D01*
X180902659Y-97710619D01*
X180931933Y-97709672D01*
X180967445Y-97708832D01*
X181009922Y-97708093D01*
X181060093Y-97707447D01*
X181118686Y-97706889D01*
X181186428Y-97706413D01*
X181264048Y-97706012D01*
X181352274Y-97705681D01*
X181451834Y-97705412D01*
X181563455Y-97705200D01*
X181687865Y-97705038D01*
X181825794Y-97704921D01*
X181977968Y-97704841D01*
X182145116Y-97704793D01*
X182327966Y-97704771D01*
X182464000Y-97704767D01*
X182658136Y-97704775D01*
G37*
X182658136Y-97704775D02*
X182836066Y-97704805D01*
X182998519Y-97704862D01*
X183146223Y-97704952D01*
X183279906Y-97705083D01*
X183400295Y-97705259D01*
X183508119Y-97705488D01*
X183604106Y-97705776D01*
X183688984Y-97706128D01*
X183763480Y-97706551D01*
X183828324Y-97707052D01*
X183884242Y-97707636D01*
X183931963Y-97708310D01*
X183972215Y-97709080D01*
X184005726Y-97709953D01*
X184033223Y-97710933D01*
X184055436Y-97712029D01*
X184073092Y-97713246D01*
X184086918Y-97714590D01*
X184097644Y-97716067D01*
X184105996Y-97717684D01*
X184110767Y-97718887D01*
X184181423Y-97740906D01*
X184241242Y-97765304D01*
X184296315Y-97794729D01*
X184321049Y-97810235D01*
X184405503Y-97874487D01*
X184476872Y-97948704D01*
X184535687Y-98033633D01*
X184582477Y-98130018D01*
X184613113Y-98221233D01*
X184614828Y-98228362D01*
X184616400Y-98237359D01*
X184617834Y-98248953D01*
X184619136Y-98263869D01*
X184620314Y-98282834D01*
X184621373Y-98306577D01*
X184622320Y-98335824D01*
X184623160Y-98371301D01*
X184623899Y-98413736D01*
X184624545Y-98463856D01*
X184625104Y-98522387D01*
X184625580Y-98590058D01*
X184625982Y-98667594D01*
X184626314Y-98755723D01*
X184626584Y-98855171D01*
X184626797Y-98966667D01*
X184626959Y-99090936D01*
X184627077Y-99228706D01*
X184627158Y-99380704D01*
X184627206Y-99547656D01*
X184627229Y-99730290D01*
X184627234Y-99872234D01*
X184627256Y-100068709D01*
X184627304Y-100248995D01*
X184627349Y-100413834D01*
X184627365Y-100563971D01*
X184627322Y-100700148D01*
X184627193Y-100823109D01*
X184626949Y-100933597D01*
X184626564Y-101032356D01*
X184626008Y-101120130D01*
X184625253Y-101197661D01*
X184624272Y-101265694D01*
X184623037Y-101324971D01*
X184621520Y-101376236D01*
X184619692Y-101420233D01*
X184617526Y-101457705D01*
X184614993Y-101489395D01*
X184612066Y-101516047D01*
X184608716Y-101538405D01*
X184604916Y-101557211D01*
X184600638Y-101573210D01*
X184595853Y-101587144D01*
X184590534Y-101599757D01*
X184584652Y-101611793D01*
X184578180Y-101623994D01*
X184571089Y-101637106D01*
X184563351Y-101651870D01*
X184559923Y-101658700D01*
X184506129Y-101750560D01*
X184441586Y-101829555D01*
X184365360Y-101896620D01*
X184276515Y-101952691D01*
X184254700Y-101963882D01*
X184238942Y-101971943D01*
X184225215Y-101979338D01*
X184212771Y-101986095D01*
X184200863Y-101992244D01*
X184188742Y-101997814D01*
X184175661Y-102002833D01*
X184160871Y-102007332D01*
X184143625Y-102011338D01*
X184123175Y-102014882D01*
X184098772Y-102017992D01*
X184069668Y-102020698D01*
X184035117Y-102023028D01*
X183994368Y-102025012D01*
X183946676Y-102026679D01*
X183891291Y-102028057D01*
X183827465Y-102029177D01*
X183754452Y-102030067D01*
X183671502Y-102030756D01*
X183577867Y-102031274D01*
X183472800Y-102031649D01*
X183355553Y-102031910D01*
X183225378Y-102032088D01*
X183081526Y-102032210D01*
X182923251Y-102032306D01*
X182749802Y-102032405D01*
X182560434Y-102032537D01*
X182489400Y-102032597D01*
X182290123Y-102032754D01*
X182107118Y-102032856D01*
X181939722Y-102032898D01*
X181787274Y-102032876D01*
X181649112Y-102032787D01*
X181524575Y-102032625D01*
X181413000Y-102032388D01*
X181313726Y-102032072D01*
X181226091Y-102031671D01*
X181149433Y-102031184D01*
X181083091Y-102030605D01*
X181026402Y-102029930D01*
X180978705Y-102029157D01*
X180939339Y-102028280D01*
X180907640Y-102027296D01*
X180882949Y-102026201D01*
X180864602Y-102024990D01*
X180851938Y-102023661D01*
X180846867Y-102022820D01*
X180743183Y-101993536D01*
X180647550Y-101950093D01*
X180561081Y-101893646D01*
X180484884Y-101825349D01*
X180420070Y-101746358D01*
X180367749Y-101657827D01*
X180329032Y-101560912D01*
X180305477Y-101459685D01*
X180304183Y-101446668D01*
X180303010Y-101424681D01*
X180301958Y-101393200D01*
X180301022Y-101351704D01*
X180300202Y-101299670D01*
X180299495Y-101236577D01*
X180298899Y-101161901D01*
X180298410Y-101075121D01*
X180298028Y-100975715D01*
X180297749Y-100863161D01*
X180297571Y-100736935D01*
X180297492Y-100596516D01*
X180297510Y-100441382D01*
X180297621Y-100271011D01*
X180297825Y-100084880D01*
X180298118Y-99882467D01*
X180298128Y-99875837D01*
X181197817Y-99875837D01*
X181198890Y-99955335D01*
X181203101Y-100032115D01*
X181210406Y-100101344D01*
X181218308Y-100147400D01*
X181257064Y-100290293D01*
X181310405Y-100425915D01*
X181377546Y-100553305D01*
X181457697Y-100671502D01*
X181550073Y-100779545D01*
X181653885Y-100876475D01*
X181768348Y-100961331D01*
X181892673Y-101033152D01*
X181975299Y-101071104D01*
X182026610Y-101090703D01*
X182065944Y-101101253D01*
X182095545Y-101102904D01*
X182117655Y-101095803D01*
X182133415Y-101081533D01*
X182140588Y-101071131D01*
X182145423Y-101059292D01*
X182148283Y-101042794D01*
X182149529Y-101018419D01*
X182149521Y-100982944D01*
X182148846Y-100943950D01*
X182146500Y-100828967D01*
X182116867Y-100833200D01*
X182095106Y-100835065D01*
X182062134Y-100836449D01*
X182023670Y-100837147D01*
X182006800Y-100837184D01*
X181966487Y-100836464D01*
X181937036Y-100833815D01*
X181912396Y-100828063D01*
X181886513Y-100818034D01*
X181870583Y-100810752D01*
X181826379Y-100786592D01*
X181790358Y-100758155D01*
X181759339Y-100722007D01*
X181730140Y-100674713D01*
X181712378Y-100639986D01*
X181671594Y-100568542D01*
X181623471Y-100509150D01*
X181564329Y-100457329D01*
X181559415Y-100453673D01*
X181538471Y-100433430D01*
X181533049Y-100416007D01*
X181543107Y-100402931D01*
X181560952Y-100396861D01*
X181606532Y-100396668D01*
X181654212Y-100411820D01*
X181702102Y-100441203D01*
X181748314Y-100483705D01*
X181784221Y-100528400D01*
X181820946Y-100575973D01*
X181855869Y-100610515D01*
X181892613Y-100635039D01*
X181932835Y-100651909D01*
X181980257Y-100661037D01*
X182035044Y-100661012D01*
X182090469Y-100652070D01*
X182112620Y-100645610D01*
X182130717Y-100638456D01*
X182142750Y-100629150D01*
X182151968Y-100613405D01*
X182161616Y-100586932D01*
X182165038Y-100576388D01*
X182177789Y-100542385D01*
X182192732Y-100510713D01*
X182205388Y-100490044D01*
X182227175Y-100461480D01*
X182195304Y-100456072D01*
X182087670Y-100433560D01*
X181994787Y-100404689D01*
X181915429Y-100368698D01*
X181848365Y-100324829D01*
X181792369Y-100272322D01*
X181746211Y-100210418D01*
X181719531Y-100161981D01*
X181697617Y-100110855D01*
X181681026Y-100057001D01*
X181668635Y-99995872D01*
X181659323Y-99922924D01*
X181658495Y-99914567D01*
X181655679Y-99812555D01*
X181667712Y-99718363D01*
X181694551Y-99632163D01*
X181736153Y-99554126D01*
X181753768Y-99529333D01*
X181770002Y-99507139D01*
X181777498Y-99491486D01*
X181777784Y-99475451D01*
X181772392Y-99452112D01*
X181771544Y-99448900D01*
X181765670Y-99412156D01*
X181763466Y-99364832D01*
X181764680Y-99312821D01*
X181769060Y-99262017D01*
X181776352Y-99218313D01*
X181782350Y-99197017D01*
X181796725Y-99156800D01*
X181838019Y-99156800D01*
X181877567Y-99161586D01*
X181926677Y-99174953D01*
X181981293Y-99195418D01*
X182037360Y-99221498D01*
X182081086Y-99245739D01*
X182145891Y-99284690D01*
X182239329Y-99265662D01*
X182328576Y-99252391D01*
X182426883Y-99246228D01*
X182527941Y-99247177D01*
X182625439Y-99255242D01*
X182689505Y-99265381D01*
X182783777Y-99283937D01*
X182841351Y-99248960D01*
X182920995Y-99205474D01*
X182993729Y-99175872D01*
X183058786Y-99160449D01*
X183075065Y-99158745D01*
X183131563Y-99154618D01*
X183145721Y-99200159D01*
X183155254Y-99242025D01*
X183161564Y-99292595D01*
X183164409Y-99346076D01*
X183163543Y-99396673D01*
X183158723Y-99438593D01*
X183156221Y-99449544D01*
X183144578Y-99492522D01*
X183173436Y-99529978D01*
X183212361Y-99587414D01*
X183240456Y-99646130D01*
X183258798Y-99709771D01*
X183268462Y-99781984D01*
X183270609Y-99859534D01*
X183263261Y-99969874D01*
X183243514Y-100068925D01*
X183211413Y-100156590D01*
X183167001Y-100232774D01*
X183110320Y-100297381D01*
X183050077Y-100344747D01*
X183014068Y-100367300D01*
X182979506Y-100385962D01*
X182943378Y-100401760D01*
X182902671Y-100415722D01*
X182854372Y-100428875D01*
X182795466Y-100442247D01*
X182722942Y-100456866D01*
X182719166Y-100457598D01*
X182705395Y-100461730D01*
X182706535Y-100469165D01*
X182712421Y-100476113D01*
X182722893Y-100491323D01*
X182736880Y-100516249D01*
X182749355Y-100541330D01*
X182773034Y-100591900D01*
X182777267Y-100830218D01*
X182778590Y-100900466D01*
X182779878Y-100955758D01*
X182781288Y-100998068D01*
X182782978Y-101029372D01*
X182785104Y-101051646D01*
X182787824Y-101066865D01*
X182791294Y-101077004D01*
X182795672Y-101084039D01*
X182797629Y-101086335D01*
X182816123Y-101099193D01*
X182841630Y-101103131D01*
X182876096Y-101097960D01*
X182921464Y-101083486D01*
X182952701Y-101071104D01*
X183079357Y-101009393D01*
X183198453Y-100933462D01*
X183308698Y-100844705D01*
X183408801Y-100744515D01*
X183497473Y-100634288D01*
X183573423Y-100515416D01*
X183635361Y-100389293D01*
X183670121Y-100296114D01*
X183705097Y-100163546D01*
X183725895Y-100026219D01*
X183732397Y-99887294D01*
X183724485Y-99749930D01*
X183702041Y-99617287D01*
X183696411Y-99594009D01*
X183652821Y-99454156D01*
X183595102Y-99323250D01*
X183522792Y-99200480D01*
X183435425Y-99085034D01*
X183357217Y-99000236D01*
X183248215Y-98902762D01*
X183130218Y-98819537D01*
X183003036Y-98750460D01*
X182866483Y-98695428D01*
X182720370Y-98654341D01*
X182709534Y-98651931D01*
X182678760Y-98646050D01*
X182645951Y-98641756D01*
X182607839Y-98638839D01*
X182561152Y-98637090D01*
X182502621Y-98636299D01*
X182464000Y-98636197D01*
X182397521Y-98636548D01*
X182344693Y-98637742D01*
X182302246Y-98639987D01*
X182266911Y-98643494D01*
X182235417Y-98648472D01*
X182218467Y-98651931D01*
X182074346Y-98691554D01*
X181937429Y-98745535D01*
X181808854Y-98813183D01*
X181689763Y-98893809D01*
X181581293Y-98986723D01*
X181484585Y-99091233D01*
X181476411Y-99101293D01*
X181390854Y-99221127D01*
X181319874Y-99349521D01*
X181263585Y-99486231D01*
X181222099Y-99631011D01*
X181213873Y-99669341D01*
X181205263Y-99728009D01*
X181199926Y-99798452D01*
X181197817Y-99875837D01*
X180298128Y-99875837D01*
X180298204Y-99829900D01*
X180298534Y-99637648D01*
X180298858Y-99461596D01*
X180299185Y-99301011D01*
X180299521Y-99155161D01*
X180299875Y-99023312D01*
X180300255Y-98904731D01*
X180300667Y-98798686D01*
X180301119Y-98704444D01*
X180301620Y-98621270D01*
X180302176Y-98548434D01*
X180302796Y-98485201D01*
X180303487Y-98430838D01*
X180304256Y-98384614D01*
X180305111Y-98345793D01*
X180306060Y-98313645D01*
X180307111Y-98287434D01*
X180308271Y-98266430D01*
X180309547Y-98249898D01*
X180310948Y-98237106D01*
X180312480Y-98227321D01*
X180314152Y-98219809D01*
X180314983Y-98216875D01*
X180336319Y-98151820D01*
X180357930Y-98098089D01*
X180382243Y-98050207D01*
X180406235Y-98010951D01*
X180470487Y-97926497D01*
X180544704Y-97855128D01*
X180629633Y-97796313D01*
X180726018Y-97749523D01*
X180817233Y-97718887D01*
X180824371Y-97717170D01*
X180833377Y-97715597D01*
X180844981Y-97714161D01*
X180859911Y-97712857D01*
X180878894Y-97711679D01*
X180902659Y-97710619D01*
X180931933Y-97709672D01*
X180967445Y-97708832D01*
X181009922Y-97708093D01*
X181060093Y-97707447D01*
X181118686Y-97706889D01*
X181186428Y-97706413D01*
X181264048Y-97706012D01*
X181352274Y-97705681D01*
X181451834Y-97705412D01*
X181563455Y-97705200D01*
X181687865Y-97705038D01*
X181825794Y-97704921D01*
X181977968Y-97704841D01*
X182145116Y-97704793D01*
X182327966Y-97704771D01*
X182464000Y-97704767D01*
X182658136Y-97704775D01*
D11*
X155514001Y-95773000D02*
X154839001Y-95773000D01*
X156789001Y-95773000D02*
X156114001Y-95773000D01*
X155514001Y-96923000D02*
X154839001Y-96923000D01*
X156789001Y-96923000D02*
X156114001Y-96923000D01*
X154839001Y-95773000D02*
X154839001Y-96923000D01*
X156789001Y-95773000D02*
X156789001Y-96923000D01*
D12*
X150654000Y-92388000D02*
X148854000Y-92388000D01*
X145144000Y-92388000D02*
X146604000Y-92388000D01*
X145144000Y-101328000D02*
X146604000Y-101328000D01*
X150654000Y-101328000D02*
X148854000Y-101328000D01*
X145144000Y-101328000D02*
X145144000Y-92388000D01*
D11*
X154744000Y-95213000D02*
X154744000Y-94478000D01*
X155924000Y-92543000D02*
X155144000Y-92543000D01*
X155924000Y-95613000D02*
X155144000Y-95613000D01*
X154744000Y-93678000D02*
X154744000Y-92943000D01*
X156324000Y-93678000D02*
X156324000Y-92943000D01*
X156324000Y-95213000D02*
X156324000Y-94478000D01*
X154744000Y-92943000D02*
G75*
G02X155144000Y-92543000I400000J0D01*
G01*
X155924000Y-92543000D02*
G75*
G02X156324000Y-92943000I0J-400000D01*
G01*
X156324000Y-95213000D02*
G75*
G02X155924000Y-95613000I-400000J0D01*
G01*
X155144000Y-95613000D02*
G75*
G02X154744000Y-95213000I0J400000D01*
G01*
X157409000Y-92198000D02*
X156674000Y-92198000D01*
X154739000Y-91018000D02*
X154739000Y-91798000D01*
X157809000Y-91018000D02*
X157809000Y-91798000D01*
X155874000Y-92198000D02*
X155139000Y-92198000D01*
X155874000Y-90618000D02*
X155139000Y-90618000D01*
X157409000Y-90618000D02*
X156674000Y-90618000D01*
X155139000Y-92198000D02*
G75*
G02X154739000Y-91798000I0J400000D01*
G01*
X154739000Y-91018000D02*
G75*
G02X155139000Y-90618000I400000J0D01*
G01*
X157409000Y-90618000D02*
G75*
G02X157809000Y-91018000I0J-400000D01*
G01*
X157809000Y-91798000D02*
G75*
G02X157409000Y-92198000I-400000J0D01*
G01*
X180805000Y-103958000D02*
X180805000Y-104633000D01*
X180805000Y-102683000D02*
X180805000Y-103358000D01*
X181955000Y-103958000D02*
X181955000Y-104633000D01*
X181955000Y-102683000D02*
X181955000Y-103358000D01*
X180805000Y-104633000D02*
X181955000Y-104633000D01*
X180805000Y-102683000D02*
X181955000Y-102683000D01*
X180223000Y-104162990D02*
X179513000Y-104162990D01*
X180443000Y-103938000D02*
X180443000Y-103487990D01*
X179293000Y-103938000D02*
X179293000Y-103488000D01*
X180443000Y-102888000D02*
X180443000Y-102438000D01*
X179293000Y-102888000D02*
X179293000Y-102438000D01*
X180223000Y-102213000D02*
X179513000Y-102213000D01*
X180443000Y-103943000D02*
G75*
G02X180223000Y-104163000I-220000J0D01*
G01*
X179513000Y-104163000D02*
G75*
G02X179293000Y-103943000I0J220000D01*
G01*
X180223000Y-102213000D02*
G75*
G02X180443000Y-102433000I0J-220000D01*
G01*
X179293000Y-102433000D02*
G75*
G02X179513000Y-102213000I220000J0D01*
G01*
X177399000Y-104162990D02*
X176689000Y-104162990D01*
X177619000Y-103938000D02*
X177619000Y-103487990D01*
X176469000Y-103938000D02*
X176469000Y-103488000D01*
X177619000Y-102888000D02*
X177619000Y-102438000D01*
X176469000Y-102888000D02*
X176469000Y-102438000D01*
X177399000Y-102213000D02*
X176689000Y-102213000D01*
X177619000Y-103943000D02*
G75*
G02X177399000Y-104163000I-220000J0D01*
G01*
X176689000Y-104163000D02*
G75*
G02X176469000Y-103943000I0J220000D01*
G01*
X177399000Y-102213000D02*
G75*
G02X177619000Y-102433000I0J-220000D01*
G01*
X176469000Y-102433000D02*
G75*
G02X176689000Y-102213000I220000J0D01*
G01*
X179031000Y-102888000D02*
X179031000Y-102213000D01*
X179031000Y-104163000D02*
X179031000Y-103488000D01*
X177881000Y-102888000D02*
X177881000Y-102213000D01*
X177881000Y-104163000D02*
X177881000Y-103488000D01*
X179031000Y-102213000D02*
X177881000Y-102213000D01*
X179031000Y-104163000D02*
X177881000Y-104163000D01*
D12*
X171282198Y-104995113D02*
X172194366Y-105907281D01*
X170964000Y-105313311D02*
X171282198Y-104995113D01*
X170645802Y-104995113D02*
X170964000Y-105313311D01*
X165858689Y-100208000D02*
X166176887Y-99889802D01*
X166176887Y-100526198D02*
X165858689Y-100208000D01*
X176069311Y-100208000D02*
X175751113Y-100526198D01*
X175751113Y-99889802D02*
X176069311Y-100208000D01*
X170964000Y-95102689D02*
X170645802Y-95420887D01*
X171282198Y-95420887D02*
X170964000Y-95102689D01*
X152474000Y-108538000D02*
X152474000Y-107208000D01*
X153804000Y-108538000D02*
X152474000Y-108538000D01*
X155074000Y-108538000D02*
X155074000Y-105878000D01*
X155074000Y-105878000D02*
X167834000Y-105878000D01*
X155074000Y-108538000D02*
X167834000Y-108538000D01*
X167834000Y-108538000D02*
X167834000Y-105878000D01*
X185634000Y-89908000D02*
X186964000Y-89908000D01*
X185634000Y-91238000D02*
X185634000Y-89908000D01*
X188234000Y-89908000D02*
X190834000Y-89908000D01*
X188234000Y-92508000D02*
X188234000Y-89908000D01*
X185634000Y-92508000D02*
X188234000Y-92508000D01*
X190834000Y-89908000D02*
X190834000Y-102728000D01*
X185634000Y-92508000D02*
X185634000Y-102728000D01*
X185634000Y-102728000D02*
X190834000Y-102728000D01*
D11*
X166418990Y-89833000D02*
X166418990Y-90543000D01*
X166194000Y-89613000D02*
X165743990Y-89613000D01*
X166194000Y-90763000D02*
X165744000Y-90763000D01*
X165144000Y-89613000D02*
X164694000Y-89613000D01*
X165144000Y-90763000D02*
X164694000Y-90763000D01*
X164469000Y-89833000D02*
X164469000Y-90543000D01*
X166199000Y-89613000D02*
G75*
G02X166419000Y-89833000I0J-220000D01*
G01*
X166419000Y-90543000D02*
G75*
G02X166199000Y-90763000I-220000J0D01*
G01*
X164469000Y-89833000D02*
G75*
G02X164689000Y-89613000I220000J0D01*
G01*
X164689000Y-90763000D02*
G75*
G02X164469000Y-90543000I0J220000D01*
G01*
X170959000Y-107298000D02*
X170959000Y-106623000D01*
X170959000Y-108573000D02*
X170959000Y-107898000D01*
X169809000Y-107298000D02*
X169809000Y-106623000D01*
X169809000Y-108573000D02*
X169809000Y-107898000D01*
X170959000Y-106623000D02*
X169809000Y-106623000D01*
X170959000Y-108573000D02*
X169809000Y-108573000D01*
X176964000Y-95133000D02*
X177639000Y-95133000D01*
X175689000Y-95133000D02*
X176364000Y-95133000D01*
X176964000Y-93983000D02*
X177639000Y-93983000D01*
X175689000Y-93983000D02*
X176364000Y-93983000D01*
X177639000Y-95133000D02*
X177639000Y-93983000D01*
X175689000Y-95133000D02*
X175689000Y-93983000D01*
D14*
X157354000Y-100368000D02*
X157354000Y-105368000D01*
X161154000Y-100368000D02*
X161154000Y-105368000D01*
X157354000Y-100368000D02*
X161154000Y-100368000D01*
X157354000Y-105368000D02*
X161154000Y-105368000D01*
D15*
X158254000Y-101068000D02*
G75*
G03X158254000Y-101068000I-200000J0D01*
G01*
D16*
X155654000Y-100070500D02*
G75*
G03X155654000Y-100070500I-150000J0D01*
G01*
D11*
X177659000Y-90643010D02*
X178369000Y-90643010D01*
X177439000Y-90868000D02*
X177439000Y-91318010D01*
X178589000Y-90868000D02*
X178589000Y-91318000D01*
X177439000Y-91918000D02*
X177439000Y-92368000D01*
X178589000Y-91918000D02*
X178589000Y-92368000D01*
X177659000Y-92593000D02*
X178369000Y-92593000D01*
X177439000Y-90863000D02*
G75*
G02X177659000Y-90643000I220000J0D01*
G01*
X178369000Y-90643000D02*
G75*
G02X178589000Y-90863000I0J-220000D01*
G01*
X177659000Y-92593000D02*
G75*
G02X177439000Y-92373000I0J220000D01*
G01*
X178589000Y-92373000D02*
G75*
G02X178369000Y-92593000I-220000J0D01*
G01*
X184169000Y-93442990D02*
X183459000Y-93442990D01*
X184389000Y-93218000D02*
X184389000Y-92767990D01*
X183239000Y-93218000D02*
X183239000Y-92768000D01*
X184389000Y-92168000D02*
X184389000Y-91718000D01*
X183239000Y-92168000D02*
X183239000Y-91718000D01*
X184169000Y-91493000D02*
X183459000Y-91493000D01*
X184389000Y-93223000D02*
G75*
G02X184169000Y-93443000I-220000J0D01*
G01*
X183459000Y-93443000D02*
G75*
G02X183239000Y-93223000I0J220000D01*
G01*
X184169000Y-91493000D02*
G75*
G02X184389000Y-91713000I0J-220000D01*
G01*
X183239000Y-91713000D02*
G75*
G02X183459000Y-91493000I220000J0D01*
G01*
X171289010Y-107723000D02*
X171289010Y-107013000D01*
X171514000Y-107943000D02*
X171964010Y-107943000D01*
X171514000Y-106793000D02*
X171964000Y-106793000D01*
X172564000Y-107943000D02*
X173014000Y-107943000D01*
X172564000Y-106793000D02*
X173014000Y-106793000D01*
X173239000Y-107723000D02*
X173239000Y-107013000D01*
X171509000Y-107943000D02*
G75*
G02X171289000Y-107723000I0J220000D01*
G01*
X171289000Y-107013000D02*
G75*
G02X171509000Y-106793000I220000J0D01*
G01*
X173239000Y-107723000D02*
G75*
G02X173019000Y-107943000I-220000J0D01*
G01*
X173019000Y-106793000D02*
G75*
G02X173239000Y-107013000I0J-220000D01*
G01*
X151874000Y-102913000D02*
X151199000Y-102913000D01*
X153149000Y-102913000D02*
X152474000Y-102913000D01*
X151874000Y-104063000D02*
X151199000Y-104063000D01*
X153149000Y-104063000D02*
X152474000Y-104063000D01*
X151199000Y-102913000D02*
X151199000Y-104063000D01*
X153149000Y-102913000D02*
X153149000Y-104063000D01*
X155514001Y-96973000D02*
X154839001Y-96973000D01*
X156789001Y-96973000D02*
X156114001Y-96973000D01*
X155514001Y-98123000D02*
X154839001Y-98123000D01*
X156789001Y-98123000D02*
X156114001Y-98123000D01*
X154839001Y-96973000D02*
X154839001Y-98123000D01*
X156789001Y-96973000D02*
X156789001Y-98123000D01*
X182638990Y-107013000D02*
X182638990Y-107723000D01*
X182414000Y-106793000D02*
X181963990Y-106793000D01*
X182414000Y-107943000D02*
X181964000Y-107943000D01*
X181364000Y-106793000D02*
X180914000Y-106793000D01*
X181364000Y-107943000D02*
X180914000Y-107943000D01*
X180689000Y-107013000D02*
X180689000Y-107723000D01*
X182419000Y-106793000D02*
G75*
G02X182639000Y-107013000I0J-220000D01*
G01*
X182639000Y-107723000D02*
G75*
G02X182419000Y-107943000I-220000J0D01*
G01*
X180689000Y-107013000D02*
G75*
G02X180909000Y-106793000I220000J0D01*
G01*
X180909000Y-107943000D02*
G75*
G02X180689000Y-107723000I0J220000D01*
G01*
X179259000Y-95958000D02*
X179259000Y-95283000D01*
X179259000Y-97233000D02*
X179259000Y-96558000D01*
X178109000Y-95958000D02*
X178109000Y-95283000D01*
X178109000Y-97233000D02*
X178109000Y-96558000D01*
X179259000Y-95283000D02*
X178109000Y-95283000D01*
X179259000Y-97233000D02*
X178109000Y-97233000D01*
D14*
X180289000Y-108468000D02*
X173639000Y-108468000D01*
X180289000Y-107568000D02*
X180289000Y-108468000D01*
X173639000Y-107568000D02*
X173639000Y-108468000D01*
X180289000Y-105268000D02*
X180289000Y-106168000D01*
X173639000Y-105268000D02*
X173639000Y-106168000D01*
X180289000Y-105268000D02*
X173639000Y-105268000D01*
D11*
X181659000Y-89962990D02*
X180949000Y-89962990D01*
X181879000Y-89738000D02*
X181879000Y-89287990D01*
X180729000Y-89738000D02*
X180729000Y-89288000D01*
X181879000Y-88688000D02*
X181879000Y-88238000D01*
X180729000Y-88688000D02*
X180729000Y-88238000D01*
X181659000Y-88013000D02*
X180949000Y-88013000D01*
X181879000Y-89743000D02*
G75*
G02X181659000Y-89963000I-220000J0D01*
G01*
X180949000Y-89963000D02*
G75*
G02X180729000Y-89743000I0J220000D01*
G01*
X181659000Y-88013000D02*
G75*
G02X181879000Y-88233000I0J-220000D01*
G01*
X180729000Y-88233000D02*
G75*
G02X180949000Y-88013000I220000J0D01*
G01*
X164778990Y-99063000D02*
X164778990Y-99773000D01*
X164554000Y-98843000D02*
X164103990Y-98843000D01*
X164554000Y-99993000D02*
X164104000Y-99993000D01*
X163504000Y-98843000D02*
X163054000Y-98843000D01*
X163504000Y-99993000D02*
X163054000Y-99993000D01*
X162829000Y-99063000D02*
X162829000Y-99773000D01*
X164559000Y-98843000D02*
G75*
G02X164779000Y-99063000I0J-220000D01*
G01*
X164779000Y-99773000D02*
G75*
G02X164559000Y-99993000I-220000J0D01*
G01*
X162829000Y-99063000D02*
G75*
G02X163049000Y-98843000I220000J0D01*
G01*
X163049000Y-99993000D02*
G75*
G02X162829000Y-99773000I0J220000D01*
G01*
X172259000Y-93962990D02*
X171549000Y-93962990D01*
X172479000Y-93738000D02*
X172479000Y-93287990D01*
X171329000Y-93738000D02*
X171329000Y-93288000D01*
X172479000Y-92688000D02*
X172479000Y-92238000D01*
X171329000Y-92688000D02*
X171329000Y-92238000D01*
X172259000Y-92013000D02*
X171549000Y-92013000D01*
X172479000Y-93743000D02*
G75*
G02X172259000Y-93963000I-220000J0D01*
G01*
X171549000Y-93963000D02*
G75*
G02X171329000Y-93743000I0J220000D01*
G01*
X172259000Y-92013000D02*
G75*
G02X172479000Y-92233000I0J-220000D01*
G01*
X171329000Y-92233000D02*
G75*
G02X171549000Y-92013000I220000J0D01*
G01*
X181789000Y-92778000D02*
X181789000Y-93453000D01*
X181789000Y-91503000D02*
X181789000Y-92178000D01*
X182939000Y-92778000D02*
X182939000Y-93453000D01*
X182939000Y-91503000D02*
X182939000Y-92178000D01*
X181789000Y-93453000D02*
X182939000Y-93453000D01*
X181789000Y-91503000D02*
X182939000Y-91503000D01*
X158264000Y-99523000D02*
X158939000Y-99523000D01*
X156989000Y-99523000D02*
X157664000Y-99523000D01*
X158264000Y-98373000D02*
X158939000Y-98373000D01*
X156989000Y-98373000D02*
X157664000Y-98373000D01*
X158939000Y-99523000D02*
X158939000Y-98373000D01*
X156989000Y-99523000D02*
X156989000Y-98373000D01*
X157499000Y-95562990D02*
X156789000Y-95562990D01*
X157719000Y-95338000D02*
X157719000Y-94887990D01*
X156569000Y-95338000D02*
X156569000Y-94888000D01*
X157719000Y-94288000D02*
X157719000Y-93838000D01*
X156569000Y-94288000D02*
X156569000Y-93838000D01*
X157499000Y-93613000D02*
X156789000Y-93613000D01*
X157719000Y-95343000D02*
G75*
G02X157499000Y-95563000I-220000J0D01*
G01*
X156789000Y-95563000D02*
G75*
G02X156569000Y-95343000I0J220000D01*
G01*
X157499000Y-93613000D02*
G75*
G02X157719000Y-93833000I0J-220000D01*
G01*
X156569000Y-93833000D02*
G75*
G02X156789000Y-93613000I220000J0D01*
G01*
X183629000Y-103958000D02*
X183629000Y-104633000D01*
X183629000Y-102683000D02*
X183629000Y-103358000D01*
X184779000Y-103958000D02*
X184779000Y-104633000D01*
X184779000Y-102683000D02*
X184779000Y-103358000D01*
X183629000Y-104633000D02*
X184779000Y-104633000D01*
X183629000Y-102683000D02*
X184779000Y-102683000D01*
X169559000Y-107298000D02*
X169559000Y-106623000D01*
X169559000Y-108573000D02*
X169559000Y-107898000D01*
X168409000Y-107298000D02*
X168409000Y-106623000D01*
X168409000Y-108573000D02*
X168409000Y-107898000D01*
X169559000Y-106623000D02*
X168409000Y-106623000D01*
X169559000Y-108573000D02*
X168409000Y-108573000D01*
X156114001Y-99523000D02*
X156789001Y-99523000D01*
X154839001Y-99523000D02*
X155514001Y-99523000D01*
X156114001Y-98373000D02*
X156789001Y-98373000D01*
X154839001Y-98373000D02*
X155514001Y-98373000D01*
X156789001Y-99523000D02*
X156789001Y-98373000D01*
X154839001Y-99523000D02*
X154839001Y-98373000D01*
X182217000Y-103958000D02*
X182217000Y-104633000D01*
X182217000Y-102683000D02*
X182217000Y-103358000D01*
X183367000Y-103958000D02*
X183367000Y-104633000D01*
X183367000Y-102683000D02*
X183367000Y-103358000D01*
X182217000Y-104633000D02*
X183367000Y-104633000D01*
X182217000Y-102683000D02*
X183367000Y-102683000D01*
X180349000Y-88688000D02*
X180349000Y-88013000D01*
X180349000Y-89963000D02*
X180349000Y-89288000D01*
X179199000Y-88688000D02*
X179199000Y-88013000D01*
X179199000Y-89963000D02*
X179199000Y-89288000D01*
X180349000Y-88013000D02*
X179199000Y-88013000D01*
X180349000Y-89963000D02*
X179199000Y-89963000D01*
D12*
X153014000Y-86698000D02*
X153014000Y-85368000D01*
X154344000Y-86698000D02*
X153014000Y-86698000D01*
X155614000Y-86698000D02*
X155614000Y-84038000D01*
X155614000Y-84038000D02*
X175994000Y-84038000D01*
X155614000Y-86698000D02*
X175994000Y-86698000D01*
X175994000Y-86698000D02*
X175994000Y-84038000D01*
X178324000Y-87628000D02*
X181724000Y-87628000D01*
X176684000Y-87628000D02*
X177224000Y-87628000D01*
X183884000Y-90458000D02*
X183884000Y-90968000D01*
X183364000Y-90968000D02*
X183884000Y-90968000D01*
X183364000Y-90458000D02*
X183364000Y-90968000D01*
X182824000Y-87628000D02*
X183364000Y-87628000D01*
X176164000Y-90458000D02*
X176164000Y-90968000D01*
X176684000Y-90458000D02*
X176684000Y-90968000D01*
X183364000Y-87628000D02*
X183364000Y-87858000D01*
X176164000Y-83958000D02*
X176164000Y-87858000D01*
X176164000Y-90968000D02*
X176684000Y-90968000D01*
X183884000Y-83958000D02*
X183884000Y-87858000D01*
X176164000Y-83958000D02*
X183884000Y-83958000D01*
X176684000Y-87628000D02*
X176684000Y-87858000D01*
D14*
X160974000Y-90048000D02*
X160974000Y-96048000D01*
X163774000Y-90048000D02*
X160974000Y-90048000D01*
X163774000Y-90048000D02*
X163774000Y-96048000D01*
X163774000Y-96048000D02*
X160974000Y-96048000D01*
D11*
X151864000Y-89723000D02*
X151189000Y-89723000D01*
X153139000Y-89723000D02*
X152464000Y-89723000D01*
X151864000Y-90873000D02*
X151189000Y-90873000D01*
X153139000Y-90873000D02*
X152464000Y-90873000D01*
X151189000Y-89723000D02*
X151189000Y-90873000D01*
X153139000Y-89723000D02*
X153139000Y-90873000D01*
M02*
