G04 #@! TF.GenerationSoftware,KiCad,Pcbnew,5.1.5-52549c5~84~ubuntu18.04.1*
G04 #@! TF.CreationDate,2020-02-08T18:05:16+08:00*
G04 #@! TF.ProjectId,dap-stm32f103,6461702d-7374-46d3-9332-663130332e6b,rev?*
G04 #@! TF.SameCoordinates,Original*
G04 #@! TF.FileFunction,Legend,Bot*
G04 #@! TF.FilePolarity,Positive*
%FSLAX46Y46*%
G04 Gerber Fmt 4.6, Leading zero omitted, Abs format (unit mm)*
G04 Created by KiCad (PCBNEW 5.1.5-52549c5~84~ubuntu18.04.1) date 2020-02-08 18:05:16*
%MOMM*%
%LPD*%
G04 APERTURE LIST*
%ADD10C,0.120000*%
%ADD11C,0.150000*%
G04 APERTURE END LIST*
D10*
X179764000Y-90668000D02*
X179764000Y-103068000D01*
X168964000Y-103068000D02*
X168964000Y-90668000D01*
D11*
X185533952Y-106916000D02*
X185629190Y-106868380D01*
X185772047Y-106868380D01*
X185914904Y-106916000D01*
X186010142Y-107011238D01*
X186057761Y-107106476D01*
X186105380Y-107296952D01*
X186105380Y-107439809D01*
X186057761Y-107630285D01*
X186010142Y-107725523D01*
X185914904Y-107820761D01*
X185772047Y-107868380D01*
X185676809Y-107868380D01*
X185533952Y-107820761D01*
X185486333Y-107773142D01*
X185486333Y-107439809D01*
X185676809Y-107439809D01*
X185057761Y-107868380D02*
X185057761Y-107201714D01*
X185057761Y-106868380D02*
X185105380Y-106916000D01*
X185057761Y-106963619D01*
X185010142Y-106916000D01*
X185057761Y-106868380D01*
X185057761Y-106963619D01*
X184724428Y-107201714D02*
X184343476Y-107201714D01*
X184581571Y-106868380D02*
X184581571Y-107725523D01*
X184533952Y-107820761D01*
X184438714Y-107868380D01*
X184343476Y-107868380D01*
X184010142Y-107868380D02*
X184010142Y-106868380D01*
X184010142Y-107344571D02*
X183438714Y-107344571D01*
X183438714Y-107868380D02*
X183438714Y-106868380D01*
X182533952Y-107201714D02*
X182533952Y-107868380D01*
X182962523Y-107201714D02*
X182962523Y-107725523D01*
X182914904Y-107820761D01*
X182819666Y-107868380D01*
X182676809Y-107868380D01*
X182581571Y-107820761D01*
X182533952Y-107773142D01*
X182057761Y-107868380D02*
X182057761Y-106868380D01*
X182057761Y-107249333D02*
X181962523Y-107201714D01*
X181772047Y-107201714D01*
X181676809Y-107249333D01*
X181629190Y-107296952D01*
X181581571Y-107392190D01*
X181581571Y-107677904D01*
X181629190Y-107773142D01*
X181676809Y-107820761D01*
X181772047Y-107868380D01*
X181962523Y-107868380D01*
X182057761Y-107820761D01*
X181153000Y-107773142D02*
X181105380Y-107820761D01*
X181153000Y-107868380D01*
X181200619Y-107820761D01*
X181153000Y-107773142D01*
X181153000Y-107868380D01*
X180248238Y-107820761D02*
X180343476Y-107868380D01*
X180533952Y-107868380D01*
X180629190Y-107820761D01*
X180676809Y-107773142D01*
X180724428Y-107677904D01*
X180724428Y-107392190D01*
X180676809Y-107296952D01*
X180629190Y-107249333D01*
X180533952Y-107201714D01*
X180343476Y-107201714D01*
X180248238Y-107249333D01*
X179676809Y-107868380D02*
X179772047Y-107820761D01*
X179819666Y-107773142D01*
X179867285Y-107677904D01*
X179867285Y-107392190D01*
X179819666Y-107296952D01*
X179772047Y-107249333D01*
X179676809Y-107201714D01*
X179533952Y-107201714D01*
X179438714Y-107249333D01*
X179391095Y-107296952D01*
X179343476Y-107392190D01*
X179343476Y-107677904D01*
X179391095Y-107773142D01*
X179438714Y-107820761D01*
X179533952Y-107868380D01*
X179676809Y-107868380D01*
X178914904Y-107868380D02*
X178914904Y-107201714D01*
X178914904Y-107296952D02*
X178867285Y-107249333D01*
X178772047Y-107201714D01*
X178629190Y-107201714D01*
X178533952Y-107249333D01*
X178486333Y-107344571D01*
X178486333Y-107868380D01*
X178486333Y-107344571D02*
X178438714Y-107249333D01*
X178343476Y-107201714D01*
X178200619Y-107201714D01*
X178105380Y-107249333D01*
X178057761Y-107344571D01*
X178057761Y-107868380D01*
X176867285Y-106820761D02*
X177724428Y-108106476D01*
X176533952Y-107868380D02*
X176533952Y-106868380D01*
X176533952Y-107249333D02*
X176438714Y-107201714D01*
X176248238Y-107201714D01*
X176153000Y-107249333D01*
X176105380Y-107296952D01*
X176057761Y-107392190D01*
X176057761Y-107677904D01*
X176105380Y-107773142D01*
X176153000Y-107820761D01*
X176248238Y-107868380D01*
X176438714Y-107868380D01*
X176533952Y-107820761D01*
X175200619Y-107868380D02*
X175200619Y-107344571D01*
X175248238Y-107249333D01*
X175343476Y-107201714D01*
X175533952Y-107201714D01*
X175629190Y-107249333D01*
X175200619Y-107820761D02*
X175295857Y-107868380D01*
X175533952Y-107868380D01*
X175629190Y-107820761D01*
X175676809Y-107725523D01*
X175676809Y-107630285D01*
X175629190Y-107535047D01*
X175533952Y-107487428D01*
X175295857Y-107487428D01*
X175200619Y-107439809D01*
X174581571Y-107868380D02*
X174676809Y-107820761D01*
X174724428Y-107725523D01*
X174724428Y-106868380D01*
X173772047Y-107868380D02*
X173772047Y-107344571D01*
X173819666Y-107249333D01*
X173914904Y-107201714D01*
X174105380Y-107201714D01*
X174200619Y-107249333D01*
X173772047Y-107820761D02*
X173867285Y-107868380D01*
X174105380Y-107868380D01*
X174200619Y-107820761D01*
X174248238Y-107725523D01*
X174248238Y-107630285D01*
X174200619Y-107535047D01*
X174105380Y-107487428D01*
X173867285Y-107487428D01*
X173772047Y-107439809D01*
X173295857Y-107201714D02*
X173295857Y-107868380D01*
X173295857Y-107296952D02*
X173248238Y-107249333D01*
X173153000Y-107201714D01*
X173010142Y-107201714D01*
X172914904Y-107249333D01*
X172867285Y-107344571D01*
X172867285Y-107868380D01*
X171962523Y-107820761D02*
X172057761Y-107868380D01*
X172248238Y-107868380D01*
X172343476Y-107820761D01*
X172391095Y-107773142D01*
X172438714Y-107677904D01*
X172438714Y-107392190D01*
X172391095Y-107296952D01*
X172343476Y-107249333D01*
X172248238Y-107201714D01*
X172057761Y-107201714D01*
X171962523Y-107249333D01*
X171153000Y-107820761D02*
X171248238Y-107868380D01*
X171438714Y-107868380D01*
X171533952Y-107820761D01*
X171581571Y-107725523D01*
X171581571Y-107344571D01*
X171533952Y-107249333D01*
X171438714Y-107201714D01*
X171248238Y-107201714D01*
X171153000Y-107249333D01*
X171105380Y-107344571D01*
X171105380Y-107439809D01*
X171581571Y-107535047D01*
X170819666Y-106868380D02*
X170248238Y-106868380D01*
X170533952Y-107868380D02*
X170533952Y-106868380D01*
X170010142Y-106868380D02*
X169772047Y-107868380D01*
X169581571Y-107154095D01*
X169391095Y-107868380D01*
X169153000Y-106868380D01*
X168772047Y-107868380D02*
X168772047Y-106868380D01*
X168200619Y-107868380D02*
X168629190Y-107296952D01*
X168200619Y-106868380D02*
X168772047Y-107439809D01*
X166879953Y-97802857D02*
X167279953Y-97231428D01*
X167565667Y-97802857D02*
X167565667Y-96602857D01*
X167108524Y-96602857D01*
X166994238Y-96660000D01*
X166937096Y-96717142D01*
X166879953Y-96831428D01*
X166879953Y-97002857D01*
X166937096Y-97117142D01*
X166994238Y-97174285D01*
X167108524Y-97231428D01*
X167565667Y-97231428D01*
X166537096Y-96602857D02*
X165851381Y-96602857D01*
X166194238Y-97802857D02*
X166194238Y-96602857D01*
X165222810Y-96602857D02*
X164994238Y-96602857D01*
X164879953Y-96660000D01*
X164765667Y-96774285D01*
X164708524Y-97002857D01*
X164708524Y-97402857D01*
X164765667Y-97631428D01*
X164879953Y-97745714D01*
X164994238Y-97802857D01*
X165222810Y-97802857D01*
X165337096Y-97745714D01*
X165451381Y-97631428D01*
X165508524Y-97402857D01*
X165508524Y-97002857D01*
X165451381Y-96774285D01*
X165337096Y-96660000D01*
X165222810Y-96602857D01*
X164251381Y-97745714D02*
X164079953Y-97802857D01*
X163794238Y-97802857D01*
X163679953Y-97745714D01*
X163622810Y-97688571D01*
X163565667Y-97574285D01*
X163565667Y-97460000D01*
X163622810Y-97345714D01*
X163679953Y-97288571D01*
X163794238Y-97231428D01*
X164022810Y-97174285D01*
X164137096Y-97117142D01*
X164194238Y-97060000D01*
X164251381Y-96945714D01*
X164251381Y-96831428D01*
X164194238Y-96717142D01*
X164137096Y-96660000D01*
X164022810Y-96602857D01*
X163737096Y-96602857D01*
X163565667Y-96660000D01*
X163051381Y-97688571D02*
X162994238Y-97745714D01*
X163051381Y-97802857D01*
X163108524Y-97745714D01*
X163051381Y-97688571D01*
X163051381Y-97802857D01*
X163051381Y-97060000D02*
X162994238Y-97117142D01*
X163051381Y-97174285D01*
X163108524Y-97117142D01*
X163051381Y-97060000D01*
X163051381Y-97174285D01*
X161794238Y-97802857D02*
X162194238Y-97231428D01*
X162479953Y-97802857D02*
X162479953Y-96602857D01*
X162022810Y-96602857D01*
X161908524Y-96660000D01*
X161851381Y-96717142D01*
X161794238Y-96831428D01*
X161794238Y-97002857D01*
X161851381Y-97117142D01*
X161908524Y-97174285D01*
X162022810Y-97231428D01*
X162479953Y-97231428D01*
X161451381Y-96602857D02*
X160765667Y-96602857D01*
X161108524Y-97802857D02*
X161108524Y-96602857D01*
X160365667Y-97345714D02*
X159451381Y-97345714D01*
X159051381Y-96602857D02*
X158365667Y-96602857D01*
X158708524Y-97802857D02*
X158708524Y-96602857D01*
X157965667Y-97802857D02*
X157965667Y-96602857D01*
X157451381Y-97802857D02*
X157451381Y-97174285D01*
X157508524Y-97060000D01*
X157622810Y-97002857D01*
X157794238Y-97002857D01*
X157908524Y-97060000D01*
X157965667Y-97117142D01*
X156879953Y-97802857D02*
X156879953Y-97002857D01*
X156879953Y-97231428D02*
X156822810Y-97117142D01*
X156765667Y-97060000D01*
X156651381Y-97002857D01*
X156537096Y-97002857D01*
X155679953Y-97745714D02*
X155794238Y-97802857D01*
X156022810Y-97802857D01*
X156137096Y-97745714D01*
X156194238Y-97631428D01*
X156194238Y-97174285D01*
X156137096Y-97060000D01*
X156022810Y-97002857D01*
X155794238Y-97002857D01*
X155679953Y-97060000D01*
X155622810Y-97174285D01*
X155622810Y-97288571D01*
X156194238Y-97402857D01*
X154594238Y-97802857D02*
X154594238Y-97174285D01*
X154651381Y-97060000D01*
X154765667Y-97002857D01*
X154994238Y-97002857D01*
X155108524Y-97060000D01*
X154594238Y-97745714D02*
X154708524Y-97802857D01*
X154994238Y-97802857D01*
X155108524Y-97745714D01*
X155165667Y-97631428D01*
X155165667Y-97517142D01*
X155108524Y-97402857D01*
X154994238Y-97345714D01*
X154708524Y-97345714D01*
X154594238Y-97288571D01*
X153508524Y-97802857D02*
X153508524Y-96602857D01*
X153508524Y-97745714D02*
X153622810Y-97802857D01*
X153851381Y-97802857D01*
X153965667Y-97745714D01*
X154022810Y-97688571D01*
X154079953Y-97574285D01*
X154079953Y-97231428D01*
X154022810Y-97117142D01*
X153965667Y-97060000D01*
X153851381Y-97002857D01*
X153622810Y-97002857D01*
X153508524Y-97060000D01*
X167647795Y-98846571D02*
X167314462Y-98846571D01*
X167237081Y-99370380D02*
X167713271Y-99370380D01*
X167588271Y-98370380D01*
X167112081Y-98370380D01*
X166820414Y-98703714D02*
X166665652Y-99370380D01*
X166344224Y-98703714D01*
X165659700Y-99322761D02*
X165760890Y-99370380D01*
X165951367Y-99370380D01*
X166040652Y-99322761D01*
X166076367Y-99227523D01*
X166028747Y-98846571D01*
X165969224Y-98751333D01*
X165868033Y-98703714D01*
X165677557Y-98703714D01*
X165588271Y-98751333D01*
X165552557Y-98846571D01*
X165564462Y-98941809D01*
X166052557Y-99037047D01*
X165189462Y-99370380D02*
X165106128Y-98703714D01*
X165129938Y-98894190D02*
X165070414Y-98798952D01*
X165016843Y-98751333D01*
X164915652Y-98703714D01*
X164820414Y-98703714D01*
X164582319Y-98703714D02*
X164427557Y-99370380D01*
X164106128Y-98703714D02*
X164427557Y-99370380D01*
X164552557Y-99608476D01*
X164606128Y-99656095D01*
X164707319Y-99703714D01*
X163868033Y-98703714D02*
X163487081Y-98703714D01*
X163683509Y-98370380D02*
X163790652Y-99227523D01*
X163754938Y-99322761D01*
X163665652Y-99370380D01*
X163570414Y-99370380D01*
X163237081Y-99370380D02*
X163112081Y-98370380D01*
X162808509Y-99370380D02*
X162743033Y-98846571D01*
X162778747Y-98751333D01*
X162868033Y-98703714D01*
X163010890Y-98703714D01*
X163112081Y-98751333D01*
X163165652Y-98798952D01*
X162332319Y-99370380D02*
X162248986Y-98703714D01*
X162207319Y-98370380D02*
X162260890Y-98418000D01*
X162219224Y-98465619D01*
X162165652Y-98418000D01*
X162207319Y-98370380D01*
X162219224Y-98465619D01*
X161772795Y-98703714D02*
X161856128Y-99370380D01*
X161784700Y-98798952D02*
X161731128Y-98751333D01*
X161629938Y-98703714D01*
X161487081Y-98703714D01*
X161397795Y-98751333D01*
X161362081Y-98846571D01*
X161427557Y-99370380D01*
X160439462Y-98703714D02*
X160540652Y-99513238D01*
X160600176Y-99608476D01*
X160653747Y-99656095D01*
X160754938Y-99703714D01*
X160897795Y-99703714D01*
X160987081Y-99656095D01*
X160516843Y-99322761D02*
X160618033Y-99370380D01*
X160808509Y-99370380D01*
X160897795Y-99322761D01*
X160939462Y-99275142D01*
X160975176Y-99179904D01*
X160939462Y-98894190D01*
X160879938Y-98798952D01*
X160826367Y-98751333D01*
X160725176Y-98703714D01*
X160534700Y-98703714D01*
X160445414Y-98751333D01*
X159344224Y-98703714D02*
X158963271Y-98703714D01*
X159159700Y-98370380D02*
X159266843Y-99227523D01*
X159231128Y-99322761D01*
X159141843Y-99370380D01*
X159046605Y-99370380D01*
X158326367Y-99322761D02*
X158427557Y-99370380D01*
X158618033Y-99370380D01*
X158707319Y-99322761D01*
X158743033Y-99227523D01*
X158695414Y-98846571D01*
X158635890Y-98751333D01*
X158534700Y-98703714D01*
X158344224Y-98703714D01*
X158254938Y-98751333D01*
X158219224Y-98846571D01*
X158231128Y-98941809D01*
X158719224Y-99037047D01*
X157772795Y-98703714D02*
X157856128Y-99370380D01*
X157784700Y-98798952D02*
X157731128Y-98751333D01*
X157629938Y-98703714D01*
X157487081Y-98703714D01*
X157397795Y-98751333D01*
X157362081Y-98846571D01*
X157427557Y-99370380D01*
X156522795Y-99370380D02*
X156397795Y-98370380D01*
X156516843Y-99322761D02*
X156618033Y-99370380D01*
X156808509Y-99370380D01*
X156897795Y-99322761D01*
X156939462Y-99275142D01*
X156975176Y-99179904D01*
X156939462Y-98894190D01*
X156879938Y-98798952D01*
X156826367Y-98751333D01*
X156725176Y-98703714D01*
X156534700Y-98703714D01*
X156445414Y-98751333D01*
X156088271Y-99322761D02*
X155998986Y-99370380D01*
X155808509Y-99370380D01*
X155707319Y-99322761D01*
X155647795Y-99227523D01*
X155641843Y-99179904D01*
X155677557Y-99084666D01*
X155766843Y-99037047D01*
X155909700Y-99037047D01*
X155998986Y-98989428D01*
X156034700Y-98894190D01*
X156028747Y-98846571D01*
X155969224Y-98751333D01*
X155868033Y-98703714D01*
X155725176Y-98703714D01*
X155635890Y-98751333D01*
X154534700Y-98703714D02*
X154153747Y-98703714D01*
X154350176Y-98370380D02*
X154457319Y-99227523D01*
X154421605Y-99322761D01*
X154332319Y-99370380D01*
X154237081Y-99370380D01*
X153760890Y-99370380D02*
X153850176Y-99322761D01*
X153891843Y-99275142D01*
X153927557Y-99179904D01*
X153891843Y-98894190D01*
X153832319Y-98798952D01*
X153778747Y-98751333D01*
X153677557Y-98703714D01*
X153534700Y-98703714D01*
X153445414Y-98751333D01*
X153403747Y-98798952D01*
X153368033Y-98894190D01*
X153403747Y-99179904D01*
X153463271Y-99275142D01*
X153516843Y-99322761D01*
X153618033Y-99370380D01*
X153760890Y-99370380D01*
X152237081Y-99370380D02*
X152112081Y-98370380D01*
X152159700Y-98751333D02*
X152058509Y-98703714D01*
X151868033Y-98703714D01*
X151778747Y-98751333D01*
X151737081Y-98798952D01*
X151701367Y-98894190D01*
X151737081Y-99179904D01*
X151796605Y-99275142D01*
X151850176Y-99322761D01*
X151951367Y-99370380D01*
X152141843Y-99370380D01*
X152231128Y-99322761D01*
X150903747Y-99370380D02*
X150838271Y-98846571D01*
X150873986Y-98751333D01*
X150963271Y-98703714D01*
X151153747Y-98703714D01*
X151254938Y-98751333D01*
X150897795Y-99322761D02*
X150998986Y-99370380D01*
X151237081Y-99370380D01*
X151326367Y-99322761D01*
X151362081Y-99227523D01*
X151350176Y-99132285D01*
X151290652Y-99037047D01*
X151189462Y-98989428D01*
X150951367Y-98989428D01*
X150850176Y-98941809D01*
X150284700Y-99370380D02*
X150373986Y-99322761D01*
X150409700Y-99227523D01*
X150302557Y-98370380D01*
X149475176Y-99370380D02*
X149409700Y-98846571D01*
X149445414Y-98751333D01*
X149534700Y-98703714D01*
X149725176Y-98703714D01*
X149826367Y-98751333D01*
X149469224Y-99322761D02*
X149570414Y-99370380D01*
X149808509Y-99370380D01*
X149897795Y-99322761D01*
X149933509Y-99227523D01*
X149921605Y-99132285D01*
X149862081Y-99037047D01*
X149760890Y-98989428D01*
X149522795Y-98989428D01*
X149421605Y-98941809D01*
X148915652Y-98703714D02*
X148998986Y-99370380D01*
X148927557Y-98798952D02*
X148873986Y-98751333D01*
X148772795Y-98703714D01*
X148629938Y-98703714D01*
X148540652Y-98751333D01*
X148504938Y-98846571D01*
X148570414Y-99370380D01*
X147659700Y-99322761D02*
X147760890Y-99370380D01*
X147951367Y-99370380D01*
X148040652Y-99322761D01*
X148082319Y-99275142D01*
X148118033Y-99179904D01*
X148082319Y-98894190D01*
X148022795Y-98798952D01*
X147969224Y-98751333D01*
X147868033Y-98703714D01*
X147677557Y-98703714D01*
X147588271Y-98751333D01*
X146850176Y-99322761D02*
X146951367Y-99370380D01*
X147141843Y-99370380D01*
X147231128Y-99322761D01*
X147266843Y-99227523D01*
X147219224Y-98846571D01*
X147159700Y-98751333D01*
X147058509Y-98703714D01*
X146868033Y-98703714D01*
X146778747Y-98751333D01*
X146743033Y-98846571D01*
X146754938Y-98941809D01*
X147243033Y-99037047D01*
X146368033Y-99275142D02*
X146326367Y-99322761D01*
X146379938Y-99370380D01*
X146421605Y-99322761D01*
X146368033Y-99275142D01*
X146379938Y-99370380D01*
X167565667Y-96150857D02*
X167565667Y-94950857D01*
X167108524Y-94950857D01*
X166994238Y-95008000D01*
X166937096Y-95065142D01*
X166879953Y-95179428D01*
X166879953Y-95350857D01*
X166937096Y-95465142D01*
X166994238Y-95522285D01*
X167108524Y-95579428D01*
X167565667Y-95579428D01*
X165679953Y-96036571D02*
X165737096Y-96093714D01*
X165908524Y-96150857D01*
X166022810Y-96150857D01*
X166194238Y-96093714D01*
X166308524Y-95979428D01*
X166365667Y-95865142D01*
X166422810Y-95636571D01*
X166422810Y-95465142D01*
X166365667Y-95236571D01*
X166308524Y-95122285D01*
X166194238Y-95008000D01*
X166022810Y-94950857D01*
X165908524Y-94950857D01*
X165737096Y-95008000D01*
X165679953Y-95065142D01*
X164765667Y-95522285D02*
X164594238Y-95579428D01*
X164537096Y-95636571D01*
X164479953Y-95750857D01*
X164479953Y-95922285D01*
X164537096Y-96036571D01*
X164594238Y-96093714D01*
X164708524Y-96150857D01*
X165165667Y-96150857D01*
X165165667Y-94950857D01*
X164765667Y-94950857D01*
X164651381Y-95008000D01*
X164594238Y-95065142D01*
X164537096Y-95179428D01*
X164537096Y-95293714D01*
X164594238Y-95408000D01*
X164651381Y-95465142D01*
X164765667Y-95522285D01*
X165165667Y-95522285D01*
X163965667Y-96036571D02*
X163908524Y-96093714D01*
X163965667Y-96150857D01*
X164022810Y-96093714D01*
X163965667Y-96036571D01*
X163965667Y-96150857D01*
X163965667Y-95408000D02*
X163908524Y-95465142D01*
X163965667Y-95522285D01*
X164022810Y-95465142D01*
X163965667Y-95408000D01*
X163965667Y-95522285D01*
X162479953Y-96150857D02*
X162479953Y-94950857D01*
X161794238Y-96150857D02*
X162308524Y-95465142D01*
X161794238Y-94950857D02*
X162479953Y-95636571D01*
X161279953Y-96150857D02*
X161279953Y-95350857D01*
X161279953Y-94950857D02*
X161337096Y-95008000D01*
X161279953Y-95065142D01*
X161222810Y-95008000D01*
X161279953Y-94950857D01*
X161279953Y-95065142D01*
X160022810Y-96036571D02*
X160079953Y-96093714D01*
X160251381Y-96150857D01*
X160365667Y-96150857D01*
X160537096Y-96093714D01*
X160651381Y-95979428D01*
X160708524Y-95865142D01*
X160765667Y-95636571D01*
X160765667Y-95465142D01*
X160708524Y-95236571D01*
X160651381Y-95122285D01*
X160537096Y-95008000D01*
X160365667Y-94950857D01*
X160251381Y-94950857D01*
X160079953Y-95008000D01*
X160022810Y-95065142D01*
X158994238Y-96150857D02*
X158994238Y-95522285D01*
X159051381Y-95408000D01*
X159165667Y-95350857D01*
X159394238Y-95350857D01*
X159508524Y-95408000D01*
X158994238Y-96093714D02*
X159108524Y-96150857D01*
X159394238Y-96150857D01*
X159508524Y-96093714D01*
X159565667Y-95979428D01*
X159565667Y-95865142D01*
X159508524Y-95750857D01*
X159394238Y-95693714D01*
X159108524Y-95693714D01*
X158994238Y-95636571D01*
X157908524Y-96150857D02*
X157908524Y-94950857D01*
X157908524Y-96093714D02*
X158022810Y-96150857D01*
X158251381Y-96150857D01*
X158365667Y-96093714D01*
X158422810Y-96036571D01*
X158479953Y-95922285D01*
X158479953Y-95579428D01*
X158422810Y-95465142D01*
X158365667Y-95408000D01*
X158251381Y-95350857D01*
X158022810Y-95350857D01*
X157908524Y-95408000D01*
X174916380Y-86748952D02*
X173916380Y-86748952D01*
X173916380Y-87129904D01*
X173964000Y-87225142D01*
X174011619Y-87272761D01*
X174106857Y-87320380D01*
X174249714Y-87320380D01*
X174344952Y-87272761D01*
X174392571Y-87225142D01*
X174440190Y-87129904D01*
X174440190Y-86748952D01*
X174392571Y-88082285D02*
X174440190Y-88225142D01*
X174487809Y-88272761D01*
X174583047Y-88320380D01*
X174725904Y-88320380D01*
X174821142Y-88272761D01*
X174868761Y-88225142D01*
X174916380Y-88129904D01*
X174916380Y-87748952D01*
X173916380Y-87748952D01*
X173916380Y-88082285D01*
X173964000Y-88177523D01*
X174011619Y-88225142D01*
X174106857Y-88272761D01*
X174202095Y-88272761D01*
X174297333Y-88225142D01*
X174344952Y-88177523D01*
X174392571Y-88082285D01*
X174392571Y-87748952D01*
X174916380Y-89272761D02*
X174916380Y-88701333D01*
X174916380Y-88987047D02*
X173916380Y-88987047D01*
X174059238Y-88891809D01*
X174154476Y-88796571D01*
X174202095Y-88701333D01*
X174916380Y-90225142D02*
X174916380Y-89653714D01*
X174916380Y-89939428D02*
X173916380Y-89939428D01*
X174059238Y-89844190D01*
X174154476Y-89748952D01*
X174202095Y-89653714D01*
X172416380Y-86748952D02*
X171416380Y-86748952D01*
X171416380Y-87129904D01*
X171464000Y-87225142D01*
X171511619Y-87272761D01*
X171606857Y-87320380D01*
X171749714Y-87320380D01*
X171844952Y-87272761D01*
X171892571Y-87225142D01*
X171940190Y-87129904D01*
X171940190Y-86748952D01*
X172130666Y-87701333D02*
X172130666Y-88177523D01*
X172416380Y-87606095D02*
X171416380Y-87939428D01*
X172416380Y-88272761D01*
X172416380Y-89129904D02*
X172416380Y-88558476D01*
X172416380Y-88844190D02*
X171416380Y-88844190D01*
X171559238Y-88748952D01*
X171654476Y-88653714D01*
X171702095Y-88558476D01*
X169916380Y-86748952D02*
X168916380Y-86748952D01*
X168916380Y-87129904D01*
X168964000Y-87225142D01*
X169011619Y-87272761D01*
X169106857Y-87320380D01*
X169249714Y-87320380D01*
X169344952Y-87272761D01*
X169392571Y-87225142D01*
X169440190Y-87129904D01*
X169440190Y-86748952D01*
X169392571Y-88082285D02*
X169440190Y-88225142D01*
X169487809Y-88272761D01*
X169583047Y-88320380D01*
X169725904Y-88320380D01*
X169821142Y-88272761D01*
X169868761Y-88225142D01*
X169916380Y-88129904D01*
X169916380Y-87748952D01*
X168916380Y-87748952D01*
X168916380Y-88082285D01*
X168964000Y-88177523D01*
X169011619Y-88225142D01*
X169106857Y-88272761D01*
X169202095Y-88272761D01*
X169297333Y-88225142D01*
X169344952Y-88177523D01*
X169392571Y-88082285D01*
X169392571Y-87748952D01*
X169916380Y-89272761D02*
X169916380Y-88701333D01*
X169916380Y-88987047D02*
X168916380Y-88987047D01*
X169059238Y-88891809D01*
X169154476Y-88796571D01*
X169202095Y-88701333D01*
X169011619Y-89653714D02*
X168964000Y-89701333D01*
X168916380Y-89796571D01*
X168916380Y-90034666D01*
X168964000Y-90129904D01*
X169011619Y-90177523D01*
X169106857Y-90225142D01*
X169202095Y-90225142D01*
X169344952Y-90177523D01*
X169916380Y-89606095D01*
X169916380Y-90225142D01*
X167416380Y-86748952D02*
X166416380Y-86748952D01*
X166416380Y-87129904D01*
X166464000Y-87225142D01*
X166511619Y-87272761D01*
X166606857Y-87320380D01*
X166749714Y-87320380D01*
X166844952Y-87272761D01*
X166892571Y-87225142D01*
X166940190Y-87129904D01*
X166940190Y-86748952D01*
X166892571Y-88082285D02*
X166940190Y-88225142D01*
X166987809Y-88272761D01*
X167083047Y-88320380D01*
X167225904Y-88320380D01*
X167321142Y-88272761D01*
X167368761Y-88225142D01*
X167416380Y-88129904D01*
X167416380Y-87748952D01*
X166416380Y-87748952D01*
X166416380Y-88082285D01*
X166464000Y-88177523D01*
X166511619Y-88225142D01*
X166606857Y-88272761D01*
X166702095Y-88272761D01*
X166797333Y-88225142D01*
X166844952Y-88177523D01*
X166892571Y-88082285D01*
X166892571Y-87748952D01*
X167416380Y-89272761D02*
X167416380Y-88701333D01*
X167416380Y-88987047D02*
X166416380Y-88987047D01*
X166559238Y-88891809D01*
X166654476Y-88796571D01*
X166702095Y-88701333D01*
X166416380Y-89606095D02*
X166416380Y-90225142D01*
X166797333Y-89891809D01*
X166797333Y-90034666D01*
X166844952Y-90129904D01*
X166892571Y-90177523D01*
X166987809Y-90225142D01*
X167225904Y-90225142D01*
X167321142Y-90177523D01*
X167368761Y-90129904D01*
X167416380Y-90034666D01*
X167416380Y-89748952D01*
X167368761Y-89653714D01*
X167321142Y-89606095D01*
X164916380Y-86748952D02*
X163916380Y-86748952D01*
X163916380Y-87129904D01*
X163964000Y-87225142D01*
X164011619Y-87272761D01*
X164106857Y-87320380D01*
X164249714Y-87320380D01*
X164344952Y-87272761D01*
X164392571Y-87225142D01*
X164440190Y-87129904D01*
X164440190Y-86748952D01*
X164392571Y-88082285D02*
X164440190Y-88225142D01*
X164487809Y-88272761D01*
X164583047Y-88320380D01*
X164725904Y-88320380D01*
X164821142Y-88272761D01*
X164868761Y-88225142D01*
X164916380Y-88129904D01*
X164916380Y-87748952D01*
X163916380Y-87748952D01*
X163916380Y-88082285D01*
X163964000Y-88177523D01*
X164011619Y-88225142D01*
X164106857Y-88272761D01*
X164202095Y-88272761D01*
X164297333Y-88225142D01*
X164344952Y-88177523D01*
X164392571Y-88082285D01*
X164392571Y-87748952D01*
X164916380Y-89272761D02*
X164916380Y-88701333D01*
X164916380Y-88987047D02*
X163916380Y-88987047D01*
X164059238Y-88891809D01*
X164154476Y-88796571D01*
X164202095Y-88701333D01*
X164249714Y-90129904D02*
X164916380Y-90129904D01*
X163868761Y-89891809D02*
X164583047Y-89653714D01*
X164583047Y-90272761D01*
X162416380Y-86748952D02*
X161416380Y-86748952D01*
X161416380Y-87129904D01*
X161464000Y-87225142D01*
X161511619Y-87272761D01*
X161606857Y-87320380D01*
X161749714Y-87320380D01*
X161844952Y-87272761D01*
X161892571Y-87225142D01*
X161940190Y-87129904D01*
X161940190Y-86748952D01*
X161892571Y-88082285D02*
X161940190Y-88225142D01*
X161987809Y-88272761D01*
X162083047Y-88320380D01*
X162225904Y-88320380D01*
X162321142Y-88272761D01*
X162368761Y-88225142D01*
X162416380Y-88129904D01*
X162416380Y-87748952D01*
X161416380Y-87748952D01*
X161416380Y-88082285D01*
X161464000Y-88177523D01*
X161511619Y-88225142D01*
X161606857Y-88272761D01*
X161702095Y-88272761D01*
X161797333Y-88225142D01*
X161844952Y-88177523D01*
X161892571Y-88082285D01*
X161892571Y-87748952D01*
X162416380Y-89272761D02*
X162416380Y-88701333D01*
X162416380Y-88987047D02*
X161416380Y-88987047D01*
X161559238Y-88891809D01*
X161654476Y-88796571D01*
X161702095Y-88701333D01*
X161416380Y-90177523D02*
X161416380Y-89701333D01*
X161892571Y-89653714D01*
X161844952Y-89701333D01*
X161797333Y-89796571D01*
X161797333Y-90034666D01*
X161844952Y-90129904D01*
X161892571Y-90177523D01*
X161987809Y-90225142D01*
X162225904Y-90225142D01*
X162321142Y-90177523D01*
X162368761Y-90129904D01*
X162416380Y-90034666D01*
X162416380Y-89796571D01*
X162368761Y-89701333D01*
X162321142Y-89653714D01*
X159916380Y-86748952D02*
X158916380Y-86748952D01*
X158916380Y-87129904D01*
X158964000Y-87225142D01*
X159011619Y-87272761D01*
X159106857Y-87320380D01*
X159249714Y-87320380D01*
X159344952Y-87272761D01*
X159392571Y-87225142D01*
X159440190Y-87129904D01*
X159440190Y-86748952D01*
X159630666Y-87701333D02*
X159630666Y-88177523D01*
X159916380Y-87606095D02*
X158916380Y-87939428D01*
X159916380Y-88272761D01*
X159344952Y-88748952D02*
X159297333Y-88653714D01*
X159249714Y-88606095D01*
X159154476Y-88558476D01*
X159106857Y-88558476D01*
X159011619Y-88606095D01*
X158964000Y-88653714D01*
X158916380Y-88748952D01*
X158916380Y-88939428D01*
X158964000Y-89034666D01*
X159011619Y-89082285D01*
X159106857Y-89129904D01*
X159154476Y-89129904D01*
X159249714Y-89082285D01*
X159297333Y-89034666D01*
X159344952Y-88939428D01*
X159344952Y-88748952D01*
X159392571Y-88653714D01*
X159440190Y-88606095D01*
X159535428Y-88558476D01*
X159725904Y-88558476D01*
X159821142Y-88606095D01*
X159868761Y-88653714D01*
X159916380Y-88748952D01*
X159916380Y-88939428D01*
X159868761Y-89034666D01*
X159821142Y-89082285D01*
X159725904Y-89129904D01*
X159535428Y-89129904D01*
X159440190Y-89082285D01*
X159392571Y-89034666D01*
X159344952Y-88939428D01*
X157416380Y-86748952D02*
X156416380Y-86748952D01*
X156416380Y-87129904D01*
X156464000Y-87225142D01*
X156511619Y-87272761D01*
X156606857Y-87320380D01*
X156749714Y-87320380D01*
X156844952Y-87272761D01*
X156892571Y-87225142D01*
X156940190Y-87129904D01*
X156940190Y-86748952D01*
X157321142Y-88320380D02*
X157368761Y-88272761D01*
X157416380Y-88129904D01*
X157416380Y-88034666D01*
X157368761Y-87891809D01*
X157273523Y-87796571D01*
X157178285Y-87748952D01*
X156987809Y-87701333D01*
X156844952Y-87701333D01*
X156654476Y-87748952D01*
X156559238Y-87796571D01*
X156464000Y-87891809D01*
X156416380Y-88034666D01*
X156416380Y-88129904D01*
X156464000Y-88272761D01*
X156511619Y-88320380D01*
X157416380Y-89272761D02*
X157416380Y-88701333D01*
X157416380Y-88987047D02*
X156416380Y-88987047D01*
X156559238Y-88891809D01*
X156654476Y-88796571D01*
X156702095Y-88701333D01*
X156416380Y-90177523D02*
X156416380Y-89701333D01*
X156892571Y-89653714D01*
X156844952Y-89701333D01*
X156797333Y-89796571D01*
X156797333Y-90034666D01*
X156844952Y-90129904D01*
X156892571Y-90177523D01*
X156987809Y-90225142D01*
X157225904Y-90225142D01*
X157321142Y-90177523D01*
X157368761Y-90129904D01*
X157416380Y-90034666D01*
X157416380Y-89796571D01*
X157368761Y-89701333D01*
X157321142Y-89653714D01*
X154916380Y-86748952D02*
X153916380Y-86748952D01*
X153916380Y-87129904D01*
X153964000Y-87225142D01*
X154011619Y-87272761D01*
X154106857Y-87320380D01*
X154249714Y-87320380D01*
X154344952Y-87272761D01*
X154392571Y-87225142D01*
X154440190Y-87129904D01*
X154440190Y-86748952D01*
X154821142Y-88320380D02*
X154868761Y-88272761D01*
X154916380Y-88129904D01*
X154916380Y-88034666D01*
X154868761Y-87891809D01*
X154773523Y-87796571D01*
X154678285Y-87748952D01*
X154487809Y-87701333D01*
X154344952Y-87701333D01*
X154154476Y-87748952D01*
X154059238Y-87796571D01*
X153964000Y-87891809D01*
X153916380Y-88034666D01*
X153916380Y-88129904D01*
X153964000Y-88272761D01*
X154011619Y-88320380D01*
X154916380Y-89272761D02*
X154916380Y-88701333D01*
X154916380Y-88987047D02*
X153916380Y-88987047D01*
X154059238Y-88891809D01*
X154154476Y-88796571D01*
X154202095Y-88701333D01*
X154249714Y-90129904D02*
X154916380Y-90129904D01*
X153868761Y-89891809D02*
X154583047Y-89653714D01*
X154583047Y-90272761D01*
X161821142Y-103544189D02*
X161868761Y-103496570D01*
X161916380Y-103353713D01*
X161916380Y-103258475D01*
X161868761Y-103115618D01*
X161773523Y-103020380D01*
X161678285Y-102972761D01*
X161487809Y-102925142D01*
X161344952Y-102925142D01*
X161154476Y-102972761D01*
X161059238Y-103020380D01*
X160964000Y-103115618D01*
X160916380Y-103258475D01*
X160916380Y-103353713D01*
X160964000Y-103496570D01*
X161011619Y-103544189D01*
X161916380Y-104448951D02*
X161916380Y-103972761D01*
X160916380Y-103972761D01*
X161916380Y-104782285D02*
X160916380Y-104782285D01*
X161916380Y-105353713D02*
X161344952Y-104925142D01*
X160916380Y-105353713D02*
X161487809Y-104782285D01*
X158464000Y-103258476D02*
X158416380Y-103163238D01*
X158416380Y-103020381D01*
X158464000Y-102877523D01*
X158559238Y-102782285D01*
X158654476Y-102734666D01*
X158844952Y-102687047D01*
X158987809Y-102687047D01*
X159178285Y-102734666D01*
X159273523Y-102782285D01*
X159368761Y-102877523D01*
X159416380Y-103020381D01*
X159416380Y-103115619D01*
X159368761Y-103258476D01*
X159321142Y-103306095D01*
X158987809Y-103306095D01*
X158987809Y-103115619D01*
X159416380Y-103734666D02*
X158416380Y-103734666D01*
X159416380Y-104306095D01*
X158416380Y-104306095D01*
X159416380Y-104782285D02*
X158416380Y-104782285D01*
X158416380Y-105020381D01*
X158464000Y-105163238D01*
X158559238Y-105258476D01*
X158654476Y-105306095D01*
X158844952Y-105353714D01*
X158987809Y-105353714D01*
X159178285Y-105306095D01*
X159273523Y-105258476D01*
X159368761Y-105163238D01*
X159416380Y-105020381D01*
X159416380Y-104782285D01*
X156666380Y-103258475D02*
X155666380Y-103258475D01*
X155666380Y-103496570D01*
X155714000Y-103639427D01*
X155809238Y-103734665D01*
X155904476Y-103782285D01*
X156094952Y-103829904D01*
X156237809Y-103829904D01*
X156428285Y-103782285D01*
X156523523Y-103734665D01*
X156618761Y-103639427D01*
X156666380Y-103496570D01*
X156666380Y-103258475D01*
X156666380Y-104258475D02*
X155666380Y-104258475D01*
X155666380Y-104925142D02*
X155666380Y-105115618D01*
X155714000Y-105210856D01*
X155809238Y-105306094D01*
X155999714Y-105353713D01*
X156333047Y-105353713D01*
X156523523Y-105306094D01*
X156618761Y-105210856D01*
X156666380Y-105115618D01*
X156666380Y-104925142D01*
X156618761Y-104829904D01*
X156523523Y-104734665D01*
X156333047Y-104687046D01*
X155999714Y-104687046D01*
X155809238Y-104734665D01*
X155714000Y-104829904D01*
X155666380Y-104925142D01*
X153166380Y-102448952D02*
X153166380Y-103068000D01*
X153547333Y-102734666D01*
X153547333Y-102877523D01*
X153594952Y-102972762D01*
X153642571Y-103020381D01*
X153737809Y-103068000D01*
X153975904Y-103068000D01*
X154071142Y-103020381D01*
X154118761Y-102972762D01*
X154166380Y-102877523D01*
X154166380Y-102591809D01*
X154118761Y-102496571D01*
X154071142Y-102448952D01*
X154071142Y-103496571D02*
X154118761Y-103544190D01*
X154166380Y-103496571D01*
X154118761Y-103448952D01*
X154071142Y-103496571D01*
X154166380Y-103496571D01*
X153166380Y-103877523D02*
X153166380Y-104496571D01*
X153547333Y-104163238D01*
X153547333Y-104306095D01*
X153594952Y-104401333D01*
X153642571Y-104448952D01*
X153737809Y-104496571D01*
X153975904Y-104496571D01*
X154071142Y-104448952D01*
X154118761Y-104401333D01*
X154166380Y-104306095D01*
X154166380Y-104020381D01*
X154118761Y-103925143D01*
X154071142Y-103877523D01*
X153166380Y-104782285D02*
X154166380Y-105115619D01*
X153166380Y-105448952D01*
X164496380Y-104401333D02*
X164020190Y-104068000D01*
X164496380Y-103829904D02*
X163496380Y-103829904D01*
X163496380Y-104210857D01*
X163544000Y-104306095D01*
X163591619Y-104353714D01*
X163686857Y-104401333D01*
X163829714Y-104401333D01*
X163924952Y-104353714D01*
X163972571Y-104306095D01*
X164020190Y-104210857D01*
X164020190Y-103829904D01*
X163496380Y-104734666D02*
X164496380Y-105401333D01*
X163496380Y-105401333D02*
X164496380Y-104734666D01*
X166016380Y-103925142D02*
X166016380Y-104496570D01*
X167016380Y-104210856D02*
X166016380Y-104210856D01*
X166016380Y-104734666D02*
X167016380Y-105401332D01*
X166016380Y-105401332D02*
X167016380Y-104734666D01*
X174830666Y-102320380D02*
X175164000Y-101844190D01*
X175402095Y-102320380D02*
X175402095Y-101320380D01*
X175021142Y-101320380D01*
X174925904Y-101368000D01*
X174878285Y-101415619D01*
X174830666Y-101510857D01*
X174830666Y-101653714D01*
X174878285Y-101748952D01*
X174925904Y-101796571D01*
X175021142Y-101844190D01*
X175402095Y-101844190D01*
X174497333Y-101320380D02*
X173830666Y-102320380D01*
X173830666Y-101320380D02*
X174497333Y-102320380D01*
X177725904Y-101320380D02*
X177154476Y-101320380D01*
X177440190Y-102320380D02*
X177440190Y-101320380D01*
X176916380Y-101320380D02*
X176249714Y-102320380D01*
X176249714Y-101320380D02*
X176916380Y-102320380D01*
X175544952Y-98920380D02*
X174973523Y-98920380D01*
X175259238Y-99920380D02*
X175259238Y-98920380D01*
X174640190Y-99920380D02*
X174640190Y-98920380D01*
X174402095Y-98920380D01*
X174259238Y-98968000D01*
X174164000Y-99063238D01*
X174116381Y-99158476D01*
X174068762Y-99348952D01*
X174068762Y-99491809D01*
X174116381Y-99682285D01*
X174164000Y-99777523D01*
X174259238Y-99872761D01*
X174402095Y-99920380D01*
X174640190Y-99920380D01*
X173640190Y-99920380D02*
X173640190Y-98920380D01*
X178821142Y-98920380D02*
X178249714Y-98920380D01*
X178535428Y-99920380D02*
X178535428Y-98920380D01*
X177916380Y-99920380D02*
X177916380Y-98920380D01*
X177678285Y-98920380D01*
X177535428Y-98968000D01*
X177440190Y-99063238D01*
X177392571Y-99158476D01*
X177344952Y-99348952D01*
X177344952Y-99491809D01*
X177392571Y-99682285D01*
X177440190Y-99777523D01*
X177535428Y-99872761D01*
X177678285Y-99920380D01*
X177916380Y-99920380D01*
X176725904Y-98920380D02*
X176535428Y-98920380D01*
X176440190Y-98968000D01*
X176344952Y-99063238D01*
X176297333Y-99253714D01*
X176297333Y-99587047D01*
X176344952Y-99777523D01*
X176440190Y-99872761D01*
X176535428Y-99920380D01*
X176725904Y-99920380D01*
X176821142Y-99872761D01*
X176916380Y-99777523D01*
X176963999Y-99587047D01*
X176963999Y-99253714D01*
X176916380Y-99063238D01*
X176821142Y-98968000D01*
X176725904Y-98920380D01*
X178106857Y-97225142D02*
X178154476Y-97272761D01*
X178297333Y-97320380D01*
X178392571Y-97320380D01*
X178535428Y-97272761D01*
X178630666Y-97177523D01*
X178678285Y-97082285D01*
X178725904Y-96891809D01*
X178725904Y-96748952D01*
X178678285Y-96558476D01*
X178630666Y-96463238D01*
X178535428Y-96368000D01*
X178392571Y-96320380D01*
X178297333Y-96320380D01*
X178154476Y-96368000D01*
X178106857Y-96415619D01*
X177202095Y-97320380D02*
X177678285Y-97320380D01*
X177678285Y-96320380D01*
X176868761Y-97320380D02*
X176868761Y-96320380D01*
X176297333Y-97320380D02*
X176725904Y-96748952D01*
X176297333Y-96320380D02*
X176868761Y-96891809D01*
X175402095Y-97320380D02*
X175402095Y-96320380D01*
X175164000Y-96320380D01*
X175021143Y-96368000D01*
X174925905Y-96463238D01*
X174878285Y-96558476D01*
X174830666Y-96748952D01*
X174830666Y-96891809D01*
X174878285Y-97082285D01*
X174925905Y-97177523D01*
X175021143Y-97272761D01*
X175164000Y-97320380D01*
X175402095Y-97320380D01*
X174402095Y-97320380D02*
X174402095Y-96320380D01*
X173735428Y-96320380D02*
X173544952Y-96320380D01*
X173449714Y-96368000D01*
X173354476Y-96463238D01*
X173306857Y-96653714D01*
X173306857Y-96987047D01*
X173354476Y-97177523D01*
X173449714Y-97272761D01*
X173544952Y-97320380D01*
X173735428Y-97320380D01*
X173830666Y-97272761D01*
X173925905Y-97177523D01*
X173973524Y-96987047D01*
X173973524Y-96653714D01*
X173925905Y-96463238D01*
X173830666Y-96368000D01*
X173735428Y-96320380D01*
X172164000Y-96272761D02*
X173021143Y-97558476D01*
X171973524Y-96320380D02*
X171402095Y-96320380D01*
X171687809Y-97320380D02*
X171687809Y-96320380D01*
X171068762Y-97320380D02*
X171068762Y-96320380D01*
X170735428Y-97034666D01*
X170402095Y-96320380D01*
X170402095Y-97320380D01*
X169973524Y-97272761D02*
X169830666Y-97320380D01*
X169592571Y-97320380D01*
X169497333Y-97272761D01*
X169449714Y-97225142D01*
X169402095Y-97129904D01*
X169402095Y-97034666D01*
X169449714Y-96939428D01*
X169497333Y-96891809D01*
X169592571Y-96844190D01*
X169783047Y-96796571D01*
X169878285Y-96748952D01*
X169925905Y-96701333D01*
X169973524Y-96606095D01*
X169973524Y-96510857D01*
X169925905Y-96415619D01*
X169878285Y-96368000D01*
X169783047Y-96320380D01*
X169544952Y-96320380D01*
X169402095Y-96368000D01*
X178154475Y-94720380D02*
X178487808Y-94244190D01*
X178725904Y-94720380D02*
X178725904Y-93720380D01*
X178344951Y-93720380D01*
X178249713Y-93768000D01*
X178202094Y-93815619D01*
X178154475Y-93910857D01*
X178154475Y-94053714D01*
X178202094Y-94148952D01*
X178249713Y-94196571D01*
X178344951Y-94244190D01*
X178725904Y-94244190D01*
X177725904Y-94196571D02*
X177392570Y-94196571D01*
X177249713Y-94720380D02*
X177725904Y-94720380D01*
X177725904Y-93720380D01*
X177249713Y-93720380D01*
X176868761Y-94672761D02*
X176725904Y-94720380D01*
X176487808Y-94720380D01*
X176392570Y-94672761D01*
X176344951Y-94625142D01*
X176297332Y-94529904D01*
X176297332Y-94434666D01*
X176344951Y-94339428D01*
X176392570Y-94291809D01*
X176487808Y-94244190D01*
X176678285Y-94196571D01*
X176773523Y-94148952D01*
X176821142Y-94101333D01*
X176868761Y-94006095D01*
X176868761Y-93910857D01*
X176821142Y-93815619D01*
X176773523Y-93768000D01*
X176678285Y-93720380D01*
X176440189Y-93720380D01*
X176297332Y-93768000D01*
X175402095Y-94820380D02*
X175402095Y-93820380D01*
X174735428Y-93820380D02*
X174544952Y-93820380D01*
X174449714Y-93868000D01*
X174354476Y-93963238D01*
X174306857Y-94153714D01*
X174306857Y-94487047D01*
X174354476Y-94677523D01*
X174449714Y-94772761D01*
X174544952Y-94820380D01*
X174735428Y-94820380D01*
X174830666Y-94772761D01*
X174925905Y-94677523D01*
X174973524Y-94487047D01*
X174973524Y-94153714D01*
X174925905Y-93963238D01*
X174830666Y-93868000D01*
X174735428Y-93820380D01*
D10*
X168964000Y-90668000D02*
X179764000Y-90668000D01*
X168964000Y-103068000D02*
X179764000Y-103068000D01*
X168964000Y-100668000D02*
X179764000Y-100668000D01*
X168964000Y-98168000D02*
X179764000Y-98168000D01*
X168964000Y-95568000D02*
X179764000Y-95568000D01*
X168964000Y-93068000D02*
X179764000Y-93068000D01*
X175864000Y-90668000D02*
X175864000Y-103068000D01*
D11*
X178392570Y-91468000D02*
X178487808Y-91420380D01*
X178630666Y-91420380D01*
X178773523Y-91468000D01*
X178868761Y-91563238D01*
X178916380Y-91658476D01*
X178963999Y-91848952D01*
X178963999Y-91991809D01*
X178916380Y-92182285D01*
X178868761Y-92277523D01*
X178773523Y-92372761D01*
X178630666Y-92420380D01*
X178535427Y-92420380D01*
X178392570Y-92372761D01*
X178344951Y-92325142D01*
X178344951Y-91991809D01*
X178535427Y-91991809D01*
X177916380Y-92420380D02*
X177916380Y-91420380D01*
X177344951Y-92420380D01*
X177344951Y-91420380D01*
X176868761Y-92420380D02*
X176868761Y-91420380D01*
X176630666Y-91420380D01*
X176487808Y-91468000D01*
X176392570Y-91563238D01*
X176344951Y-91658476D01*
X176297332Y-91848952D01*
X176297332Y-91991809D01*
X176344951Y-92182285D01*
X176392570Y-92277523D01*
X176487808Y-92372761D01*
X176630666Y-92420380D01*
X176868761Y-92420380D01*
X175497333Y-91420380D02*
X174878285Y-91420380D01*
X175211619Y-91801333D01*
X175068762Y-91801333D01*
X174973523Y-91848952D01*
X174925904Y-91896571D01*
X174878285Y-91991809D01*
X174878285Y-92229904D01*
X174925904Y-92325142D01*
X174973523Y-92372761D01*
X175068762Y-92420380D01*
X175354476Y-92420380D01*
X175449714Y-92372761D01*
X175497333Y-92325142D01*
X174449714Y-92325142D02*
X174402095Y-92372761D01*
X174449714Y-92420380D01*
X174497333Y-92372761D01*
X174449714Y-92325142D01*
X174449714Y-92420380D01*
X174068762Y-91420380D02*
X173449714Y-91420380D01*
X173783047Y-91801333D01*
X173640190Y-91801333D01*
X173544952Y-91848952D01*
X173497333Y-91896571D01*
X173449714Y-91991809D01*
X173449714Y-92229904D01*
X173497333Y-92325142D01*
X173544952Y-92372761D01*
X173640190Y-92420380D01*
X173925904Y-92420380D01*
X174021143Y-92372761D01*
X174068762Y-92325142D01*
X173164000Y-91420380D02*
X172830666Y-92420380D01*
X172497333Y-91420380D01*
M02*
