G04 #@! TF.GenerationSoftware,KiCad,Pcbnew,5.1.5-52549c5~84~ubuntu18.04.1*
G04 #@! TF.CreationDate,2019-11-30T22:15:41+08:00*
G04 #@! TF.ProjectId,dap-stm32f103,6461702d-7374-46d3-9332-663130332e6b,rev?*
G04 #@! TF.SameCoordinates,Original*
G04 #@! TF.FileFunction,Legend,Top*
G04 #@! TF.FilePolarity,Positive*
%FSLAX46Y46*%
G04 Gerber Fmt 4.6, Leading zero omitted, Abs format (unit mm)*
G04 Created by KiCad (PCBNEW 5.1.5-52549c5~84~ubuntu18.04.1) date 2019-11-30 22:15:41*
%MOMM*%
%LPD*%
G04 APERTURE LIST*
%ADD10C,0.150000*%
%ADD11C,0.200000*%
%ADD12C,0.120000*%
%ADD13C,0.254000*%
%ADD14C,0.400000*%
%ADD15C,0.300000*%
G04 APERTURE END LIST*
D10*
X159452095Y-88570380D02*
X159118761Y-88094190D01*
X158880666Y-88570380D02*
X158880666Y-87570380D01*
X159261619Y-87570380D01*
X159356857Y-87618000D01*
X159404476Y-87665619D01*
X159452095Y-87760857D01*
X159452095Y-87903714D01*
X159404476Y-87998952D01*
X159356857Y-88046571D01*
X159261619Y-88094190D01*
X158880666Y-88094190D01*
X159737809Y-87570380D02*
X160309238Y-87570380D01*
X160023523Y-88570380D02*
X160023523Y-87570380D01*
X160642571Y-88189428D02*
X161404476Y-88189428D01*
X161737809Y-87570380D02*
X162309238Y-87570380D01*
X162023523Y-88570380D02*
X162023523Y-87570380D01*
X162642571Y-88570380D02*
X162642571Y-87570380D01*
X163071142Y-88570380D02*
X163071142Y-88046571D01*
X163023523Y-87951333D01*
X162928285Y-87903714D01*
X162785428Y-87903714D01*
X162690190Y-87951333D01*
X162642571Y-87998952D01*
X163547333Y-88570380D02*
X163547333Y-87903714D01*
X163547333Y-88094190D02*
X163594952Y-87998952D01*
X163642571Y-87951333D01*
X163737809Y-87903714D01*
X163833047Y-87903714D01*
X164547333Y-88522761D02*
X164452095Y-88570380D01*
X164261619Y-88570380D01*
X164166380Y-88522761D01*
X164118761Y-88427523D01*
X164118761Y-88046571D01*
X164166380Y-87951333D01*
X164261619Y-87903714D01*
X164452095Y-87903714D01*
X164547333Y-87951333D01*
X164594952Y-88046571D01*
X164594952Y-88141809D01*
X164118761Y-88237047D01*
X165452095Y-88570380D02*
X165452095Y-88046571D01*
X165404476Y-87951333D01*
X165309238Y-87903714D01*
X165118761Y-87903714D01*
X165023523Y-87951333D01*
X165452095Y-88522761D02*
X165356857Y-88570380D01*
X165118761Y-88570380D01*
X165023523Y-88522761D01*
X164975904Y-88427523D01*
X164975904Y-88332285D01*
X165023523Y-88237047D01*
X165118761Y-88189428D01*
X165356857Y-88189428D01*
X165452095Y-88141809D01*
X166356857Y-88570380D02*
X166356857Y-87570380D01*
X166356857Y-88522761D02*
X166261619Y-88570380D01*
X166071142Y-88570380D01*
X165975904Y-88522761D01*
X165928285Y-88475142D01*
X165880666Y-88379904D01*
X165880666Y-88094190D01*
X165928285Y-87998952D01*
X165975904Y-87951333D01*
X166071142Y-87903714D01*
X166261619Y-87903714D01*
X166356857Y-87951333D01*
X167594952Y-88570380D02*
X167594952Y-87570380D01*
X168071142Y-87903714D02*
X168071142Y-88570380D01*
X168071142Y-87998952D02*
X168118761Y-87951333D01*
X168214000Y-87903714D01*
X168356857Y-87903714D01*
X168452095Y-87951333D01*
X168499714Y-88046571D01*
X168499714Y-88570380D01*
X168928285Y-88522761D02*
X169023523Y-88570380D01*
X169214000Y-88570380D01*
X169309238Y-88522761D01*
X169356857Y-88427523D01*
X169356857Y-88379904D01*
X169309238Y-88284666D01*
X169214000Y-88237047D01*
X169071142Y-88237047D01*
X168975904Y-88189428D01*
X168928285Y-88094190D01*
X168928285Y-88046571D01*
X168975904Y-87951333D01*
X169071142Y-87903714D01*
X169214000Y-87903714D01*
X169309238Y-87951333D01*
X169785428Y-88570380D02*
X169785428Y-87903714D01*
X169785428Y-87570380D02*
X169737809Y-87618000D01*
X169785428Y-87665619D01*
X169833047Y-87618000D01*
X169785428Y-87570380D01*
X169785428Y-87665619D01*
X170690190Y-88570380D02*
X170690190Y-87570380D01*
X170690190Y-88522761D02*
X170594952Y-88570380D01*
X170404476Y-88570380D01*
X170309238Y-88522761D01*
X170261619Y-88475142D01*
X170214000Y-88379904D01*
X170214000Y-88094190D01*
X170261619Y-87998952D01*
X170309238Y-87951333D01*
X170404476Y-87903714D01*
X170594952Y-87903714D01*
X170690190Y-87951333D01*
X171547333Y-88522761D02*
X171452095Y-88570380D01*
X171261619Y-88570380D01*
X171166380Y-88522761D01*
X171118761Y-88427523D01*
X171118761Y-88046571D01*
X171166380Y-87951333D01*
X171261619Y-87903714D01*
X171452095Y-87903714D01*
X171547333Y-87951333D01*
X171594952Y-88046571D01*
X171594952Y-88141809D01*
X171118761Y-88237047D01*
D11*
X167716380Y-91206095D02*
X167716380Y-89906095D01*
X168025904Y-89906095D01*
X168211619Y-89968000D01*
X168335428Y-90091809D01*
X168397333Y-90215619D01*
X168459238Y-90463238D01*
X168459238Y-90648952D01*
X168397333Y-90896571D01*
X168335428Y-91020380D01*
X168211619Y-91144190D01*
X168025904Y-91206095D01*
X167716380Y-91206095D01*
X168954476Y-90834666D02*
X169573523Y-90834666D01*
X168830666Y-91206095D02*
X169264000Y-89906095D01*
X169697333Y-91206095D01*
X170130666Y-91206095D02*
X170130666Y-89906095D01*
X170625904Y-89906095D01*
X170749714Y-89968000D01*
X170811619Y-90029904D01*
X170873523Y-90153714D01*
X170873523Y-90339428D01*
X170811619Y-90463238D01*
X170749714Y-90525142D01*
X170625904Y-90587047D01*
X170130666Y-90587047D01*
X172049714Y-91206095D02*
X171430666Y-91206095D01*
X171430666Y-89906095D01*
X172483047Y-91206095D02*
X172483047Y-90339428D01*
X172483047Y-89906095D02*
X172421142Y-89968000D01*
X172483047Y-90029904D01*
X172544952Y-89968000D01*
X172483047Y-89906095D01*
X172483047Y-90029904D01*
X173102095Y-90339428D02*
X173102095Y-91206095D01*
X173102095Y-90463238D02*
X173164000Y-90401333D01*
X173287809Y-90339428D01*
X173473523Y-90339428D01*
X173597333Y-90401333D01*
X173659238Y-90525142D01*
X173659238Y-91206095D01*
X174278285Y-91206095D02*
X174278285Y-89906095D01*
X174402095Y-90710857D02*
X174773523Y-91206095D01*
X174773523Y-90339428D02*
X174278285Y-90834666D01*
D10*
X194896380Y-92215142D02*
X194944000Y-92262761D01*
X194991619Y-92358000D01*
X194991619Y-92596095D01*
X194944000Y-92691333D01*
X194896380Y-92738952D01*
X194801142Y-92786571D01*
X194705904Y-92786571D01*
X194563047Y-92738952D01*
X193991619Y-92167523D01*
X193991619Y-92786571D01*
X194991619Y-93691333D02*
X194991619Y-93215142D01*
X194515428Y-93167523D01*
X194563047Y-93215142D01*
X194610666Y-93310380D01*
X194610666Y-93548476D01*
X194563047Y-93643714D01*
X194515428Y-93691333D01*
X194420190Y-93738952D01*
X194182095Y-93738952D01*
X194086857Y-93691333D01*
X194039238Y-93643714D01*
X193991619Y-93548476D01*
X193991619Y-93310380D01*
X194039238Y-93215142D01*
X194086857Y-93167523D01*
X194086857Y-94167523D02*
X194039238Y-94215142D01*
X193991619Y-94167523D01*
X194039238Y-94119904D01*
X194086857Y-94167523D01*
X193991619Y-94167523D01*
X194991619Y-94834190D02*
X194991619Y-94929428D01*
X194944000Y-95024666D01*
X194896380Y-95072285D01*
X194801142Y-95119904D01*
X194610666Y-95167523D01*
X194372571Y-95167523D01*
X194182095Y-95119904D01*
X194086857Y-95072285D01*
X194039238Y-95024666D01*
X193991619Y-94929428D01*
X193991619Y-94834190D01*
X194039238Y-94738952D01*
X194086857Y-94691333D01*
X194182095Y-94643714D01*
X194372571Y-94596095D01*
X194610666Y-94596095D01*
X194801142Y-94643714D01*
X194896380Y-94691333D01*
X194944000Y-94738952D01*
X194991619Y-94834190D01*
X194991619Y-95786571D02*
X194991619Y-95881809D01*
X194944000Y-95977047D01*
X194896380Y-96024666D01*
X194801142Y-96072285D01*
X194610666Y-96119904D01*
X194372571Y-96119904D01*
X194182095Y-96072285D01*
X194086857Y-96024666D01*
X194039238Y-95977047D01*
X193991619Y-95881809D01*
X193991619Y-95786571D01*
X194039238Y-95691333D01*
X194086857Y-95643714D01*
X194182095Y-95596095D01*
X194372571Y-95548476D01*
X194610666Y-95548476D01*
X194801142Y-95596095D01*
X194896380Y-95643714D01*
X194944000Y-95691333D01*
X194991619Y-95786571D01*
X194991619Y-96738952D02*
X194991619Y-96834190D01*
X194944000Y-96929428D01*
X194896380Y-96977047D01*
X194801142Y-97024666D01*
X194610666Y-97072285D01*
X194372571Y-97072285D01*
X194182095Y-97024666D01*
X194086857Y-96977047D01*
X194039238Y-96929428D01*
X193991619Y-96834190D01*
X193991619Y-96738952D01*
X194039238Y-96643714D01*
X194086857Y-96596095D01*
X194182095Y-96548476D01*
X194372571Y-96500857D01*
X194610666Y-96500857D01*
X194801142Y-96548476D01*
X194896380Y-96596095D01*
X194944000Y-96643714D01*
X194991619Y-96738952D01*
X193991619Y-98262761D02*
X194658285Y-98262761D01*
X194563047Y-98262761D02*
X194610666Y-98310380D01*
X194658285Y-98405619D01*
X194658285Y-98548476D01*
X194610666Y-98643714D01*
X194515428Y-98691333D01*
X193991619Y-98691333D01*
X194515428Y-98691333D02*
X194610666Y-98738952D01*
X194658285Y-98834190D01*
X194658285Y-98977047D01*
X194610666Y-99072285D01*
X194515428Y-99119904D01*
X193991619Y-99119904D01*
X193991619Y-99596095D02*
X194658285Y-99596095D01*
X194563047Y-99596095D02*
X194610666Y-99643714D01*
X194658285Y-99738952D01*
X194658285Y-99881809D01*
X194610666Y-99977047D01*
X194515428Y-100024666D01*
X193991619Y-100024666D01*
X194515428Y-100024666D02*
X194610666Y-100072285D01*
X194658285Y-100167523D01*
X194658285Y-100310380D01*
X194610666Y-100405619D01*
X194515428Y-100453238D01*
X193991619Y-100453238D01*
D12*
X193174000Y-83858000D02*
X193174000Y-108858000D01*
X187174000Y-83858000D02*
X193760421Y-83858000D01*
X187174000Y-108858000D02*
X193760421Y-108858000D01*
X193174000Y-108858000D02*
X192587579Y-107731496D01*
X193174000Y-108858000D02*
X193760421Y-107731496D01*
X193174000Y-83858000D02*
X192587579Y-84984504D01*
X193174000Y-83858000D02*
X193760421Y-84984504D01*
D10*
X164797333Y-79383714D02*
X164797333Y-80050380D01*
X164559238Y-79002761D02*
X164321142Y-79717047D01*
X164940190Y-79717047D01*
X165797333Y-79050380D02*
X165321142Y-79050380D01*
X165273523Y-79526571D01*
X165321142Y-79478952D01*
X165416380Y-79431333D01*
X165654476Y-79431333D01*
X165749714Y-79478952D01*
X165797333Y-79526571D01*
X165844952Y-79621809D01*
X165844952Y-79859904D01*
X165797333Y-79955142D01*
X165749714Y-80002761D01*
X165654476Y-80050380D01*
X165416380Y-80050380D01*
X165321142Y-80002761D01*
X165273523Y-79955142D01*
X166273523Y-79955142D02*
X166321142Y-80002761D01*
X166273523Y-80050380D01*
X166225904Y-80002761D01*
X166273523Y-79955142D01*
X166273523Y-80050380D01*
X166940190Y-79050380D02*
X167035428Y-79050380D01*
X167130666Y-79098000D01*
X167178285Y-79145619D01*
X167225904Y-79240857D01*
X167273523Y-79431333D01*
X167273523Y-79669428D01*
X167225904Y-79859904D01*
X167178285Y-79955142D01*
X167130666Y-80002761D01*
X167035428Y-80050380D01*
X166940190Y-80050380D01*
X166844952Y-80002761D01*
X166797333Y-79955142D01*
X166749714Y-79859904D01*
X166702095Y-79669428D01*
X166702095Y-79431333D01*
X166749714Y-79240857D01*
X166797333Y-79145619D01*
X166844952Y-79098000D01*
X166940190Y-79050380D01*
X167892571Y-79050380D02*
X167987809Y-79050380D01*
X168083047Y-79098000D01*
X168130666Y-79145619D01*
X168178285Y-79240857D01*
X168225904Y-79431333D01*
X168225904Y-79669428D01*
X168178285Y-79859904D01*
X168130666Y-79955142D01*
X168083047Y-80002761D01*
X167987809Y-80050380D01*
X167892571Y-80050380D01*
X167797333Y-80002761D01*
X167749714Y-79955142D01*
X167702095Y-79859904D01*
X167654476Y-79669428D01*
X167654476Y-79431333D01*
X167702095Y-79240857D01*
X167749714Y-79145619D01*
X167797333Y-79098000D01*
X167892571Y-79050380D01*
X168844952Y-79050380D02*
X168940190Y-79050380D01*
X169035428Y-79098000D01*
X169083047Y-79145619D01*
X169130666Y-79240857D01*
X169178285Y-79431333D01*
X169178285Y-79669428D01*
X169130666Y-79859904D01*
X169083047Y-79955142D01*
X169035428Y-80002761D01*
X168940190Y-80050380D01*
X168844952Y-80050380D01*
X168749714Y-80002761D01*
X168702095Y-79955142D01*
X168654476Y-79859904D01*
X168606857Y-79669428D01*
X168606857Y-79431333D01*
X168654476Y-79240857D01*
X168702095Y-79145619D01*
X168749714Y-79098000D01*
X168844952Y-79050380D01*
X170368761Y-80050380D02*
X170368761Y-79383714D01*
X170368761Y-79478952D02*
X170416380Y-79431333D01*
X170511619Y-79383714D01*
X170654476Y-79383714D01*
X170749714Y-79431333D01*
X170797333Y-79526571D01*
X170797333Y-80050380D01*
X170797333Y-79526571D02*
X170844952Y-79431333D01*
X170940190Y-79383714D01*
X171083047Y-79383714D01*
X171178285Y-79431333D01*
X171225904Y-79526571D01*
X171225904Y-80050380D01*
X171702095Y-80050380D02*
X171702095Y-79383714D01*
X171702095Y-79478952D02*
X171749714Y-79431333D01*
X171844952Y-79383714D01*
X171987809Y-79383714D01*
X172083047Y-79431333D01*
X172130666Y-79526571D01*
X172130666Y-80050380D01*
X172130666Y-79526571D02*
X172178285Y-79431333D01*
X172273523Y-79383714D01*
X172416380Y-79383714D01*
X172511619Y-79431333D01*
X172559238Y-79526571D01*
X172559238Y-80050380D01*
D12*
X145964000Y-80868000D02*
X190964000Y-80868000D01*
X145964000Y-86868000D02*
X145964000Y-80281579D01*
X190964000Y-86868000D02*
X190964000Y-80281579D01*
X190964000Y-80868000D02*
X189837496Y-81454421D01*
X190964000Y-80868000D02*
X189837496Y-80281579D01*
X145964000Y-80868000D02*
X147090504Y-81454421D01*
X145964000Y-80868000D02*
X147090504Y-80281579D01*
D11*
X155514001Y-95773000D02*
X154839001Y-95773000D01*
X156789001Y-95773000D02*
X156114001Y-95773000D01*
X155514001Y-96923000D02*
X154839001Y-96923000D01*
X156789001Y-96923000D02*
X156114001Y-96923000D01*
X154839001Y-95773000D02*
X154839001Y-96923000D01*
X156789001Y-95773000D02*
X156789001Y-96923000D01*
D12*
X150654000Y-92388000D02*
X148854000Y-92388000D01*
X145144000Y-92388000D02*
X146604000Y-92388000D01*
X145144000Y-101328000D02*
X146604000Y-101328000D01*
X150654000Y-101328000D02*
X148854000Y-101328000D01*
X145144000Y-101328000D02*
X145144000Y-92388000D01*
D11*
X154744000Y-95213000D02*
X154744000Y-94478000D01*
X155924000Y-92543000D02*
X155144000Y-92543000D01*
X155924000Y-95613000D02*
X155144000Y-95613000D01*
X154744000Y-93678000D02*
X154744000Y-92943000D01*
X156324000Y-93678000D02*
X156324000Y-92943000D01*
X156324000Y-95213000D02*
X156324000Y-94478000D01*
X154744000Y-92943000D02*
G75*
G02X155144000Y-92543000I400000J0D01*
G01*
X155924000Y-92543000D02*
G75*
G02X156324000Y-92943000I0J-400000D01*
G01*
X156324000Y-95213000D02*
G75*
G02X155924000Y-95613000I-400000J0D01*
G01*
X155144000Y-95613000D02*
G75*
G02X154744000Y-95213000I0J400000D01*
G01*
X157409000Y-92198000D02*
X156674000Y-92198000D01*
X154739000Y-91018000D02*
X154739000Y-91798000D01*
X157809000Y-91018000D02*
X157809000Y-91798000D01*
X155874000Y-92198000D02*
X155139000Y-92198000D01*
X155874000Y-90618000D02*
X155139000Y-90618000D01*
X157409000Y-90618000D02*
X156674000Y-90618000D01*
X155139000Y-92198000D02*
G75*
G02X154739000Y-91798000I0J400000D01*
G01*
X154739000Y-91018000D02*
G75*
G02X155139000Y-90618000I400000J0D01*
G01*
X157409000Y-90618000D02*
G75*
G02X157809000Y-91018000I0J-400000D01*
G01*
X157809000Y-91798000D02*
G75*
G02X157409000Y-92198000I-400000J0D01*
G01*
X180805000Y-103958000D02*
X180805000Y-104633000D01*
X180805000Y-102683000D02*
X180805000Y-103358000D01*
X181955000Y-103958000D02*
X181955000Y-104633000D01*
X181955000Y-102683000D02*
X181955000Y-103358000D01*
X180805000Y-104633000D02*
X181955000Y-104633000D01*
X180805000Y-102683000D02*
X181955000Y-102683000D01*
X180223000Y-104162990D02*
X179513000Y-104162990D01*
X180443000Y-103938000D02*
X180443000Y-103487990D01*
X179293000Y-103938000D02*
X179293000Y-103488000D01*
X180443000Y-102888000D02*
X180443000Y-102438000D01*
X179293000Y-102888000D02*
X179293000Y-102438000D01*
X180223000Y-102213000D02*
X179513000Y-102213000D01*
X180443000Y-103943000D02*
G75*
G02X180223000Y-104163000I-220000J0D01*
G01*
X179513000Y-104163000D02*
G75*
G02X179293000Y-103943000I0J220000D01*
G01*
X180223000Y-102213000D02*
G75*
G02X180443000Y-102433000I0J-220000D01*
G01*
X179293000Y-102433000D02*
G75*
G02X179513000Y-102213000I220000J0D01*
G01*
X177399000Y-104162990D02*
X176689000Y-104162990D01*
X177619000Y-103938000D02*
X177619000Y-103487990D01*
X176469000Y-103938000D02*
X176469000Y-103488000D01*
X177619000Y-102888000D02*
X177619000Y-102438000D01*
X176469000Y-102888000D02*
X176469000Y-102438000D01*
X177399000Y-102213000D02*
X176689000Y-102213000D01*
X177619000Y-103943000D02*
G75*
G02X177399000Y-104163000I-220000J0D01*
G01*
X176689000Y-104163000D02*
G75*
G02X176469000Y-103943000I0J220000D01*
G01*
X177399000Y-102213000D02*
G75*
G02X177619000Y-102433000I0J-220000D01*
G01*
X176469000Y-102433000D02*
G75*
G02X176689000Y-102213000I220000J0D01*
G01*
X179031000Y-102888000D02*
X179031000Y-102213000D01*
X179031000Y-104163000D02*
X179031000Y-103488000D01*
X177881000Y-102888000D02*
X177881000Y-102213000D01*
X177881000Y-104163000D02*
X177881000Y-103488000D01*
X179031000Y-102213000D02*
X177881000Y-102213000D01*
X179031000Y-104163000D02*
X177881000Y-104163000D01*
D12*
X171282198Y-104995113D02*
X172194366Y-105907281D01*
X170964000Y-105313311D02*
X171282198Y-104995113D01*
X170645802Y-104995113D02*
X170964000Y-105313311D01*
X165858689Y-100208000D02*
X166176887Y-99889802D01*
X166176887Y-100526198D02*
X165858689Y-100208000D01*
X176069311Y-100208000D02*
X175751113Y-100526198D01*
X175751113Y-99889802D02*
X176069311Y-100208000D01*
X170964000Y-95102689D02*
X170645802Y-95420887D01*
X171282198Y-95420887D02*
X170964000Y-95102689D01*
X152474000Y-108538000D02*
X152474000Y-107208000D01*
X153804000Y-108538000D02*
X152474000Y-108538000D01*
X155074000Y-108538000D02*
X155074000Y-105878000D01*
X155074000Y-105878000D02*
X167834000Y-105878000D01*
X155074000Y-108538000D02*
X167834000Y-108538000D01*
X167834000Y-108538000D02*
X167834000Y-105878000D01*
X185634000Y-89908000D02*
X186964000Y-89908000D01*
X185634000Y-91238000D02*
X185634000Y-89908000D01*
X188234000Y-89908000D02*
X190834000Y-89908000D01*
X188234000Y-92508000D02*
X188234000Y-89908000D01*
X185634000Y-92508000D02*
X188234000Y-92508000D01*
X190834000Y-89908000D02*
X190834000Y-102728000D01*
X185634000Y-92508000D02*
X185634000Y-102728000D01*
X185634000Y-102728000D02*
X190834000Y-102728000D01*
D11*
X166418990Y-89833000D02*
X166418990Y-90543000D01*
X166194000Y-89613000D02*
X165743990Y-89613000D01*
X166194000Y-90763000D02*
X165744000Y-90763000D01*
X165144000Y-89613000D02*
X164694000Y-89613000D01*
X165144000Y-90763000D02*
X164694000Y-90763000D01*
X164469000Y-89833000D02*
X164469000Y-90543000D01*
X166199000Y-89613000D02*
G75*
G02X166419000Y-89833000I0J-220000D01*
G01*
X166419000Y-90543000D02*
G75*
G02X166199000Y-90763000I-220000J0D01*
G01*
X164469000Y-89833000D02*
G75*
G02X164689000Y-89613000I220000J0D01*
G01*
X164689000Y-90763000D02*
G75*
G02X164469000Y-90543000I0J220000D01*
G01*
X170959000Y-107298000D02*
X170959000Y-106623000D01*
X170959000Y-108573000D02*
X170959000Y-107898000D01*
X169809000Y-107298000D02*
X169809000Y-106623000D01*
X169809000Y-108573000D02*
X169809000Y-107898000D01*
X170959000Y-106623000D02*
X169809000Y-106623000D01*
X170959000Y-108573000D02*
X169809000Y-108573000D01*
X176964000Y-95133000D02*
X177639000Y-95133000D01*
X175689000Y-95133000D02*
X176364000Y-95133000D01*
X176964000Y-93983000D02*
X177639000Y-93983000D01*
X175689000Y-93983000D02*
X176364000Y-93983000D01*
X177639000Y-95133000D02*
X177639000Y-93983000D01*
X175689000Y-95133000D02*
X175689000Y-93983000D01*
D13*
X157354000Y-100368000D02*
X157354000Y-105368000D01*
X161154000Y-100368000D02*
X161154000Y-105368000D01*
X157354000Y-100368000D02*
X161154000Y-100368000D01*
X157354000Y-105368000D02*
X161154000Y-105368000D01*
D14*
X158254000Y-101068000D02*
G75*
G03X158254000Y-101068000I-200000J0D01*
G01*
D15*
X155654000Y-100070500D02*
G75*
G03X155654000Y-100070500I-150000J0D01*
G01*
D11*
X177659000Y-90643010D02*
X178369000Y-90643010D01*
X177439000Y-90868000D02*
X177439000Y-91318010D01*
X178589000Y-90868000D02*
X178589000Y-91318000D01*
X177439000Y-91918000D02*
X177439000Y-92368000D01*
X178589000Y-91918000D02*
X178589000Y-92368000D01*
X177659000Y-92593000D02*
X178369000Y-92593000D01*
X177439000Y-90863000D02*
G75*
G02X177659000Y-90643000I220000J0D01*
G01*
X178369000Y-90643000D02*
G75*
G02X178589000Y-90863000I0J-220000D01*
G01*
X177659000Y-92593000D02*
G75*
G02X177439000Y-92373000I0J220000D01*
G01*
X178589000Y-92373000D02*
G75*
G02X178369000Y-92593000I-220000J0D01*
G01*
X184169000Y-93442990D02*
X183459000Y-93442990D01*
X184389000Y-93218000D02*
X184389000Y-92767990D01*
X183239000Y-93218000D02*
X183239000Y-92768000D01*
X184389000Y-92168000D02*
X184389000Y-91718000D01*
X183239000Y-92168000D02*
X183239000Y-91718000D01*
X184169000Y-91493000D02*
X183459000Y-91493000D01*
X184389000Y-93223000D02*
G75*
G02X184169000Y-93443000I-220000J0D01*
G01*
X183459000Y-93443000D02*
G75*
G02X183239000Y-93223000I0J220000D01*
G01*
X184169000Y-91493000D02*
G75*
G02X184389000Y-91713000I0J-220000D01*
G01*
X183239000Y-91713000D02*
G75*
G02X183459000Y-91493000I220000J0D01*
G01*
X171289010Y-107723000D02*
X171289010Y-107013000D01*
X171514000Y-107943000D02*
X171964010Y-107943000D01*
X171514000Y-106793000D02*
X171964000Y-106793000D01*
X172564000Y-107943000D02*
X173014000Y-107943000D01*
X172564000Y-106793000D02*
X173014000Y-106793000D01*
X173239000Y-107723000D02*
X173239000Y-107013000D01*
X171509000Y-107943000D02*
G75*
G02X171289000Y-107723000I0J220000D01*
G01*
X171289000Y-107013000D02*
G75*
G02X171509000Y-106793000I220000J0D01*
G01*
X173239000Y-107723000D02*
G75*
G02X173019000Y-107943000I-220000J0D01*
G01*
X173019000Y-106793000D02*
G75*
G02X173239000Y-107013000I0J-220000D01*
G01*
X151874000Y-102913000D02*
X151199000Y-102913000D01*
X153149000Y-102913000D02*
X152474000Y-102913000D01*
X151874000Y-104063000D02*
X151199000Y-104063000D01*
X153149000Y-104063000D02*
X152474000Y-104063000D01*
X151199000Y-102913000D02*
X151199000Y-104063000D01*
X153149000Y-102913000D02*
X153149000Y-104063000D01*
X155514001Y-96973000D02*
X154839001Y-96973000D01*
X156789001Y-96973000D02*
X156114001Y-96973000D01*
X155514001Y-98123000D02*
X154839001Y-98123000D01*
X156789001Y-98123000D02*
X156114001Y-98123000D01*
X154839001Y-96973000D02*
X154839001Y-98123000D01*
X156789001Y-96973000D02*
X156789001Y-98123000D01*
X182638990Y-107013000D02*
X182638990Y-107723000D01*
X182414000Y-106793000D02*
X181963990Y-106793000D01*
X182414000Y-107943000D02*
X181964000Y-107943000D01*
X181364000Y-106793000D02*
X180914000Y-106793000D01*
X181364000Y-107943000D02*
X180914000Y-107943000D01*
X180689000Y-107013000D02*
X180689000Y-107723000D01*
X182419000Y-106793000D02*
G75*
G02X182639000Y-107013000I0J-220000D01*
G01*
X182639000Y-107723000D02*
G75*
G02X182419000Y-107943000I-220000J0D01*
G01*
X180689000Y-107013000D02*
G75*
G02X180909000Y-106793000I220000J0D01*
G01*
X180909000Y-107943000D02*
G75*
G02X180689000Y-107723000I0J220000D01*
G01*
X179259000Y-95958000D02*
X179259000Y-95283000D01*
X179259000Y-97233000D02*
X179259000Y-96558000D01*
X178109000Y-95958000D02*
X178109000Y-95283000D01*
X178109000Y-97233000D02*
X178109000Y-96558000D01*
X179259000Y-95283000D02*
X178109000Y-95283000D01*
X179259000Y-97233000D02*
X178109000Y-97233000D01*
D13*
X180289000Y-108468000D02*
X173639000Y-108468000D01*
X180289000Y-107568000D02*
X180289000Y-108468000D01*
X173639000Y-107568000D02*
X173639000Y-108468000D01*
X180289000Y-105268000D02*
X180289000Y-106168000D01*
X173639000Y-105268000D02*
X173639000Y-106168000D01*
X180289000Y-105268000D02*
X173639000Y-105268000D01*
D11*
X181659000Y-89962990D02*
X180949000Y-89962990D01*
X181879000Y-89738000D02*
X181879000Y-89287990D01*
X180729000Y-89738000D02*
X180729000Y-89288000D01*
X181879000Y-88688000D02*
X181879000Y-88238000D01*
X180729000Y-88688000D02*
X180729000Y-88238000D01*
X181659000Y-88013000D02*
X180949000Y-88013000D01*
X181879000Y-89743000D02*
G75*
G02X181659000Y-89963000I-220000J0D01*
G01*
X180949000Y-89963000D02*
G75*
G02X180729000Y-89743000I0J220000D01*
G01*
X181659000Y-88013000D02*
G75*
G02X181879000Y-88233000I0J-220000D01*
G01*
X180729000Y-88233000D02*
G75*
G02X180949000Y-88013000I220000J0D01*
G01*
X164778990Y-99063000D02*
X164778990Y-99773000D01*
X164554000Y-98843000D02*
X164103990Y-98843000D01*
X164554000Y-99993000D02*
X164104000Y-99993000D01*
X163504000Y-98843000D02*
X163054000Y-98843000D01*
X163504000Y-99993000D02*
X163054000Y-99993000D01*
X162829000Y-99063000D02*
X162829000Y-99773000D01*
X164559000Y-98843000D02*
G75*
G02X164779000Y-99063000I0J-220000D01*
G01*
X164779000Y-99773000D02*
G75*
G02X164559000Y-99993000I-220000J0D01*
G01*
X162829000Y-99063000D02*
G75*
G02X163049000Y-98843000I220000J0D01*
G01*
X163049000Y-99993000D02*
G75*
G02X162829000Y-99773000I0J220000D01*
G01*
X172259000Y-93962990D02*
X171549000Y-93962990D01*
X172479000Y-93738000D02*
X172479000Y-93287990D01*
X171329000Y-93738000D02*
X171329000Y-93288000D01*
X172479000Y-92688000D02*
X172479000Y-92238000D01*
X171329000Y-92688000D02*
X171329000Y-92238000D01*
X172259000Y-92013000D02*
X171549000Y-92013000D01*
X172479000Y-93743000D02*
G75*
G02X172259000Y-93963000I-220000J0D01*
G01*
X171549000Y-93963000D02*
G75*
G02X171329000Y-93743000I0J220000D01*
G01*
X172259000Y-92013000D02*
G75*
G02X172479000Y-92233000I0J-220000D01*
G01*
X171329000Y-92233000D02*
G75*
G02X171549000Y-92013000I220000J0D01*
G01*
X181789000Y-92778000D02*
X181789000Y-93453000D01*
X181789000Y-91503000D02*
X181789000Y-92178000D01*
X182939000Y-92778000D02*
X182939000Y-93453000D01*
X182939000Y-91503000D02*
X182939000Y-92178000D01*
X181789000Y-93453000D02*
X182939000Y-93453000D01*
X181789000Y-91503000D02*
X182939000Y-91503000D01*
X158264000Y-99523000D02*
X158939000Y-99523000D01*
X156989000Y-99523000D02*
X157664000Y-99523000D01*
X158264000Y-98373000D02*
X158939000Y-98373000D01*
X156989000Y-98373000D02*
X157664000Y-98373000D01*
X158939000Y-99523000D02*
X158939000Y-98373000D01*
X156989000Y-99523000D02*
X156989000Y-98373000D01*
X157499000Y-95562990D02*
X156789000Y-95562990D01*
X157719000Y-95338000D02*
X157719000Y-94887990D01*
X156569000Y-95338000D02*
X156569000Y-94888000D01*
X157719000Y-94288000D02*
X157719000Y-93838000D01*
X156569000Y-94288000D02*
X156569000Y-93838000D01*
X157499000Y-93613000D02*
X156789000Y-93613000D01*
X157719000Y-95343000D02*
G75*
G02X157499000Y-95563000I-220000J0D01*
G01*
X156789000Y-95563000D02*
G75*
G02X156569000Y-95343000I0J220000D01*
G01*
X157499000Y-93613000D02*
G75*
G02X157719000Y-93833000I0J-220000D01*
G01*
X156569000Y-93833000D02*
G75*
G02X156789000Y-93613000I220000J0D01*
G01*
X183629000Y-103958000D02*
X183629000Y-104633000D01*
X183629000Y-102683000D02*
X183629000Y-103358000D01*
X184779000Y-103958000D02*
X184779000Y-104633000D01*
X184779000Y-102683000D02*
X184779000Y-103358000D01*
X183629000Y-104633000D02*
X184779000Y-104633000D01*
X183629000Y-102683000D02*
X184779000Y-102683000D01*
X169559000Y-107298000D02*
X169559000Y-106623000D01*
X169559000Y-108573000D02*
X169559000Y-107898000D01*
X168409000Y-107298000D02*
X168409000Y-106623000D01*
X168409000Y-108573000D02*
X168409000Y-107898000D01*
X169559000Y-106623000D02*
X168409000Y-106623000D01*
X169559000Y-108573000D02*
X168409000Y-108573000D01*
X156114001Y-99523000D02*
X156789001Y-99523000D01*
X154839001Y-99523000D02*
X155514001Y-99523000D01*
X156114001Y-98373000D02*
X156789001Y-98373000D01*
X154839001Y-98373000D02*
X155514001Y-98373000D01*
X156789001Y-99523000D02*
X156789001Y-98373000D01*
X154839001Y-99523000D02*
X154839001Y-98373000D01*
X182217000Y-103958000D02*
X182217000Y-104633000D01*
X182217000Y-102683000D02*
X182217000Y-103358000D01*
X183367000Y-103958000D02*
X183367000Y-104633000D01*
X183367000Y-102683000D02*
X183367000Y-103358000D01*
X182217000Y-104633000D02*
X183367000Y-104633000D01*
X182217000Y-102683000D02*
X183367000Y-102683000D01*
X180349000Y-88688000D02*
X180349000Y-88013000D01*
X180349000Y-89963000D02*
X180349000Y-89288000D01*
X179199000Y-88688000D02*
X179199000Y-88013000D01*
X179199000Y-89963000D02*
X179199000Y-89288000D01*
X180349000Y-88013000D02*
X179199000Y-88013000D01*
X180349000Y-89963000D02*
X179199000Y-89963000D01*
D12*
X153014000Y-86698000D02*
X153014000Y-85368000D01*
X154344000Y-86698000D02*
X153014000Y-86698000D01*
X155614000Y-86698000D02*
X155614000Y-84038000D01*
X155614000Y-84038000D02*
X175994000Y-84038000D01*
X155614000Y-86698000D02*
X175994000Y-86698000D01*
X175994000Y-86698000D02*
X175994000Y-84038000D01*
X178324000Y-87628000D02*
X181724000Y-87628000D01*
X176684000Y-87628000D02*
X177224000Y-87628000D01*
X183884000Y-90458000D02*
X183884000Y-90968000D01*
X183364000Y-90968000D02*
X183884000Y-90968000D01*
X183364000Y-90458000D02*
X183364000Y-90968000D01*
X182824000Y-87628000D02*
X183364000Y-87628000D01*
X176164000Y-90458000D02*
X176164000Y-90968000D01*
X176684000Y-90458000D02*
X176684000Y-90968000D01*
X183364000Y-87628000D02*
X183364000Y-87858000D01*
X176164000Y-83958000D02*
X176164000Y-87858000D01*
X176164000Y-90968000D02*
X176684000Y-90968000D01*
X183884000Y-83958000D02*
X183884000Y-87858000D01*
X176164000Y-83958000D02*
X183884000Y-83958000D01*
X176684000Y-87628000D02*
X176684000Y-87858000D01*
D13*
X160974000Y-90048000D02*
X160974000Y-96048000D01*
X163774000Y-90048000D02*
X160974000Y-90048000D01*
X163774000Y-90048000D02*
X163774000Y-96048000D01*
X163774000Y-96048000D02*
X160974000Y-96048000D01*
D11*
X151864000Y-89723000D02*
X151189000Y-89723000D01*
X153139000Y-89723000D02*
X152464000Y-89723000D01*
X151864000Y-90873000D02*
X151189000Y-90873000D01*
X153139000Y-90873000D02*
X152464000Y-90873000D01*
X151189000Y-89723000D02*
X151189000Y-90873000D01*
X153139000Y-89723000D02*
X153139000Y-90873000D01*
M02*
