G04 #@! TF.GenerationSoftware,KiCad,Pcbnew,5.1.4-e60b266~84~ubuntu18.04.1*
G04 #@! TF.CreationDate,2019-11-09T22:19:46+08:00*
G04 #@! TF.ProjectId,dap-stm32f103,6461702d-7374-46d3-9332-663130332e6b,rev?*
G04 #@! TF.SameCoordinates,Original*
G04 #@! TF.FileFunction,Legend,Top*
G04 #@! TF.FilePolarity,Positive*
%FSLAX46Y46*%
G04 Gerber Fmt 4.6, Leading zero omitted, Abs format (unit mm)*
G04 Created by KiCad (PCBNEW 5.1.4-e60b266~84~ubuntu18.04.1) date 2019-11-09 22:19:46*
%MOMM*%
%LPD*%
G04 APERTURE LIST*
%ADD10C,0.150000*%
%ADD11C,0.200000*%
%ADD12C,0.120000*%
%ADD13C,0.010000*%
%ADD14C,0.254000*%
%ADD15C,0.400000*%
%ADD16C,0.300000*%
G04 APERTURE END LIST*
D10*
X163702095Y-88120380D02*
X163368761Y-87644190D01*
X163130666Y-88120380D02*
X163130666Y-87120380D01*
X163511619Y-87120380D01*
X163606857Y-87168000D01*
X163654476Y-87215619D01*
X163702095Y-87310857D01*
X163702095Y-87453714D01*
X163654476Y-87548952D01*
X163606857Y-87596571D01*
X163511619Y-87644190D01*
X163130666Y-87644190D01*
X163987809Y-87120380D02*
X164559238Y-87120380D01*
X164273523Y-88120380D02*
X164273523Y-87120380D01*
X164892571Y-87739428D02*
X165654476Y-87739428D01*
X165987809Y-87120380D02*
X166559238Y-87120380D01*
X166273523Y-88120380D02*
X166273523Y-87120380D01*
X166892571Y-88120380D02*
X166892571Y-87120380D01*
X167321142Y-88120380D02*
X167321142Y-87596571D01*
X167273523Y-87501333D01*
X167178285Y-87453714D01*
X167035428Y-87453714D01*
X166940190Y-87501333D01*
X166892571Y-87548952D01*
X167797333Y-88120380D02*
X167797333Y-87453714D01*
X167797333Y-87644190D02*
X167844952Y-87548952D01*
X167892571Y-87501333D01*
X167987809Y-87453714D01*
X168083047Y-87453714D01*
X168797333Y-88072761D02*
X168702095Y-88120380D01*
X168511619Y-88120380D01*
X168416380Y-88072761D01*
X168368761Y-87977523D01*
X168368761Y-87596571D01*
X168416380Y-87501333D01*
X168511619Y-87453714D01*
X168702095Y-87453714D01*
X168797333Y-87501333D01*
X168844952Y-87596571D01*
X168844952Y-87691809D01*
X168368761Y-87787047D01*
X169702095Y-88120380D02*
X169702095Y-87596571D01*
X169654476Y-87501333D01*
X169559238Y-87453714D01*
X169368761Y-87453714D01*
X169273523Y-87501333D01*
X169702095Y-88072761D02*
X169606857Y-88120380D01*
X169368761Y-88120380D01*
X169273523Y-88072761D01*
X169225904Y-87977523D01*
X169225904Y-87882285D01*
X169273523Y-87787047D01*
X169368761Y-87739428D01*
X169606857Y-87739428D01*
X169702095Y-87691809D01*
X170606857Y-88120380D02*
X170606857Y-87120380D01*
X170606857Y-88072761D02*
X170511619Y-88120380D01*
X170321142Y-88120380D01*
X170225904Y-88072761D01*
X170178285Y-88025142D01*
X170130666Y-87929904D01*
X170130666Y-87644190D01*
X170178285Y-87548952D01*
X170225904Y-87501333D01*
X170321142Y-87453714D01*
X170511619Y-87453714D01*
X170606857Y-87501333D01*
X171844952Y-88120380D02*
X171844952Y-87120380D01*
X172321142Y-87453714D02*
X172321142Y-88120380D01*
X172321142Y-87548952D02*
X172368761Y-87501333D01*
X172464000Y-87453714D01*
X172606857Y-87453714D01*
X172702095Y-87501333D01*
X172749714Y-87596571D01*
X172749714Y-88120380D01*
X173178285Y-88072761D02*
X173273523Y-88120380D01*
X173464000Y-88120380D01*
X173559238Y-88072761D01*
X173606857Y-87977523D01*
X173606857Y-87929904D01*
X173559238Y-87834666D01*
X173464000Y-87787047D01*
X173321142Y-87787047D01*
X173225904Y-87739428D01*
X173178285Y-87644190D01*
X173178285Y-87596571D01*
X173225904Y-87501333D01*
X173321142Y-87453714D01*
X173464000Y-87453714D01*
X173559238Y-87501333D01*
X174035428Y-88120380D02*
X174035428Y-87453714D01*
X174035428Y-87120380D02*
X173987809Y-87168000D01*
X174035428Y-87215619D01*
X174083047Y-87168000D01*
X174035428Y-87120380D01*
X174035428Y-87215619D01*
X174940190Y-88120380D02*
X174940190Y-87120380D01*
X174940190Y-88072761D02*
X174844952Y-88120380D01*
X174654476Y-88120380D01*
X174559238Y-88072761D01*
X174511619Y-88025142D01*
X174464000Y-87929904D01*
X174464000Y-87644190D01*
X174511619Y-87548952D01*
X174559238Y-87501333D01*
X174654476Y-87453714D01*
X174844952Y-87453714D01*
X174940190Y-87501333D01*
X175797333Y-88072761D02*
X175702095Y-88120380D01*
X175511619Y-88120380D01*
X175416380Y-88072761D01*
X175368761Y-87977523D01*
X175368761Y-87596571D01*
X175416380Y-87501333D01*
X175511619Y-87453714D01*
X175702095Y-87453714D01*
X175797333Y-87501333D01*
X175844952Y-87596571D01*
X175844952Y-87691809D01*
X175368761Y-87787047D01*
D11*
X176766380Y-98156095D02*
X176766380Y-96856095D01*
X177075904Y-96856095D01*
X177261619Y-96918000D01*
X177385428Y-97041809D01*
X177447333Y-97165619D01*
X177509238Y-97413238D01*
X177509238Y-97598952D01*
X177447333Y-97846571D01*
X177385428Y-97970380D01*
X177261619Y-98094190D01*
X177075904Y-98156095D01*
X176766380Y-98156095D01*
X178004476Y-97784666D02*
X178623523Y-97784666D01*
X177880666Y-98156095D02*
X178314000Y-96856095D01*
X178747333Y-98156095D01*
X179180666Y-98156095D02*
X179180666Y-96856095D01*
X179675904Y-96856095D01*
X179799714Y-96918000D01*
X179861619Y-96979904D01*
X179923523Y-97103714D01*
X179923523Y-97289428D01*
X179861619Y-97413238D01*
X179799714Y-97475142D01*
X179675904Y-97537047D01*
X179180666Y-97537047D01*
X181099714Y-98156095D02*
X180480666Y-98156095D01*
X180480666Y-96856095D01*
X181533047Y-98156095D02*
X181533047Y-97289428D01*
X181533047Y-96856095D02*
X181471142Y-96918000D01*
X181533047Y-96979904D01*
X181594952Y-96918000D01*
X181533047Y-96856095D01*
X181533047Y-96979904D01*
X182152095Y-97289428D02*
X182152095Y-98156095D01*
X182152095Y-97413238D02*
X182214000Y-97351333D01*
X182337809Y-97289428D01*
X182523523Y-97289428D01*
X182647333Y-97351333D01*
X182709238Y-97475142D01*
X182709238Y-98156095D01*
X183328285Y-98156095D02*
X183328285Y-96856095D01*
X183452095Y-97660857D02*
X183823523Y-98156095D01*
X183823523Y-97289428D02*
X183328285Y-97784666D01*
D10*
X195686380Y-92225142D02*
X195734000Y-92272761D01*
X195781619Y-92368000D01*
X195781619Y-92606095D01*
X195734000Y-92701333D01*
X195686380Y-92748952D01*
X195591142Y-92796571D01*
X195495904Y-92796571D01*
X195353047Y-92748952D01*
X194781619Y-92177523D01*
X194781619Y-92796571D01*
X195781619Y-93701333D02*
X195781619Y-93225142D01*
X195305428Y-93177523D01*
X195353047Y-93225142D01*
X195400666Y-93320380D01*
X195400666Y-93558476D01*
X195353047Y-93653714D01*
X195305428Y-93701333D01*
X195210190Y-93748952D01*
X194972095Y-93748952D01*
X194876857Y-93701333D01*
X194829238Y-93653714D01*
X194781619Y-93558476D01*
X194781619Y-93320380D01*
X194829238Y-93225142D01*
X194876857Y-93177523D01*
X194876857Y-94177523D02*
X194829238Y-94225142D01*
X194781619Y-94177523D01*
X194829238Y-94129904D01*
X194876857Y-94177523D01*
X194781619Y-94177523D01*
X195781619Y-94844190D02*
X195781619Y-94939428D01*
X195734000Y-95034666D01*
X195686380Y-95082285D01*
X195591142Y-95129904D01*
X195400666Y-95177523D01*
X195162571Y-95177523D01*
X194972095Y-95129904D01*
X194876857Y-95082285D01*
X194829238Y-95034666D01*
X194781619Y-94939428D01*
X194781619Y-94844190D01*
X194829238Y-94748952D01*
X194876857Y-94701333D01*
X194972095Y-94653714D01*
X195162571Y-94606095D01*
X195400666Y-94606095D01*
X195591142Y-94653714D01*
X195686380Y-94701333D01*
X195734000Y-94748952D01*
X195781619Y-94844190D01*
X195781619Y-95796571D02*
X195781619Y-95891809D01*
X195734000Y-95987047D01*
X195686380Y-96034666D01*
X195591142Y-96082285D01*
X195400666Y-96129904D01*
X195162571Y-96129904D01*
X194972095Y-96082285D01*
X194876857Y-96034666D01*
X194829238Y-95987047D01*
X194781619Y-95891809D01*
X194781619Y-95796571D01*
X194829238Y-95701333D01*
X194876857Y-95653714D01*
X194972095Y-95606095D01*
X195162571Y-95558476D01*
X195400666Y-95558476D01*
X195591142Y-95606095D01*
X195686380Y-95653714D01*
X195734000Y-95701333D01*
X195781619Y-95796571D01*
X195781619Y-96748952D02*
X195781619Y-96844190D01*
X195734000Y-96939428D01*
X195686380Y-96987047D01*
X195591142Y-97034666D01*
X195400666Y-97082285D01*
X195162571Y-97082285D01*
X194972095Y-97034666D01*
X194876857Y-96987047D01*
X194829238Y-96939428D01*
X194781619Y-96844190D01*
X194781619Y-96748952D01*
X194829238Y-96653714D01*
X194876857Y-96606095D01*
X194972095Y-96558476D01*
X195162571Y-96510857D01*
X195400666Y-96510857D01*
X195591142Y-96558476D01*
X195686380Y-96606095D01*
X195734000Y-96653714D01*
X195781619Y-96748952D01*
X194781619Y-98272761D02*
X195448285Y-98272761D01*
X195353047Y-98272761D02*
X195400666Y-98320380D01*
X195448285Y-98415619D01*
X195448285Y-98558476D01*
X195400666Y-98653714D01*
X195305428Y-98701333D01*
X194781619Y-98701333D01*
X195305428Y-98701333D02*
X195400666Y-98748952D01*
X195448285Y-98844190D01*
X195448285Y-98987047D01*
X195400666Y-99082285D01*
X195305428Y-99129904D01*
X194781619Y-99129904D01*
X194781619Y-99606095D02*
X195448285Y-99606095D01*
X195353047Y-99606095D02*
X195400666Y-99653714D01*
X195448285Y-99748952D01*
X195448285Y-99891809D01*
X195400666Y-99987047D01*
X195305428Y-100034666D01*
X194781619Y-100034666D01*
X195305428Y-100034666D02*
X195400666Y-100082285D01*
X195448285Y-100177523D01*
X195448285Y-100320380D01*
X195400666Y-100415619D01*
X195305428Y-100463238D01*
X194781619Y-100463238D01*
D12*
X193964000Y-83868000D02*
X193964000Y-108868000D01*
X187964000Y-83868000D02*
X194550421Y-83868000D01*
X187964000Y-108868000D02*
X194550421Y-108868000D01*
X193964000Y-108868000D02*
X193377579Y-107741496D01*
X193964000Y-108868000D02*
X194550421Y-107741496D01*
X193964000Y-83868000D02*
X193377579Y-84994504D01*
X193964000Y-83868000D02*
X194550421Y-84994504D01*
D10*
X164797333Y-79383714D02*
X164797333Y-80050380D01*
X164559238Y-79002761D02*
X164321142Y-79717047D01*
X164940190Y-79717047D01*
X165797333Y-79050380D02*
X165321142Y-79050380D01*
X165273523Y-79526571D01*
X165321142Y-79478952D01*
X165416380Y-79431333D01*
X165654476Y-79431333D01*
X165749714Y-79478952D01*
X165797333Y-79526571D01*
X165844952Y-79621809D01*
X165844952Y-79859904D01*
X165797333Y-79955142D01*
X165749714Y-80002761D01*
X165654476Y-80050380D01*
X165416380Y-80050380D01*
X165321142Y-80002761D01*
X165273523Y-79955142D01*
X166273523Y-79955142D02*
X166321142Y-80002761D01*
X166273523Y-80050380D01*
X166225904Y-80002761D01*
X166273523Y-79955142D01*
X166273523Y-80050380D01*
X166940190Y-79050380D02*
X167035428Y-79050380D01*
X167130666Y-79098000D01*
X167178285Y-79145619D01*
X167225904Y-79240857D01*
X167273523Y-79431333D01*
X167273523Y-79669428D01*
X167225904Y-79859904D01*
X167178285Y-79955142D01*
X167130666Y-80002761D01*
X167035428Y-80050380D01*
X166940190Y-80050380D01*
X166844952Y-80002761D01*
X166797333Y-79955142D01*
X166749714Y-79859904D01*
X166702095Y-79669428D01*
X166702095Y-79431333D01*
X166749714Y-79240857D01*
X166797333Y-79145619D01*
X166844952Y-79098000D01*
X166940190Y-79050380D01*
X167892571Y-79050380D02*
X167987809Y-79050380D01*
X168083047Y-79098000D01*
X168130666Y-79145619D01*
X168178285Y-79240857D01*
X168225904Y-79431333D01*
X168225904Y-79669428D01*
X168178285Y-79859904D01*
X168130666Y-79955142D01*
X168083047Y-80002761D01*
X167987809Y-80050380D01*
X167892571Y-80050380D01*
X167797333Y-80002761D01*
X167749714Y-79955142D01*
X167702095Y-79859904D01*
X167654476Y-79669428D01*
X167654476Y-79431333D01*
X167702095Y-79240857D01*
X167749714Y-79145619D01*
X167797333Y-79098000D01*
X167892571Y-79050380D01*
X168844952Y-79050380D02*
X168940190Y-79050380D01*
X169035428Y-79098000D01*
X169083047Y-79145619D01*
X169130666Y-79240857D01*
X169178285Y-79431333D01*
X169178285Y-79669428D01*
X169130666Y-79859904D01*
X169083047Y-79955142D01*
X169035428Y-80002761D01*
X168940190Y-80050380D01*
X168844952Y-80050380D01*
X168749714Y-80002761D01*
X168702095Y-79955142D01*
X168654476Y-79859904D01*
X168606857Y-79669428D01*
X168606857Y-79431333D01*
X168654476Y-79240857D01*
X168702095Y-79145619D01*
X168749714Y-79098000D01*
X168844952Y-79050380D01*
X170368761Y-80050380D02*
X170368761Y-79383714D01*
X170368761Y-79478952D02*
X170416380Y-79431333D01*
X170511619Y-79383714D01*
X170654476Y-79383714D01*
X170749714Y-79431333D01*
X170797333Y-79526571D01*
X170797333Y-80050380D01*
X170797333Y-79526571D02*
X170844952Y-79431333D01*
X170940190Y-79383714D01*
X171083047Y-79383714D01*
X171178285Y-79431333D01*
X171225904Y-79526571D01*
X171225904Y-80050380D01*
X171702095Y-80050380D02*
X171702095Y-79383714D01*
X171702095Y-79478952D02*
X171749714Y-79431333D01*
X171844952Y-79383714D01*
X171987809Y-79383714D01*
X172083047Y-79431333D01*
X172130666Y-79526571D01*
X172130666Y-80050380D01*
X172130666Y-79526571D02*
X172178285Y-79431333D01*
X172273523Y-79383714D01*
X172416380Y-79383714D01*
X172511619Y-79431333D01*
X172559238Y-79526571D01*
X172559238Y-80050380D01*
D12*
X145964000Y-80868000D02*
X190964000Y-80868000D01*
X145964000Y-86868000D02*
X145964000Y-80281579D01*
X190964000Y-86868000D02*
X190964000Y-80281579D01*
X190964000Y-80868000D02*
X189837496Y-81454421D01*
X190964000Y-80868000D02*
X189837496Y-80281579D01*
X145964000Y-80868000D02*
X147090504Y-81454421D01*
X145964000Y-80868000D02*
X147090504Y-80281579D01*
D13*
G36*
X159031467Y-104435467D02*
G01*
X154696534Y-104435467D01*
X154696534Y-102289022D01*
X155290888Y-102289022D01*
X155297340Y-102452522D01*
X155320332Y-102617604D01*
X155323976Y-102636300D01*
X155362724Y-102786712D01*
X155417535Y-102932807D01*
X155487877Y-103073623D01*
X155573215Y-103208200D01*
X155673018Y-103335579D01*
X155768950Y-103437597D01*
X155887547Y-103543288D01*
X156012638Y-103634482D01*
X156143199Y-103710534D01*
X156278206Y-103770800D01*
X156325445Y-103787750D01*
X156372324Y-103800614D01*
X156408187Y-103803227D01*
X156435627Y-103795415D01*
X156455483Y-103779075D01*
X156462144Y-103770685D01*
X156467039Y-103761334D01*
X156470441Y-103748443D01*
X156472621Y-103729435D01*
X156473848Y-103701731D01*
X156474395Y-103662753D01*
X156474532Y-103609923D01*
X156474533Y-103597781D01*
X156474533Y-103438372D01*
X156366583Y-103442681D01*
X156319001Y-103443655D01*
X156271415Y-103443040D01*
X156229647Y-103440999D01*
X156201777Y-103438069D01*
X156125285Y-103418922D01*
X156060105Y-103387197D01*
X156006078Y-103342769D01*
X155963041Y-103285515D01*
X155937894Y-103234116D01*
X155904766Y-103165693D01*
X155863871Y-103103860D01*
X155817959Y-103052321D01*
X155779798Y-103021215D01*
X155742535Y-102992650D01*
X155720469Y-102968293D01*
X155713621Y-102948775D01*
X155722013Y-102934729D01*
X155745667Y-102926785D01*
X155776436Y-102925266D01*
X155830896Y-102934441D01*
X155886064Y-102958063D01*
X155938856Y-102994078D01*
X155986190Y-103040430D01*
X156020978Y-103088298D01*
X156055456Y-103136045D01*
X156097284Y-103180011D01*
X156141857Y-103215832D01*
X156176361Y-103235671D01*
X156212928Y-103246543D01*
X156260177Y-103252332D01*
X156312624Y-103253010D01*
X156364789Y-103248546D01*
X156411190Y-103238910D01*
X156417392Y-103236991D01*
X156449090Y-103225851D01*
X156468295Y-103215626D01*
X156478840Y-103202725D01*
X156484555Y-103183557D01*
X156486532Y-103172180D01*
X156497372Y-103132789D01*
X156516248Y-103089579D01*
X156539460Y-103050118D01*
X156556918Y-103028134D01*
X156568406Y-103015022D01*
X156571302Y-103006400D01*
X156563533Y-103000734D01*
X156543023Y-102996486D01*
X156508400Y-102992201D01*
X156424496Y-102977618D01*
X156337425Y-102953484D01*
X156252519Y-102921724D01*
X156175110Y-102884263D01*
X156125853Y-102854048D01*
X156056187Y-102795944D01*
X155996511Y-102724786D01*
X155947280Y-102641514D01*
X155908949Y-102547067D01*
X155881974Y-102442385D01*
X155866810Y-102328408D01*
X155866039Y-102317706D01*
X155863888Y-102212495D01*
X155872560Y-102118274D01*
X155892276Y-102032831D01*
X155895619Y-102022381D01*
X155910490Y-101984327D01*
X155930597Y-101942258D01*
X155953536Y-101900371D01*
X155976900Y-101862866D01*
X155998286Y-101833942D01*
X156011066Y-101820823D01*
X156018940Y-101812257D01*
X156020030Y-101801244D01*
X156014398Y-101782038D01*
X156011567Y-101774256D01*
X156005406Y-101750123D01*
X155999780Y-101714908D01*
X155995534Y-101674460D01*
X155994168Y-101653627D01*
X155993146Y-101592775D01*
X155997503Y-101538759D01*
X156008226Y-101483994D01*
X156023173Y-101430898D01*
X156037226Y-101385430D01*
X156097130Y-101389701D01*
X156143225Y-101397360D01*
X156199012Y-101413627D01*
X156260611Y-101436978D01*
X156324146Y-101465892D01*
X156385736Y-101498847D01*
X156405678Y-101510785D01*
X156469758Y-101550330D01*
X156546229Y-101532766D01*
X156680537Y-101509600D01*
X156821572Y-101499648D01*
X156965503Y-101502888D01*
X157108502Y-101519293D01*
X157199079Y-101536991D01*
X157258991Y-101550736D01*
X157307020Y-101520013D01*
X157366878Y-101484393D01*
X157427363Y-101453266D01*
X157486411Y-101427277D01*
X157541956Y-101407071D01*
X157591934Y-101393297D01*
X157634278Y-101386599D01*
X157666926Y-101387623D01*
X157687810Y-101397017D01*
X157690445Y-101400027D01*
X157700068Y-101420286D01*
X157710027Y-101453091D01*
X157719460Y-101494095D01*
X157727505Y-101538953D01*
X157733298Y-101583319D01*
X157735980Y-101622848D01*
X157736067Y-101629998D01*
X157733491Y-101677758D01*
X157726654Y-101726095D01*
X157720659Y-101752432D01*
X157705251Y-101807998D01*
X157729617Y-101836916D01*
X157773843Y-101898789D01*
X157812472Y-101971414D01*
X157834872Y-102026781D01*
X157843312Y-102051462D01*
X157849473Y-102072724D01*
X157853700Y-102093899D01*
X157856340Y-102118322D01*
X157857739Y-102149323D01*
X157858244Y-102190238D01*
X157858200Y-102244397D01*
X157858177Y-102251067D01*
X157857769Y-102308720D01*
X157856762Y-102353206D01*
X157854794Y-102388291D01*
X157851505Y-102417740D01*
X157846535Y-102445318D01*
X157839524Y-102474791D01*
X157835175Y-102491281D01*
X157820842Y-102538071D01*
X157802414Y-102589216D01*
X157783212Y-102635687D01*
X157777535Y-102647915D01*
X157732872Y-102721713D01*
X157673870Y-102789076D01*
X157602266Y-102848893D01*
X157519795Y-102900058D01*
X157428191Y-102941462D01*
X157329190Y-102971998D01*
X157245000Y-102987971D01*
X157203341Y-102993807D01*
X157176296Y-102998407D01*
X157161736Y-103003043D01*
X157157527Y-103008987D01*
X157161541Y-103017514D01*
X157171644Y-103029895D01*
X157172700Y-103031148D01*
X157192662Y-103056532D01*
X157209083Y-103082047D01*
X157222300Y-103109620D01*
X157232647Y-103141176D01*
X157240463Y-103178643D01*
X157246083Y-103223948D01*
X157249843Y-103279016D01*
X157252081Y-103345776D01*
X157253131Y-103426152D01*
X157253342Y-103493078D01*
X157253399Y-103566835D01*
X157253579Y-103625560D01*
X157254014Y-103671156D01*
X157254835Y-103705525D01*
X157256173Y-103730568D01*
X157258159Y-103748187D01*
X157260923Y-103760285D01*
X157264598Y-103768763D01*
X157269314Y-103775524D01*
X157273120Y-103780038D01*
X157293479Y-103796060D01*
X157320378Y-103802828D01*
X157355750Y-103800243D01*
X157401527Y-103788208D01*
X157448361Y-103771150D01*
X157592868Y-103704982D01*
X157729567Y-103624047D01*
X157857744Y-103528953D01*
X157976684Y-103420307D01*
X158085672Y-103298720D01*
X158183994Y-103164798D01*
X158212263Y-103120766D01*
X158285768Y-102986686D01*
X158344799Y-102845246D01*
X158389277Y-102698004D01*
X158419122Y-102546519D01*
X158434254Y-102392351D01*
X158434593Y-102237060D01*
X158420058Y-102082204D01*
X158390571Y-101929343D01*
X158346050Y-101780035D01*
X158288238Y-101639681D01*
X158211682Y-101497085D01*
X158121818Y-101364150D01*
X158019637Y-101241691D01*
X157906131Y-101130525D01*
X157782291Y-101031470D01*
X157649109Y-100945343D01*
X157507575Y-100872960D01*
X157358680Y-100815138D01*
X157249234Y-100783420D01*
X157187390Y-100768755D01*
X157132034Y-100757745D01*
X157078840Y-100749923D01*
X157023479Y-100744821D01*
X156961625Y-100741971D01*
X156888951Y-100740905D01*
X156855534Y-100740875D01*
X156787737Y-100741389D01*
X156732864Y-100742820D01*
X156686917Y-100745439D01*
X156645899Y-100749517D01*
X156605812Y-100755324D01*
X156582655Y-100759365D01*
X156431590Y-100795235D01*
X156283610Y-100846554D01*
X156140675Y-100912224D01*
X156004740Y-100991150D01*
X155877765Y-101082234D01*
X155761705Y-101184378D01*
X155690020Y-101259593D01*
X155586965Y-101388431D01*
X155498882Y-101524746D01*
X155425996Y-101667698D01*
X155368529Y-101816443D01*
X155326706Y-101970141D01*
X155300751Y-102127948D01*
X155290888Y-102289022D01*
X154696534Y-102289022D01*
X154696534Y-100100534D01*
X159031467Y-100100534D01*
X159031467Y-104435467D01*
X159031467Y-104435467D01*
G37*
X159031467Y-104435467D02*
X154696534Y-104435467D01*
X154696534Y-102289022D01*
X155290888Y-102289022D01*
X155297340Y-102452522D01*
X155320332Y-102617604D01*
X155323976Y-102636300D01*
X155362724Y-102786712D01*
X155417535Y-102932807D01*
X155487877Y-103073623D01*
X155573215Y-103208200D01*
X155673018Y-103335579D01*
X155768950Y-103437597D01*
X155887547Y-103543288D01*
X156012638Y-103634482D01*
X156143199Y-103710534D01*
X156278206Y-103770800D01*
X156325445Y-103787750D01*
X156372324Y-103800614D01*
X156408187Y-103803227D01*
X156435627Y-103795415D01*
X156455483Y-103779075D01*
X156462144Y-103770685D01*
X156467039Y-103761334D01*
X156470441Y-103748443D01*
X156472621Y-103729435D01*
X156473848Y-103701731D01*
X156474395Y-103662753D01*
X156474532Y-103609923D01*
X156474533Y-103597781D01*
X156474533Y-103438372D01*
X156366583Y-103442681D01*
X156319001Y-103443655D01*
X156271415Y-103443040D01*
X156229647Y-103440999D01*
X156201777Y-103438069D01*
X156125285Y-103418922D01*
X156060105Y-103387197D01*
X156006078Y-103342769D01*
X155963041Y-103285515D01*
X155937894Y-103234116D01*
X155904766Y-103165693D01*
X155863871Y-103103860D01*
X155817959Y-103052321D01*
X155779798Y-103021215D01*
X155742535Y-102992650D01*
X155720469Y-102968293D01*
X155713621Y-102948775D01*
X155722013Y-102934729D01*
X155745667Y-102926785D01*
X155776436Y-102925266D01*
X155830896Y-102934441D01*
X155886064Y-102958063D01*
X155938856Y-102994078D01*
X155986190Y-103040430D01*
X156020978Y-103088298D01*
X156055456Y-103136045D01*
X156097284Y-103180011D01*
X156141857Y-103215832D01*
X156176361Y-103235671D01*
X156212928Y-103246543D01*
X156260177Y-103252332D01*
X156312624Y-103253010D01*
X156364789Y-103248546D01*
X156411190Y-103238910D01*
X156417392Y-103236991D01*
X156449090Y-103225851D01*
X156468295Y-103215626D01*
X156478840Y-103202725D01*
X156484555Y-103183557D01*
X156486532Y-103172180D01*
X156497372Y-103132789D01*
X156516248Y-103089579D01*
X156539460Y-103050118D01*
X156556918Y-103028134D01*
X156568406Y-103015022D01*
X156571302Y-103006400D01*
X156563533Y-103000734D01*
X156543023Y-102996486D01*
X156508400Y-102992201D01*
X156424496Y-102977618D01*
X156337425Y-102953484D01*
X156252519Y-102921724D01*
X156175110Y-102884263D01*
X156125853Y-102854048D01*
X156056187Y-102795944D01*
X155996511Y-102724786D01*
X155947280Y-102641514D01*
X155908949Y-102547067D01*
X155881974Y-102442385D01*
X155866810Y-102328408D01*
X155866039Y-102317706D01*
X155863888Y-102212495D01*
X155872560Y-102118274D01*
X155892276Y-102032831D01*
X155895619Y-102022381D01*
X155910490Y-101984327D01*
X155930597Y-101942258D01*
X155953536Y-101900371D01*
X155976900Y-101862866D01*
X155998286Y-101833942D01*
X156011066Y-101820823D01*
X156018940Y-101812257D01*
X156020030Y-101801244D01*
X156014398Y-101782038D01*
X156011567Y-101774256D01*
X156005406Y-101750123D01*
X155999780Y-101714908D01*
X155995534Y-101674460D01*
X155994168Y-101653627D01*
X155993146Y-101592775D01*
X155997503Y-101538759D01*
X156008226Y-101483994D01*
X156023173Y-101430898D01*
X156037226Y-101385430D01*
X156097130Y-101389701D01*
X156143225Y-101397360D01*
X156199012Y-101413627D01*
X156260611Y-101436978D01*
X156324146Y-101465892D01*
X156385736Y-101498847D01*
X156405678Y-101510785D01*
X156469758Y-101550330D01*
X156546229Y-101532766D01*
X156680537Y-101509600D01*
X156821572Y-101499648D01*
X156965503Y-101502888D01*
X157108502Y-101519293D01*
X157199079Y-101536991D01*
X157258991Y-101550736D01*
X157307020Y-101520013D01*
X157366878Y-101484393D01*
X157427363Y-101453266D01*
X157486411Y-101427277D01*
X157541956Y-101407071D01*
X157591934Y-101393297D01*
X157634278Y-101386599D01*
X157666926Y-101387623D01*
X157687810Y-101397017D01*
X157690445Y-101400027D01*
X157700068Y-101420286D01*
X157710027Y-101453091D01*
X157719460Y-101494095D01*
X157727505Y-101538953D01*
X157733298Y-101583319D01*
X157735980Y-101622848D01*
X157736067Y-101629998D01*
X157733491Y-101677758D01*
X157726654Y-101726095D01*
X157720659Y-101752432D01*
X157705251Y-101807998D01*
X157729617Y-101836916D01*
X157773843Y-101898789D01*
X157812472Y-101971414D01*
X157834872Y-102026781D01*
X157843312Y-102051462D01*
X157849473Y-102072724D01*
X157853700Y-102093899D01*
X157856340Y-102118322D01*
X157857739Y-102149323D01*
X157858244Y-102190238D01*
X157858200Y-102244397D01*
X157858177Y-102251067D01*
X157857769Y-102308720D01*
X157856762Y-102353206D01*
X157854794Y-102388291D01*
X157851505Y-102417740D01*
X157846535Y-102445318D01*
X157839524Y-102474791D01*
X157835175Y-102491281D01*
X157820842Y-102538071D01*
X157802414Y-102589216D01*
X157783212Y-102635687D01*
X157777535Y-102647915D01*
X157732872Y-102721713D01*
X157673870Y-102789076D01*
X157602266Y-102848893D01*
X157519795Y-102900058D01*
X157428191Y-102941462D01*
X157329190Y-102971998D01*
X157245000Y-102987971D01*
X157203341Y-102993807D01*
X157176296Y-102998407D01*
X157161736Y-103003043D01*
X157157527Y-103008987D01*
X157161541Y-103017514D01*
X157171644Y-103029895D01*
X157172700Y-103031148D01*
X157192662Y-103056532D01*
X157209083Y-103082047D01*
X157222300Y-103109620D01*
X157232647Y-103141176D01*
X157240463Y-103178643D01*
X157246083Y-103223948D01*
X157249843Y-103279016D01*
X157252081Y-103345776D01*
X157253131Y-103426152D01*
X157253342Y-103493078D01*
X157253399Y-103566835D01*
X157253579Y-103625560D01*
X157254014Y-103671156D01*
X157254835Y-103705525D01*
X157256173Y-103730568D01*
X157258159Y-103748187D01*
X157260923Y-103760285D01*
X157264598Y-103768763D01*
X157269314Y-103775524D01*
X157273120Y-103780038D01*
X157293479Y-103796060D01*
X157320378Y-103802828D01*
X157355750Y-103800243D01*
X157401527Y-103788208D01*
X157448361Y-103771150D01*
X157592868Y-103704982D01*
X157729567Y-103624047D01*
X157857744Y-103528953D01*
X157976684Y-103420307D01*
X158085672Y-103298720D01*
X158183994Y-103164798D01*
X158212263Y-103120766D01*
X158285768Y-102986686D01*
X158344799Y-102845246D01*
X158389277Y-102698004D01*
X158419122Y-102546519D01*
X158434254Y-102392351D01*
X158434593Y-102237060D01*
X158420058Y-102082204D01*
X158390571Y-101929343D01*
X158346050Y-101780035D01*
X158288238Y-101639681D01*
X158211682Y-101497085D01*
X158121818Y-101364150D01*
X158019637Y-101241691D01*
X157906131Y-101130525D01*
X157782291Y-101031470D01*
X157649109Y-100945343D01*
X157507575Y-100872960D01*
X157358680Y-100815138D01*
X157249234Y-100783420D01*
X157187390Y-100768755D01*
X157132034Y-100757745D01*
X157078840Y-100749923D01*
X157023479Y-100744821D01*
X156961625Y-100741971D01*
X156888951Y-100740905D01*
X156855534Y-100740875D01*
X156787737Y-100741389D01*
X156732864Y-100742820D01*
X156686917Y-100745439D01*
X156645899Y-100749517D01*
X156605812Y-100755324D01*
X156582655Y-100759365D01*
X156431590Y-100795235D01*
X156283610Y-100846554D01*
X156140675Y-100912224D01*
X156004740Y-100991150D01*
X155877765Y-101082234D01*
X155761705Y-101184378D01*
X155690020Y-101259593D01*
X155586965Y-101388431D01*
X155498882Y-101524746D01*
X155425996Y-101667698D01*
X155368529Y-101816443D01*
X155326706Y-101970141D01*
X155300751Y-102127948D01*
X155290888Y-102289022D01*
X154696534Y-102289022D01*
X154696534Y-100100534D01*
X159031467Y-100100534D01*
X159031467Y-104435467D01*
D11*
X178538990Y-105213000D02*
X178538990Y-105923000D01*
X178314000Y-104993000D02*
X177863990Y-104993000D01*
X178314000Y-106143000D02*
X177864000Y-106143000D01*
X177264000Y-104993000D02*
X176814000Y-104993000D01*
X177264000Y-106143000D02*
X176814000Y-106143000D01*
X176589000Y-105213000D02*
X176589000Y-105923000D01*
X178319000Y-104993000D02*
G75*
G02X178539000Y-105213000I0J-220000D01*
G01*
X178539000Y-105923000D02*
G75*
G02X178319000Y-106143000I-220000J0D01*
G01*
X176589000Y-105213000D02*
G75*
G02X176809000Y-104993000I220000J0D01*
G01*
X176809000Y-106143000D02*
G75*
G02X176589000Y-105923000I0J220000D01*
G01*
D12*
X162364000Y-105428000D02*
X162364000Y-106758000D01*
X161034000Y-105428000D02*
X162364000Y-105428000D01*
X159764000Y-105428000D02*
X159764000Y-108088000D01*
X159764000Y-108088000D02*
X152084000Y-108088000D01*
X159764000Y-105428000D02*
X152084000Y-105428000D01*
X152084000Y-105428000D02*
X152084000Y-108088000D01*
X179414000Y-87638000D02*
X182814000Y-87638000D01*
X177774000Y-87638000D02*
X178314000Y-87638000D01*
X184974000Y-90468000D02*
X184974000Y-90978000D01*
X184454000Y-90978000D02*
X184974000Y-90978000D01*
X184454000Y-90468000D02*
X184454000Y-90978000D01*
X183914000Y-87638000D02*
X184454000Y-87638000D01*
X177254000Y-90468000D02*
X177254000Y-90978000D01*
X177774000Y-90468000D02*
X177774000Y-90978000D01*
X184454000Y-87638000D02*
X184454000Y-87868000D01*
X177254000Y-83968000D02*
X177254000Y-87868000D01*
X177254000Y-90978000D02*
X177774000Y-90978000D01*
X184974000Y-83968000D02*
X184974000Y-87868000D01*
X177254000Y-83968000D02*
X184974000Y-83968000D01*
X177774000Y-87638000D02*
X177774000Y-87868000D01*
D11*
X162304000Y-95383000D02*
X162979000Y-95383000D01*
X161029000Y-95383000D02*
X161704000Y-95383000D01*
X162304000Y-94233000D02*
X162979000Y-94233000D01*
X161029000Y-94233000D02*
X161704000Y-94233000D01*
X162979000Y-95383000D02*
X162979000Y-94233000D01*
X161029000Y-95383000D02*
X161029000Y-94233000D01*
X164524000Y-99403000D02*
X165199000Y-99403000D01*
X163249000Y-99403000D02*
X163924000Y-99403000D01*
X164524000Y-98253000D02*
X165199000Y-98253000D01*
X163249000Y-98253000D02*
X163924000Y-98253000D01*
X165199000Y-99403000D02*
X165199000Y-98253000D01*
X163249000Y-99403000D02*
X163249000Y-98253000D01*
X159704000Y-95383000D02*
X160379000Y-95383000D01*
X158429000Y-95383000D02*
X159104000Y-95383000D01*
X159704000Y-94233000D02*
X160379000Y-94233000D01*
X158429000Y-94233000D02*
X159104000Y-94233000D01*
X160379000Y-95383000D02*
X160379000Y-94233000D01*
X158429000Y-95383000D02*
X158429000Y-94233000D01*
X181139000Y-88698000D02*
X181139000Y-88023000D01*
X181139000Y-89973000D02*
X181139000Y-89298000D01*
X179989000Y-88698000D02*
X179989000Y-88023000D01*
X179989000Y-89973000D02*
X179989000Y-89298000D01*
X181139000Y-88023000D02*
X179989000Y-88023000D01*
X181139000Y-89973000D02*
X179989000Y-89973000D01*
D12*
X162634000Y-108068000D02*
X162634000Y-106738000D01*
X163964000Y-108068000D02*
X162634000Y-108068000D01*
X165234000Y-108068000D02*
X165234000Y-105408000D01*
X165234000Y-105408000D02*
X167834000Y-105408000D01*
X165234000Y-108068000D02*
X167834000Y-108068000D01*
X167834000Y-108068000D02*
X167834000Y-105408000D01*
X151574000Y-86698000D02*
X151574000Y-85368000D01*
X152904000Y-86698000D02*
X151574000Y-86698000D01*
X154174000Y-86698000D02*
X154174000Y-84038000D01*
X154174000Y-84038000D02*
X177094000Y-84038000D01*
X154174000Y-86698000D02*
X177094000Y-86698000D01*
X177094000Y-86698000D02*
X177094000Y-84038000D01*
D14*
X174669000Y-104308000D02*
X168019000Y-104308000D01*
X174669000Y-103408000D02*
X174669000Y-104308000D01*
X168019000Y-103408000D02*
X168019000Y-104308000D01*
X174669000Y-101108000D02*
X174669000Y-102008000D01*
X168019000Y-101108000D02*
X168019000Y-102008000D01*
X174669000Y-101108000D02*
X168019000Y-101108000D01*
X178994000Y-104988000D02*
X184994000Y-104988000D01*
X178994000Y-102188000D02*
X178994000Y-104988000D01*
X178994000Y-102188000D02*
X184994000Y-102188000D01*
X184994000Y-102188000D02*
X184994000Y-104988000D01*
D12*
X168034000Y-97868000D02*
X168034000Y-99158000D01*
X167584000Y-97868000D02*
X168034000Y-97868000D01*
X167584000Y-97418000D02*
X167584000Y-97868000D01*
X167584000Y-90648000D02*
X168034000Y-90648000D01*
X167584000Y-91098000D02*
X167584000Y-90648000D01*
X174804000Y-97868000D02*
X174354000Y-97868000D01*
X174804000Y-97418000D02*
X174804000Y-97868000D01*
X174804000Y-90648000D02*
X174354000Y-90648000D01*
X174804000Y-91098000D02*
X174804000Y-90648000D01*
D14*
X157564000Y-88468000D02*
X157564000Y-93468000D01*
X161364000Y-88468000D02*
X161364000Y-93468000D01*
X157564000Y-88468000D02*
X161364000Y-88468000D01*
X157564000Y-93468000D02*
X161364000Y-93468000D01*
D15*
X158464000Y-89168000D02*
G75*
G03X158464000Y-89168000I-200000J0D01*
G01*
D16*
X155864000Y-88170500D02*
G75*
G03X155864000Y-88170500I-150000J0D01*
G01*
D11*
X155464000Y-95593000D02*
X154789000Y-95593000D01*
X156739000Y-95593000D02*
X156064000Y-95593000D01*
X155464000Y-96743000D02*
X154789000Y-96743000D01*
X156739000Y-96743000D02*
X156064000Y-96743000D01*
X154789000Y-95593000D02*
X154789000Y-96743000D01*
X156739000Y-95593000D02*
X156739000Y-96743000D01*
X155464000Y-96993000D02*
X154789000Y-96993000D01*
X156739000Y-96993000D02*
X156064000Y-96993000D01*
X155464000Y-98143000D02*
X154789000Y-98143000D01*
X156739000Y-98143000D02*
X156064000Y-98143000D01*
X154789000Y-96993000D02*
X154789000Y-98143000D01*
X156739000Y-96993000D02*
X156739000Y-98143000D01*
X185019000Y-95158000D02*
X185019000Y-94483000D01*
X185019000Y-96433000D02*
X185019000Y-95758000D01*
X183869000Y-95158000D02*
X183869000Y-94483000D01*
X183869000Y-96433000D02*
X183869000Y-95758000D01*
X185019000Y-94483000D02*
X183869000Y-94483000D01*
X185019000Y-96433000D02*
X183869000Y-96433000D01*
X176164000Y-98793000D02*
X175489000Y-98793000D01*
X177439000Y-98793000D02*
X176764000Y-98793000D01*
X176164000Y-99943000D02*
X175489000Y-99943000D01*
X177439000Y-99943000D02*
X176764000Y-99943000D01*
X175489000Y-98793000D02*
X175489000Y-99943000D01*
X177439000Y-98793000D02*
X177439000Y-99943000D01*
X167379000Y-101488000D02*
X167379000Y-100813000D01*
X167379000Y-102763000D02*
X167379000Y-102088000D01*
X166229000Y-101488000D02*
X166229000Y-100813000D01*
X166229000Y-102763000D02*
X166229000Y-102088000D01*
X167379000Y-100813000D02*
X166229000Y-100813000D01*
X167379000Y-102763000D02*
X166229000Y-102763000D01*
X164524000Y-101283000D02*
X165199000Y-101283000D01*
X163249000Y-101283000D02*
X163924000Y-101283000D01*
X164524000Y-100133000D02*
X165199000Y-100133000D01*
X163249000Y-100133000D02*
X163924000Y-100133000D01*
X165199000Y-101283000D02*
X165199000Y-100133000D01*
X163249000Y-101283000D02*
X163249000Y-100133000D01*
X178504000Y-94283000D02*
X179179000Y-94283000D01*
X177229000Y-94283000D02*
X177904000Y-94283000D01*
X178504000Y-93133000D02*
X179179000Y-93133000D01*
X177229000Y-93133000D02*
X177904000Y-93133000D01*
X179179000Y-94283000D02*
X179179000Y-93133000D01*
X177229000Y-94283000D02*
X177229000Y-93133000D01*
X180439000Y-91928000D02*
X180439000Y-92603000D01*
X180439000Y-90653000D02*
X180439000Y-91328000D01*
X181589000Y-91928000D02*
X181589000Y-92603000D01*
X181589000Y-90653000D02*
X181589000Y-91328000D01*
X180439000Y-92603000D02*
X181589000Y-92603000D01*
X180439000Y-90653000D02*
X181589000Y-90653000D01*
D12*
X185594000Y-89958000D02*
X186924000Y-89958000D01*
X185594000Y-91288000D02*
X185594000Y-89958000D01*
X188194000Y-89958000D02*
X190794000Y-89958000D01*
X188194000Y-92558000D02*
X188194000Y-89958000D01*
X185594000Y-92558000D02*
X188194000Y-92558000D01*
X190794000Y-89958000D02*
X190794000Y-102778000D01*
X185594000Y-92558000D02*
X185594000Y-102778000D01*
X185594000Y-102778000D02*
X190794000Y-102778000D01*
X151444000Y-92398000D02*
X149644000Y-92398000D01*
X145934000Y-92398000D02*
X147394000Y-92398000D01*
X145934000Y-101338000D02*
X147394000Y-101338000D01*
X151444000Y-101338000D02*
X149644000Y-101338000D01*
X145934000Y-101338000D02*
X145934000Y-92398000D01*
D11*
X161578990Y-99543000D02*
X161578990Y-100253000D01*
X161354000Y-99323000D02*
X160903990Y-99323000D01*
X161354000Y-100473000D02*
X160904000Y-100473000D01*
X160304000Y-99323000D02*
X159854000Y-99323000D01*
X160304000Y-100473000D02*
X159854000Y-100473000D01*
X159629000Y-99543000D02*
X159629000Y-100253000D01*
X161359000Y-99323000D02*
G75*
G02X161579000Y-99543000I0J-220000D01*
G01*
X161579000Y-100253000D02*
G75*
G02X161359000Y-100473000I-220000J0D01*
G01*
X159629000Y-99543000D02*
G75*
G02X159849000Y-99323000I220000J0D01*
G01*
X159849000Y-100473000D02*
G75*
G02X159629000Y-100253000I0J220000D01*
G01*
X182449000Y-89972990D02*
X181739000Y-89972990D01*
X182669000Y-89748000D02*
X182669000Y-89297990D01*
X181519000Y-89748000D02*
X181519000Y-89298000D01*
X182669000Y-88698000D02*
X182669000Y-88248000D01*
X181519000Y-88698000D02*
X181519000Y-88248000D01*
X182449000Y-88023000D02*
X181739000Y-88023000D01*
X182669000Y-89753000D02*
G75*
G02X182449000Y-89973000I-220000J0D01*
G01*
X181739000Y-89973000D02*
G75*
G02X181519000Y-89753000I0J220000D01*
G01*
X182449000Y-88023000D02*
G75*
G02X182669000Y-88243000I0J-220000D01*
G01*
X181519000Y-88243000D02*
G75*
G02X181739000Y-88023000I220000J0D01*
G01*
X178449000Y-90653010D02*
X179159000Y-90653010D01*
X178229000Y-90878000D02*
X178229000Y-91328010D01*
X179379000Y-90878000D02*
X179379000Y-91328000D01*
X178229000Y-91928000D02*
X178229000Y-92378000D01*
X179379000Y-91928000D02*
X179379000Y-92378000D01*
X178449000Y-92603000D02*
X179159000Y-92603000D01*
X178229000Y-90873000D02*
G75*
G02X178449000Y-90653000I220000J0D01*
G01*
X179159000Y-90653000D02*
G75*
G02X179379000Y-90873000I0J-220000D01*
G01*
X178449000Y-92603000D02*
G75*
G02X178229000Y-92383000I0J220000D01*
G01*
X179379000Y-92383000D02*
G75*
G02X179159000Y-92603000I-220000J0D01*
G01*
X178408990Y-101913000D02*
X178408990Y-102623000D01*
X178184000Y-101693000D02*
X177733990Y-101693000D01*
X178184000Y-102843000D02*
X177734000Y-102843000D01*
X177134000Y-101693000D02*
X176684000Y-101693000D01*
X177134000Y-102843000D02*
X176684000Y-102843000D01*
X176459000Y-101913000D02*
X176459000Y-102623000D01*
X178189000Y-101693000D02*
G75*
G02X178409000Y-101913000I0J-220000D01*
G01*
X178409000Y-102623000D02*
G75*
G02X178189000Y-102843000I-220000J0D01*
G01*
X176459000Y-101913000D02*
G75*
G02X176679000Y-101693000I220000J0D01*
G01*
X176679000Y-102843000D02*
G75*
G02X176459000Y-102623000I0J220000D01*
G01*
X161578990Y-103683000D02*
X161578990Y-104393000D01*
X161354000Y-103463000D02*
X160903990Y-103463000D01*
X161354000Y-104613000D02*
X160904000Y-104613000D01*
X160304000Y-103463000D02*
X159854000Y-103463000D01*
X160304000Y-104613000D02*
X159854000Y-104613000D01*
X159629000Y-103683000D02*
X159629000Y-104393000D01*
X161359000Y-103463000D02*
G75*
G02X161579000Y-103683000I0J-220000D01*
G01*
X161579000Y-104393000D02*
G75*
G02X161359000Y-104613000I-220000J0D01*
G01*
X159629000Y-103683000D02*
G75*
G02X159849000Y-103463000I220000J0D01*
G01*
X159849000Y-104613000D02*
G75*
G02X159629000Y-104393000I0J220000D01*
G01*
X178129000Y-104708000D02*
X177394000Y-104708000D01*
X175459000Y-103528000D02*
X175459000Y-104308000D01*
X178529000Y-103528000D02*
X178529000Y-104308000D01*
X176594000Y-104708000D02*
X175859000Y-104708000D01*
X176594000Y-103128000D02*
X175859000Y-103128000D01*
X178129000Y-103128000D02*
X177394000Y-103128000D01*
X175859000Y-104708000D02*
G75*
G02X175459000Y-104308000I0J400000D01*
G01*
X175459000Y-103528000D02*
G75*
G02X175859000Y-103128000I400000J0D01*
G01*
X178129000Y-103128000D02*
G75*
G02X178529000Y-103528000I0J-400000D01*
G01*
X178529000Y-104308000D02*
G75*
G02X178129000Y-104708000I-400000J0D01*
G01*
X157919000Y-96742990D02*
X157209000Y-96742990D01*
X158139000Y-96518000D02*
X158139000Y-96067990D01*
X156989000Y-96518000D02*
X156989000Y-96068000D01*
X158139000Y-95468000D02*
X158139000Y-95018000D01*
X156989000Y-95468000D02*
X156989000Y-95018000D01*
X157919000Y-94793000D02*
X157209000Y-94793000D01*
X158139000Y-96523000D02*
G75*
G02X157919000Y-96743000I-220000J0D01*
G01*
X157209000Y-96743000D02*
G75*
G02X156989000Y-96523000I0J220000D01*
G01*
X157919000Y-94793000D02*
G75*
G02X158139000Y-95013000I0J-220000D01*
G01*
X156989000Y-95013000D02*
G75*
G02X157209000Y-94793000I220000J0D01*
G01*
X157209000Y-96993010D02*
X157919000Y-96993010D01*
X156989000Y-97218000D02*
X156989000Y-97668010D01*
X158139000Y-97218000D02*
X158139000Y-97668000D01*
X156989000Y-98268000D02*
X156989000Y-98718000D01*
X158139000Y-98268000D02*
X158139000Y-98718000D01*
X157209000Y-98943000D02*
X157919000Y-98943000D01*
X156989000Y-97213000D02*
G75*
G02X157209000Y-96993000I220000J0D01*
G01*
X157919000Y-96993000D02*
G75*
G02X158139000Y-97213000I0J-220000D01*
G01*
X157209000Y-98943000D02*
G75*
G02X156989000Y-98723000I0J220000D01*
G01*
X158139000Y-98723000D02*
G75*
G02X157919000Y-98943000I-220000J0D01*
G01*
X178189000Y-107968000D02*
X177454000Y-107968000D01*
X175519000Y-106788000D02*
X175519000Y-107568000D01*
X178589000Y-106788000D02*
X178589000Y-107568000D01*
X176654000Y-107968000D02*
X175919000Y-107968000D01*
X176654000Y-106388000D02*
X175919000Y-106388000D01*
X178189000Y-106388000D02*
X177454000Y-106388000D01*
X175919000Y-107968000D02*
G75*
G02X175519000Y-107568000I0J400000D01*
G01*
X175519000Y-106788000D02*
G75*
G02X175919000Y-106388000I400000J0D01*
G01*
X178189000Y-106388000D02*
G75*
G02X178589000Y-106788000I0J-400000D01*
G01*
X178589000Y-107568000D02*
G75*
G02X178189000Y-107968000I-400000J0D01*
G01*
X164573555Y-89359601D02*
X165075601Y-88857555D01*
X164577084Y-89674256D02*
X164895289Y-89992461D01*
X165390256Y-88861084D02*
X165708454Y-89179282D01*
X165319546Y-90416718D02*
X165637744Y-90734916D01*
X166132718Y-89603546D02*
X166450916Y-89921744D01*
X165952406Y-90738452D02*
X166454452Y-90236406D01*
X164573548Y-89670720D02*
G75*
G02X164573548Y-89359594I155563J155563D01*
G01*
X165075594Y-88857547D02*
G75*
G02X165386721Y-88857548I155563J-155564D01*
G01*
X165952406Y-90738453D02*
G75*
G02X165641279Y-90738452I-155563J155564D01*
G01*
X166454452Y-89925280D02*
G75*
G02X166454452Y-90236406I-155563J-155563D01*
G01*
X177438990Y-100493000D02*
X177438990Y-101203000D01*
X177214000Y-100273000D02*
X176763990Y-100273000D01*
X177214000Y-101423000D02*
X176764000Y-101423000D01*
X176164000Y-100273000D02*
X175714000Y-100273000D01*
X176164000Y-101423000D02*
X175714000Y-101423000D01*
X175489000Y-100493000D02*
X175489000Y-101203000D01*
X177219000Y-100273000D02*
G75*
G02X177439000Y-100493000I0J-220000D01*
G01*
X177439000Y-101203000D02*
G75*
G02X177219000Y-101423000I-220000J0D01*
G01*
X175489000Y-100493000D02*
G75*
G02X175709000Y-100273000I220000J0D01*
G01*
X175709000Y-101423000D02*
G75*
G02X175489000Y-101203000I0J220000D01*
G01*
X182819000Y-92592990D02*
X182109000Y-92592990D01*
X183039000Y-92368000D02*
X183039000Y-91917990D01*
X181889000Y-92368000D02*
X181889000Y-91918000D01*
X183039000Y-91318000D02*
X183039000Y-90868000D01*
X181889000Y-91318000D02*
X181889000Y-90868000D01*
X182819000Y-90643000D02*
X182109000Y-90643000D01*
X183039000Y-92373000D02*
G75*
G02X182819000Y-92593000I-220000J0D01*
G01*
X182109000Y-92593000D02*
G75*
G02X181889000Y-92373000I0J220000D01*
G01*
X182819000Y-90643000D02*
G75*
G02X183039000Y-90863000I0J-220000D01*
G01*
X181889000Y-90863000D02*
G75*
G02X182109000Y-90643000I220000J0D01*
G01*
X168479010Y-105573001D02*
X168479010Y-104863001D01*
X168704000Y-105793001D02*
X169154010Y-105793001D01*
X168704000Y-104643001D02*
X169154000Y-104643001D01*
X169754000Y-105793001D02*
X170204000Y-105793001D01*
X169754000Y-104643001D02*
X170204000Y-104643001D01*
X170429000Y-105573001D02*
X170429000Y-104863001D01*
X168699000Y-105793001D02*
G75*
G02X168479000Y-105573001I0J220000D01*
G01*
X168479000Y-104863001D02*
G75*
G02X168699000Y-104643001I220000J0D01*
G01*
X170429000Y-105573001D02*
G75*
G02X170209000Y-105793001I-220000J0D01*
G01*
X170209000Y-104643001D02*
G75*
G02X170429000Y-104863001I0J-220000D01*
G01*
X174288990Y-104873000D02*
X174288990Y-105583000D01*
X174064000Y-104653000D02*
X173613990Y-104653000D01*
X174064000Y-105803000D02*
X173614000Y-105803000D01*
X173014000Y-104653000D02*
X172564000Y-104653000D01*
X173014000Y-105803000D02*
X172564000Y-105803000D01*
X172339000Y-104873000D02*
X172339000Y-105583000D01*
X174069000Y-104653000D02*
G75*
G02X174289000Y-104873000I0J-220000D01*
G01*
X174289000Y-105583000D02*
G75*
G02X174069000Y-105803000I-220000J0D01*
G01*
X172339000Y-104873000D02*
G75*
G02X172559000Y-104653000I220000J0D01*
G01*
X172559000Y-105803000D02*
G75*
G02X172339000Y-105583000I0J220000D01*
G01*
M02*
