G04 #@! TF.GenerationSoftware,KiCad,Pcbnew,5.1.4-e60b266~84~ubuntu18.04.1*
G04 #@! TF.CreationDate,2019-11-09T22:19:46+08:00*
G04 #@! TF.ProjectId,dap-stm32f103,6461702d-7374-46d3-9332-663130332e6b,rev?*
G04 #@! TF.SameCoordinates,Original*
G04 #@! TF.FileFunction,Legend,Bot*
G04 #@! TF.FilePolarity,Positive*
%FSLAX46Y46*%
G04 Gerber Fmt 4.6, Leading zero omitted, Abs format (unit mm)*
G04 Created by KiCad (PCBNEW 5.1.4-e60b266~84~ubuntu18.04.1) date 2019-11-09 22:19:46*
%MOMM*%
%LPD*%
G04 APERTURE LIST*
%ADD10C,0.150000*%
%ADD11C,0.120000*%
G04 APERTURE END LIST*
D10*
X176016380Y-86748952D02*
X175016380Y-86748952D01*
X175016380Y-87129904D01*
X175064000Y-87225142D01*
X175111619Y-87272761D01*
X175206857Y-87320380D01*
X175349714Y-87320380D01*
X175444952Y-87272761D01*
X175492571Y-87225142D01*
X175540190Y-87129904D01*
X175540190Y-86748952D01*
X175492571Y-88082285D02*
X175540190Y-88225142D01*
X175587809Y-88272761D01*
X175683047Y-88320380D01*
X175825904Y-88320380D01*
X175921142Y-88272761D01*
X175968761Y-88225142D01*
X176016380Y-88129904D01*
X176016380Y-87748952D01*
X175016380Y-87748952D01*
X175016380Y-88082285D01*
X175064000Y-88177523D01*
X175111619Y-88225142D01*
X175206857Y-88272761D01*
X175302095Y-88272761D01*
X175397333Y-88225142D01*
X175444952Y-88177523D01*
X175492571Y-88082285D01*
X175492571Y-87748952D01*
X176016380Y-89272761D02*
X176016380Y-88701333D01*
X176016380Y-88987047D02*
X175016380Y-88987047D01*
X175159238Y-88891809D01*
X175254476Y-88796571D01*
X175302095Y-88701333D01*
X176016380Y-90225142D02*
X176016380Y-89653714D01*
X176016380Y-89939428D02*
X175016380Y-89939428D01*
X175159238Y-89844190D01*
X175254476Y-89748952D01*
X175302095Y-89653714D01*
X173816380Y-86748952D02*
X172816380Y-86748952D01*
X172816380Y-87129904D01*
X172864000Y-87225142D01*
X172911619Y-87272761D01*
X173006857Y-87320380D01*
X173149714Y-87320380D01*
X173244952Y-87272761D01*
X173292571Y-87225142D01*
X173340190Y-87129904D01*
X173340190Y-86748952D01*
X173530666Y-87701333D02*
X173530666Y-88177523D01*
X173816380Y-87606095D02*
X172816380Y-87939428D01*
X173816380Y-88272761D01*
X173816380Y-89129904D02*
X173816380Y-88558476D01*
X173816380Y-88844190D02*
X172816380Y-88844190D01*
X172959238Y-88748952D01*
X173054476Y-88653714D01*
X173102095Y-88558476D01*
X171216380Y-86748952D02*
X170216380Y-86748952D01*
X170216380Y-87129904D01*
X170264000Y-87225142D01*
X170311619Y-87272761D01*
X170406857Y-87320380D01*
X170549714Y-87320380D01*
X170644952Y-87272761D01*
X170692571Y-87225142D01*
X170740190Y-87129904D01*
X170740190Y-86748952D01*
X170692571Y-88082285D02*
X170740190Y-88225142D01*
X170787809Y-88272761D01*
X170883047Y-88320380D01*
X171025904Y-88320380D01*
X171121142Y-88272761D01*
X171168761Y-88225142D01*
X171216380Y-88129904D01*
X171216380Y-87748952D01*
X170216380Y-87748952D01*
X170216380Y-88082285D01*
X170264000Y-88177523D01*
X170311619Y-88225142D01*
X170406857Y-88272761D01*
X170502095Y-88272761D01*
X170597333Y-88225142D01*
X170644952Y-88177523D01*
X170692571Y-88082285D01*
X170692571Y-87748952D01*
X171216380Y-89272761D02*
X171216380Y-88701333D01*
X171216380Y-88987047D02*
X170216380Y-88987047D01*
X170359238Y-88891809D01*
X170454476Y-88796571D01*
X170502095Y-88701333D01*
X170311619Y-89653714D02*
X170264000Y-89701333D01*
X170216380Y-89796571D01*
X170216380Y-90034666D01*
X170264000Y-90129904D01*
X170311619Y-90177523D01*
X170406857Y-90225142D01*
X170502095Y-90225142D01*
X170644952Y-90177523D01*
X171216380Y-89606095D01*
X171216380Y-90225142D01*
X168616380Y-86748952D02*
X167616380Y-86748952D01*
X167616380Y-87129904D01*
X167664000Y-87225142D01*
X167711619Y-87272761D01*
X167806857Y-87320380D01*
X167949714Y-87320380D01*
X168044952Y-87272761D01*
X168092571Y-87225142D01*
X168140190Y-87129904D01*
X168140190Y-86748952D01*
X168092571Y-88082285D02*
X168140190Y-88225142D01*
X168187809Y-88272761D01*
X168283047Y-88320380D01*
X168425904Y-88320380D01*
X168521142Y-88272761D01*
X168568761Y-88225142D01*
X168616380Y-88129904D01*
X168616380Y-87748952D01*
X167616380Y-87748952D01*
X167616380Y-88082285D01*
X167664000Y-88177523D01*
X167711619Y-88225142D01*
X167806857Y-88272761D01*
X167902095Y-88272761D01*
X167997333Y-88225142D01*
X168044952Y-88177523D01*
X168092571Y-88082285D01*
X168092571Y-87748952D01*
X168616380Y-89272761D02*
X168616380Y-88701333D01*
X168616380Y-88987047D02*
X167616380Y-88987047D01*
X167759238Y-88891809D01*
X167854476Y-88796571D01*
X167902095Y-88701333D01*
X167616380Y-89606095D02*
X167616380Y-90225142D01*
X167997333Y-89891809D01*
X167997333Y-90034666D01*
X168044952Y-90129904D01*
X168092571Y-90177523D01*
X168187809Y-90225142D01*
X168425904Y-90225142D01*
X168521142Y-90177523D01*
X168568761Y-90129904D01*
X168616380Y-90034666D01*
X168616380Y-89748952D01*
X168568761Y-89653714D01*
X168521142Y-89606095D01*
X166116380Y-86748952D02*
X165116380Y-86748952D01*
X165116380Y-87129904D01*
X165164000Y-87225142D01*
X165211619Y-87272761D01*
X165306857Y-87320380D01*
X165449714Y-87320380D01*
X165544952Y-87272761D01*
X165592571Y-87225142D01*
X165640190Y-87129904D01*
X165640190Y-86748952D01*
X165592571Y-88082285D02*
X165640190Y-88225142D01*
X165687809Y-88272761D01*
X165783047Y-88320380D01*
X165925904Y-88320380D01*
X166021142Y-88272761D01*
X166068761Y-88225142D01*
X166116380Y-88129904D01*
X166116380Y-87748952D01*
X165116380Y-87748952D01*
X165116380Y-88082285D01*
X165164000Y-88177523D01*
X165211619Y-88225142D01*
X165306857Y-88272761D01*
X165402095Y-88272761D01*
X165497333Y-88225142D01*
X165544952Y-88177523D01*
X165592571Y-88082285D01*
X165592571Y-87748952D01*
X166116380Y-89272761D02*
X166116380Y-88701333D01*
X166116380Y-88987047D02*
X165116380Y-88987047D01*
X165259238Y-88891809D01*
X165354476Y-88796571D01*
X165402095Y-88701333D01*
X165449714Y-90129904D02*
X166116380Y-90129904D01*
X165068761Y-89891809D02*
X165783047Y-89653714D01*
X165783047Y-90272761D01*
X163516380Y-86748952D02*
X162516380Y-86748952D01*
X162516380Y-87129904D01*
X162564000Y-87225142D01*
X162611619Y-87272761D01*
X162706857Y-87320380D01*
X162849714Y-87320380D01*
X162944952Y-87272761D01*
X162992571Y-87225142D01*
X163040190Y-87129904D01*
X163040190Y-86748952D01*
X162992571Y-88082285D02*
X163040190Y-88225142D01*
X163087809Y-88272761D01*
X163183047Y-88320380D01*
X163325904Y-88320380D01*
X163421142Y-88272761D01*
X163468761Y-88225142D01*
X163516380Y-88129904D01*
X163516380Y-87748952D01*
X162516380Y-87748952D01*
X162516380Y-88082285D01*
X162564000Y-88177523D01*
X162611619Y-88225142D01*
X162706857Y-88272761D01*
X162802095Y-88272761D01*
X162897333Y-88225142D01*
X162944952Y-88177523D01*
X162992571Y-88082285D01*
X162992571Y-87748952D01*
X163516380Y-89272761D02*
X163516380Y-88701333D01*
X163516380Y-88987047D02*
X162516380Y-88987047D01*
X162659238Y-88891809D01*
X162754476Y-88796571D01*
X162802095Y-88701333D01*
X162516380Y-90177523D02*
X162516380Y-89701333D01*
X162992571Y-89653714D01*
X162944952Y-89701333D01*
X162897333Y-89796571D01*
X162897333Y-90034666D01*
X162944952Y-90129904D01*
X162992571Y-90177523D01*
X163087809Y-90225142D01*
X163325904Y-90225142D01*
X163421142Y-90177523D01*
X163468761Y-90129904D01*
X163516380Y-90034666D01*
X163516380Y-89796571D01*
X163468761Y-89701333D01*
X163421142Y-89653714D01*
X161016380Y-86748952D02*
X160016380Y-86748952D01*
X160016380Y-87129904D01*
X160064000Y-87225142D01*
X160111619Y-87272761D01*
X160206857Y-87320380D01*
X160349714Y-87320380D01*
X160444952Y-87272761D01*
X160492571Y-87225142D01*
X160540190Y-87129904D01*
X160540190Y-86748952D01*
X160730666Y-87701333D02*
X160730666Y-88177523D01*
X161016380Y-87606095D02*
X160016380Y-87939428D01*
X161016380Y-88272761D01*
X160444952Y-88748952D02*
X160397333Y-88653714D01*
X160349714Y-88606095D01*
X160254476Y-88558476D01*
X160206857Y-88558476D01*
X160111619Y-88606095D01*
X160064000Y-88653714D01*
X160016380Y-88748952D01*
X160016380Y-88939428D01*
X160064000Y-89034666D01*
X160111619Y-89082285D01*
X160206857Y-89129904D01*
X160254476Y-89129904D01*
X160349714Y-89082285D01*
X160397333Y-89034666D01*
X160444952Y-88939428D01*
X160444952Y-88748952D01*
X160492571Y-88653714D01*
X160540190Y-88606095D01*
X160635428Y-88558476D01*
X160825904Y-88558476D01*
X160921142Y-88606095D01*
X160968761Y-88653714D01*
X161016380Y-88748952D01*
X161016380Y-88939428D01*
X160968761Y-89034666D01*
X160921142Y-89082285D01*
X160825904Y-89129904D01*
X160635428Y-89129904D01*
X160540190Y-89082285D01*
X160492571Y-89034666D01*
X160444952Y-88939428D01*
X158416380Y-86748952D02*
X157416380Y-86748952D01*
X157416380Y-87129904D01*
X157464000Y-87225142D01*
X157511619Y-87272761D01*
X157606857Y-87320380D01*
X157749714Y-87320380D01*
X157844952Y-87272761D01*
X157892571Y-87225142D01*
X157940190Y-87129904D01*
X157940190Y-86748952D01*
X158321142Y-88320380D02*
X158368761Y-88272761D01*
X158416380Y-88129904D01*
X158416380Y-88034666D01*
X158368761Y-87891809D01*
X158273523Y-87796571D01*
X158178285Y-87748952D01*
X157987809Y-87701333D01*
X157844952Y-87701333D01*
X157654476Y-87748952D01*
X157559238Y-87796571D01*
X157464000Y-87891809D01*
X157416380Y-88034666D01*
X157416380Y-88129904D01*
X157464000Y-88272761D01*
X157511619Y-88320380D01*
X158416380Y-89272761D02*
X158416380Y-88701333D01*
X158416380Y-88987047D02*
X157416380Y-88987047D01*
X157559238Y-88891809D01*
X157654476Y-88796571D01*
X157702095Y-88701333D01*
X157416380Y-90177523D02*
X157416380Y-89701333D01*
X157892571Y-89653714D01*
X157844952Y-89701333D01*
X157797333Y-89796571D01*
X157797333Y-90034666D01*
X157844952Y-90129904D01*
X157892571Y-90177523D01*
X157987809Y-90225142D01*
X158225904Y-90225142D01*
X158321142Y-90177523D01*
X158368761Y-90129904D01*
X158416380Y-90034666D01*
X158416380Y-89796571D01*
X158368761Y-89701333D01*
X158321142Y-89653714D01*
X155916380Y-86748952D02*
X154916380Y-86748952D01*
X154916380Y-87129904D01*
X154964000Y-87225142D01*
X155011619Y-87272761D01*
X155106857Y-87320380D01*
X155249714Y-87320380D01*
X155344952Y-87272761D01*
X155392571Y-87225142D01*
X155440190Y-87129904D01*
X155440190Y-86748952D01*
X155821142Y-88320380D02*
X155868761Y-88272761D01*
X155916380Y-88129904D01*
X155916380Y-88034666D01*
X155868761Y-87891809D01*
X155773523Y-87796571D01*
X155678285Y-87748952D01*
X155487809Y-87701333D01*
X155344952Y-87701333D01*
X155154476Y-87748952D01*
X155059238Y-87796571D01*
X154964000Y-87891809D01*
X154916380Y-88034666D01*
X154916380Y-88129904D01*
X154964000Y-88272761D01*
X155011619Y-88320380D01*
X155916380Y-89272761D02*
X155916380Y-88701333D01*
X155916380Y-88987047D02*
X154916380Y-88987047D01*
X155059238Y-88891809D01*
X155154476Y-88796571D01*
X155202095Y-88701333D01*
X155249714Y-90129904D02*
X155916380Y-90129904D01*
X154868761Y-89891809D02*
X155583047Y-89653714D01*
X155583047Y-90272761D01*
X153316380Y-86748952D02*
X152316380Y-86748952D01*
X152316380Y-87129905D01*
X152364000Y-87225143D01*
X152411619Y-87272762D01*
X152506857Y-87320381D01*
X152649714Y-87320381D01*
X152744952Y-87272762D01*
X152792571Y-87225143D01*
X152840190Y-87129905D01*
X152840190Y-86748952D01*
X152792571Y-88082286D02*
X152840190Y-88225143D01*
X152887809Y-88272762D01*
X152983047Y-88320381D01*
X153125904Y-88320381D01*
X153221142Y-88272762D01*
X153268761Y-88225143D01*
X153316380Y-88129905D01*
X153316380Y-87748952D01*
X152316380Y-87748952D01*
X152316380Y-88082286D01*
X152364000Y-88177524D01*
X152411619Y-88225143D01*
X152506857Y-88272762D01*
X152602095Y-88272762D01*
X152697333Y-88225143D01*
X152744952Y-88177524D01*
X152792571Y-88082286D01*
X152792571Y-87748952D01*
X152316380Y-89177524D02*
X152316380Y-88987048D01*
X152364000Y-88891809D01*
X152411619Y-88844190D01*
X152554476Y-88748952D01*
X152744952Y-88701333D01*
X153125904Y-88701333D01*
X153221142Y-88748952D01*
X153268761Y-88796571D01*
X153316380Y-88891809D01*
X153316380Y-89082286D01*
X153268761Y-89177524D01*
X153221142Y-89225143D01*
X153125904Y-89272762D01*
X152887809Y-89272762D01*
X152792571Y-89225143D01*
X152744952Y-89177524D01*
X152697333Y-89082286D01*
X152697333Y-88891809D01*
X152744952Y-88796571D01*
X152792571Y-88748952D01*
X152887809Y-88701333D01*
X153721142Y-103544189D02*
X153768761Y-103496570D01*
X153816380Y-103353713D01*
X153816380Y-103258475D01*
X153768761Y-103115618D01*
X153673523Y-103020380D01*
X153578285Y-102972761D01*
X153387809Y-102925142D01*
X153244952Y-102925142D01*
X153054476Y-102972761D01*
X152959238Y-103020380D01*
X152864000Y-103115618D01*
X152816380Y-103258475D01*
X152816380Y-103353713D01*
X152864000Y-103496570D01*
X152911619Y-103544189D01*
X153816380Y-104448951D02*
X153816380Y-103972761D01*
X152816380Y-103972761D01*
X153816380Y-104782285D02*
X152816380Y-104782285D01*
X153816380Y-105353713D02*
X153244952Y-104925142D01*
X152816380Y-105353713D02*
X153387809Y-104782285D01*
X155464000Y-103258476D02*
X155416380Y-103163238D01*
X155416380Y-103020381D01*
X155464000Y-102877523D01*
X155559238Y-102782285D01*
X155654476Y-102734666D01*
X155844952Y-102687047D01*
X155987809Y-102687047D01*
X156178285Y-102734666D01*
X156273523Y-102782285D01*
X156368761Y-102877523D01*
X156416380Y-103020381D01*
X156416380Y-103115619D01*
X156368761Y-103258476D01*
X156321142Y-103306095D01*
X155987809Y-103306095D01*
X155987809Y-103115619D01*
X156416380Y-103734666D02*
X155416380Y-103734666D01*
X156416380Y-104306095D01*
X155416380Y-104306095D01*
X156416380Y-104782285D02*
X155416380Y-104782285D01*
X155416380Y-105020381D01*
X155464000Y-105163238D01*
X155559238Y-105258476D01*
X155654476Y-105306095D01*
X155844952Y-105353714D01*
X155987809Y-105353714D01*
X156178285Y-105306095D01*
X156273523Y-105258476D01*
X156368761Y-105163238D01*
X156416380Y-105020381D01*
X156416380Y-104782285D01*
X158916380Y-103258475D02*
X157916380Y-103258475D01*
X157916380Y-103496570D01*
X157964000Y-103639427D01*
X158059238Y-103734665D01*
X158154476Y-103782285D01*
X158344952Y-103829904D01*
X158487809Y-103829904D01*
X158678285Y-103782285D01*
X158773523Y-103734665D01*
X158868761Y-103639427D01*
X158916380Y-103496570D01*
X158916380Y-103258475D01*
X158916380Y-104258475D02*
X157916380Y-104258475D01*
X157916380Y-104925142D02*
X157916380Y-105115618D01*
X157964000Y-105210856D01*
X158059238Y-105306094D01*
X158249714Y-105353713D01*
X158583047Y-105353713D01*
X158773523Y-105306094D01*
X158868761Y-105210856D01*
X158916380Y-105115618D01*
X158916380Y-104925142D01*
X158868761Y-104829904D01*
X158773523Y-104734665D01*
X158583047Y-104687046D01*
X158249714Y-104687046D01*
X158059238Y-104734665D01*
X157964000Y-104829904D01*
X157916380Y-104925142D01*
X160516380Y-102448952D02*
X160516380Y-103068000D01*
X160897333Y-102734666D01*
X160897333Y-102877523D01*
X160944952Y-102972762D01*
X160992571Y-103020381D01*
X161087809Y-103068000D01*
X161325904Y-103068000D01*
X161421142Y-103020381D01*
X161468761Y-102972762D01*
X161516380Y-102877523D01*
X161516380Y-102591809D01*
X161468761Y-102496571D01*
X161421142Y-102448952D01*
X161421142Y-103496571D02*
X161468761Y-103544190D01*
X161516380Y-103496571D01*
X161468761Y-103448952D01*
X161421142Y-103496571D01*
X161516380Y-103496571D01*
X160516380Y-103877523D02*
X160516380Y-104496571D01*
X160897333Y-104163238D01*
X160897333Y-104306095D01*
X160944952Y-104401333D01*
X160992571Y-104448952D01*
X161087809Y-104496571D01*
X161325904Y-104496571D01*
X161421142Y-104448952D01*
X161468761Y-104401333D01*
X161516380Y-104306095D01*
X161516380Y-104020381D01*
X161468761Y-103925143D01*
X161421142Y-103877523D01*
X160516380Y-104782285D02*
X161516380Y-105115619D01*
X160516380Y-105448952D01*
X164416380Y-104401333D02*
X163940190Y-104068000D01*
X164416380Y-103829904D02*
X163416380Y-103829904D01*
X163416380Y-104210857D01*
X163464000Y-104306095D01*
X163511619Y-104353714D01*
X163606857Y-104401333D01*
X163749714Y-104401333D01*
X163844952Y-104353714D01*
X163892571Y-104306095D01*
X163940190Y-104210857D01*
X163940190Y-103829904D01*
X163416380Y-104734666D02*
X164416380Y-105401333D01*
X163416380Y-105401333D02*
X164416380Y-104734666D01*
X166016380Y-103925142D02*
X166016380Y-104496570D01*
X167016380Y-104210856D02*
X166016380Y-104210856D01*
X166016380Y-104734666D02*
X167016380Y-105401332D01*
X166016380Y-105401332D02*
X167016380Y-104734666D01*
X180830666Y-101820380D02*
X181164000Y-101344190D01*
X181402095Y-101820380D02*
X181402095Y-100820380D01*
X181021142Y-100820380D01*
X180925904Y-100868000D01*
X180878285Y-100915619D01*
X180830666Y-101010857D01*
X180830666Y-101153714D01*
X180878285Y-101248952D01*
X180925904Y-101296571D01*
X181021142Y-101344190D01*
X181402095Y-101344190D01*
X180497333Y-100820380D02*
X179830666Y-101820380D01*
X179830666Y-100820380D02*
X180497333Y-101820380D01*
X183725904Y-100820380D02*
X183154476Y-100820380D01*
X183440190Y-101820380D02*
X183440190Y-100820380D01*
X182916380Y-100820380D02*
X182249714Y-101820380D01*
X182249714Y-100820380D02*
X182916380Y-101820380D01*
X181544952Y-98420380D02*
X180973523Y-98420380D01*
X181259238Y-99420380D02*
X181259238Y-98420380D01*
X180640190Y-99420380D02*
X180640190Y-98420380D01*
X180402095Y-98420380D01*
X180259238Y-98468000D01*
X180164000Y-98563238D01*
X180116381Y-98658476D01*
X180068762Y-98848952D01*
X180068762Y-98991809D01*
X180116381Y-99182285D01*
X180164000Y-99277523D01*
X180259238Y-99372761D01*
X180402095Y-99420380D01*
X180640190Y-99420380D01*
X179640190Y-99420380D02*
X179640190Y-98420380D01*
X184821142Y-98420380D02*
X184249714Y-98420380D01*
X184535428Y-99420380D02*
X184535428Y-98420380D01*
X183916380Y-99420380D02*
X183916380Y-98420380D01*
X183678285Y-98420380D01*
X183535428Y-98468000D01*
X183440190Y-98563238D01*
X183392571Y-98658476D01*
X183344952Y-98848952D01*
X183344952Y-98991809D01*
X183392571Y-99182285D01*
X183440190Y-99277523D01*
X183535428Y-99372761D01*
X183678285Y-99420380D01*
X183916380Y-99420380D01*
X182725904Y-98420380D02*
X182535428Y-98420380D01*
X182440190Y-98468000D01*
X182344952Y-98563238D01*
X182297333Y-98753714D01*
X182297333Y-99087047D01*
X182344952Y-99277523D01*
X182440190Y-99372761D01*
X182535428Y-99420380D01*
X182725904Y-99420380D01*
X182821142Y-99372761D01*
X182916380Y-99277523D01*
X182963999Y-99087047D01*
X182963999Y-98753714D01*
X182916380Y-98563238D01*
X182821142Y-98468000D01*
X182725904Y-98420380D01*
X184106857Y-96725142D02*
X184154476Y-96772761D01*
X184297333Y-96820380D01*
X184392571Y-96820380D01*
X184535428Y-96772761D01*
X184630666Y-96677523D01*
X184678285Y-96582285D01*
X184725904Y-96391809D01*
X184725904Y-96248952D01*
X184678285Y-96058476D01*
X184630666Y-95963238D01*
X184535428Y-95868000D01*
X184392571Y-95820380D01*
X184297333Y-95820380D01*
X184154476Y-95868000D01*
X184106857Y-95915619D01*
X183202095Y-96820380D02*
X183678285Y-96820380D01*
X183678285Y-95820380D01*
X182868761Y-96820380D02*
X182868761Y-95820380D01*
X182297333Y-96820380D02*
X182725904Y-96248952D01*
X182297333Y-95820380D02*
X182868761Y-96391809D01*
X181402095Y-96820380D02*
X181402095Y-95820380D01*
X181164000Y-95820380D01*
X181021143Y-95868000D01*
X180925905Y-95963238D01*
X180878285Y-96058476D01*
X180830666Y-96248952D01*
X180830666Y-96391809D01*
X180878285Y-96582285D01*
X180925905Y-96677523D01*
X181021143Y-96772761D01*
X181164000Y-96820380D01*
X181402095Y-96820380D01*
X180402095Y-96820380D02*
X180402095Y-95820380D01*
X179735428Y-95820380D02*
X179544952Y-95820380D01*
X179449714Y-95868000D01*
X179354476Y-95963238D01*
X179306857Y-96153714D01*
X179306857Y-96487047D01*
X179354476Y-96677523D01*
X179449714Y-96772761D01*
X179544952Y-96820380D01*
X179735428Y-96820380D01*
X179830666Y-96772761D01*
X179925905Y-96677523D01*
X179973524Y-96487047D01*
X179973524Y-96153714D01*
X179925905Y-95963238D01*
X179830666Y-95868000D01*
X179735428Y-95820380D01*
X178164000Y-95772761D02*
X179021143Y-97058476D01*
X177973524Y-95820380D02*
X177402095Y-95820380D01*
X177687809Y-96820380D02*
X177687809Y-95820380D01*
X177068762Y-96820380D02*
X177068762Y-95820380D01*
X176735428Y-96534666D01*
X176402095Y-95820380D01*
X176402095Y-96820380D01*
X175973524Y-96772761D02*
X175830666Y-96820380D01*
X175592571Y-96820380D01*
X175497333Y-96772761D01*
X175449714Y-96725142D01*
X175402095Y-96629904D01*
X175402095Y-96534666D01*
X175449714Y-96439428D01*
X175497333Y-96391809D01*
X175592571Y-96344190D01*
X175783047Y-96296571D01*
X175878285Y-96248952D01*
X175925905Y-96201333D01*
X175973524Y-96106095D01*
X175973524Y-96010857D01*
X175925905Y-95915619D01*
X175878285Y-95868000D01*
X175783047Y-95820380D01*
X175544952Y-95820380D01*
X175402095Y-95868000D01*
X184154475Y-94220380D02*
X184487808Y-93744190D01*
X184725904Y-94220380D02*
X184725904Y-93220380D01*
X184344951Y-93220380D01*
X184249713Y-93268000D01*
X184202094Y-93315619D01*
X184154475Y-93410857D01*
X184154475Y-93553714D01*
X184202094Y-93648952D01*
X184249713Y-93696571D01*
X184344951Y-93744190D01*
X184725904Y-93744190D01*
X183725904Y-93696571D02*
X183392570Y-93696571D01*
X183249713Y-94220380D02*
X183725904Y-94220380D01*
X183725904Y-93220380D01*
X183249713Y-93220380D01*
X182868761Y-94172761D02*
X182725904Y-94220380D01*
X182487808Y-94220380D01*
X182392570Y-94172761D01*
X182344951Y-94125142D01*
X182297332Y-94029904D01*
X182297332Y-93934666D01*
X182344951Y-93839428D01*
X182392570Y-93791809D01*
X182487808Y-93744190D01*
X182678285Y-93696571D01*
X182773523Y-93648952D01*
X182821142Y-93601333D01*
X182868761Y-93506095D01*
X182868761Y-93410857D01*
X182821142Y-93315619D01*
X182773523Y-93268000D01*
X182678285Y-93220380D01*
X182440189Y-93220380D01*
X182297332Y-93268000D01*
X181402095Y-94320380D02*
X181402095Y-93320380D01*
X180735428Y-93320380D02*
X180544952Y-93320380D01*
X180449714Y-93368000D01*
X180354476Y-93463238D01*
X180306857Y-93653714D01*
X180306857Y-93987047D01*
X180354476Y-94177523D01*
X180449714Y-94272761D01*
X180544952Y-94320380D01*
X180735428Y-94320380D01*
X180830666Y-94272761D01*
X180925905Y-94177523D01*
X180973524Y-93987047D01*
X180973524Y-93653714D01*
X180925905Y-93463238D01*
X180830666Y-93368000D01*
X180735428Y-93320380D01*
D11*
X177864000Y-90168000D02*
X185764000Y-90168000D01*
X177864000Y-102568000D02*
X185764000Y-102568000D01*
X177864000Y-100168000D02*
X185764000Y-100168000D01*
X177864000Y-97668000D02*
X185764000Y-97668000D01*
X177864000Y-95068000D02*
X185764000Y-95068000D01*
X177864000Y-92568000D02*
X185764000Y-92568000D01*
X181864000Y-90168000D02*
X181864000Y-102568000D01*
D10*
X184392570Y-90968000D02*
X184487808Y-90920380D01*
X184630666Y-90920380D01*
X184773523Y-90968000D01*
X184868761Y-91063238D01*
X184916380Y-91158476D01*
X184963999Y-91348952D01*
X184963999Y-91491809D01*
X184916380Y-91682285D01*
X184868761Y-91777523D01*
X184773523Y-91872761D01*
X184630666Y-91920380D01*
X184535427Y-91920380D01*
X184392570Y-91872761D01*
X184344951Y-91825142D01*
X184344951Y-91491809D01*
X184535427Y-91491809D01*
X183916380Y-91920380D02*
X183916380Y-90920380D01*
X183344951Y-91920380D01*
X183344951Y-90920380D01*
X182868761Y-91920380D02*
X182868761Y-90920380D01*
X182630666Y-90920380D01*
X182487808Y-90968000D01*
X182392570Y-91063238D01*
X182344951Y-91158476D01*
X182297332Y-91348952D01*
X182297332Y-91491809D01*
X182344951Y-91682285D01*
X182392570Y-91777523D01*
X182487808Y-91872761D01*
X182630666Y-91920380D01*
X182868761Y-91920380D01*
X181497333Y-90920380D02*
X180878285Y-90920380D01*
X181211619Y-91301333D01*
X181068762Y-91301333D01*
X180973523Y-91348952D01*
X180925904Y-91396571D01*
X180878285Y-91491809D01*
X180878285Y-91729904D01*
X180925904Y-91825142D01*
X180973523Y-91872761D01*
X181068762Y-91920380D01*
X181354476Y-91920380D01*
X181449714Y-91872761D01*
X181497333Y-91825142D01*
X180449714Y-91825142D02*
X180402095Y-91872761D01*
X180449714Y-91920380D01*
X180497333Y-91872761D01*
X180449714Y-91825142D01*
X180449714Y-91920380D01*
X180068762Y-90920380D02*
X179449714Y-90920380D01*
X179783047Y-91301333D01*
X179640190Y-91301333D01*
X179544952Y-91348952D01*
X179497333Y-91396571D01*
X179449714Y-91491809D01*
X179449714Y-91729904D01*
X179497333Y-91825142D01*
X179544952Y-91872761D01*
X179640190Y-91920380D01*
X179925904Y-91920380D01*
X180021143Y-91872761D01*
X180068762Y-91825142D01*
X179164000Y-90920380D02*
X178830666Y-91920380D01*
X178497333Y-90920380D01*
X177506857Y-92920380D02*
X177506857Y-91920380D01*
X177078285Y-92920380D02*
X177078285Y-92396571D01*
X177125904Y-92301333D01*
X177221142Y-92253714D01*
X177363999Y-92253714D01*
X177459238Y-92301333D01*
X177506857Y-92348952D01*
X176744952Y-92253714D02*
X176363999Y-92253714D01*
X176602095Y-91920380D02*
X176602095Y-92777523D01*
X176554476Y-92872761D01*
X176459238Y-92920380D01*
X176363999Y-92920380D01*
X176173523Y-92253714D02*
X175792571Y-92253714D01*
X176030666Y-91920380D02*
X176030666Y-92777523D01*
X175983047Y-92872761D01*
X175887809Y-92920380D01*
X175792571Y-92920380D01*
X175459238Y-92253714D02*
X175459238Y-93253714D01*
X175459238Y-92301333D02*
X175363999Y-92253714D01*
X175173523Y-92253714D01*
X175078285Y-92301333D01*
X175030666Y-92348952D01*
X174983047Y-92444190D01*
X174983047Y-92729904D01*
X175030666Y-92825142D01*
X175078285Y-92872761D01*
X175173523Y-92920380D01*
X175363999Y-92920380D01*
X175459238Y-92872761D01*
X174602095Y-92872761D02*
X174506857Y-92920380D01*
X174316380Y-92920380D01*
X174221142Y-92872761D01*
X174173523Y-92777523D01*
X174173523Y-92729904D01*
X174221142Y-92634666D01*
X174316380Y-92587047D01*
X174459238Y-92587047D01*
X174554476Y-92539428D01*
X174602095Y-92444190D01*
X174602095Y-92396571D01*
X174554476Y-92301333D01*
X174459238Y-92253714D01*
X174316380Y-92253714D01*
X174221142Y-92301333D01*
X173744952Y-92825142D02*
X173697333Y-92872761D01*
X173744952Y-92920380D01*
X173792571Y-92872761D01*
X173744952Y-92825142D01*
X173744952Y-92920380D01*
X173744952Y-92301333D02*
X173697333Y-92348952D01*
X173744952Y-92396571D01*
X173792571Y-92348952D01*
X173744952Y-92301333D01*
X173744952Y-92396571D01*
X172554476Y-91872761D02*
X173411618Y-93158476D01*
X171506857Y-91872761D02*
X172363999Y-93158476D01*
X170744952Y-92253714D02*
X170744952Y-93063238D01*
X170792571Y-93158476D01*
X170840190Y-93206095D01*
X170935428Y-93253714D01*
X171078285Y-93253714D01*
X171173523Y-93206095D01*
X170744952Y-92872761D02*
X170840190Y-92920380D01*
X171030666Y-92920380D01*
X171125904Y-92872761D01*
X171173523Y-92825142D01*
X171221142Y-92729904D01*
X171221142Y-92444190D01*
X171173523Y-92348952D01*
X171125904Y-92301333D01*
X171030666Y-92253714D01*
X170840190Y-92253714D01*
X170744952Y-92301333D01*
X170268761Y-92920380D02*
X170268761Y-92253714D01*
X170268761Y-91920380D02*
X170316380Y-91968000D01*
X170268761Y-92015619D01*
X170221142Y-91968000D01*
X170268761Y-91920380D01*
X170268761Y-92015619D01*
X169935428Y-92253714D02*
X169554476Y-92253714D01*
X169792571Y-91920380D02*
X169792571Y-92777523D01*
X169744952Y-92872761D01*
X169649714Y-92920380D01*
X169554476Y-92920380D01*
X169221142Y-92920380D02*
X169221142Y-91920380D01*
X168792571Y-92920380D02*
X168792571Y-92396571D01*
X168840190Y-92301333D01*
X168935428Y-92253714D01*
X169078285Y-92253714D01*
X169173523Y-92301333D01*
X169221142Y-92348952D01*
X167887809Y-92253714D02*
X167887809Y-92920380D01*
X168316380Y-92253714D02*
X168316380Y-92777523D01*
X168268761Y-92872761D01*
X168173523Y-92920380D01*
X168030666Y-92920380D01*
X167935428Y-92872761D01*
X167887809Y-92825142D01*
X167411618Y-92920380D02*
X167411618Y-91920380D01*
X167411618Y-92301333D02*
X167316380Y-92253714D01*
X167125904Y-92253714D01*
X167030666Y-92301333D01*
X166983047Y-92348952D01*
X166935428Y-92444190D01*
X166935428Y-92729904D01*
X166983047Y-92825142D01*
X167030666Y-92872761D01*
X167125904Y-92920380D01*
X167316380Y-92920380D01*
X167411618Y-92872761D01*
X166506857Y-92825142D02*
X166459238Y-92872761D01*
X166506857Y-92920380D01*
X166554476Y-92872761D01*
X166506857Y-92825142D01*
X166506857Y-92920380D01*
X165602095Y-92872761D02*
X165697333Y-92920380D01*
X165887809Y-92920380D01*
X165983047Y-92872761D01*
X166030666Y-92825142D01*
X166078285Y-92729904D01*
X166078285Y-92444190D01*
X166030666Y-92348952D01*
X165983047Y-92301333D01*
X165887809Y-92253714D01*
X165697333Y-92253714D01*
X165602095Y-92301333D01*
X165030666Y-92920380D02*
X165125904Y-92872761D01*
X165173523Y-92825142D01*
X165221142Y-92729904D01*
X165221142Y-92444190D01*
X165173523Y-92348952D01*
X165125904Y-92301333D01*
X165030666Y-92253714D01*
X164887809Y-92253714D01*
X164792571Y-92301333D01*
X164744952Y-92348952D01*
X164697333Y-92444190D01*
X164697333Y-92729904D01*
X164744952Y-92825142D01*
X164792571Y-92872761D01*
X164887809Y-92920380D01*
X165030666Y-92920380D01*
X164268761Y-92920380D02*
X164268761Y-92253714D01*
X164268761Y-92348952D02*
X164221142Y-92301333D01*
X164125904Y-92253714D01*
X163983047Y-92253714D01*
X163887809Y-92301333D01*
X163840190Y-92396571D01*
X163840190Y-92920380D01*
X163840190Y-92396571D02*
X163792571Y-92301333D01*
X163697333Y-92253714D01*
X163554476Y-92253714D01*
X163459238Y-92301333D01*
X163411618Y-92396571D01*
X163411618Y-92920380D01*
X162221142Y-91872761D02*
X163078285Y-93158476D01*
X161316380Y-92920380D02*
X161649714Y-92444190D01*
X161887809Y-92920380D02*
X161887809Y-91920380D01*
X161506857Y-91920380D01*
X161411618Y-91968000D01*
X161363999Y-92015619D01*
X161316380Y-92110857D01*
X161316380Y-92253714D01*
X161363999Y-92348952D01*
X161411618Y-92396571D01*
X161506857Y-92444190D01*
X161887809Y-92444190D01*
X161030666Y-91920380D02*
X160459238Y-91920380D01*
X160744952Y-92920380D02*
X160744952Y-91920380D01*
X160125904Y-92539428D02*
X159363999Y-92539428D01*
X159030666Y-91920380D02*
X158459238Y-91920380D01*
X158744952Y-92920380D02*
X158744952Y-91920380D01*
X158125904Y-92920380D02*
X158125904Y-91920380D01*
X157697333Y-92920380D02*
X157697333Y-92396571D01*
X157744952Y-92301333D01*
X157840190Y-92253714D01*
X157983047Y-92253714D01*
X158078285Y-92301333D01*
X158125904Y-92348952D01*
X157221142Y-92920380D02*
X157221142Y-92253714D01*
X157221142Y-92444190D02*
X157173523Y-92348952D01*
X157125904Y-92301333D01*
X157030666Y-92253714D01*
X156935428Y-92253714D01*
X156221142Y-92872761D02*
X156316380Y-92920380D01*
X156506857Y-92920380D01*
X156602095Y-92872761D01*
X156649714Y-92777523D01*
X156649714Y-92396571D01*
X156602095Y-92301333D01*
X156506857Y-92253714D01*
X156316380Y-92253714D01*
X156221142Y-92301333D01*
X156173523Y-92396571D01*
X156173523Y-92491809D01*
X156649714Y-92587047D01*
X155316380Y-92920380D02*
X155316380Y-92396571D01*
X155363999Y-92301333D01*
X155459238Y-92253714D01*
X155649714Y-92253714D01*
X155744952Y-92301333D01*
X155316380Y-92872761D02*
X155411618Y-92920380D01*
X155649714Y-92920380D01*
X155744952Y-92872761D01*
X155792571Y-92777523D01*
X155792571Y-92682285D01*
X155744952Y-92587047D01*
X155649714Y-92539428D01*
X155411618Y-92539428D01*
X155316380Y-92491809D01*
X154411618Y-92920380D02*
X154411618Y-91920380D01*
X154411618Y-92872761D02*
X154506857Y-92920380D01*
X154697333Y-92920380D01*
X154792571Y-92872761D01*
X154840190Y-92825142D01*
X154887809Y-92729904D01*
X154887809Y-92444190D01*
X154840190Y-92348952D01*
X154792571Y-92301333D01*
X154697333Y-92253714D01*
X154506857Y-92253714D01*
X154411618Y-92301333D01*
X178316380Y-101620380D02*
X178316380Y-100620380D01*
X177887809Y-101620380D02*
X177887809Y-101096571D01*
X177935428Y-101001333D01*
X178030666Y-100953714D01*
X178173523Y-100953714D01*
X178268761Y-101001333D01*
X178316380Y-101048952D01*
X177554476Y-100953714D02*
X177173523Y-100953714D01*
X177411619Y-100620380D02*
X177411619Y-101477523D01*
X177364000Y-101572761D01*
X177268761Y-101620380D01*
X177173523Y-101620380D01*
X176983047Y-100953714D02*
X176602095Y-100953714D01*
X176840190Y-100620380D02*
X176840190Y-101477523D01*
X176792571Y-101572761D01*
X176697333Y-101620380D01*
X176602095Y-101620380D01*
X176268761Y-100953714D02*
X176268761Y-101953714D01*
X176268761Y-101001333D02*
X176173523Y-100953714D01*
X175983047Y-100953714D01*
X175887809Y-101001333D01*
X175840190Y-101048952D01*
X175792571Y-101144190D01*
X175792571Y-101429904D01*
X175840190Y-101525142D01*
X175887809Y-101572761D01*
X175983047Y-101620380D01*
X176173523Y-101620380D01*
X176268761Y-101572761D01*
X175411619Y-101572761D02*
X175316380Y-101620380D01*
X175125904Y-101620380D01*
X175030666Y-101572761D01*
X174983047Y-101477523D01*
X174983047Y-101429904D01*
X175030666Y-101334666D01*
X175125904Y-101287047D01*
X175268761Y-101287047D01*
X175364000Y-101239428D01*
X175411619Y-101144190D01*
X175411619Y-101096571D01*
X175364000Y-101001333D01*
X175268761Y-100953714D01*
X175125904Y-100953714D01*
X175030666Y-101001333D01*
X174554476Y-101525142D02*
X174506857Y-101572761D01*
X174554476Y-101620380D01*
X174602095Y-101572761D01*
X174554476Y-101525142D01*
X174554476Y-101620380D01*
X174554476Y-101001333D02*
X174506857Y-101048952D01*
X174554476Y-101096571D01*
X174602095Y-101048952D01*
X174554476Y-101001333D01*
X174554476Y-101096571D01*
X173364000Y-100572761D02*
X174221142Y-101858476D01*
X172316380Y-100572761D02*
X173173523Y-101858476D01*
X171554476Y-100953714D02*
X171554476Y-101763238D01*
X171602095Y-101858476D01*
X171649714Y-101906095D01*
X171744952Y-101953714D01*
X171887809Y-101953714D01*
X171983047Y-101906095D01*
X171554476Y-101572761D02*
X171649714Y-101620380D01*
X171840190Y-101620380D01*
X171935428Y-101572761D01*
X171983047Y-101525142D01*
X172030666Y-101429904D01*
X172030666Y-101144190D01*
X171983047Y-101048952D01*
X171935428Y-101001333D01*
X171840190Y-100953714D01*
X171649714Y-100953714D01*
X171554476Y-101001333D01*
X171078285Y-101620380D02*
X171078285Y-100953714D01*
X171078285Y-100620380D02*
X171125904Y-100668000D01*
X171078285Y-100715619D01*
X171030666Y-100668000D01*
X171078285Y-100620380D01*
X171078285Y-100715619D01*
X170744952Y-100953714D02*
X170364000Y-100953714D01*
X170602095Y-100620380D02*
X170602095Y-101477523D01*
X170554476Y-101572761D01*
X170459238Y-101620380D01*
X170364000Y-101620380D01*
X170030666Y-101620380D02*
X170030666Y-100620380D01*
X169602095Y-101620380D02*
X169602095Y-101096571D01*
X169649714Y-101001333D01*
X169744952Y-100953714D01*
X169887809Y-100953714D01*
X169983047Y-101001333D01*
X170030666Y-101048952D01*
X168697333Y-100953714D02*
X168697333Y-101620380D01*
X169125904Y-100953714D02*
X169125904Y-101477523D01*
X169078285Y-101572761D01*
X168983047Y-101620380D01*
X168840190Y-101620380D01*
X168744952Y-101572761D01*
X168697333Y-101525142D01*
X168221142Y-101620380D02*
X168221142Y-100620380D01*
X168221142Y-101001333D02*
X168125904Y-100953714D01*
X167935428Y-100953714D01*
X167840190Y-101001333D01*
X167792571Y-101048952D01*
X167744952Y-101144190D01*
X167744952Y-101429904D01*
X167792571Y-101525142D01*
X167840190Y-101572761D01*
X167935428Y-101620380D01*
X168125904Y-101620380D01*
X168221142Y-101572761D01*
X167316380Y-101525142D02*
X167268761Y-101572761D01*
X167316380Y-101620380D01*
X167364000Y-101572761D01*
X167316380Y-101525142D01*
X167316380Y-101620380D01*
X166411619Y-101572761D02*
X166506857Y-101620380D01*
X166697333Y-101620380D01*
X166792571Y-101572761D01*
X166840190Y-101525142D01*
X166887809Y-101429904D01*
X166887809Y-101144190D01*
X166840190Y-101048952D01*
X166792571Y-101001333D01*
X166697333Y-100953714D01*
X166506857Y-100953714D01*
X166411619Y-101001333D01*
X165840190Y-101620380D02*
X165935428Y-101572761D01*
X165983047Y-101525142D01*
X166030666Y-101429904D01*
X166030666Y-101144190D01*
X165983047Y-101048952D01*
X165935428Y-101001333D01*
X165840190Y-100953714D01*
X165697333Y-100953714D01*
X165602095Y-101001333D01*
X165554476Y-101048952D01*
X165506857Y-101144190D01*
X165506857Y-101429904D01*
X165554476Y-101525142D01*
X165602095Y-101572761D01*
X165697333Y-101620380D01*
X165840190Y-101620380D01*
X165078285Y-101620380D02*
X165078285Y-100953714D01*
X165078285Y-101048952D02*
X165030666Y-101001333D01*
X164935428Y-100953714D01*
X164792571Y-100953714D01*
X164697333Y-101001333D01*
X164649714Y-101096571D01*
X164649714Y-101620380D01*
X164649714Y-101096571D02*
X164602095Y-101001333D01*
X164506857Y-100953714D01*
X164364000Y-100953714D01*
X164268761Y-101001333D01*
X164221142Y-101096571D01*
X164221142Y-101620380D01*
X163030666Y-100572761D02*
X163887809Y-101858476D01*
X162697333Y-101620380D02*
X162697333Y-100620380D01*
X162697333Y-101001333D02*
X162602095Y-100953714D01*
X162411619Y-100953714D01*
X162316380Y-101001333D01*
X162268761Y-101048952D01*
X162221142Y-101144190D01*
X162221142Y-101429904D01*
X162268761Y-101525142D01*
X162316380Y-101572761D01*
X162411619Y-101620380D01*
X162602095Y-101620380D01*
X162697333Y-101572761D01*
X161364000Y-101620380D02*
X161364000Y-101096571D01*
X161411619Y-101001333D01*
X161506857Y-100953714D01*
X161697333Y-100953714D01*
X161792571Y-101001333D01*
X161364000Y-101572761D02*
X161459238Y-101620380D01*
X161697333Y-101620380D01*
X161792571Y-101572761D01*
X161840190Y-101477523D01*
X161840190Y-101382285D01*
X161792571Y-101287047D01*
X161697333Y-101239428D01*
X161459238Y-101239428D01*
X161364000Y-101191809D01*
X160744952Y-101620380D02*
X160840190Y-101572761D01*
X160887809Y-101477523D01*
X160887809Y-100620380D01*
X159935428Y-101620380D02*
X159935428Y-101096571D01*
X159983047Y-101001333D01*
X160078285Y-100953714D01*
X160268761Y-100953714D01*
X160364000Y-101001333D01*
X159935428Y-101572761D02*
X160030666Y-101620380D01*
X160268761Y-101620380D01*
X160364000Y-101572761D01*
X160411619Y-101477523D01*
X160411619Y-101382285D01*
X160364000Y-101287047D01*
X160268761Y-101239428D01*
X160030666Y-101239428D01*
X159935428Y-101191809D01*
X159459238Y-100953714D02*
X159459238Y-101620380D01*
X159459238Y-101048952D02*
X159411619Y-101001333D01*
X159316380Y-100953714D01*
X159173523Y-100953714D01*
X159078285Y-101001333D01*
X159030666Y-101096571D01*
X159030666Y-101620380D01*
X158125904Y-101572761D02*
X158221142Y-101620380D01*
X158411619Y-101620380D01*
X158506857Y-101572761D01*
X158554476Y-101525142D01*
X158602095Y-101429904D01*
X158602095Y-101144190D01*
X158554476Y-101048952D01*
X158506857Y-101001333D01*
X158411619Y-100953714D01*
X158221142Y-100953714D01*
X158125904Y-101001333D01*
X157316380Y-101572761D02*
X157411619Y-101620380D01*
X157602095Y-101620380D01*
X157697333Y-101572761D01*
X157744952Y-101477523D01*
X157744952Y-101096571D01*
X157697333Y-101001333D01*
X157602095Y-100953714D01*
X157411619Y-100953714D01*
X157316380Y-101001333D01*
X157268761Y-101096571D01*
X157268761Y-101191809D01*
X157744952Y-101287047D01*
X156983047Y-100620380D02*
X156411619Y-100620380D01*
X156697333Y-101620380D02*
X156697333Y-100620380D01*
X156173523Y-100620380D02*
X155935428Y-101620380D01*
X155744952Y-100906095D01*
X155554476Y-101620380D01*
X155316380Y-100620380D01*
X154935428Y-101620380D02*
X154935428Y-100620380D01*
X154364000Y-101620380D02*
X154792571Y-101048952D01*
X154364000Y-100620380D02*
X154935428Y-101191809D01*
D11*
X159259000Y-95798000D02*
X159259000Y-95333000D01*
X159259000Y-98423000D02*
X159259000Y-97958000D01*
X164073479Y-95797571D02*
G75*
G03X159564316Y-95798000I-2254479J-1080429D01*
G01*
X164073479Y-97958429D02*
G75*
G02X159564316Y-97958000I-2254479J1080429D01*
G01*
X164606815Y-95797173D02*
G75*
G03X159259000Y-95333170I-2787815J-1080827D01*
G01*
X164606815Y-97958827D02*
G75*
G02X159259000Y-98422830I-2787815J1080827D01*
G01*
M02*
