G04 #@! TF.GenerationSoftware,KiCad,Pcbnew,5.1.5-52549c5~84~ubuntu18.04.1*
G04 #@! TF.CreationDate,2019-11-30T22:40:06+08:00*
G04 #@! TF.ProjectId,dap-stm32f103,6461702d-7374-46d3-9332-663130332e6b,rev?*
G04 #@! TF.SameCoordinates,Original*
G04 #@! TF.FileFunction,Soldermask,Top*
G04 #@! TF.FilePolarity,Negative*
%FSLAX46Y46*%
G04 Gerber Fmt 4.6, Leading zero omitted, Abs format (unit mm)*
G04 Created by KiCad (PCBNEW 5.1.5-52549c5~84~ubuntu18.04.1) date 2019-11-30 22:40:06*
%MOMM*%
%LPD*%
G04 APERTURE LIST*
%ADD10C,0.100000*%
G04 APERTURE END LIST*
D10*
G36*
X170760000Y-108374000D02*
G01*
X170008000Y-108374000D01*
X170008000Y-106822000D01*
X170760000Y-106822000D01*
X170760000Y-108374000D01*
G37*
G36*
X169360000Y-108374000D02*
G01*
X168608000Y-108374000D01*
X168608000Y-106822000D01*
X169360000Y-106822000D01*
X169360000Y-108374000D01*
G37*
G36*
X175915000Y-108119000D02*
G01*
X173913000Y-108119000D01*
X173913000Y-105617000D01*
X175915000Y-105617000D01*
X175915000Y-108119000D01*
G37*
G36*
X180015000Y-108119000D02*
G01*
X178013000Y-108119000D01*
X178013000Y-105617000D01*
X180015000Y-105617000D01*
X180015000Y-108119000D01*
G37*
G36*
X158997512Y-106311927D02*
G01*
X159146812Y-106341624D01*
X159310784Y-106409544D01*
X159458354Y-106508147D01*
X159583853Y-106633646D01*
X159682456Y-106781216D01*
X159750376Y-106945188D01*
X159785000Y-107119259D01*
X159785000Y-107296741D01*
X159750376Y-107470812D01*
X159682456Y-107634784D01*
X159583853Y-107782354D01*
X159458354Y-107907853D01*
X159310784Y-108006456D01*
X159146812Y-108074376D01*
X158997512Y-108104073D01*
X158972742Y-108109000D01*
X158795258Y-108109000D01*
X158770488Y-108104073D01*
X158621188Y-108074376D01*
X158457216Y-108006456D01*
X158309646Y-107907853D01*
X158184147Y-107782354D01*
X158085544Y-107634784D01*
X158017624Y-107470812D01*
X157983000Y-107296741D01*
X157983000Y-107119259D01*
X158017624Y-106945188D01*
X158085544Y-106781216D01*
X158184147Y-106633646D01*
X158309646Y-106508147D01*
X158457216Y-106409544D01*
X158621188Y-106341624D01*
X158770488Y-106311927D01*
X158795258Y-106307000D01*
X158972742Y-106307000D01*
X158997512Y-106311927D01*
G37*
G36*
X166617512Y-106311927D02*
G01*
X166766812Y-106341624D01*
X166930784Y-106409544D01*
X167078354Y-106508147D01*
X167203853Y-106633646D01*
X167302456Y-106781216D01*
X167370376Y-106945188D01*
X167405000Y-107119259D01*
X167405000Y-107296741D01*
X167370376Y-107470812D01*
X167302456Y-107634784D01*
X167203853Y-107782354D01*
X167078354Y-107907853D01*
X166930784Y-108006456D01*
X166766812Y-108074376D01*
X166617512Y-108104073D01*
X166592742Y-108109000D01*
X166415258Y-108109000D01*
X166390488Y-108104073D01*
X166241188Y-108074376D01*
X166077216Y-108006456D01*
X165929646Y-107907853D01*
X165804147Y-107782354D01*
X165705544Y-107634784D01*
X165637624Y-107470812D01*
X165603000Y-107296741D01*
X165603000Y-107119259D01*
X165637624Y-106945188D01*
X165705544Y-106781216D01*
X165804147Y-106633646D01*
X165929646Y-106508147D01*
X166077216Y-106409544D01*
X166241188Y-106341624D01*
X166390488Y-106311927D01*
X166415258Y-106307000D01*
X166592742Y-106307000D01*
X166617512Y-106311927D01*
G37*
G36*
X154705000Y-108109000D02*
G01*
X152903000Y-108109000D01*
X152903000Y-106307000D01*
X154705000Y-106307000D01*
X154705000Y-108109000D01*
G37*
G36*
X156457512Y-106311927D02*
G01*
X156606812Y-106341624D01*
X156770784Y-106409544D01*
X156918354Y-106508147D01*
X157043853Y-106633646D01*
X157142456Y-106781216D01*
X157210376Y-106945188D01*
X157245000Y-107119259D01*
X157245000Y-107296741D01*
X157210376Y-107470812D01*
X157142456Y-107634784D01*
X157043853Y-107782354D01*
X156918354Y-107907853D01*
X156770784Y-108006456D01*
X156606812Y-108074376D01*
X156457512Y-108104073D01*
X156432742Y-108109000D01*
X156255258Y-108109000D01*
X156230488Y-108104073D01*
X156081188Y-108074376D01*
X155917216Y-108006456D01*
X155769646Y-107907853D01*
X155644147Y-107782354D01*
X155545544Y-107634784D01*
X155477624Y-107470812D01*
X155443000Y-107296741D01*
X155443000Y-107119259D01*
X155477624Y-106945188D01*
X155545544Y-106781216D01*
X155644147Y-106633646D01*
X155769646Y-106508147D01*
X155917216Y-106409544D01*
X156081188Y-106341624D01*
X156230488Y-106311927D01*
X156255258Y-106307000D01*
X156432742Y-106307000D01*
X156457512Y-106311927D01*
G37*
G36*
X161537512Y-106311927D02*
G01*
X161686812Y-106341624D01*
X161850784Y-106409544D01*
X161998354Y-106508147D01*
X162123853Y-106633646D01*
X162222456Y-106781216D01*
X162290376Y-106945188D01*
X162325000Y-107119259D01*
X162325000Y-107296741D01*
X162290376Y-107470812D01*
X162222456Y-107634784D01*
X162123853Y-107782354D01*
X161998354Y-107907853D01*
X161850784Y-108006456D01*
X161686812Y-108074376D01*
X161537512Y-108104073D01*
X161512742Y-108109000D01*
X161335258Y-108109000D01*
X161310488Y-108104073D01*
X161161188Y-108074376D01*
X160997216Y-108006456D01*
X160849646Y-107907853D01*
X160724147Y-107782354D01*
X160625544Y-107634784D01*
X160557624Y-107470812D01*
X160523000Y-107296741D01*
X160523000Y-107119259D01*
X160557624Y-106945188D01*
X160625544Y-106781216D01*
X160724147Y-106633646D01*
X160849646Y-106508147D01*
X160997216Y-106409544D01*
X161161188Y-106341624D01*
X161310488Y-106311927D01*
X161335258Y-106307000D01*
X161512742Y-106307000D01*
X161537512Y-106311927D01*
G37*
G36*
X164077512Y-106311927D02*
G01*
X164226812Y-106341624D01*
X164390784Y-106409544D01*
X164538354Y-106508147D01*
X164663853Y-106633646D01*
X164762456Y-106781216D01*
X164830376Y-106945188D01*
X164865000Y-107119259D01*
X164865000Y-107296741D01*
X164830376Y-107470812D01*
X164762456Y-107634784D01*
X164663853Y-107782354D01*
X164538354Y-107907853D01*
X164390784Y-108006456D01*
X164226812Y-108074376D01*
X164077512Y-108104073D01*
X164052742Y-108109000D01*
X163875258Y-108109000D01*
X163850488Y-108104073D01*
X163701188Y-108074376D01*
X163537216Y-108006456D01*
X163389646Y-107907853D01*
X163264147Y-107782354D01*
X163165544Y-107634784D01*
X163097624Y-107470812D01*
X163063000Y-107296741D01*
X163063000Y-107119259D01*
X163097624Y-106945188D01*
X163165544Y-106781216D01*
X163264147Y-106633646D01*
X163389646Y-106508147D01*
X163537216Y-106409544D01*
X163701188Y-106341624D01*
X163850488Y-106311927D01*
X163875258Y-106307000D01*
X164052742Y-106307000D01*
X164077512Y-106311927D01*
G37*
G36*
X173040000Y-107744000D02*
G01*
X171488000Y-107744000D01*
X171488000Y-106992000D01*
X173040000Y-106992000D01*
X173040000Y-107744000D01*
G37*
G36*
X182440000Y-107744000D02*
G01*
X180888000Y-107744000D01*
X180888000Y-106992000D01*
X182440000Y-106992000D01*
X182440000Y-107744000D01*
G37*
G36*
X175443746Y-100524169D02*
G01*
X175450761Y-100526297D01*
X175457227Y-100529754D01*
X175467661Y-100538316D01*
X176520348Y-101591003D01*
X176528910Y-101601437D01*
X176532367Y-101607903D01*
X176534495Y-101614918D01*
X176535213Y-101622213D01*
X176534495Y-101629508D01*
X176532367Y-101636523D01*
X176528910Y-101642989D01*
X176520348Y-101653423D01*
X176298511Y-101875260D01*
X176288077Y-101883822D01*
X176281610Y-101887279D01*
X176266674Y-101891810D01*
X176244035Y-101901187D01*
X176223661Y-101914801D01*
X176206334Y-101932128D01*
X176192720Y-101952503D01*
X176183344Y-101975140D01*
X176178813Y-101990076D01*
X176175356Y-101996543D01*
X176166794Y-102006977D01*
X175944957Y-102228814D01*
X175934523Y-102237376D01*
X175928057Y-102240833D01*
X175913120Y-102245364D01*
X175890481Y-102254742D01*
X175870107Y-102268356D01*
X175852780Y-102285683D01*
X175839167Y-102306058D01*
X175829791Y-102328693D01*
X175825260Y-102343630D01*
X175821803Y-102350096D01*
X175813241Y-102360530D01*
X175591404Y-102582367D01*
X175580970Y-102590929D01*
X175574503Y-102594386D01*
X175559567Y-102598917D01*
X175536928Y-102608294D01*
X175516554Y-102621908D01*
X175499227Y-102639235D01*
X175485613Y-102659610D01*
X175476237Y-102682247D01*
X175471706Y-102697183D01*
X175468249Y-102703650D01*
X175459687Y-102714084D01*
X175237850Y-102935921D01*
X175227416Y-102944483D01*
X175220950Y-102947940D01*
X175206013Y-102952471D01*
X175183374Y-102961849D01*
X175163000Y-102975463D01*
X175145673Y-102992790D01*
X175132060Y-103013165D01*
X175122684Y-103035800D01*
X175118153Y-103050737D01*
X175114696Y-103057203D01*
X175106134Y-103067637D01*
X174884297Y-103289474D01*
X174873863Y-103298036D01*
X174867397Y-103301493D01*
X174852460Y-103306024D01*
X174829821Y-103315402D01*
X174809447Y-103329016D01*
X174792120Y-103346343D01*
X174778507Y-103366718D01*
X174769131Y-103389353D01*
X174764600Y-103404290D01*
X174761143Y-103410756D01*
X174752581Y-103421190D01*
X174530744Y-103643027D01*
X174520310Y-103651589D01*
X174513843Y-103655046D01*
X174498907Y-103659577D01*
X174476268Y-103668954D01*
X174455894Y-103682568D01*
X174438567Y-103699895D01*
X174424953Y-103720270D01*
X174415577Y-103742907D01*
X174411046Y-103757843D01*
X174407589Y-103764310D01*
X174399027Y-103774744D01*
X174177190Y-103996581D01*
X174166756Y-104005143D01*
X174160290Y-104008600D01*
X174145353Y-104013131D01*
X174122714Y-104022509D01*
X174102340Y-104036123D01*
X174085013Y-104053450D01*
X174071400Y-104073825D01*
X174062024Y-104096460D01*
X174057493Y-104111397D01*
X174054036Y-104117863D01*
X174045474Y-104128297D01*
X173823637Y-104350134D01*
X173813203Y-104358696D01*
X173806737Y-104362153D01*
X173791800Y-104366684D01*
X173769161Y-104376062D01*
X173748787Y-104389676D01*
X173731460Y-104407003D01*
X173717847Y-104427378D01*
X173708471Y-104450013D01*
X173703940Y-104464950D01*
X173700483Y-104471416D01*
X173691921Y-104481850D01*
X173470084Y-104703687D01*
X173459650Y-104712249D01*
X173453183Y-104715706D01*
X173438247Y-104720237D01*
X173415608Y-104729614D01*
X173395234Y-104743228D01*
X173377907Y-104760555D01*
X173364293Y-104780930D01*
X173354917Y-104803567D01*
X173350386Y-104818503D01*
X173346929Y-104824970D01*
X173338367Y-104835404D01*
X173116530Y-105057241D01*
X173106096Y-105065803D01*
X173099630Y-105069260D01*
X173084693Y-105073791D01*
X173062054Y-105083169D01*
X173041680Y-105096783D01*
X173024353Y-105114110D01*
X173010740Y-105134485D01*
X173001364Y-105157120D01*
X172996833Y-105172057D01*
X172993376Y-105178523D01*
X172984814Y-105188957D01*
X172762977Y-105410794D01*
X172752543Y-105419356D01*
X172746076Y-105422813D01*
X172731140Y-105427344D01*
X172708501Y-105436721D01*
X172688127Y-105450335D01*
X172670800Y-105467662D01*
X172657186Y-105488037D01*
X172647810Y-105510674D01*
X172643279Y-105525610D01*
X172639822Y-105532077D01*
X172631260Y-105542511D01*
X172409423Y-105764348D01*
X172398989Y-105772910D01*
X172392523Y-105776367D01*
X172385508Y-105778495D01*
X172378213Y-105779213D01*
X172370918Y-105778495D01*
X172363903Y-105776367D01*
X172357437Y-105772910D01*
X172347003Y-105764348D01*
X171294316Y-104711661D01*
X171285754Y-104701227D01*
X171282297Y-104694761D01*
X171280169Y-104687746D01*
X171279451Y-104680451D01*
X171280169Y-104673156D01*
X171282297Y-104666141D01*
X171285754Y-104659675D01*
X171294316Y-104649241D01*
X171516153Y-104427404D01*
X171526587Y-104418842D01*
X171533054Y-104415385D01*
X171547990Y-104410854D01*
X171570629Y-104401477D01*
X171591003Y-104387863D01*
X171608330Y-104370536D01*
X171621944Y-104350161D01*
X171631320Y-104327524D01*
X171635851Y-104312588D01*
X171639308Y-104306121D01*
X171647870Y-104295687D01*
X171869707Y-104073850D01*
X171880141Y-104065288D01*
X171886607Y-104061831D01*
X171901544Y-104057300D01*
X171924183Y-104047922D01*
X171944557Y-104034308D01*
X171961884Y-104016981D01*
X171975497Y-103996606D01*
X171984873Y-103973971D01*
X171989404Y-103959034D01*
X171992861Y-103952568D01*
X172001423Y-103942134D01*
X172223260Y-103720297D01*
X172233694Y-103711735D01*
X172240161Y-103708278D01*
X172255097Y-103703747D01*
X172277736Y-103694370D01*
X172298110Y-103680756D01*
X172315437Y-103663429D01*
X172329051Y-103643054D01*
X172338427Y-103620417D01*
X172342958Y-103605481D01*
X172346415Y-103599014D01*
X172354977Y-103588580D01*
X172576814Y-103366743D01*
X172587248Y-103358181D01*
X172593714Y-103354724D01*
X172608651Y-103350193D01*
X172631290Y-103340815D01*
X172651664Y-103327201D01*
X172668991Y-103309874D01*
X172682604Y-103289499D01*
X172691980Y-103266864D01*
X172696511Y-103251927D01*
X172699968Y-103245461D01*
X172708530Y-103235027D01*
X172930367Y-103013190D01*
X172940801Y-103004628D01*
X172947267Y-103001171D01*
X172962204Y-102996640D01*
X172984843Y-102987262D01*
X173005217Y-102973648D01*
X173022544Y-102956321D01*
X173036157Y-102935946D01*
X173045533Y-102913311D01*
X173050064Y-102898374D01*
X173053521Y-102891908D01*
X173062083Y-102881474D01*
X173283920Y-102659637D01*
X173294354Y-102651075D01*
X173300821Y-102647618D01*
X173315757Y-102643087D01*
X173338396Y-102633710D01*
X173358770Y-102620096D01*
X173376097Y-102602769D01*
X173389711Y-102582394D01*
X173399087Y-102559757D01*
X173403618Y-102544821D01*
X173407075Y-102538354D01*
X173415637Y-102527920D01*
X173637474Y-102306083D01*
X173647908Y-102297521D01*
X173654374Y-102294064D01*
X173669311Y-102289533D01*
X173691950Y-102280155D01*
X173712324Y-102266541D01*
X173729651Y-102249214D01*
X173743264Y-102228839D01*
X173752640Y-102206204D01*
X173757171Y-102191267D01*
X173760628Y-102184801D01*
X173769190Y-102174367D01*
X173991027Y-101952530D01*
X174001461Y-101943968D01*
X174007927Y-101940511D01*
X174022864Y-101935980D01*
X174045503Y-101926602D01*
X174065877Y-101912988D01*
X174083204Y-101895661D01*
X174096817Y-101875286D01*
X174106193Y-101852651D01*
X174110724Y-101837714D01*
X174114181Y-101831248D01*
X174122743Y-101820814D01*
X174344580Y-101598977D01*
X174355014Y-101590415D01*
X174361481Y-101586958D01*
X174376417Y-101582427D01*
X174399056Y-101573050D01*
X174419430Y-101559436D01*
X174436757Y-101542109D01*
X174450371Y-101521734D01*
X174459747Y-101499097D01*
X174464278Y-101484161D01*
X174467735Y-101477694D01*
X174476297Y-101467260D01*
X174698134Y-101245423D01*
X174708568Y-101236861D01*
X174715034Y-101233404D01*
X174729971Y-101228873D01*
X174752610Y-101219495D01*
X174772984Y-101205881D01*
X174790311Y-101188554D01*
X174803924Y-101168179D01*
X174813300Y-101145544D01*
X174817831Y-101130607D01*
X174821288Y-101124141D01*
X174829850Y-101113707D01*
X175051687Y-100891870D01*
X175062121Y-100883308D01*
X175068588Y-100879851D01*
X175083524Y-100875320D01*
X175106163Y-100865943D01*
X175126537Y-100852329D01*
X175143864Y-100835002D01*
X175157478Y-100814627D01*
X175166854Y-100791990D01*
X175171385Y-100777054D01*
X175174842Y-100770587D01*
X175183404Y-100760153D01*
X175405241Y-100538316D01*
X175415675Y-100529754D01*
X175422141Y-100526297D01*
X175429156Y-100524169D01*
X175436451Y-100523451D01*
X175443746Y-100524169D01*
G37*
G36*
X166498844Y-100524169D02*
G01*
X166505859Y-100526297D01*
X166512325Y-100529754D01*
X166522759Y-100538316D01*
X166744596Y-100760153D01*
X166753158Y-100770587D01*
X166756615Y-100777054D01*
X166761146Y-100791990D01*
X166770523Y-100814629D01*
X166784137Y-100835003D01*
X166801464Y-100852330D01*
X166821839Y-100865944D01*
X166844476Y-100875320D01*
X166859412Y-100879851D01*
X166865879Y-100883308D01*
X166876313Y-100891870D01*
X167098150Y-101113707D01*
X167106712Y-101124141D01*
X167110169Y-101130607D01*
X167114700Y-101145544D01*
X167124078Y-101168183D01*
X167137692Y-101188557D01*
X167155019Y-101205884D01*
X167175394Y-101219497D01*
X167198029Y-101228873D01*
X167212966Y-101233404D01*
X167219432Y-101236861D01*
X167229866Y-101245423D01*
X167451703Y-101467260D01*
X167460265Y-101477694D01*
X167463722Y-101484161D01*
X167468253Y-101499097D01*
X167477630Y-101521736D01*
X167491244Y-101542110D01*
X167508571Y-101559437D01*
X167528946Y-101573051D01*
X167551583Y-101582427D01*
X167566519Y-101586958D01*
X167572986Y-101590415D01*
X167583420Y-101598977D01*
X167805257Y-101820814D01*
X167813819Y-101831248D01*
X167817276Y-101837714D01*
X167821807Y-101852651D01*
X167831185Y-101875290D01*
X167844799Y-101895664D01*
X167862126Y-101912991D01*
X167882501Y-101926604D01*
X167905136Y-101935980D01*
X167920073Y-101940511D01*
X167926539Y-101943968D01*
X167936973Y-101952530D01*
X168158810Y-102174367D01*
X168167372Y-102184801D01*
X168170829Y-102191267D01*
X168175360Y-102206204D01*
X168184738Y-102228843D01*
X168198352Y-102249217D01*
X168215679Y-102266544D01*
X168236054Y-102280157D01*
X168258689Y-102289533D01*
X168273626Y-102294064D01*
X168280092Y-102297521D01*
X168290526Y-102306083D01*
X168512363Y-102527920D01*
X168520925Y-102538354D01*
X168524382Y-102544821D01*
X168528913Y-102559757D01*
X168538290Y-102582396D01*
X168551904Y-102602770D01*
X168569231Y-102620097D01*
X168589606Y-102633711D01*
X168612243Y-102643087D01*
X168627179Y-102647618D01*
X168633646Y-102651075D01*
X168644080Y-102659637D01*
X168865917Y-102881474D01*
X168874479Y-102891908D01*
X168877936Y-102898374D01*
X168882467Y-102913311D01*
X168891845Y-102935950D01*
X168905459Y-102956324D01*
X168922786Y-102973651D01*
X168943161Y-102987264D01*
X168965796Y-102996640D01*
X168980733Y-103001171D01*
X168987199Y-103004628D01*
X168997633Y-103013190D01*
X169219470Y-103235027D01*
X169228032Y-103245461D01*
X169231489Y-103251927D01*
X169236020Y-103266864D01*
X169245398Y-103289503D01*
X169259012Y-103309877D01*
X169276339Y-103327204D01*
X169296714Y-103340817D01*
X169319349Y-103350193D01*
X169334286Y-103354724D01*
X169340752Y-103358181D01*
X169351186Y-103366743D01*
X169573023Y-103588580D01*
X169581585Y-103599014D01*
X169585042Y-103605481D01*
X169589573Y-103620417D01*
X169598950Y-103643056D01*
X169612564Y-103663430D01*
X169629891Y-103680757D01*
X169650266Y-103694371D01*
X169672903Y-103703747D01*
X169687839Y-103708278D01*
X169694306Y-103711735D01*
X169704740Y-103720297D01*
X169926577Y-103942134D01*
X169935139Y-103952568D01*
X169938596Y-103959034D01*
X169943127Y-103973971D01*
X169952505Y-103996610D01*
X169966119Y-104016984D01*
X169983446Y-104034311D01*
X170003821Y-104047924D01*
X170026456Y-104057300D01*
X170041393Y-104061831D01*
X170047859Y-104065288D01*
X170058293Y-104073850D01*
X170280130Y-104295687D01*
X170288692Y-104306121D01*
X170292149Y-104312588D01*
X170296680Y-104327524D01*
X170306057Y-104350163D01*
X170319671Y-104370537D01*
X170336998Y-104387864D01*
X170357373Y-104401478D01*
X170380010Y-104410854D01*
X170394946Y-104415385D01*
X170401413Y-104418842D01*
X170411847Y-104427404D01*
X170633684Y-104649241D01*
X170642246Y-104659675D01*
X170645703Y-104666141D01*
X170647831Y-104673156D01*
X170648549Y-104680451D01*
X170647831Y-104687746D01*
X170645703Y-104694761D01*
X170642246Y-104701227D01*
X170633684Y-104711661D01*
X169580997Y-105764348D01*
X169570563Y-105772910D01*
X169564097Y-105776367D01*
X169557082Y-105778495D01*
X169549787Y-105779213D01*
X169542492Y-105778495D01*
X169535477Y-105776367D01*
X169529011Y-105772910D01*
X169518577Y-105764348D01*
X169296740Y-105542511D01*
X169288178Y-105532077D01*
X169284721Y-105525610D01*
X169280190Y-105510674D01*
X169270813Y-105488035D01*
X169257199Y-105467661D01*
X169239872Y-105450334D01*
X169219497Y-105436720D01*
X169196860Y-105427344D01*
X169181924Y-105422813D01*
X169175457Y-105419356D01*
X169165023Y-105410794D01*
X168943186Y-105188957D01*
X168934624Y-105178523D01*
X168931167Y-105172057D01*
X168926636Y-105157120D01*
X168917258Y-105134481D01*
X168903644Y-105114107D01*
X168886317Y-105096780D01*
X168865942Y-105083167D01*
X168843307Y-105073791D01*
X168828370Y-105069260D01*
X168821904Y-105065803D01*
X168811470Y-105057241D01*
X168589633Y-104835404D01*
X168581071Y-104824970D01*
X168577614Y-104818503D01*
X168573083Y-104803567D01*
X168563706Y-104780928D01*
X168550092Y-104760554D01*
X168532765Y-104743227D01*
X168512390Y-104729613D01*
X168489753Y-104720237D01*
X168474817Y-104715706D01*
X168468350Y-104712249D01*
X168457916Y-104703687D01*
X168236079Y-104481850D01*
X168227517Y-104471416D01*
X168224060Y-104464950D01*
X168219529Y-104450013D01*
X168210151Y-104427374D01*
X168196537Y-104407000D01*
X168179210Y-104389673D01*
X168158835Y-104376060D01*
X168136200Y-104366684D01*
X168121263Y-104362153D01*
X168114797Y-104358696D01*
X168104363Y-104350134D01*
X167882526Y-104128297D01*
X167873964Y-104117863D01*
X167870507Y-104111397D01*
X167865976Y-104096460D01*
X167856598Y-104073821D01*
X167842984Y-104053447D01*
X167825657Y-104036120D01*
X167805282Y-104022507D01*
X167782647Y-104013131D01*
X167767710Y-104008600D01*
X167761244Y-104005143D01*
X167750810Y-103996581D01*
X167528973Y-103774744D01*
X167520411Y-103764310D01*
X167516954Y-103757843D01*
X167512423Y-103742907D01*
X167503046Y-103720268D01*
X167489432Y-103699894D01*
X167472105Y-103682567D01*
X167451730Y-103668953D01*
X167429093Y-103659577D01*
X167414157Y-103655046D01*
X167407690Y-103651589D01*
X167397256Y-103643027D01*
X167175419Y-103421190D01*
X167166857Y-103410756D01*
X167163400Y-103404290D01*
X167158869Y-103389353D01*
X167149491Y-103366714D01*
X167135877Y-103346340D01*
X167118550Y-103329013D01*
X167098175Y-103315400D01*
X167075540Y-103306024D01*
X167060603Y-103301493D01*
X167054137Y-103298036D01*
X167043703Y-103289474D01*
X166821866Y-103067637D01*
X166813304Y-103057203D01*
X166809847Y-103050737D01*
X166805316Y-103035800D01*
X166795938Y-103013161D01*
X166782324Y-102992787D01*
X166764997Y-102975460D01*
X166744622Y-102961847D01*
X166721987Y-102952471D01*
X166707050Y-102947940D01*
X166700584Y-102944483D01*
X166690150Y-102935921D01*
X166468313Y-102714084D01*
X166459751Y-102703650D01*
X166456294Y-102697183D01*
X166451763Y-102682247D01*
X166442386Y-102659608D01*
X166428772Y-102639234D01*
X166411445Y-102621907D01*
X166391070Y-102608293D01*
X166368433Y-102598917D01*
X166353497Y-102594386D01*
X166347030Y-102590929D01*
X166336596Y-102582367D01*
X166114759Y-102360530D01*
X166106197Y-102350096D01*
X166102740Y-102343630D01*
X166098209Y-102328693D01*
X166088831Y-102306054D01*
X166075217Y-102285680D01*
X166057890Y-102268353D01*
X166037515Y-102254740D01*
X166014880Y-102245364D01*
X165999943Y-102240833D01*
X165993477Y-102237376D01*
X165983043Y-102228814D01*
X165761206Y-102006977D01*
X165752644Y-101996543D01*
X165749187Y-101990076D01*
X165744656Y-101975140D01*
X165735279Y-101952501D01*
X165721665Y-101932127D01*
X165704338Y-101914800D01*
X165683963Y-101901186D01*
X165661326Y-101891810D01*
X165646390Y-101887279D01*
X165639923Y-101883822D01*
X165629489Y-101875260D01*
X165407652Y-101653423D01*
X165399090Y-101642989D01*
X165395633Y-101636523D01*
X165393505Y-101629508D01*
X165392787Y-101622213D01*
X165393505Y-101614918D01*
X165395633Y-101607903D01*
X165399090Y-101601437D01*
X165407652Y-101591003D01*
X166460339Y-100538316D01*
X166470773Y-100529754D01*
X166477239Y-100526297D01*
X166484254Y-100524169D01*
X166491549Y-100523451D01*
X166498844Y-100524169D01*
G37*
G36*
X156643335Y-104373934D02*
G01*
X156682610Y-104377802D01*
X156721742Y-104389673D01*
X156758199Y-104400732D01*
X156827862Y-104437968D01*
X156888922Y-104488078D01*
X156939032Y-104549138D01*
X156976268Y-104618801D01*
X156983911Y-104643998D01*
X156999198Y-104694390D01*
X157006940Y-104773000D01*
X156999198Y-104851610D01*
X156996644Y-104860029D01*
X156976268Y-104927199D01*
X156939032Y-104996862D01*
X156888922Y-105057922D01*
X156827862Y-105108032D01*
X156758199Y-105145268D01*
X156733002Y-105152911D01*
X156682610Y-105168198D01*
X156643427Y-105172057D01*
X156623699Y-105174000D01*
X155084301Y-105174000D01*
X155064573Y-105172057D01*
X155025390Y-105168198D01*
X154974998Y-105152911D01*
X154949801Y-105145268D01*
X154880138Y-105108032D01*
X154819078Y-105057922D01*
X154768968Y-104996862D01*
X154731732Y-104927199D01*
X154711356Y-104860029D01*
X154708802Y-104851610D01*
X154701060Y-104773000D01*
X154708802Y-104694390D01*
X154724089Y-104643998D01*
X154731732Y-104618801D01*
X154768968Y-104549138D01*
X154819078Y-104488078D01*
X154880138Y-104437968D01*
X154949801Y-104400732D01*
X154986258Y-104389673D01*
X155025390Y-104377802D01*
X155064665Y-104373934D01*
X155084301Y-104372000D01*
X156623699Y-104372000D01*
X156643335Y-104373934D01*
G37*
G36*
X163443335Y-104373934D02*
G01*
X163482610Y-104377802D01*
X163521742Y-104389673D01*
X163558199Y-104400732D01*
X163627862Y-104437968D01*
X163688922Y-104488078D01*
X163739032Y-104549138D01*
X163776268Y-104618801D01*
X163783911Y-104643998D01*
X163799198Y-104694390D01*
X163806940Y-104773000D01*
X163799198Y-104851610D01*
X163796644Y-104860029D01*
X163776268Y-104927199D01*
X163739032Y-104996862D01*
X163688922Y-105057922D01*
X163627862Y-105108032D01*
X163558199Y-105145268D01*
X163533002Y-105152911D01*
X163482610Y-105168198D01*
X163443427Y-105172057D01*
X163423699Y-105174000D01*
X161884301Y-105174000D01*
X161864573Y-105172057D01*
X161825390Y-105168198D01*
X161774998Y-105152911D01*
X161749801Y-105145268D01*
X161680138Y-105108032D01*
X161619078Y-105057922D01*
X161568968Y-104996862D01*
X161531732Y-104927199D01*
X161511356Y-104860029D01*
X161508802Y-104851610D01*
X161501060Y-104773000D01*
X161508802Y-104694390D01*
X161524089Y-104643998D01*
X161531732Y-104618801D01*
X161568968Y-104549138D01*
X161619078Y-104488078D01*
X161680138Y-104437968D01*
X161749801Y-104400732D01*
X161786258Y-104389673D01*
X161825390Y-104377802D01*
X161864665Y-104373934D01*
X161884301Y-104372000D01*
X163423699Y-104372000D01*
X163443335Y-104373934D01*
G37*
G36*
X181756000Y-104434000D02*
G01*
X181004000Y-104434000D01*
X181004000Y-102882000D01*
X181756000Y-102882000D01*
X181756000Y-104434000D01*
G37*
G36*
X184580000Y-104434000D02*
G01*
X183828000Y-104434000D01*
X183828000Y-102882000D01*
X184580000Y-102882000D01*
X184580000Y-104434000D01*
G37*
G36*
X183168000Y-104434000D02*
G01*
X182416000Y-104434000D01*
X182416000Y-102882000D01*
X183168000Y-102882000D01*
X183168000Y-104434000D01*
G37*
G36*
X177420000Y-103964000D02*
G01*
X176668000Y-103964000D01*
X176668000Y-102412000D01*
X177420000Y-102412000D01*
X177420000Y-103964000D01*
G37*
G36*
X180244000Y-103964000D02*
G01*
X179492000Y-103964000D01*
X179492000Y-102412000D01*
X180244000Y-102412000D01*
X180244000Y-103964000D01*
G37*
G36*
X178832000Y-103964000D02*
G01*
X178080000Y-103964000D01*
X178080000Y-102412000D01*
X178832000Y-102412000D01*
X178832000Y-103964000D01*
G37*
G36*
X163443335Y-103103934D02*
G01*
X163482610Y-103107802D01*
X163533002Y-103123089D01*
X163558199Y-103130732D01*
X163627862Y-103167968D01*
X163688922Y-103218078D01*
X163739032Y-103279138D01*
X163776268Y-103348801D01*
X163782812Y-103370373D01*
X163799198Y-103424390D01*
X163806940Y-103503000D01*
X163799198Y-103581610D01*
X163788865Y-103615672D01*
X163776268Y-103657199D01*
X163739032Y-103726862D01*
X163688922Y-103787922D01*
X163627862Y-103838032D01*
X163558199Y-103875268D01*
X163533002Y-103882911D01*
X163482610Y-103898198D01*
X163443335Y-103902066D01*
X163423699Y-103904000D01*
X161884301Y-103904000D01*
X161864665Y-103902066D01*
X161825390Y-103898198D01*
X161774998Y-103882911D01*
X161749801Y-103875268D01*
X161680138Y-103838032D01*
X161619078Y-103787922D01*
X161568968Y-103726862D01*
X161531732Y-103657199D01*
X161519135Y-103615672D01*
X161508802Y-103581610D01*
X161501060Y-103503000D01*
X161508802Y-103424390D01*
X161525188Y-103370373D01*
X161531732Y-103348801D01*
X161568968Y-103279138D01*
X161619078Y-103218078D01*
X161680138Y-103167968D01*
X161749801Y-103130732D01*
X161774998Y-103123089D01*
X161825390Y-103107802D01*
X161864665Y-103103934D01*
X161884301Y-103102000D01*
X163423699Y-103102000D01*
X163443335Y-103103934D01*
G37*
G36*
X156643335Y-103103934D02*
G01*
X156682610Y-103107802D01*
X156733002Y-103123089D01*
X156758199Y-103130732D01*
X156827862Y-103167968D01*
X156888922Y-103218078D01*
X156939032Y-103279138D01*
X156976268Y-103348801D01*
X156982812Y-103370373D01*
X156999198Y-103424390D01*
X157006940Y-103503000D01*
X156999198Y-103581610D01*
X156988865Y-103615672D01*
X156976268Y-103657199D01*
X156939032Y-103726862D01*
X156888922Y-103787922D01*
X156827862Y-103838032D01*
X156758199Y-103875268D01*
X156733002Y-103882911D01*
X156682610Y-103898198D01*
X156643335Y-103902066D01*
X156623699Y-103904000D01*
X155084301Y-103904000D01*
X155064665Y-103902066D01*
X155025390Y-103898198D01*
X154974998Y-103882911D01*
X154949801Y-103875268D01*
X154880138Y-103838032D01*
X154819078Y-103787922D01*
X154768968Y-103726862D01*
X154731732Y-103657199D01*
X154719135Y-103615672D01*
X154708802Y-103581610D01*
X154701060Y-103503000D01*
X154708802Y-103424390D01*
X154725188Y-103370373D01*
X154731732Y-103348801D01*
X154768968Y-103279138D01*
X154819078Y-103218078D01*
X154880138Y-103167968D01*
X154949801Y-103130732D01*
X154974998Y-103123089D01*
X155025390Y-103107802D01*
X155064665Y-103103934D01*
X155084301Y-103102000D01*
X156623699Y-103102000D01*
X156643335Y-103103934D01*
G37*
G36*
X152950000Y-103864000D02*
G01*
X151398000Y-103864000D01*
X151398000Y-103112000D01*
X152950000Y-103112000D01*
X152950000Y-103864000D01*
G37*
G36*
X163443335Y-101833934D02*
G01*
X163482610Y-101837802D01*
X163515914Y-101847905D01*
X163558199Y-101860732D01*
X163627862Y-101897968D01*
X163688922Y-101948078D01*
X163739032Y-102009138D01*
X163776268Y-102078801D01*
X163776268Y-102078802D01*
X163799198Y-102154390D01*
X163806940Y-102233000D01*
X163799198Y-102311610D01*
X163788785Y-102345937D01*
X163776268Y-102387199D01*
X163739032Y-102456862D01*
X163688922Y-102517922D01*
X163627862Y-102568032D01*
X163558199Y-102605268D01*
X163548223Y-102608294D01*
X163482610Y-102628198D01*
X163443335Y-102632066D01*
X163423699Y-102634000D01*
X161884301Y-102634000D01*
X161864665Y-102632066D01*
X161825390Y-102628198D01*
X161759777Y-102608294D01*
X161749801Y-102605268D01*
X161680138Y-102568032D01*
X161619078Y-102517922D01*
X161568968Y-102456862D01*
X161531732Y-102387199D01*
X161519215Y-102345937D01*
X161508802Y-102311610D01*
X161501060Y-102233000D01*
X161508802Y-102154390D01*
X161531732Y-102078802D01*
X161531732Y-102078801D01*
X161568968Y-102009138D01*
X161619078Y-101948078D01*
X161680138Y-101897968D01*
X161749801Y-101860732D01*
X161792086Y-101847905D01*
X161825390Y-101837802D01*
X161864665Y-101833934D01*
X161884301Y-101832000D01*
X163423699Y-101832000D01*
X163443335Y-101833934D01*
G37*
G36*
X156643335Y-101833934D02*
G01*
X156682610Y-101837802D01*
X156715914Y-101847905D01*
X156758199Y-101860732D01*
X156827862Y-101897968D01*
X156888922Y-101948078D01*
X156939032Y-102009138D01*
X156976268Y-102078801D01*
X156976268Y-102078802D01*
X156999198Y-102154390D01*
X157006940Y-102233000D01*
X156999198Y-102311610D01*
X156988785Y-102345937D01*
X156976268Y-102387199D01*
X156939032Y-102456862D01*
X156888922Y-102517922D01*
X156827862Y-102568032D01*
X156758199Y-102605268D01*
X156748223Y-102608294D01*
X156682610Y-102628198D01*
X156643335Y-102632066D01*
X156623699Y-102634000D01*
X155084301Y-102634000D01*
X155064665Y-102632066D01*
X155025390Y-102628198D01*
X154959777Y-102608294D01*
X154949801Y-102605268D01*
X154880138Y-102568032D01*
X154819078Y-102517922D01*
X154768968Y-102456862D01*
X154731732Y-102387199D01*
X154719215Y-102345937D01*
X154708802Y-102311610D01*
X154701060Y-102233000D01*
X154708802Y-102154390D01*
X154731732Y-102078802D01*
X154731732Y-102078801D01*
X154768968Y-102009138D01*
X154819078Y-101948078D01*
X154880138Y-101897968D01*
X154949801Y-101860732D01*
X154992086Y-101847905D01*
X155025390Y-101837802D01*
X155064665Y-101833934D01*
X155084301Y-101832000D01*
X156623699Y-101832000D01*
X156643335Y-101833934D01*
G37*
G36*
X187077512Y-100501927D02*
G01*
X187226812Y-100531624D01*
X187390784Y-100599544D01*
X187538354Y-100698147D01*
X187663853Y-100823646D01*
X187762456Y-100971216D01*
X187830376Y-101135188D01*
X187865000Y-101309259D01*
X187865000Y-101486741D01*
X187830376Y-101660812D01*
X187762456Y-101824784D01*
X187663853Y-101972354D01*
X187538354Y-102097853D01*
X187390784Y-102196456D01*
X187226812Y-102264376D01*
X187077557Y-102294064D01*
X187052742Y-102299000D01*
X186875258Y-102299000D01*
X186850443Y-102294064D01*
X186701188Y-102264376D01*
X186537216Y-102196456D01*
X186389646Y-102097853D01*
X186264147Y-101972354D01*
X186165544Y-101824784D01*
X186097624Y-101660812D01*
X186063000Y-101486741D01*
X186063000Y-101309259D01*
X186097624Y-101135188D01*
X186165544Y-100971216D01*
X186264147Y-100823646D01*
X186389646Y-100698147D01*
X186537216Y-100599544D01*
X186701188Y-100531624D01*
X186850488Y-100501927D01*
X186875258Y-100497000D01*
X187052742Y-100497000D01*
X187077512Y-100501927D01*
G37*
G36*
X189617512Y-100501927D02*
G01*
X189766812Y-100531624D01*
X189930784Y-100599544D01*
X190078354Y-100698147D01*
X190203853Y-100823646D01*
X190302456Y-100971216D01*
X190370376Y-101135188D01*
X190405000Y-101309259D01*
X190405000Y-101486741D01*
X190370376Y-101660812D01*
X190302456Y-101824784D01*
X190203853Y-101972354D01*
X190078354Y-102097853D01*
X189930784Y-102196456D01*
X189766812Y-102264376D01*
X189617557Y-102294064D01*
X189592742Y-102299000D01*
X189415258Y-102299000D01*
X189390443Y-102294064D01*
X189241188Y-102264376D01*
X189077216Y-102196456D01*
X188929646Y-102097853D01*
X188804147Y-101972354D01*
X188705544Y-101824784D01*
X188637624Y-101660812D01*
X188603000Y-101486741D01*
X188603000Y-101309259D01*
X188637624Y-101135188D01*
X188705544Y-100971216D01*
X188804147Y-100823646D01*
X188929646Y-100698147D01*
X189077216Y-100599544D01*
X189241188Y-100531624D01*
X189390488Y-100501927D01*
X189415258Y-100497000D01*
X189592742Y-100497000D01*
X189617512Y-100501927D01*
G37*
G36*
X152562213Y-100684249D02*
G01*
X152656652Y-100712897D01*
X152743687Y-100759418D01*
X152819975Y-100822025D01*
X152882582Y-100898313D01*
X152929103Y-100985348D01*
X152957751Y-101079787D01*
X152967424Y-101178000D01*
X152957751Y-101276213D01*
X152929103Y-101370652D01*
X152882582Y-101457687D01*
X152819975Y-101533975D01*
X152743687Y-101596582D01*
X152656652Y-101643103D01*
X152562213Y-101671751D01*
X152488612Y-101679000D01*
X151339388Y-101679000D01*
X151265787Y-101671751D01*
X151171348Y-101643103D01*
X151084313Y-101596582D01*
X151008025Y-101533975D01*
X150945418Y-101457687D01*
X150898897Y-101370652D01*
X150870249Y-101276213D01*
X150860576Y-101178000D01*
X150870249Y-101079787D01*
X150898897Y-100985348D01*
X150945418Y-100898313D01*
X151008025Y-100822025D01*
X151084313Y-100759418D01*
X151171348Y-100712897D01*
X151265787Y-100684249D01*
X151339388Y-100677000D01*
X152488612Y-100677000D01*
X152562213Y-100684249D01*
G37*
G36*
X148242213Y-100684249D02*
G01*
X148336652Y-100712897D01*
X148423687Y-100759418D01*
X148499975Y-100822025D01*
X148562582Y-100898313D01*
X148609103Y-100985348D01*
X148637751Y-101079787D01*
X148647424Y-101178000D01*
X148637751Y-101276213D01*
X148609103Y-101370652D01*
X148562582Y-101457687D01*
X148499975Y-101533975D01*
X148423687Y-101596582D01*
X148336652Y-101643103D01*
X148242213Y-101671751D01*
X148168612Y-101679000D01*
X147319388Y-101679000D01*
X147245787Y-101671751D01*
X147151348Y-101643103D01*
X147064313Y-101596582D01*
X146988025Y-101533975D01*
X146925418Y-101457687D01*
X146878897Y-101370652D01*
X146850249Y-101276213D01*
X146840576Y-101178000D01*
X146850249Y-101079787D01*
X146878897Y-100985348D01*
X146925418Y-100898313D01*
X146988025Y-100822025D01*
X147064313Y-100759418D01*
X147151348Y-100712897D01*
X147245787Y-100684249D01*
X147319388Y-100677000D01*
X148168612Y-100677000D01*
X148242213Y-100684249D01*
G37*
G36*
X156643335Y-100563934D02*
G01*
X156682610Y-100567802D01*
X156733002Y-100583089D01*
X156758199Y-100590732D01*
X156827862Y-100627968D01*
X156888922Y-100678078D01*
X156939032Y-100739138D01*
X156976268Y-100808801D01*
X156976268Y-100808802D01*
X156999198Y-100884390D01*
X157006940Y-100963000D01*
X156999198Y-101041610D01*
X156989417Y-101073853D01*
X156976268Y-101117199D01*
X156939032Y-101186862D01*
X156888922Y-101247922D01*
X156827862Y-101298032D01*
X156758199Y-101335268D01*
X156733002Y-101342911D01*
X156682610Y-101358198D01*
X156643335Y-101362066D01*
X156623699Y-101364000D01*
X155084301Y-101364000D01*
X155064665Y-101362066D01*
X155025390Y-101358198D01*
X154974998Y-101342911D01*
X154949801Y-101335268D01*
X154880138Y-101298032D01*
X154819078Y-101247922D01*
X154768968Y-101186862D01*
X154731732Y-101117199D01*
X154718583Y-101073853D01*
X154708802Y-101041610D01*
X154701060Y-100963000D01*
X154708802Y-100884390D01*
X154731732Y-100808802D01*
X154731732Y-100808801D01*
X154768968Y-100739138D01*
X154819078Y-100678078D01*
X154880138Y-100627968D01*
X154949801Y-100590732D01*
X154974998Y-100583089D01*
X155025390Y-100567802D01*
X155064665Y-100563934D01*
X155084301Y-100562000D01*
X156623699Y-100562000D01*
X156643335Y-100563934D01*
G37*
G36*
X163443335Y-100563934D02*
G01*
X163482610Y-100567802D01*
X163533002Y-100583089D01*
X163558199Y-100590732D01*
X163627862Y-100627968D01*
X163688922Y-100678078D01*
X163739032Y-100739138D01*
X163776268Y-100808801D01*
X163776268Y-100808802D01*
X163799198Y-100884390D01*
X163806940Y-100963000D01*
X163799198Y-101041610D01*
X163789417Y-101073853D01*
X163776268Y-101117199D01*
X163739032Y-101186862D01*
X163688922Y-101247922D01*
X163627862Y-101298032D01*
X163558199Y-101335268D01*
X163533002Y-101342911D01*
X163482610Y-101358198D01*
X163443335Y-101362066D01*
X163423699Y-101364000D01*
X161884301Y-101364000D01*
X161864665Y-101362066D01*
X161825390Y-101358198D01*
X161774998Y-101342911D01*
X161749801Y-101335268D01*
X161680138Y-101298032D01*
X161619078Y-101247922D01*
X161568968Y-101186862D01*
X161531732Y-101117199D01*
X161518583Y-101073853D01*
X161508802Y-101041610D01*
X161501060Y-100963000D01*
X161508802Y-100884390D01*
X161531732Y-100808802D01*
X161531732Y-100808801D01*
X161568968Y-100739138D01*
X161619078Y-100678078D01*
X161680138Y-100627968D01*
X161749801Y-100590732D01*
X161774998Y-100583089D01*
X161825390Y-100567802D01*
X161864665Y-100563934D01*
X161884301Y-100562000D01*
X163423699Y-100562000D01*
X163443335Y-100563934D01*
G37*
G36*
X153125000Y-100409000D02*
G01*
X151863000Y-100409000D01*
X151863000Y-100117163D01*
X151860598Y-100092777D01*
X151853485Y-100069328D01*
X151841934Y-100047717D01*
X151826389Y-100028775D01*
X151807447Y-100013230D01*
X151785836Y-100001679D01*
X151762387Y-99994566D01*
X151738001Y-99992164D01*
X151713615Y-99994566D01*
X151690166Y-100001679D01*
X151668555Y-100013230D01*
X151667317Y-100014246D01*
X151600258Y-100059054D01*
X151548182Y-100080624D01*
X151536383Y-100085511D01*
X151468570Y-100099000D01*
X151399430Y-100099000D01*
X151331617Y-100085511D01*
X151319818Y-100080624D01*
X151267742Y-100059054D01*
X151210252Y-100020640D01*
X151161360Y-99971748D01*
X151122946Y-99914258D01*
X151096490Y-99850385D01*
X151096489Y-99850383D01*
X151083000Y-99782570D01*
X151083000Y-99713430D01*
X151096489Y-99645617D01*
X151111656Y-99609000D01*
X151122946Y-99581742D01*
X151161360Y-99524252D01*
X151210252Y-99475360D01*
X151267742Y-99436946D01*
X151331615Y-99410490D01*
X151331614Y-99410490D01*
X151331617Y-99410489D01*
X151399430Y-99397000D01*
X151468570Y-99397000D01*
X151536383Y-99410489D01*
X151536386Y-99410490D01*
X151536385Y-99410490D01*
X151600258Y-99436946D01*
X151667317Y-99481754D01*
X151668555Y-99482770D01*
X151690166Y-99494321D01*
X151713615Y-99501434D01*
X151738001Y-99503836D01*
X151762387Y-99501434D01*
X151785836Y-99494321D01*
X151807447Y-99482770D01*
X151826389Y-99467225D01*
X151841934Y-99448283D01*
X151853485Y-99426672D01*
X151860598Y-99403223D01*
X151863000Y-99378837D01*
X151863000Y-94337163D01*
X151860598Y-94312777D01*
X151853485Y-94289328D01*
X151841934Y-94267717D01*
X151826389Y-94248775D01*
X151807447Y-94233230D01*
X151785836Y-94221679D01*
X151762387Y-94214566D01*
X151738001Y-94212164D01*
X151713615Y-94214566D01*
X151690166Y-94221679D01*
X151668555Y-94233230D01*
X151667317Y-94234246D01*
X151600258Y-94279054D01*
X151548182Y-94300624D01*
X151536383Y-94305511D01*
X151468570Y-94319000D01*
X151399430Y-94319000D01*
X151331617Y-94305511D01*
X151319818Y-94300624D01*
X151267742Y-94279054D01*
X151210252Y-94240640D01*
X151161360Y-94191748D01*
X151122946Y-94134258D01*
X151096490Y-94070385D01*
X151096489Y-94070383D01*
X151083000Y-94002570D01*
X151083000Y-93933430D01*
X151096489Y-93865617D01*
X151113727Y-93824000D01*
X151122946Y-93801742D01*
X151161360Y-93744252D01*
X151210252Y-93695360D01*
X151267742Y-93656946D01*
X151331615Y-93630490D01*
X151331614Y-93630490D01*
X151331617Y-93630489D01*
X151399430Y-93617000D01*
X151468570Y-93617000D01*
X151536383Y-93630489D01*
X151536386Y-93630490D01*
X151536385Y-93630490D01*
X151600258Y-93656946D01*
X151667317Y-93701754D01*
X151668555Y-93702770D01*
X151690166Y-93714321D01*
X151713615Y-93721434D01*
X151738001Y-93723836D01*
X151762387Y-93721434D01*
X151785836Y-93714321D01*
X151807447Y-93702770D01*
X151826389Y-93687225D01*
X151841934Y-93668283D01*
X151853485Y-93646672D01*
X151860598Y-93623223D01*
X151863000Y-93598837D01*
X151863000Y-93307000D01*
X153125000Y-93307000D01*
X153125000Y-100409000D01*
G37*
G36*
X172385508Y-94637505D02*
G01*
X172392523Y-94639633D01*
X172398989Y-94643090D01*
X172409423Y-94651652D01*
X172631260Y-94873489D01*
X172639822Y-94883923D01*
X172643279Y-94890390D01*
X172647810Y-94905326D01*
X172657187Y-94927965D01*
X172670801Y-94948339D01*
X172688128Y-94965666D01*
X172708503Y-94979280D01*
X172731140Y-94988656D01*
X172746076Y-94993187D01*
X172752543Y-94996644D01*
X172762977Y-95005206D01*
X172984814Y-95227043D01*
X172993376Y-95237477D01*
X172996833Y-95243943D01*
X173001364Y-95258880D01*
X173010742Y-95281519D01*
X173024356Y-95301893D01*
X173041683Y-95319220D01*
X173062058Y-95332833D01*
X173084693Y-95342209D01*
X173099630Y-95346740D01*
X173106096Y-95350197D01*
X173116530Y-95358759D01*
X173338367Y-95580596D01*
X173346929Y-95591030D01*
X173350386Y-95597497D01*
X173354917Y-95612433D01*
X173364294Y-95635072D01*
X173377908Y-95655446D01*
X173395235Y-95672773D01*
X173415610Y-95686387D01*
X173438247Y-95695763D01*
X173453183Y-95700294D01*
X173459650Y-95703751D01*
X173470084Y-95712313D01*
X173691921Y-95934150D01*
X173700483Y-95944584D01*
X173703940Y-95951050D01*
X173708471Y-95965987D01*
X173717849Y-95988626D01*
X173731463Y-96009000D01*
X173748790Y-96026327D01*
X173769165Y-96039940D01*
X173791800Y-96049316D01*
X173806737Y-96053847D01*
X173813203Y-96057304D01*
X173823637Y-96065866D01*
X174045474Y-96287703D01*
X174054036Y-96298137D01*
X174057493Y-96304603D01*
X174062024Y-96319540D01*
X174071402Y-96342179D01*
X174085016Y-96362553D01*
X174102343Y-96379880D01*
X174122718Y-96393493D01*
X174145353Y-96402869D01*
X174160290Y-96407400D01*
X174166756Y-96410857D01*
X174177190Y-96419419D01*
X174399027Y-96641256D01*
X174407589Y-96651690D01*
X174411046Y-96658157D01*
X174415577Y-96673093D01*
X174424954Y-96695732D01*
X174438568Y-96716106D01*
X174455895Y-96733433D01*
X174476270Y-96747047D01*
X174498907Y-96756423D01*
X174513843Y-96760954D01*
X174520310Y-96764411D01*
X174530744Y-96772973D01*
X174752581Y-96994810D01*
X174761143Y-97005244D01*
X174764600Y-97011710D01*
X174769131Y-97026647D01*
X174778509Y-97049286D01*
X174792123Y-97069660D01*
X174809450Y-97086987D01*
X174829825Y-97100600D01*
X174852460Y-97109976D01*
X174867397Y-97114507D01*
X174873863Y-97117964D01*
X174884297Y-97126526D01*
X175106134Y-97348363D01*
X175114696Y-97358797D01*
X175118153Y-97365263D01*
X175122684Y-97380200D01*
X175132062Y-97402839D01*
X175145676Y-97423213D01*
X175163003Y-97440540D01*
X175183378Y-97454153D01*
X175206013Y-97463529D01*
X175220950Y-97468060D01*
X175227416Y-97471517D01*
X175237850Y-97480079D01*
X175459687Y-97701916D01*
X175468249Y-97712350D01*
X175471706Y-97718817D01*
X175476237Y-97733753D01*
X175485614Y-97756392D01*
X175499228Y-97776766D01*
X175516555Y-97794093D01*
X175536930Y-97807707D01*
X175559567Y-97817083D01*
X175574503Y-97821614D01*
X175580970Y-97825071D01*
X175591404Y-97833633D01*
X175813241Y-98055470D01*
X175821803Y-98065904D01*
X175825260Y-98072370D01*
X175829791Y-98087307D01*
X175839169Y-98109946D01*
X175852783Y-98130320D01*
X175870110Y-98147647D01*
X175890485Y-98161260D01*
X175913120Y-98170636D01*
X175928057Y-98175167D01*
X175934523Y-98178624D01*
X175944957Y-98187186D01*
X176166794Y-98409023D01*
X176175356Y-98419457D01*
X176178813Y-98425924D01*
X176183344Y-98440860D01*
X176192721Y-98463499D01*
X176206335Y-98483873D01*
X176223662Y-98501200D01*
X176244037Y-98514814D01*
X176266674Y-98524190D01*
X176281610Y-98528721D01*
X176288077Y-98532178D01*
X176298511Y-98540740D01*
X176520348Y-98762577D01*
X176528910Y-98773011D01*
X176532367Y-98779477D01*
X176534495Y-98786492D01*
X176535213Y-98793787D01*
X176534495Y-98801082D01*
X176532367Y-98808097D01*
X176528910Y-98814563D01*
X176520348Y-98824997D01*
X175467661Y-99877684D01*
X175457227Y-99886246D01*
X175450761Y-99889703D01*
X175443746Y-99891831D01*
X175436451Y-99892549D01*
X175429156Y-99891831D01*
X175422141Y-99889703D01*
X175415675Y-99886246D01*
X175405241Y-99877684D01*
X175183404Y-99655847D01*
X175174842Y-99645413D01*
X175171385Y-99638946D01*
X175166854Y-99624010D01*
X175157477Y-99601371D01*
X175143863Y-99580997D01*
X175126536Y-99563670D01*
X175106161Y-99550056D01*
X175083524Y-99540680D01*
X175068588Y-99536149D01*
X175062121Y-99532692D01*
X175051687Y-99524130D01*
X174829850Y-99302293D01*
X174821288Y-99291859D01*
X174817831Y-99285393D01*
X174813300Y-99270456D01*
X174803922Y-99247817D01*
X174790308Y-99227443D01*
X174772981Y-99210116D01*
X174752606Y-99196503D01*
X174729971Y-99187127D01*
X174715034Y-99182596D01*
X174708568Y-99179139D01*
X174698134Y-99170577D01*
X174476297Y-98948740D01*
X174467735Y-98938306D01*
X174464278Y-98931839D01*
X174459747Y-98916903D01*
X174450370Y-98894264D01*
X174436756Y-98873890D01*
X174419429Y-98856563D01*
X174399054Y-98842949D01*
X174376417Y-98833573D01*
X174361481Y-98829042D01*
X174355014Y-98825585D01*
X174344580Y-98817023D01*
X174122743Y-98595186D01*
X174114181Y-98584752D01*
X174110724Y-98578286D01*
X174106193Y-98563349D01*
X174096815Y-98540710D01*
X174083201Y-98520336D01*
X174065874Y-98503009D01*
X174045499Y-98489396D01*
X174022864Y-98480020D01*
X174007927Y-98475489D01*
X174001461Y-98472032D01*
X173991027Y-98463470D01*
X173769190Y-98241633D01*
X173760628Y-98231199D01*
X173757171Y-98224733D01*
X173752640Y-98209796D01*
X173743262Y-98187157D01*
X173729648Y-98166783D01*
X173712321Y-98149456D01*
X173691946Y-98135843D01*
X173669311Y-98126467D01*
X173654374Y-98121936D01*
X173647908Y-98118479D01*
X173637474Y-98109917D01*
X173415637Y-97888080D01*
X173407075Y-97877646D01*
X173403618Y-97871179D01*
X173399087Y-97856243D01*
X173389710Y-97833604D01*
X173376096Y-97813230D01*
X173358769Y-97795903D01*
X173338394Y-97782289D01*
X173315757Y-97772913D01*
X173300821Y-97768382D01*
X173294354Y-97764925D01*
X173283920Y-97756363D01*
X173062083Y-97534526D01*
X173053521Y-97524092D01*
X173050064Y-97517626D01*
X173045533Y-97502689D01*
X173036155Y-97480050D01*
X173022541Y-97459676D01*
X173005214Y-97442349D01*
X172984839Y-97428736D01*
X172962204Y-97419360D01*
X172947267Y-97414829D01*
X172940801Y-97411372D01*
X172930367Y-97402810D01*
X172708530Y-97180973D01*
X172699968Y-97170539D01*
X172696511Y-97164073D01*
X172691980Y-97149136D01*
X172682602Y-97126497D01*
X172668988Y-97106123D01*
X172651661Y-97088796D01*
X172631286Y-97075183D01*
X172608651Y-97065807D01*
X172593714Y-97061276D01*
X172587248Y-97057819D01*
X172576814Y-97049257D01*
X172354977Y-96827420D01*
X172346415Y-96816986D01*
X172342958Y-96810519D01*
X172338427Y-96795583D01*
X172329050Y-96772944D01*
X172315436Y-96752570D01*
X172298109Y-96735243D01*
X172277734Y-96721629D01*
X172255097Y-96712253D01*
X172240161Y-96707722D01*
X172233694Y-96704265D01*
X172223260Y-96695703D01*
X172001423Y-96473866D01*
X171992861Y-96463432D01*
X171989404Y-96456966D01*
X171984873Y-96442029D01*
X171975495Y-96419390D01*
X171961881Y-96399016D01*
X171944554Y-96381689D01*
X171924179Y-96368076D01*
X171901544Y-96358700D01*
X171886607Y-96354169D01*
X171880141Y-96350712D01*
X171869707Y-96342150D01*
X171647870Y-96120313D01*
X171639308Y-96109879D01*
X171635851Y-96103412D01*
X171631320Y-96088476D01*
X171621943Y-96065837D01*
X171608329Y-96045463D01*
X171591002Y-96028136D01*
X171570627Y-96014522D01*
X171547990Y-96005146D01*
X171533054Y-96000615D01*
X171526587Y-95997158D01*
X171516153Y-95988596D01*
X171294316Y-95766759D01*
X171285754Y-95756325D01*
X171282297Y-95749859D01*
X171280169Y-95742844D01*
X171279451Y-95735549D01*
X171280169Y-95728254D01*
X171282297Y-95721239D01*
X171285754Y-95714773D01*
X171294316Y-95704339D01*
X172347003Y-94651652D01*
X172357437Y-94643090D01*
X172363903Y-94639633D01*
X172370918Y-94637505D01*
X172378213Y-94636787D01*
X172385508Y-94637505D01*
G37*
G36*
X169557082Y-94637505D02*
G01*
X169564097Y-94639633D01*
X169570563Y-94643090D01*
X169580997Y-94651652D01*
X170633684Y-95704339D01*
X170642246Y-95714773D01*
X170645703Y-95721239D01*
X170647831Y-95728254D01*
X170648549Y-95735549D01*
X170647831Y-95742844D01*
X170645703Y-95749859D01*
X170642246Y-95756325D01*
X170633684Y-95766759D01*
X170411847Y-95988596D01*
X170401413Y-95997158D01*
X170394946Y-96000615D01*
X170380010Y-96005146D01*
X170357371Y-96014523D01*
X170336997Y-96028137D01*
X170319670Y-96045464D01*
X170306056Y-96065839D01*
X170296680Y-96088476D01*
X170292149Y-96103412D01*
X170288692Y-96109879D01*
X170280130Y-96120313D01*
X170058293Y-96342150D01*
X170047859Y-96350712D01*
X170041393Y-96354169D01*
X170026456Y-96358700D01*
X170003817Y-96368078D01*
X169983443Y-96381692D01*
X169966116Y-96399019D01*
X169952503Y-96419394D01*
X169943127Y-96442029D01*
X169938596Y-96456966D01*
X169935139Y-96463432D01*
X169926577Y-96473866D01*
X169704740Y-96695703D01*
X169694306Y-96704265D01*
X169687839Y-96707722D01*
X169672903Y-96712253D01*
X169650264Y-96721630D01*
X169629890Y-96735244D01*
X169612563Y-96752571D01*
X169598949Y-96772946D01*
X169589573Y-96795583D01*
X169585042Y-96810519D01*
X169581585Y-96816986D01*
X169573023Y-96827420D01*
X169351186Y-97049257D01*
X169340752Y-97057819D01*
X169334286Y-97061276D01*
X169319349Y-97065807D01*
X169296710Y-97075185D01*
X169276336Y-97088799D01*
X169259009Y-97106126D01*
X169245396Y-97126501D01*
X169236020Y-97149136D01*
X169231489Y-97164073D01*
X169228032Y-97170539D01*
X169219470Y-97180973D01*
X168997633Y-97402810D01*
X168987199Y-97411372D01*
X168980733Y-97414829D01*
X168965796Y-97419360D01*
X168943157Y-97428738D01*
X168922783Y-97442352D01*
X168905456Y-97459679D01*
X168891843Y-97480054D01*
X168882467Y-97502689D01*
X168877936Y-97517626D01*
X168874479Y-97524092D01*
X168865917Y-97534526D01*
X168644080Y-97756363D01*
X168633646Y-97764925D01*
X168627179Y-97768382D01*
X168612243Y-97772913D01*
X168589604Y-97782290D01*
X168569230Y-97795904D01*
X168551903Y-97813231D01*
X168538289Y-97833606D01*
X168528913Y-97856243D01*
X168524382Y-97871179D01*
X168520925Y-97877646D01*
X168512363Y-97888080D01*
X168290526Y-98109917D01*
X168280092Y-98118479D01*
X168273626Y-98121936D01*
X168258689Y-98126467D01*
X168236050Y-98135845D01*
X168215676Y-98149459D01*
X168198349Y-98166786D01*
X168184736Y-98187161D01*
X168175360Y-98209796D01*
X168170829Y-98224733D01*
X168167372Y-98231199D01*
X168158810Y-98241633D01*
X167936973Y-98463470D01*
X167926539Y-98472032D01*
X167920073Y-98475489D01*
X167905136Y-98480020D01*
X167882497Y-98489398D01*
X167862123Y-98503012D01*
X167844796Y-98520339D01*
X167831183Y-98540714D01*
X167821807Y-98563349D01*
X167817276Y-98578286D01*
X167813819Y-98584752D01*
X167805257Y-98595186D01*
X167583420Y-98817023D01*
X167572986Y-98825585D01*
X167566519Y-98829042D01*
X167551583Y-98833573D01*
X167528944Y-98842950D01*
X167508570Y-98856564D01*
X167491243Y-98873891D01*
X167477629Y-98894266D01*
X167468253Y-98916903D01*
X167463722Y-98931839D01*
X167460265Y-98938306D01*
X167451703Y-98948740D01*
X167229866Y-99170577D01*
X167219432Y-99179139D01*
X167212966Y-99182596D01*
X167198029Y-99187127D01*
X167175390Y-99196505D01*
X167155016Y-99210119D01*
X167137689Y-99227446D01*
X167124076Y-99247821D01*
X167114700Y-99270456D01*
X167110169Y-99285393D01*
X167106712Y-99291859D01*
X167098150Y-99302293D01*
X166876313Y-99524130D01*
X166865879Y-99532692D01*
X166859412Y-99536149D01*
X166844476Y-99540680D01*
X166821837Y-99550057D01*
X166801463Y-99563671D01*
X166784136Y-99580998D01*
X166770522Y-99601373D01*
X166761146Y-99624010D01*
X166756615Y-99638946D01*
X166753158Y-99645413D01*
X166744596Y-99655847D01*
X166522759Y-99877684D01*
X166512325Y-99886246D01*
X166505859Y-99889703D01*
X166498844Y-99891831D01*
X166491549Y-99892549D01*
X166484254Y-99891831D01*
X166477239Y-99889703D01*
X166470773Y-99886246D01*
X166460339Y-99877684D01*
X165407652Y-98824997D01*
X165399090Y-98814563D01*
X165395633Y-98808097D01*
X165393505Y-98801082D01*
X165392787Y-98793787D01*
X165393505Y-98786492D01*
X165395633Y-98779477D01*
X165399090Y-98773011D01*
X165407652Y-98762577D01*
X165629489Y-98540740D01*
X165639923Y-98532178D01*
X165646390Y-98528721D01*
X165661326Y-98524190D01*
X165683965Y-98514813D01*
X165704339Y-98501199D01*
X165721666Y-98483872D01*
X165735280Y-98463497D01*
X165744656Y-98440860D01*
X165749187Y-98425924D01*
X165752644Y-98419457D01*
X165761206Y-98409023D01*
X165983043Y-98187186D01*
X165993477Y-98178624D01*
X165999943Y-98175167D01*
X166014880Y-98170636D01*
X166037519Y-98161258D01*
X166057893Y-98147644D01*
X166075220Y-98130317D01*
X166088833Y-98109942D01*
X166098209Y-98087307D01*
X166102740Y-98072370D01*
X166106197Y-98065904D01*
X166114759Y-98055470D01*
X166336596Y-97833633D01*
X166347030Y-97825071D01*
X166353497Y-97821614D01*
X166368433Y-97817083D01*
X166391072Y-97807706D01*
X166411446Y-97794092D01*
X166428773Y-97776765D01*
X166442387Y-97756390D01*
X166451763Y-97733753D01*
X166456294Y-97718817D01*
X166459751Y-97712350D01*
X166468313Y-97701916D01*
X166690150Y-97480079D01*
X166700584Y-97471517D01*
X166707050Y-97468060D01*
X166721987Y-97463529D01*
X166744626Y-97454151D01*
X166765000Y-97440537D01*
X166782327Y-97423210D01*
X166795940Y-97402835D01*
X166805316Y-97380200D01*
X166809847Y-97365263D01*
X166813304Y-97358797D01*
X166821866Y-97348363D01*
X167043703Y-97126526D01*
X167054137Y-97117964D01*
X167060603Y-97114507D01*
X167075540Y-97109976D01*
X167098179Y-97100598D01*
X167118553Y-97086984D01*
X167135880Y-97069657D01*
X167149493Y-97049282D01*
X167158869Y-97026647D01*
X167163400Y-97011710D01*
X167166857Y-97005244D01*
X167175419Y-96994810D01*
X167397256Y-96772973D01*
X167407690Y-96764411D01*
X167414157Y-96760954D01*
X167429093Y-96756423D01*
X167451732Y-96747046D01*
X167472106Y-96733432D01*
X167489433Y-96716105D01*
X167503047Y-96695730D01*
X167512423Y-96673093D01*
X167516954Y-96658157D01*
X167520411Y-96651690D01*
X167528973Y-96641256D01*
X167750810Y-96419419D01*
X167761244Y-96410857D01*
X167767710Y-96407400D01*
X167782647Y-96402869D01*
X167805286Y-96393491D01*
X167825660Y-96379877D01*
X167842987Y-96362550D01*
X167856600Y-96342175D01*
X167865976Y-96319540D01*
X167870507Y-96304603D01*
X167873964Y-96298137D01*
X167882526Y-96287703D01*
X168104363Y-96065866D01*
X168114797Y-96057304D01*
X168121263Y-96053847D01*
X168136200Y-96049316D01*
X168158839Y-96039938D01*
X168179213Y-96026324D01*
X168196540Y-96008997D01*
X168210153Y-95988622D01*
X168219529Y-95965987D01*
X168224060Y-95951050D01*
X168227517Y-95944584D01*
X168236079Y-95934150D01*
X168457916Y-95712313D01*
X168468350Y-95703751D01*
X168474817Y-95700294D01*
X168489753Y-95695763D01*
X168512392Y-95686386D01*
X168532766Y-95672772D01*
X168550093Y-95655445D01*
X168563707Y-95635070D01*
X168573083Y-95612433D01*
X168577614Y-95597497D01*
X168581071Y-95591030D01*
X168589633Y-95580596D01*
X168811470Y-95358759D01*
X168821904Y-95350197D01*
X168828370Y-95346740D01*
X168843307Y-95342209D01*
X168865946Y-95332831D01*
X168886320Y-95319217D01*
X168903647Y-95301890D01*
X168917260Y-95281515D01*
X168926636Y-95258880D01*
X168931167Y-95243943D01*
X168934624Y-95237477D01*
X168943186Y-95227043D01*
X169165023Y-95005206D01*
X169175457Y-94996644D01*
X169181924Y-94993187D01*
X169196860Y-94988656D01*
X169219499Y-94979279D01*
X169239873Y-94965665D01*
X169257200Y-94948338D01*
X169270814Y-94927963D01*
X169280190Y-94905326D01*
X169284721Y-94890390D01*
X169288178Y-94883923D01*
X169296740Y-94873489D01*
X169518577Y-94651652D01*
X169529011Y-94643090D01*
X169535477Y-94639633D01*
X169542492Y-94637505D01*
X169549787Y-94636787D01*
X169557082Y-94637505D01*
G37*
G36*
X164580000Y-99794000D02*
G01*
X163028000Y-99794000D01*
X163028000Y-99042000D01*
X164580000Y-99042000D01*
X164580000Y-99794000D01*
G37*
G36*
X189617512Y-97961927D02*
G01*
X189766812Y-97991624D01*
X189930784Y-98059544D01*
X190078354Y-98158147D01*
X190203853Y-98283646D01*
X190302456Y-98431216D01*
X190370376Y-98595188D01*
X190398773Y-98737952D01*
X190405000Y-98769258D01*
X190405000Y-98946742D01*
X190403160Y-98955990D01*
X190370376Y-99120812D01*
X190302456Y-99284784D01*
X190203853Y-99432354D01*
X190078354Y-99557853D01*
X189930784Y-99656456D01*
X189766812Y-99724376D01*
X189617512Y-99754073D01*
X189592742Y-99759000D01*
X189415258Y-99759000D01*
X189390488Y-99754073D01*
X189241188Y-99724376D01*
X189077216Y-99656456D01*
X188929646Y-99557853D01*
X188804147Y-99432354D01*
X188705544Y-99284784D01*
X188637624Y-99120812D01*
X188604840Y-98955990D01*
X188603000Y-98946742D01*
X188603000Y-98769258D01*
X188609227Y-98737952D01*
X188637624Y-98595188D01*
X188705544Y-98431216D01*
X188804147Y-98283646D01*
X188929646Y-98158147D01*
X189077216Y-98059544D01*
X189241188Y-97991624D01*
X189390488Y-97961927D01*
X189415258Y-97957000D01*
X189592742Y-97957000D01*
X189617512Y-97961927D01*
G37*
G36*
X187077512Y-97961927D02*
G01*
X187226812Y-97991624D01*
X187390784Y-98059544D01*
X187538354Y-98158147D01*
X187663853Y-98283646D01*
X187762456Y-98431216D01*
X187830376Y-98595188D01*
X187858773Y-98737952D01*
X187865000Y-98769258D01*
X187865000Y-98946742D01*
X187863160Y-98955990D01*
X187830376Y-99120812D01*
X187762456Y-99284784D01*
X187663853Y-99432354D01*
X187538354Y-99557853D01*
X187390784Y-99656456D01*
X187226812Y-99724376D01*
X187077512Y-99754073D01*
X187052742Y-99759000D01*
X186875258Y-99759000D01*
X186850488Y-99754073D01*
X186701188Y-99724376D01*
X186537216Y-99656456D01*
X186389646Y-99557853D01*
X186264147Y-99432354D01*
X186165544Y-99284784D01*
X186097624Y-99120812D01*
X186064840Y-98955990D01*
X186063000Y-98946742D01*
X186063000Y-98769258D01*
X186069227Y-98737952D01*
X186097624Y-98595188D01*
X186165544Y-98431216D01*
X186264147Y-98283646D01*
X186389646Y-98158147D01*
X186537216Y-98059544D01*
X186701188Y-97991624D01*
X186850488Y-97961927D01*
X186875258Y-97957000D01*
X187052742Y-97957000D01*
X187077512Y-97961927D01*
G37*
G36*
X158740000Y-99324000D02*
G01*
X157188000Y-99324000D01*
X157188000Y-98572000D01*
X158740000Y-98572000D01*
X158740000Y-99324000D01*
G37*
G36*
X156590001Y-99324000D02*
G01*
X155038001Y-99324000D01*
X155038001Y-98572000D01*
X156590001Y-98572000D01*
X156590001Y-99324000D01*
G37*
G36*
X156590001Y-97924000D02*
G01*
X155038001Y-97924000D01*
X155038001Y-97172000D01*
X156590001Y-97172000D01*
X156590001Y-97924000D01*
G37*
G36*
X189617512Y-95421927D02*
G01*
X189766812Y-95451624D01*
X189930784Y-95519544D01*
X190078354Y-95618147D01*
X190203853Y-95743646D01*
X190302456Y-95891216D01*
X190370376Y-96055188D01*
X190400073Y-96204488D01*
X190405000Y-96229258D01*
X190405000Y-96406742D01*
X190404869Y-96407400D01*
X190370376Y-96580812D01*
X190302456Y-96744784D01*
X190203853Y-96892354D01*
X190078354Y-97017853D01*
X189930784Y-97116456D01*
X189766812Y-97184376D01*
X189617512Y-97214073D01*
X189592742Y-97219000D01*
X189415258Y-97219000D01*
X189390488Y-97214073D01*
X189241188Y-97184376D01*
X189077216Y-97116456D01*
X188929646Y-97017853D01*
X188804147Y-96892354D01*
X188705544Y-96744784D01*
X188637624Y-96580812D01*
X188603131Y-96407400D01*
X188603000Y-96406742D01*
X188603000Y-96229258D01*
X188607927Y-96204488D01*
X188637624Y-96055188D01*
X188705544Y-95891216D01*
X188804147Y-95743646D01*
X188929646Y-95618147D01*
X189077216Y-95519544D01*
X189241188Y-95451624D01*
X189390488Y-95421927D01*
X189415258Y-95417000D01*
X189592742Y-95417000D01*
X189617512Y-95421927D01*
G37*
G36*
X187077512Y-95421927D02*
G01*
X187226812Y-95451624D01*
X187390784Y-95519544D01*
X187538354Y-95618147D01*
X187663853Y-95743646D01*
X187762456Y-95891216D01*
X187830376Y-96055188D01*
X187860073Y-96204488D01*
X187865000Y-96229258D01*
X187865000Y-96406742D01*
X187864869Y-96407400D01*
X187830376Y-96580812D01*
X187762456Y-96744784D01*
X187663853Y-96892354D01*
X187538354Y-97017853D01*
X187390784Y-97116456D01*
X187226812Y-97184376D01*
X187077512Y-97214073D01*
X187052742Y-97219000D01*
X186875258Y-97219000D01*
X186850488Y-97214073D01*
X186701188Y-97184376D01*
X186537216Y-97116456D01*
X186389646Y-97017853D01*
X186264147Y-96892354D01*
X186165544Y-96744784D01*
X186097624Y-96580812D01*
X186063131Y-96407400D01*
X186063000Y-96406742D01*
X186063000Y-96229258D01*
X186067927Y-96204488D01*
X186097624Y-96055188D01*
X186165544Y-95891216D01*
X186264147Y-95743646D01*
X186389646Y-95618147D01*
X186537216Y-95519544D01*
X186701188Y-95451624D01*
X186850488Y-95421927D01*
X186875258Y-95417000D01*
X187052742Y-95417000D01*
X187077512Y-95421927D01*
G37*
G36*
X184878875Y-95255479D02*
G01*
X184952516Y-95277818D01*
X184989337Y-95288987D01*
X185091139Y-95343402D01*
X185148227Y-95390253D01*
X185180369Y-95416631D01*
X185253598Y-95505861D01*
X185253599Y-95505863D01*
X185308013Y-95607662D01*
X185316948Y-95637118D01*
X185341521Y-95718124D01*
X185350000Y-95804215D01*
X185350000Y-96591785D01*
X185341521Y-96677876D01*
X185322562Y-96740375D01*
X185308013Y-96788338D01*
X185253598Y-96890140D01*
X185180370Y-96979370D01*
X185091140Y-97052598D01*
X184989338Y-97107013D01*
X184975195Y-97111303D01*
X184878876Y-97140521D01*
X184764000Y-97151835D01*
X184649125Y-97140521D01*
X184552806Y-97111303D01*
X184538663Y-97107013D01*
X184436861Y-97052598D01*
X184347631Y-96979370D01*
X184274402Y-96890138D01*
X184239240Y-96824355D01*
X184225627Y-96803980D01*
X184208300Y-96786653D01*
X184187925Y-96773040D01*
X184165286Y-96763662D01*
X184141253Y-96758882D01*
X184116749Y-96758882D01*
X184092716Y-96763662D01*
X184070077Y-96773040D01*
X184049702Y-96786653D01*
X184032375Y-96803980D01*
X184018762Y-96824354D01*
X183983598Y-96890140D01*
X183910370Y-96979370D01*
X183821140Y-97052598D01*
X183719338Y-97107013D01*
X183705195Y-97111303D01*
X183608876Y-97140521D01*
X183494000Y-97151835D01*
X183379125Y-97140521D01*
X183282806Y-97111303D01*
X183268663Y-97107013D01*
X183166861Y-97052598D01*
X183077631Y-96979370D01*
X183004402Y-96890138D01*
X182969240Y-96824355D01*
X182955627Y-96803980D01*
X182938300Y-96786653D01*
X182917925Y-96773040D01*
X182895286Y-96763662D01*
X182871253Y-96758882D01*
X182846749Y-96758882D01*
X182822716Y-96763662D01*
X182800077Y-96773040D01*
X182779702Y-96786653D01*
X182762375Y-96803980D01*
X182748762Y-96824354D01*
X182713598Y-96890140D01*
X182640370Y-96979370D01*
X182551140Y-97052598D01*
X182449338Y-97107013D01*
X182435195Y-97111303D01*
X182338876Y-97140521D01*
X182224000Y-97151835D01*
X182109125Y-97140521D01*
X182012806Y-97111303D01*
X181998663Y-97107013D01*
X181896861Y-97052598D01*
X181807631Y-96979370D01*
X181761625Y-96923310D01*
X181744298Y-96905983D01*
X181723924Y-96892369D01*
X181701285Y-96882992D01*
X181677252Y-96878211D01*
X181652748Y-96878211D01*
X181628714Y-96882991D01*
X181606076Y-96892368D01*
X181585701Y-96905982D01*
X181568374Y-96923309D01*
X181554760Y-96943683D01*
X181545383Y-96966322D01*
X181540602Y-96990355D01*
X181540000Y-97002608D01*
X181540000Y-97149000D01*
X180368000Y-97149000D01*
X180368000Y-95247000D01*
X181540000Y-95247000D01*
X181540000Y-95393392D01*
X181542402Y-95417778D01*
X181549515Y-95441227D01*
X181561066Y-95462838D01*
X181576611Y-95481780D01*
X181595553Y-95497325D01*
X181617164Y-95508876D01*
X181640613Y-95515989D01*
X181664999Y-95518391D01*
X181689385Y-95515989D01*
X181712834Y-95508876D01*
X181734445Y-95497325D01*
X181753387Y-95481780D01*
X181761625Y-95472690D01*
X181806690Y-95417778D01*
X181807631Y-95416631D01*
X181896861Y-95343402D01*
X181923212Y-95329317D01*
X181998662Y-95288987D01*
X182035483Y-95277818D01*
X182109124Y-95255479D01*
X182224000Y-95244165D01*
X182338875Y-95255479D01*
X182412516Y-95277818D01*
X182449337Y-95288987D01*
X182551139Y-95343402D01*
X182608227Y-95390253D01*
X182640369Y-95416631D01*
X182713598Y-95505861D01*
X182713601Y-95505865D01*
X182748761Y-95571645D01*
X182762374Y-95592020D01*
X182779701Y-95609347D01*
X182800076Y-95622960D01*
X182822715Y-95632338D01*
X182846748Y-95637118D01*
X182871252Y-95637118D01*
X182895285Y-95632338D01*
X182917924Y-95622960D01*
X182938299Y-95609347D01*
X182955626Y-95592020D01*
X182969239Y-95571646D01*
X183004402Y-95505861D01*
X183076690Y-95417778D01*
X183077631Y-95416631D01*
X183166861Y-95343402D01*
X183193212Y-95329317D01*
X183268662Y-95288987D01*
X183305483Y-95277818D01*
X183379124Y-95255479D01*
X183494000Y-95244165D01*
X183608875Y-95255479D01*
X183682516Y-95277818D01*
X183719337Y-95288987D01*
X183821139Y-95343402D01*
X183878227Y-95390253D01*
X183910369Y-95416631D01*
X183983598Y-95505861D01*
X183983601Y-95505865D01*
X184018761Y-95571645D01*
X184032374Y-95592020D01*
X184049701Y-95609347D01*
X184070076Y-95622960D01*
X184092715Y-95632338D01*
X184116748Y-95637118D01*
X184141252Y-95637118D01*
X184165285Y-95632338D01*
X184187924Y-95622960D01*
X184208299Y-95609347D01*
X184225626Y-95592020D01*
X184239239Y-95571646D01*
X184274402Y-95505861D01*
X184346690Y-95417778D01*
X184347631Y-95416631D01*
X184436861Y-95343402D01*
X184463212Y-95329317D01*
X184538662Y-95288987D01*
X184575483Y-95277818D01*
X184649124Y-95255479D01*
X184764000Y-95244165D01*
X184878875Y-95255479D01*
G37*
G36*
X179060000Y-97034000D02*
G01*
X178308000Y-97034000D01*
X178308000Y-95482000D01*
X179060000Y-95482000D01*
X179060000Y-97034000D01*
G37*
G36*
X156590001Y-96724000D02*
G01*
X155038001Y-96724000D01*
X155038001Y-95972000D01*
X156590001Y-95972000D01*
X156590001Y-96724000D01*
G37*
G36*
X160525000Y-95899000D02*
G01*
X158223000Y-95899000D01*
X158223000Y-94797000D01*
X160525000Y-94797000D01*
X160525000Y-95899000D01*
G37*
G36*
X156075000Y-95364000D02*
G01*
X154993000Y-95364000D01*
X154993000Y-94332000D01*
X156075000Y-94332000D01*
X156075000Y-95364000D01*
G37*
G36*
X157520000Y-95364000D02*
G01*
X156768000Y-95364000D01*
X156768000Y-93812000D01*
X157520000Y-93812000D01*
X157520000Y-95364000D01*
G37*
G36*
X177440000Y-94934000D02*
G01*
X175888000Y-94934000D01*
X175888000Y-94182000D01*
X177440000Y-94182000D01*
X177440000Y-94934000D01*
G37*
G36*
X166525000Y-94849000D02*
G01*
X164223000Y-94849000D01*
X164223000Y-91247000D01*
X166525000Y-91247000D01*
X166525000Y-94849000D01*
G37*
G36*
X187077512Y-92881927D02*
G01*
X187226812Y-92911624D01*
X187390784Y-92979544D01*
X187538354Y-93078147D01*
X187663853Y-93203646D01*
X187762456Y-93351216D01*
X187830376Y-93515188D01*
X187850627Y-93617000D01*
X187864596Y-93687225D01*
X187865000Y-93689259D01*
X187865000Y-93866741D01*
X187830376Y-94040812D01*
X187762456Y-94204784D01*
X187663853Y-94352354D01*
X187538354Y-94477853D01*
X187390784Y-94576456D01*
X187226812Y-94644376D01*
X187077512Y-94674073D01*
X187052742Y-94679000D01*
X186875258Y-94679000D01*
X186850488Y-94674073D01*
X186701188Y-94644376D01*
X186537216Y-94576456D01*
X186389646Y-94477853D01*
X186264147Y-94352354D01*
X186165544Y-94204784D01*
X186097624Y-94040812D01*
X186063000Y-93866741D01*
X186063000Y-93689259D01*
X186063405Y-93687225D01*
X186077373Y-93617000D01*
X186097624Y-93515188D01*
X186165544Y-93351216D01*
X186264147Y-93203646D01*
X186389646Y-93078147D01*
X186537216Y-92979544D01*
X186701188Y-92911624D01*
X186850488Y-92881927D01*
X186875258Y-92877000D01*
X187052742Y-92877000D01*
X187077512Y-92881927D01*
G37*
G36*
X189617512Y-92881927D02*
G01*
X189766812Y-92911624D01*
X189930784Y-92979544D01*
X190078354Y-93078147D01*
X190203853Y-93203646D01*
X190302456Y-93351216D01*
X190370376Y-93515188D01*
X190390627Y-93617000D01*
X190404596Y-93687225D01*
X190405000Y-93689259D01*
X190405000Y-93866741D01*
X190370376Y-94040812D01*
X190302456Y-94204784D01*
X190203853Y-94352354D01*
X190078354Y-94477853D01*
X189930784Y-94576456D01*
X189766812Y-94644376D01*
X189617512Y-94674073D01*
X189592742Y-94679000D01*
X189415258Y-94679000D01*
X189390488Y-94674073D01*
X189241188Y-94644376D01*
X189077216Y-94576456D01*
X188929646Y-94477853D01*
X188804147Y-94352354D01*
X188705544Y-94204784D01*
X188637624Y-94040812D01*
X188603000Y-93866741D01*
X188603000Y-93689259D01*
X188603405Y-93687225D01*
X188617373Y-93617000D01*
X188637624Y-93515188D01*
X188705544Y-93351216D01*
X188804147Y-93203646D01*
X188929646Y-93078147D01*
X189077216Y-92979544D01*
X189241188Y-92911624D01*
X189390488Y-92881927D01*
X189415258Y-92877000D01*
X189592742Y-92877000D01*
X189617512Y-92881927D01*
G37*
G36*
X156075000Y-93824000D02*
G01*
X154993000Y-93824000D01*
X154993000Y-92792000D01*
X156075000Y-92792000D01*
X156075000Y-93824000D01*
G37*
G36*
X172280000Y-93764000D02*
G01*
X171528000Y-93764000D01*
X171528000Y-92212000D01*
X172280000Y-92212000D01*
X172280000Y-93764000D01*
G37*
G36*
X160525000Y-93599000D02*
G01*
X158223000Y-93599000D01*
X158223000Y-92497000D01*
X160525000Y-92497000D01*
X160525000Y-93599000D01*
G37*
G36*
X182740000Y-93254000D02*
G01*
X181988000Y-93254000D01*
X181988000Y-91702000D01*
X182740000Y-91702000D01*
X182740000Y-93254000D01*
G37*
G36*
X184190000Y-93244000D02*
G01*
X183438000Y-93244000D01*
X183438000Y-91692000D01*
X184190000Y-91692000D01*
X184190000Y-93244000D01*
G37*
G36*
X152562213Y-92044249D02*
G01*
X152656652Y-92072897D01*
X152743687Y-92119418D01*
X152819975Y-92182025D01*
X152882582Y-92258313D01*
X152929103Y-92345348D01*
X152957751Y-92439787D01*
X152967424Y-92538000D01*
X152957751Y-92636213D01*
X152929103Y-92730652D01*
X152882582Y-92817687D01*
X152819975Y-92893975D01*
X152743687Y-92956582D01*
X152656652Y-93003103D01*
X152562213Y-93031751D01*
X152488612Y-93039000D01*
X151339388Y-93039000D01*
X151265787Y-93031751D01*
X151171348Y-93003103D01*
X151084313Y-92956582D01*
X151008025Y-92893975D01*
X150945418Y-92817687D01*
X150898897Y-92730652D01*
X150870249Y-92636213D01*
X150860576Y-92538000D01*
X150870249Y-92439787D01*
X150898897Y-92345348D01*
X150945418Y-92258313D01*
X151008025Y-92182025D01*
X151084313Y-92119418D01*
X151171348Y-92072897D01*
X151265787Y-92044249D01*
X151339388Y-92037000D01*
X152488612Y-92037000D01*
X152562213Y-92044249D01*
G37*
G36*
X148242213Y-92044249D02*
G01*
X148336652Y-92072897D01*
X148423687Y-92119418D01*
X148499975Y-92182025D01*
X148562582Y-92258313D01*
X148609103Y-92345348D01*
X148637751Y-92439787D01*
X148647424Y-92538000D01*
X148637751Y-92636213D01*
X148609103Y-92730652D01*
X148562582Y-92817687D01*
X148499975Y-92893975D01*
X148423687Y-92956582D01*
X148336652Y-93003103D01*
X148242213Y-93031751D01*
X148168612Y-93039000D01*
X147319388Y-93039000D01*
X147245787Y-93031751D01*
X147151348Y-93003103D01*
X147064313Y-92956582D01*
X146988025Y-92893975D01*
X146925418Y-92817687D01*
X146878897Y-92730652D01*
X146850249Y-92636213D01*
X146840576Y-92538000D01*
X146850249Y-92439787D01*
X146878897Y-92345348D01*
X146925418Y-92258313D01*
X146988025Y-92182025D01*
X147064313Y-92119418D01*
X147151348Y-92072897D01*
X147245787Y-92044249D01*
X147319388Y-92037000D01*
X148168612Y-92037000D01*
X148242213Y-92044249D01*
G37*
G36*
X178390000Y-92394000D02*
G01*
X177638000Y-92394000D01*
X177638000Y-90842000D01*
X178390000Y-90842000D01*
X178390000Y-92394000D01*
G37*
G36*
X187865000Y-92139000D02*
G01*
X186063000Y-92139000D01*
X186063000Y-90337000D01*
X187865000Y-90337000D01*
X187865000Y-92139000D01*
G37*
G36*
X189617512Y-90341927D02*
G01*
X189766812Y-90371624D01*
X189930784Y-90439544D01*
X190078354Y-90538147D01*
X190203853Y-90663646D01*
X190302456Y-90811216D01*
X190370376Y-90975188D01*
X190405000Y-91149259D01*
X190405000Y-91326741D01*
X190370376Y-91500812D01*
X190302456Y-91664784D01*
X190203853Y-91812354D01*
X190078354Y-91937853D01*
X189930784Y-92036456D01*
X189766812Y-92104376D01*
X189617512Y-92134073D01*
X189592742Y-92139000D01*
X189415258Y-92139000D01*
X189390488Y-92134073D01*
X189241188Y-92104376D01*
X189077216Y-92036456D01*
X188929646Y-91937853D01*
X188804147Y-91812354D01*
X188705544Y-91664784D01*
X188637624Y-91500812D01*
X188603000Y-91326741D01*
X188603000Y-91149259D01*
X188637624Y-90975188D01*
X188705544Y-90811216D01*
X188804147Y-90663646D01*
X188929646Y-90538147D01*
X189077216Y-90439544D01*
X189241188Y-90371624D01*
X189390488Y-90341927D01*
X189415258Y-90337000D01*
X189592742Y-90337000D01*
X189617512Y-90341927D01*
G37*
G36*
X157560000Y-91949000D02*
G01*
X156528000Y-91949000D01*
X156528000Y-90867000D01*
X157560000Y-90867000D01*
X157560000Y-91949000D01*
G37*
G36*
X156020000Y-91949000D02*
G01*
X154988000Y-91949000D01*
X154988000Y-90867000D01*
X156020000Y-90867000D01*
X156020000Y-91949000D01*
G37*
G36*
X160525000Y-91299000D02*
G01*
X158223000Y-91299000D01*
X158223000Y-90197000D01*
X160525000Y-90197000D01*
X160525000Y-91299000D01*
G37*
G36*
X152940000Y-90674000D02*
G01*
X151388000Y-90674000D01*
X151388000Y-89922000D01*
X152940000Y-89922000D01*
X152940000Y-90674000D01*
G37*
G36*
X166220000Y-90564000D02*
G01*
X164668000Y-90564000D01*
X164668000Y-89812000D01*
X166220000Y-89812000D01*
X166220000Y-90564000D01*
G37*
G36*
X183748794Y-88068155D02*
G01*
X183855150Y-88089311D01*
X184055520Y-88172307D01*
X184235844Y-88292795D01*
X184389205Y-88446156D01*
X184509693Y-88626480D01*
X184592689Y-88826851D01*
X184635000Y-89039560D01*
X184635000Y-89256440D01*
X184592689Y-89469149D01*
X184509693Y-89669520D01*
X184389205Y-89849844D01*
X184235844Y-90003205D01*
X184055520Y-90123693D01*
X183955334Y-90165191D01*
X183855150Y-90206689D01*
X183748794Y-90227845D01*
X183642440Y-90249000D01*
X183425560Y-90249000D01*
X183319206Y-90227845D01*
X183212850Y-90206689D01*
X183012480Y-90123693D01*
X182832156Y-90003205D01*
X182678795Y-89849844D01*
X182558307Y-89669520D01*
X182475311Y-89469149D01*
X182433000Y-89256440D01*
X182433000Y-89039560D01*
X182475311Y-88826851D01*
X182558307Y-88626480D01*
X182678795Y-88446156D01*
X182832156Y-88292795D01*
X183012480Y-88172307D01*
X183212850Y-88089311D01*
X183319206Y-88068155D01*
X183425560Y-88047000D01*
X183642440Y-88047000D01*
X183748794Y-88068155D01*
G37*
G36*
X176738794Y-88068155D02*
G01*
X176845150Y-88089311D01*
X177045520Y-88172307D01*
X177225844Y-88292795D01*
X177379205Y-88446156D01*
X177499693Y-88626480D01*
X177582689Y-88826851D01*
X177625000Y-89039560D01*
X177625000Y-89256440D01*
X177582689Y-89469149D01*
X177499693Y-89669520D01*
X177379205Y-89849844D01*
X177225844Y-90003205D01*
X177045520Y-90123693D01*
X176945334Y-90165191D01*
X176845150Y-90206689D01*
X176738794Y-90227845D01*
X176632440Y-90249000D01*
X176415560Y-90249000D01*
X176309206Y-90227845D01*
X176202850Y-90206689D01*
X176002480Y-90123693D01*
X175822156Y-90003205D01*
X175668795Y-89849844D01*
X175548307Y-89669520D01*
X175465311Y-89469149D01*
X175423000Y-89256440D01*
X175423000Y-89039560D01*
X175465311Y-88826851D01*
X175548307Y-88626480D01*
X175668795Y-88446156D01*
X175822156Y-88292795D01*
X176002480Y-88172307D01*
X176202850Y-88089311D01*
X176309206Y-88068155D01*
X176415560Y-88047000D01*
X176632440Y-88047000D01*
X176738794Y-88068155D01*
G37*
G36*
X180150000Y-89764000D02*
G01*
X179398000Y-89764000D01*
X179398000Y-88212000D01*
X180150000Y-88212000D01*
X180150000Y-89764000D01*
G37*
G36*
X181680000Y-89764000D02*
G01*
X180928000Y-89764000D01*
X180928000Y-88212000D01*
X181680000Y-88212000D01*
X181680000Y-89764000D01*
G37*
G36*
X182544104Y-85767585D02*
G01*
X182712626Y-85837389D01*
X182864291Y-85938728D01*
X182993272Y-86067709D01*
X183094611Y-86219374D01*
X183164415Y-86387896D01*
X183200000Y-86566797D01*
X183200000Y-86749203D01*
X183164415Y-86928104D01*
X183094611Y-87096626D01*
X182993272Y-87248291D01*
X182864291Y-87377272D01*
X182712626Y-87478611D01*
X182544104Y-87548415D01*
X182365203Y-87584000D01*
X182182797Y-87584000D01*
X182003896Y-87548415D01*
X181835374Y-87478611D01*
X181683709Y-87377272D01*
X181554728Y-87248291D01*
X181453389Y-87096626D01*
X181383585Y-86928104D01*
X181348000Y-86749203D01*
X181348000Y-86566797D01*
X181383585Y-86387896D01*
X181453389Y-86219374D01*
X181554728Y-86067709D01*
X181683709Y-85938728D01*
X181835374Y-85837389D01*
X182003896Y-85767585D01*
X182182797Y-85732000D01*
X182365203Y-85732000D01*
X182544104Y-85767585D01*
G37*
G36*
X178044104Y-85767585D02*
G01*
X178212626Y-85837389D01*
X178364291Y-85938728D01*
X178493272Y-86067709D01*
X178594611Y-86219374D01*
X178664415Y-86387896D01*
X178700000Y-86566797D01*
X178700000Y-86749203D01*
X178664415Y-86928104D01*
X178594611Y-87096626D01*
X178493272Y-87248291D01*
X178364291Y-87377272D01*
X178212626Y-87478611D01*
X178044104Y-87548415D01*
X177865203Y-87584000D01*
X177682797Y-87584000D01*
X177503896Y-87548415D01*
X177335374Y-87478611D01*
X177183709Y-87377272D01*
X177054728Y-87248291D01*
X176953389Y-87096626D01*
X176883585Y-86928104D01*
X176848000Y-86749203D01*
X176848000Y-86566797D01*
X176883585Y-86387896D01*
X176953389Y-86219374D01*
X177054728Y-86067709D01*
X177183709Y-85938728D01*
X177335374Y-85837389D01*
X177503896Y-85767585D01*
X177682797Y-85732000D01*
X177865203Y-85732000D01*
X178044104Y-85767585D01*
G37*
G36*
X155245000Y-86269000D02*
G01*
X153443000Y-86269000D01*
X153443000Y-84467000D01*
X155245000Y-84467000D01*
X155245000Y-86269000D01*
G37*
G36*
X156997512Y-84471927D02*
G01*
X157146812Y-84501624D01*
X157310784Y-84569544D01*
X157458354Y-84668147D01*
X157583853Y-84793646D01*
X157682456Y-84941216D01*
X157750376Y-85105188D01*
X157785000Y-85279259D01*
X157785000Y-85456741D01*
X157750376Y-85630812D01*
X157682456Y-85794784D01*
X157583853Y-85942354D01*
X157458354Y-86067853D01*
X157310784Y-86166456D01*
X157146812Y-86234376D01*
X156997512Y-86264073D01*
X156972742Y-86269000D01*
X156795258Y-86269000D01*
X156770488Y-86264073D01*
X156621188Y-86234376D01*
X156457216Y-86166456D01*
X156309646Y-86067853D01*
X156184147Y-85942354D01*
X156085544Y-85794784D01*
X156017624Y-85630812D01*
X155983000Y-85456741D01*
X155983000Y-85279259D01*
X156017624Y-85105188D01*
X156085544Y-84941216D01*
X156184147Y-84793646D01*
X156309646Y-84668147D01*
X156457216Y-84569544D01*
X156621188Y-84501624D01*
X156770488Y-84471927D01*
X156795258Y-84467000D01*
X156972742Y-84467000D01*
X156997512Y-84471927D01*
G37*
G36*
X159537512Y-84471927D02*
G01*
X159686812Y-84501624D01*
X159850784Y-84569544D01*
X159998354Y-84668147D01*
X160123853Y-84793646D01*
X160222456Y-84941216D01*
X160290376Y-85105188D01*
X160325000Y-85279259D01*
X160325000Y-85456741D01*
X160290376Y-85630812D01*
X160222456Y-85794784D01*
X160123853Y-85942354D01*
X159998354Y-86067853D01*
X159850784Y-86166456D01*
X159686812Y-86234376D01*
X159537512Y-86264073D01*
X159512742Y-86269000D01*
X159335258Y-86269000D01*
X159310488Y-86264073D01*
X159161188Y-86234376D01*
X158997216Y-86166456D01*
X158849646Y-86067853D01*
X158724147Y-85942354D01*
X158625544Y-85794784D01*
X158557624Y-85630812D01*
X158523000Y-85456741D01*
X158523000Y-85279259D01*
X158557624Y-85105188D01*
X158625544Y-84941216D01*
X158724147Y-84793646D01*
X158849646Y-84668147D01*
X158997216Y-84569544D01*
X159161188Y-84501624D01*
X159310488Y-84471927D01*
X159335258Y-84467000D01*
X159512742Y-84467000D01*
X159537512Y-84471927D01*
G37*
G36*
X162077512Y-84471927D02*
G01*
X162226812Y-84501624D01*
X162390784Y-84569544D01*
X162538354Y-84668147D01*
X162663853Y-84793646D01*
X162762456Y-84941216D01*
X162830376Y-85105188D01*
X162865000Y-85279259D01*
X162865000Y-85456741D01*
X162830376Y-85630812D01*
X162762456Y-85794784D01*
X162663853Y-85942354D01*
X162538354Y-86067853D01*
X162390784Y-86166456D01*
X162226812Y-86234376D01*
X162077512Y-86264073D01*
X162052742Y-86269000D01*
X161875258Y-86269000D01*
X161850488Y-86264073D01*
X161701188Y-86234376D01*
X161537216Y-86166456D01*
X161389646Y-86067853D01*
X161264147Y-85942354D01*
X161165544Y-85794784D01*
X161097624Y-85630812D01*
X161063000Y-85456741D01*
X161063000Y-85279259D01*
X161097624Y-85105188D01*
X161165544Y-84941216D01*
X161264147Y-84793646D01*
X161389646Y-84668147D01*
X161537216Y-84569544D01*
X161701188Y-84501624D01*
X161850488Y-84471927D01*
X161875258Y-84467000D01*
X162052742Y-84467000D01*
X162077512Y-84471927D01*
G37*
G36*
X174777512Y-84471927D02*
G01*
X174926812Y-84501624D01*
X175090784Y-84569544D01*
X175238354Y-84668147D01*
X175363853Y-84793646D01*
X175462456Y-84941216D01*
X175530376Y-85105188D01*
X175565000Y-85279259D01*
X175565000Y-85456741D01*
X175530376Y-85630812D01*
X175462456Y-85794784D01*
X175363853Y-85942354D01*
X175238354Y-86067853D01*
X175090784Y-86166456D01*
X174926812Y-86234376D01*
X174777512Y-86264073D01*
X174752742Y-86269000D01*
X174575258Y-86269000D01*
X174550488Y-86264073D01*
X174401188Y-86234376D01*
X174237216Y-86166456D01*
X174089646Y-86067853D01*
X173964147Y-85942354D01*
X173865544Y-85794784D01*
X173797624Y-85630812D01*
X173763000Y-85456741D01*
X173763000Y-85279259D01*
X173797624Y-85105188D01*
X173865544Y-84941216D01*
X173964147Y-84793646D01*
X174089646Y-84668147D01*
X174237216Y-84569544D01*
X174401188Y-84501624D01*
X174550488Y-84471927D01*
X174575258Y-84467000D01*
X174752742Y-84467000D01*
X174777512Y-84471927D01*
G37*
G36*
X172237512Y-84471927D02*
G01*
X172386812Y-84501624D01*
X172550784Y-84569544D01*
X172698354Y-84668147D01*
X172823853Y-84793646D01*
X172922456Y-84941216D01*
X172990376Y-85105188D01*
X173025000Y-85279259D01*
X173025000Y-85456741D01*
X172990376Y-85630812D01*
X172922456Y-85794784D01*
X172823853Y-85942354D01*
X172698354Y-86067853D01*
X172550784Y-86166456D01*
X172386812Y-86234376D01*
X172237512Y-86264073D01*
X172212742Y-86269000D01*
X172035258Y-86269000D01*
X172010488Y-86264073D01*
X171861188Y-86234376D01*
X171697216Y-86166456D01*
X171549646Y-86067853D01*
X171424147Y-85942354D01*
X171325544Y-85794784D01*
X171257624Y-85630812D01*
X171223000Y-85456741D01*
X171223000Y-85279259D01*
X171257624Y-85105188D01*
X171325544Y-84941216D01*
X171424147Y-84793646D01*
X171549646Y-84668147D01*
X171697216Y-84569544D01*
X171861188Y-84501624D01*
X172010488Y-84471927D01*
X172035258Y-84467000D01*
X172212742Y-84467000D01*
X172237512Y-84471927D01*
G37*
G36*
X164617512Y-84471927D02*
G01*
X164766812Y-84501624D01*
X164930784Y-84569544D01*
X165078354Y-84668147D01*
X165203853Y-84793646D01*
X165302456Y-84941216D01*
X165370376Y-85105188D01*
X165405000Y-85279259D01*
X165405000Y-85456741D01*
X165370376Y-85630812D01*
X165302456Y-85794784D01*
X165203853Y-85942354D01*
X165078354Y-86067853D01*
X164930784Y-86166456D01*
X164766812Y-86234376D01*
X164617512Y-86264073D01*
X164592742Y-86269000D01*
X164415258Y-86269000D01*
X164390488Y-86264073D01*
X164241188Y-86234376D01*
X164077216Y-86166456D01*
X163929646Y-86067853D01*
X163804147Y-85942354D01*
X163705544Y-85794784D01*
X163637624Y-85630812D01*
X163603000Y-85456741D01*
X163603000Y-85279259D01*
X163637624Y-85105188D01*
X163705544Y-84941216D01*
X163804147Y-84793646D01*
X163929646Y-84668147D01*
X164077216Y-84569544D01*
X164241188Y-84501624D01*
X164390488Y-84471927D01*
X164415258Y-84467000D01*
X164592742Y-84467000D01*
X164617512Y-84471927D01*
G37*
G36*
X167157512Y-84471927D02*
G01*
X167306812Y-84501624D01*
X167470784Y-84569544D01*
X167618354Y-84668147D01*
X167743853Y-84793646D01*
X167842456Y-84941216D01*
X167910376Y-85105188D01*
X167945000Y-85279259D01*
X167945000Y-85456741D01*
X167910376Y-85630812D01*
X167842456Y-85794784D01*
X167743853Y-85942354D01*
X167618354Y-86067853D01*
X167470784Y-86166456D01*
X167306812Y-86234376D01*
X167157512Y-86264073D01*
X167132742Y-86269000D01*
X166955258Y-86269000D01*
X166930488Y-86264073D01*
X166781188Y-86234376D01*
X166617216Y-86166456D01*
X166469646Y-86067853D01*
X166344147Y-85942354D01*
X166245544Y-85794784D01*
X166177624Y-85630812D01*
X166143000Y-85456741D01*
X166143000Y-85279259D01*
X166177624Y-85105188D01*
X166245544Y-84941216D01*
X166344147Y-84793646D01*
X166469646Y-84668147D01*
X166617216Y-84569544D01*
X166781188Y-84501624D01*
X166930488Y-84471927D01*
X166955258Y-84467000D01*
X167132742Y-84467000D01*
X167157512Y-84471927D01*
G37*
G36*
X169697512Y-84471927D02*
G01*
X169846812Y-84501624D01*
X170010784Y-84569544D01*
X170158354Y-84668147D01*
X170283853Y-84793646D01*
X170382456Y-84941216D01*
X170450376Y-85105188D01*
X170485000Y-85279259D01*
X170485000Y-85456741D01*
X170450376Y-85630812D01*
X170382456Y-85794784D01*
X170283853Y-85942354D01*
X170158354Y-86067853D01*
X170010784Y-86166456D01*
X169846812Y-86234376D01*
X169697512Y-86264073D01*
X169672742Y-86269000D01*
X169495258Y-86269000D01*
X169470488Y-86264073D01*
X169321188Y-86234376D01*
X169157216Y-86166456D01*
X169009646Y-86067853D01*
X168884147Y-85942354D01*
X168785544Y-85794784D01*
X168717624Y-85630812D01*
X168683000Y-85456741D01*
X168683000Y-85279259D01*
X168717624Y-85105188D01*
X168785544Y-84941216D01*
X168884147Y-84793646D01*
X169009646Y-84668147D01*
X169157216Y-84569544D01*
X169321188Y-84501624D01*
X169470488Y-84471927D01*
X169495258Y-84467000D01*
X169672742Y-84467000D01*
X169697512Y-84471927D01*
G37*
M02*
