M48
; DRILL file {KiCad 5.1.5-52549c5~84~ubuntu18.04.1} date 2019年11月30日 星期六 22时40分02秒
; FORMAT={-:-/ absolute / inch / decimal}
; #@! TF.CreationDate,2019-11-30T22:40:02+08:00
; #@! TF.GenerationSoftware,Kicad,Pcbnew,5.1.5-52549c5~84~ubuntu18.04.1
; #@! TF.FileFunction,Plated,1,2,PTH
FMAT,2
INCH
T1C0.0118
T2C0.0236
T3C0.0354
T4C0.0390
T5C0.0394
T6C0.0512
T7C0.1299
%
G90
G05
T1
X6.0183Y-4.1377
X6.0572Y-3.6854
X6.0572Y-3.7515
X6.2242Y-3.8574
X6.2872Y-3.896
X6.299Y-3.9936
X6.3309Y-4.0708
X6.3309Y-4.1121
X6.375Y-3.5728
X6.3919Y-3.9373
X6.46Y-3.8688
X6.4817Y-4.0145
X6.4958Y-3.5106
X6.4973Y-4.1003
X6.4978Y-4.046
X6.5004Y-3.9454
X6.5108Y-3.622
X6.5108Y-3.6633
X6.5108Y-3.7054
X6.5903Y-3.9519
X6.6252Y-3.9439
X6.6289Y-3.9113
X6.644Y-4.1639
X6.6603Y-3.9093
X6.6825Y-4.0376
X6.6849Y-3.9333
X6.6915Y-4.1755
X6.7021Y-4.0623
X6.7233Y-4.0885
X6.7604Y-3.8137
X6.7659Y-4.2633
X6.766Y-4.1744
X6.8037Y-4.0131
X6.8053Y-3.9677
X6.8092Y-3.7129
X6.8357Y-3.9596
X6.846Y-3.6442
X6.9494Y-4.1413
X7.0088Y-3.5499
X7.0092Y-3.6617
X7.0104Y-3.7167
X7.0458Y-3.5625
X7.0527Y-4.1125
X7.0746Y-3.6674
X7.1407Y-4.1657
X7.1411Y-4.031
X7.1958Y-4.1661
X7.1962Y-4.031
X7.2171Y-4.2287
X7.2517Y-4.031
X7.2521Y-4.1661
X7.2557Y-3.4523
X7.2797Y-3.6216
T3
X7.1242Y-3.7873
X7.1742Y-3.7873
X7.2242Y-3.7873
X7.2742Y-3.7873
T4
X6.999Y-3.4117
X7.1761Y-3.4117
T5
X6.0553Y-4.2208
X6.1553Y-4.2208
X6.2553Y-4.2208
X6.3553Y-4.2208
X6.4553Y-4.2208
X6.5553Y-4.2208
X7.3608Y-3.592
X7.3608Y-3.692
X7.3608Y-3.792
X7.3608Y-3.892
X7.3608Y-3.992
X7.4608Y-3.592
X7.4608Y-3.692
X7.4608Y-3.792
X7.4608Y-3.892
X7.4608Y-3.992
X6.0765Y-3.3609
X6.1765Y-3.3609
X6.2765Y-3.3609
X6.3765Y-3.3609
X6.4765Y-3.3609
X6.5765Y-3.3609
X6.6765Y-3.3609
X6.7765Y-3.3609
X6.8765Y-3.3609
T6
X6.9498Y-3.5098
X7.2257Y-3.5098
T7
X5.8647Y-3.42
X5.8647Y-4.168
X7.4002Y-3.42
X7.4002Y-4.168
T2
G00X5.8009Y-3.6432
M15
G01X5.8324Y-3.6432
M16
G05
G00X5.8009Y-3.9834
M15
G01X5.8324Y-3.9834
M16
G05
G00X5.9592Y-3.6432
M15
G01X6.0025Y-3.6432
M16
G05
G00X5.9592Y-3.9834
M15
G01X6.0025Y-3.9834
M16
G05
T0
M30
