M48
; DRILL file {KiCad 5.1.4-e60b266~84~ubuntu18.04.1} date 2019年11月09日 星期六 00时06分40秒
; FORMAT={-:-/ absolute / inch / decimal}
; #@! TF.CreationDate,2019-11-09T00:06:40+08:00
; #@! TF.GenerationSoftware,Kicad,Pcbnew,5.1.4-e60b266~84~ubuntu18.04.1
; #@! TF.FileFunction,Plated,1,2,PTH
FMAT,2
INCH
T1C0.0118
T2C0.0236
T3C0.0354
T4C0.0390
T5C0.0394
T6C0.0512
T7C0.1299
%
G90
G05
T1
X6.096Y-3.8924
X6.1212Y-3.7289
X6.2033Y-3.9161
X6.2112Y-4.1326
X6.223Y-3.7257
X6.2289Y-3.5999
X6.2364Y-3.8401
X6.237Y-3.7871
X6.2635Y-3.5831
X6.2663Y-3.9318
X6.2663Y-4.0972
X6.299Y-3.5472
X6.3153Y-3.8728
X6.3269Y-3.7322
X6.3387Y-3.6235
X6.3435Y-3.5082
X6.4065Y-3.9653
X6.408Y-4.1326
X6.48Y-3.6561
X6.4848Y-3.572
X6.5159Y-3.8172
X6.5191Y-3.5968
X6.5202Y-3.7257
X6.5265Y-4.0641
X6.5639Y-3.568
X6.5974Y-3.5212
X6.6437Y-3.6372
X6.6549Y-4.1913
X6.6561Y-3.7035
X6.6659Y-3.6609
X6.6781Y-3.7476
X6.6814Y-3.779
X6.695Y-3.8113
X6.7301Y-3.809
X6.7547Y-3.7495
X6.7808Y-3.8002
X6.8039Y-3.8216
X6.807Y-3.9289
X6.8403Y-4.1917
X6.8486Y-3.9283
X6.9234Y-3.5692
X6.9624Y-3.8641
X7.0738Y-3.5499
X7.0832Y-3.6228
X7.0836Y-3.6897
X7.1175Y-4.1657
X7.1254Y-4.2633
X7.1305Y-3.9558
X7.1529Y-3.4413
X7.1663Y-4.0928
X7.2025Y-3.9562
X7.2072Y-4.194
X7.2324Y-3.6043
X7.2702Y-3.9515
T3
X6.2958Y-3.8141
X6.3458Y-3.8141
X6.3958Y-3.8141
X6.4458Y-3.8141
T4
X7.0419Y-3.4121
X7.2191Y-3.4121
T5
X6.4553Y-4.2023
X6.5553Y-4.2023
X7.3592Y-3.594
X7.3592Y-3.694
X7.3592Y-3.794
X7.3592Y-3.894
X7.3592Y-3.994
X7.4592Y-3.594
X7.4592Y-3.694
X7.4592Y-3.794
X7.4592Y-3.894
X7.4592Y-3.994
X6.0198Y-3.3609
X6.1198Y-3.3609
X6.2198Y-3.3609
X6.3198Y-3.3609
X6.4198Y-3.3609
X6.5198Y-3.3609
X6.6198Y-3.3609
X6.7198Y-3.3609
X6.8198Y-3.3609
X6.9198Y-3.3609
X6.0399Y-4.2031
X6.1399Y-4.2031
X6.2399Y-4.2031
X6.3399Y-4.2031
T6
X6.9927Y-3.5102
X7.2687Y-3.5102
T7
X5.8647Y-3.42
X5.8647Y-4.168
X7.4002Y-3.42
X7.4002Y-4.168
T2
G00X5.832Y-3.6436
M15
G01X5.8635Y-3.6436
M16
G05
G00X5.832Y-3.9838
M15
G01X5.8635Y-3.9838
M16
G05
G00X5.9903Y-3.6436
M15
G01X6.0336Y-3.6436
M16
G05
G00X5.9903Y-3.9838
M15
G01X6.0336Y-3.9838
M16
G05
T0
M30
