G04 #@! TF.GenerationSoftware,KiCad,Pcbnew,5.1.4-e60b266~84~ubuntu18.04.1*
G04 #@! TF.CreationDate,2019-11-09T00:06:31+08:00*
G04 #@! TF.ProjectId,dap-stm32f103,6461702d-7374-46d3-9332-663130332e6b,rev?*
G04 #@! TF.SameCoordinates,Original*
G04 #@! TF.FileFunction,Legend,Bot*
G04 #@! TF.FilePolarity,Positive*
%FSLAX46Y46*%
G04 Gerber Fmt 4.6, Leading zero omitted, Abs format (unit mm)*
G04 Created by KiCad (PCBNEW 5.1.4-e60b266~84~ubuntu18.04.1) date 2019-11-09 00:06:31*
%MOMM*%
%LPD*%
G04 APERTURE LIST*
%ADD10C,0.150000*%
%ADD11C,0.120000*%
G04 APERTURE END LIST*
D10*
X174873523Y-87168000D02*
X174968761Y-87120380D01*
X175111619Y-87120380D01*
X175254476Y-87168000D01*
X175349714Y-87263238D01*
X175397333Y-87358476D01*
X175444952Y-87548952D01*
X175444952Y-87691809D01*
X175397333Y-87882285D01*
X175349714Y-87977523D01*
X175254476Y-88072761D01*
X175111619Y-88120380D01*
X175016380Y-88120380D01*
X174873523Y-88072761D01*
X174825904Y-88025142D01*
X174825904Y-87691809D01*
X175016380Y-87691809D01*
X174397333Y-88120380D02*
X174397333Y-87453714D01*
X174397333Y-87120380D02*
X174444952Y-87168000D01*
X174397333Y-87215619D01*
X174349714Y-87168000D01*
X174397333Y-87120380D01*
X174397333Y-87215619D01*
X174064000Y-87453714D02*
X173683047Y-87453714D01*
X173921142Y-87120380D02*
X173921142Y-87977523D01*
X173873523Y-88072761D01*
X173778285Y-88120380D01*
X173683047Y-88120380D01*
X173349714Y-88120380D02*
X173349714Y-87120380D01*
X173349714Y-87596571D02*
X172778285Y-87596571D01*
X172778285Y-88120380D02*
X172778285Y-87120380D01*
X171873523Y-87453714D02*
X171873523Y-88120380D01*
X172302095Y-87453714D02*
X172302095Y-87977523D01*
X172254476Y-88072761D01*
X172159238Y-88120380D01*
X172016380Y-88120380D01*
X171921142Y-88072761D01*
X171873523Y-88025142D01*
X171397333Y-88120380D02*
X171397333Y-87120380D01*
X171397333Y-87501333D02*
X171302095Y-87453714D01*
X171111619Y-87453714D01*
X171016380Y-87501333D01*
X170968761Y-87548952D01*
X170921142Y-87644190D01*
X170921142Y-87929904D01*
X170968761Y-88025142D01*
X171016380Y-88072761D01*
X171111619Y-88120380D01*
X171302095Y-88120380D01*
X171397333Y-88072761D01*
X170492571Y-88025142D02*
X170444952Y-88072761D01*
X170492571Y-88120380D01*
X170540190Y-88072761D01*
X170492571Y-88025142D01*
X170492571Y-88120380D01*
X170492571Y-87501333D02*
X170444952Y-87548952D01*
X170492571Y-87596571D01*
X170540190Y-87548952D01*
X170492571Y-87501333D01*
X170492571Y-87596571D01*
X170016380Y-88120380D02*
X170016380Y-87120380D01*
X170016380Y-87501333D02*
X169921142Y-87453714D01*
X169730666Y-87453714D01*
X169635428Y-87501333D01*
X169587809Y-87548952D01*
X169540190Y-87644190D01*
X169540190Y-87929904D01*
X169587809Y-88025142D01*
X169635428Y-88072761D01*
X169730666Y-88120380D01*
X169921142Y-88120380D01*
X170016380Y-88072761D01*
X168683047Y-88120380D02*
X168683047Y-87596571D01*
X168730666Y-87501333D01*
X168825904Y-87453714D01*
X169016380Y-87453714D01*
X169111619Y-87501333D01*
X168683047Y-88072761D02*
X168778285Y-88120380D01*
X169016380Y-88120380D01*
X169111619Y-88072761D01*
X169159238Y-87977523D01*
X169159238Y-87882285D01*
X169111619Y-87787047D01*
X169016380Y-87739428D01*
X168778285Y-87739428D01*
X168683047Y-87691809D01*
X168064000Y-88120380D02*
X168159238Y-88072761D01*
X168206857Y-87977523D01*
X168206857Y-87120380D01*
X167254476Y-88120380D02*
X167254476Y-87596571D01*
X167302095Y-87501333D01*
X167397333Y-87453714D01*
X167587809Y-87453714D01*
X167683047Y-87501333D01*
X167254476Y-88072761D02*
X167349714Y-88120380D01*
X167587809Y-88120380D01*
X167683047Y-88072761D01*
X167730666Y-87977523D01*
X167730666Y-87882285D01*
X167683047Y-87787047D01*
X167587809Y-87739428D01*
X167349714Y-87739428D01*
X167254476Y-87691809D01*
X166778285Y-87453714D02*
X166778285Y-88120380D01*
X166778285Y-87548952D02*
X166730666Y-87501333D01*
X166635428Y-87453714D01*
X166492571Y-87453714D01*
X166397333Y-87501333D01*
X166349714Y-87596571D01*
X166349714Y-88120380D01*
X165444952Y-88072761D02*
X165540190Y-88120380D01*
X165730666Y-88120380D01*
X165825904Y-88072761D01*
X165873523Y-88025142D01*
X165921142Y-87929904D01*
X165921142Y-87644190D01*
X165873523Y-87548952D01*
X165825904Y-87501333D01*
X165730666Y-87453714D01*
X165540190Y-87453714D01*
X165444952Y-87501333D01*
X164635428Y-88072761D02*
X164730666Y-88120380D01*
X164921142Y-88120380D01*
X165016380Y-88072761D01*
X165064000Y-87977523D01*
X165064000Y-87596571D01*
X165016380Y-87501333D01*
X164921142Y-87453714D01*
X164730666Y-87453714D01*
X164635428Y-87501333D01*
X164587809Y-87596571D01*
X164587809Y-87691809D01*
X165064000Y-87787047D01*
X164302095Y-87120380D02*
X163730666Y-87120380D01*
X164016380Y-88120380D02*
X164016380Y-87120380D01*
X163492571Y-87120380D02*
X163254476Y-88120380D01*
X163064000Y-87406095D01*
X162873523Y-88120380D01*
X162635428Y-87120380D01*
X162254476Y-88120380D02*
X162254476Y-87120380D01*
X161683047Y-88120380D02*
X162111619Y-87548952D01*
X161683047Y-87120380D02*
X162254476Y-87691809D01*
D11*
X159259000Y-95798000D02*
X159259000Y-95333000D01*
X159259000Y-98423000D02*
X159259000Y-97958000D01*
X164073479Y-95797571D02*
G75*
G03X159564316Y-95798000I-2254479J-1080429D01*
G01*
X164073479Y-97958429D02*
G75*
G02X159564316Y-97958000I-2254479J1080429D01*
G01*
X164606815Y-95797173D02*
G75*
G03X159259000Y-95333170I-2787815J-1080827D01*
G01*
X164606815Y-97958827D02*
G75*
G02X159259000Y-98422830I-2787815J1080827D01*
G01*
D10*
X177730666Y-105925142D02*
X177778285Y-105972761D01*
X177921142Y-106020380D01*
X178016380Y-106020380D01*
X178159238Y-105972761D01*
X178254476Y-105877523D01*
X178302095Y-105782285D01*
X178349714Y-105591809D01*
X178349714Y-105448952D01*
X178302095Y-105258476D01*
X178254476Y-105163238D01*
X178159238Y-105068000D01*
X178016380Y-105020380D01*
X177921142Y-105020380D01*
X177778285Y-105068000D01*
X177730666Y-105115619D01*
X177159238Y-105448952D02*
X177254476Y-105401333D01*
X177302095Y-105353714D01*
X177349714Y-105258476D01*
X177349714Y-105210857D01*
X177302095Y-105115619D01*
X177254476Y-105068000D01*
X177159238Y-105020380D01*
X176968761Y-105020380D01*
X176873523Y-105068000D01*
X176825904Y-105115619D01*
X176778285Y-105210857D01*
X176778285Y-105258476D01*
X176825904Y-105353714D01*
X176873523Y-105401333D01*
X176968761Y-105448952D01*
X177159238Y-105448952D01*
X177254476Y-105496571D01*
X177302095Y-105544190D01*
X177349714Y-105639428D01*
X177349714Y-105829904D01*
X177302095Y-105925142D01*
X177254476Y-105972761D01*
X177159238Y-106020380D01*
X176968761Y-106020380D01*
X176873523Y-105972761D01*
X176825904Y-105925142D01*
X176778285Y-105829904D01*
X176778285Y-105639428D01*
X176825904Y-105544190D01*
X176873523Y-105496571D01*
X176968761Y-105448952D01*
X158497333Y-105120380D02*
X158497333Y-104120380D01*
X157687809Y-104596571D02*
X158021142Y-104596571D01*
X158021142Y-105120380D02*
X158021142Y-104120380D01*
X157544952Y-104120380D01*
X157402095Y-105215619D02*
X156640190Y-105215619D01*
X156449714Y-105072761D02*
X156306857Y-105120380D01*
X156068761Y-105120380D01*
X155973523Y-105072761D01*
X155925904Y-105025142D01*
X155878285Y-104929904D01*
X155878285Y-104834666D01*
X155925904Y-104739428D01*
X155973523Y-104691809D01*
X156068761Y-104644190D01*
X156259238Y-104596571D01*
X156354476Y-104548952D01*
X156402095Y-104501333D01*
X156449714Y-104406095D01*
X156449714Y-104310857D01*
X156402095Y-104215619D01*
X156354476Y-104168000D01*
X156259238Y-104120380D01*
X156021142Y-104120380D01*
X155878285Y-104168000D01*
X155544952Y-104120380D02*
X155306857Y-105120380D01*
X155116380Y-104406095D01*
X154925904Y-105120380D01*
X154687809Y-104120380D01*
X154306857Y-105120380D02*
X154306857Y-104120380D01*
X154068761Y-104120380D01*
X153925904Y-104168000D01*
X153830666Y-104263238D01*
X153783047Y-104358476D01*
X153735428Y-104548952D01*
X153735428Y-104691809D01*
X153783047Y-104882285D01*
X153830666Y-104977523D01*
X153925904Y-105072761D01*
X154068761Y-105120380D01*
X154306857Y-105120380D01*
X152783047Y-105120380D02*
X153354476Y-105120380D01*
X153068761Y-105120380D02*
X153068761Y-104120380D01*
X153164000Y-104263238D01*
X153259238Y-104358476D01*
X153354476Y-104406095D01*
X182197333Y-86072761D02*
X182054476Y-86120380D01*
X181816380Y-86120380D01*
X181721142Y-86072761D01*
X181673523Y-86025142D01*
X181625904Y-85929904D01*
X181625904Y-85834666D01*
X181673523Y-85739428D01*
X181721142Y-85691809D01*
X181816380Y-85644190D01*
X182006857Y-85596571D01*
X182102095Y-85548952D01*
X182149714Y-85501333D01*
X182197333Y-85406095D01*
X182197333Y-85310857D01*
X182149714Y-85215619D01*
X182102095Y-85168000D01*
X182006857Y-85120380D01*
X181768761Y-85120380D01*
X181625904Y-85168000D01*
X181292571Y-85120380D02*
X181054476Y-86120380D01*
X180864000Y-85406095D01*
X180673523Y-86120380D01*
X180435428Y-85120380D01*
X179530666Y-86120380D02*
X180102095Y-86120380D01*
X179816380Y-86120380D02*
X179816380Y-85120380D01*
X179911619Y-85263238D01*
X180006857Y-85358476D01*
X180102095Y-85406095D01*
X162706857Y-95220380D02*
X163040190Y-94744190D01*
X163278285Y-95220380D02*
X163278285Y-94220380D01*
X162897333Y-94220380D01*
X162802095Y-94268000D01*
X162754476Y-94315619D01*
X162706857Y-94410857D01*
X162706857Y-94553714D01*
X162754476Y-94648952D01*
X162802095Y-94696571D01*
X162897333Y-94744190D01*
X163278285Y-94744190D01*
X161754476Y-95220380D02*
X162325904Y-95220380D01*
X162040190Y-95220380D02*
X162040190Y-94220380D01*
X162135428Y-94363238D01*
X162230666Y-94458476D01*
X162325904Y-94506095D01*
X161373523Y-94315619D02*
X161325904Y-94268000D01*
X161230666Y-94220380D01*
X160992571Y-94220380D01*
X160897333Y-94268000D01*
X160849714Y-94315619D01*
X160802095Y-94410857D01*
X160802095Y-94506095D01*
X160849714Y-94648952D01*
X161421142Y-95220380D01*
X160802095Y-95220380D01*
X164806857Y-99220380D02*
X165140190Y-98744190D01*
X165378285Y-99220380D02*
X165378285Y-98220380D01*
X164997333Y-98220380D01*
X164902095Y-98268000D01*
X164854476Y-98315619D01*
X164806857Y-98410857D01*
X164806857Y-98553714D01*
X164854476Y-98648952D01*
X164902095Y-98696571D01*
X164997333Y-98744190D01*
X165378285Y-98744190D01*
X163854476Y-99220380D02*
X164425904Y-99220380D01*
X164140190Y-99220380D02*
X164140190Y-98220380D01*
X164235428Y-98363238D01*
X164330666Y-98458476D01*
X164425904Y-98506095D01*
X162902095Y-99220380D02*
X163473523Y-99220380D01*
X163187809Y-99220380D02*
X163187809Y-98220380D01*
X163283047Y-98363238D01*
X163378285Y-98458476D01*
X163473523Y-98506095D01*
X159906857Y-95320380D02*
X160240190Y-94844190D01*
X160478285Y-95320380D02*
X160478285Y-94320380D01*
X160097333Y-94320380D01*
X160002095Y-94368000D01*
X159954476Y-94415619D01*
X159906857Y-94510857D01*
X159906857Y-94653714D01*
X159954476Y-94748952D01*
X160002095Y-94796571D01*
X160097333Y-94844190D01*
X160478285Y-94844190D01*
X158954476Y-95320380D02*
X159525904Y-95320380D01*
X159240190Y-95320380D02*
X159240190Y-94320380D01*
X159335428Y-94463238D01*
X159430666Y-94558476D01*
X159525904Y-94606095D01*
X158335428Y-94320380D02*
X158240190Y-94320380D01*
X158144952Y-94368000D01*
X158097333Y-94415619D01*
X158049714Y-94510857D01*
X158002095Y-94701333D01*
X158002095Y-94939428D01*
X158049714Y-95129904D01*
X158097333Y-95225142D01*
X158144952Y-95272761D01*
X158240190Y-95320380D01*
X158335428Y-95320380D01*
X158430666Y-95272761D01*
X158478285Y-95225142D01*
X158525904Y-95129904D01*
X158573523Y-94939428D01*
X158573523Y-94701333D01*
X158525904Y-94510857D01*
X158478285Y-94415619D01*
X158430666Y-94368000D01*
X158335428Y-94320380D01*
X181016380Y-88801333D02*
X180540190Y-88468000D01*
X181016380Y-88229904D02*
X180016380Y-88229904D01*
X180016380Y-88610857D01*
X180064000Y-88706095D01*
X180111619Y-88753714D01*
X180206857Y-88801333D01*
X180349714Y-88801333D01*
X180444952Y-88753714D01*
X180492571Y-88706095D01*
X180540190Y-88610857D01*
X180540190Y-88229904D01*
X181016380Y-89277523D02*
X181016380Y-89468000D01*
X180968761Y-89563238D01*
X180921142Y-89610857D01*
X180778285Y-89706095D01*
X180587809Y-89753714D01*
X180206857Y-89753714D01*
X180111619Y-89706095D01*
X180064000Y-89658476D01*
X180016380Y-89563238D01*
X180016380Y-89372761D01*
X180064000Y-89277523D01*
X180111619Y-89229904D01*
X180206857Y-89182285D01*
X180444952Y-89182285D01*
X180540190Y-89229904D01*
X180587809Y-89277523D01*
X180635428Y-89372761D01*
X180635428Y-89563238D01*
X180587809Y-89658476D01*
X180540190Y-89706095D01*
X180444952Y-89753714D01*
X168216380Y-107501333D02*
X168930666Y-107501333D01*
X169073523Y-107548952D01*
X169168761Y-107644190D01*
X169216380Y-107787047D01*
X169216380Y-107882285D01*
X168549714Y-106596571D02*
X169216380Y-106596571D01*
X168168761Y-106834666D02*
X168883047Y-107072761D01*
X168883047Y-106453714D01*
X153497333Y-87020380D02*
X153497333Y-87734666D01*
X153544952Y-87877523D01*
X153640190Y-87972761D01*
X153783047Y-88020380D01*
X153878285Y-88020380D01*
X153116380Y-87020380D02*
X152497333Y-87020380D01*
X152830666Y-87401333D01*
X152687809Y-87401333D01*
X152592571Y-87448952D01*
X152544952Y-87496571D01*
X152497333Y-87591809D01*
X152497333Y-87829904D01*
X152544952Y-87925142D01*
X152592571Y-87972761D01*
X152687809Y-88020380D01*
X152973523Y-88020380D01*
X153068761Y-87972761D01*
X153116380Y-87925142D01*
X171740190Y-102744190D02*
X171740190Y-103220380D01*
X172073523Y-102220380D02*
X171740190Y-102744190D01*
X171406857Y-102220380D01*
X170549714Y-103220380D02*
X171121142Y-103220380D01*
X170835428Y-103220380D02*
X170835428Y-102220380D01*
X170930666Y-102363238D01*
X171025904Y-102458476D01*
X171121142Y-102506095D01*
X183273523Y-103020380D02*
X182940190Y-104020380D01*
X182606857Y-103020380D01*
X181702095Y-104020380D02*
X182035428Y-103544190D01*
X182273523Y-104020380D02*
X182273523Y-103020380D01*
X181892571Y-103020380D01*
X181797333Y-103068000D01*
X181749714Y-103115619D01*
X181702095Y-103210857D01*
X181702095Y-103353714D01*
X181749714Y-103448952D01*
X181797333Y-103496571D01*
X181892571Y-103544190D01*
X182273523Y-103544190D01*
X180749714Y-104020380D02*
X181321142Y-104020380D01*
X181035428Y-104020380D02*
X181035428Y-103020380D01*
X181130666Y-103163238D01*
X181225904Y-103258476D01*
X181321142Y-103306095D01*
X170616380Y-93406095D02*
X171425904Y-93406095D01*
X171521142Y-93453714D01*
X171568761Y-93501333D01*
X171616380Y-93596571D01*
X171616380Y-93787047D01*
X171568761Y-93882285D01*
X171521142Y-93929904D01*
X171425904Y-93977523D01*
X170616380Y-93977523D01*
X170711619Y-94406095D02*
X170664000Y-94453714D01*
X170616380Y-94548952D01*
X170616380Y-94787047D01*
X170664000Y-94882285D01*
X170711619Y-94929904D01*
X170806857Y-94977523D01*
X170902095Y-94977523D01*
X171044952Y-94929904D01*
X171616380Y-94358476D01*
X171616380Y-94977523D01*
X158916380Y-90206095D02*
X159725904Y-90206095D01*
X159821142Y-90253714D01*
X159868761Y-90301333D01*
X159916380Y-90396571D01*
X159916380Y-90587047D01*
X159868761Y-90682285D01*
X159821142Y-90729904D01*
X159725904Y-90777523D01*
X158916380Y-90777523D01*
X159916380Y-91777523D02*
X159916380Y-91206095D01*
X159916380Y-91491809D02*
X158916380Y-91491809D01*
X159059238Y-91396571D01*
X159154476Y-91301333D01*
X159202095Y-91206095D01*
X155930666Y-96620380D02*
X156264000Y-96144190D01*
X156502095Y-96620380D02*
X156502095Y-95620380D01*
X156121142Y-95620380D01*
X156025904Y-95668000D01*
X155978285Y-95715619D01*
X155930666Y-95810857D01*
X155930666Y-95953714D01*
X155978285Y-96048952D01*
X156025904Y-96096571D01*
X156121142Y-96144190D01*
X156502095Y-96144190D01*
X155359238Y-96048952D02*
X155454476Y-96001333D01*
X155502095Y-95953714D01*
X155549714Y-95858476D01*
X155549714Y-95810857D01*
X155502095Y-95715619D01*
X155454476Y-95668000D01*
X155359238Y-95620380D01*
X155168761Y-95620380D01*
X155073523Y-95668000D01*
X155025904Y-95715619D01*
X154978285Y-95810857D01*
X154978285Y-95858476D01*
X155025904Y-95953714D01*
X155073523Y-96001333D01*
X155168761Y-96048952D01*
X155359238Y-96048952D01*
X155454476Y-96096571D01*
X155502095Y-96144190D01*
X155549714Y-96239428D01*
X155549714Y-96429904D01*
X155502095Y-96525142D01*
X155454476Y-96572761D01*
X155359238Y-96620380D01*
X155168761Y-96620380D01*
X155073523Y-96572761D01*
X155025904Y-96525142D01*
X154978285Y-96429904D01*
X154978285Y-96239428D01*
X155025904Y-96144190D01*
X155073523Y-96096571D01*
X155168761Y-96048952D01*
X155930666Y-98120380D02*
X156264000Y-97644190D01*
X156502095Y-98120380D02*
X156502095Y-97120380D01*
X156121142Y-97120380D01*
X156025904Y-97168000D01*
X155978285Y-97215619D01*
X155930666Y-97310857D01*
X155930666Y-97453714D01*
X155978285Y-97548952D01*
X156025904Y-97596571D01*
X156121142Y-97644190D01*
X156502095Y-97644190D01*
X155597333Y-97120380D02*
X154930666Y-97120380D01*
X155359238Y-98120380D01*
X184916380Y-95301333D02*
X184440190Y-94968000D01*
X184916380Y-94729904D02*
X183916380Y-94729904D01*
X183916380Y-95110857D01*
X183964000Y-95206095D01*
X184011619Y-95253714D01*
X184106857Y-95301333D01*
X184249714Y-95301333D01*
X184344952Y-95253714D01*
X184392571Y-95206095D01*
X184440190Y-95110857D01*
X184440190Y-94729904D01*
X183916380Y-96158476D02*
X183916380Y-95968000D01*
X183964000Y-95872761D01*
X184011619Y-95825142D01*
X184154476Y-95729904D01*
X184344952Y-95682285D01*
X184725904Y-95682285D01*
X184821142Y-95729904D01*
X184868761Y-95777523D01*
X184916380Y-95872761D01*
X184916380Y-96063238D01*
X184868761Y-96158476D01*
X184821142Y-96206095D01*
X184725904Y-96253714D01*
X184487809Y-96253714D01*
X184392571Y-96206095D01*
X184344952Y-96158476D01*
X184297333Y-96063238D01*
X184297333Y-95872761D01*
X184344952Y-95777523D01*
X184392571Y-95729904D01*
X184487809Y-95682285D01*
X176630666Y-99920380D02*
X176964000Y-99444190D01*
X177202095Y-99920380D02*
X177202095Y-98920380D01*
X176821142Y-98920380D01*
X176725904Y-98968000D01*
X176678285Y-99015619D01*
X176630666Y-99110857D01*
X176630666Y-99253714D01*
X176678285Y-99348952D01*
X176725904Y-99396571D01*
X176821142Y-99444190D01*
X177202095Y-99444190D01*
X175725904Y-98920380D02*
X176202095Y-98920380D01*
X176249714Y-99396571D01*
X176202095Y-99348952D01*
X176106857Y-99301333D01*
X175868761Y-99301333D01*
X175773523Y-99348952D01*
X175725904Y-99396571D01*
X175678285Y-99491809D01*
X175678285Y-99729904D01*
X175725904Y-99825142D01*
X175773523Y-99872761D01*
X175868761Y-99920380D01*
X176106857Y-99920380D01*
X176202095Y-99872761D01*
X176249714Y-99825142D01*
X167316380Y-101601333D02*
X166840190Y-101268000D01*
X167316380Y-101029904D02*
X166316380Y-101029904D01*
X166316380Y-101410857D01*
X166364000Y-101506095D01*
X166411619Y-101553714D01*
X166506857Y-101601333D01*
X166649714Y-101601333D01*
X166744952Y-101553714D01*
X166792571Y-101506095D01*
X166840190Y-101410857D01*
X166840190Y-101029904D01*
X166649714Y-102458476D02*
X167316380Y-102458476D01*
X166268761Y-102220380D02*
X166983047Y-101982285D01*
X166983047Y-102601333D01*
X164730666Y-101220380D02*
X165064000Y-100744190D01*
X165302095Y-101220380D02*
X165302095Y-100220380D01*
X164921142Y-100220380D01*
X164825904Y-100268000D01*
X164778285Y-100315619D01*
X164730666Y-100410857D01*
X164730666Y-100553714D01*
X164778285Y-100648952D01*
X164825904Y-100696571D01*
X164921142Y-100744190D01*
X165302095Y-100744190D01*
X164397333Y-100220380D02*
X163778285Y-100220380D01*
X164111619Y-100601333D01*
X163968761Y-100601333D01*
X163873523Y-100648952D01*
X163825904Y-100696571D01*
X163778285Y-100791809D01*
X163778285Y-101029904D01*
X163825904Y-101125142D01*
X163873523Y-101172761D01*
X163968761Y-101220380D01*
X164254476Y-101220380D01*
X164349714Y-101172761D01*
X164397333Y-101125142D01*
X178330666Y-94120380D02*
X178664000Y-93644190D01*
X178902095Y-94120380D02*
X178902095Y-93120380D01*
X178521142Y-93120380D01*
X178425904Y-93168000D01*
X178378285Y-93215619D01*
X178330666Y-93310857D01*
X178330666Y-93453714D01*
X178378285Y-93548952D01*
X178425904Y-93596571D01*
X178521142Y-93644190D01*
X178902095Y-93644190D01*
X177949714Y-93215619D02*
X177902095Y-93168000D01*
X177806857Y-93120380D01*
X177568761Y-93120380D01*
X177473523Y-93168000D01*
X177425904Y-93215619D01*
X177378285Y-93310857D01*
X177378285Y-93406095D01*
X177425904Y-93548952D01*
X177997333Y-94120380D01*
X177378285Y-94120380D01*
X181516380Y-91501333D02*
X181040190Y-91168000D01*
X181516380Y-90929904D02*
X180516380Y-90929904D01*
X180516380Y-91310857D01*
X180564000Y-91406095D01*
X180611619Y-91453714D01*
X180706857Y-91501333D01*
X180849714Y-91501333D01*
X180944952Y-91453714D01*
X180992571Y-91406095D01*
X181040190Y-91310857D01*
X181040190Y-90929904D01*
X181516380Y-92453714D02*
X181516380Y-91882285D01*
X181516380Y-92168000D02*
X180516380Y-92168000D01*
X180659238Y-92072761D01*
X180754476Y-91977523D01*
X180802095Y-91882285D01*
X190297333Y-88520380D02*
X190297333Y-89234666D01*
X190344952Y-89377523D01*
X190440190Y-89472761D01*
X190583047Y-89520380D01*
X190678285Y-89520380D01*
X189868761Y-88615619D02*
X189821142Y-88568000D01*
X189725904Y-88520380D01*
X189487809Y-88520380D01*
X189392571Y-88568000D01*
X189344952Y-88615619D01*
X189297333Y-88710857D01*
X189297333Y-88806095D01*
X189344952Y-88948952D01*
X189916380Y-89520380D01*
X189297333Y-89520380D01*
X150216380Y-96534666D02*
X150930666Y-96534666D01*
X151073523Y-96487047D01*
X151168761Y-96391809D01*
X151216380Y-96248952D01*
X151216380Y-96153714D01*
X151216380Y-97534666D02*
X151216380Y-96963238D01*
X151216380Y-97248952D02*
X150216380Y-97248952D01*
X150359238Y-97153714D01*
X150454476Y-97058476D01*
X150502095Y-96963238D01*
X161206857Y-100325142D02*
X161254476Y-100372761D01*
X161397333Y-100420380D01*
X161492571Y-100420380D01*
X161635428Y-100372761D01*
X161730666Y-100277523D01*
X161778285Y-100182285D01*
X161825904Y-99991809D01*
X161825904Y-99848952D01*
X161778285Y-99658476D01*
X161730666Y-99563238D01*
X161635428Y-99468000D01*
X161492571Y-99420380D01*
X161397333Y-99420380D01*
X161254476Y-99468000D01*
X161206857Y-99515619D01*
X160254476Y-100420380D02*
X160825904Y-100420380D01*
X160540190Y-100420380D02*
X160540190Y-99420380D01*
X160635428Y-99563238D01*
X160730666Y-99658476D01*
X160825904Y-99706095D01*
X159349714Y-99420380D02*
X159825904Y-99420380D01*
X159873523Y-99896571D01*
X159825904Y-99848952D01*
X159730666Y-99801333D01*
X159492571Y-99801333D01*
X159397333Y-99848952D01*
X159349714Y-99896571D01*
X159302095Y-99991809D01*
X159302095Y-100229904D01*
X159349714Y-100325142D01*
X159397333Y-100372761D01*
X159492571Y-100420380D01*
X159730666Y-100420380D01*
X159825904Y-100372761D01*
X159873523Y-100325142D01*
X182521142Y-88625142D02*
X182568761Y-88577523D01*
X182616380Y-88434666D01*
X182616380Y-88339428D01*
X182568761Y-88196571D01*
X182473523Y-88101333D01*
X182378285Y-88053714D01*
X182187809Y-88006095D01*
X182044952Y-88006095D01*
X181854476Y-88053714D01*
X181759238Y-88101333D01*
X181664000Y-88196571D01*
X181616380Y-88339428D01*
X181616380Y-88434666D01*
X181664000Y-88577523D01*
X181711619Y-88625142D01*
X182616380Y-89577523D02*
X182616380Y-89006095D01*
X182616380Y-89291809D02*
X181616380Y-89291809D01*
X181759238Y-89196571D01*
X181854476Y-89101333D01*
X181902095Y-89006095D01*
X181949714Y-90434666D02*
X182616380Y-90434666D01*
X181568761Y-90196571D02*
X182283047Y-89958476D01*
X182283047Y-90577523D01*
X179121142Y-90725142D02*
X179168761Y-90677523D01*
X179216380Y-90534666D01*
X179216380Y-90439428D01*
X179168761Y-90296571D01*
X179073523Y-90201333D01*
X178978285Y-90153714D01*
X178787809Y-90106095D01*
X178644952Y-90106095D01*
X178454476Y-90153714D01*
X178359238Y-90201333D01*
X178264000Y-90296571D01*
X178216380Y-90439428D01*
X178216380Y-90534666D01*
X178264000Y-90677523D01*
X178311619Y-90725142D01*
X179216380Y-91677523D02*
X179216380Y-91106095D01*
X179216380Y-91391809D02*
X178216380Y-91391809D01*
X178359238Y-91296571D01*
X178454476Y-91201333D01*
X178502095Y-91106095D01*
X178216380Y-92010857D02*
X178216380Y-92629904D01*
X178597333Y-92296571D01*
X178597333Y-92439428D01*
X178644952Y-92534666D01*
X178692571Y-92582285D01*
X178787809Y-92629904D01*
X179025904Y-92629904D01*
X179121142Y-92582285D01*
X179168761Y-92534666D01*
X179216380Y-92439428D01*
X179216380Y-92153714D01*
X179168761Y-92058476D01*
X179121142Y-92010857D01*
X178106857Y-102625142D02*
X178154476Y-102672761D01*
X178297333Y-102720380D01*
X178392571Y-102720380D01*
X178535428Y-102672761D01*
X178630666Y-102577523D01*
X178678285Y-102482285D01*
X178725904Y-102291809D01*
X178725904Y-102148952D01*
X178678285Y-101958476D01*
X178630666Y-101863238D01*
X178535428Y-101768000D01*
X178392571Y-101720380D01*
X178297333Y-101720380D01*
X178154476Y-101768000D01*
X178106857Y-101815619D01*
X177154476Y-102720380D02*
X177725904Y-102720380D01*
X177440190Y-102720380D02*
X177440190Y-101720380D01*
X177535428Y-101863238D01*
X177630666Y-101958476D01*
X177725904Y-102006095D01*
X176773523Y-101815619D02*
X176725904Y-101768000D01*
X176630666Y-101720380D01*
X176392571Y-101720380D01*
X176297333Y-101768000D01*
X176249714Y-101815619D01*
X176202095Y-101910857D01*
X176202095Y-102006095D01*
X176249714Y-102148952D01*
X176821142Y-102720380D01*
X176202095Y-102720380D01*
X161106857Y-104425142D02*
X161154476Y-104472761D01*
X161297333Y-104520380D01*
X161392571Y-104520380D01*
X161535428Y-104472761D01*
X161630666Y-104377523D01*
X161678285Y-104282285D01*
X161725904Y-104091809D01*
X161725904Y-103948952D01*
X161678285Y-103758476D01*
X161630666Y-103663238D01*
X161535428Y-103568000D01*
X161392571Y-103520380D01*
X161297333Y-103520380D01*
X161154476Y-103568000D01*
X161106857Y-103615619D01*
X160154476Y-104520380D02*
X160725904Y-104520380D01*
X160440190Y-104520380D02*
X160440190Y-103520380D01*
X160535428Y-103663238D01*
X160630666Y-103758476D01*
X160725904Y-103806095D01*
X159202095Y-104520380D02*
X159773523Y-104520380D01*
X159487809Y-104520380D02*
X159487809Y-103520380D01*
X159583047Y-103663238D01*
X159678285Y-103758476D01*
X159773523Y-103806095D01*
X177706857Y-104325142D02*
X177754476Y-104372761D01*
X177897333Y-104420380D01*
X177992571Y-104420380D01*
X178135428Y-104372761D01*
X178230666Y-104277523D01*
X178278285Y-104182285D01*
X178325904Y-103991809D01*
X178325904Y-103848952D01*
X178278285Y-103658476D01*
X178230666Y-103563238D01*
X178135428Y-103468000D01*
X177992571Y-103420380D01*
X177897333Y-103420380D01*
X177754476Y-103468000D01*
X177706857Y-103515619D01*
X176754476Y-104420380D02*
X177325904Y-104420380D01*
X177040190Y-104420380D02*
X177040190Y-103420380D01*
X177135428Y-103563238D01*
X177230666Y-103658476D01*
X177325904Y-103706095D01*
X176135428Y-103420380D02*
X176040190Y-103420380D01*
X175944952Y-103468000D01*
X175897333Y-103515619D01*
X175849714Y-103610857D01*
X175802095Y-103801333D01*
X175802095Y-104039428D01*
X175849714Y-104229904D01*
X175897333Y-104325142D01*
X175944952Y-104372761D01*
X176040190Y-104420380D01*
X176135428Y-104420380D01*
X176230666Y-104372761D01*
X176278285Y-104325142D01*
X176325904Y-104229904D01*
X176373523Y-104039428D01*
X176373523Y-103801333D01*
X176325904Y-103610857D01*
X176278285Y-103515619D01*
X176230666Y-103468000D01*
X176135428Y-103420380D01*
X157921142Y-95601333D02*
X157968761Y-95553714D01*
X158016380Y-95410857D01*
X158016380Y-95315619D01*
X157968761Y-95172761D01*
X157873523Y-95077523D01*
X157778285Y-95029904D01*
X157587809Y-94982285D01*
X157444952Y-94982285D01*
X157254476Y-95029904D01*
X157159238Y-95077523D01*
X157064000Y-95172761D01*
X157016380Y-95315619D01*
X157016380Y-95410857D01*
X157064000Y-95553714D01*
X157111619Y-95601333D01*
X158016380Y-96077523D02*
X158016380Y-96268000D01*
X157968761Y-96363238D01*
X157921142Y-96410857D01*
X157778285Y-96506095D01*
X157587809Y-96553714D01*
X157206857Y-96553714D01*
X157111619Y-96506095D01*
X157064000Y-96458476D01*
X157016380Y-96363238D01*
X157016380Y-96172761D01*
X157064000Y-96077523D01*
X157111619Y-96029904D01*
X157206857Y-95982285D01*
X157444952Y-95982285D01*
X157540190Y-96029904D01*
X157587809Y-96077523D01*
X157635428Y-96172761D01*
X157635428Y-96363238D01*
X157587809Y-96458476D01*
X157540190Y-96506095D01*
X157444952Y-96553714D01*
X158021142Y-97801333D02*
X158068761Y-97753714D01*
X158116380Y-97610857D01*
X158116380Y-97515619D01*
X158068761Y-97372761D01*
X157973523Y-97277523D01*
X157878285Y-97229904D01*
X157687809Y-97182285D01*
X157544952Y-97182285D01*
X157354476Y-97229904D01*
X157259238Y-97277523D01*
X157164000Y-97372761D01*
X157116380Y-97515619D01*
X157116380Y-97610857D01*
X157164000Y-97753714D01*
X157211619Y-97801333D01*
X157116380Y-98134666D02*
X157116380Y-98801333D01*
X158116380Y-98372761D01*
X177730666Y-107625142D02*
X177778285Y-107672761D01*
X177921142Y-107720380D01*
X178016380Y-107720380D01*
X178159238Y-107672761D01*
X178254476Y-107577523D01*
X178302095Y-107482285D01*
X178349714Y-107291809D01*
X178349714Y-107148952D01*
X178302095Y-106958476D01*
X178254476Y-106863238D01*
X178159238Y-106768000D01*
X178016380Y-106720380D01*
X177921142Y-106720380D01*
X177778285Y-106768000D01*
X177730666Y-106815619D01*
X176873523Y-106720380D02*
X177064000Y-106720380D01*
X177159238Y-106768000D01*
X177206857Y-106815619D01*
X177302095Y-106958476D01*
X177349714Y-107148952D01*
X177349714Y-107529904D01*
X177302095Y-107625142D01*
X177254476Y-107672761D01*
X177159238Y-107720380D01*
X176968761Y-107720380D01*
X176873523Y-107672761D01*
X176825904Y-107625142D01*
X176778285Y-107529904D01*
X176778285Y-107291809D01*
X176825904Y-107196571D01*
X176873523Y-107148952D01*
X176968761Y-107101333D01*
X177159238Y-107101333D01*
X177254476Y-107148952D01*
X177302095Y-107196571D01*
X177349714Y-107291809D01*
X165429312Y-90138389D02*
X165429312Y-90205732D01*
X165496656Y-90340419D01*
X165564000Y-90407763D01*
X165698687Y-90475106D01*
X165833374Y-90475106D01*
X165934389Y-90441435D01*
X166102748Y-90340419D01*
X166203763Y-90239404D01*
X166304778Y-90071045D01*
X166338450Y-89970030D01*
X166338450Y-89835343D01*
X166271106Y-89700656D01*
X166203763Y-89633312D01*
X166069076Y-89565969D01*
X166001732Y-89565969D01*
X165429312Y-88858862D02*
X165766030Y-89195580D01*
X165462984Y-89565969D01*
X165462984Y-89498625D01*
X165429312Y-89397610D01*
X165260954Y-89229251D01*
X165159938Y-89195580D01*
X165092595Y-89195580D01*
X164991580Y-89229251D01*
X164823221Y-89397610D01*
X164789549Y-89498625D01*
X164789549Y-89565969D01*
X164823221Y-89666984D01*
X164991580Y-89835343D01*
X165092595Y-89869015D01*
X165159938Y-89869015D01*
X176630666Y-101225142D02*
X176678285Y-101272761D01*
X176821142Y-101320380D01*
X176916380Y-101320380D01*
X177059238Y-101272761D01*
X177154476Y-101177523D01*
X177202095Y-101082285D01*
X177249714Y-100891809D01*
X177249714Y-100748952D01*
X177202095Y-100558476D01*
X177154476Y-100463238D01*
X177059238Y-100368000D01*
X176916380Y-100320380D01*
X176821142Y-100320380D01*
X176678285Y-100368000D01*
X176630666Y-100415619D01*
X175773523Y-100653714D02*
X175773523Y-101320380D01*
X176011619Y-100272761D02*
X176249714Y-100987047D01*
X175630666Y-100987047D01*
X182821142Y-91401333D02*
X182868761Y-91353714D01*
X182916380Y-91210857D01*
X182916380Y-91115619D01*
X182868761Y-90972761D01*
X182773523Y-90877523D01*
X182678285Y-90829904D01*
X182487809Y-90782285D01*
X182344952Y-90782285D01*
X182154476Y-90829904D01*
X182059238Y-90877523D01*
X181964000Y-90972761D01*
X181916380Y-91115619D01*
X181916380Y-91210857D01*
X181964000Y-91353714D01*
X182011619Y-91401333D01*
X181916380Y-91734666D02*
X181916380Y-92353714D01*
X182297333Y-92020380D01*
X182297333Y-92163238D01*
X182344952Y-92258476D01*
X182392571Y-92306095D01*
X182487809Y-92353714D01*
X182725904Y-92353714D01*
X182821142Y-92306095D01*
X182868761Y-92258476D01*
X182916380Y-92163238D01*
X182916380Y-91877523D01*
X182868761Y-91782285D01*
X182821142Y-91734666D01*
X169630666Y-105625142D02*
X169678285Y-105672761D01*
X169821142Y-105720380D01*
X169916380Y-105720380D01*
X170059238Y-105672761D01*
X170154476Y-105577523D01*
X170202095Y-105482285D01*
X170249714Y-105291809D01*
X170249714Y-105148952D01*
X170202095Y-104958476D01*
X170154476Y-104863238D01*
X170059238Y-104768000D01*
X169916380Y-104720380D01*
X169821142Y-104720380D01*
X169678285Y-104768000D01*
X169630666Y-104815619D01*
X169249714Y-104815619D02*
X169202095Y-104768000D01*
X169106857Y-104720380D01*
X168868761Y-104720380D01*
X168773523Y-104768000D01*
X168725904Y-104815619D01*
X168678285Y-104910857D01*
X168678285Y-105006095D01*
X168725904Y-105148952D01*
X169297333Y-105720380D01*
X168678285Y-105720380D01*
X173530666Y-105625142D02*
X173578285Y-105672761D01*
X173721142Y-105720380D01*
X173816380Y-105720380D01*
X173959238Y-105672761D01*
X174054476Y-105577523D01*
X174102095Y-105482285D01*
X174149714Y-105291809D01*
X174149714Y-105148952D01*
X174102095Y-104958476D01*
X174054476Y-104863238D01*
X173959238Y-104768000D01*
X173816380Y-104720380D01*
X173721142Y-104720380D01*
X173578285Y-104768000D01*
X173530666Y-104815619D01*
X172578285Y-105720380D02*
X173149714Y-105720380D01*
X172864000Y-105720380D02*
X172864000Y-104720380D01*
X172959238Y-104863238D01*
X173054476Y-104958476D01*
X173149714Y-105006095D01*
M02*
