G04 #@! TF.GenerationSoftware,KiCad,Pcbnew,(5.1.4)-1*
G04 #@! TF.CreationDate,2019-11-19T21:39:16+08:00*
G04 #@! TF.ProjectId,dap-stm32f103,6461702d-7374-46d3-9332-663130332e6b,rev?*
G04 #@! TF.SameCoordinates,Original*
G04 #@! TF.FileFunction,Legend,Bot*
G04 #@! TF.FilePolarity,Positive*
%FSLAX46Y46*%
G04 Gerber Fmt 4.6, Leading zero omitted, Abs format (unit mm)*
G04 Created by KiCad (PCBNEW (5.1.4)-1) date 2019-11-19 21:39:16*
%MOMM*%
%LPD*%
G04 APERTURE LIST*
%ADD10C,0.150000*%
%ADD11C,0.120000*%
G04 APERTURE END LIST*
D10*
X174033952Y-98416000D02*
X174129190Y-98368380D01*
X174272047Y-98368380D01*
X174414904Y-98416000D01*
X174510142Y-98511238D01*
X174557761Y-98606476D01*
X174605380Y-98796952D01*
X174605380Y-98939809D01*
X174557761Y-99130285D01*
X174510142Y-99225523D01*
X174414904Y-99320761D01*
X174272047Y-99368380D01*
X174176809Y-99368380D01*
X174033952Y-99320761D01*
X173986333Y-99273142D01*
X173986333Y-98939809D01*
X174176809Y-98939809D01*
X173557761Y-99368380D02*
X173557761Y-98701714D01*
X173557761Y-98368380D02*
X173605380Y-98416000D01*
X173557761Y-98463619D01*
X173510142Y-98416000D01*
X173557761Y-98368380D01*
X173557761Y-98463619D01*
X173224428Y-98701714D02*
X172843476Y-98701714D01*
X173081571Y-98368380D02*
X173081571Y-99225523D01*
X173033952Y-99320761D01*
X172938714Y-99368380D01*
X172843476Y-99368380D01*
X172510142Y-99368380D02*
X172510142Y-98368380D01*
X172510142Y-98844571D02*
X171938714Y-98844571D01*
X171938714Y-99368380D02*
X171938714Y-98368380D01*
X171033952Y-98701714D02*
X171033952Y-99368380D01*
X171462523Y-98701714D02*
X171462523Y-99225523D01*
X171414904Y-99320761D01*
X171319666Y-99368380D01*
X171176809Y-99368380D01*
X171081571Y-99320761D01*
X171033952Y-99273142D01*
X170557761Y-99368380D02*
X170557761Y-98368380D01*
X170557761Y-98749333D02*
X170462523Y-98701714D01*
X170272047Y-98701714D01*
X170176809Y-98749333D01*
X170129190Y-98796952D01*
X170081571Y-98892190D01*
X170081571Y-99177904D01*
X170129190Y-99273142D01*
X170176809Y-99320761D01*
X170272047Y-99368380D01*
X170462523Y-99368380D01*
X170557761Y-99320761D01*
X169653000Y-99273142D02*
X169605380Y-99320761D01*
X169653000Y-99368380D01*
X169700619Y-99320761D01*
X169653000Y-99273142D01*
X169653000Y-99368380D01*
X168748238Y-99320761D02*
X168843476Y-99368380D01*
X169033952Y-99368380D01*
X169129190Y-99320761D01*
X169176809Y-99273142D01*
X169224428Y-99177904D01*
X169224428Y-98892190D01*
X169176809Y-98796952D01*
X169129190Y-98749333D01*
X169033952Y-98701714D01*
X168843476Y-98701714D01*
X168748238Y-98749333D01*
X168176809Y-99368380D02*
X168272047Y-99320761D01*
X168319666Y-99273142D01*
X168367285Y-99177904D01*
X168367285Y-98892190D01*
X168319666Y-98796952D01*
X168272047Y-98749333D01*
X168176809Y-98701714D01*
X168033952Y-98701714D01*
X167938714Y-98749333D01*
X167891095Y-98796952D01*
X167843476Y-98892190D01*
X167843476Y-99177904D01*
X167891095Y-99273142D01*
X167938714Y-99320761D01*
X168033952Y-99368380D01*
X168176809Y-99368380D01*
X167414904Y-99368380D02*
X167414904Y-98701714D01*
X167414904Y-98796952D02*
X167367285Y-98749333D01*
X167272047Y-98701714D01*
X167129190Y-98701714D01*
X167033952Y-98749333D01*
X166986333Y-98844571D01*
X166986333Y-99368380D01*
X166986333Y-98844571D02*
X166938714Y-98749333D01*
X166843476Y-98701714D01*
X166700619Y-98701714D01*
X166605380Y-98749333D01*
X166557761Y-98844571D01*
X166557761Y-99368380D01*
X165367285Y-98320761D02*
X166224428Y-99606476D01*
X165033952Y-99368380D02*
X165033952Y-98368380D01*
X165033952Y-98749333D02*
X164938714Y-98701714D01*
X164748238Y-98701714D01*
X164653000Y-98749333D01*
X164605380Y-98796952D01*
X164557761Y-98892190D01*
X164557761Y-99177904D01*
X164605380Y-99273142D01*
X164653000Y-99320761D01*
X164748238Y-99368380D01*
X164938714Y-99368380D01*
X165033952Y-99320761D01*
X163700619Y-99368380D02*
X163700619Y-98844571D01*
X163748238Y-98749333D01*
X163843476Y-98701714D01*
X164033952Y-98701714D01*
X164129190Y-98749333D01*
X163700619Y-99320761D02*
X163795857Y-99368380D01*
X164033952Y-99368380D01*
X164129190Y-99320761D01*
X164176809Y-99225523D01*
X164176809Y-99130285D01*
X164129190Y-99035047D01*
X164033952Y-98987428D01*
X163795857Y-98987428D01*
X163700619Y-98939809D01*
X163081571Y-99368380D02*
X163176809Y-99320761D01*
X163224428Y-99225523D01*
X163224428Y-98368380D01*
X162272047Y-99368380D02*
X162272047Y-98844571D01*
X162319666Y-98749333D01*
X162414904Y-98701714D01*
X162605380Y-98701714D01*
X162700619Y-98749333D01*
X162272047Y-99320761D02*
X162367285Y-99368380D01*
X162605380Y-99368380D01*
X162700619Y-99320761D01*
X162748238Y-99225523D01*
X162748238Y-99130285D01*
X162700619Y-99035047D01*
X162605380Y-98987428D01*
X162367285Y-98987428D01*
X162272047Y-98939809D01*
X161795857Y-98701714D02*
X161795857Y-99368380D01*
X161795857Y-98796952D02*
X161748238Y-98749333D01*
X161653000Y-98701714D01*
X161510142Y-98701714D01*
X161414904Y-98749333D01*
X161367285Y-98844571D01*
X161367285Y-99368380D01*
X160462523Y-99320761D02*
X160557761Y-99368380D01*
X160748238Y-99368380D01*
X160843476Y-99320761D01*
X160891095Y-99273142D01*
X160938714Y-99177904D01*
X160938714Y-98892190D01*
X160891095Y-98796952D01*
X160843476Y-98749333D01*
X160748238Y-98701714D01*
X160557761Y-98701714D01*
X160462523Y-98749333D01*
X159653000Y-99320761D02*
X159748238Y-99368380D01*
X159938714Y-99368380D01*
X160033952Y-99320761D01*
X160081571Y-99225523D01*
X160081571Y-98844571D01*
X160033952Y-98749333D01*
X159938714Y-98701714D01*
X159748238Y-98701714D01*
X159653000Y-98749333D01*
X159605380Y-98844571D01*
X159605380Y-98939809D01*
X160081571Y-99035047D01*
X159319666Y-98368380D02*
X158748238Y-98368380D01*
X159033952Y-99368380D02*
X159033952Y-98368380D01*
X158510142Y-98368380D02*
X158272047Y-99368380D01*
X158081571Y-98654095D01*
X157891095Y-99368380D01*
X157653000Y-98368380D01*
X157272047Y-99368380D02*
X157272047Y-98368380D01*
X156700619Y-99368380D02*
X157129190Y-98796952D01*
X156700619Y-98368380D02*
X157272047Y-98939809D01*
X174944238Y-94505857D02*
X175344238Y-93934428D01*
X175629953Y-94505857D02*
X175629953Y-93305857D01*
X175172810Y-93305857D01*
X175058524Y-93363000D01*
X175001381Y-93420142D01*
X174944238Y-93534428D01*
X174944238Y-93705857D01*
X175001381Y-93820142D01*
X175058524Y-93877285D01*
X175172810Y-93934428D01*
X175629953Y-93934428D01*
X174601381Y-93305857D02*
X173915667Y-93305857D01*
X174258524Y-94505857D02*
X174258524Y-93305857D01*
X173287096Y-93305857D02*
X173058524Y-93305857D01*
X172944238Y-93363000D01*
X172829953Y-93477285D01*
X172772810Y-93705857D01*
X172772810Y-94105857D01*
X172829953Y-94334428D01*
X172944238Y-94448714D01*
X173058524Y-94505857D01*
X173287096Y-94505857D01*
X173401381Y-94448714D01*
X173515667Y-94334428D01*
X173572810Y-94105857D01*
X173572810Y-93705857D01*
X173515667Y-93477285D01*
X173401381Y-93363000D01*
X173287096Y-93305857D01*
X172315667Y-94448714D02*
X172144238Y-94505857D01*
X171858524Y-94505857D01*
X171744238Y-94448714D01*
X171687096Y-94391571D01*
X171629953Y-94277285D01*
X171629953Y-94163000D01*
X171687096Y-94048714D01*
X171744238Y-93991571D01*
X171858524Y-93934428D01*
X172087096Y-93877285D01*
X172201381Y-93820142D01*
X172258524Y-93763000D01*
X172315667Y-93648714D01*
X172315667Y-93534428D01*
X172258524Y-93420142D01*
X172201381Y-93363000D01*
X172087096Y-93305857D01*
X171801381Y-93305857D01*
X171629953Y-93363000D01*
X171115667Y-94391571D02*
X171058524Y-94448714D01*
X171115667Y-94505857D01*
X171172810Y-94448714D01*
X171115667Y-94391571D01*
X171115667Y-94505857D01*
X171115667Y-93763000D02*
X171058524Y-93820142D01*
X171115667Y-93877285D01*
X171172810Y-93820142D01*
X171115667Y-93763000D01*
X171115667Y-93877285D01*
X169858524Y-94505857D02*
X170258524Y-93934428D01*
X170544238Y-94505857D02*
X170544238Y-93305857D01*
X170087096Y-93305857D01*
X169972810Y-93363000D01*
X169915667Y-93420142D01*
X169858524Y-93534428D01*
X169858524Y-93705857D01*
X169915667Y-93820142D01*
X169972810Y-93877285D01*
X170087096Y-93934428D01*
X170544238Y-93934428D01*
X169515667Y-93305857D02*
X168829953Y-93305857D01*
X169172810Y-94505857D02*
X169172810Y-93305857D01*
X168429953Y-94048714D02*
X167515667Y-94048714D01*
X167115667Y-93305857D02*
X166429953Y-93305857D01*
X166772810Y-94505857D02*
X166772810Y-93305857D01*
X166029953Y-94505857D02*
X166029953Y-93305857D01*
X165515667Y-94505857D02*
X165515667Y-93877285D01*
X165572810Y-93763000D01*
X165687096Y-93705857D01*
X165858524Y-93705857D01*
X165972810Y-93763000D01*
X166029953Y-93820142D01*
X164944238Y-94505857D02*
X164944238Y-93705857D01*
X164944238Y-93934428D02*
X164887096Y-93820142D01*
X164829953Y-93763000D01*
X164715667Y-93705857D01*
X164601381Y-93705857D01*
X163744238Y-94448714D02*
X163858524Y-94505857D01*
X164087096Y-94505857D01*
X164201381Y-94448714D01*
X164258524Y-94334428D01*
X164258524Y-93877285D01*
X164201381Y-93763000D01*
X164087096Y-93705857D01*
X163858524Y-93705857D01*
X163744238Y-93763000D01*
X163687096Y-93877285D01*
X163687096Y-93991571D01*
X164258524Y-94105857D01*
X162658524Y-94505857D02*
X162658524Y-93877285D01*
X162715667Y-93763000D01*
X162829953Y-93705857D01*
X163058524Y-93705857D01*
X163172810Y-93763000D01*
X162658524Y-94448714D02*
X162772810Y-94505857D01*
X163058524Y-94505857D01*
X163172810Y-94448714D01*
X163229953Y-94334428D01*
X163229953Y-94220142D01*
X163172810Y-94105857D01*
X163058524Y-94048714D01*
X162772810Y-94048714D01*
X162658524Y-93991571D01*
X161572810Y-94505857D02*
X161572810Y-93305857D01*
X161572810Y-94448714D02*
X161687096Y-94505857D01*
X161915667Y-94505857D01*
X162029953Y-94448714D01*
X162087096Y-94391571D01*
X162144238Y-94277285D01*
X162144238Y-93934428D01*
X162087096Y-93820142D01*
X162029953Y-93763000D01*
X161915667Y-93705857D01*
X161687096Y-93705857D01*
X161572810Y-93763000D01*
X160087096Y-94505857D02*
X160087096Y-93705857D01*
X160087096Y-93305857D02*
X160144238Y-93363000D01*
X160087096Y-93420142D01*
X160029953Y-93363000D01*
X160087096Y-93305857D01*
X160087096Y-93420142D01*
X159515667Y-93705857D02*
X159515667Y-94505857D01*
X159515667Y-93820142D02*
X159458524Y-93763000D01*
X159344238Y-93705857D01*
X159172810Y-93705857D01*
X159058524Y-93763000D01*
X159001381Y-93877285D01*
X159001381Y-94505857D01*
X158487096Y-94448714D02*
X158372810Y-94505857D01*
X158144238Y-94505857D01*
X158029953Y-94448714D01*
X157972810Y-94334428D01*
X157972810Y-94277285D01*
X158029953Y-94163000D01*
X158144238Y-94105857D01*
X158315667Y-94105857D01*
X158429953Y-94048714D01*
X158487096Y-93934428D01*
X158487096Y-93877285D01*
X158429953Y-93763000D01*
X158315667Y-93705857D01*
X158144238Y-93705857D01*
X158029953Y-93763000D01*
X157458524Y-94505857D02*
X157458524Y-93705857D01*
X157458524Y-93305857D02*
X157515667Y-93363000D01*
X157458524Y-93420142D01*
X157401381Y-93363000D01*
X157458524Y-93305857D01*
X157458524Y-93420142D01*
X156372810Y-94505857D02*
X156372810Y-93305857D01*
X156372810Y-94448714D02*
X156487096Y-94505857D01*
X156715667Y-94505857D01*
X156829953Y-94448714D01*
X156887096Y-94391571D01*
X156944238Y-94277285D01*
X156944238Y-93934428D01*
X156887096Y-93820142D01*
X156829953Y-93763000D01*
X156715667Y-93705857D01*
X156487096Y-93705857D01*
X156372810Y-93763000D01*
X155344238Y-94448714D02*
X155458524Y-94505857D01*
X155687096Y-94505857D01*
X155801381Y-94448714D01*
X155858524Y-94334428D01*
X155858524Y-93877285D01*
X155801381Y-93763000D01*
X155687096Y-93705857D01*
X155458524Y-93705857D01*
X155344238Y-93763000D01*
X155287096Y-93877285D01*
X155287096Y-93991571D01*
X155858524Y-94105857D01*
X176735175Y-100876571D02*
X176401842Y-100876571D01*
X176324461Y-101400380D02*
X176800651Y-101400380D01*
X176675651Y-100400380D01*
X176199461Y-100400380D01*
X175907794Y-100733714D02*
X175753032Y-101400380D01*
X175431604Y-100733714D01*
X174747080Y-101352761D02*
X174848270Y-101400380D01*
X175038747Y-101400380D01*
X175128032Y-101352761D01*
X175163747Y-101257523D01*
X175116127Y-100876571D01*
X175056604Y-100781333D01*
X174955413Y-100733714D01*
X174764937Y-100733714D01*
X174675651Y-100781333D01*
X174639937Y-100876571D01*
X174651842Y-100971809D01*
X175139937Y-101067047D01*
X174276842Y-101400380D02*
X174193508Y-100733714D01*
X174217318Y-100924190D02*
X174157794Y-100828952D01*
X174104223Y-100781333D01*
X174003032Y-100733714D01*
X173907794Y-100733714D01*
X173669699Y-100733714D02*
X173514937Y-101400380D01*
X173193508Y-100733714D02*
X173514937Y-101400380D01*
X173639937Y-101638476D01*
X173693508Y-101686095D01*
X173794699Y-101733714D01*
X172955413Y-100733714D02*
X172574461Y-100733714D01*
X172770889Y-100400380D02*
X172878032Y-101257523D01*
X172842318Y-101352761D01*
X172753032Y-101400380D01*
X172657794Y-101400380D01*
X172324461Y-101400380D02*
X172199461Y-100400380D01*
X171895889Y-101400380D02*
X171830413Y-100876571D01*
X171866127Y-100781333D01*
X171955413Y-100733714D01*
X172098270Y-100733714D01*
X172199461Y-100781333D01*
X172253032Y-100828952D01*
X171419699Y-101400380D02*
X171336366Y-100733714D01*
X171294699Y-100400380D02*
X171348270Y-100448000D01*
X171306604Y-100495619D01*
X171253032Y-100448000D01*
X171294699Y-100400380D01*
X171306604Y-100495619D01*
X170860175Y-100733714D02*
X170943508Y-101400380D01*
X170872080Y-100828952D02*
X170818508Y-100781333D01*
X170717318Y-100733714D01*
X170574461Y-100733714D01*
X170485175Y-100781333D01*
X170449461Y-100876571D01*
X170514937Y-101400380D01*
X169526842Y-100733714D02*
X169628032Y-101543238D01*
X169687556Y-101638476D01*
X169741127Y-101686095D01*
X169842318Y-101733714D01*
X169985175Y-101733714D01*
X170074461Y-101686095D01*
X169604223Y-101352761D02*
X169705413Y-101400380D01*
X169895889Y-101400380D01*
X169985175Y-101352761D01*
X170026842Y-101305142D01*
X170062556Y-101209904D01*
X170026842Y-100924190D01*
X169967318Y-100828952D01*
X169913747Y-100781333D01*
X169812556Y-100733714D01*
X169622080Y-100733714D01*
X169532794Y-100781333D01*
X168431604Y-100733714D02*
X168050651Y-100733714D01*
X168247080Y-100400380D02*
X168354223Y-101257523D01*
X168318508Y-101352761D01*
X168229223Y-101400380D01*
X168133985Y-101400380D01*
X167413747Y-101352761D02*
X167514937Y-101400380D01*
X167705413Y-101400380D01*
X167794699Y-101352761D01*
X167830413Y-101257523D01*
X167782794Y-100876571D01*
X167723270Y-100781333D01*
X167622080Y-100733714D01*
X167431604Y-100733714D01*
X167342318Y-100781333D01*
X167306604Y-100876571D01*
X167318508Y-100971809D01*
X167806604Y-101067047D01*
X166860175Y-100733714D02*
X166943508Y-101400380D01*
X166872080Y-100828952D02*
X166818508Y-100781333D01*
X166717318Y-100733714D01*
X166574461Y-100733714D01*
X166485175Y-100781333D01*
X166449461Y-100876571D01*
X166514937Y-101400380D01*
X165610175Y-101400380D02*
X165485175Y-100400380D01*
X165604223Y-101352761D02*
X165705413Y-101400380D01*
X165895889Y-101400380D01*
X165985175Y-101352761D01*
X166026842Y-101305142D01*
X166062556Y-101209904D01*
X166026842Y-100924190D01*
X165967318Y-100828952D01*
X165913747Y-100781333D01*
X165812556Y-100733714D01*
X165622080Y-100733714D01*
X165532794Y-100781333D01*
X165175651Y-101352761D02*
X165086366Y-101400380D01*
X164895889Y-101400380D01*
X164794699Y-101352761D01*
X164735175Y-101257523D01*
X164729223Y-101209904D01*
X164764937Y-101114666D01*
X164854223Y-101067047D01*
X164997080Y-101067047D01*
X165086366Y-101019428D01*
X165122080Y-100924190D01*
X165116127Y-100876571D01*
X165056604Y-100781333D01*
X164955413Y-100733714D01*
X164812556Y-100733714D01*
X164723270Y-100781333D01*
X163622080Y-100733714D02*
X163241127Y-100733714D01*
X163437556Y-100400380D02*
X163544699Y-101257523D01*
X163508985Y-101352761D01*
X163419699Y-101400380D01*
X163324461Y-101400380D01*
X162848270Y-101400380D02*
X162937556Y-101352761D01*
X162979223Y-101305142D01*
X163014937Y-101209904D01*
X162979223Y-100924190D01*
X162919699Y-100828952D01*
X162866127Y-100781333D01*
X162764937Y-100733714D01*
X162622080Y-100733714D01*
X162532794Y-100781333D01*
X162491127Y-100828952D01*
X162455413Y-100924190D01*
X162491127Y-101209904D01*
X162550651Y-101305142D01*
X162604223Y-101352761D01*
X162705413Y-101400380D01*
X162848270Y-101400380D01*
X161324461Y-101400380D02*
X161199461Y-100400380D01*
X161247080Y-100781333D02*
X161145889Y-100733714D01*
X160955413Y-100733714D01*
X160866127Y-100781333D01*
X160824461Y-100828952D01*
X160788747Y-100924190D01*
X160824461Y-101209904D01*
X160883985Y-101305142D01*
X160937556Y-101352761D01*
X161038747Y-101400380D01*
X161229223Y-101400380D01*
X161318508Y-101352761D01*
X159991127Y-101400380D02*
X159925651Y-100876571D01*
X159961366Y-100781333D01*
X160050651Y-100733714D01*
X160241127Y-100733714D01*
X160342318Y-100781333D01*
X159985175Y-101352761D02*
X160086366Y-101400380D01*
X160324461Y-101400380D01*
X160413747Y-101352761D01*
X160449461Y-101257523D01*
X160437556Y-101162285D01*
X160378032Y-101067047D01*
X160276842Y-101019428D01*
X160038747Y-101019428D01*
X159937556Y-100971809D01*
X159372080Y-101400380D02*
X159461366Y-101352761D01*
X159497080Y-101257523D01*
X159389937Y-100400380D01*
X158562556Y-101400380D02*
X158497080Y-100876571D01*
X158532794Y-100781333D01*
X158622080Y-100733714D01*
X158812556Y-100733714D01*
X158913747Y-100781333D01*
X158556604Y-101352761D02*
X158657794Y-101400380D01*
X158895889Y-101400380D01*
X158985175Y-101352761D01*
X159020889Y-101257523D01*
X159008985Y-101162285D01*
X158949461Y-101067047D01*
X158848270Y-101019428D01*
X158610175Y-101019428D01*
X158508985Y-100971809D01*
X158003032Y-100733714D02*
X158086366Y-101400380D01*
X158014937Y-100828952D02*
X157961366Y-100781333D01*
X157860175Y-100733714D01*
X157717318Y-100733714D01*
X157628032Y-100781333D01*
X157592318Y-100876571D01*
X157657794Y-101400380D01*
X156747080Y-101352761D02*
X156848270Y-101400380D01*
X157038747Y-101400380D01*
X157128032Y-101352761D01*
X157169699Y-101305142D01*
X157205413Y-101209904D01*
X157169699Y-100924190D01*
X157110175Y-100828952D01*
X157056604Y-100781333D01*
X156955413Y-100733714D01*
X156764937Y-100733714D01*
X156675651Y-100781333D01*
X155937556Y-101352761D02*
X156038747Y-101400380D01*
X156229223Y-101400380D01*
X156318508Y-101352761D01*
X156354223Y-101257523D01*
X156306604Y-100876571D01*
X156247080Y-100781333D01*
X156145889Y-100733714D01*
X155955413Y-100733714D01*
X155866127Y-100781333D01*
X155830413Y-100876571D01*
X155842318Y-100971809D01*
X156330413Y-101067047D01*
X155455413Y-101305142D02*
X155413747Y-101352761D01*
X155467318Y-101400380D01*
X155508985Y-101352761D01*
X155455413Y-101305142D01*
X155467318Y-101400380D01*
X175629953Y-92600857D02*
X175629953Y-91400857D01*
X175172810Y-91400857D01*
X175058525Y-91458000D01*
X175001382Y-91515142D01*
X174944239Y-91629428D01*
X174944239Y-91800857D01*
X175001382Y-91915142D01*
X175058525Y-91972285D01*
X175172810Y-92029428D01*
X175629953Y-92029428D01*
X173744239Y-92486571D02*
X173801382Y-92543714D01*
X173972810Y-92600857D01*
X174087096Y-92600857D01*
X174258525Y-92543714D01*
X174372810Y-92429428D01*
X174429953Y-92315142D01*
X174487096Y-92086571D01*
X174487096Y-91915142D01*
X174429953Y-91686571D01*
X174372810Y-91572285D01*
X174258525Y-91458000D01*
X174087096Y-91400857D01*
X173972810Y-91400857D01*
X173801382Y-91458000D01*
X173744239Y-91515142D01*
X172829953Y-91972285D02*
X172658525Y-92029428D01*
X172601382Y-92086571D01*
X172544239Y-92200857D01*
X172544239Y-92372285D01*
X172601382Y-92486571D01*
X172658525Y-92543714D01*
X172772810Y-92600857D01*
X173229953Y-92600857D01*
X173229953Y-91400857D01*
X172829953Y-91400857D01*
X172715668Y-91458000D01*
X172658525Y-91515142D01*
X172601382Y-91629428D01*
X172601382Y-91743714D01*
X172658525Y-91858000D01*
X172715668Y-91915142D01*
X172829953Y-91972285D01*
X173229953Y-91972285D01*
X172029953Y-92486571D02*
X171972810Y-92543714D01*
X172029953Y-92600857D01*
X172087096Y-92543714D01*
X172029953Y-92486571D01*
X172029953Y-92600857D01*
X172029953Y-91858000D02*
X171972810Y-91915142D01*
X172029953Y-91972285D01*
X172087096Y-91915142D01*
X172029953Y-91858000D01*
X172029953Y-91972285D01*
X170544239Y-92600857D02*
X170544239Y-91400857D01*
X170544239Y-91858000D02*
X170429953Y-91800857D01*
X170201382Y-91800857D01*
X170087096Y-91858000D01*
X170029953Y-91915142D01*
X169972810Y-92029428D01*
X169972810Y-92372285D01*
X170029953Y-92486571D01*
X170087096Y-92543714D01*
X170201382Y-92600857D01*
X170429953Y-92600857D01*
X170544239Y-92543714D01*
X168944239Y-92600857D02*
X168944239Y-91972285D01*
X169001382Y-91858000D01*
X169115668Y-91800857D01*
X169344239Y-91800857D01*
X169458525Y-91858000D01*
X168944239Y-92543714D02*
X169058525Y-92600857D01*
X169344239Y-92600857D01*
X169458525Y-92543714D01*
X169515668Y-92429428D01*
X169515668Y-92315142D01*
X169458525Y-92200857D01*
X169344239Y-92143714D01*
X169058525Y-92143714D01*
X168944239Y-92086571D01*
X168429953Y-92543714D02*
X168315668Y-92600857D01*
X168087096Y-92600857D01*
X167972810Y-92543714D01*
X167915668Y-92429428D01*
X167915668Y-92372285D01*
X167972810Y-92258000D01*
X168087096Y-92200857D01*
X168258525Y-92200857D01*
X168372810Y-92143714D01*
X168429953Y-92029428D01*
X168429953Y-91972285D01*
X168372810Y-91858000D01*
X168258525Y-91800857D01*
X168087096Y-91800857D01*
X167972810Y-91858000D01*
X166944239Y-92543714D02*
X167058525Y-92600857D01*
X167287096Y-92600857D01*
X167401382Y-92543714D01*
X167458525Y-92429428D01*
X167458525Y-91972285D01*
X167401382Y-91858000D01*
X167287096Y-91800857D01*
X167058525Y-91800857D01*
X166944239Y-91858000D01*
X166887096Y-91972285D01*
X166887096Y-92086571D01*
X167458525Y-92200857D01*
X165287096Y-92600857D02*
X165401382Y-92543714D01*
X165458525Y-92486571D01*
X165515668Y-92372285D01*
X165515668Y-92029428D01*
X165458525Y-91915142D01*
X165401382Y-91858000D01*
X165287096Y-91800857D01*
X165115668Y-91800857D01*
X165001382Y-91858000D01*
X164944239Y-91915142D01*
X164887096Y-92029428D01*
X164887096Y-92372285D01*
X164944239Y-92486571D01*
X165001382Y-92543714D01*
X165115668Y-92600857D01*
X165287096Y-92600857D01*
X164372810Y-91800857D02*
X164372810Y-92600857D01*
X164372810Y-91915142D02*
X164315668Y-91858000D01*
X164201382Y-91800857D01*
X164029953Y-91800857D01*
X163915668Y-91858000D01*
X163858525Y-91972285D01*
X163858525Y-92600857D01*
X162372810Y-92600857D02*
X162372810Y-91400857D01*
X161687096Y-92600857D02*
X162201382Y-91915142D01*
X161687096Y-91400857D02*
X162372810Y-92086571D01*
X161172810Y-92600857D02*
X161172810Y-91800857D01*
X161172810Y-91400857D02*
X161229953Y-91458000D01*
X161172810Y-91515142D01*
X161115668Y-91458000D01*
X161172810Y-91400857D01*
X161172810Y-91515142D01*
X159915668Y-92486571D02*
X159972810Y-92543714D01*
X160144239Y-92600857D01*
X160258525Y-92600857D01*
X160429953Y-92543714D01*
X160544239Y-92429428D01*
X160601382Y-92315142D01*
X160658525Y-92086571D01*
X160658525Y-91915142D01*
X160601382Y-91686571D01*
X160544239Y-91572285D01*
X160429953Y-91458000D01*
X160258525Y-91400857D01*
X160144239Y-91400857D01*
X159972810Y-91458000D01*
X159915668Y-91515142D01*
X158887096Y-92600857D02*
X158887096Y-91972285D01*
X158944239Y-91858000D01*
X159058525Y-91800857D01*
X159287096Y-91800857D01*
X159401382Y-91858000D01*
X158887096Y-92543714D02*
X159001382Y-92600857D01*
X159287096Y-92600857D01*
X159401382Y-92543714D01*
X159458525Y-92429428D01*
X159458525Y-92315142D01*
X159401382Y-92200857D01*
X159287096Y-92143714D01*
X159001382Y-92143714D01*
X158887096Y-92086571D01*
X157801382Y-92600857D02*
X157801382Y-91400857D01*
X157801382Y-92543714D02*
X157915668Y-92600857D01*
X158144239Y-92600857D01*
X158258525Y-92543714D01*
X158315668Y-92486571D01*
X158372810Y-92372285D01*
X158372810Y-92029428D01*
X158315668Y-91915142D01*
X158258525Y-91858000D01*
X158144239Y-91800857D01*
X157915668Y-91800857D01*
X157801382Y-91858000D01*
X176016380Y-86748952D02*
X175016380Y-86748952D01*
X175016380Y-87129904D01*
X175064000Y-87225142D01*
X175111619Y-87272761D01*
X175206857Y-87320380D01*
X175349714Y-87320380D01*
X175444952Y-87272761D01*
X175492571Y-87225142D01*
X175540190Y-87129904D01*
X175540190Y-86748952D01*
X175492571Y-88082285D02*
X175540190Y-88225142D01*
X175587809Y-88272761D01*
X175683047Y-88320380D01*
X175825904Y-88320380D01*
X175921142Y-88272761D01*
X175968761Y-88225142D01*
X176016380Y-88129904D01*
X176016380Y-87748952D01*
X175016380Y-87748952D01*
X175016380Y-88082285D01*
X175064000Y-88177523D01*
X175111619Y-88225142D01*
X175206857Y-88272761D01*
X175302095Y-88272761D01*
X175397333Y-88225142D01*
X175444952Y-88177523D01*
X175492571Y-88082285D01*
X175492571Y-87748952D01*
X176016380Y-89272761D02*
X176016380Y-88701333D01*
X176016380Y-88987047D02*
X175016380Y-88987047D01*
X175159238Y-88891809D01*
X175254476Y-88796571D01*
X175302095Y-88701333D01*
X176016380Y-90225142D02*
X176016380Y-89653714D01*
X176016380Y-89939428D02*
X175016380Y-89939428D01*
X175159238Y-89844190D01*
X175254476Y-89748952D01*
X175302095Y-89653714D01*
X173816380Y-86748952D02*
X172816380Y-86748952D01*
X172816380Y-87129904D01*
X172864000Y-87225142D01*
X172911619Y-87272761D01*
X173006857Y-87320380D01*
X173149714Y-87320380D01*
X173244952Y-87272761D01*
X173292571Y-87225142D01*
X173340190Y-87129904D01*
X173340190Y-86748952D01*
X173530666Y-87701333D02*
X173530666Y-88177523D01*
X173816380Y-87606095D02*
X172816380Y-87939428D01*
X173816380Y-88272761D01*
X173816380Y-89129904D02*
X173816380Y-88558476D01*
X173816380Y-88844190D02*
X172816380Y-88844190D01*
X172959238Y-88748952D01*
X173054476Y-88653714D01*
X173102095Y-88558476D01*
X171216380Y-86748952D02*
X170216380Y-86748952D01*
X170216380Y-87129904D01*
X170264000Y-87225142D01*
X170311619Y-87272761D01*
X170406857Y-87320380D01*
X170549714Y-87320380D01*
X170644952Y-87272761D01*
X170692571Y-87225142D01*
X170740190Y-87129904D01*
X170740190Y-86748952D01*
X170692571Y-88082285D02*
X170740190Y-88225142D01*
X170787809Y-88272761D01*
X170883047Y-88320380D01*
X171025904Y-88320380D01*
X171121142Y-88272761D01*
X171168761Y-88225142D01*
X171216380Y-88129904D01*
X171216380Y-87748952D01*
X170216380Y-87748952D01*
X170216380Y-88082285D01*
X170264000Y-88177523D01*
X170311619Y-88225142D01*
X170406857Y-88272761D01*
X170502095Y-88272761D01*
X170597333Y-88225142D01*
X170644952Y-88177523D01*
X170692571Y-88082285D01*
X170692571Y-87748952D01*
X171216380Y-89272761D02*
X171216380Y-88701333D01*
X171216380Y-88987047D02*
X170216380Y-88987047D01*
X170359238Y-88891809D01*
X170454476Y-88796571D01*
X170502095Y-88701333D01*
X170311619Y-89653714D02*
X170264000Y-89701333D01*
X170216380Y-89796571D01*
X170216380Y-90034666D01*
X170264000Y-90129904D01*
X170311619Y-90177523D01*
X170406857Y-90225142D01*
X170502095Y-90225142D01*
X170644952Y-90177523D01*
X171216380Y-89606095D01*
X171216380Y-90225142D01*
X168616380Y-86748952D02*
X167616380Y-86748952D01*
X167616380Y-87129904D01*
X167664000Y-87225142D01*
X167711619Y-87272761D01*
X167806857Y-87320380D01*
X167949714Y-87320380D01*
X168044952Y-87272761D01*
X168092571Y-87225142D01*
X168140190Y-87129904D01*
X168140190Y-86748952D01*
X168092571Y-88082285D02*
X168140190Y-88225142D01*
X168187809Y-88272761D01*
X168283047Y-88320380D01*
X168425904Y-88320380D01*
X168521142Y-88272761D01*
X168568761Y-88225142D01*
X168616380Y-88129904D01*
X168616380Y-87748952D01*
X167616380Y-87748952D01*
X167616380Y-88082285D01*
X167664000Y-88177523D01*
X167711619Y-88225142D01*
X167806857Y-88272761D01*
X167902095Y-88272761D01*
X167997333Y-88225142D01*
X168044952Y-88177523D01*
X168092571Y-88082285D01*
X168092571Y-87748952D01*
X168616380Y-89272761D02*
X168616380Y-88701333D01*
X168616380Y-88987047D02*
X167616380Y-88987047D01*
X167759238Y-88891809D01*
X167854476Y-88796571D01*
X167902095Y-88701333D01*
X167616380Y-89606095D02*
X167616380Y-90225142D01*
X167997333Y-89891809D01*
X167997333Y-90034666D01*
X168044952Y-90129904D01*
X168092571Y-90177523D01*
X168187809Y-90225142D01*
X168425904Y-90225142D01*
X168521142Y-90177523D01*
X168568761Y-90129904D01*
X168616380Y-90034666D01*
X168616380Y-89748952D01*
X168568761Y-89653714D01*
X168521142Y-89606095D01*
X166116380Y-86748952D02*
X165116380Y-86748952D01*
X165116380Y-87129904D01*
X165164000Y-87225142D01*
X165211619Y-87272761D01*
X165306857Y-87320380D01*
X165449714Y-87320380D01*
X165544952Y-87272761D01*
X165592571Y-87225142D01*
X165640190Y-87129904D01*
X165640190Y-86748952D01*
X165592571Y-88082285D02*
X165640190Y-88225142D01*
X165687809Y-88272761D01*
X165783047Y-88320380D01*
X165925904Y-88320380D01*
X166021142Y-88272761D01*
X166068761Y-88225142D01*
X166116380Y-88129904D01*
X166116380Y-87748952D01*
X165116380Y-87748952D01*
X165116380Y-88082285D01*
X165164000Y-88177523D01*
X165211619Y-88225142D01*
X165306857Y-88272761D01*
X165402095Y-88272761D01*
X165497333Y-88225142D01*
X165544952Y-88177523D01*
X165592571Y-88082285D01*
X165592571Y-87748952D01*
X166116380Y-89272761D02*
X166116380Y-88701333D01*
X166116380Y-88987047D02*
X165116380Y-88987047D01*
X165259238Y-88891809D01*
X165354476Y-88796571D01*
X165402095Y-88701333D01*
X165449714Y-90129904D02*
X166116380Y-90129904D01*
X165068761Y-89891809D02*
X165783047Y-89653714D01*
X165783047Y-90272761D01*
X163516380Y-86748952D02*
X162516380Y-86748952D01*
X162516380Y-87129904D01*
X162564000Y-87225142D01*
X162611619Y-87272761D01*
X162706857Y-87320380D01*
X162849714Y-87320380D01*
X162944952Y-87272761D01*
X162992571Y-87225142D01*
X163040190Y-87129904D01*
X163040190Y-86748952D01*
X162992571Y-88082285D02*
X163040190Y-88225142D01*
X163087809Y-88272761D01*
X163183047Y-88320380D01*
X163325904Y-88320380D01*
X163421142Y-88272761D01*
X163468761Y-88225142D01*
X163516380Y-88129904D01*
X163516380Y-87748952D01*
X162516380Y-87748952D01*
X162516380Y-88082285D01*
X162564000Y-88177523D01*
X162611619Y-88225142D01*
X162706857Y-88272761D01*
X162802095Y-88272761D01*
X162897333Y-88225142D01*
X162944952Y-88177523D01*
X162992571Y-88082285D01*
X162992571Y-87748952D01*
X163516380Y-89272761D02*
X163516380Y-88701333D01*
X163516380Y-88987047D02*
X162516380Y-88987047D01*
X162659238Y-88891809D01*
X162754476Y-88796571D01*
X162802095Y-88701333D01*
X162516380Y-90177523D02*
X162516380Y-89701333D01*
X162992571Y-89653714D01*
X162944952Y-89701333D01*
X162897333Y-89796571D01*
X162897333Y-90034666D01*
X162944952Y-90129904D01*
X162992571Y-90177523D01*
X163087809Y-90225142D01*
X163325904Y-90225142D01*
X163421142Y-90177523D01*
X163468761Y-90129904D01*
X163516380Y-90034666D01*
X163516380Y-89796571D01*
X163468761Y-89701333D01*
X163421142Y-89653714D01*
X161016380Y-86748952D02*
X160016380Y-86748952D01*
X160016380Y-87129904D01*
X160064000Y-87225142D01*
X160111619Y-87272761D01*
X160206857Y-87320380D01*
X160349714Y-87320380D01*
X160444952Y-87272761D01*
X160492571Y-87225142D01*
X160540190Y-87129904D01*
X160540190Y-86748952D01*
X160730666Y-87701333D02*
X160730666Y-88177523D01*
X161016380Y-87606095D02*
X160016380Y-87939428D01*
X161016380Y-88272761D01*
X160444952Y-88748952D02*
X160397333Y-88653714D01*
X160349714Y-88606095D01*
X160254476Y-88558476D01*
X160206857Y-88558476D01*
X160111619Y-88606095D01*
X160064000Y-88653714D01*
X160016380Y-88748952D01*
X160016380Y-88939428D01*
X160064000Y-89034666D01*
X160111619Y-89082285D01*
X160206857Y-89129904D01*
X160254476Y-89129904D01*
X160349714Y-89082285D01*
X160397333Y-89034666D01*
X160444952Y-88939428D01*
X160444952Y-88748952D01*
X160492571Y-88653714D01*
X160540190Y-88606095D01*
X160635428Y-88558476D01*
X160825904Y-88558476D01*
X160921142Y-88606095D01*
X160968761Y-88653714D01*
X161016380Y-88748952D01*
X161016380Y-88939428D01*
X160968761Y-89034666D01*
X160921142Y-89082285D01*
X160825904Y-89129904D01*
X160635428Y-89129904D01*
X160540190Y-89082285D01*
X160492571Y-89034666D01*
X160444952Y-88939428D01*
X158416380Y-86748952D02*
X157416380Y-86748952D01*
X157416380Y-87129904D01*
X157464000Y-87225142D01*
X157511619Y-87272761D01*
X157606857Y-87320380D01*
X157749714Y-87320380D01*
X157844952Y-87272761D01*
X157892571Y-87225142D01*
X157940190Y-87129904D01*
X157940190Y-86748952D01*
X158321142Y-88320380D02*
X158368761Y-88272761D01*
X158416380Y-88129904D01*
X158416380Y-88034666D01*
X158368761Y-87891809D01*
X158273523Y-87796571D01*
X158178285Y-87748952D01*
X157987809Y-87701333D01*
X157844952Y-87701333D01*
X157654476Y-87748952D01*
X157559238Y-87796571D01*
X157464000Y-87891809D01*
X157416380Y-88034666D01*
X157416380Y-88129904D01*
X157464000Y-88272761D01*
X157511619Y-88320380D01*
X158416380Y-89272761D02*
X158416380Y-88701333D01*
X158416380Y-88987047D02*
X157416380Y-88987047D01*
X157559238Y-88891809D01*
X157654476Y-88796571D01*
X157702095Y-88701333D01*
X157416380Y-90177523D02*
X157416380Y-89701333D01*
X157892571Y-89653714D01*
X157844952Y-89701333D01*
X157797333Y-89796571D01*
X157797333Y-90034666D01*
X157844952Y-90129904D01*
X157892571Y-90177523D01*
X157987809Y-90225142D01*
X158225904Y-90225142D01*
X158321142Y-90177523D01*
X158368761Y-90129904D01*
X158416380Y-90034666D01*
X158416380Y-89796571D01*
X158368761Y-89701333D01*
X158321142Y-89653714D01*
X155916380Y-86748952D02*
X154916380Y-86748952D01*
X154916380Y-87129904D01*
X154964000Y-87225142D01*
X155011619Y-87272761D01*
X155106857Y-87320380D01*
X155249714Y-87320380D01*
X155344952Y-87272761D01*
X155392571Y-87225142D01*
X155440190Y-87129904D01*
X155440190Y-86748952D01*
X155821142Y-88320380D02*
X155868761Y-88272761D01*
X155916380Y-88129904D01*
X155916380Y-88034666D01*
X155868761Y-87891809D01*
X155773523Y-87796571D01*
X155678285Y-87748952D01*
X155487809Y-87701333D01*
X155344952Y-87701333D01*
X155154476Y-87748952D01*
X155059238Y-87796571D01*
X154964000Y-87891809D01*
X154916380Y-88034666D01*
X154916380Y-88129904D01*
X154964000Y-88272761D01*
X155011619Y-88320380D01*
X155916380Y-89272761D02*
X155916380Y-88701333D01*
X155916380Y-88987047D02*
X154916380Y-88987047D01*
X155059238Y-88891809D01*
X155154476Y-88796571D01*
X155202095Y-88701333D01*
X155249714Y-90129904D02*
X155916380Y-90129904D01*
X154868761Y-89891809D02*
X155583047Y-89653714D01*
X155583047Y-90272761D01*
X153316380Y-86748952D02*
X152316380Y-86748952D01*
X152316380Y-87129905D01*
X152364000Y-87225143D01*
X152411619Y-87272762D01*
X152506857Y-87320381D01*
X152649714Y-87320381D01*
X152744952Y-87272762D01*
X152792571Y-87225143D01*
X152840190Y-87129905D01*
X152840190Y-86748952D01*
X152792571Y-88082286D02*
X152840190Y-88225143D01*
X152887809Y-88272762D01*
X152983047Y-88320381D01*
X153125904Y-88320381D01*
X153221142Y-88272762D01*
X153268761Y-88225143D01*
X153316380Y-88129905D01*
X153316380Y-87748952D01*
X152316380Y-87748952D01*
X152316380Y-88082286D01*
X152364000Y-88177524D01*
X152411619Y-88225143D01*
X152506857Y-88272762D01*
X152602095Y-88272762D01*
X152697333Y-88225143D01*
X152744952Y-88177524D01*
X152792571Y-88082286D01*
X152792571Y-87748952D01*
X152316380Y-89177524D02*
X152316380Y-88987048D01*
X152364000Y-88891809D01*
X152411619Y-88844190D01*
X152554476Y-88748952D01*
X152744952Y-88701333D01*
X153125904Y-88701333D01*
X153221142Y-88748952D01*
X153268761Y-88796571D01*
X153316380Y-88891809D01*
X153316380Y-89082286D01*
X153268761Y-89177524D01*
X153221142Y-89225143D01*
X153125904Y-89272762D01*
X152887809Y-89272762D01*
X152792571Y-89225143D01*
X152744952Y-89177524D01*
X152697333Y-89082286D01*
X152697333Y-88891809D01*
X152744952Y-88796571D01*
X152792571Y-88748952D01*
X152887809Y-88701333D01*
X153721142Y-103544189D02*
X153768761Y-103496570D01*
X153816380Y-103353713D01*
X153816380Y-103258475D01*
X153768761Y-103115618D01*
X153673523Y-103020380D01*
X153578285Y-102972761D01*
X153387809Y-102925142D01*
X153244952Y-102925142D01*
X153054476Y-102972761D01*
X152959238Y-103020380D01*
X152864000Y-103115618D01*
X152816380Y-103258475D01*
X152816380Y-103353713D01*
X152864000Y-103496570D01*
X152911619Y-103544189D01*
X153816380Y-104448951D02*
X153816380Y-103972761D01*
X152816380Y-103972761D01*
X153816380Y-104782285D02*
X152816380Y-104782285D01*
X153816380Y-105353713D02*
X153244952Y-104925142D01*
X152816380Y-105353713D02*
X153387809Y-104782285D01*
X155464000Y-103258476D02*
X155416380Y-103163238D01*
X155416380Y-103020381D01*
X155464000Y-102877523D01*
X155559238Y-102782285D01*
X155654476Y-102734666D01*
X155844952Y-102687047D01*
X155987809Y-102687047D01*
X156178285Y-102734666D01*
X156273523Y-102782285D01*
X156368761Y-102877523D01*
X156416380Y-103020381D01*
X156416380Y-103115619D01*
X156368761Y-103258476D01*
X156321142Y-103306095D01*
X155987809Y-103306095D01*
X155987809Y-103115619D01*
X156416380Y-103734666D02*
X155416380Y-103734666D01*
X156416380Y-104306095D01*
X155416380Y-104306095D01*
X156416380Y-104782285D02*
X155416380Y-104782285D01*
X155416380Y-105020381D01*
X155464000Y-105163238D01*
X155559238Y-105258476D01*
X155654476Y-105306095D01*
X155844952Y-105353714D01*
X155987809Y-105353714D01*
X156178285Y-105306095D01*
X156273523Y-105258476D01*
X156368761Y-105163238D01*
X156416380Y-105020381D01*
X156416380Y-104782285D01*
X158916380Y-103258475D02*
X157916380Y-103258475D01*
X157916380Y-103496570D01*
X157964000Y-103639427D01*
X158059238Y-103734665D01*
X158154476Y-103782285D01*
X158344952Y-103829904D01*
X158487809Y-103829904D01*
X158678285Y-103782285D01*
X158773523Y-103734665D01*
X158868761Y-103639427D01*
X158916380Y-103496570D01*
X158916380Y-103258475D01*
X158916380Y-104258475D02*
X157916380Y-104258475D01*
X157916380Y-104925142D02*
X157916380Y-105115618D01*
X157964000Y-105210856D01*
X158059238Y-105306094D01*
X158249714Y-105353713D01*
X158583047Y-105353713D01*
X158773523Y-105306094D01*
X158868761Y-105210856D01*
X158916380Y-105115618D01*
X158916380Y-104925142D01*
X158868761Y-104829904D01*
X158773523Y-104734665D01*
X158583047Y-104687046D01*
X158249714Y-104687046D01*
X158059238Y-104734665D01*
X157964000Y-104829904D01*
X157916380Y-104925142D01*
X160516380Y-102448952D02*
X160516380Y-103068000D01*
X160897333Y-102734666D01*
X160897333Y-102877523D01*
X160944952Y-102972762D01*
X160992571Y-103020381D01*
X161087809Y-103068000D01*
X161325904Y-103068000D01*
X161421142Y-103020381D01*
X161468761Y-102972762D01*
X161516380Y-102877523D01*
X161516380Y-102591809D01*
X161468761Y-102496571D01*
X161421142Y-102448952D01*
X161421142Y-103496571D02*
X161468761Y-103544190D01*
X161516380Y-103496571D01*
X161468761Y-103448952D01*
X161421142Y-103496571D01*
X161516380Y-103496571D01*
X160516380Y-103877523D02*
X160516380Y-104496571D01*
X160897333Y-104163238D01*
X160897333Y-104306095D01*
X160944952Y-104401333D01*
X160992571Y-104448952D01*
X161087809Y-104496571D01*
X161325904Y-104496571D01*
X161421142Y-104448952D01*
X161468761Y-104401333D01*
X161516380Y-104306095D01*
X161516380Y-104020381D01*
X161468761Y-103925143D01*
X161421142Y-103877523D01*
X160516380Y-104782285D02*
X161516380Y-105115619D01*
X160516380Y-105448952D01*
X164416380Y-104401333D02*
X163940190Y-104068000D01*
X164416380Y-103829904D02*
X163416380Y-103829904D01*
X163416380Y-104210857D01*
X163464000Y-104306095D01*
X163511619Y-104353714D01*
X163606857Y-104401333D01*
X163749714Y-104401333D01*
X163844952Y-104353714D01*
X163892571Y-104306095D01*
X163940190Y-104210857D01*
X163940190Y-103829904D01*
X163416380Y-104734666D02*
X164416380Y-105401333D01*
X163416380Y-105401333D02*
X164416380Y-104734666D01*
X166016380Y-103925142D02*
X166016380Y-104496570D01*
X167016380Y-104210856D02*
X166016380Y-104210856D01*
X166016380Y-104734666D02*
X167016380Y-105401332D01*
X166016380Y-105401332D02*
X167016380Y-104734666D01*
X180830666Y-101820380D02*
X181164000Y-101344190D01*
X181402095Y-101820380D02*
X181402095Y-100820380D01*
X181021142Y-100820380D01*
X180925904Y-100868000D01*
X180878285Y-100915619D01*
X180830666Y-101010857D01*
X180830666Y-101153714D01*
X180878285Y-101248952D01*
X180925904Y-101296571D01*
X181021142Y-101344190D01*
X181402095Y-101344190D01*
X180497333Y-100820380D02*
X179830666Y-101820380D01*
X179830666Y-100820380D02*
X180497333Y-101820380D01*
X183725904Y-100820380D02*
X183154476Y-100820380D01*
X183440190Y-101820380D02*
X183440190Y-100820380D01*
X182916380Y-100820380D02*
X182249714Y-101820380D01*
X182249714Y-100820380D02*
X182916380Y-101820380D01*
X181544952Y-98420380D02*
X180973523Y-98420380D01*
X181259238Y-99420380D02*
X181259238Y-98420380D01*
X180640190Y-99420380D02*
X180640190Y-98420380D01*
X180402095Y-98420380D01*
X180259238Y-98468000D01*
X180164000Y-98563238D01*
X180116381Y-98658476D01*
X180068762Y-98848952D01*
X180068762Y-98991809D01*
X180116381Y-99182285D01*
X180164000Y-99277523D01*
X180259238Y-99372761D01*
X180402095Y-99420380D01*
X180640190Y-99420380D01*
X179640190Y-99420380D02*
X179640190Y-98420380D01*
X184821142Y-98420380D02*
X184249714Y-98420380D01*
X184535428Y-99420380D02*
X184535428Y-98420380D01*
X183916380Y-99420380D02*
X183916380Y-98420380D01*
X183678285Y-98420380D01*
X183535428Y-98468000D01*
X183440190Y-98563238D01*
X183392571Y-98658476D01*
X183344952Y-98848952D01*
X183344952Y-98991809D01*
X183392571Y-99182285D01*
X183440190Y-99277523D01*
X183535428Y-99372761D01*
X183678285Y-99420380D01*
X183916380Y-99420380D01*
X182725904Y-98420380D02*
X182535428Y-98420380D01*
X182440190Y-98468000D01*
X182344952Y-98563238D01*
X182297333Y-98753714D01*
X182297333Y-99087047D01*
X182344952Y-99277523D01*
X182440190Y-99372761D01*
X182535428Y-99420380D01*
X182725904Y-99420380D01*
X182821142Y-99372761D01*
X182916380Y-99277523D01*
X182963999Y-99087047D01*
X182963999Y-98753714D01*
X182916380Y-98563238D01*
X182821142Y-98468000D01*
X182725904Y-98420380D01*
X184106857Y-96725142D02*
X184154476Y-96772761D01*
X184297333Y-96820380D01*
X184392571Y-96820380D01*
X184535428Y-96772761D01*
X184630666Y-96677523D01*
X184678285Y-96582285D01*
X184725904Y-96391809D01*
X184725904Y-96248952D01*
X184678285Y-96058476D01*
X184630666Y-95963238D01*
X184535428Y-95868000D01*
X184392571Y-95820380D01*
X184297333Y-95820380D01*
X184154476Y-95868000D01*
X184106857Y-95915619D01*
X183202095Y-96820380D02*
X183678285Y-96820380D01*
X183678285Y-95820380D01*
X182868761Y-96820380D02*
X182868761Y-95820380D01*
X182297333Y-96820380D02*
X182725904Y-96248952D01*
X182297333Y-95820380D02*
X182868761Y-96391809D01*
X181402095Y-96820380D02*
X181402095Y-95820380D01*
X181164000Y-95820380D01*
X181021143Y-95868000D01*
X180925905Y-95963238D01*
X180878285Y-96058476D01*
X180830666Y-96248952D01*
X180830666Y-96391809D01*
X180878285Y-96582285D01*
X180925905Y-96677523D01*
X181021143Y-96772761D01*
X181164000Y-96820380D01*
X181402095Y-96820380D01*
X180402095Y-96820380D02*
X180402095Y-95820380D01*
X179735428Y-95820380D02*
X179544952Y-95820380D01*
X179449714Y-95868000D01*
X179354476Y-95963238D01*
X179306857Y-96153714D01*
X179306857Y-96487047D01*
X179354476Y-96677523D01*
X179449714Y-96772761D01*
X179544952Y-96820380D01*
X179735428Y-96820380D01*
X179830666Y-96772761D01*
X179925905Y-96677523D01*
X179973524Y-96487047D01*
X179973524Y-96153714D01*
X179925905Y-95963238D01*
X179830666Y-95868000D01*
X179735428Y-95820380D01*
X178164000Y-95772761D02*
X179021143Y-97058476D01*
X177973524Y-95820380D02*
X177402095Y-95820380D01*
X177687809Y-96820380D02*
X177687809Y-95820380D01*
X177068762Y-96820380D02*
X177068762Y-95820380D01*
X176735428Y-96534666D01*
X176402095Y-95820380D01*
X176402095Y-96820380D01*
X175973524Y-96772761D02*
X175830666Y-96820380D01*
X175592571Y-96820380D01*
X175497333Y-96772761D01*
X175449714Y-96725142D01*
X175402095Y-96629904D01*
X175402095Y-96534666D01*
X175449714Y-96439428D01*
X175497333Y-96391809D01*
X175592571Y-96344190D01*
X175783047Y-96296571D01*
X175878285Y-96248952D01*
X175925905Y-96201333D01*
X175973524Y-96106095D01*
X175973524Y-96010857D01*
X175925905Y-95915619D01*
X175878285Y-95868000D01*
X175783047Y-95820380D01*
X175544952Y-95820380D01*
X175402095Y-95868000D01*
X184154475Y-94220380D02*
X184487808Y-93744190D01*
X184725904Y-94220380D02*
X184725904Y-93220380D01*
X184344951Y-93220380D01*
X184249713Y-93268000D01*
X184202094Y-93315619D01*
X184154475Y-93410857D01*
X184154475Y-93553714D01*
X184202094Y-93648952D01*
X184249713Y-93696571D01*
X184344951Y-93744190D01*
X184725904Y-93744190D01*
X183725904Y-93696571D02*
X183392570Y-93696571D01*
X183249713Y-94220380D02*
X183725904Y-94220380D01*
X183725904Y-93220380D01*
X183249713Y-93220380D01*
X182868761Y-94172761D02*
X182725904Y-94220380D01*
X182487808Y-94220380D01*
X182392570Y-94172761D01*
X182344951Y-94125142D01*
X182297332Y-94029904D01*
X182297332Y-93934666D01*
X182344951Y-93839428D01*
X182392570Y-93791809D01*
X182487808Y-93744190D01*
X182678285Y-93696571D01*
X182773523Y-93648952D01*
X182821142Y-93601333D01*
X182868761Y-93506095D01*
X182868761Y-93410857D01*
X182821142Y-93315619D01*
X182773523Y-93268000D01*
X182678285Y-93220380D01*
X182440189Y-93220380D01*
X182297332Y-93268000D01*
X181402095Y-94320380D02*
X181402095Y-93320380D01*
X180735428Y-93320380D02*
X180544952Y-93320380D01*
X180449714Y-93368000D01*
X180354476Y-93463238D01*
X180306857Y-93653714D01*
X180306857Y-93987047D01*
X180354476Y-94177523D01*
X180449714Y-94272761D01*
X180544952Y-94320380D01*
X180735428Y-94320380D01*
X180830666Y-94272761D01*
X180925905Y-94177523D01*
X180973524Y-93987047D01*
X180973524Y-93653714D01*
X180925905Y-93463238D01*
X180830666Y-93368000D01*
X180735428Y-93320380D01*
D11*
X177864000Y-90168000D02*
X185764000Y-90168000D01*
X177864000Y-102568000D02*
X185764000Y-102568000D01*
X177864000Y-100168000D02*
X185764000Y-100168000D01*
X177864000Y-97668000D02*
X185764000Y-97668000D01*
X177864000Y-95068000D02*
X185764000Y-95068000D01*
X177864000Y-92568000D02*
X185764000Y-92568000D01*
X181864000Y-90168000D02*
X181864000Y-102568000D01*
D10*
X184392570Y-90968000D02*
X184487808Y-90920380D01*
X184630666Y-90920380D01*
X184773523Y-90968000D01*
X184868761Y-91063238D01*
X184916380Y-91158476D01*
X184963999Y-91348952D01*
X184963999Y-91491809D01*
X184916380Y-91682285D01*
X184868761Y-91777523D01*
X184773523Y-91872761D01*
X184630666Y-91920380D01*
X184535427Y-91920380D01*
X184392570Y-91872761D01*
X184344951Y-91825142D01*
X184344951Y-91491809D01*
X184535427Y-91491809D01*
X183916380Y-91920380D02*
X183916380Y-90920380D01*
X183344951Y-91920380D01*
X183344951Y-90920380D01*
X182868761Y-91920380D02*
X182868761Y-90920380D01*
X182630666Y-90920380D01*
X182487808Y-90968000D01*
X182392570Y-91063238D01*
X182344951Y-91158476D01*
X182297332Y-91348952D01*
X182297332Y-91491809D01*
X182344951Y-91682285D01*
X182392570Y-91777523D01*
X182487808Y-91872761D01*
X182630666Y-91920380D01*
X182868761Y-91920380D01*
X181497333Y-90920380D02*
X180878285Y-90920380D01*
X181211619Y-91301333D01*
X181068762Y-91301333D01*
X180973523Y-91348952D01*
X180925904Y-91396571D01*
X180878285Y-91491809D01*
X180878285Y-91729904D01*
X180925904Y-91825142D01*
X180973523Y-91872761D01*
X181068762Y-91920380D01*
X181354476Y-91920380D01*
X181449714Y-91872761D01*
X181497333Y-91825142D01*
X180449714Y-91825142D02*
X180402095Y-91872761D01*
X180449714Y-91920380D01*
X180497333Y-91872761D01*
X180449714Y-91825142D01*
X180449714Y-91920380D01*
X180068762Y-90920380D02*
X179449714Y-90920380D01*
X179783047Y-91301333D01*
X179640190Y-91301333D01*
X179544952Y-91348952D01*
X179497333Y-91396571D01*
X179449714Y-91491809D01*
X179449714Y-91729904D01*
X179497333Y-91825142D01*
X179544952Y-91872761D01*
X179640190Y-91920380D01*
X179925904Y-91920380D01*
X180021143Y-91872761D01*
X180068762Y-91825142D01*
X179164000Y-90920380D02*
X178830666Y-91920380D01*
X178497333Y-90920380D01*
M02*
