G04 #@! TF.GenerationSoftware,KiCad,Pcbnew,5.1.5-52549c5~84~ubuntu18.04.1*
G04 #@! TF.CreationDate,2019-11-30T22:15:41+08:00*
G04 #@! TF.ProjectId,dap-stm32f103,6461702d-7374-46d3-9332-663130332e6b,rev?*
G04 #@! TF.SameCoordinates,Original*
G04 #@! TF.FileFunction,Legend,Bot*
G04 #@! TF.FilePolarity,Positive*
%FSLAX46Y46*%
G04 Gerber Fmt 4.6, Leading zero omitted, Abs format (unit mm)*
G04 Created by KiCad (PCBNEW 5.1.5-52549c5~84~ubuntu18.04.1) date 2019-11-30 22:15:41*
%MOMM*%
%LPD*%
G04 APERTURE LIST*
%ADD10C,0.120000*%
%ADD11C,0.150000*%
G04 APERTURE END LIST*
D10*
X179764000Y-90668000D02*
X179764000Y-103068000D01*
X168964000Y-103068000D02*
X168964000Y-90668000D01*
D11*
X185533952Y-106916000D02*
X185629190Y-106868380D01*
X185772047Y-106868380D01*
X185914904Y-106916000D01*
X186010142Y-107011238D01*
X186057761Y-107106476D01*
X186105380Y-107296952D01*
X186105380Y-107439809D01*
X186057761Y-107630285D01*
X186010142Y-107725523D01*
X185914904Y-107820761D01*
X185772047Y-107868380D01*
X185676809Y-107868380D01*
X185533952Y-107820761D01*
X185486333Y-107773142D01*
X185486333Y-107439809D01*
X185676809Y-107439809D01*
X185057761Y-107868380D02*
X185057761Y-107201714D01*
X185057761Y-106868380D02*
X185105380Y-106916000D01*
X185057761Y-106963619D01*
X185010142Y-106916000D01*
X185057761Y-106868380D01*
X185057761Y-106963619D01*
X184724428Y-107201714D02*
X184343476Y-107201714D01*
X184581571Y-106868380D02*
X184581571Y-107725523D01*
X184533952Y-107820761D01*
X184438714Y-107868380D01*
X184343476Y-107868380D01*
X184010142Y-107868380D02*
X184010142Y-106868380D01*
X184010142Y-107344571D02*
X183438714Y-107344571D01*
X183438714Y-107868380D02*
X183438714Y-106868380D01*
X182533952Y-107201714D02*
X182533952Y-107868380D01*
X182962523Y-107201714D02*
X182962523Y-107725523D01*
X182914904Y-107820761D01*
X182819666Y-107868380D01*
X182676809Y-107868380D01*
X182581571Y-107820761D01*
X182533952Y-107773142D01*
X182057761Y-107868380D02*
X182057761Y-106868380D01*
X182057761Y-107249333D02*
X181962523Y-107201714D01*
X181772047Y-107201714D01*
X181676809Y-107249333D01*
X181629190Y-107296952D01*
X181581571Y-107392190D01*
X181581571Y-107677904D01*
X181629190Y-107773142D01*
X181676809Y-107820761D01*
X181772047Y-107868380D01*
X181962523Y-107868380D01*
X182057761Y-107820761D01*
X181153000Y-107773142D02*
X181105380Y-107820761D01*
X181153000Y-107868380D01*
X181200619Y-107820761D01*
X181153000Y-107773142D01*
X181153000Y-107868380D01*
X180248238Y-107820761D02*
X180343476Y-107868380D01*
X180533952Y-107868380D01*
X180629190Y-107820761D01*
X180676809Y-107773142D01*
X180724428Y-107677904D01*
X180724428Y-107392190D01*
X180676809Y-107296952D01*
X180629190Y-107249333D01*
X180533952Y-107201714D01*
X180343476Y-107201714D01*
X180248238Y-107249333D01*
X179676809Y-107868380D02*
X179772047Y-107820761D01*
X179819666Y-107773142D01*
X179867285Y-107677904D01*
X179867285Y-107392190D01*
X179819666Y-107296952D01*
X179772047Y-107249333D01*
X179676809Y-107201714D01*
X179533952Y-107201714D01*
X179438714Y-107249333D01*
X179391095Y-107296952D01*
X179343476Y-107392190D01*
X179343476Y-107677904D01*
X179391095Y-107773142D01*
X179438714Y-107820761D01*
X179533952Y-107868380D01*
X179676809Y-107868380D01*
X178914904Y-107868380D02*
X178914904Y-107201714D01*
X178914904Y-107296952D02*
X178867285Y-107249333D01*
X178772047Y-107201714D01*
X178629190Y-107201714D01*
X178533952Y-107249333D01*
X178486333Y-107344571D01*
X178486333Y-107868380D01*
X178486333Y-107344571D02*
X178438714Y-107249333D01*
X178343476Y-107201714D01*
X178200619Y-107201714D01*
X178105380Y-107249333D01*
X178057761Y-107344571D01*
X178057761Y-107868380D01*
X176867285Y-106820761D02*
X177724428Y-108106476D01*
X176533952Y-107868380D02*
X176533952Y-106868380D01*
X176533952Y-107249333D02*
X176438714Y-107201714D01*
X176248238Y-107201714D01*
X176153000Y-107249333D01*
X176105380Y-107296952D01*
X176057761Y-107392190D01*
X176057761Y-107677904D01*
X176105380Y-107773142D01*
X176153000Y-107820761D01*
X176248238Y-107868380D01*
X176438714Y-107868380D01*
X176533952Y-107820761D01*
X175200619Y-107868380D02*
X175200619Y-107344571D01*
X175248238Y-107249333D01*
X175343476Y-107201714D01*
X175533952Y-107201714D01*
X175629190Y-107249333D01*
X175200619Y-107820761D02*
X175295857Y-107868380D01*
X175533952Y-107868380D01*
X175629190Y-107820761D01*
X175676809Y-107725523D01*
X175676809Y-107630285D01*
X175629190Y-107535047D01*
X175533952Y-107487428D01*
X175295857Y-107487428D01*
X175200619Y-107439809D01*
X174581571Y-107868380D02*
X174676809Y-107820761D01*
X174724428Y-107725523D01*
X174724428Y-106868380D01*
X173772047Y-107868380D02*
X173772047Y-107344571D01*
X173819666Y-107249333D01*
X173914904Y-107201714D01*
X174105380Y-107201714D01*
X174200619Y-107249333D01*
X173772047Y-107820761D02*
X173867285Y-107868380D01*
X174105380Y-107868380D01*
X174200619Y-107820761D01*
X174248238Y-107725523D01*
X174248238Y-107630285D01*
X174200619Y-107535047D01*
X174105380Y-107487428D01*
X173867285Y-107487428D01*
X173772047Y-107439809D01*
X173295857Y-107201714D02*
X173295857Y-107868380D01*
X173295857Y-107296952D02*
X173248238Y-107249333D01*
X173153000Y-107201714D01*
X173010142Y-107201714D01*
X172914904Y-107249333D01*
X172867285Y-107344571D01*
X172867285Y-107868380D01*
X171962523Y-107820761D02*
X172057761Y-107868380D01*
X172248238Y-107868380D01*
X172343476Y-107820761D01*
X172391095Y-107773142D01*
X172438714Y-107677904D01*
X172438714Y-107392190D01*
X172391095Y-107296952D01*
X172343476Y-107249333D01*
X172248238Y-107201714D01*
X172057761Y-107201714D01*
X171962523Y-107249333D01*
X171153000Y-107820761D02*
X171248238Y-107868380D01*
X171438714Y-107868380D01*
X171533952Y-107820761D01*
X171581571Y-107725523D01*
X171581571Y-107344571D01*
X171533952Y-107249333D01*
X171438714Y-107201714D01*
X171248238Y-107201714D01*
X171153000Y-107249333D01*
X171105380Y-107344571D01*
X171105380Y-107439809D01*
X171581571Y-107535047D01*
X170819666Y-106868380D02*
X170248238Y-106868380D01*
X170533952Y-107868380D02*
X170533952Y-106868380D01*
X170010142Y-106868380D02*
X169772047Y-107868380D01*
X169581571Y-107154095D01*
X169391095Y-107868380D01*
X169153000Y-106868380D01*
X168772047Y-107868380D02*
X168772047Y-106868380D01*
X168200619Y-107868380D02*
X168629190Y-107296952D01*
X168200619Y-106868380D02*
X168772047Y-107439809D01*
X167194238Y-97502857D02*
X167594238Y-96931428D01*
X167879953Y-97502857D02*
X167879953Y-96302857D01*
X167422810Y-96302857D01*
X167308524Y-96360000D01*
X167251381Y-96417142D01*
X167194238Y-96531428D01*
X167194238Y-96702857D01*
X167251381Y-96817142D01*
X167308524Y-96874285D01*
X167422810Y-96931428D01*
X167879953Y-96931428D01*
X166851381Y-96302857D02*
X166165667Y-96302857D01*
X166508524Y-97502857D02*
X166508524Y-96302857D01*
X165537096Y-96302857D02*
X165308524Y-96302857D01*
X165194238Y-96360000D01*
X165079953Y-96474285D01*
X165022810Y-96702857D01*
X165022810Y-97102857D01*
X165079953Y-97331428D01*
X165194238Y-97445714D01*
X165308524Y-97502857D01*
X165537096Y-97502857D01*
X165651381Y-97445714D01*
X165765667Y-97331428D01*
X165822810Y-97102857D01*
X165822810Y-96702857D01*
X165765667Y-96474285D01*
X165651381Y-96360000D01*
X165537096Y-96302857D01*
X164565667Y-97445714D02*
X164394238Y-97502857D01*
X164108524Y-97502857D01*
X163994238Y-97445714D01*
X163937096Y-97388571D01*
X163879953Y-97274285D01*
X163879953Y-97160000D01*
X163937096Y-97045714D01*
X163994238Y-96988571D01*
X164108524Y-96931428D01*
X164337096Y-96874285D01*
X164451381Y-96817142D01*
X164508524Y-96760000D01*
X164565667Y-96645714D01*
X164565667Y-96531428D01*
X164508524Y-96417142D01*
X164451381Y-96360000D01*
X164337096Y-96302857D01*
X164051381Y-96302857D01*
X163879953Y-96360000D01*
X163365667Y-97388571D02*
X163308524Y-97445714D01*
X163365667Y-97502857D01*
X163422810Y-97445714D01*
X163365667Y-97388571D01*
X163365667Y-97502857D01*
X163365667Y-96760000D02*
X163308524Y-96817142D01*
X163365667Y-96874285D01*
X163422810Y-96817142D01*
X163365667Y-96760000D01*
X163365667Y-96874285D01*
X162108524Y-97502857D02*
X162508524Y-96931428D01*
X162794238Y-97502857D02*
X162794238Y-96302857D01*
X162337096Y-96302857D01*
X162222810Y-96360000D01*
X162165667Y-96417142D01*
X162108524Y-96531428D01*
X162108524Y-96702857D01*
X162165667Y-96817142D01*
X162222810Y-96874285D01*
X162337096Y-96931428D01*
X162794238Y-96931428D01*
X161765667Y-96302857D02*
X161079953Y-96302857D01*
X161422810Y-97502857D02*
X161422810Y-96302857D01*
X160679953Y-97045714D02*
X159765667Y-97045714D01*
X159365667Y-96302857D02*
X158679953Y-96302857D01*
X159022810Y-97502857D02*
X159022810Y-96302857D01*
X158279953Y-97502857D02*
X158279953Y-96302857D01*
X157765667Y-97502857D02*
X157765667Y-96874285D01*
X157822810Y-96760000D01*
X157937096Y-96702857D01*
X158108524Y-96702857D01*
X158222810Y-96760000D01*
X158279953Y-96817142D01*
X157194238Y-97502857D02*
X157194238Y-96702857D01*
X157194238Y-96931428D02*
X157137096Y-96817142D01*
X157079953Y-96760000D01*
X156965667Y-96702857D01*
X156851381Y-96702857D01*
X155994238Y-97445714D02*
X156108524Y-97502857D01*
X156337096Y-97502857D01*
X156451381Y-97445714D01*
X156508524Y-97331428D01*
X156508524Y-96874285D01*
X156451381Y-96760000D01*
X156337096Y-96702857D01*
X156108524Y-96702857D01*
X155994238Y-96760000D01*
X155937096Y-96874285D01*
X155937096Y-96988571D01*
X156508524Y-97102857D01*
X154908524Y-97502857D02*
X154908524Y-96874285D01*
X154965667Y-96760000D01*
X155079953Y-96702857D01*
X155308524Y-96702857D01*
X155422810Y-96760000D01*
X154908524Y-97445714D02*
X155022810Y-97502857D01*
X155308524Y-97502857D01*
X155422810Y-97445714D01*
X155479953Y-97331428D01*
X155479953Y-97217142D01*
X155422810Y-97102857D01*
X155308524Y-97045714D01*
X155022810Y-97045714D01*
X154908524Y-96988571D01*
X153822810Y-97502857D02*
X153822810Y-96302857D01*
X153822810Y-97445714D02*
X153937096Y-97502857D01*
X154165667Y-97502857D01*
X154279953Y-97445714D01*
X154337096Y-97388571D01*
X154394238Y-97274285D01*
X154394238Y-96931428D01*
X154337096Y-96817142D01*
X154279953Y-96760000D01*
X154165667Y-96702857D01*
X153937096Y-96702857D01*
X153822810Y-96760000D01*
X152337096Y-97502857D02*
X152337096Y-96702857D01*
X152337096Y-96302857D02*
X152394238Y-96360000D01*
X152337096Y-96417142D01*
X152279953Y-96360000D01*
X152337096Y-96302857D01*
X152337096Y-96417142D01*
X151765667Y-96702857D02*
X151765667Y-97502857D01*
X151765667Y-96817142D02*
X151708524Y-96760000D01*
X151594238Y-96702857D01*
X151422810Y-96702857D01*
X151308524Y-96760000D01*
X151251381Y-96874285D01*
X151251381Y-97502857D01*
X150737096Y-97445714D02*
X150622810Y-97502857D01*
X150394238Y-97502857D01*
X150279953Y-97445714D01*
X150222810Y-97331428D01*
X150222810Y-97274285D01*
X150279953Y-97160000D01*
X150394238Y-97102857D01*
X150565667Y-97102857D01*
X150679953Y-97045714D01*
X150737096Y-96931428D01*
X150737096Y-96874285D01*
X150679953Y-96760000D01*
X150565667Y-96702857D01*
X150394238Y-96702857D01*
X150279953Y-96760000D01*
X149708524Y-97502857D02*
X149708524Y-96702857D01*
X149708524Y-96302857D02*
X149765667Y-96360000D01*
X149708524Y-96417142D01*
X149651381Y-96360000D01*
X149708524Y-96302857D01*
X149708524Y-96417142D01*
X148622810Y-97502857D02*
X148622810Y-96302857D01*
X148622810Y-97445714D02*
X148737096Y-97502857D01*
X148965667Y-97502857D01*
X149079953Y-97445714D01*
X149137096Y-97388571D01*
X149194238Y-97274285D01*
X149194238Y-96931428D01*
X149137096Y-96817142D01*
X149079953Y-96760000D01*
X148965667Y-96702857D01*
X148737096Y-96702857D01*
X148622810Y-96760000D01*
X147594238Y-97445714D02*
X147708524Y-97502857D01*
X147937096Y-97502857D01*
X148051381Y-97445714D01*
X148108524Y-97331428D01*
X148108524Y-96874285D01*
X148051381Y-96760000D01*
X147937096Y-96702857D01*
X147708524Y-96702857D01*
X147594238Y-96760000D01*
X147537096Y-96874285D01*
X147537096Y-96988571D01*
X148108524Y-97102857D01*
X167915175Y-98546571D02*
X167581842Y-98546571D01*
X167504461Y-99070380D02*
X167980651Y-99070380D01*
X167855651Y-98070380D01*
X167379461Y-98070380D01*
X167087794Y-98403714D02*
X166933032Y-99070380D01*
X166611604Y-98403714D01*
X165927080Y-99022761D02*
X166028270Y-99070380D01*
X166218747Y-99070380D01*
X166308032Y-99022761D01*
X166343747Y-98927523D01*
X166296127Y-98546571D01*
X166236604Y-98451333D01*
X166135413Y-98403714D01*
X165944937Y-98403714D01*
X165855651Y-98451333D01*
X165819937Y-98546571D01*
X165831842Y-98641809D01*
X166319937Y-98737047D01*
X165456842Y-99070380D02*
X165373508Y-98403714D01*
X165397318Y-98594190D02*
X165337794Y-98498952D01*
X165284223Y-98451333D01*
X165183032Y-98403714D01*
X165087794Y-98403714D01*
X164849699Y-98403714D02*
X164694937Y-99070380D01*
X164373508Y-98403714D02*
X164694937Y-99070380D01*
X164819937Y-99308476D01*
X164873508Y-99356095D01*
X164974699Y-99403714D01*
X164135413Y-98403714D02*
X163754461Y-98403714D01*
X163950889Y-98070380D02*
X164058032Y-98927523D01*
X164022318Y-99022761D01*
X163933032Y-99070380D01*
X163837794Y-99070380D01*
X163504461Y-99070380D02*
X163379461Y-98070380D01*
X163075889Y-99070380D02*
X163010413Y-98546571D01*
X163046127Y-98451333D01*
X163135413Y-98403714D01*
X163278270Y-98403714D01*
X163379461Y-98451333D01*
X163433032Y-98498952D01*
X162599699Y-99070380D02*
X162516366Y-98403714D01*
X162474699Y-98070380D02*
X162528270Y-98118000D01*
X162486604Y-98165619D01*
X162433032Y-98118000D01*
X162474699Y-98070380D01*
X162486604Y-98165619D01*
X162040175Y-98403714D02*
X162123508Y-99070380D01*
X162052080Y-98498952D02*
X161998508Y-98451333D01*
X161897318Y-98403714D01*
X161754461Y-98403714D01*
X161665175Y-98451333D01*
X161629461Y-98546571D01*
X161694937Y-99070380D01*
X160706842Y-98403714D02*
X160808032Y-99213238D01*
X160867556Y-99308476D01*
X160921127Y-99356095D01*
X161022318Y-99403714D01*
X161165175Y-99403714D01*
X161254461Y-99356095D01*
X160784223Y-99022761D02*
X160885413Y-99070380D01*
X161075889Y-99070380D01*
X161165175Y-99022761D01*
X161206842Y-98975142D01*
X161242556Y-98879904D01*
X161206842Y-98594190D01*
X161147318Y-98498952D01*
X161093747Y-98451333D01*
X160992556Y-98403714D01*
X160802080Y-98403714D01*
X160712794Y-98451333D01*
X159611604Y-98403714D02*
X159230651Y-98403714D01*
X159427080Y-98070380D02*
X159534223Y-98927523D01*
X159498508Y-99022761D01*
X159409223Y-99070380D01*
X159313985Y-99070380D01*
X158593747Y-99022761D02*
X158694937Y-99070380D01*
X158885413Y-99070380D01*
X158974699Y-99022761D01*
X159010413Y-98927523D01*
X158962794Y-98546571D01*
X158903270Y-98451333D01*
X158802080Y-98403714D01*
X158611604Y-98403714D01*
X158522318Y-98451333D01*
X158486604Y-98546571D01*
X158498508Y-98641809D01*
X158986604Y-98737047D01*
X158040175Y-98403714D02*
X158123508Y-99070380D01*
X158052080Y-98498952D02*
X157998508Y-98451333D01*
X157897318Y-98403714D01*
X157754461Y-98403714D01*
X157665175Y-98451333D01*
X157629461Y-98546571D01*
X157694937Y-99070380D01*
X156790175Y-99070380D02*
X156665175Y-98070380D01*
X156784223Y-99022761D02*
X156885413Y-99070380D01*
X157075889Y-99070380D01*
X157165175Y-99022761D01*
X157206842Y-98975142D01*
X157242556Y-98879904D01*
X157206842Y-98594190D01*
X157147318Y-98498952D01*
X157093747Y-98451333D01*
X156992556Y-98403714D01*
X156802080Y-98403714D01*
X156712794Y-98451333D01*
X156355651Y-99022761D02*
X156266366Y-99070380D01*
X156075889Y-99070380D01*
X155974699Y-99022761D01*
X155915175Y-98927523D01*
X155909223Y-98879904D01*
X155944937Y-98784666D01*
X156034223Y-98737047D01*
X156177080Y-98737047D01*
X156266366Y-98689428D01*
X156302080Y-98594190D01*
X156296127Y-98546571D01*
X156236604Y-98451333D01*
X156135413Y-98403714D01*
X155992556Y-98403714D01*
X155903270Y-98451333D01*
X154802080Y-98403714D02*
X154421127Y-98403714D01*
X154617556Y-98070380D02*
X154724699Y-98927523D01*
X154688985Y-99022761D01*
X154599699Y-99070380D01*
X154504461Y-99070380D01*
X154028270Y-99070380D02*
X154117556Y-99022761D01*
X154159223Y-98975142D01*
X154194937Y-98879904D01*
X154159223Y-98594190D01*
X154099699Y-98498952D01*
X154046127Y-98451333D01*
X153944937Y-98403714D01*
X153802080Y-98403714D01*
X153712794Y-98451333D01*
X153671127Y-98498952D01*
X153635413Y-98594190D01*
X153671127Y-98879904D01*
X153730651Y-98975142D01*
X153784223Y-99022761D01*
X153885413Y-99070380D01*
X154028270Y-99070380D01*
X152504461Y-99070380D02*
X152379461Y-98070380D01*
X152427080Y-98451333D02*
X152325889Y-98403714D01*
X152135413Y-98403714D01*
X152046127Y-98451333D01*
X152004461Y-98498952D01*
X151968747Y-98594190D01*
X152004461Y-98879904D01*
X152063985Y-98975142D01*
X152117556Y-99022761D01*
X152218747Y-99070380D01*
X152409223Y-99070380D01*
X152498508Y-99022761D01*
X151171127Y-99070380D02*
X151105651Y-98546571D01*
X151141366Y-98451333D01*
X151230651Y-98403714D01*
X151421127Y-98403714D01*
X151522318Y-98451333D01*
X151165175Y-99022761D02*
X151266366Y-99070380D01*
X151504461Y-99070380D01*
X151593747Y-99022761D01*
X151629461Y-98927523D01*
X151617556Y-98832285D01*
X151558032Y-98737047D01*
X151456842Y-98689428D01*
X151218747Y-98689428D01*
X151117556Y-98641809D01*
X150552080Y-99070380D02*
X150641366Y-99022761D01*
X150677080Y-98927523D01*
X150569937Y-98070380D01*
X149742556Y-99070380D02*
X149677080Y-98546571D01*
X149712794Y-98451333D01*
X149802080Y-98403714D01*
X149992556Y-98403714D01*
X150093747Y-98451333D01*
X149736604Y-99022761D02*
X149837794Y-99070380D01*
X150075889Y-99070380D01*
X150165175Y-99022761D01*
X150200889Y-98927523D01*
X150188985Y-98832285D01*
X150129461Y-98737047D01*
X150028270Y-98689428D01*
X149790175Y-98689428D01*
X149688985Y-98641809D01*
X149183032Y-98403714D02*
X149266366Y-99070380D01*
X149194937Y-98498952D02*
X149141366Y-98451333D01*
X149040175Y-98403714D01*
X148897318Y-98403714D01*
X148808032Y-98451333D01*
X148772318Y-98546571D01*
X148837794Y-99070380D01*
X147927080Y-99022761D02*
X148028270Y-99070380D01*
X148218747Y-99070380D01*
X148308032Y-99022761D01*
X148349699Y-98975142D01*
X148385413Y-98879904D01*
X148349699Y-98594190D01*
X148290175Y-98498952D01*
X148236604Y-98451333D01*
X148135413Y-98403714D01*
X147944937Y-98403714D01*
X147855651Y-98451333D01*
X147117556Y-99022761D02*
X147218747Y-99070380D01*
X147409223Y-99070380D01*
X147498508Y-99022761D01*
X147534223Y-98927523D01*
X147486604Y-98546571D01*
X147427080Y-98451333D01*
X147325889Y-98403714D01*
X147135413Y-98403714D01*
X147046127Y-98451333D01*
X147010413Y-98546571D01*
X147022318Y-98641809D01*
X147510413Y-98737047D01*
X146635413Y-98975142D02*
X146593747Y-99022761D01*
X146647318Y-99070380D01*
X146688985Y-99022761D01*
X146635413Y-98975142D01*
X146647318Y-99070380D01*
X167879953Y-95850857D02*
X167879953Y-94650857D01*
X167422810Y-94650857D01*
X167308525Y-94708000D01*
X167251382Y-94765142D01*
X167194239Y-94879428D01*
X167194239Y-95050857D01*
X167251382Y-95165142D01*
X167308525Y-95222285D01*
X167422810Y-95279428D01*
X167879953Y-95279428D01*
X165994239Y-95736571D02*
X166051382Y-95793714D01*
X166222810Y-95850857D01*
X166337096Y-95850857D01*
X166508525Y-95793714D01*
X166622810Y-95679428D01*
X166679953Y-95565142D01*
X166737096Y-95336571D01*
X166737096Y-95165142D01*
X166679953Y-94936571D01*
X166622810Y-94822285D01*
X166508525Y-94708000D01*
X166337096Y-94650857D01*
X166222810Y-94650857D01*
X166051382Y-94708000D01*
X165994239Y-94765142D01*
X165079953Y-95222285D02*
X164908525Y-95279428D01*
X164851382Y-95336571D01*
X164794239Y-95450857D01*
X164794239Y-95622285D01*
X164851382Y-95736571D01*
X164908525Y-95793714D01*
X165022810Y-95850857D01*
X165479953Y-95850857D01*
X165479953Y-94650857D01*
X165079953Y-94650857D01*
X164965668Y-94708000D01*
X164908525Y-94765142D01*
X164851382Y-94879428D01*
X164851382Y-94993714D01*
X164908525Y-95108000D01*
X164965668Y-95165142D01*
X165079953Y-95222285D01*
X165479953Y-95222285D01*
X164279953Y-95736571D02*
X164222810Y-95793714D01*
X164279953Y-95850857D01*
X164337096Y-95793714D01*
X164279953Y-95736571D01*
X164279953Y-95850857D01*
X164279953Y-95108000D02*
X164222810Y-95165142D01*
X164279953Y-95222285D01*
X164337096Y-95165142D01*
X164279953Y-95108000D01*
X164279953Y-95222285D01*
X162794239Y-95850857D02*
X162794239Y-94650857D01*
X162794239Y-95108000D02*
X162679953Y-95050857D01*
X162451382Y-95050857D01*
X162337096Y-95108000D01*
X162279953Y-95165142D01*
X162222810Y-95279428D01*
X162222810Y-95622285D01*
X162279953Y-95736571D01*
X162337096Y-95793714D01*
X162451382Y-95850857D01*
X162679953Y-95850857D01*
X162794239Y-95793714D01*
X161194239Y-95850857D02*
X161194239Y-95222285D01*
X161251382Y-95108000D01*
X161365668Y-95050857D01*
X161594239Y-95050857D01*
X161708525Y-95108000D01*
X161194239Y-95793714D02*
X161308525Y-95850857D01*
X161594239Y-95850857D01*
X161708525Y-95793714D01*
X161765668Y-95679428D01*
X161765668Y-95565142D01*
X161708525Y-95450857D01*
X161594239Y-95393714D01*
X161308525Y-95393714D01*
X161194239Y-95336571D01*
X160679953Y-95793714D02*
X160565668Y-95850857D01*
X160337096Y-95850857D01*
X160222810Y-95793714D01*
X160165668Y-95679428D01*
X160165668Y-95622285D01*
X160222810Y-95508000D01*
X160337096Y-95450857D01*
X160508525Y-95450857D01*
X160622810Y-95393714D01*
X160679953Y-95279428D01*
X160679953Y-95222285D01*
X160622810Y-95108000D01*
X160508525Y-95050857D01*
X160337096Y-95050857D01*
X160222810Y-95108000D01*
X159194239Y-95793714D02*
X159308525Y-95850857D01*
X159537096Y-95850857D01*
X159651382Y-95793714D01*
X159708525Y-95679428D01*
X159708525Y-95222285D01*
X159651382Y-95108000D01*
X159537096Y-95050857D01*
X159308525Y-95050857D01*
X159194239Y-95108000D01*
X159137096Y-95222285D01*
X159137096Y-95336571D01*
X159708525Y-95450857D01*
X157537096Y-95850857D02*
X157651382Y-95793714D01*
X157708525Y-95736571D01*
X157765668Y-95622285D01*
X157765668Y-95279428D01*
X157708525Y-95165142D01*
X157651382Y-95108000D01*
X157537096Y-95050857D01*
X157365668Y-95050857D01*
X157251382Y-95108000D01*
X157194239Y-95165142D01*
X157137096Y-95279428D01*
X157137096Y-95622285D01*
X157194239Y-95736571D01*
X157251382Y-95793714D01*
X157365668Y-95850857D01*
X157537096Y-95850857D01*
X156622810Y-95050857D02*
X156622810Y-95850857D01*
X156622810Y-95165142D02*
X156565668Y-95108000D01*
X156451382Y-95050857D01*
X156279953Y-95050857D01*
X156165668Y-95108000D01*
X156108525Y-95222285D01*
X156108525Y-95850857D01*
X154622810Y-95850857D02*
X154622810Y-94650857D01*
X153937096Y-95850857D02*
X154451382Y-95165142D01*
X153937096Y-94650857D02*
X154622810Y-95336571D01*
X153422810Y-95850857D02*
X153422810Y-95050857D01*
X153422810Y-94650857D02*
X153479953Y-94708000D01*
X153422810Y-94765142D01*
X153365668Y-94708000D01*
X153422810Y-94650857D01*
X153422810Y-94765142D01*
X152165668Y-95736571D02*
X152222810Y-95793714D01*
X152394239Y-95850857D01*
X152508525Y-95850857D01*
X152679953Y-95793714D01*
X152794239Y-95679428D01*
X152851382Y-95565142D01*
X152908525Y-95336571D01*
X152908525Y-95165142D01*
X152851382Y-94936571D01*
X152794239Y-94822285D01*
X152679953Y-94708000D01*
X152508525Y-94650857D01*
X152394239Y-94650857D01*
X152222810Y-94708000D01*
X152165668Y-94765142D01*
X151137096Y-95850857D02*
X151137096Y-95222285D01*
X151194239Y-95108000D01*
X151308525Y-95050857D01*
X151537096Y-95050857D01*
X151651382Y-95108000D01*
X151137096Y-95793714D02*
X151251382Y-95850857D01*
X151537096Y-95850857D01*
X151651382Y-95793714D01*
X151708525Y-95679428D01*
X151708525Y-95565142D01*
X151651382Y-95450857D01*
X151537096Y-95393714D01*
X151251382Y-95393714D01*
X151137096Y-95336571D01*
X150051382Y-95850857D02*
X150051382Y-94650857D01*
X150051382Y-95793714D02*
X150165668Y-95850857D01*
X150394239Y-95850857D01*
X150508525Y-95793714D01*
X150565668Y-95736571D01*
X150622810Y-95622285D01*
X150622810Y-95279428D01*
X150565668Y-95165142D01*
X150508525Y-95108000D01*
X150394239Y-95050857D01*
X150165668Y-95050857D01*
X150051382Y-95108000D01*
X174916380Y-86748952D02*
X173916380Y-86748952D01*
X173916380Y-87129904D01*
X173964000Y-87225142D01*
X174011619Y-87272761D01*
X174106857Y-87320380D01*
X174249714Y-87320380D01*
X174344952Y-87272761D01*
X174392571Y-87225142D01*
X174440190Y-87129904D01*
X174440190Y-86748952D01*
X174392571Y-88082285D02*
X174440190Y-88225142D01*
X174487809Y-88272761D01*
X174583047Y-88320380D01*
X174725904Y-88320380D01*
X174821142Y-88272761D01*
X174868761Y-88225142D01*
X174916380Y-88129904D01*
X174916380Y-87748952D01*
X173916380Y-87748952D01*
X173916380Y-88082285D01*
X173964000Y-88177523D01*
X174011619Y-88225142D01*
X174106857Y-88272761D01*
X174202095Y-88272761D01*
X174297333Y-88225142D01*
X174344952Y-88177523D01*
X174392571Y-88082285D01*
X174392571Y-87748952D01*
X174916380Y-89272761D02*
X174916380Y-88701333D01*
X174916380Y-88987047D02*
X173916380Y-88987047D01*
X174059238Y-88891809D01*
X174154476Y-88796571D01*
X174202095Y-88701333D01*
X174916380Y-90225142D02*
X174916380Y-89653714D01*
X174916380Y-89939428D02*
X173916380Y-89939428D01*
X174059238Y-89844190D01*
X174154476Y-89748952D01*
X174202095Y-89653714D01*
X172416380Y-86748952D02*
X171416380Y-86748952D01*
X171416380Y-87129904D01*
X171464000Y-87225142D01*
X171511619Y-87272761D01*
X171606857Y-87320380D01*
X171749714Y-87320380D01*
X171844952Y-87272761D01*
X171892571Y-87225142D01*
X171940190Y-87129904D01*
X171940190Y-86748952D01*
X172130666Y-87701333D02*
X172130666Y-88177523D01*
X172416380Y-87606095D02*
X171416380Y-87939428D01*
X172416380Y-88272761D01*
X172416380Y-89129904D02*
X172416380Y-88558476D01*
X172416380Y-88844190D02*
X171416380Y-88844190D01*
X171559238Y-88748952D01*
X171654476Y-88653714D01*
X171702095Y-88558476D01*
X169916380Y-86748952D02*
X168916380Y-86748952D01*
X168916380Y-87129904D01*
X168964000Y-87225142D01*
X169011619Y-87272761D01*
X169106857Y-87320380D01*
X169249714Y-87320380D01*
X169344952Y-87272761D01*
X169392571Y-87225142D01*
X169440190Y-87129904D01*
X169440190Y-86748952D01*
X169392571Y-88082285D02*
X169440190Y-88225142D01*
X169487809Y-88272761D01*
X169583047Y-88320380D01*
X169725904Y-88320380D01*
X169821142Y-88272761D01*
X169868761Y-88225142D01*
X169916380Y-88129904D01*
X169916380Y-87748952D01*
X168916380Y-87748952D01*
X168916380Y-88082285D01*
X168964000Y-88177523D01*
X169011619Y-88225142D01*
X169106857Y-88272761D01*
X169202095Y-88272761D01*
X169297333Y-88225142D01*
X169344952Y-88177523D01*
X169392571Y-88082285D01*
X169392571Y-87748952D01*
X169916380Y-89272761D02*
X169916380Y-88701333D01*
X169916380Y-88987047D02*
X168916380Y-88987047D01*
X169059238Y-88891809D01*
X169154476Y-88796571D01*
X169202095Y-88701333D01*
X169011619Y-89653714D02*
X168964000Y-89701333D01*
X168916380Y-89796571D01*
X168916380Y-90034666D01*
X168964000Y-90129904D01*
X169011619Y-90177523D01*
X169106857Y-90225142D01*
X169202095Y-90225142D01*
X169344952Y-90177523D01*
X169916380Y-89606095D01*
X169916380Y-90225142D01*
X167416380Y-86748952D02*
X166416380Y-86748952D01*
X166416380Y-87129904D01*
X166464000Y-87225142D01*
X166511619Y-87272761D01*
X166606857Y-87320380D01*
X166749714Y-87320380D01*
X166844952Y-87272761D01*
X166892571Y-87225142D01*
X166940190Y-87129904D01*
X166940190Y-86748952D01*
X166892571Y-88082285D02*
X166940190Y-88225142D01*
X166987809Y-88272761D01*
X167083047Y-88320380D01*
X167225904Y-88320380D01*
X167321142Y-88272761D01*
X167368761Y-88225142D01*
X167416380Y-88129904D01*
X167416380Y-87748952D01*
X166416380Y-87748952D01*
X166416380Y-88082285D01*
X166464000Y-88177523D01*
X166511619Y-88225142D01*
X166606857Y-88272761D01*
X166702095Y-88272761D01*
X166797333Y-88225142D01*
X166844952Y-88177523D01*
X166892571Y-88082285D01*
X166892571Y-87748952D01*
X167416380Y-89272761D02*
X167416380Y-88701333D01*
X167416380Y-88987047D02*
X166416380Y-88987047D01*
X166559238Y-88891809D01*
X166654476Y-88796571D01*
X166702095Y-88701333D01*
X166416380Y-89606095D02*
X166416380Y-90225142D01*
X166797333Y-89891809D01*
X166797333Y-90034666D01*
X166844952Y-90129904D01*
X166892571Y-90177523D01*
X166987809Y-90225142D01*
X167225904Y-90225142D01*
X167321142Y-90177523D01*
X167368761Y-90129904D01*
X167416380Y-90034666D01*
X167416380Y-89748952D01*
X167368761Y-89653714D01*
X167321142Y-89606095D01*
X164916380Y-86748952D02*
X163916380Y-86748952D01*
X163916380Y-87129904D01*
X163964000Y-87225142D01*
X164011619Y-87272761D01*
X164106857Y-87320380D01*
X164249714Y-87320380D01*
X164344952Y-87272761D01*
X164392571Y-87225142D01*
X164440190Y-87129904D01*
X164440190Y-86748952D01*
X164392571Y-88082285D02*
X164440190Y-88225142D01*
X164487809Y-88272761D01*
X164583047Y-88320380D01*
X164725904Y-88320380D01*
X164821142Y-88272761D01*
X164868761Y-88225142D01*
X164916380Y-88129904D01*
X164916380Y-87748952D01*
X163916380Y-87748952D01*
X163916380Y-88082285D01*
X163964000Y-88177523D01*
X164011619Y-88225142D01*
X164106857Y-88272761D01*
X164202095Y-88272761D01*
X164297333Y-88225142D01*
X164344952Y-88177523D01*
X164392571Y-88082285D01*
X164392571Y-87748952D01*
X164916380Y-89272761D02*
X164916380Y-88701333D01*
X164916380Y-88987047D02*
X163916380Y-88987047D01*
X164059238Y-88891809D01*
X164154476Y-88796571D01*
X164202095Y-88701333D01*
X164249714Y-90129904D02*
X164916380Y-90129904D01*
X163868761Y-89891809D02*
X164583047Y-89653714D01*
X164583047Y-90272761D01*
X162416380Y-86748952D02*
X161416380Y-86748952D01*
X161416380Y-87129904D01*
X161464000Y-87225142D01*
X161511619Y-87272761D01*
X161606857Y-87320380D01*
X161749714Y-87320380D01*
X161844952Y-87272761D01*
X161892571Y-87225142D01*
X161940190Y-87129904D01*
X161940190Y-86748952D01*
X161892571Y-88082285D02*
X161940190Y-88225142D01*
X161987809Y-88272761D01*
X162083047Y-88320380D01*
X162225904Y-88320380D01*
X162321142Y-88272761D01*
X162368761Y-88225142D01*
X162416380Y-88129904D01*
X162416380Y-87748952D01*
X161416380Y-87748952D01*
X161416380Y-88082285D01*
X161464000Y-88177523D01*
X161511619Y-88225142D01*
X161606857Y-88272761D01*
X161702095Y-88272761D01*
X161797333Y-88225142D01*
X161844952Y-88177523D01*
X161892571Y-88082285D01*
X161892571Y-87748952D01*
X162416380Y-89272761D02*
X162416380Y-88701333D01*
X162416380Y-88987047D02*
X161416380Y-88987047D01*
X161559238Y-88891809D01*
X161654476Y-88796571D01*
X161702095Y-88701333D01*
X161416380Y-90177523D02*
X161416380Y-89701333D01*
X161892571Y-89653714D01*
X161844952Y-89701333D01*
X161797333Y-89796571D01*
X161797333Y-90034666D01*
X161844952Y-90129904D01*
X161892571Y-90177523D01*
X161987809Y-90225142D01*
X162225904Y-90225142D01*
X162321142Y-90177523D01*
X162368761Y-90129904D01*
X162416380Y-90034666D01*
X162416380Y-89796571D01*
X162368761Y-89701333D01*
X162321142Y-89653714D01*
X159916380Y-86748952D02*
X158916380Y-86748952D01*
X158916380Y-87129904D01*
X158964000Y-87225142D01*
X159011619Y-87272761D01*
X159106857Y-87320380D01*
X159249714Y-87320380D01*
X159344952Y-87272761D01*
X159392571Y-87225142D01*
X159440190Y-87129904D01*
X159440190Y-86748952D01*
X159630666Y-87701333D02*
X159630666Y-88177523D01*
X159916380Y-87606095D02*
X158916380Y-87939428D01*
X159916380Y-88272761D01*
X159344952Y-88748952D02*
X159297333Y-88653714D01*
X159249714Y-88606095D01*
X159154476Y-88558476D01*
X159106857Y-88558476D01*
X159011619Y-88606095D01*
X158964000Y-88653714D01*
X158916380Y-88748952D01*
X158916380Y-88939428D01*
X158964000Y-89034666D01*
X159011619Y-89082285D01*
X159106857Y-89129904D01*
X159154476Y-89129904D01*
X159249714Y-89082285D01*
X159297333Y-89034666D01*
X159344952Y-88939428D01*
X159344952Y-88748952D01*
X159392571Y-88653714D01*
X159440190Y-88606095D01*
X159535428Y-88558476D01*
X159725904Y-88558476D01*
X159821142Y-88606095D01*
X159868761Y-88653714D01*
X159916380Y-88748952D01*
X159916380Y-88939428D01*
X159868761Y-89034666D01*
X159821142Y-89082285D01*
X159725904Y-89129904D01*
X159535428Y-89129904D01*
X159440190Y-89082285D01*
X159392571Y-89034666D01*
X159344952Y-88939428D01*
X157416380Y-86748952D02*
X156416380Y-86748952D01*
X156416380Y-87129904D01*
X156464000Y-87225142D01*
X156511619Y-87272761D01*
X156606857Y-87320380D01*
X156749714Y-87320380D01*
X156844952Y-87272761D01*
X156892571Y-87225142D01*
X156940190Y-87129904D01*
X156940190Y-86748952D01*
X157321142Y-88320380D02*
X157368761Y-88272761D01*
X157416380Y-88129904D01*
X157416380Y-88034666D01*
X157368761Y-87891809D01*
X157273523Y-87796571D01*
X157178285Y-87748952D01*
X156987809Y-87701333D01*
X156844952Y-87701333D01*
X156654476Y-87748952D01*
X156559238Y-87796571D01*
X156464000Y-87891809D01*
X156416380Y-88034666D01*
X156416380Y-88129904D01*
X156464000Y-88272761D01*
X156511619Y-88320380D01*
X157416380Y-89272761D02*
X157416380Y-88701333D01*
X157416380Y-88987047D02*
X156416380Y-88987047D01*
X156559238Y-88891809D01*
X156654476Y-88796571D01*
X156702095Y-88701333D01*
X156416380Y-90177523D02*
X156416380Y-89701333D01*
X156892571Y-89653714D01*
X156844952Y-89701333D01*
X156797333Y-89796571D01*
X156797333Y-90034666D01*
X156844952Y-90129904D01*
X156892571Y-90177523D01*
X156987809Y-90225142D01*
X157225904Y-90225142D01*
X157321142Y-90177523D01*
X157368761Y-90129904D01*
X157416380Y-90034666D01*
X157416380Y-89796571D01*
X157368761Y-89701333D01*
X157321142Y-89653714D01*
X154916380Y-86748952D02*
X153916380Y-86748952D01*
X153916380Y-87129904D01*
X153964000Y-87225142D01*
X154011619Y-87272761D01*
X154106857Y-87320380D01*
X154249714Y-87320380D01*
X154344952Y-87272761D01*
X154392571Y-87225142D01*
X154440190Y-87129904D01*
X154440190Y-86748952D01*
X154821142Y-88320380D02*
X154868761Y-88272761D01*
X154916380Y-88129904D01*
X154916380Y-88034666D01*
X154868761Y-87891809D01*
X154773523Y-87796571D01*
X154678285Y-87748952D01*
X154487809Y-87701333D01*
X154344952Y-87701333D01*
X154154476Y-87748952D01*
X154059238Y-87796571D01*
X153964000Y-87891809D01*
X153916380Y-88034666D01*
X153916380Y-88129904D01*
X153964000Y-88272761D01*
X154011619Y-88320380D01*
X154916380Y-89272761D02*
X154916380Y-88701333D01*
X154916380Y-88987047D02*
X153916380Y-88987047D01*
X154059238Y-88891809D01*
X154154476Y-88796571D01*
X154202095Y-88701333D01*
X154249714Y-90129904D02*
X154916380Y-90129904D01*
X153868761Y-89891809D02*
X154583047Y-89653714D01*
X154583047Y-90272761D01*
X154321142Y-103544189D02*
X154368761Y-103496570D01*
X154416380Y-103353713D01*
X154416380Y-103258475D01*
X154368761Y-103115618D01*
X154273523Y-103020380D01*
X154178285Y-102972761D01*
X153987809Y-102925142D01*
X153844952Y-102925142D01*
X153654476Y-102972761D01*
X153559238Y-103020380D01*
X153464000Y-103115618D01*
X153416380Y-103258475D01*
X153416380Y-103353713D01*
X153464000Y-103496570D01*
X153511619Y-103544189D01*
X154416380Y-104448951D02*
X154416380Y-103972761D01*
X153416380Y-103972761D01*
X154416380Y-104782285D02*
X153416380Y-104782285D01*
X154416380Y-105353713D02*
X153844952Y-104925142D01*
X153416380Y-105353713D02*
X153987809Y-104782285D01*
X155984000Y-103258476D02*
X155936380Y-103163238D01*
X155936380Y-103020381D01*
X155984000Y-102877523D01*
X156079238Y-102782285D01*
X156174476Y-102734666D01*
X156364952Y-102687047D01*
X156507809Y-102687047D01*
X156698285Y-102734666D01*
X156793523Y-102782285D01*
X156888761Y-102877523D01*
X156936380Y-103020381D01*
X156936380Y-103115619D01*
X156888761Y-103258476D01*
X156841142Y-103306095D01*
X156507809Y-103306095D01*
X156507809Y-103115619D01*
X156936380Y-103734666D02*
X155936380Y-103734666D01*
X156936380Y-104306095D01*
X155936380Y-104306095D01*
X156936380Y-104782285D02*
X155936380Y-104782285D01*
X155936380Y-105020381D01*
X155984000Y-105163238D01*
X156079238Y-105258476D01*
X156174476Y-105306095D01*
X156364952Y-105353714D01*
X156507809Y-105353714D01*
X156698285Y-105306095D01*
X156793523Y-105258476D01*
X156888761Y-105163238D01*
X156936380Y-105020381D01*
X156936380Y-104782285D01*
X159456380Y-103258475D02*
X158456380Y-103258475D01*
X158456380Y-103496570D01*
X158504000Y-103639427D01*
X158599238Y-103734665D01*
X158694476Y-103782285D01*
X158884952Y-103829904D01*
X159027809Y-103829904D01*
X159218285Y-103782285D01*
X159313523Y-103734665D01*
X159408761Y-103639427D01*
X159456380Y-103496570D01*
X159456380Y-103258475D01*
X159456380Y-104258475D02*
X158456380Y-104258475D01*
X158456380Y-104925142D02*
X158456380Y-105115618D01*
X158504000Y-105210856D01*
X158599238Y-105306094D01*
X158789714Y-105353713D01*
X159123047Y-105353713D01*
X159313523Y-105306094D01*
X159408761Y-105210856D01*
X159456380Y-105115618D01*
X159456380Y-104925142D01*
X159408761Y-104829904D01*
X159313523Y-104734665D01*
X159123047Y-104687046D01*
X158789714Y-104687046D01*
X158599238Y-104734665D01*
X158504000Y-104829904D01*
X158456380Y-104925142D01*
X160976380Y-102448952D02*
X160976380Y-103068000D01*
X161357333Y-102734666D01*
X161357333Y-102877523D01*
X161404952Y-102972762D01*
X161452571Y-103020381D01*
X161547809Y-103068000D01*
X161785904Y-103068000D01*
X161881142Y-103020381D01*
X161928761Y-102972762D01*
X161976380Y-102877523D01*
X161976380Y-102591809D01*
X161928761Y-102496571D01*
X161881142Y-102448952D01*
X161881142Y-103496571D02*
X161928761Y-103544190D01*
X161976380Y-103496571D01*
X161928761Y-103448952D01*
X161881142Y-103496571D01*
X161976380Y-103496571D01*
X160976380Y-103877523D02*
X160976380Y-104496571D01*
X161357333Y-104163238D01*
X161357333Y-104306095D01*
X161404952Y-104401333D01*
X161452571Y-104448952D01*
X161547809Y-104496571D01*
X161785904Y-104496571D01*
X161881142Y-104448952D01*
X161928761Y-104401333D01*
X161976380Y-104306095D01*
X161976380Y-104020381D01*
X161928761Y-103925143D01*
X161881142Y-103877523D01*
X160976380Y-104782285D02*
X161976380Y-105115619D01*
X160976380Y-105448952D01*
X164496380Y-104401333D02*
X164020190Y-104068000D01*
X164496380Y-103829904D02*
X163496380Y-103829904D01*
X163496380Y-104210857D01*
X163544000Y-104306095D01*
X163591619Y-104353714D01*
X163686857Y-104401333D01*
X163829714Y-104401333D01*
X163924952Y-104353714D01*
X163972571Y-104306095D01*
X164020190Y-104210857D01*
X164020190Y-103829904D01*
X163496380Y-104734666D02*
X164496380Y-105401333D01*
X163496380Y-105401333D02*
X164496380Y-104734666D01*
X166016380Y-103925142D02*
X166016380Y-104496570D01*
X167016380Y-104210856D02*
X166016380Y-104210856D01*
X166016380Y-104734666D02*
X167016380Y-105401332D01*
X166016380Y-105401332D02*
X167016380Y-104734666D01*
X174830666Y-102320380D02*
X175164000Y-101844190D01*
X175402095Y-102320380D02*
X175402095Y-101320380D01*
X175021142Y-101320380D01*
X174925904Y-101368000D01*
X174878285Y-101415619D01*
X174830666Y-101510857D01*
X174830666Y-101653714D01*
X174878285Y-101748952D01*
X174925904Y-101796571D01*
X175021142Y-101844190D01*
X175402095Y-101844190D01*
X174497333Y-101320380D02*
X173830666Y-102320380D01*
X173830666Y-101320380D02*
X174497333Y-102320380D01*
X177725904Y-101320380D02*
X177154476Y-101320380D01*
X177440190Y-102320380D02*
X177440190Y-101320380D01*
X176916380Y-101320380D02*
X176249714Y-102320380D01*
X176249714Y-101320380D02*
X176916380Y-102320380D01*
X175544952Y-98920380D02*
X174973523Y-98920380D01*
X175259238Y-99920380D02*
X175259238Y-98920380D01*
X174640190Y-99920380D02*
X174640190Y-98920380D01*
X174402095Y-98920380D01*
X174259238Y-98968000D01*
X174164000Y-99063238D01*
X174116381Y-99158476D01*
X174068762Y-99348952D01*
X174068762Y-99491809D01*
X174116381Y-99682285D01*
X174164000Y-99777523D01*
X174259238Y-99872761D01*
X174402095Y-99920380D01*
X174640190Y-99920380D01*
X173640190Y-99920380D02*
X173640190Y-98920380D01*
X178821142Y-98920380D02*
X178249714Y-98920380D01*
X178535428Y-99920380D02*
X178535428Y-98920380D01*
X177916380Y-99920380D02*
X177916380Y-98920380D01*
X177678285Y-98920380D01*
X177535428Y-98968000D01*
X177440190Y-99063238D01*
X177392571Y-99158476D01*
X177344952Y-99348952D01*
X177344952Y-99491809D01*
X177392571Y-99682285D01*
X177440190Y-99777523D01*
X177535428Y-99872761D01*
X177678285Y-99920380D01*
X177916380Y-99920380D01*
X176725904Y-98920380D02*
X176535428Y-98920380D01*
X176440190Y-98968000D01*
X176344952Y-99063238D01*
X176297333Y-99253714D01*
X176297333Y-99587047D01*
X176344952Y-99777523D01*
X176440190Y-99872761D01*
X176535428Y-99920380D01*
X176725904Y-99920380D01*
X176821142Y-99872761D01*
X176916380Y-99777523D01*
X176963999Y-99587047D01*
X176963999Y-99253714D01*
X176916380Y-99063238D01*
X176821142Y-98968000D01*
X176725904Y-98920380D01*
X178106857Y-97225142D02*
X178154476Y-97272761D01*
X178297333Y-97320380D01*
X178392571Y-97320380D01*
X178535428Y-97272761D01*
X178630666Y-97177523D01*
X178678285Y-97082285D01*
X178725904Y-96891809D01*
X178725904Y-96748952D01*
X178678285Y-96558476D01*
X178630666Y-96463238D01*
X178535428Y-96368000D01*
X178392571Y-96320380D01*
X178297333Y-96320380D01*
X178154476Y-96368000D01*
X178106857Y-96415619D01*
X177202095Y-97320380D02*
X177678285Y-97320380D01*
X177678285Y-96320380D01*
X176868761Y-97320380D02*
X176868761Y-96320380D01*
X176297333Y-97320380D02*
X176725904Y-96748952D01*
X176297333Y-96320380D02*
X176868761Y-96891809D01*
X175402095Y-97320380D02*
X175402095Y-96320380D01*
X175164000Y-96320380D01*
X175021143Y-96368000D01*
X174925905Y-96463238D01*
X174878285Y-96558476D01*
X174830666Y-96748952D01*
X174830666Y-96891809D01*
X174878285Y-97082285D01*
X174925905Y-97177523D01*
X175021143Y-97272761D01*
X175164000Y-97320380D01*
X175402095Y-97320380D01*
X174402095Y-97320380D02*
X174402095Y-96320380D01*
X173735428Y-96320380D02*
X173544952Y-96320380D01*
X173449714Y-96368000D01*
X173354476Y-96463238D01*
X173306857Y-96653714D01*
X173306857Y-96987047D01*
X173354476Y-97177523D01*
X173449714Y-97272761D01*
X173544952Y-97320380D01*
X173735428Y-97320380D01*
X173830666Y-97272761D01*
X173925905Y-97177523D01*
X173973524Y-96987047D01*
X173973524Y-96653714D01*
X173925905Y-96463238D01*
X173830666Y-96368000D01*
X173735428Y-96320380D01*
X172164000Y-96272761D02*
X173021143Y-97558476D01*
X171973524Y-96320380D02*
X171402095Y-96320380D01*
X171687809Y-97320380D02*
X171687809Y-96320380D01*
X171068762Y-97320380D02*
X171068762Y-96320380D01*
X170735428Y-97034666D01*
X170402095Y-96320380D01*
X170402095Y-97320380D01*
X169973524Y-97272761D02*
X169830666Y-97320380D01*
X169592571Y-97320380D01*
X169497333Y-97272761D01*
X169449714Y-97225142D01*
X169402095Y-97129904D01*
X169402095Y-97034666D01*
X169449714Y-96939428D01*
X169497333Y-96891809D01*
X169592571Y-96844190D01*
X169783047Y-96796571D01*
X169878285Y-96748952D01*
X169925905Y-96701333D01*
X169973524Y-96606095D01*
X169973524Y-96510857D01*
X169925905Y-96415619D01*
X169878285Y-96368000D01*
X169783047Y-96320380D01*
X169544952Y-96320380D01*
X169402095Y-96368000D01*
X178154475Y-94720380D02*
X178487808Y-94244190D01*
X178725904Y-94720380D02*
X178725904Y-93720380D01*
X178344951Y-93720380D01*
X178249713Y-93768000D01*
X178202094Y-93815619D01*
X178154475Y-93910857D01*
X178154475Y-94053714D01*
X178202094Y-94148952D01*
X178249713Y-94196571D01*
X178344951Y-94244190D01*
X178725904Y-94244190D01*
X177725904Y-94196571D02*
X177392570Y-94196571D01*
X177249713Y-94720380D02*
X177725904Y-94720380D01*
X177725904Y-93720380D01*
X177249713Y-93720380D01*
X176868761Y-94672761D02*
X176725904Y-94720380D01*
X176487808Y-94720380D01*
X176392570Y-94672761D01*
X176344951Y-94625142D01*
X176297332Y-94529904D01*
X176297332Y-94434666D01*
X176344951Y-94339428D01*
X176392570Y-94291809D01*
X176487808Y-94244190D01*
X176678285Y-94196571D01*
X176773523Y-94148952D01*
X176821142Y-94101333D01*
X176868761Y-94006095D01*
X176868761Y-93910857D01*
X176821142Y-93815619D01*
X176773523Y-93768000D01*
X176678285Y-93720380D01*
X176440189Y-93720380D01*
X176297332Y-93768000D01*
X175402095Y-94820380D02*
X175402095Y-93820380D01*
X174735428Y-93820380D02*
X174544952Y-93820380D01*
X174449714Y-93868000D01*
X174354476Y-93963238D01*
X174306857Y-94153714D01*
X174306857Y-94487047D01*
X174354476Y-94677523D01*
X174449714Y-94772761D01*
X174544952Y-94820380D01*
X174735428Y-94820380D01*
X174830666Y-94772761D01*
X174925905Y-94677523D01*
X174973524Y-94487047D01*
X174973524Y-94153714D01*
X174925905Y-93963238D01*
X174830666Y-93868000D01*
X174735428Y-93820380D01*
D10*
X168964000Y-90668000D02*
X179764000Y-90668000D01*
X168964000Y-103068000D02*
X179764000Y-103068000D01*
X168964000Y-100668000D02*
X179764000Y-100668000D01*
X168964000Y-98168000D02*
X179764000Y-98168000D01*
X168964000Y-95568000D02*
X179764000Y-95568000D01*
X168964000Y-93068000D02*
X179764000Y-93068000D01*
X175864000Y-90668000D02*
X175864000Y-103068000D01*
D11*
X178392570Y-91468000D02*
X178487808Y-91420380D01*
X178630666Y-91420380D01*
X178773523Y-91468000D01*
X178868761Y-91563238D01*
X178916380Y-91658476D01*
X178963999Y-91848952D01*
X178963999Y-91991809D01*
X178916380Y-92182285D01*
X178868761Y-92277523D01*
X178773523Y-92372761D01*
X178630666Y-92420380D01*
X178535427Y-92420380D01*
X178392570Y-92372761D01*
X178344951Y-92325142D01*
X178344951Y-91991809D01*
X178535427Y-91991809D01*
X177916380Y-92420380D02*
X177916380Y-91420380D01*
X177344951Y-92420380D01*
X177344951Y-91420380D01*
X176868761Y-92420380D02*
X176868761Y-91420380D01*
X176630666Y-91420380D01*
X176487808Y-91468000D01*
X176392570Y-91563238D01*
X176344951Y-91658476D01*
X176297332Y-91848952D01*
X176297332Y-91991809D01*
X176344951Y-92182285D01*
X176392570Y-92277523D01*
X176487808Y-92372761D01*
X176630666Y-92420380D01*
X176868761Y-92420380D01*
X175497333Y-91420380D02*
X174878285Y-91420380D01*
X175211619Y-91801333D01*
X175068762Y-91801333D01*
X174973523Y-91848952D01*
X174925904Y-91896571D01*
X174878285Y-91991809D01*
X174878285Y-92229904D01*
X174925904Y-92325142D01*
X174973523Y-92372761D01*
X175068762Y-92420380D01*
X175354476Y-92420380D01*
X175449714Y-92372761D01*
X175497333Y-92325142D01*
X174449714Y-92325142D02*
X174402095Y-92372761D01*
X174449714Y-92420380D01*
X174497333Y-92372761D01*
X174449714Y-92325142D01*
X174449714Y-92420380D01*
X174068762Y-91420380D02*
X173449714Y-91420380D01*
X173783047Y-91801333D01*
X173640190Y-91801333D01*
X173544952Y-91848952D01*
X173497333Y-91896571D01*
X173449714Y-91991809D01*
X173449714Y-92229904D01*
X173497333Y-92325142D01*
X173544952Y-92372761D01*
X173640190Y-92420380D01*
X173925904Y-92420380D01*
X174021143Y-92372761D01*
X174068762Y-92325142D01*
X173164000Y-91420380D02*
X172830666Y-92420380D01*
X172497333Y-91420380D01*
M02*
