G04 #@! TF.GenerationSoftware,KiCad,Pcbnew,5.1.4-e60b266~84~ubuntu18.04.1*
G04 #@! TF.CreationDate,2019-11-09T00:06:31+08:00*
G04 #@! TF.ProjectId,dap-stm32f103,6461702d-7374-46d3-9332-663130332e6b,rev?*
G04 #@! TF.SameCoordinates,Original*
G04 #@! TF.FileFunction,Paste,Top*
G04 #@! TF.FilePolarity,Positive*
%FSLAX46Y46*%
G04 Gerber Fmt 4.6, Leading zero omitted, Abs format (unit mm)*
G04 Created by KiCad (PCBNEW 5.1.4-e60b266~84~ubuntu18.04.1) date 2019-11-09 00:06:31*
%MOMM*%
%LPD*%
G04 APERTURE LIST*
%ADD10R,0.600000X0.650000*%
%ADD11R,0.650000X0.600000*%
%ADD12R,1.900000X2.400000*%
%ADD13R,1.000000X2.200000*%
%ADD14R,3.500000X2.200000*%
%ADD15C,0.100000*%
%ADD16C,0.300000*%
%ADD17O,2.200000X0.700000*%
%ADD18R,1.160000X0.600000*%
%ADD19R,1.160000X0.300000*%
%ADD20R,0.930000X0.980000*%
%ADD21C,0.600000*%
G04 APERTURE END LIST*
D10*
X177139000Y-105568000D03*
X177989000Y-105568000D03*
X162429000Y-94808000D03*
X161579000Y-94808000D03*
X164649000Y-98828000D03*
X163799000Y-98828000D03*
X159829000Y-94808000D03*
X158979000Y-94808000D03*
D11*
X180564000Y-88573000D03*
X180564000Y-89423000D03*
D12*
X169294000Y-102708000D03*
X173394000Y-102708000D03*
D13*
X184294000Y-106588000D03*
D14*
X181994000Y-100588000D03*
D13*
X181994000Y-106588000D03*
X179694000Y-106588000D03*
D15*
G36*
X167701351Y-96858361D02*
G01*
X167708632Y-96859441D01*
X167715771Y-96861229D01*
X167722701Y-96863709D01*
X167729355Y-96866856D01*
X167735668Y-96870640D01*
X167741579Y-96875024D01*
X167747033Y-96879967D01*
X167751976Y-96885421D01*
X167756360Y-96891332D01*
X167760144Y-96897645D01*
X167763291Y-96904299D01*
X167765771Y-96911229D01*
X167767559Y-96918368D01*
X167768639Y-96925649D01*
X167769000Y-96933000D01*
X167769000Y-97083000D01*
X167768639Y-97090351D01*
X167767559Y-97097632D01*
X167765771Y-97104771D01*
X167763291Y-97111701D01*
X167760144Y-97118355D01*
X167756360Y-97124668D01*
X167751976Y-97130579D01*
X167747033Y-97136033D01*
X167741579Y-97140976D01*
X167735668Y-97145360D01*
X167729355Y-97149144D01*
X167722701Y-97152291D01*
X167715771Y-97154771D01*
X167708632Y-97156559D01*
X167701351Y-97157639D01*
X167694000Y-97158000D01*
X166369000Y-97158000D01*
X166361649Y-97157639D01*
X166354368Y-97156559D01*
X166347229Y-97154771D01*
X166340299Y-97152291D01*
X166333645Y-97149144D01*
X166327332Y-97145360D01*
X166321421Y-97140976D01*
X166315967Y-97136033D01*
X166311024Y-97130579D01*
X166306640Y-97124668D01*
X166302856Y-97118355D01*
X166299709Y-97111701D01*
X166297229Y-97104771D01*
X166295441Y-97097632D01*
X166294361Y-97090351D01*
X166294000Y-97083000D01*
X166294000Y-96933000D01*
X166294361Y-96925649D01*
X166295441Y-96918368D01*
X166297229Y-96911229D01*
X166299709Y-96904299D01*
X166302856Y-96897645D01*
X166306640Y-96891332D01*
X166311024Y-96885421D01*
X166315967Y-96879967D01*
X166321421Y-96875024D01*
X166327332Y-96870640D01*
X166333645Y-96866856D01*
X166340299Y-96863709D01*
X166347229Y-96861229D01*
X166354368Y-96859441D01*
X166361649Y-96858361D01*
X166369000Y-96858000D01*
X167694000Y-96858000D01*
X167701351Y-96858361D01*
X167701351Y-96858361D01*
G37*
D16*
X167031500Y-97008000D03*
D15*
G36*
X167701351Y-96358361D02*
G01*
X167708632Y-96359441D01*
X167715771Y-96361229D01*
X167722701Y-96363709D01*
X167729355Y-96366856D01*
X167735668Y-96370640D01*
X167741579Y-96375024D01*
X167747033Y-96379967D01*
X167751976Y-96385421D01*
X167756360Y-96391332D01*
X167760144Y-96397645D01*
X167763291Y-96404299D01*
X167765771Y-96411229D01*
X167767559Y-96418368D01*
X167768639Y-96425649D01*
X167769000Y-96433000D01*
X167769000Y-96583000D01*
X167768639Y-96590351D01*
X167767559Y-96597632D01*
X167765771Y-96604771D01*
X167763291Y-96611701D01*
X167760144Y-96618355D01*
X167756360Y-96624668D01*
X167751976Y-96630579D01*
X167747033Y-96636033D01*
X167741579Y-96640976D01*
X167735668Y-96645360D01*
X167729355Y-96649144D01*
X167722701Y-96652291D01*
X167715771Y-96654771D01*
X167708632Y-96656559D01*
X167701351Y-96657639D01*
X167694000Y-96658000D01*
X166369000Y-96658000D01*
X166361649Y-96657639D01*
X166354368Y-96656559D01*
X166347229Y-96654771D01*
X166340299Y-96652291D01*
X166333645Y-96649144D01*
X166327332Y-96645360D01*
X166321421Y-96640976D01*
X166315967Y-96636033D01*
X166311024Y-96630579D01*
X166306640Y-96624668D01*
X166302856Y-96618355D01*
X166299709Y-96611701D01*
X166297229Y-96604771D01*
X166295441Y-96597632D01*
X166294361Y-96590351D01*
X166294000Y-96583000D01*
X166294000Y-96433000D01*
X166294361Y-96425649D01*
X166295441Y-96418368D01*
X166297229Y-96411229D01*
X166299709Y-96404299D01*
X166302856Y-96397645D01*
X166306640Y-96391332D01*
X166311024Y-96385421D01*
X166315967Y-96379967D01*
X166321421Y-96375024D01*
X166327332Y-96370640D01*
X166333645Y-96366856D01*
X166340299Y-96363709D01*
X166347229Y-96361229D01*
X166354368Y-96359441D01*
X166361649Y-96358361D01*
X166369000Y-96358000D01*
X167694000Y-96358000D01*
X167701351Y-96358361D01*
X167701351Y-96358361D01*
G37*
D16*
X167031500Y-96508000D03*
D15*
G36*
X167701351Y-95858361D02*
G01*
X167708632Y-95859441D01*
X167715771Y-95861229D01*
X167722701Y-95863709D01*
X167729355Y-95866856D01*
X167735668Y-95870640D01*
X167741579Y-95875024D01*
X167747033Y-95879967D01*
X167751976Y-95885421D01*
X167756360Y-95891332D01*
X167760144Y-95897645D01*
X167763291Y-95904299D01*
X167765771Y-95911229D01*
X167767559Y-95918368D01*
X167768639Y-95925649D01*
X167769000Y-95933000D01*
X167769000Y-96083000D01*
X167768639Y-96090351D01*
X167767559Y-96097632D01*
X167765771Y-96104771D01*
X167763291Y-96111701D01*
X167760144Y-96118355D01*
X167756360Y-96124668D01*
X167751976Y-96130579D01*
X167747033Y-96136033D01*
X167741579Y-96140976D01*
X167735668Y-96145360D01*
X167729355Y-96149144D01*
X167722701Y-96152291D01*
X167715771Y-96154771D01*
X167708632Y-96156559D01*
X167701351Y-96157639D01*
X167694000Y-96158000D01*
X166369000Y-96158000D01*
X166361649Y-96157639D01*
X166354368Y-96156559D01*
X166347229Y-96154771D01*
X166340299Y-96152291D01*
X166333645Y-96149144D01*
X166327332Y-96145360D01*
X166321421Y-96140976D01*
X166315967Y-96136033D01*
X166311024Y-96130579D01*
X166306640Y-96124668D01*
X166302856Y-96118355D01*
X166299709Y-96111701D01*
X166297229Y-96104771D01*
X166295441Y-96097632D01*
X166294361Y-96090351D01*
X166294000Y-96083000D01*
X166294000Y-95933000D01*
X166294361Y-95925649D01*
X166295441Y-95918368D01*
X166297229Y-95911229D01*
X166299709Y-95904299D01*
X166302856Y-95897645D01*
X166306640Y-95891332D01*
X166311024Y-95885421D01*
X166315967Y-95879967D01*
X166321421Y-95875024D01*
X166327332Y-95870640D01*
X166333645Y-95866856D01*
X166340299Y-95863709D01*
X166347229Y-95861229D01*
X166354368Y-95859441D01*
X166361649Y-95858361D01*
X166369000Y-95858000D01*
X167694000Y-95858000D01*
X167701351Y-95858361D01*
X167701351Y-95858361D01*
G37*
D16*
X167031500Y-96008000D03*
D15*
G36*
X167701351Y-95358361D02*
G01*
X167708632Y-95359441D01*
X167715771Y-95361229D01*
X167722701Y-95363709D01*
X167729355Y-95366856D01*
X167735668Y-95370640D01*
X167741579Y-95375024D01*
X167747033Y-95379967D01*
X167751976Y-95385421D01*
X167756360Y-95391332D01*
X167760144Y-95397645D01*
X167763291Y-95404299D01*
X167765771Y-95411229D01*
X167767559Y-95418368D01*
X167768639Y-95425649D01*
X167769000Y-95433000D01*
X167769000Y-95583000D01*
X167768639Y-95590351D01*
X167767559Y-95597632D01*
X167765771Y-95604771D01*
X167763291Y-95611701D01*
X167760144Y-95618355D01*
X167756360Y-95624668D01*
X167751976Y-95630579D01*
X167747033Y-95636033D01*
X167741579Y-95640976D01*
X167735668Y-95645360D01*
X167729355Y-95649144D01*
X167722701Y-95652291D01*
X167715771Y-95654771D01*
X167708632Y-95656559D01*
X167701351Y-95657639D01*
X167694000Y-95658000D01*
X166369000Y-95658000D01*
X166361649Y-95657639D01*
X166354368Y-95656559D01*
X166347229Y-95654771D01*
X166340299Y-95652291D01*
X166333645Y-95649144D01*
X166327332Y-95645360D01*
X166321421Y-95640976D01*
X166315967Y-95636033D01*
X166311024Y-95630579D01*
X166306640Y-95624668D01*
X166302856Y-95618355D01*
X166299709Y-95611701D01*
X166297229Y-95604771D01*
X166295441Y-95597632D01*
X166294361Y-95590351D01*
X166294000Y-95583000D01*
X166294000Y-95433000D01*
X166294361Y-95425649D01*
X166295441Y-95418368D01*
X166297229Y-95411229D01*
X166299709Y-95404299D01*
X166302856Y-95397645D01*
X166306640Y-95391332D01*
X166311024Y-95385421D01*
X166315967Y-95379967D01*
X166321421Y-95375024D01*
X166327332Y-95370640D01*
X166333645Y-95366856D01*
X166340299Y-95363709D01*
X166347229Y-95361229D01*
X166354368Y-95359441D01*
X166361649Y-95358361D01*
X166369000Y-95358000D01*
X167694000Y-95358000D01*
X167701351Y-95358361D01*
X167701351Y-95358361D01*
G37*
D16*
X167031500Y-95508000D03*
D15*
G36*
X167701351Y-94858361D02*
G01*
X167708632Y-94859441D01*
X167715771Y-94861229D01*
X167722701Y-94863709D01*
X167729355Y-94866856D01*
X167735668Y-94870640D01*
X167741579Y-94875024D01*
X167747033Y-94879967D01*
X167751976Y-94885421D01*
X167756360Y-94891332D01*
X167760144Y-94897645D01*
X167763291Y-94904299D01*
X167765771Y-94911229D01*
X167767559Y-94918368D01*
X167768639Y-94925649D01*
X167769000Y-94933000D01*
X167769000Y-95083000D01*
X167768639Y-95090351D01*
X167767559Y-95097632D01*
X167765771Y-95104771D01*
X167763291Y-95111701D01*
X167760144Y-95118355D01*
X167756360Y-95124668D01*
X167751976Y-95130579D01*
X167747033Y-95136033D01*
X167741579Y-95140976D01*
X167735668Y-95145360D01*
X167729355Y-95149144D01*
X167722701Y-95152291D01*
X167715771Y-95154771D01*
X167708632Y-95156559D01*
X167701351Y-95157639D01*
X167694000Y-95158000D01*
X166369000Y-95158000D01*
X166361649Y-95157639D01*
X166354368Y-95156559D01*
X166347229Y-95154771D01*
X166340299Y-95152291D01*
X166333645Y-95149144D01*
X166327332Y-95145360D01*
X166321421Y-95140976D01*
X166315967Y-95136033D01*
X166311024Y-95130579D01*
X166306640Y-95124668D01*
X166302856Y-95118355D01*
X166299709Y-95111701D01*
X166297229Y-95104771D01*
X166295441Y-95097632D01*
X166294361Y-95090351D01*
X166294000Y-95083000D01*
X166294000Y-94933000D01*
X166294361Y-94925649D01*
X166295441Y-94918368D01*
X166297229Y-94911229D01*
X166299709Y-94904299D01*
X166302856Y-94897645D01*
X166306640Y-94891332D01*
X166311024Y-94885421D01*
X166315967Y-94879967D01*
X166321421Y-94875024D01*
X166327332Y-94870640D01*
X166333645Y-94866856D01*
X166340299Y-94863709D01*
X166347229Y-94861229D01*
X166354368Y-94859441D01*
X166361649Y-94858361D01*
X166369000Y-94858000D01*
X167694000Y-94858000D01*
X167701351Y-94858361D01*
X167701351Y-94858361D01*
G37*
D16*
X167031500Y-95008000D03*
D15*
G36*
X167701351Y-94358361D02*
G01*
X167708632Y-94359441D01*
X167715771Y-94361229D01*
X167722701Y-94363709D01*
X167729355Y-94366856D01*
X167735668Y-94370640D01*
X167741579Y-94375024D01*
X167747033Y-94379967D01*
X167751976Y-94385421D01*
X167756360Y-94391332D01*
X167760144Y-94397645D01*
X167763291Y-94404299D01*
X167765771Y-94411229D01*
X167767559Y-94418368D01*
X167768639Y-94425649D01*
X167769000Y-94433000D01*
X167769000Y-94583000D01*
X167768639Y-94590351D01*
X167767559Y-94597632D01*
X167765771Y-94604771D01*
X167763291Y-94611701D01*
X167760144Y-94618355D01*
X167756360Y-94624668D01*
X167751976Y-94630579D01*
X167747033Y-94636033D01*
X167741579Y-94640976D01*
X167735668Y-94645360D01*
X167729355Y-94649144D01*
X167722701Y-94652291D01*
X167715771Y-94654771D01*
X167708632Y-94656559D01*
X167701351Y-94657639D01*
X167694000Y-94658000D01*
X166369000Y-94658000D01*
X166361649Y-94657639D01*
X166354368Y-94656559D01*
X166347229Y-94654771D01*
X166340299Y-94652291D01*
X166333645Y-94649144D01*
X166327332Y-94645360D01*
X166321421Y-94640976D01*
X166315967Y-94636033D01*
X166311024Y-94630579D01*
X166306640Y-94624668D01*
X166302856Y-94618355D01*
X166299709Y-94611701D01*
X166297229Y-94604771D01*
X166295441Y-94597632D01*
X166294361Y-94590351D01*
X166294000Y-94583000D01*
X166294000Y-94433000D01*
X166294361Y-94425649D01*
X166295441Y-94418368D01*
X166297229Y-94411229D01*
X166299709Y-94404299D01*
X166302856Y-94397645D01*
X166306640Y-94391332D01*
X166311024Y-94385421D01*
X166315967Y-94379967D01*
X166321421Y-94375024D01*
X166327332Y-94370640D01*
X166333645Y-94366856D01*
X166340299Y-94363709D01*
X166347229Y-94361229D01*
X166354368Y-94359441D01*
X166361649Y-94358361D01*
X166369000Y-94358000D01*
X167694000Y-94358000D01*
X167701351Y-94358361D01*
X167701351Y-94358361D01*
G37*
D16*
X167031500Y-94508000D03*
D15*
G36*
X167701351Y-93858361D02*
G01*
X167708632Y-93859441D01*
X167715771Y-93861229D01*
X167722701Y-93863709D01*
X167729355Y-93866856D01*
X167735668Y-93870640D01*
X167741579Y-93875024D01*
X167747033Y-93879967D01*
X167751976Y-93885421D01*
X167756360Y-93891332D01*
X167760144Y-93897645D01*
X167763291Y-93904299D01*
X167765771Y-93911229D01*
X167767559Y-93918368D01*
X167768639Y-93925649D01*
X167769000Y-93933000D01*
X167769000Y-94083000D01*
X167768639Y-94090351D01*
X167767559Y-94097632D01*
X167765771Y-94104771D01*
X167763291Y-94111701D01*
X167760144Y-94118355D01*
X167756360Y-94124668D01*
X167751976Y-94130579D01*
X167747033Y-94136033D01*
X167741579Y-94140976D01*
X167735668Y-94145360D01*
X167729355Y-94149144D01*
X167722701Y-94152291D01*
X167715771Y-94154771D01*
X167708632Y-94156559D01*
X167701351Y-94157639D01*
X167694000Y-94158000D01*
X166369000Y-94158000D01*
X166361649Y-94157639D01*
X166354368Y-94156559D01*
X166347229Y-94154771D01*
X166340299Y-94152291D01*
X166333645Y-94149144D01*
X166327332Y-94145360D01*
X166321421Y-94140976D01*
X166315967Y-94136033D01*
X166311024Y-94130579D01*
X166306640Y-94124668D01*
X166302856Y-94118355D01*
X166299709Y-94111701D01*
X166297229Y-94104771D01*
X166295441Y-94097632D01*
X166294361Y-94090351D01*
X166294000Y-94083000D01*
X166294000Y-93933000D01*
X166294361Y-93925649D01*
X166295441Y-93918368D01*
X166297229Y-93911229D01*
X166299709Y-93904299D01*
X166302856Y-93897645D01*
X166306640Y-93891332D01*
X166311024Y-93885421D01*
X166315967Y-93879967D01*
X166321421Y-93875024D01*
X166327332Y-93870640D01*
X166333645Y-93866856D01*
X166340299Y-93863709D01*
X166347229Y-93861229D01*
X166354368Y-93859441D01*
X166361649Y-93858361D01*
X166369000Y-93858000D01*
X167694000Y-93858000D01*
X167701351Y-93858361D01*
X167701351Y-93858361D01*
G37*
D16*
X167031500Y-94008000D03*
D15*
G36*
X167701351Y-93358361D02*
G01*
X167708632Y-93359441D01*
X167715771Y-93361229D01*
X167722701Y-93363709D01*
X167729355Y-93366856D01*
X167735668Y-93370640D01*
X167741579Y-93375024D01*
X167747033Y-93379967D01*
X167751976Y-93385421D01*
X167756360Y-93391332D01*
X167760144Y-93397645D01*
X167763291Y-93404299D01*
X167765771Y-93411229D01*
X167767559Y-93418368D01*
X167768639Y-93425649D01*
X167769000Y-93433000D01*
X167769000Y-93583000D01*
X167768639Y-93590351D01*
X167767559Y-93597632D01*
X167765771Y-93604771D01*
X167763291Y-93611701D01*
X167760144Y-93618355D01*
X167756360Y-93624668D01*
X167751976Y-93630579D01*
X167747033Y-93636033D01*
X167741579Y-93640976D01*
X167735668Y-93645360D01*
X167729355Y-93649144D01*
X167722701Y-93652291D01*
X167715771Y-93654771D01*
X167708632Y-93656559D01*
X167701351Y-93657639D01*
X167694000Y-93658000D01*
X166369000Y-93658000D01*
X166361649Y-93657639D01*
X166354368Y-93656559D01*
X166347229Y-93654771D01*
X166340299Y-93652291D01*
X166333645Y-93649144D01*
X166327332Y-93645360D01*
X166321421Y-93640976D01*
X166315967Y-93636033D01*
X166311024Y-93630579D01*
X166306640Y-93624668D01*
X166302856Y-93618355D01*
X166299709Y-93611701D01*
X166297229Y-93604771D01*
X166295441Y-93597632D01*
X166294361Y-93590351D01*
X166294000Y-93583000D01*
X166294000Y-93433000D01*
X166294361Y-93425649D01*
X166295441Y-93418368D01*
X166297229Y-93411229D01*
X166299709Y-93404299D01*
X166302856Y-93397645D01*
X166306640Y-93391332D01*
X166311024Y-93385421D01*
X166315967Y-93379967D01*
X166321421Y-93375024D01*
X166327332Y-93370640D01*
X166333645Y-93366856D01*
X166340299Y-93363709D01*
X166347229Y-93361229D01*
X166354368Y-93359441D01*
X166361649Y-93358361D01*
X166369000Y-93358000D01*
X167694000Y-93358000D01*
X167701351Y-93358361D01*
X167701351Y-93358361D01*
G37*
D16*
X167031500Y-93508000D03*
D15*
G36*
X167701351Y-92858361D02*
G01*
X167708632Y-92859441D01*
X167715771Y-92861229D01*
X167722701Y-92863709D01*
X167729355Y-92866856D01*
X167735668Y-92870640D01*
X167741579Y-92875024D01*
X167747033Y-92879967D01*
X167751976Y-92885421D01*
X167756360Y-92891332D01*
X167760144Y-92897645D01*
X167763291Y-92904299D01*
X167765771Y-92911229D01*
X167767559Y-92918368D01*
X167768639Y-92925649D01*
X167769000Y-92933000D01*
X167769000Y-93083000D01*
X167768639Y-93090351D01*
X167767559Y-93097632D01*
X167765771Y-93104771D01*
X167763291Y-93111701D01*
X167760144Y-93118355D01*
X167756360Y-93124668D01*
X167751976Y-93130579D01*
X167747033Y-93136033D01*
X167741579Y-93140976D01*
X167735668Y-93145360D01*
X167729355Y-93149144D01*
X167722701Y-93152291D01*
X167715771Y-93154771D01*
X167708632Y-93156559D01*
X167701351Y-93157639D01*
X167694000Y-93158000D01*
X166369000Y-93158000D01*
X166361649Y-93157639D01*
X166354368Y-93156559D01*
X166347229Y-93154771D01*
X166340299Y-93152291D01*
X166333645Y-93149144D01*
X166327332Y-93145360D01*
X166321421Y-93140976D01*
X166315967Y-93136033D01*
X166311024Y-93130579D01*
X166306640Y-93124668D01*
X166302856Y-93118355D01*
X166299709Y-93111701D01*
X166297229Y-93104771D01*
X166295441Y-93097632D01*
X166294361Y-93090351D01*
X166294000Y-93083000D01*
X166294000Y-92933000D01*
X166294361Y-92925649D01*
X166295441Y-92918368D01*
X166297229Y-92911229D01*
X166299709Y-92904299D01*
X166302856Y-92897645D01*
X166306640Y-92891332D01*
X166311024Y-92885421D01*
X166315967Y-92879967D01*
X166321421Y-92875024D01*
X166327332Y-92870640D01*
X166333645Y-92866856D01*
X166340299Y-92863709D01*
X166347229Y-92861229D01*
X166354368Y-92859441D01*
X166361649Y-92858361D01*
X166369000Y-92858000D01*
X167694000Y-92858000D01*
X167701351Y-92858361D01*
X167701351Y-92858361D01*
G37*
D16*
X167031500Y-93008000D03*
D15*
G36*
X167701351Y-92358361D02*
G01*
X167708632Y-92359441D01*
X167715771Y-92361229D01*
X167722701Y-92363709D01*
X167729355Y-92366856D01*
X167735668Y-92370640D01*
X167741579Y-92375024D01*
X167747033Y-92379967D01*
X167751976Y-92385421D01*
X167756360Y-92391332D01*
X167760144Y-92397645D01*
X167763291Y-92404299D01*
X167765771Y-92411229D01*
X167767559Y-92418368D01*
X167768639Y-92425649D01*
X167769000Y-92433000D01*
X167769000Y-92583000D01*
X167768639Y-92590351D01*
X167767559Y-92597632D01*
X167765771Y-92604771D01*
X167763291Y-92611701D01*
X167760144Y-92618355D01*
X167756360Y-92624668D01*
X167751976Y-92630579D01*
X167747033Y-92636033D01*
X167741579Y-92640976D01*
X167735668Y-92645360D01*
X167729355Y-92649144D01*
X167722701Y-92652291D01*
X167715771Y-92654771D01*
X167708632Y-92656559D01*
X167701351Y-92657639D01*
X167694000Y-92658000D01*
X166369000Y-92658000D01*
X166361649Y-92657639D01*
X166354368Y-92656559D01*
X166347229Y-92654771D01*
X166340299Y-92652291D01*
X166333645Y-92649144D01*
X166327332Y-92645360D01*
X166321421Y-92640976D01*
X166315967Y-92636033D01*
X166311024Y-92630579D01*
X166306640Y-92624668D01*
X166302856Y-92618355D01*
X166299709Y-92611701D01*
X166297229Y-92604771D01*
X166295441Y-92597632D01*
X166294361Y-92590351D01*
X166294000Y-92583000D01*
X166294000Y-92433000D01*
X166294361Y-92425649D01*
X166295441Y-92418368D01*
X166297229Y-92411229D01*
X166299709Y-92404299D01*
X166302856Y-92397645D01*
X166306640Y-92391332D01*
X166311024Y-92385421D01*
X166315967Y-92379967D01*
X166321421Y-92375024D01*
X166327332Y-92370640D01*
X166333645Y-92366856D01*
X166340299Y-92363709D01*
X166347229Y-92361229D01*
X166354368Y-92359441D01*
X166361649Y-92358361D01*
X166369000Y-92358000D01*
X167694000Y-92358000D01*
X167701351Y-92358361D01*
X167701351Y-92358361D01*
G37*
D16*
X167031500Y-92508000D03*
D15*
G36*
X167701351Y-91858361D02*
G01*
X167708632Y-91859441D01*
X167715771Y-91861229D01*
X167722701Y-91863709D01*
X167729355Y-91866856D01*
X167735668Y-91870640D01*
X167741579Y-91875024D01*
X167747033Y-91879967D01*
X167751976Y-91885421D01*
X167756360Y-91891332D01*
X167760144Y-91897645D01*
X167763291Y-91904299D01*
X167765771Y-91911229D01*
X167767559Y-91918368D01*
X167768639Y-91925649D01*
X167769000Y-91933000D01*
X167769000Y-92083000D01*
X167768639Y-92090351D01*
X167767559Y-92097632D01*
X167765771Y-92104771D01*
X167763291Y-92111701D01*
X167760144Y-92118355D01*
X167756360Y-92124668D01*
X167751976Y-92130579D01*
X167747033Y-92136033D01*
X167741579Y-92140976D01*
X167735668Y-92145360D01*
X167729355Y-92149144D01*
X167722701Y-92152291D01*
X167715771Y-92154771D01*
X167708632Y-92156559D01*
X167701351Y-92157639D01*
X167694000Y-92158000D01*
X166369000Y-92158000D01*
X166361649Y-92157639D01*
X166354368Y-92156559D01*
X166347229Y-92154771D01*
X166340299Y-92152291D01*
X166333645Y-92149144D01*
X166327332Y-92145360D01*
X166321421Y-92140976D01*
X166315967Y-92136033D01*
X166311024Y-92130579D01*
X166306640Y-92124668D01*
X166302856Y-92118355D01*
X166299709Y-92111701D01*
X166297229Y-92104771D01*
X166295441Y-92097632D01*
X166294361Y-92090351D01*
X166294000Y-92083000D01*
X166294000Y-91933000D01*
X166294361Y-91925649D01*
X166295441Y-91918368D01*
X166297229Y-91911229D01*
X166299709Y-91904299D01*
X166302856Y-91897645D01*
X166306640Y-91891332D01*
X166311024Y-91885421D01*
X166315967Y-91879967D01*
X166321421Y-91875024D01*
X166327332Y-91870640D01*
X166333645Y-91866856D01*
X166340299Y-91863709D01*
X166347229Y-91861229D01*
X166354368Y-91859441D01*
X166361649Y-91858361D01*
X166369000Y-91858000D01*
X167694000Y-91858000D01*
X167701351Y-91858361D01*
X167701351Y-91858361D01*
G37*
D16*
X167031500Y-92008000D03*
D15*
G36*
X167701351Y-91358361D02*
G01*
X167708632Y-91359441D01*
X167715771Y-91361229D01*
X167722701Y-91363709D01*
X167729355Y-91366856D01*
X167735668Y-91370640D01*
X167741579Y-91375024D01*
X167747033Y-91379967D01*
X167751976Y-91385421D01*
X167756360Y-91391332D01*
X167760144Y-91397645D01*
X167763291Y-91404299D01*
X167765771Y-91411229D01*
X167767559Y-91418368D01*
X167768639Y-91425649D01*
X167769000Y-91433000D01*
X167769000Y-91583000D01*
X167768639Y-91590351D01*
X167767559Y-91597632D01*
X167765771Y-91604771D01*
X167763291Y-91611701D01*
X167760144Y-91618355D01*
X167756360Y-91624668D01*
X167751976Y-91630579D01*
X167747033Y-91636033D01*
X167741579Y-91640976D01*
X167735668Y-91645360D01*
X167729355Y-91649144D01*
X167722701Y-91652291D01*
X167715771Y-91654771D01*
X167708632Y-91656559D01*
X167701351Y-91657639D01*
X167694000Y-91658000D01*
X166369000Y-91658000D01*
X166361649Y-91657639D01*
X166354368Y-91656559D01*
X166347229Y-91654771D01*
X166340299Y-91652291D01*
X166333645Y-91649144D01*
X166327332Y-91645360D01*
X166321421Y-91640976D01*
X166315967Y-91636033D01*
X166311024Y-91630579D01*
X166306640Y-91624668D01*
X166302856Y-91618355D01*
X166299709Y-91611701D01*
X166297229Y-91604771D01*
X166295441Y-91597632D01*
X166294361Y-91590351D01*
X166294000Y-91583000D01*
X166294000Y-91433000D01*
X166294361Y-91425649D01*
X166295441Y-91418368D01*
X166297229Y-91411229D01*
X166299709Y-91404299D01*
X166302856Y-91397645D01*
X166306640Y-91391332D01*
X166311024Y-91385421D01*
X166315967Y-91379967D01*
X166321421Y-91375024D01*
X166327332Y-91370640D01*
X166333645Y-91366856D01*
X166340299Y-91363709D01*
X166347229Y-91361229D01*
X166354368Y-91359441D01*
X166361649Y-91358361D01*
X166369000Y-91358000D01*
X167694000Y-91358000D01*
X167701351Y-91358361D01*
X167701351Y-91358361D01*
G37*
D16*
X167031500Y-91508000D03*
D15*
G36*
X168526351Y-89358361D02*
G01*
X168533632Y-89359441D01*
X168540771Y-89361229D01*
X168547701Y-89363709D01*
X168554355Y-89366856D01*
X168560668Y-89370640D01*
X168566579Y-89375024D01*
X168572033Y-89379967D01*
X168576976Y-89385421D01*
X168581360Y-89391332D01*
X168585144Y-89397645D01*
X168588291Y-89404299D01*
X168590771Y-89411229D01*
X168592559Y-89418368D01*
X168593639Y-89425649D01*
X168594000Y-89433000D01*
X168594000Y-90758000D01*
X168593639Y-90765351D01*
X168592559Y-90772632D01*
X168590771Y-90779771D01*
X168588291Y-90786701D01*
X168585144Y-90793355D01*
X168581360Y-90799668D01*
X168576976Y-90805579D01*
X168572033Y-90811033D01*
X168566579Y-90815976D01*
X168560668Y-90820360D01*
X168554355Y-90824144D01*
X168547701Y-90827291D01*
X168540771Y-90829771D01*
X168533632Y-90831559D01*
X168526351Y-90832639D01*
X168519000Y-90833000D01*
X168369000Y-90833000D01*
X168361649Y-90832639D01*
X168354368Y-90831559D01*
X168347229Y-90829771D01*
X168340299Y-90827291D01*
X168333645Y-90824144D01*
X168327332Y-90820360D01*
X168321421Y-90815976D01*
X168315967Y-90811033D01*
X168311024Y-90805579D01*
X168306640Y-90799668D01*
X168302856Y-90793355D01*
X168299709Y-90786701D01*
X168297229Y-90779771D01*
X168295441Y-90772632D01*
X168294361Y-90765351D01*
X168294000Y-90758000D01*
X168294000Y-89433000D01*
X168294361Y-89425649D01*
X168295441Y-89418368D01*
X168297229Y-89411229D01*
X168299709Y-89404299D01*
X168302856Y-89397645D01*
X168306640Y-89391332D01*
X168311024Y-89385421D01*
X168315967Y-89379967D01*
X168321421Y-89375024D01*
X168327332Y-89370640D01*
X168333645Y-89366856D01*
X168340299Y-89363709D01*
X168347229Y-89361229D01*
X168354368Y-89359441D01*
X168361649Y-89358361D01*
X168369000Y-89358000D01*
X168519000Y-89358000D01*
X168526351Y-89358361D01*
X168526351Y-89358361D01*
G37*
D16*
X168444000Y-90095500D03*
D15*
G36*
X169026351Y-89358361D02*
G01*
X169033632Y-89359441D01*
X169040771Y-89361229D01*
X169047701Y-89363709D01*
X169054355Y-89366856D01*
X169060668Y-89370640D01*
X169066579Y-89375024D01*
X169072033Y-89379967D01*
X169076976Y-89385421D01*
X169081360Y-89391332D01*
X169085144Y-89397645D01*
X169088291Y-89404299D01*
X169090771Y-89411229D01*
X169092559Y-89418368D01*
X169093639Y-89425649D01*
X169094000Y-89433000D01*
X169094000Y-90758000D01*
X169093639Y-90765351D01*
X169092559Y-90772632D01*
X169090771Y-90779771D01*
X169088291Y-90786701D01*
X169085144Y-90793355D01*
X169081360Y-90799668D01*
X169076976Y-90805579D01*
X169072033Y-90811033D01*
X169066579Y-90815976D01*
X169060668Y-90820360D01*
X169054355Y-90824144D01*
X169047701Y-90827291D01*
X169040771Y-90829771D01*
X169033632Y-90831559D01*
X169026351Y-90832639D01*
X169019000Y-90833000D01*
X168869000Y-90833000D01*
X168861649Y-90832639D01*
X168854368Y-90831559D01*
X168847229Y-90829771D01*
X168840299Y-90827291D01*
X168833645Y-90824144D01*
X168827332Y-90820360D01*
X168821421Y-90815976D01*
X168815967Y-90811033D01*
X168811024Y-90805579D01*
X168806640Y-90799668D01*
X168802856Y-90793355D01*
X168799709Y-90786701D01*
X168797229Y-90779771D01*
X168795441Y-90772632D01*
X168794361Y-90765351D01*
X168794000Y-90758000D01*
X168794000Y-89433000D01*
X168794361Y-89425649D01*
X168795441Y-89418368D01*
X168797229Y-89411229D01*
X168799709Y-89404299D01*
X168802856Y-89397645D01*
X168806640Y-89391332D01*
X168811024Y-89385421D01*
X168815967Y-89379967D01*
X168821421Y-89375024D01*
X168827332Y-89370640D01*
X168833645Y-89366856D01*
X168840299Y-89363709D01*
X168847229Y-89361229D01*
X168854368Y-89359441D01*
X168861649Y-89358361D01*
X168869000Y-89358000D01*
X169019000Y-89358000D01*
X169026351Y-89358361D01*
X169026351Y-89358361D01*
G37*
D16*
X168944000Y-90095500D03*
D15*
G36*
X169526351Y-89358361D02*
G01*
X169533632Y-89359441D01*
X169540771Y-89361229D01*
X169547701Y-89363709D01*
X169554355Y-89366856D01*
X169560668Y-89370640D01*
X169566579Y-89375024D01*
X169572033Y-89379967D01*
X169576976Y-89385421D01*
X169581360Y-89391332D01*
X169585144Y-89397645D01*
X169588291Y-89404299D01*
X169590771Y-89411229D01*
X169592559Y-89418368D01*
X169593639Y-89425649D01*
X169594000Y-89433000D01*
X169594000Y-90758000D01*
X169593639Y-90765351D01*
X169592559Y-90772632D01*
X169590771Y-90779771D01*
X169588291Y-90786701D01*
X169585144Y-90793355D01*
X169581360Y-90799668D01*
X169576976Y-90805579D01*
X169572033Y-90811033D01*
X169566579Y-90815976D01*
X169560668Y-90820360D01*
X169554355Y-90824144D01*
X169547701Y-90827291D01*
X169540771Y-90829771D01*
X169533632Y-90831559D01*
X169526351Y-90832639D01*
X169519000Y-90833000D01*
X169369000Y-90833000D01*
X169361649Y-90832639D01*
X169354368Y-90831559D01*
X169347229Y-90829771D01*
X169340299Y-90827291D01*
X169333645Y-90824144D01*
X169327332Y-90820360D01*
X169321421Y-90815976D01*
X169315967Y-90811033D01*
X169311024Y-90805579D01*
X169306640Y-90799668D01*
X169302856Y-90793355D01*
X169299709Y-90786701D01*
X169297229Y-90779771D01*
X169295441Y-90772632D01*
X169294361Y-90765351D01*
X169294000Y-90758000D01*
X169294000Y-89433000D01*
X169294361Y-89425649D01*
X169295441Y-89418368D01*
X169297229Y-89411229D01*
X169299709Y-89404299D01*
X169302856Y-89397645D01*
X169306640Y-89391332D01*
X169311024Y-89385421D01*
X169315967Y-89379967D01*
X169321421Y-89375024D01*
X169327332Y-89370640D01*
X169333645Y-89366856D01*
X169340299Y-89363709D01*
X169347229Y-89361229D01*
X169354368Y-89359441D01*
X169361649Y-89358361D01*
X169369000Y-89358000D01*
X169519000Y-89358000D01*
X169526351Y-89358361D01*
X169526351Y-89358361D01*
G37*
D16*
X169444000Y-90095500D03*
D15*
G36*
X170026351Y-89358361D02*
G01*
X170033632Y-89359441D01*
X170040771Y-89361229D01*
X170047701Y-89363709D01*
X170054355Y-89366856D01*
X170060668Y-89370640D01*
X170066579Y-89375024D01*
X170072033Y-89379967D01*
X170076976Y-89385421D01*
X170081360Y-89391332D01*
X170085144Y-89397645D01*
X170088291Y-89404299D01*
X170090771Y-89411229D01*
X170092559Y-89418368D01*
X170093639Y-89425649D01*
X170094000Y-89433000D01*
X170094000Y-90758000D01*
X170093639Y-90765351D01*
X170092559Y-90772632D01*
X170090771Y-90779771D01*
X170088291Y-90786701D01*
X170085144Y-90793355D01*
X170081360Y-90799668D01*
X170076976Y-90805579D01*
X170072033Y-90811033D01*
X170066579Y-90815976D01*
X170060668Y-90820360D01*
X170054355Y-90824144D01*
X170047701Y-90827291D01*
X170040771Y-90829771D01*
X170033632Y-90831559D01*
X170026351Y-90832639D01*
X170019000Y-90833000D01*
X169869000Y-90833000D01*
X169861649Y-90832639D01*
X169854368Y-90831559D01*
X169847229Y-90829771D01*
X169840299Y-90827291D01*
X169833645Y-90824144D01*
X169827332Y-90820360D01*
X169821421Y-90815976D01*
X169815967Y-90811033D01*
X169811024Y-90805579D01*
X169806640Y-90799668D01*
X169802856Y-90793355D01*
X169799709Y-90786701D01*
X169797229Y-90779771D01*
X169795441Y-90772632D01*
X169794361Y-90765351D01*
X169794000Y-90758000D01*
X169794000Y-89433000D01*
X169794361Y-89425649D01*
X169795441Y-89418368D01*
X169797229Y-89411229D01*
X169799709Y-89404299D01*
X169802856Y-89397645D01*
X169806640Y-89391332D01*
X169811024Y-89385421D01*
X169815967Y-89379967D01*
X169821421Y-89375024D01*
X169827332Y-89370640D01*
X169833645Y-89366856D01*
X169840299Y-89363709D01*
X169847229Y-89361229D01*
X169854368Y-89359441D01*
X169861649Y-89358361D01*
X169869000Y-89358000D01*
X170019000Y-89358000D01*
X170026351Y-89358361D01*
X170026351Y-89358361D01*
G37*
D16*
X169944000Y-90095500D03*
D15*
G36*
X170526351Y-89358361D02*
G01*
X170533632Y-89359441D01*
X170540771Y-89361229D01*
X170547701Y-89363709D01*
X170554355Y-89366856D01*
X170560668Y-89370640D01*
X170566579Y-89375024D01*
X170572033Y-89379967D01*
X170576976Y-89385421D01*
X170581360Y-89391332D01*
X170585144Y-89397645D01*
X170588291Y-89404299D01*
X170590771Y-89411229D01*
X170592559Y-89418368D01*
X170593639Y-89425649D01*
X170594000Y-89433000D01*
X170594000Y-90758000D01*
X170593639Y-90765351D01*
X170592559Y-90772632D01*
X170590771Y-90779771D01*
X170588291Y-90786701D01*
X170585144Y-90793355D01*
X170581360Y-90799668D01*
X170576976Y-90805579D01*
X170572033Y-90811033D01*
X170566579Y-90815976D01*
X170560668Y-90820360D01*
X170554355Y-90824144D01*
X170547701Y-90827291D01*
X170540771Y-90829771D01*
X170533632Y-90831559D01*
X170526351Y-90832639D01*
X170519000Y-90833000D01*
X170369000Y-90833000D01*
X170361649Y-90832639D01*
X170354368Y-90831559D01*
X170347229Y-90829771D01*
X170340299Y-90827291D01*
X170333645Y-90824144D01*
X170327332Y-90820360D01*
X170321421Y-90815976D01*
X170315967Y-90811033D01*
X170311024Y-90805579D01*
X170306640Y-90799668D01*
X170302856Y-90793355D01*
X170299709Y-90786701D01*
X170297229Y-90779771D01*
X170295441Y-90772632D01*
X170294361Y-90765351D01*
X170294000Y-90758000D01*
X170294000Y-89433000D01*
X170294361Y-89425649D01*
X170295441Y-89418368D01*
X170297229Y-89411229D01*
X170299709Y-89404299D01*
X170302856Y-89397645D01*
X170306640Y-89391332D01*
X170311024Y-89385421D01*
X170315967Y-89379967D01*
X170321421Y-89375024D01*
X170327332Y-89370640D01*
X170333645Y-89366856D01*
X170340299Y-89363709D01*
X170347229Y-89361229D01*
X170354368Y-89359441D01*
X170361649Y-89358361D01*
X170369000Y-89358000D01*
X170519000Y-89358000D01*
X170526351Y-89358361D01*
X170526351Y-89358361D01*
G37*
D16*
X170444000Y-90095500D03*
D15*
G36*
X171026351Y-89358361D02*
G01*
X171033632Y-89359441D01*
X171040771Y-89361229D01*
X171047701Y-89363709D01*
X171054355Y-89366856D01*
X171060668Y-89370640D01*
X171066579Y-89375024D01*
X171072033Y-89379967D01*
X171076976Y-89385421D01*
X171081360Y-89391332D01*
X171085144Y-89397645D01*
X171088291Y-89404299D01*
X171090771Y-89411229D01*
X171092559Y-89418368D01*
X171093639Y-89425649D01*
X171094000Y-89433000D01*
X171094000Y-90758000D01*
X171093639Y-90765351D01*
X171092559Y-90772632D01*
X171090771Y-90779771D01*
X171088291Y-90786701D01*
X171085144Y-90793355D01*
X171081360Y-90799668D01*
X171076976Y-90805579D01*
X171072033Y-90811033D01*
X171066579Y-90815976D01*
X171060668Y-90820360D01*
X171054355Y-90824144D01*
X171047701Y-90827291D01*
X171040771Y-90829771D01*
X171033632Y-90831559D01*
X171026351Y-90832639D01*
X171019000Y-90833000D01*
X170869000Y-90833000D01*
X170861649Y-90832639D01*
X170854368Y-90831559D01*
X170847229Y-90829771D01*
X170840299Y-90827291D01*
X170833645Y-90824144D01*
X170827332Y-90820360D01*
X170821421Y-90815976D01*
X170815967Y-90811033D01*
X170811024Y-90805579D01*
X170806640Y-90799668D01*
X170802856Y-90793355D01*
X170799709Y-90786701D01*
X170797229Y-90779771D01*
X170795441Y-90772632D01*
X170794361Y-90765351D01*
X170794000Y-90758000D01*
X170794000Y-89433000D01*
X170794361Y-89425649D01*
X170795441Y-89418368D01*
X170797229Y-89411229D01*
X170799709Y-89404299D01*
X170802856Y-89397645D01*
X170806640Y-89391332D01*
X170811024Y-89385421D01*
X170815967Y-89379967D01*
X170821421Y-89375024D01*
X170827332Y-89370640D01*
X170833645Y-89366856D01*
X170840299Y-89363709D01*
X170847229Y-89361229D01*
X170854368Y-89359441D01*
X170861649Y-89358361D01*
X170869000Y-89358000D01*
X171019000Y-89358000D01*
X171026351Y-89358361D01*
X171026351Y-89358361D01*
G37*
D16*
X170944000Y-90095500D03*
D15*
G36*
X171526351Y-89358361D02*
G01*
X171533632Y-89359441D01*
X171540771Y-89361229D01*
X171547701Y-89363709D01*
X171554355Y-89366856D01*
X171560668Y-89370640D01*
X171566579Y-89375024D01*
X171572033Y-89379967D01*
X171576976Y-89385421D01*
X171581360Y-89391332D01*
X171585144Y-89397645D01*
X171588291Y-89404299D01*
X171590771Y-89411229D01*
X171592559Y-89418368D01*
X171593639Y-89425649D01*
X171594000Y-89433000D01*
X171594000Y-90758000D01*
X171593639Y-90765351D01*
X171592559Y-90772632D01*
X171590771Y-90779771D01*
X171588291Y-90786701D01*
X171585144Y-90793355D01*
X171581360Y-90799668D01*
X171576976Y-90805579D01*
X171572033Y-90811033D01*
X171566579Y-90815976D01*
X171560668Y-90820360D01*
X171554355Y-90824144D01*
X171547701Y-90827291D01*
X171540771Y-90829771D01*
X171533632Y-90831559D01*
X171526351Y-90832639D01*
X171519000Y-90833000D01*
X171369000Y-90833000D01*
X171361649Y-90832639D01*
X171354368Y-90831559D01*
X171347229Y-90829771D01*
X171340299Y-90827291D01*
X171333645Y-90824144D01*
X171327332Y-90820360D01*
X171321421Y-90815976D01*
X171315967Y-90811033D01*
X171311024Y-90805579D01*
X171306640Y-90799668D01*
X171302856Y-90793355D01*
X171299709Y-90786701D01*
X171297229Y-90779771D01*
X171295441Y-90772632D01*
X171294361Y-90765351D01*
X171294000Y-90758000D01*
X171294000Y-89433000D01*
X171294361Y-89425649D01*
X171295441Y-89418368D01*
X171297229Y-89411229D01*
X171299709Y-89404299D01*
X171302856Y-89397645D01*
X171306640Y-89391332D01*
X171311024Y-89385421D01*
X171315967Y-89379967D01*
X171321421Y-89375024D01*
X171327332Y-89370640D01*
X171333645Y-89366856D01*
X171340299Y-89363709D01*
X171347229Y-89361229D01*
X171354368Y-89359441D01*
X171361649Y-89358361D01*
X171369000Y-89358000D01*
X171519000Y-89358000D01*
X171526351Y-89358361D01*
X171526351Y-89358361D01*
G37*
D16*
X171444000Y-90095500D03*
D15*
G36*
X172026351Y-89358361D02*
G01*
X172033632Y-89359441D01*
X172040771Y-89361229D01*
X172047701Y-89363709D01*
X172054355Y-89366856D01*
X172060668Y-89370640D01*
X172066579Y-89375024D01*
X172072033Y-89379967D01*
X172076976Y-89385421D01*
X172081360Y-89391332D01*
X172085144Y-89397645D01*
X172088291Y-89404299D01*
X172090771Y-89411229D01*
X172092559Y-89418368D01*
X172093639Y-89425649D01*
X172094000Y-89433000D01*
X172094000Y-90758000D01*
X172093639Y-90765351D01*
X172092559Y-90772632D01*
X172090771Y-90779771D01*
X172088291Y-90786701D01*
X172085144Y-90793355D01*
X172081360Y-90799668D01*
X172076976Y-90805579D01*
X172072033Y-90811033D01*
X172066579Y-90815976D01*
X172060668Y-90820360D01*
X172054355Y-90824144D01*
X172047701Y-90827291D01*
X172040771Y-90829771D01*
X172033632Y-90831559D01*
X172026351Y-90832639D01*
X172019000Y-90833000D01*
X171869000Y-90833000D01*
X171861649Y-90832639D01*
X171854368Y-90831559D01*
X171847229Y-90829771D01*
X171840299Y-90827291D01*
X171833645Y-90824144D01*
X171827332Y-90820360D01*
X171821421Y-90815976D01*
X171815967Y-90811033D01*
X171811024Y-90805579D01*
X171806640Y-90799668D01*
X171802856Y-90793355D01*
X171799709Y-90786701D01*
X171797229Y-90779771D01*
X171795441Y-90772632D01*
X171794361Y-90765351D01*
X171794000Y-90758000D01*
X171794000Y-89433000D01*
X171794361Y-89425649D01*
X171795441Y-89418368D01*
X171797229Y-89411229D01*
X171799709Y-89404299D01*
X171802856Y-89397645D01*
X171806640Y-89391332D01*
X171811024Y-89385421D01*
X171815967Y-89379967D01*
X171821421Y-89375024D01*
X171827332Y-89370640D01*
X171833645Y-89366856D01*
X171840299Y-89363709D01*
X171847229Y-89361229D01*
X171854368Y-89359441D01*
X171861649Y-89358361D01*
X171869000Y-89358000D01*
X172019000Y-89358000D01*
X172026351Y-89358361D01*
X172026351Y-89358361D01*
G37*
D16*
X171944000Y-90095500D03*
D15*
G36*
X172526351Y-89358361D02*
G01*
X172533632Y-89359441D01*
X172540771Y-89361229D01*
X172547701Y-89363709D01*
X172554355Y-89366856D01*
X172560668Y-89370640D01*
X172566579Y-89375024D01*
X172572033Y-89379967D01*
X172576976Y-89385421D01*
X172581360Y-89391332D01*
X172585144Y-89397645D01*
X172588291Y-89404299D01*
X172590771Y-89411229D01*
X172592559Y-89418368D01*
X172593639Y-89425649D01*
X172594000Y-89433000D01*
X172594000Y-90758000D01*
X172593639Y-90765351D01*
X172592559Y-90772632D01*
X172590771Y-90779771D01*
X172588291Y-90786701D01*
X172585144Y-90793355D01*
X172581360Y-90799668D01*
X172576976Y-90805579D01*
X172572033Y-90811033D01*
X172566579Y-90815976D01*
X172560668Y-90820360D01*
X172554355Y-90824144D01*
X172547701Y-90827291D01*
X172540771Y-90829771D01*
X172533632Y-90831559D01*
X172526351Y-90832639D01*
X172519000Y-90833000D01*
X172369000Y-90833000D01*
X172361649Y-90832639D01*
X172354368Y-90831559D01*
X172347229Y-90829771D01*
X172340299Y-90827291D01*
X172333645Y-90824144D01*
X172327332Y-90820360D01*
X172321421Y-90815976D01*
X172315967Y-90811033D01*
X172311024Y-90805579D01*
X172306640Y-90799668D01*
X172302856Y-90793355D01*
X172299709Y-90786701D01*
X172297229Y-90779771D01*
X172295441Y-90772632D01*
X172294361Y-90765351D01*
X172294000Y-90758000D01*
X172294000Y-89433000D01*
X172294361Y-89425649D01*
X172295441Y-89418368D01*
X172297229Y-89411229D01*
X172299709Y-89404299D01*
X172302856Y-89397645D01*
X172306640Y-89391332D01*
X172311024Y-89385421D01*
X172315967Y-89379967D01*
X172321421Y-89375024D01*
X172327332Y-89370640D01*
X172333645Y-89366856D01*
X172340299Y-89363709D01*
X172347229Y-89361229D01*
X172354368Y-89359441D01*
X172361649Y-89358361D01*
X172369000Y-89358000D01*
X172519000Y-89358000D01*
X172526351Y-89358361D01*
X172526351Y-89358361D01*
G37*
D16*
X172444000Y-90095500D03*
D15*
G36*
X173026351Y-89358361D02*
G01*
X173033632Y-89359441D01*
X173040771Y-89361229D01*
X173047701Y-89363709D01*
X173054355Y-89366856D01*
X173060668Y-89370640D01*
X173066579Y-89375024D01*
X173072033Y-89379967D01*
X173076976Y-89385421D01*
X173081360Y-89391332D01*
X173085144Y-89397645D01*
X173088291Y-89404299D01*
X173090771Y-89411229D01*
X173092559Y-89418368D01*
X173093639Y-89425649D01*
X173094000Y-89433000D01*
X173094000Y-90758000D01*
X173093639Y-90765351D01*
X173092559Y-90772632D01*
X173090771Y-90779771D01*
X173088291Y-90786701D01*
X173085144Y-90793355D01*
X173081360Y-90799668D01*
X173076976Y-90805579D01*
X173072033Y-90811033D01*
X173066579Y-90815976D01*
X173060668Y-90820360D01*
X173054355Y-90824144D01*
X173047701Y-90827291D01*
X173040771Y-90829771D01*
X173033632Y-90831559D01*
X173026351Y-90832639D01*
X173019000Y-90833000D01*
X172869000Y-90833000D01*
X172861649Y-90832639D01*
X172854368Y-90831559D01*
X172847229Y-90829771D01*
X172840299Y-90827291D01*
X172833645Y-90824144D01*
X172827332Y-90820360D01*
X172821421Y-90815976D01*
X172815967Y-90811033D01*
X172811024Y-90805579D01*
X172806640Y-90799668D01*
X172802856Y-90793355D01*
X172799709Y-90786701D01*
X172797229Y-90779771D01*
X172795441Y-90772632D01*
X172794361Y-90765351D01*
X172794000Y-90758000D01*
X172794000Y-89433000D01*
X172794361Y-89425649D01*
X172795441Y-89418368D01*
X172797229Y-89411229D01*
X172799709Y-89404299D01*
X172802856Y-89397645D01*
X172806640Y-89391332D01*
X172811024Y-89385421D01*
X172815967Y-89379967D01*
X172821421Y-89375024D01*
X172827332Y-89370640D01*
X172833645Y-89366856D01*
X172840299Y-89363709D01*
X172847229Y-89361229D01*
X172854368Y-89359441D01*
X172861649Y-89358361D01*
X172869000Y-89358000D01*
X173019000Y-89358000D01*
X173026351Y-89358361D01*
X173026351Y-89358361D01*
G37*
D16*
X172944000Y-90095500D03*
D15*
G36*
X173526351Y-89358361D02*
G01*
X173533632Y-89359441D01*
X173540771Y-89361229D01*
X173547701Y-89363709D01*
X173554355Y-89366856D01*
X173560668Y-89370640D01*
X173566579Y-89375024D01*
X173572033Y-89379967D01*
X173576976Y-89385421D01*
X173581360Y-89391332D01*
X173585144Y-89397645D01*
X173588291Y-89404299D01*
X173590771Y-89411229D01*
X173592559Y-89418368D01*
X173593639Y-89425649D01*
X173594000Y-89433000D01*
X173594000Y-90758000D01*
X173593639Y-90765351D01*
X173592559Y-90772632D01*
X173590771Y-90779771D01*
X173588291Y-90786701D01*
X173585144Y-90793355D01*
X173581360Y-90799668D01*
X173576976Y-90805579D01*
X173572033Y-90811033D01*
X173566579Y-90815976D01*
X173560668Y-90820360D01*
X173554355Y-90824144D01*
X173547701Y-90827291D01*
X173540771Y-90829771D01*
X173533632Y-90831559D01*
X173526351Y-90832639D01*
X173519000Y-90833000D01*
X173369000Y-90833000D01*
X173361649Y-90832639D01*
X173354368Y-90831559D01*
X173347229Y-90829771D01*
X173340299Y-90827291D01*
X173333645Y-90824144D01*
X173327332Y-90820360D01*
X173321421Y-90815976D01*
X173315967Y-90811033D01*
X173311024Y-90805579D01*
X173306640Y-90799668D01*
X173302856Y-90793355D01*
X173299709Y-90786701D01*
X173297229Y-90779771D01*
X173295441Y-90772632D01*
X173294361Y-90765351D01*
X173294000Y-90758000D01*
X173294000Y-89433000D01*
X173294361Y-89425649D01*
X173295441Y-89418368D01*
X173297229Y-89411229D01*
X173299709Y-89404299D01*
X173302856Y-89397645D01*
X173306640Y-89391332D01*
X173311024Y-89385421D01*
X173315967Y-89379967D01*
X173321421Y-89375024D01*
X173327332Y-89370640D01*
X173333645Y-89366856D01*
X173340299Y-89363709D01*
X173347229Y-89361229D01*
X173354368Y-89359441D01*
X173361649Y-89358361D01*
X173369000Y-89358000D01*
X173519000Y-89358000D01*
X173526351Y-89358361D01*
X173526351Y-89358361D01*
G37*
D16*
X173444000Y-90095500D03*
D15*
G36*
X174026351Y-89358361D02*
G01*
X174033632Y-89359441D01*
X174040771Y-89361229D01*
X174047701Y-89363709D01*
X174054355Y-89366856D01*
X174060668Y-89370640D01*
X174066579Y-89375024D01*
X174072033Y-89379967D01*
X174076976Y-89385421D01*
X174081360Y-89391332D01*
X174085144Y-89397645D01*
X174088291Y-89404299D01*
X174090771Y-89411229D01*
X174092559Y-89418368D01*
X174093639Y-89425649D01*
X174094000Y-89433000D01*
X174094000Y-90758000D01*
X174093639Y-90765351D01*
X174092559Y-90772632D01*
X174090771Y-90779771D01*
X174088291Y-90786701D01*
X174085144Y-90793355D01*
X174081360Y-90799668D01*
X174076976Y-90805579D01*
X174072033Y-90811033D01*
X174066579Y-90815976D01*
X174060668Y-90820360D01*
X174054355Y-90824144D01*
X174047701Y-90827291D01*
X174040771Y-90829771D01*
X174033632Y-90831559D01*
X174026351Y-90832639D01*
X174019000Y-90833000D01*
X173869000Y-90833000D01*
X173861649Y-90832639D01*
X173854368Y-90831559D01*
X173847229Y-90829771D01*
X173840299Y-90827291D01*
X173833645Y-90824144D01*
X173827332Y-90820360D01*
X173821421Y-90815976D01*
X173815967Y-90811033D01*
X173811024Y-90805579D01*
X173806640Y-90799668D01*
X173802856Y-90793355D01*
X173799709Y-90786701D01*
X173797229Y-90779771D01*
X173795441Y-90772632D01*
X173794361Y-90765351D01*
X173794000Y-90758000D01*
X173794000Y-89433000D01*
X173794361Y-89425649D01*
X173795441Y-89418368D01*
X173797229Y-89411229D01*
X173799709Y-89404299D01*
X173802856Y-89397645D01*
X173806640Y-89391332D01*
X173811024Y-89385421D01*
X173815967Y-89379967D01*
X173821421Y-89375024D01*
X173827332Y-89370640D01*
X173833645Y-89366856D01*
X173840299Y-89363709D01*
X173847229Y-89361229D01*
X173854368Y-89359441D01*
X173861649Y-89358361D01*
X173869000Y-89358000D01*
X174019000Y-89358000D01*
X174026351Y-89358361D01*
X174026351Y-89358361D01*
G37*
D16*
X173944000Y-90095500D03*
D15*
G36*
X176026351Y-91358361D02*
G01*
X176033632Y-91359441D01*
X176040771Y-91361229D01*
X176047701Y-91363709D01*
X176054355Y-91366856D01*
X176060668Y-91370640D01*
X176066579Y-91375024D01*
X176072033Y-91379967D01*
X176076976Y-91385421D01*
X176081360Y-91391332D01*
X176085144Y-91397645D01*
X176088291Y-91404299D01*
X176090771Y-91411229D01*
X176092559Y-91418368D01*
X176093639Y-91425649D01*
X176094000Y-91433000D01*
X176094000Y-91583000D01*
X176093639Y-91590351D01*
X176092559Y-91597632D01*
X176090771Y-91604771D01*
X176088291Y-91611701D01*
X176085144Y-91618355D01*
X176081360Y-91624668D01*
X176076976Y-91630579D01*
X176072033Y-91636033D01*
X176066579Y-91640976D01*
X176060668Y-91645360D01*
X176054355Y-91649144D01*
X176047701Y-91652291D01*
X176040771Y-91654771D01*
X176033632Y-91656559D01*
X176026351Y-91657639D01*
X176019000Y-91658000D01*
X174694000Y-91658000D01*
X174686649Y-91657639D01*
X174679368Y-91656559D01*
X174672229Y-91654771D01*
X174665299Y-91652291D01*
X174658645Y-91649144D01*
X174652332Y-91645360D01*
X174646421Y-91640976D01*
X174640967Y-91636033D01*
X174636024Y-91630579D01*
X174631640Y-91624668D01*
X174627856Y-91618355D01*
X174624709Y-91611701D01*
X174622229Y-91604771D01*
X174620441Y-91597632D01*
X174619361Y-91590351D01*
X174619000Y-91583000D01*
X174619000Y-91433000D01*
X174619361Y-91425649D01*
X174620441Y-91418368D01*
X174622229Y-91411229D01*
X174624709Y-91404299D01*
X174627856Y-91397645D01*
X174631640Y-91391332D01*
X174636024Y-91385421D01*
X174640967Y-91379967D01*
X174646421Y-91375024D01*
X174652332Y-91370640D01*
X174658645Y-91366856D01*
X174665299Y-91363709D01*
X174672229Y-91361229D01*
X174679368Y-91359441D01*
X174686649Y-91358361D01*
X174694000Y-91358000D01*
X176019000Y-91358000D01*
X176026351Y-91358361D01*
X176026351Y-91358361D01*
G37*
D16*
X175356500Y-91508000D03*
D15*
G36*
X176026351Y-91858361D02*
G01*
X176033632Y-91859441D01*
X176040771Y-91861229D01*
X176047701Y-91863709D01*
X176054355Y-91866856D01*
X176060668Y-91870640D01*
X176066579Y-91875024D01*
X176072033Y-91879967D01*
X176076976Y-91885421D01*
X176081360Y-91891332D01*
X176085144Y-91897645D01*
X176088291Y-91904299D01*
X176090771Y-91911229D01*
X176092559Y-91918368D01*
X176093639Y-91925649D01*
X176094000Y-91933000D01*
X176094000Y-92083000D01*
X176093639Y-92090351D01*
X176092559Y-92097632D01*
X176090771Y-92104771D01*
X176088291Y-92111701D01*
X176085144Y-92118355D01*
X176081360Y-92124668D01*
X176076976Y-92130579D01*
X176072033Y-92136033D01*
X176066579Y-92140976D01*
X176060668Y-92145360D01*
X176054355Y-92149144D01*
X176047701Y-92152291D01*
X176040771Y-92154771D01*
X176033632Y-92156559D01*
X176026351Y-92157639D01*
X176019000Y-92158000D01*
X174694000Y-92158000D01*
X174686649Y-92157639D01*
X174679368Y-92156559D01*
X174672229Y-92154771D01*
X174665299Y-92152291D01*
X174658645Y-92149144D01*
X174652332Y-92145360D01*
X174646421Y-92140976D01*
X174640967Y-92136033D01*
X174636024Y-92130579D01*
X174631640Y-92124668D01*
X174627856Y-92118355D01*
X174624709Y-92111701D01*
X174622229Y-92104771D01*
X174620441Y-92097632D01*
X174619361Y-92090351D01*
X174619000Y-92083000D01*
X174619000Y-91933000D01*
X174619361Y-91925649D01*
X174620441Y-91918368D01*
X174622229Y-91911229D01*
X174624709Y-91904299D01*
X174627856Y-91897645D01*
X174631640Y-91891332D01*
X174636024Y-91885421D01*
X174640967Y-91879967D01*
X174646421Y-91875024D01*
X174652332Y-91870640D01*
X174658645Y-91866856D01*
X174665299Y-91863709D01*
X174672229Y-91861229D01*
X174679368Y-91859441D01*
X174686649Y-91858361D01*
X174694000Y-91858000D01*
X176019000Y-91858000D01*
X176026351Y-91858361D01*
X176026351Y-91858361D01*
G37*
D16*
X175356500Y-92008000D03*
D15*
G36*
X176026351Y-92358361D02*
G01*
X176033632Y-92359441D01*
X176040771Y-92361229D01*
X176047701Y-92363709D01*
X176054355Y-92366856D01*
X176060668Y-92370640D01*
X176066579Y-92375024D01*
X176072033Y-92379967D01*
X176076976Y-92385421D01*
X176081360Y-92391332D01*
X176085144Y-92397645D01*
X176088291Y-92404299D01*
X176090771Y-92411229D01*
X176092559Y-92418368D01*
X176093639Y-92425649D01*
X176094000Y-92433000D01*
X176094000Y-92583000D01*
X176093639Y-92590351D01*
X176092559Y-92597632D01*
X176090771Y-92604771D01*
X176088291Y-92611701D01*
X176085144Y-92618355D01*
X176081360Y-92624668D01*
X176076976Y-92630579D01*
X176072033Y-92636033D01*
X176066579Y-92640976D01*
X176060668Y-92645360D01*
X176054355Y-92649144D01*
X176047701Y-92652291D01*
X176040771Y-92654771D01*
X176033632Y-92656559D01*
X176026351Y-92657639D01*
X176019000Y-92658000D01*
X174694000Y-92658000D01*
X174686649Y-92657639D01*
X174679368Y-92656559D01*
X174672229Y-92654771D01*
X174665299Y-92652291D01*
X174658645Y-92649144D01*
X174652332Y-92645360D01*
X174646421Y-92640976D01*
X174640967Y-92636033D01*
X174636024Y-92630579D01*
X174631640Y-92624668D01*
X174627856Y-92618355D01*
X174624709Y-92611701D01*
X174622229Y-92604771D01*
X174620441Y-92597632D01*
X174619361Y-92590351D01*
X174619000Y-92583000D01*
X174619000Y-92433000D01*
X174619361Y-92425649D01*
X174620441Y-92418368D01*
X174622229Y-92411229D01*
X174624709Y-92404299D01*
X174627856Y-92397645D01*
X174631640Y-92391332D01*
X174636024Y-92385421D01*
X174640967Y-92379967D01*
X174646421Y-92375024D01*
X174652332Y-92370640D01*
X174658645Y-92366856D01*
X174665299Y-92363709D01*
X174672229Y-92361229D01*
X174679368Y-92359441D01*
X174686649Y-92358361D01*
X174694000Y-92358000D01*
X176019000Y-92358000D01*
X176026351Y-92358361D01*
X176026351Y-92358361D01*
G37*
D16*
X175356500Y-92508000D03*
D15*
G36*
X176026351Y-92858361D02*
G01*
X176033632Y-92859441D01*
X176040771Y-92861229D01*
X176047701Y-92863709D01*
X176054355Y-92866856D01*
X176060668Y-92870640D01*
X176066579Y-92875024D01*
X176072033Y-92879967D01*
X176076976Y-92885421D01*
X176081360Y-92891332D01*
X176085144Y-92897645D01*
X176088291Y-92904299D01*
X176090771Y-92911229D01*
X176092559Y-92918368D01*
X176093639Y-92925649D01*
X176094000Y-92933000D01*
X176094000Y-93083000D01*
X176093639Y-93090351D01*
X176092559Y-93097632D01*
X176090771Y-93104771D01*
X176088291Y-93111701D01*
X176085144Y-93118355D01*
X176081360Y-93124668D01*
X176076976Y-93130579D01*
X176072033Y-93136033D01*
X176066579Y-93140976D01*
X176060668Y-93145360D01*
X176054355Y-93149144D01*
X176047701Y-93152291D01*
X176040771Y-93154771D01*
X176033632Y-93156559D01*
X176026351Y-93157639D01*
X176019000Y-93158000D01*
X174694000Y-93158000D01*
X174686649Y-93157639D01*
X174679368Y-93156559D01*
X174672229Y-93154771D01*
X174665299Y-93152291D01*
X174658645Y-93149144D01*
X174652332Y-93145360D01*
X174646421Y-93140976D01*
X174640967Y-93136033D01*
X174636024Y-93130579D01*
X174631640Y-93124668D01*
X174627856Y-93118355D01*
X174624709Y-93111701D01*
X174622229Y-93104771D01*
X174620441Y-93097632D01*
X174619361Y-93090351D01*
X174619000Y-93083000D01*
X174619000Y-92933000D01*
X174619361Y-92925649D01*
X174620441Y-92918368D01*
X174622229Y-92911229D01*
X174624709Y-92904299D01*
X174627856Y-92897645D01*
X174631640Y-92891332D01*
X174636024Y-92885421D01*
X174640967Y-92879967D01*
X174646421Y-92875024D01*
X174652332Y-92870640D01*
X174658645Y-92866856D01*
X174665299Y-92863709D01*
X174672229Y-92861229D01*
X174679368Y-92859441D01*
X174686649Y-92858361D01*
X174694000Y-92858000D01*
X176019000Y-92858000D01*
X176026351Y-92858361D01*
X176026351Y-92858361D01*
G37*
D16*
X175356500Y-93008000D03*
D15*
G36*
X176026351Y-93358361D02*
G01*
X176033632Y-93359441D01*
X176040771Y-93361229D01*
X176047701Y-93363709D01*
X176054355Y-93366856D01*
X176060668Y-93370640D01*
X176066579Y-93375024D01*
X176072033Y-93379967D01*
X176076976Y-93385421D01*
X176081360Y-93391332D01*
X176085144Y-93397645D01*
X176088291Y-93404299D01*
X176090771Y-93411229D01*
X176092559Y-93418368D01*
X176093639Y-93425649D01*
X176094000Y-93433000D01*
X176094000Y-93583000D01*
X176093639Y-93590351D01*
X176092559Y-93597632D01*
X176090771Y-93604771D01*
X176088291Y-93611701D01*
X176085144Y-93618355D01*
X176081360Y-93624668D01*
X176076976Y-93630579D01*
X176072033Y-93636033D01*
X176066579Y-93640976D01*
X176060668Y-93645360D01*
X176054355Y-93649144D01*
X176047701Y-93652291D01*
X176040771Y-93654771D01*
X176033632Y-93656559D01*
X176026351Y-93657639D01*
X176019000Y-93658000D01*
X174694000Y-93658000D01*
X174686649Y-93657639D01*
X174679368Y-93656559D01*
X174672229Y-93654771D01*
X174665299Y-93652291D01*
X174658645Y-93649144D01*
X174652332Y-93645360D01*
X174646421Y-93640976D01*
X174640967Y-93636033D01*
X174636024Y-93630579D01*
X174631640Y-93624668D01*
X174627856Y-93618355D01*
X174624709Y-93611701D01*
X174622229Y-93604771D01*
X174620441Y-93597632D01*
X174619361Y-93590351D01*
X174619000Y-93583000D01*
X174619000Y-93433000D01*
X174619361Y-93425649D01*
X174620441Y-93418368D01*
X174622229Y-93411229D01*
X174624709Y-93404299D01*
X174627856Y-93397645D01*
X174631640Y-93391332D01*
X174636024Y-93385421D01*
X174640967Y-93379967D01*
X174646421Y-93375024D01*
X174652332Y-93370640D01*
X174658645Y-93366856D01*
X174665299Y-93363709D01*
X174672229Y-93361229D01*
X174679368Y-93359441D01*
X174686649Y-93358361D01*
X174694000Y-93358000D01*
X176019000Y-93358000D01*
X176026351Y-93358361D01*
X176026351Y-93358361D01*
G37*
D16*
X175356500Y-93508000D03*
D15*
G36*
X176026351Y-93858361D02*
G01*
X176033632Y-93859441D01*
X176040771Y-93861229D01*
X176047701Y-93863709D01*
X176054355Y-93866856D01*
X176060668Y-93870640D01*
X176066579Y-93875024D01*
X176072033Y-93879967D01*
X176076976Y-93885421D01*
X176081360Y-93891332D01*
X176085144Y-93897645D01*
X176088291Y-93904299D01*
X176090771Y-93911229D01*
X176092559Y-93918368D01*
X176093639Y-93925649D01*
X176094000Y-93933000D01*
X176094000Y-94083000D01*
X176093639Y-94090351D01*
X176092559Y-94097632D01*
X176090771Y-94104771D01*
X176088291Y-94111701D01*
X176085144Y-94118355D01*
X176081360Y-94124668D01*
X176076976Y-94130579D01*
X176072033Y-94136033D01*
X176066579Y-94140976D01*
X176060668Y-94145360D01*
X176054355Y-94149144D01*
X176047701Y-94152291D01*
X176040771Y-94154771D01*
X176033632Y-94156559D01*
X176026351Y-94157639D01*
X176019000Y-94158000D01*
X174694000Y-94158000D01*
X174686649Y-94157639D01*
X174679368Y-94156559D01*
X174672229Y-94154771D01*
X174665299Y-94152291D01*
X174658645Y-94149144D01*
X174652332Y-94145360D01*
X174646421Y-94140976D01*
X174640967Y-94136033D01*
X174636024Y-94130579D01*
X174631640Y-94124668D01*
X174627856Y-94118355D01*
X174624709Y-94111701D01*
X174622229Y-94104771D01*
X174620441Y-94097632D01*
X174619361Y-94090351D01*
X174619000Y-94083000D01*
X174619000Y-93933000D01*
X174619361Y-93925649D01*
X174620441Y-93918368D01*
X174622229Y-93911229D01*
X174624709Y-93904299D01*
X174627856Y-93897645D01*
X174631640Y-93891332D01*
X174636024Y-93885421D01*
X174640967Y-93879967D01*
X174646421Y-93875024D01*
X174652332Y-93870640D01*
X174658645Y-93866856D01*
X174665299Y-93863709D01*
X174672229Y-93861229D01*
X174679368Y-93859441D01*
X174686649Y-93858361D01*
X174694000Y-93858000D01*
X176019000Y-93858000D01*
X176026351Y-93858361D01*
X176026351Y-93858361D01*
G37*
D16*
X175356500Y-94008000D03*
D15*
G36*
X176026351Y-94358361D02*
G01*
X176033632Y-94359441D01*
X176040771Y-94361229D01*
X176047701Y-94363709D01*
X176054355Y-94366856D01*
X176060668Y-94370640D01*
X176066579Y-94375024D01*
X176072033Y-94379967D01*
X176076976Y-94385421D01*
X176081360Y-94391332D01*
X176085144Y-94397645D01*
X176088291Y-94404299D01*
X176090771Y-94411229D01*
X176092559Y-94418368D01*
X176093639Y-94425649D01*
X176094000Y-94433000D01*
X176094000Y-94583000D01*
X176093639Y-94590351D01*
X176092559Y-94597632D01*
X176090771Y-94604771D01*
X176088291Y-94611701D01*
X176085144Y-94618355D01*
X176081360Y-94624668D01*
X176076976Y-94630579D01*
X176072033Y-94636033D01*
X176066579Y-94640976D01*
X176060668Y-94645360D01*
X176054355Y-94649144D01*
X176047701Y-94652291D01*
X176040771Y-94654771D01*
X176033632Y-94656559D01*
X176026351Y-94657639D01*
X176019000Y-94658000D01*
X174694000Y-94658000D01*
X174686649Y-94657639D01*
X174679368Y-94656559D01*
X174672229Y-94654771D01*
X174665299Y-94652291D01*
X174658645Y-94649144D01*
X174652332Y-94645360D01*
X174646421Y-94640976D01*
X174640967Y-94636033D01*
X174636024Y-94630579D01*
X174631640Y-94624668D01*
X174627856Y-94618355D01*
X174624709Y-94611701D01*
X174622229Y-94604771D01*
X174620441Y-94597632D01*
X174619361Y-94590351D01*
X174619000Y-94583000D01*
X174619000Y-94433000D01*
X174619361Y-94425649D01*
X174620441Y-94418368D01*
X174622229Y-94411229D01*
X174624709Y-94404299D01*
X174627856Y-94397645D01*
X174631640Y-94391332D01*
X174636024Y-94385421D01*
X174640967Y-94379967D01*
X174646421Y-94375024D01*
X174652332Y-94370640D01*
X174658645Y-94366856D01*
X174665299Y-94363709D01*
X174672229Y-94361229D01*
X174679368Y-94359441D01*
X174686649Y-94358361D01*
X174694000Y-94358000D01*
X176019000Y-94358000D01*
X176026351Y-94358361D01*
X176026351Y-94358361D01*
G37*
D16*
X175356500Y-94508000D03*
D15*
G36*
X176026351Y-94858361D02*
G01*
X176033632Y-94859441D01*
X176040771Y-94861229D01*
X176047701Y-94863709D01*
X176054355Y-94866856D01*
X176060668Y-94870640D01*
X176066579Y-94875024D01*
X176072033Y-94879967D01*
X176076976Y-94885421D01*
X176081360Y-94891332D01*
X176085144Y-94897645D01*
X176088291Y-94904299D01*
X176090771Y-94911229D01*
X176092559Y-94918368D01*
X176093639Y-94925649D01*
X176094000Y-94933000D01*
X176094000Y-95083000D01*
X176093639Y-95090351D01*
X176092559Y-95097632D01*
X176090771Y-95104771D01*
X176088291Y-95111701D01*
X176085144Y-95118355D01*
X176081360Y-95124668D01*
X176076976Y-95130579D01*
X176072033Y-95136033D01*
X176066579Y-95140976D01*
X176060668Y-95145360D01*
X176054355Y-95149144D01*
X176047701Y-95152291D01*
X176040771Y-95154771D01*
X176033632Y-95156559D01*
X176026351Y-95157639D01*
X176019000Y-95158000D01*
X174694000Y-95158000D01*
X174686649Y-95157639D01*
X174679368Y-95156559D01*
X174672229Y-95154771D01*
X174665299Y-95152291D01*
X174658645Y-95149144D01*
X174652332Y-95145360D01*
X174646421Y-95140976D01*
X174640967Y-95136033D01*
X174636024Y-95130579D01*
X174631640Y-95124668D01*
X174627856Y-95118355D01*
X174624709Y-95111701D01*
X174622229Y-95104771D01*
X174620441Y-95097632D01*
X174619361Y-95090351D01*
X174619000Y-95083000D01*
X174619000Y-94933000D01*
X174619361Y-94925649D01*
X174620441Y-94918368D01*
X174622229Y-94911229D01*
X174624709Y-94904299D01*
X174627856Y-94897645D01*
X174631640Y-94891332D01*
X174636024Y-94885421D01*
X174640967Y-94879967D01*
X174646421Y-94875024D01*
X174652332Y-94870640D01*
X174658645Y-94866856D01*
X174665299Y-94863709D01*
X174672229Y-94861229D01*
X174679368Y-94859441D01*
X174686649Y-94858361D01*
X174694000Y-94858000D01*
X176019000Y-94858000D01*
X176026351Y-94858361D01*
X176026351Y-94858361D01*
G37*
D16*
X175356500Y-95008000D03*
D15*
G36*
X176026351Y-95358361D02*
G01*
X176033632Y-95359441D01*
X176040771Y-95361229D01*
X176047701Y-95363709D01*
X176054355Y-95366856D01*
X176060668Y-95370640D01*
X176066579Y-95375024D01*
X176072033Y-95379967D01*
X176076976Y-95385421D01*
X176081360Y-95391332D01*
X176085144Y-95397645D01*
X176088291Y-95404299D01*
X176090771Y-95411229D01*
X176092559Y-95418368D01*
X176093639Y-95425649D01*
X176094000Y-95433000D01*
X176094000Y-95583000D01*
X176093639Y-95590351D01*
X176092559Y-95597632D01*
X176090771Y-95604771D01*
X176088291Y-95611701D01*
X176085144Y-95618355D01*
X176081360Y-95624668D01*
X176076976Y-95630579D01*
X176072033Y-95636033D01*
X176066579Y-95640976D01*
X176060668Y-95645360D01*
X176054355Y-95649144D01*
X176047701Y-95652291D01*
X176040771Y-95654771D01*
X176033632Y-95656559D01*
X176026351Y-95657639D01*
X176019000Y-95658000D01*
X174694000Y-95658000D01*
X174686649Y-95657639D01*
X174679368Y-95656559D01*
X174672229Y-95654771D01*
X174665299Y-95652291D01*
X174658645Y-95649144D01*
X174652332Y-95645360D01*
X174646421Y-95640976D01*
X174640967Y-95636033D01*
X174636024Y-95630579D01*
X174631640Y-95624668D01*
X174627856Y-95618355D01*
X174624709Y-95611701D01*
X174622229Y-95604771D01*
X174620441Y-95597632D01*
X174619361Y-95590351D01*
X174619000Y-95583000D01*
X174619000Y-95433000D01*
X174619361Y-95425649D01*
X174620441Y-95418368D01*
X174622229Y-95411229D01*
X174624709Y-95404299D01*
X174627856Y-95397645D01*
X174631640Y-95391332D01*
X174636024Y-95385421D01*
X174640967Y-95379967D01*
X174646421Y-95375024D01*
X174652332Y-95370640D01*
X174658645Y-95366856D01*
X174665299Y-95363709D01*
X174672229Y-95361229D01*
X174679368Y-95359441D01*
X174686649Y-95358361D01*
X174694000Y-95358000D01*
X176019000Y-95358000D01*
X176026351Y-95358361D01*
X176026351Y-95358361D01*
G37*
D16*
X175356500Y-95508000D03*
D15*
G36*
X176026351Y-95858361D02*
G01*
X176033632Y-95859441D01*
X176040771Y-95861229D01*
X176047701Y-95863709D01*
X176054355Y-95866856D01*
X176060668Y-95870640D01*
X176066579Y-95875024D01*
X176072033Y-95879967D01*
X176076976Y-95885421D01*
X176081360Y-95891332D01*
X176085144Y-95897645D01*
X176088291Y-95904299D01*
X176090771Y-95911229D01*
X176092559Y-95918368D01*
X176093639Y-95925649D01*
X176094000Y-95933000D01*
X176094000Y-96083000D01*
X176093639Y-96090351D01*
X176092559Y-96097632D01*
X176090771Y-96104771D01*
X176088291Y-96111701D01*
X176085144Y-96118355D01*
X176081360Y-96124668D01*
X176076976Y-96130579D01*
X176072033Y-96136033D01*
X176066579Y-96140976D01*
X176060668Y-96145360D01*
X176054355Y-96149144D01*
X176047701Y-96152291D01*
X176040771Y-96154771D01*
X176033632Y-96156559D01*
X176026351Y-96157639D01*
X176019000Y-96158000D01*
X174694000Y-96158000D01*
X174686649Y-96157639D01*
X174679368Y-96156559D01*
X174672229Y-96154771D01*
X174665299Y-96152291D01*
X174658645Y-96149144D01*
X174652332Y-96145360D01*
X174646421Y-96140976D01*
X174640967Y-96136033D01*
X174636024Y-96130579D01*
X174631640Y-96124668D01*
X174627856Y-96118355D01*
X174624709Y-96111701D01*
X174622229Y-96104771D01*
X174620441Y-96097632D01*
X174619361Y-96090351D01*
X174619000Y-96083000D01*
X174619000Y-95933000D01*
X174619361Y-95925649D01*
X174620441Y-95918368D01*
X174622229Y-95911229D01*
X174624709Y-95904299D01*
X174627856Y-95897645D01*
X174631640Y-95891332D01*
X174636024Y-95885421D01*
X174640967Y-95879967D01*
X174646421Y-95875024D01*
X174652332Y-95870640D01*
X174658645Y-95866856D01*
X174665299Y-95863709D01*
X174672229Y-95861229D01*
X174679368Y-95859441D01*
X174686649Y-95858361D01*
X174694000Y-95858000D01*
X176019000Y-95858000D01*
X176026351Y-95858361D01*
X176026351Y-95858361D01*
G37*
D16*
X175356500Y-96008000D03*
D15*
G36*
X176026351Y-96358361D02*
G01*
X176033632Y-96359441D01*
X176040771Y-96361229D01*
X176047701Y-96363709D01*
X176054355Y-96366856D01*
X176060668Y-96370640D01*
X176066579Y-96375024D01*
X176072033Y-96379967D01*
X176076976Y-96385421D01*
X176081360Y-96391332D01*
X176085144Y-96397645D01*
X176088291Y-96404299D01*
X176090771Y-96411229D01*
X176092559Y-96418368D01*
X176093639Y-96425649D01*
X176094000Y-96433000D01*
X176094000Y-96583000D01*
X176093639Y-96590351D01*
X176092559Y-96597632D01*
X176090771Y-96604771D01*
X176088291Y-96611701D01*
X176085144Y-96618355D01*
X176081360Y-96624668D01*
X176076976Y-96630579D01*
X176072033Y-96636033D01*
X176066579Y-96640976D01*
X176060668Y-96645360D01*
X176054355Y-96649144D01*
X176047701Y-96652291D01*
X176040771Y-96654771D01*
X176033632Y-96656559D01*
X176026351Y-96657639D01*
X176019000Y-96658000D01*
X174694000Y-96658000D01*
X174686649Y-96657639D01*
X174679368Y-96656559D01*
X174672229Y-96654771D01*
X174665299Y-96652291D01*
X174658645Y-96649144D01*
X174652332Y-96645360D01*
X174646421Y-96640976D01*
X174640967Y-96636033D01*
X174636024Y-96630579D01*
X174631640Y-96624668D01*
X174627856Y-96618355D01*
X174624709Y-96611701D01*
X174622229Y-96604771D01*
X174620441Y-96597632D01*
X174619361Y-96590351D01*
X174619000Y-96583000D01*
X174619000Y-96433000D01*
X174619361Y-96425649D01*
X174620441Y-96418368D01*
X174622229Y-96411229D01*
X174624709Y-96404299D01*
X174627856Y-96397645D01*
X174631640Y-96391332D01*
X174636024Y-96385421D01*
X174640967Y-96379967D01*
X174646421Y-96375024D01*
X174652332Y-96370640D01*
X174658645Y-96366856D01*
X174665299Y-96363709D01*
X174672229Y-96361229D01*
X174679368Y-96359441D01*
X174686649Y-96358361D01*
X174694000Y-96358000D01*
X176019000Y-96358000D01*
X176026351Y-96358361D01*
X176026351Y-96358361D01*
G37*
D16*
X175356500Y-96508000D03*
D15*
G36*
X176026351Y-96858361D02*
G01*
X176033632Y-96859441D01*
X176040771Y-96861229D01*
X176047701Y-96863709D01*
X176054355Y-96866856D01*
X176060668Y-96870640D01*
X176066579Y-96875024D01*
X176072033Y-96879967D01*
X176076976Y-96885421D01*
X176081360Y-96891332D01*
X176085144Y-96897645D01*
X176088291Y-96904299D01*
X176090771Y-96911229D01*
X176092559Y-96918368D01*
X176093639Y-96925649D01*
X176094000Y-96933000D01*
X176094000Y-97083000D01*
X176093639Y-97090351D01*
X176092559Y-97097632D01*
X176090771Y-97104771D01*
X176088291Y-97111701D01*
X176085144Y-97118355D01*
X176081360Y-97124668D01*
X176076976Y-97130579D01*
X176072033Y-97136033D01*
X176066579Y-97140976D01*
X176060668Y-97145360D01*
X176054355Y-97149144D01*
X176047701Y-97152291D01*
X176040771Y-97154771D01*
X176033632Y-97156559D01*
X176026351Y-97157639D01*
X176019000Y-97158000D01*
X174694000Y-97158000D01*
X174686649Y-97157639D01*
X174679368Y-97156559D01*
X174672229Y-97154771D01*
X174665299Y-97152291D01*
X174658645Y-97149144D01*
X174652332Y-97145360D01*
X174646421Y-97140976D01*
X174640967Y-97136033D01*
X174636024Y-97130579D01*
X174631640Y-97124668D01*
X174627856Y-97118355D01*
X174624709Y-97111701D01*
X174622229Y-97104771D01*
X174620441Y-97097632D01*
X174619361Y-97090351D01*
X174619000Y-97083000D01*
X174619000Y-96933000D01*
X174619361Y-96925649D01*
X174620441Y-96918368D01*
X174622229Y-96911229D01*
X174624709Y-96904299D01*
X174627856Y-96897645D01*
X174631640Y-96891332D01*
X174636024Y-96885421D01*
X174640967Y-96879967D01*
X174646421Y-96875024D01*
X174652332Y-96870640D01*
X174658645Y-96866856D01*
X174665299Y-96863709D01*
X174672229Y-96861229D01*
X174679368Y-96859441D01*
X174686649Y-96858361D01*
X174694000Y-96858000D01*
X176019000Y-96858000D01*
X176026351Y-96858361D01*
X176026351Y-96858361D01*
G37*
D16*
X175356500Y-97008000D03*
D15*
G36*
X174026351Y-97683361D02*
G01*
X174033632Y-97684441D01*
X174040771Y-97686229D01*
X174047701Y-97688709D01*
X174054355Y-97691856D01*
X174060668Y-97695640D01*
X174066579Y-97700024D01*
X174072033Y-97704967D01*
X174076976Y-97710421D01*
X174081360Y-97716332D01*
X174085144Y-97722645D01*
X174088291Y-97729299D01*
X174090771Y-97736229D01*
X174092559Y-97743368D01*
X174093639Y-97750649D01*
X174094000Y-97758000D01*
X174094000Y-99083000D01*
X174093639Y-99090351D01*
X174092559Y-99097632D01*
X174090771Y-99104771D01*
X174088291Y-99111701D01*
X174085144Y-99118355D01*
X174081360Y-99124668D01*
X174076976Y-99130579D01*
X174072033Y-99136033D01*
X174066579Y-99140976D01*
X174060668Y-99145360D01*
X174054355Y-99149144D01*
X174047701Y-99152291D01*
X174040771Y-99154771D01*
X174033632Y-99156559D01*
X174026351Y-99157639D01*
X174019000Y-99158000D01*
X173869000Y-99158000D01*
X173861649Y-99157639D01*
X173854368Y-99156559D01*
X173847229Y-99154771D01*
X173840299Y-99152291D01*
X173833645Y-99149144D01*
X173827332Y-99145360D01*
X173821421Y-99140976D01*
X173815967Y-99136033D01*
X173811024Y-99130579D01*
X173806640Y-99124668D01*
X173802856Y-99118355D01*
X173799709Y-99111701D01*
X173797229Y-99104771D01*
X173795441Y-99097632D01*
X173794361Y-99090351D01*
X173794000Y-99083000D01*
X173794000Y-97758000D01*
X173794361Y-97750649D01*
X173795441Y-97743368D01*
X173797229Y-97736229D01*
X173799709Y-97729299D01*
X173802856Y-97722645D01*
X173806640Y-97716332D01*
X173811024Y-97710421D01*
X173815967Y-97704967D01*
X173821421Y-97700024D01*
X173827332Y-97695640D01*
X173833645Y-97691856D01*
X173840299Y-97688709D01*
X173847229Y-97686229D01*
X173854368Y-97684441D01*
X173861649Y-97683361D01*
X173869000Y-97683000D01*
X174019000Y-97683000D01*
X174026351Y-97683361D01*
X174026351Y-97683361D01*
G37*
D16*
X173944000Y-98420500D03*
D15*
G36*
X173526351Y-97683361D02*
G01*
X173533632Y-97684441D01*
X173540771Y-97686229D01*
X173547701Y-97688709D01*
X173554355Y-97691856D01*
X173560668Y-97695640D01*
X173566579Y-97700024D01*
X173572033Y-97704967D01*
X173576976Y-97710421D01*
X173581360Y-97716332D01*
X173585144Y-97722645D01*
X173588291Y-97729299D01*
X173590771Y-97736229D01*
X173592559Y-97743368D01*
X173593639Y-97750649D01*
X173594000Y-97758000D01*
X173594000Y-99083000D01*
X173593639Y-99090351D01*
X173592559Y-99097632D01*
X173590771Y-99104771D01*
X173588291Y-99111701D01*
X173585144Y-99118355D01*
X173581360Y-99124668D01*
X173576976Y-99130579D01*
X173572033Y-99136033D01*
X173566579Y-99140976D01*
X173560668Y-99145360D01*
X173554355Y-99149144D01*
X173547701Y-99152291D01*
X173540771Y-99154771D01*
X173533632Y-99156559D01*
X173526351Y-99157639D01*
X173519000Y-99158000D01*
X173369000Y-99158000D01*
X173361649Y-99157639D01*
X173354368Y-99156559D01*
X173347229Y-99154771D01*
X173340299Y-99152291D01*
X173333645Y-99149144D01*
X173327332Y-99145360D01*
X173321421Y-99140976D01*
X173315967Y-99136033D01*
X173311024Y-99130579D01*
X173306640Y-99124668D01*
X173302856Y-99118355D01*
X173299709Y-99111701D01*
X173297229Y-99104771D01*
X173295441Y-99097632D01*
X173294361Y-99090351D01*
X173294000Y-99083000D01*
X173294000Y-97758000D01*
X173294361Y-97750649D01*
X173295441Y-97743368D01*
X173297229Y-97736229D01*
X173299709Y-97729299D01*
X173302856Y-97722645D01*
X173306640Y-97716332D01*
X173311024Y-97710421D01*
X173315967Y-97704967D01*
X173321421Y-97700024D01*
X173327332Y-97695640D01*
X173333645Y-97691856D01*
X173340299Y-97688709D01*
X173347229Y-97686229D01*
X173354368Y-97684441D01*
X173361649Y-97683361D01*
X173369000Y-97683000D01*
X173519000Y-97683000D01*
X173526351Y-97683361D01*
X173526351Y-97683361D01*
G37*
D16*
X173444000Y-98420500D03*
D15*
G36*
X173026351Y-97683361D02*
G01*
X173033632Y-97684441D01*
X173040771Y-97686229D01*
X173047701Y-97688709D01*
X173054355Y-97691856D01*
X173060668Y-97695640D01*
X173066579Y-97700024D01*
X173072033Y-97704967D01*
X173076976Y-97710421D01*
X173081360Y-97716332D01*
X173085144Y-97722645D01*
X173088291Y-97729299D01*
X173090771Y-97736229D01*
X173092559Y-97743368D01*
X173093639Y-97750649D01*
X173094000Y-97758000D01*
X173094000Y-99083000D01*
X173093639Y-99090351D01*
X173092559Y-99097632D01*
X173090771Y-99104771D01*
X173088291Y-99111701D01*
X173085144Y-99118355D01*
X173081360Y-99124668D01*
X173076976Y-99130579D01*
X173072033Y-99136033D01*
X173066579Y-99140976D01*
X173060668Y-99145360D01*
X173054355Y-99149144D01*
X173047701Y-99152291D01*
X173040771Y-99154771D01*
X173033632Y-99156559D01*
X173026351Y-99157639D01*
X173019000Y-99158000D01*
X172869000Y-99158000D01*
X172861649Y-99157639D01*
X172854368Y-99156559D01*
X172847229Y-99154771D01*
X172840299Y-99152291D01*
X172833645Y-99149144D01*
X172827332Y-99145360D01*
X172821421Y-99140976D01*
X172815967Y-99136033D01*
X172811024Y-99130579D01*
X172806640Y-99124668D01*
X172802856Y-99118355D01*
X172799709Y-99111701D01*
X172797229Y-99104771D01*
X172795441Y-99097632D01*
X172794361Y-99090351D01*
X172794000Y-99083000D01*
X172794000Y-97758000D01*
X172794361Y-97750649D01*
X172795441Y-97743368D01*
X172797229Y-97736229D01*
X172799709Y-97729299D01*
X172802856Y-97722645D01*
X172806640Y-97716332D01*
X172811024Y-97710421D01*
X172815967Y-97704967D01*
X172821421Y-97700024D01*
X172827332Y-97695640D01*
X172833645Y-97691856D01*
X172840299Y-97688709D01*
X172847229Y-97686229D01*
X172854368Y-97684441D01*
X172861649Y-97683361D01*
X172869000Y-97683000D01*
X173019000Y-97683000D01*
X173026351Y-97683361D01*
X173026351Y-97683361D01*
G37*
D16*
X172944000Y-98420500D03*
D15*
G36*
X172526351Y-97683361D02*
G01*
X172533632Y-97684441D01*
X172540771Y-97686229D01*
X172547701Y-97688709D01*
X172554355Y-97691856D01*
X172560668Y-97695640D01*
X172566579Y-97700024D01*
X172572033Y-97704967D01*
X172576976Y-97710421D01*
X172581360Y-97716332D01*
X172585144Y-97722645D01*
X172588291Y-97729299D01*
X172590771Y-97736229D01*
X172592559Y-97743368D01*
X172593639Y-97750649D01*
X172594000Y-97758000D01*
X172594000Y-99083000D01*
X172593639Y-99090351D01*
X172592559Y-99097632D01*
X172590771Y-99104771D01*
X172588291Y-99111701D01*
X172585144Y-99118355D01*
X172581360Y-99124668D01*
X172576976Y-99130579D01*
X172572033Y-99136033D01*
X172566579Y-99140976D01*
X172560668Y-99145360D01*
X172554355Y-99149144D01*
X172547701Y-99152291D01*
X172540771Y-99154771D01*
X172533632Y-99156559D01*
X172526351Y-99157639D01*
X172519000Y-99158000D01*
X172369000Y-99158000D01*
X172361649Y-99157639D01*
X172354368Y-99156559D01*
X172347229Y-99154771D01*
X172340299Y-99152291D01*
X172333645Y-99149144D01*
X172327332Y-99145360D01*
X172321421Y-99140976D01*
X172315967Y-99136033D01*
X172311024Y-99130579D01*
X172306640Y-99124668D01*
X172302856Y-99118355D01*
X172299709Y-99111701D01*
X172297229Y-99104771D01*
X172295441Y-99097632D01*
X172294361Y-99090351D01*
X172294000Y-99083000D01*
X172294000Y-97758000D01*
X172294361Y-97750649D01*
X172295441Y-97743368D01*
X172297229Y-97736229D01*
X172299709Y-97729299D01*
X172302856Y-97722645D01*
X172306640Y-97716332D01*
X172311024Y-97710421D01*
X172315967Y-97704967D01*
X172321421Y-97700024D01*
X172327332Y-97695640D01*
X172333645Y-97691856D01*
X172340299Y-97688709D01*
X172347229Y-97686229D01*
X172354368Y-97684441D01*
X172361649Y-97683361D01*
X172369000Y-97683000D01*
X172519000Y-97683000D01*
X172526351Y-97683361D01*
X172526351Y-97683361D01*
G37*
D16*
X172444000Y-98420500D03*
D15*
G36*
X172026351Y-97683361D02*
G01*
X172033632Y-97684441D01*
X172040771Y-97686229D01*
X172047701Y-97688709D01*
X172054355Y-97691856D01*
X172060668Y-97695640D01*
X172066579Y-97700024D01*
X172072033Y-97704967D01*
X172076976Y-97710421D01*
X172081360Y-97716332D01*
X172085144Y-97722645D01*
X172088291Y-97729299D01*
X172090771Y-97736229D01*
X172092559Y-97743368D01*
X172093639Y-97750649D01*
X172094000Y-97758000D01*
X172094000Y-99083000D01*
X172093639Y-99090351D01*
X172092559Y-99097632D01*
X172090771Y-99104771D01*
X172088291Y-99111701D01*
X172085144Y-99118355D01*
X172081360Y-99124668D01*
X172076976Y-99130579D01*
X172072033Y-99136033D01*
X172066579Y-99140976D01*
X172060668Y-99145360D01*
X172054355Y-99149144D01*
X172047701Y-99152291D01*
X172040771Y-99154771D01*
X172033632Y-99156559D01*
X172026351Y-99157639D01*
X172019000Y-99158000D01*
X171869000Y-99158000D01*
X171861649Y-99157639D01*
X171854368Y-99156559D01*
X171847229Y-99154771D01*
X171840299Y-99152291D01*
X171833645Y-99149144D01*
X171827332Y-99145360D01*
X171821421Y-99140976D01*
X171815967Y-99136033D01*
X171811024Y-99130579D01*
X171806640Y-99124668D01*
X171802856Y-99118355D01*
X171799709Y-99111701D01*
X171797229Y-99104771D01*
X171795441Y-99097632D01*
X171794361Y-99090351D01*
X171794000Y-99083000D01*
X171794000Y-97758000D01*
X171794361Y-97750649D01*
X171795441Y-97743368D01*
X171797229Y-97736229D01*
X171799709Y-97729299D01*
X171802856Y-97722645D01*
X171806640Y-97716332D01*
X171811024Y-97710421D01*
X171815967Y-97704967D01*
X171821421Y-97700024D01*
X171827332Y-97695640D01*
X171833645Y-97691856D01*
X171840299Y-97688709D01*
X171847229Y-97686229D01*
X171854368Y-97684441D01*
X171861649Y-97683361D01*
X171869000Y-97683000D01*
X172019000Y-97683000D01*
X172026351Y-97683361D01*
X172026351Y-97683361D01*
G37*
D16*
X171944000Y-98420500D03*
D15*
G36*
X171526351Y-97683361D02*
G01*
X171533632Y-97684441D01*
X171540771Y-97686229D01*
X171547701Y-97688709D01*
X171554355Y-97691856D01*
X171560668Y-97695640D01*
X171566579Y-97700024D01*
X171572033Y-97704967D01*
X171576976Y-97710421D01*
X171581360Y-97716332D01*
X171585144Y-97722645D01*
X171588291Y-97729299D01*
X171590771Y-97736229D01*
X171592559Y-97743368D01*
X171593639Y-97750649D01*
X171594000Y-97758000D01*
X171594000Y-99083000D01*
X171593639Y-99090351D01*
X171592559Y-99097632D01*
X171590771Y-99104771D01*
X171588291Y-99111701D01*
X171585144Y-99118355D01*
X171581360Y-99124668D01*
X171576976Y-99130579D01*
X171572033Y-99136033D01*
X171566579Y-99140976D01*
X171560668Y-99145360D01*
X171554355Y-99149144D01*
X171547701Y-99152291D01*
X171540771Y-99154771D01*
X171533632Y-99156559D01*
X171526351Y-99157639D01*
X171519000Y-99158000D01*
X171369000Y-99158000D01*
X171361649Y-99157639D01*
X171354368Y-99156559D01*
X171347229Y-99154771D01*
X171340299Y-99152291D01*
X171333645Y-99149144D01*
X171327332Y-99145360D01*
X171321421Y-99140976D01*
X171315967Y-99136033D01*
X171311024Y-99130579D01*
X171306640Y-99124668D01*
X171302856Y-99118355D01*
X171299709Y-99111701D01*
X171297229Y-99104771D01*
X171295441Y-99097632D01*
X171294361Y-99090351D01*
X171294000Y-99083000D01*
X171294000Y-97758000D01*
X171294361Y-97750649D01*
X171295441Y-97743368D01*
X171297229Y-97736229D01*
X171299709Y-97729299D01*
X171302856Y-97722645D01*
X171306640Y-97716332D01*
X171311024Y-97710421D01*
X171315967Y-97704967D01*
X171321421Y-97700024D01*
X171327332Y-97695640D01*
X171333645Y-97691856D01*
X171340299Y-97688709D01*
X171347229Y-97686229D01*
X171354368Y-97684441D01*
X171361649Y-97683361D01*
X171369000Y-97683000D01*
X171519000Y-97683000D01*
X171526351Y-97683361D01*
X171526351Y-97683361D01*
G37*
D16*
X171444000Y-98420500D03*
D15*
G36*
X171026351Y-97683361D02*
G01*
X171033632Y-97684441D01*
X171040771Y-97686229D01*
X171047701Y-97688709D01*
X171054355Y-97691856D01*
X171060668Y-97695640D01*
X171066579Y-97700024D01*
X171072033Y-97704967D01*
X171076976Y-97710421D01*
X171081360Y-97716332D01*
X171085144Y-97722645D01*
X171088291Y-97729299D01*
X171090771Y-97736229D01*
X171092559Y-97743368D01*
X171093639Y-97750649D01*
X171094000Y-97758000D01*
X171094000Y-99083000D01*
X171093639Y-99090351D01*
X171092559Y-99097632D01*
X171090771Y-99104771D01*
X171088291Y-99111701D01*
X171085144Y-99118355D01*
X171081360Y-99124668D01*
X171076976Y-99130579D01*
X171072033Y-99136033D01*
X171066579Y-99140976D01*
X171060668Y-99145360D01*
X171054355Y-99149144D01*
X171047701Y-99152291D01*
X171040771Y-99154771D01*
X171033632Y-99156559D01*
X171026351Y-99157639D01*
X171019000Y-99158000D01*
X170869000Y-99158000D01*
X170861649Y-99157639D01*
X170854368Y-99156559D01*
X170847229Y-99154771D01*
X170840299Y-99152291D01*
X170833645Y-99149144D01*
X170827332Y-99145360D01*
X170821421Y-99140976D01*
X170815967Y-99136033D01*
X170811024Y-99130579D01*
X170806640Y-99124668D01*
X170802856Y-99118355D01*
X170799709Y-99111701D01*
X170797229Y-99104771D01*
X170795441Y-99097632D01*
X170794361Y-99090351D01*
X170794000Y-99083000D01*
X170794000Y-97758000D01*
X170794361Y-97750649D01*
X170795441Y-97743368D01*
X170797229Y-97736229D01*
X170799709Y-97729299D01*
X170802856Y-97722645D01*
X170806640Y-97716332D01*
X170811024Y-97710421D01*
X170815967Y-97704967D01*
X170821421Y-97700024D01*
X170827332Y-97695640D01*
X170833645Y-97691856D01*
X170840299Y-97688709D01*
X170847229Y-97686229D01*
X170854368Y-97684441D01*
X170861649Y-97683361D01*
X170869000Y-97683000D01*
X171019000Y-97683000D01*
X171026351Y-97683361D01*
X171026351Y-97683361D01*
G37*
D16*
X170944000Y-98420500D03*
D15*
G36*
X170526351Y-97683361D02*
G01*
X170533632Y-97684441D01*
X170540771Y-97686229D01*
X170547701Y-97688709D01*
X170554355Y-97691856D01*
X170560668Y-97695640D01*
X170566579Y-97700024D01*
X170572033Y-97704967D01*
X170576976Y-97710421D01*
X170581360Y-97716332D01*
X170585144Y-97722645D01*
X170588291Y-97729299D01*
X170590771Y-97736229D01*
X170592559Y-97743368D01*
X170593639Y-97750649D01*
X170594000Y-97758000D01*
X170594000Y-99083000D01*
X170593639Y-99090351D01*
X170592559Y-99097632D01*
X170590771Y-99104771D01*
X170588291Y-99111701D01*
X170585144Y-99118355D01*
X170581360Y-99124668D01*
X170576976Y-99130579D01*
X170572033Y-99136033D01*
X170566579Y-99140976D01*
X170560668Y-99145360D01*
X170554355Y-99149144D01*
X170547701Y-99152291D01*
X170540771Y-99154771D01*
X170533632Y-99156559D01*
X170526351Y-99157639D01*
X170519000Y-99158000D01*
X170369000Y-99158000D01*
X170361649Y-99157639D01*
X170354368Y-99156559D01*
X170347229Y-99154771D01*
X170340299Y-99152291D01*
X170333645Y-99149144D01*
X170327332Y-99145360D01*
X170321421Y-99140976D01*
X170315967Y-99136033D01*
X170311024Y-99130579D01*
X170306640Y-99124668D01*
X170302856Y-99118355D01*
X170299709Y-99111701D01*
X170297229Y-99104771D01*
X170295441Y-99097632D01*
X170294361Y-99090351D01*
X170294000Y-99083000D01*
X170294000Y-97758000D01*
X170294361Y-97750649D01*
X170295441Y-97743368D01*
X170297229Y-97736229D01*
X170299709Y-97729299D01*
X170302856Y-97722645D01*
X170306640Y-97716332D01*
X170311024Y-97710421D01*
X170315967Y-97704967D01*
X170321421Y-97700024D01*
X170327332Y-97695640D01*
X170333645Y-97691856D01*
X170340299Y-97688709D01*
X170347229Y-97686229D01*
X170354368Y-97684441D01*
X170361649Y-97683361D01*
X170369000Y-97683000D01*
X170519000Y-97683000D01*
X170526351Y-97683361D01*
X170526351Y-97683361D01*
G37*
D16*
X170444000Y-98420500D03*
D15*
G36*
X170026351Y-97683361D02*
G01*
X170033632Y-97684441D01*
X170040771Y-97686229D01*
X170047701Y-97688709D01*
X170054355Y-97691856D01*
X170060668Y-97695640D01*
X170066579Y-97700024D01*
X170072033Y-97704967D01*
X170076976Y-97710421D01*
X170081360Y-97716332D01*
X170085144Y-97722645D01*
X170088291Y-97729299D01*
X170090771Y-97736229D01*
X170092559Y-97743368D01*
X170093639Y-97750649D01*
X170094000Y-97758000D01*
X170094000Y-99083000D01*
X170093639Y-99090351D01*
X170092559Y-99097632D01*
X170090771Y-99104771D01*
X170088291Y-99111701D01*
X170085144Y-99118355D01*
X170081360Y-99124668D01*
X170076976Y-99130579D01*
X170072033Y-99136033D01*
X170066579Y-99140976D01*
X170060668Y-99145360D01*
X170054355Y-99149144D01*
X170047701Y-99152291D01*
X170040771Y-99154771D01*
X170033632Y-99156559D01*
X170026351Y-99157639D01*
X170019000Y-99158000D01*
X169869000Y-99158000D01*
X169861649Y-99157639D01*
X169854368Y-99156559D01*
X169847229Y-99154771D01*
X169840299Y-99152291D01*
X169833645Y-99149144D01*
X169827332Y-99145360D01*
X169821421Y-99140976D01*
X169815967Y-99136033D01*
X169811024Y-99130579D01*
X169806640Y-99124668D01*
X169802856Y-99118355D01*
X169799709Y-99111701D01*
X169797229Y-99104771D01*
X169795441Y-99097632D01*
X169794361Y-99090351D01*
X169794000Y-99083000D01*
X169794000Y-97758000D01*
X169794361Y-97750649D01*
X169795441Y-97743368D01*
X169797229Y-97736229D01*
X169799709Y-97729299D01*
X169802856Y-97722645D01*
X169806640Y-97716332D01*
X169811024Y-97710421D01*
X169815967Y-97704967D01*
X169821421Y-97700024D01*
X169827332Y-97695640D01*
X169833645Y-97691856D01*
X169840299Y-97688709D01*
X169847229Y-97686229D01*
X169854368Y-97684441D01*
X169861649Y-97683361D01*
X169869000Y-97683000D01*
X170019000Y-97683000D01*
X170026351Y-97683361D01*
X170026351Y-97683361D01*
G37*
D16*
X169944000Y-98420500D03*
D15*
G36*
X169526351Y-97683361D02*
G01*
X169533632Y-97684441D01*
X169540771Y-97686229D01*
X169547701Y-97688709D01*
X169554355Y-97691856D01*
X169560668Y-97695640D01*
X169566579Y-97700024D01*
X169572033Y-97704967D01*
X169576976Y-97710421D01*
X169581360Y-97716332D01*
X169585144Y-97722645D01*
X169588291Y-97729299D01*
X169590771Y-97736229D01*
X169592559Y-97743368D01*
X169593639Y-97750649D01*
X169594000Y-97758000D01*
X169594000Y-99083000D01*
X169593639Y-99090351D01*
X169592559Y-99097632D01*
X169590771Y-99104771D01*
X169588291Y-99111701D01*
X169585144Y-99118355D01*
X169581360Y-99124668D01*
X169576976Y-99130579D01*
X169572033Y-99136033D01*
X169566579Y-99140976D01*
X169560668Y-99145360D01*
X169554355Y-99149144D01*
X169547701Y-99152291D01*
X169540771Y-99154771D01*
X169533632Y-99156559D01*
X169526351Y-99157639D01*
X169519000Y-99158000D01*
X169369000Y-99158000D01*
X169361649Y-99157639D01*
X169354368Y-99156559D01*
X169347229Y-99154771D01*
X169340299Y-99152291D01*
X169333645Y-99149144D01*
X169327332Y-99145360D01*
X169321421Y-99140976D01*
X169315967Y-99136033D01*
X169311024Y-99130579D01*
X169306640Y-99124668D01*
X169302856Y-99118355D01*
X169299709Y-99111701D01*
X169297229Y-99104771D01*
X169295441Y-99097632D01*
X169294361Y-99090351D01*
X169294000Y-99083000D01*
X169294000Y-97758000D01*
X169294361Y-97750649D01*
X169295441Y-97743368D01*
X169297229Y-97736229D01*
X169299709Y-97729299D01*
X169302856Y-97722645D01*
X169306640Y-97716332D01*
X169311024Y-97710421D01*
X169315967Y-97704967D01*
X169321421Y-97700024D01*
X169327332Y-97695640D01*
X169333645Y-97691856D01*
X169340299Y-97688709D01*
X169347229Y-97686229D01*
X169354368Y-97684441D01*
X169361649Y-97683361D01*
X169369000Y-97683000D01*
X169519000Y-97683000D01*
X169526351Y-97683361D01*
X169526351Y-97683361D01*
G37*
D16*
X169444000Y-98420500D03*
D15*
G36*
X169026351Y-97683361D02*
G01*
X169033632Y-97684441D01*
X169040771Y-97686229D01*
X169047701Y-97688709D01*
X169054355Y-97691856D01*
X169060668Y-97695640D01*
X169066579Y-97700024D01*
X169072033Y-97704967D01*
X169076976Y-97710421D01*
X169081360Y-97716332D01*
X169085144Y-97722645D01*
X169088291Y-97729299D01*
X169090771Y-97736229D01*
X169092559Y-97743368D01*
X169093639Y-97750649D01*
X169094000Y-97758000D01*
X169094000Y-99083000D01*
X169093639Y-99090351D01*
X169092559Y-99097632D01*
X169090771Y-99104771D01*
X169088291Y-99111701D01*
X169085144Y-99118355D01*
X169081360Y-99124668D01*
X169076976Y-99130579D01*
X169072033Y-99136033D01*
X169066579Y-99140976D01*
X169060668Y-99145360D01*
X169054355Y-99149144D01*
X169047701Y-99152291D01*
X169040771Y-99154771D01*
X169033632Y-99156559D01*
X169026351Y-99157639D01*
X169019000Y-99158000D01*
X168869000Y-99158000D01*
X168861649Y-99157639D01*
X168854368Y-99156559D01*
X168847229Y-99154771D01*
X168840299Y-99152291D01*
X168833645Y-99149144D01*
X168827332Y-99145360D01*
X168821421Y-99140976D01*
X168815967Y-99136033D01*
X168811024Y-99130579D01*
X168806640Y-99124668D01*
X168802856Y-99118355D01*
X168799709Y-99111701D01*
X168797229Y-99104771D01*
X168795441Y-99097632D01*
X168794361Y-99090351D01*
X168794000Y-99083000D01*
X168794000Y-97758000D01*
X168794361Y-97750649D01*
X168795441Y-97743368D01*
X168797229Y-97736229D01*
X168799709Y-97729299D01*
X168802856Y-97722645D01*
X168806640Y-97716332D01*
X168811024Y-97710421D01*
X168815967Y-97704967D01*
X168821421Y-97700024D01*
X168827332Y-97695640D01*
X168833645Y-97691856D01*
X168840299Y-97688709D01*
X168847229Y-97686229D01*
X168854368Y-97684441D01*
X168861649Y-97683361D01*
X168869000Y-97683000D01*
X169019000Y-97683000D01*
X169026351Y-97683361D01*
X169026351Y-97683361D01*
G37*
D16*
X168944000Y-98420500D03*
D15*
G36*
X168526351Y-97683361D02*
G01*
X168533632Y-97684441D01*
X168540771Y-97686229D01*
X168547701Y-97688709D01*
X168554355Y-97691856D01*
X168560668Y-97695640D01*
X168566579Y-97700024D01*
X168572033Y-97704967D01*
X168576976Y-97710421D01*
X168581360Y-97716332D01*
X168585144Y-97722645D01*
X168588291Y-97729299D01*
X168590771Y-97736229D01*
X168592559Y-97743368D01*
X168593639Y-97750649D01*
X168594000Y-97758000D01*
X168594000Y-99083000D01*
X168593639Y-99090351D01*
X168592559Y-99097632D01*
X168590771Y-99104771D01*
X168588291Y-99111701D01*
X168585144Y-99118355D01*
X168581360Y-99124668D01*
X168576976Y-99130579D01*
X168572033Y-99136033D01*
X168566579Y-99140976D01*
X168560668Y-99145360D01*
X168554355Y-99149144D01*
X168547701Y-99152291D01*
X168540771Y-99154771D01*
X168533632Y-99156559D01*
X168526351Y-99157639D01*
X168519000Y-99158000D01*
X168369000Y-99158000D01*
X168361649Y-99157639D01*
X168354368Y-99156559D01*
X168347229Y-99154771D01*
X168340299Y-99152291D01*
X168333645Y-99149144D01*
X168327332Y-99145360D01*
X168321421Y-99140976D01*
X168315967Y-99136033D01*
X168311024Y-99130579D01*
X168306640Y-99124668D01*
X168302856Y-99118355D01*
X168299709Y-99111701D01*
X168297229Y-99104771D01*
X168295441Y-99097632D01*
X168294361Y-99090351D01*
X168294000Y-99083000D01*
X168294000Y-97758000D01*
X168294361Y-97750649D01*
X168295441Y-97743368D01*
X168297229Y-97736229D01*
X168299709Y-97729299D01*
X168302856Y-97722645D01*
X168306640Y-97716332D01*
X168311024Y-97710421D01*
X168315967Y-97704967D01*
X168321421Y-97700024D01*
X168327332Y-97695640D01*
X168333645Y-97691856D01*
X168340299Y-97688709D01*
X168347229Y-97686229D01*
X168354368Y-97684441D01*
X168361649Y-97683361D01*
X168369000Y-97683000D01*
X168519000Y-97683000D01*
X168526351Y-97683361D01*
X168526351Y-97683361D01*
G37*
D16*
X168444000Y-98420500D03*
D17*
X162864000Y-89063000D03*
X162864000Y-90333000D03*
X162864000Y-91603000D03*
X162864000Y-92873000D03*
X156064000Y-92873000D03*
X156064000Y-91603000D03*
X156064000Y-90333000D03*
X156064000Y-89063000D03*
D10*
X155339000Y-96168000D03*
X156189000Y-96168000D03*
X155339000Y-97568000D03*
X156189000Y-97568000D03*
D11*
X184444000Y-95033000D03*
X184444000Y-95883000D03*
D10*
X176039000Y-99368000D03*
X176889000Y-99368000D03*
D11*
X166804000Y-101363000D03*
X166804000Y-102213000D03*
D10*
X164649000Y-100708000D03*
X163799000Y-100708000D03*
X178629000Y-93708000D03*
X177779000Y-93708000D03*
D11*
X181014000Y-92053000D03*
X181014000Y-91203000D03*
D18*
X153284000Y-100068000D03*
X153284000Y-99268000D03*
X153284000Y-100068000D03*
X153284000Y-99268000D03*
X153284000Y-93668000D03*
X153284000Y-93668000D03*
X153284000Y-94468000D03*
X153284000Y-94468000D03*
D19*
X153284000Y-98618000D03*
X153284000Y-97618000D03*
X153284000Y-98118000D03*
X153284000Y-95618000D03*
X153284000Y-95118000D03*
X153284000Y-97118000D03*
X153284000Y-96618000D03*
X153284000Y-96118000D03*
D10*
X160179000Y-99898000D03*
X161029000Y-99898000D03*
D11*
X182094000Y-88573000D03*
X182094000Y-89423000D03*
X178804000Y-92053000D03*
X178804000Y-91203000D03*
D10*
X177009000Y-102268000D03*
X177859000Y-102268000D03*
X160179000Y-104038000D03*
X161029000Y-104038000D03*
D20*
X176224000Y-103918000D03*
X177764000Y-103918000D03*
D11*
X157564000Y-95343000D03*
X157564000Y-96193000D03*
X157564000Y-98393000D03*
X157564000Y-97543000D03*
D20*
X176284000Y-107178000D03*
X177824000Y-107178000D03*
D21*
X165814520Y-90098520D03*
D15*
G36*
X165372578Y-90116198D02*
G01*
X165832198Y-89656578D01*
X166256462Y-90080842D01*
X165796842Y-90540462D01*
X165372578Y-90116198D01*
X165372578Y-90116198D01*
G37*
D21*
X165213480Y-89497480D03*
D15*
G36*
X164771538Y-89515158D02*
G01*
X165231158Y-89055538D01*
X165655422Y-89479802D01*
X165195802Y-89939422D01*
X164771538Y-89515158D01*
X164771538Y-89515158D01*
G37*
D10*
X176039000Y-100848000D03*
X176889000Y-100848000D03*
D11*
X182464000Y-91193000D03*
X182464000Y-92043000D03*
D10*
X169879000Y-105218001D03*
X169029000Y-105218001D03*
X172889000Y-105228000D03*
X173739000Y-105228000D03*
M02*
