G04 #@! TF.GenerationSoftware,KiCad,Pcbnew,5.1.4-e60b266~84~ubuntu18.04.1*
G04 #@! TF.CreationDate,2019-11-01T23:52:35+08:00*
G04 #@! TF.ProjectId,dap-stm32f103,6461702d-7374-46d3-9332-663130332e6b,rev?*
G04 #@! TF.SameCoordinates,Original*
G04 #@! TF.FileFunction,Legend,Bot*
G04 #@! TF.FilePolarity,Positive*
%FSLAX46Y46*%
G04 Gerber Fmt 4.6, Leading zero omitted, Abs format (unit mm)*
G04 Created by KiCad (PCBNEW 5.1.4-e60b266~84~ubuntu18.04.1) date 2019-11-01 23:52:35*
%MOMM*%
%LPD*%
G04 APERTURE LIST*
%ADD10C,0.150000*%
G04 APERTURE END LIST*
D10*
X122756380Y-87875142D02*
X122280190Y-87541809D01*
X122756380Y-87303714D02*
X121756380Y-87303714D01*
X121756380Y-87684666D01*
X121804000Y-87779904D01*
X121851619Y-87827523D01*
X121946857Y-87875142D01*
X122089714Y-87875142D01*
X122184952Y-87827523D01*
X122232571Y-87779904D01*
X122280190Y-87684666D01*
X122280190Y-87303714D01*
X122756380Y-88827523D02*
X122756380Y-88256095D01*
X122756380Y-88541809D02*
X121756380Y-88541809D01*
X121899238Y-88446571D01*
X121994476Y-88351333D01*
X122042095Y-88256095D01*
X122756380Y-89779904D02*
X122756380Y-89208476D01*
X122756380Y-89494190D02*
X121756380Y-89494190D01*
X121899238Y-89398952D01*
X121994476Y-89303714D01*
X122042095Y-89208476D01*
X133590666Y-92460380D02*
X133924000Y-91984190D01*
X134162095Y-92460380D02*
X134162095Y-91460380D01*
X133781142Y-91460380D01*
X133685904Y-91508000D01*
X133638285Y-91555619D01*
X133590666Y-91650857D01*
X133590666Y-91793714D01*
X133638285Y-91888952D01*
X133685904Y-91936571D01*
X133781142Y-91984190D01*
X134162095Y-91984190D01*
X133209714Y-91555619D02*
X133162095Y-91508000D01*
X133066857Y-91460380D01*
X132828761Y-91460380D01*
X132733523Y-91508000D01*
X132685904Y-91555619D01*
X132638285Y-91650857D01*
X132638285Y-91746095D01*
X132685904Y-91888952D01*
X133257333Y-92460380D01*
X132638285Y-92460380D01*
X127600190Y-92544190D02*
X127600190Y-93020380D01*
X127933523Y-92020380D02*
X127600190Y-92544190D01*
X127266857Y-92020380D01*
X126409714Y-93020380D02*
X126981142Y-93020380D01*
X126695428Y-93020380D02*
X126695428Y-92020380D01*
X126790666Y-92163238D01*
X126885904Y-92258476D01*
X126981142Y-92306095D01*
X120953523Y-91510380D02*
X120620190Y-92510380D01*
X120286857Y-91510380D01*
X119382095Y-92510380D02*
X119715428Y-92034190D01*
X119953523Y-92510380D02*
X119953523Y-91510380D01*
X119572571Y-91510380D01*
X119477333Y-91558000D01*
X119429714Y-91605619D01*
X119382095Y-91700857D01*
X119382095Y-91843714D01*
X119429714Y-91938952D01*
X119477333Y-91986571D01*
X119572571Y-92034190D01*
X119953523Y-92034190D01*
X118429714Y-92510380D02*
X119001142Y-92510380D01*
X118715428Y-92510380D02*
X118715428Y-91510380D01*
X118810666Y-91653238D01*
X118905904Y-91748476D01*
X119001142Y-91796095D01*
X121386380Y-87865142D02*
X120910190Y-87531809D01*
X121386380Y-87293714D02*
X120386380Y-87293714D01*
X120386380Y-87674666D01*
X120434000Y-87769904D01*
X120481619Y-87817523D01*
X120576857Y-87865142D01*
X120719714Y-87865142D01*
X120814952Y-87817523D01*
X120862571Y-87769904D01*
X120910190Y-87674666D01*
X120910190Y-87293714D01*
X121386380Y-88817523D02*
X121386380Y-88246095D01*
X121386380Y-88531809D02*
X120386380Y-88531809D01*
X120529238Y-88436571D01*
X120624476Y-88341333D01*
X120672095Y-88246095D01*
X120481619Y-89198476D02*
X120434000Y-89246095D01*
X120386380Y-89341333D01*
X120386380Y-89579428D01*
X120434000Y-89674666D01*
X120481619Y-89722285D01*
X120576857Y-89769904D01*
X120672095Y-89769904D01*
X120814952Y-89722285D01*
X121386380Y-89150857D01*
X121386380Y-89769904D01*
X130696857Y-90020380D02*
X131030190Y-89544190D01*
X131268285Y-90020380D02*
X131268285Y-89020380D01*
X130887333Y-89020380D01*
X130792095Y-89068000D01*
X130744476Y-89115619D01*
X130696857Y-89210857D01*
X130696857Y-89353714D01*
X130744476Y-89448952D01*
X130792095Y-89496571D01*
X130887333Y-89544190D01*
X131268285Y-89544190D01*
X129744476Y-90020380D02*
X130315904Y-90020380D01*
X130030190Y-90020380D02*
X130030190Y-89020380D01*
X130125428Y-89163238D01*
X130220666Y-89258476D01*
X130315904Y-89306095D01*
X129125428Y-89020380D02*
X129030190Y-89020380D01*
X128934952Y-89068000D01*
X128887333Y-89115619D01*
X128839714Y-89210857D01*
X128792095Y-89401333D01*
X128792095Y-89639428D01*
X128839714Y-89829904D01*
X128887333Y-89925142D01*
X128934952Y-89972761D01*
X129030190Y-90020380D01*
X129125428Y-90020380D01*
X129220666Y-89972761D01*
X129268285Y-89925142D01*
X129315904Y-89829904D01*
X129363523Y-89639428D01*
X129363523Y-89401333D01*
X129315904Y-89210857D01*
X129268285Y-89115619D01*
X129220666Y-89068000D01*
X129125428Y-89020380D01*
X129470666Y-88600380D02*
X129804000Y-88124190D01*
X130042095Y-88600380D02*
X130042095Y-87600380D01*
X129661142Y-87600380D01*
X129565904Y-87648000D01*
X129518285Y-87695619D01*
X129470666Y-87790857D01*
X129470666Y-87933714D01*
X129518285Y-88028952D01*
X129565904Y-88076571D01*
X129661142Y-88124190D01*
X130042095Y-88124190D01*
X128994476Y-88600380D02*
X128804000Y-88600380D01*
X128708761Y-88552761D01*
X128661142Y-88505142D01*
X128565904Y-88362285D01*
X128518285Y-88171809D01*
X128518285Y-87790857D01*
X128565904Y-87695619D01*
X128613523Y-87648000D01*
X128708761Y-87600380D01*
X128899238Y-87600380D01*
X128994476Y-87648000D01*
X129042095Y-87695619D01*
X129089714Y-87790857D01*
X129089714Y-88028952D01*
X129042095Y-88124190D01*
X128994476Y-88171809D01*
X128899238Y-88219428D01*
X128708761Y-88219428D01*
X128613523Y-88171809D01*
X128565904Y-88124190D01*
X128518285Y-88028952D01*
X132656380Y-89811333D02*
X132180190Y-89478000D01*
X132656380Y-89239904D02*
X131656380Y-89239904D01*
X131656380Y-89620857D01*
X131704000Y-89716095D01*
X131751619Y-89763714D01*
X131846857Y-89811333D01*
X131989714Y-89811333D01*
X132084952Y-89763714D01*
X132132571Y-89716095D01*
X132180190Y-89620857D01*
X132180190Y-89239904D01*
X132084952Y-90382761D02*
X132037333Y-90287523D01*
X131989714Y-90239904D01*
X131894476Y-90192285D01*
X131846857Y-90192285D01*
X131751619Y-90239904D01*
X131704000Y-90287523D01*
X131656380Y-90382761D01*
X131656380Y-90573238D01*
X131704000Y-90668476D01*
X131751619Y-90716095D01*
X131846857Y-90763714D01*
X131894476Y-90763714D01*
X131989714Y-90716095D01*
X132037333Y-90668476D01*
X132084952Y-90573238D01*
X132084952Y-90382761D01*
X132132571Y-90287523D01*
X132180190Y-90239904D01*
X132275428Y-90192285D01*
X132465904Y-90192285D01*
X132561142Y-90239904D01*
X132608761Y-90287523D01*
X132656380Y-90382761D01*
X132656380Y-90573238D01*
X132608761Y-90668476D01*
X132561142Y-90716095D01*
X132465904Y-90763714D01*
X132275428Y-90763714D01*
X132180190Y-90716095D01*
X132132571Y-90668476D01*
X132084952Y-90573238D01*
X132261969Y-86135732D02*
X132834389Y-86034717D01*
X132666030Y-86539793D02*
X133373137Y-85832687D01*
X133103763Y-85563312D01*
X133002748Y-85529641D01*
X132935404Y-85529641D01*
X132834389Y-85563312D01*
X132733374Y-85664328D01*
X132699702Y-85765343D01*
X132699702Y-85832687D01*
X132733374Y-85933702D01*
X133002748Y-86203076D01*
X132733374Y-85192923D02*
X132261969Y-84721519D01*
X131857908Y-85731671D01*
X133590666Y-93880380D02*
X133924000Y-93404190D01*
X134162095Y-93880380D02*
X134162095Y-92880380D01*
X133781142Y-92880380D01*
X133685904Y-92928000D01*
X133638285Y-92975619D01*
X133590666Y-93070857D01*
X133590666Y-93213714D01*
X133638285Y-93308952D01*
X133685904Y-93356571D01*
X133781142Y-93404190D01*
X134162095Y-93404190D01*
X132733523Y-92880380D02*
X132924000Y-92880380D01*
X133019238Y-92928000D01*
X133066857Y-92975619D01*
X133162095Y-93118476D01*
X133209714Y-93308952D01*
X133209714Y-93689904D01*
X133162095Y-93785142D01*
X133114476Y-93832761D01*
X133019238Y-93880380D01*
X132828761Y-93880380D01*
X132733523Y-93832761D01*
X132685904Y-93785142D01*
X132638285Y-93689904D01*
X132638285Y-93451809D01*
X132685904Y-93356571D01*
X132733523Y-93308952D01*
X132828761Y-93261333D01*
X133019238Y-93261333D01*
X133114476Y-93308952D01*
X133162095Y-93356571D01*
X133209714Y-93451809D01*
X132760666Y-82940380D02*
X133094000Y-82464190D01*
X133332095Y-82940380D02*
X133332095Y-81940380D01*
X132951142Y-81940380D01*
X132855904Y-81988000D01*
X132808285Y-82035619D01*
X132760666Y-82130857D01*
X132760666Y-82273714D01*
X132808285Y-82368952D01*
X132855904Y-82416571D01*
X132951142Y-82464190D01*
X133332095Y-82464190D01*
X131855904Y-81940380D02*
X132332095Y-81940380D01*
X132379714Y-82416571D01*
X132332095Y-82368952D01*
X132236857Y-82321333D01*
X131998761Y-82321333D01*
X131903523Y-82368952D01*
X131855904Y-82416571D01*
X131808285Y-82511809D01*
X131808285Y-82749904D01*
X131855904Y-82845142D01*
X131903523Y-82892761D01*
X131998761Y-82940380D01*
X132236857Y-82940380D01*
X132332095Y-82892761D01*
X132379714Y-82845142D01*
X134136380Y-79991333D02*
X133660190Y-79658000D01*
X134136380Y-79419904D02*
X133136380Y-79419904D01*
X133136380Y-79800857D01*
X133184000Y-79896095D01*
X133231619Y-79943714D01*
X133326857Y-79991333D01*
X133469714Y-79991333D01*
X133564952Y-79943714D01*
X133612571Y-79896095D01*
X133660190Y-79800857D01*
X133660190Y-79419904D01*
X134136380Y-80943714D02*
X134136380Y-80372285D01*
X134136380Y-80658000D02*
X133136380Y-80658000D01*
X133279238Y-80562761D01*
X133374476Y-80467523D01*
X133422095Y-80372285D01*
X120506857Y-86585142D02*
X120554476Y-86632761D01*
X120697333Y-86680380D01*
X120792571Y-86680380D01*
X120935428Y-86632761D01*
X121030666Y-86537523D01*
X121078285Y-86442285D01*
X121125904Y-86251809D01*
X121125904Y-86108952D01*
X121078285Y-85918476D01*
X121030666Y-85823238D01*
X120935428Y-85728000D01*
X120792571Y-85680380D01*
X120697333Y-85680380D01*
X120554476Y-85728000D01*
X120506857Y-85775619D01*
X119554476Y-86680380D02*
X120125904Y-86680380D01*
X119840190Y-86680380D02*
X119840190Y-85680380D01*
X119935428Y-85823238D01*
X120030666Y-85918476D01*
X120125904Y-85966095D01*
X118697333Y-86013714D02*
X118697333Y-86680380D01*
X118935428Y-85632761D02*
X119173523Y-86347047D01*
X118554476Y-86347047D01*
X130521142Y-76495142D02*
X130568761Y-76447523D01*
X130616380Y-76304666D01*
X130616380Y-76209428D01*
X130568761Y-76066571D01*
X130473523Y-75971333D01*
X130378285Y-75923714D01*
X130187809Y-75876095D01*
X130044952Y-75876095D01*
X129854476Y-75923714D01*
X129759238Y-75971333D01*
X129664000Y-76066571D01*
X129616380Y-76209428D01*
X129616380Y-76304666D01*
X129664000Y-76447523D01*
X129711619Y-76495142D01*
X130616380Y-77447523D02*
X130616380Y-76876095D01*
X130616380Y-77161809D02*
X129616380Y-77161809D01*
X129759238Y-77066571D01*
X129854476Y-76971333D01*
X129902095Y-76876095D01*
X129616380Y-77780857D02*
X129616380Y-78399904D01*
X129997333Y-78066571D01*
X129997333Y-78209428D01*
X130044952Y-78304666D01*
X130092571Y-78352285D01*
X130187809Y-78399904D01*
X130425904Y-78399904D01*
X130521142Y-78352285D01*
X130568761Y-78304666D01*
X130616380Y-78209428D01*
X130616380Y-77923714D01*
X130568761Y-77828476D01*
X130521142Y-77780857D01*
X133066857Y-88545142D02*
X133114476Y-88592761D01*
X133257333Y-88640380D01*
X133352571Y-88640380D01*
X133495428Y-88592761D01*
X133590666Y-88497523D01*
X133638285Y-88402285D01*
X133685904Y-88211809D01*
X133685904Y-88068952D01*
X133638285Y-87878476D01*
X133590666Y-87783238D01*
X133495428Y-87688000D01*
X133352571Y-87640380D01*
X133257333Y-87640380D01*
X133114476Y-87688000D01*
X133066857Y-87735619D01*
X132114476Y-88640380D02*
X132685904Y-88640380D01*
X132400190Y-88640380D02*
X132400190Y-87640380D01*
X132495428Y-87783238D01*
X132590666Y-87878476D01*
X132685904Y-87926095D01*
X131733523Y-87735619D02*
X131685904Y-87688000D01*
X131590666Y-87640380D01*
X131352571Y-87640380D01*
X131257333Y-87688000D01*
X131209714Y-87735619D01*
X131162095Y-87830857D01*
X131162095Y-87926095D01*
X131209714Y-88068952D01*
X131781142Y-88640380D01*
X131162095Y-88640380D01*
X119446030Y-77045106D02*
X119446030Y-77112450D01*
X119513374Y-77247137D01*
X119580717Y-77314480D01*
X119715404Y-77381824D01*
X119850091Y-77381824D01*
X119951106Y-77348152D01*
X120119465Y-77247137D01*
X120220480Y-77146122D01*
X120321496Y-76977763D01*
X120355167Y-76876748D01*
X120355167Y-76742061D01*
X120287824Y-76607374D01*
X120220480Y-76540030D01*
X120085793Y-76472687D01*
X120018450Y-76472687D01*
X118705251Y-76439015D02*
X119109312Y-76843076D01*
X118907282Y-76641045D02*
X119614389Y-75933938D01*
X119580717Y-76102297D01*
X119580717Y-76236984D01*
X119614389Y-76338000D01*
X118031816Y-75765580D02*
X118435877Y-76169641D01*
X118233847Y-75967610D02*
X118940954Y-75260503D01*
X118907282Y-75428862D01*
X118907282Y-75563549D01*
X118940954Y-75664564D01*
X119861142Y-88071333D02*
X119908761Y-88023714D01*
X119956380Y-87880857D01*
X119956380Y-87785619D01*
X119908761Y-87642761D01*
X119813523Y-87547523D01*
X119718285Y-87499904D01*
X119527809Y-87452285D01*
X119384952Y-87452285D01*
X119194476Y-87499904D01*
X119099238Y-87547523D01*
X119004000Y-87642761D01*
X118956380Y-87785619D01*
X118956380Y-87880857D01*
X119004000Y-88023714D01*
X119051619Y-88071333D01*
X119384952Y-88642761D02*
X119337333Y-88547523D01*
X119289714Y-88499904D01*
X119194476Y-88452285D01*
X119146857Y-88452285D01*
X119051619Y-88499904D01*
X119004000Y-88547523D01*
X118956380Y-88642761D01*
X118956380Y-88833238D01*
X119004000Y-88928476D01*
X119051619Y-88976095D01*
X119146857Y-89023714D01*
X119194476Y-89023714D01*
X119289714Y-88976095D01*
X119337333Y-88928476D01*
X119384952Y-88833238D01*
X119384952Y-88642761D01*
X119432571Y-88547523D01*
X119480190Y-88499904D01*
X119575428Y-88452285D01*
X119765904Y-88452285D01*
X119861142Y-88499904D01*
X119908761Y-88547523D01*
X119956380Y-88642761D01*
X119956380Y-88833238D01*
X119908761Y-88928476D01*
X119861142Y-88976095D01*
X119765904Y-89023714D01*
X119575428Y-89023714D01*
X119480190Y-88976095D01*
X119432571Y-88928476D01*
X119384952Y-88833238D01*
X118221142Y-87631333D02*
X118268761Y-87583714D01*
X118316380Y-87440857D01*
X118316380Y-87345619D01*
X118268761Y-87202761D01*
X118173523Y-87107523D01*
X118078285Y-87059904D01*
X117887809Y-87012285D01*
X117744952Y-87012285D01*
X117554476Y-87059904D01*
X117459238Y-87107523D01*
X117364000Y-87202761D01*
X117316380Y-87345619D01*
X117316380Y-87440857D01*
X117364000Y-87583714D01*
X117411619Y-87631333D01*
X117316380Y-87964666D02*
X117316380Y-88631333D01*
X118316380Y-88202761D01*
X124071142Y-88071333D02*
X124118761Y-88023714D01*
X124166380Y-87880857D01*
X124166380Y-87785619D01*
X124118761Y-87642761D01*
X124023523Y-87547523D01*
X123928285Y-87499904D01*
X123737809Y-87452285D01*
X123594952Y-87452285D01*
X123404476Y-87499904D01*
X123309238Y-87547523D01*
X123214000Y-87642761D01*
X123166380Y-87785619D01*
X123166380Y-87880857D01*
X123214000Y-88023714D01*
X123261619Y-88071333D01*
X123166380Y-88928476D02*
X123166380Y-88738000D01*
X123214000Y-88642761D01*
X123261619Y-88595142D01*
X123404476Y-88499904D01*
X123594952Y-88452285D01*
X123975904Y-88452285D01*
X124071142Y-88499904D01*
X124118761Y-88547523D01*
X124166380Y-88642761D01*
X124166380Y-88833238D01*
X124118761Y-88928476D01*
X124071142Y-88976095D01*
X123975904Y-89023714D01*
X123737809Y-89023714D01*
X123642571Y-88976095D01*
X123594952Y-88928476D01*
X123547333Y-88833238D01*
X123547333Y-88642761D01*
X123594952Y-88547523D01*
X123642571Y-88499904D01*
X123737809Y-88452285D01*
X116491142Y-87541333D02*
X116538761Y-87493714D01*
X116586380Y-87350857D01*
X116586380Y-87255619D01*
X116538761Y-87112761D01*
X116443523Y-87017523D01*
X116348285Y-86969904D01*
X116157809Y-86922285D01*
X116014952Y-86922285D01*
X115824476Y-86969904D01*
X115729238Y-87017523D01*
X115634000Y-87112761D01*
X115586380Y-87255619D01*
X115586380Y-87350857D01*
X115634000Y-87493714D01*
X115681619Y-87541333D01*
X115586380Y-88446095D02*
X115586380Y-87969904D01*
X116062571Y-87922285D01*
X116014952Y-87969904D01*
X115967333Y-88065142D01*
X115967333Y-88303238D01*
X116014952Y-88398476D01*
X116062571Y-88446095D01*
X116157809Y-88493714D01*
X116395904Y-88493714D01*
X116491142Y-88446095D01*
X116538761Y-88398476D01*
X116586380Y-88303238D01*
X116586380Y-88065142D01*
X116538761Y-87969904D01*
X116491142Y-87922285D01*
X132491142Y-79841333D02*
X132538761Y-79793714D01*
X132586380Y-79650857D01*
X132586380Y-79555619D01*
X132538761Y-79412761D01*
X132443523Y-79317523D01*
X132348285Y-79269904D01*
X132157809Y-79222285D01*
X132014952Y-79222285D01*
X131824476Y-79269904D01*
X131729238Y-79317523D01*
X131634000Y-79412761D01*
X131586380Y-79555619D01*
X131586380Y-79650857D01*
X131634000Y-79793714D01*
X131681619Y-79841333D01*
X131919714Y-80698476D02*
X132586380Y-80698476D01*
X131538761Y-80460380D02*
X132253047Y-80222285D01*
X132253047Y-80841333D01*
X133911142Y-89821333D02*
X133958761Y-89773714D01*
X134006380Y-89630857D01*
X134006380Y-89535619D01*
X133958761Y-89392761D01*
X133863523Y-89297523D01*
X133768285Y-89249904D01*
X133577809Y-89202285D01*
X133434952Y-89202285D01*
X133244476Y-89249904D01*
X133149238Y-89297523D01*
X133054000Y-89392761D01*
X133006380Y-89535619D01*
X133006380Y-89630857D01*
X133054000Y-89773714D01*
X133101619Y-89821333D01*
X133006380Y-90154666D02*
X133006380Y-90773714D01*
X133387333Y-90440380D01*
X133387333Y-90583238D01*
X133434952Y-90678476D01*
X133482571Y-90726095D01*
X133577809Y-90773714D01*
X133815904Y-90773714D01*
X133911142Y-90726095D01*
X133958761Y-90678476D01*
X134006380Y-90583238D01*
X134006380Y-90297523D01*
X133958761Y-90202285D01*
X133911142Y-90154666D01*
X125290666Y-90455142D02*
X125338285Y-90502761D01*
X125481142Y-90550380D01*
X125576380Y-90550380D01*
X125719238Y-90502761D01*
X125814476Y-90407523D01*
X125862095Y-90312285D01*
X125909714Y-90121809D01*
X125909714Y-89978952D01*
X125862095Y-89788476D01*
X125814476Y-89693238D01*
X125719238Y-89598000D01*
X125576380Y-89550380D01*
X125481142Y-89550380D01*
X125338285Y-89598000D01*
X125290666Y-89645619D01*
X124909714Y-89645619D02*
X124862095Y-89598000D01*
X124766857Y-89550380D01*
X124528761Y-89550380D01*
X124433523Y-89598000D01*
X124385904Y-89645619D01*
X124338285Y-89740857D01*
X124338285Y-89836095D01*
X124385904Y-89978952D01*
X124957333Y-90550380D01*
X124338285Y-90550380D01*
X127400666Y-90435142D02*
X127448285Y-90482761D01*
X127591142Y-90530380D01*
X127686380Y-90530380D01*
X127829238Y-90482761D01*
X127924476Y-90387523D01*
X127972095Y-90292285D01*
X128019714Y-90101809D01*
X128019714Y-89958952D01*
X127972095Y-89768476D01*
X127924476Y-89673238D01*
X127829238Y-89578000D01*
X127686380Y-89530380D01*
X127591142Y-89530380D01*
X127448285Y-89578000D01*
X127400666Y-89625619D01*
X126448285Y-90530380D02*
X127019714Y-90530380D01*
X126734000Y-90530380D02*
X126734000Y-89530380D01*
X126829238Y-89673238D01*
X126924476Y-89768476D01*
X127019714Y-89816095D01*
M02*
