G04 #@! TF.GenerationSoftware,KiCad,Pcbnew,5.1.4-e60b266~84~ubuntu18.04.1*
G04 #@! TF.CreationDate,2019-11-01T23:52:35+08:00*
G04 #@! TF.ProjectId,dap-stm32f103,6461702d-7374-46d3-9332-663130332e6b,rev?*
G04 #@! TF.SameCoordinates,Original*
G04 #@! TF.FileFunction,Copper,L1,Top*
G04 #@! TF.FilePolarity,Positive*
%FSLAX46Y46*%
G04 Gerber Fmt 4.6, Leading zero omitted, Abs format (unit mm)*
G04 Created by KiCad (PCBNEW 5.1.4-e60b266~84~ubuntu18.04.1) date 2019-11-01 23:52:35*
%MOMM*%
%LPD*%
G04 APERTURE LIST*
%ADD10R,2.000000X1.000000*%
%ADD11R,1.000000X2.000000*%
%ADD12R,0.650000X0.600000*%
%ADD13R,0.600000X0.650000*%
%ADD14O,1.000000X1.000000*%
%ADD15R,1.000000X1.000000*%
%ADD16R,1.900000X2.400000*%
%ADD17O,1.900000X0.700000*%
%ADD18O,3.500000X2.000000*%
%ADD19O,2.100000X0.700000*%
%ADD20C,0.100000*%
%ADD21C,0.300000*%
%ADD22C,0.600000*%
%ADD23R,0.980000X0.930000*%
%ADD24C,0.250000*%
G04 APERTURE END LIST*
D10*
X135944000Y-85625775D03*
X135944000Y-84070220D03*
X135944000Y-82514665D03*
X135944000Y-90292440D03*
X135944000Y-91848000D03*
X135944000Y-79403555D03*
X135944000Y-80959110D03*
X135944000Y-88736885D03*
X135944000Y-77848000D03*
X135944000Y-87181330D03*
X113944000Y-85625775D03*
X113944000Y-84070220D03*
X113944000Y-82514665D03*
X113944000Y-90292440D03*
X113944000Y-91848000D03*
X113944000Y-79403555D03*
X113944000Y-80959110D03*
X113944000Y-88736885D03*
X113944000Y-77848000D03*
X113944000Y-87181330D03*
D11*
X125741775Y-95868000D03*
X124186220Y-95868000D03*
X122630665Y-95868000D03*
X130408440Y-95868000D03*
X131964000Y-95868000D03*
X119519555Y-95868000D03*
X121075110Y-95868000D03*
X128852885Y-95868000D03*
X117964000Y-95868000D03*
X127297330Y-95868000D03*
X124066225Y-73868000D03*
X125621780Y-73868000D03*
X127177335Y-73868000D03*
X119399560Y-73868000D03*
X117844000Y-73868000D03*
X130288445Y-73868000D03*
X128732890Y-73868000D03*
X120955115Y-73868000D03*
X131844000Y-73868000D03*
X122510670Y-73868000D03*
D12*
X122298000Y-87839000D03*
X122298000Y-88689000D03*
D13*
X133859000Y-92008000D03*
X133009000Y-92008000D03*
D14*
X116514000Y-76478000D03*
X116514000Y-77748000D03*
X116514000Y-79018000D03*
X116514000Y-80288000D03*
D15*
X116514000Y-81558000D03*
D16*
X125254000Y-92458000D03*
X129354000Y-92458000D03*
D17*
X119774000Y-90558000D03*
D18*
X117274000Y-92058000D03*
D19*
X119674000Y-92058000D03*
D17*
X119774000Y-93558000D03*
D20*
G36*
X122961351Y-85361861D02*
G01*
X122968632Y-85362941D01*
X122975771Y-85364729D01*
X122982701Y-85367209D01*
X122989355Y-85370356D01*
X122995668Y-85374140D01*
X123001579Y-85378524D01*
X123007033Y-85383467D01*
X123011976Y-85388921D01*
X123016360Y-85394832D01*
X123020144Y-85401145D01*
X123023291Y-85407799D01*
X123025771Y-85414729D01*
X123027559Y-85421868D01*
X123028639Y-85429149D01*
X123029000Y-85436500D01*
X123029000Y-86761500D01*
X123028639Y-86768851D01*
X123027559Y-86776132D01*
X123025771Y-86783271D01*
X123023291Y-86790201D01*
X123020144Y-86796855D01*
X123016360Y-86803168D01*
X123011976Y-86809079D01*
X123007033Y-86814533D01*
X123001579Y-86819476D01*
X122995668Y-86823860D01*
X122989355Y-86827644D01*
X122982701Y-86830791D01*
X122975771Y-86833271D01*
X122968632Y-86835059D01*
X122961351Y-86836139D01*
X122954000Y-86836500D01*
X122804000Y-86836500D01*
X122796649Y-86836139D01*
X122789368Y-86835059D01*
X122782229Y-86833271D01*
X122775299Y-86830791D01*
X122768645Y-86827644D01*
X122762332Y-86823860D01*
X122756421Y-86819476D01*
X122750967Y-86814533D01*
X122746024Y-86809079D01*
X122741640Y-86803168D01*
X122737856Y-86796855D01*
X122734709Y-86790201D01*
X122732229Y-86783271D01*
X122730441Y-86776132D01*
X122729361Y-86768851D01*
X122729000Y-86761500D01*
X122729000Y-85436500D01*
X122729361Y-85429149D01*
X122730441Y-85421868D01*
X122732229Y-85414729D01*
X122734709Y-85407799D01*
X122737856Y-85401145D01*
X122741640Y-85394832D01*
X122746024Y-85388921D01*
X122750967Y-85383467D01*
X122756421Y-85378524D01*
X122762332Y-85374140D01*
X122768645Y-85370356D01*
X122775299Y-85367209D01*
X122782229Y-85364729D01*
X122789368Y-85362941D01*
X122796649Y-85361861D01*
X122804000Y-85361500D01*
X122954000Y-85361500D01*
X122961351Y-85361861D01*
X122961351Y-85361861D01*
G37*
D21*
X122879000Y-86099000D03*
D20*
G36*
X123461351Y-85361861D02*
G01*
X123468632Y-85362941D01*
X123475771Y-85364729D01*
X123482701Y-85367209D01*
X123489355Y-85370356D01*
X123495668Y-85374140D01*
X123501579Y-85378524D01*
X123507033Y-85383467D01*
X123511976Y-85388921D01*
X123516360Y-85394832D01*
X123520144Y-85401145D01*
X123523291Y-85407799D01*
X123525771Y-85414729D01*
X123527559Y-85421868D01*
X123528639Y-85429149D01*
X123529000Y-85436500D01*
X123529000Y-86761500D01*
X123528639Y-86768851D01*
X123527559Y-86776132D01*
X123525771Y-86783271D01*
X123523291Y-86790201D01*
X123520144Y-86796855D01*
X123516360Y-86803168D01*
X123511976Y-86809079D01*
X123507033Y-86814533D01*
X123501579Y-86819476D01*
X123495668Y-86823860D01*
X123489355Y-86827644D01*
X123482701Y-86830791D01*
X123475771Y-86833271D01*
X123468632Y-86835059D01*
X123461351Y-86836139D01*
X123454000Y-86836500D01*
X123304000Y-86836500D01*
X123296649Y-86836139D01*
X123289368Y-86835059D01*
X123282229Y-86833271D01*
X123275299Y-86830791D01*
X123268645Y-86827644D01*
X123262332Y-86823860D01*
X123256421Y-86819476D01*
X123250967Y-86814533D01*
X123246024Y-86809079D01*
X123241640Y-86803168D01*
X123237856Y-86796855D01*
X123234709Y-86790201D01*
X123232229Y-86783271D01*
X123230441Y-86776132D01*
X123229361Y-86768851D01*
X123229000Y-86761500D01*
X123229000Y-85436500D01*
X123229361Y-85429149D01*
X123230441Y-85421868D01*
X123232229Y-85414729D01*
X123234709Y-85407799D01*
X123237856Y-85401145D01*
X123241640Y-85394832D01*
X123246024Y-85388921D01*
X123250967Y-85383467D01*
X123256421Y-85378524D01*
X123262332Y-85374140D01*
X123268645Y-85370356D01*
X123275299Y-85367209D01*
X123282229Y-85364729D01*
X123289368Y-85362941D01*
X123296649Y-85361861D01*
X123304000Y-85361500D01*
X123454000Y-85361500D01*
X123461351Y-85361861D01*
X123461351Y-85361861D01*
G37*
D21*
X123379000Y-86099000D03*
D20*
G36*
X123961351Y-85361861D02*
G01*
X123968632Y-85362941D01*
X123975771Y-85364729D01*
X123982701Y-85367209D01*
X123989355Y-85370356D01*
X123995668Y-85374140D01*
X124001579Y-85378524D01*
X124007033Y-85383467D01*
X124011976Y-85388921D01*
X124016360Y-85394832D01*
X124020144Y-85401145D01*
X124023291Y-85407799D01*
X124025771Y-85414729D01*
X124027559Y-85421868D01*
X124028639Y-85429149D01*
X124029000Y-85436500D01*
X124029000Y-86761500D01*
X124028639Y-86768851D01*
X124027559Y-86776132D01*
X124025771Y-86783271D01*
X124023291Y-86790201D01*
X124020144Y-86796855D01*
X124016360Y-86803168D01*
X124011976Y-86809079D01*
X124007033Y-86814533D01*
X124001579Y-86819476D01*
X123995668Y-86823860D01*
X123989355Y-86827644D01*
X123982701Y-86830791D01*
X123975771Y-86833271D01*
X123968632Y-86835059D01*
X123961351Y-86836139D01*
X123954000Y-86836500D01*
X123804000Y-86836500D01*
X123796649Y-86836139D01*
X123789368Y-86835059D01*
X123782229Y-86833271D01*
X123775299Y-86830791D01*
X123768645Y-86827644D01*
X123762332Y-86823860D01*
X123756421Y-86819476D01*
X123750967Y-86814533D01*
X123746024Y-86809079D01*
X123741640Y-86803168D01*
X123737856Y-86796855D01*
X123734709Y-86790201D01*
X123732229Y-86783271D01*
X123730441Y-86776132D01*
X123729361Y-86768851D01*
X123729000Y-86761500D01*
X123729000Y-85436500D01*
X123729361Y-85429149D01*
X123730441Y-85421868D01*
X123732229Y-85414729D01*
X123734709Y-85407799D01*
X123737856Y-85401145D01*
X123741640Y-85394832D01*
X123746024Y-85388921D01*
X123750967Y-85383467D01*
X123756421Y-85378524D01*
X123762332Y-85374140D01*
X123768645Y-85370356D01*
X123775299Y-85367209D01*
X123782229Y-85364729D01*
X123789368Y-85362941D01*
X123796649Y-85361861D01*
X123804000Y-85361500D01*
X123954000Y-85361500D01*
X123961351Y-85361861D01*
X123961351Y-85361861D01*
G37*
D21*
X123879000Y-86099000D03*
D20*
G36*
X124461351Y-85361861D02*
G01*
X124468632Y-85362941D01*
X124475771Y-85364729D01*
X124482701Y-85367209D01*
X124489355Y-85370356D01*
X124495668Y-85374140D01*
X124501579Y-85378524D01*
X124507033Y-85383467D01*
X124511976Y-85388921D01*
X124516360Y-85394832D01*
X124520144Y-85401145D01*
X124523291Y-85407799D01*
X124525771Y-85414729D01*
X124527559Y-85421868D01*
X124528639Y-85429149D01*
X124529000Y-85436500D01*
X124529000Y-86761500D01*
X124528639Y-86768851D01*
X124527559Y-86776132D01*
X124525771Y-86783271D01*
X124523291Y-86790201D01*
X124520144Y-86796855D01*
X124516360Y-86803168D01*
X124511976Y-86809079D01*
X124507033Y-86814533D01*
X124501579Y-86819476D01*
X124495668Y-86823860D01*
X124489355Y-86827644D01*
X124482701Y-86830791D01*
X124475771Y-86833271D01*
X124468632Y-86835059D01*
X124461351Y-86836139D01*
X124454000Y-86836500D01*
X124304000Y-86836500D01*
X124296649Y-86836139D01*
X124289368Y-86835059D01*
X124282229Y-86833271D01*
X124275299Y-86830791D01*
X124268645Y-86827644D01*
X124262332Y-86823860D01*
X124256421Y-86819476D01*
X124250967Y-86814533D01*
X124246024Y-86809079D01*
X124241640Y-86803168D01*
X124237856Y-86796855D01*
X124234709Y-86790201D01*
X124232229Y-86783271D01*
X124230441Y-86776132D01*
X124229361Y-86768851D01*
X124229000Y-86761500D01*
X124229000Y-85436500D01*
X124229361Y-85429149D01*
X124230441Y-85421868D01*
X124232229Y-85414729D01*
X124234709Y-85407799D01*
X124237856Y-85401145D01*
X124241640Y-85394832D01*
X124246024Y-85388921D01*
X124250967Y-85383467D01*
X124256421Y-85378524D01*
X124262332Y-85374140D01*
X124268645Y-85370356D01*
X124275299Y-85367209D01*
X124282229Y-85364729D01*
X124289368Y-85362941D01*
X124296649Y-85361861D01*
X124304000Y-85361500D01*
X124454000Y-85361500D01*
X124461351Y-85361861D01*
X124461351Y-85361861D01*
G37*
D21*
X124379000Y-86099000D03*
D20*
G36*
X124961351Y-85361861D02*
G01*
X124968632Y-85362941D01*
X124975771Y-85364729D01*
X124982701Y-85367209D01*
X124989355Y-85370356D01*
X124995668Y-85374140D01*
X125001579Y-85378524D01*
X125007033Y-85383467D01*
X125011976Y-85388921D01*
X125016360Y-85394832D01*
X125020144Y-85401145D01*
X125023291Y-85407799D01*
X125025771Y-85414729D01*
X125027559Y-85421868D01*
X125028639Y-85429149D01*
X125029000Y-85436500D01*
X125029000Y-86761500D01*
X125028639Y-86768851D01*
X125027559Y-86776132D01*
X125025771Y-86783271D01*
X125023291Y-86790201D01*
X125020144Y-86796855D01*
X125016360Y-86803168D01*
X125011976Y-86809079D01*
X125007033Y-86814533D01*
X125001579Y-86819476D01*
X124995668Y-86823860D01*
X124989355Y-86827644D01*
X124982701Y-86830791D01*
X124975771Y-86833271D01*
X124968632Y-86835059D01*
X124961351Y-86836139D01*
X124954000Y-86836500D01*
X124804000Y-86836500D01*
X124796649Y-86836139D01*
X124789368Y-86835059D01*
X124782229Y-86833271D01*
X124775299Y-86830791D01*
X124768645Y-86827644D01*
X124762332Y-86823860D01*
X124756421Y-86819476D01*
X124750967Y-86814533D01*
X124746024Y-86809079D01*
X124741640Y-86803168D01*
X124737856Y-86796855D01*
X124734709Y-86790201D01*
X124732229Y-86783271D01*
X124730441Y-86776132D01*
X124729361Y-86768851D01*
X124729000Y-86761500D01*
X124729000Y-85436500D01*
X124729361Y-85429149D01*
X124730441Y-85421868D01*
X124732229Y-85414729D01*
X124734709Y-85407799D01*
X124737856Y-85401145D01*
X124741640Y-85394832D01*
X124746024Y-85388921D01*
X124750967Y-85383467D01*
X124756421Y-85378524D01*
X124762332Y-85374140D01*
X124768645Y-85370356D01*
X124775299Y-85367209D01*
X124782229Y-85364729D01*
X124789368Y-85362941D01*
X124796649Y-85361861D01*
X124804000Y-85361500D01*
X124954000Y-85361500D01*
X124961351Y-85361861D01*
X124961351Y-85361861D01*
G37*
D21*
X124879000Y-86099000D03*
D20*
G36*
X125461351Y-85361861D02*
G01*
X125468632Y-85362941D01*
X125475771Y-85364729D01*
X125482701Y-85367209D01*
X125489355Y-85370356D01*
X125495668Y-85374140D01*
X125501579Y-85378524D01*
X125507033Y-85383467D01*
X125511976Y-85388921D01*
X125516360Y-85394832D01*
X125520144Y-85401145D01*
X125523291Y-85407799D01*
X125525771Y-85414729D01*
X125527559Y-85421868D01*
X125528639Y-85429149D01*
X125529000Y-85436500D01*
X125529000Y-86761500D01*
X125528639Y-86768851D01*
X125527559Y-86776132D01*
X125525771Y-86783271D01*
X125523291Y-86790201D01*
X125520144Y-86796855D01*
X125516360Y-86803168D01*
X125511976Y-86809079D01*
X125507033Y-86814533D01*
X125501579Y-86819476D01*
X125495668Y-86823860D01*
X125489355Y-86827644D01*
X125482701Y-86830791D01*
X125475771Y-86833271D01*
X125468632Y-86835059D01*
X125461351Y-86836139D01*
X125454000Y-86836500D01*
X125304000Y-86836500D01*
X125296649Y-86836139D01*
X125289368Y-86835059D01*
X125282229Y-86833271D01*
X125275299Y-86830791D01*
X125268645Y-86827644D01*
X125262332Y-86823860D01*
X125256421Y-86819476D01*
X125250967Y-86814533D01*
X125246024Y-86809079D01*
X125241640Y-86803168D01*
X125237856Y-86796855D01*
X125234709Y-86790201D01*
X125232229Y-86783271D01*
X125230441Y-86776132D01*
X125229361Y-86768851D01*
X125229000Y-86761500D01*
X125229000Y-85436500D01*
X125229361Y-85429149D01*
X125230441Y-85421868D01*
X125232229Y-85414729D01*
X125234709Y-85407799D01*
X125237856Y-85401145D01*
X125241640Y-85394832D01*
X125246024Y-85388921D01*
X125250967Y-85383467D01*
X125256421Y-85378524D01*
X125262332Y-85374140D01*
X125268645Y-85370356D01*
X125275299Y-85367209D01*
X125282229Y-85364729D01*
X125289368Y-85362941D01*
X125296649Y-85361861D01*
X125304000Y-85361500D01*
X125454000Y-85361500D01*
X125461351Y-85361861D01*
X125461351Y-85361861D01*
G37*
D21*
X125379000Y-86099000D03*
D20*
G36*
X125961351Y-85361861D02*
G01*
X125968632Y-85362941D01*
X125975771Y-85364729D01*
X125982701Y-85367209D01*
X125989355Y-85370356D01*
X125995668Y-85374140D01*
X126001579Y-85378524D01*
X126007033Y-85383467D01*
X126011976Y-85388921D01*
X126016360Y-85394832D01*
X126020144Y-85401145D01*
X126023291Y-85407799D01*
X126025771Y-85414729D01*
X126027559Y-85421868D01*
X126028639Y-85429149D01*
X126029000Y-85436500D01*
X126029000Y-86761500D01*
X126028639Y-86768851D01*
X126027559Y-86776132D01*
X126025771Y-86783271D01*
X126023291Y-86790201D01*
X126020144Y-86796855D01*
X126016360Y-86803168D01*
X126011976Y-86809079D01*
X126007033Y-86814533D01*
X126001579Y-86819476D01*
X125995668Y-86823860D01*
X125989355Y-86827644D01*
X125982701Y-86830791D01*
X125975771Y-86833271D01*
X125968632Y-86835059D01*
X125961351Y-86836139D01*
X125954000Y-86836500D01*
X125804000Y-86836500D01*
X125796649Y-86836139D01*
X125789368Y-86835059D01*
X125782229Y-86833271D01*
X125775299Y-86830791D01*
X125768645Y-86827644D01*
X125762332Y-86823860D01*
X125756421Y-86819476D01*
X125750967Y-86814533D01*
X125746024Y-86809079D01*
X125741640Y-86803168D01*
X125737856Y-86796855D01*
X125734709Y-86790201D01*
X125732229Y-86783271D01*
X125730441Y-86776132D01*
X125729361Y-86768851D01*
X125729000Y-86761500D01*
X125729000Y-85436500D01*
X125729361Y-85429149D01*
X125730441Y-85421868D01*
X125732229Y-85414729D01*
X125734709Y-85407799D01*
X125737856Y-85401145D01*
X125741640Y-85394832D01*
X125746024Y-85388921D01*
X125750967Y-85383467D01*
X125756421Y-85378524D01*
X125762332Y-85374140D01*
X125768645Y-85370356D01*
X125775299Y-85367209D01*
X125782229Y-85364729D01*
X125789368Y-85362941D01*
X125796649Y-85361861D01*
X125804000Y-85361500D01*
X125954000Y-85361500D01*
X125961351Y-85361861D01*
X125961351Y-85361861D01*
G37*
D21*
X125879000Y-86099000D03*
D20*
G36*
X126461351Y-85361861D02*
G01*
X126468632Y-85362941D01*
X126475771Y-85364729D01*
X126482701Y-85367209D01*
X126489355Y-85370356D01*
X126495668Y-85374140D01*
X126501579Y-85378524D01*
X126507033Y-85383467D01*
X126511976Y-85388921D01*
X126516360Y-85394832D01*
X126520144Y-85401145D01*
X126523291Y-85407799D01*
X126525771Y-85414729D01*
X126527559Y-85421868D01*
X126528639Y-85429149D01*
X126529000Y-85436500D01*
X126529000Y-86761500D01*
X126528639Y-86768851D01*
X126527559Y-86776132D01*
X126525771Y-86783271D01*
X126523291Y-86790201D01*
X126520144Y-86796855D01*
X126516360Y-86803168D01*
X126511976Y-86809079D01*
X126507033Y-86814533D01*
X126501579Y-86819476D01*
X126495668Y-86823860D01*
X126489355Y-86827644D01*
X126482701Y-86830791D01*
X126475771Y-86833271D01*
X126468632Y-86835059D01*
X126461351Y-86836139D01*
X126454000Y-86836500D01*
X126304000Y-86836500D01*
X126296649Y-86836139D01*
X126289368Y-86835059D01*
X126282229Y-86833271D01*
X126275299Y-86830791D01*
X126268645Y-86827644D01*
X126262332Y-86823860D01*
X126256421Y-86819476D01*
X126250967Y-86814533D01*
X126246024Y-86809079D01*
X126241640Y-86803168D01*
X126237856Y-86796855D01*
X126234709Y-86790201D01*
X126232229Y-86783271D01*
X126230441Y-86776132D01*
X126229361Y-86768851D01*
X126229000Y-86761500D01*
X126229000Y-85436500D01*
X126229361Y-85429149D01*
X126230441Y-85421868D01*
X126232229Y-85414729D01*
X126234709Y-85407799D01*
X126237856Y-85401145D01*
X126241640Y-85394832D01*
X126246024Y-85388921D01*
X126250967Y-85383467D01*
X126256421Y-85378524D01*
X126262332Y-85374140D01*
X126268645Y-85370356D01*
X126275299Y-85367209D01*
X126282229Y-85364729D01*
X126289368Y-85362941D01*
X126296649Y-85361861D01*
X126304000Y-85361500D01*
X126454000Y-85361500D01*
X126461351Y-85361861D01*
X126461351Y-85361861D01*
G37*
D21*
X126379000Y-86099000D03*
D20*
G36*
X126961351Y-85361861D02*
G01*
X126968632Y-85362941D01*
X126975771Y-85364729D01*
X126982701Y-85367209D01*
X126989355Y-85370356D01*
X126995668Y-85374140D01*
X127001579Y-85378524D01*
X127007033Y-85383467D01*
X127011976Y-85388921D01*
X127016360Y-85394832D01*
X127020144Y-85401145D01*
X127023291Y-85407799D01*
X127025771Y-85414729D01*
X127027559Y-85421868D01*
X127028639Y-85429149D01*
X127029000Y-85436500D01*
X127029000Y-86761500D01*
X127028639Y-86768851D01*
X127027559Y-86776132D01*
X127025771Y-86783271D01*
X127023291Y-86790201D01*
X127020144Y-86796855D01*
X127016360Y-86803168D01*
X127011976Y-86809079D01*
X127007033Y-86814533D01*
X127001579Y-86819476D01*
X126995668Y-86823860D01*
X126989355Y-86827644D01*
X126982701Y-86830791D01*
X126975771Y-86833271D01*
X126968632Y-86835059D01*
X126961351Y-86836139D01*
X126954000Y-86836500D01*
X126804000Y-86836500D01*
X126796649Y-86836139D01*
X126789368Y-86835059D01*
X126782229Y-86833271D01*
X126775299Y-86830791D01*
X126768645Y-86827644D01*
X126762332Y-86823860D01*
X126756421Y-86819476D01*
X126750967Y-86814533D01*
X126746024Y-86809079D01*
X126741640Y-86803168D01*
X126737856Y-86796855D01*
X126734709Y-86790201D01*
X126732229Y-86783271D01*
X126730441Y-86776132D01*
X126729361Y-86768851D01*
X126729000Y-86761500D01*
X126729000Y-85436500D01*
X126729361Y-85429149D01*
X126730441Y-85421868D01*
X126732229Y-85414729D01*
X126734709Y-85407799D01*
X126737856Y-85401145D01*
X126741640Y-85394832D01*
X126746024Y-85388921D01*
X126750967Y-85383467D01*
X126756421Y-85378524D01*
X126762332Y-85374140D01*
X126768645Y-85370356D01*
X126775299Y-85367209D01*
X126782229Y-85364729D01*
X126789368Y-85362941D01*
X126796649Y-85361861D01*
X126804000Y-85361500D01*
X126954000Y-85361500D01*
X126961351Y-85361861D01*
X126961351Y-85361861D01*
G37*
D21*
X126879000Y-86099000D03*
D20*
G36*
X127461351Y-85361861D02*
G01*
X127468632Y-85362941D01*
X127475771Y-85364729D01*
X127482701Y-85367209D01*
X127489355Y-85370356D01*
X127495668Y-85374140D01*
X127501579Y-85378524D01*
X127507033Y-85383467D01*
X127511976Y-85388921D01*
X127516360Y-85394832D01*
X127520144Y-85401145D01*
X127523291Y-85407799D01*
X127525771Y-85414729D01*
X127527559Y-85421868D01*
X127528639Y-85429149D01*
X127529000Y-85436500D01*
X127529000Y-86761500D01*
X127528639Y-86768851D01*
X127527559Y-86776132D01*
X127525771Y-86783271D01*
X127523291Y-86790201D01*
X127520144Y-86796855D01*
X127516360Y-86803168D01*
X127511976Y-86809079D01*
X127507033Y-86814533D01*
X127501579Y-86819476D01*
X127495668Y-86823860D01*
X127489355Y-86827644D01*
X127482701Y-86830791D01*
X127475771Y-86833271D01*
X127468632Y-86835059D01*
X127461351Y-86836139D01*
X127454000Y-86836500D01*
X127304000Y-86836500D01*
X127296649Y-86836139D01*
X127289368Y-86835059D01*
X127282229Y-86833271D01*
X127275299Y-86830791D01*
X127268645Y-86827644D01*
X127262332Y-86823860D01*
X127256421Y-86819476D01*
X127250967Y-86814533D01*
X127246024Y-86809079D01*
X127241640Y-86803168D01*
X127237856Y-86796855D01*
X127234709Y-86790201D01*
X127232229Y-86783271D01*
X127230441Y-86776132D01*
X127229361Y-86768851D01*
X127229000Y-86761500D01*
X127229000Y-85436500D01*
X127229361Y-85429149D01*
X127230441Y-85421868D01*
X127232229Y-85414729D01*
X127234709Y-85407799D01*
X127237856Y-85401145D01*
X127241640Y-85394832D01*
X127246024Y-85388921D01*
X127250967Y-85383467D01*
X127256421Y-85378524D01*
X127262332Y-85374140D01*
X127268645Y-85370356D01*
X127275299Y-85367209D01*
X127282229Y-85364729D01*
X127289368Y-85362941D01*
X127296649Y-85361861D01*
X127304000Y-85361500D01*
X127454000Y-85361500D01*
X127461351Y-85361861D01*
X127461351Y-85361861D01*
G37*
D21*
X127379000Y-86099000D03*
D20*
G36*
X127961351Y-85361861D02*
G01*
X127968632Y-85362941D01*
X127975771Y-85364729D01*
X127982701Y-85367209D01*
X127989355Y-85370356D01*
X127995668Y-85374140D01*
X128001579Y-85378524D01*
X128007033Y-85383467D01*
X128011976Y-85388921D01*
X128016360Y-85394832D01*
X128020144Y-85401145D01*
X128023291Y-85407799D01*
X128025771Y-85414729D01*
X128027559Y-85421868D01*
X128028639Y-85429149D01*
X128029000Y-85436500D01*
X128029000Y-86761500D01*
X128028639Y-86768851D01*
X128027559Y-86776132D01*
X128025771Y-86783271D01*
X128023291Y-86790201D01*
X128020144Y-86796855D01*
X128016360Y-86803168D01*
X128011976Y-86809079D01*
X128007033Y-86814533D01*
X128001579Y-86819476D01*
X127995668Y-86823860D01*
X127989355Y-86827644D01*
X127982701Y-86830791D01*
X127975771Y-86833271D01*
X127968632Y-86835059D01*
X127961351Y-86836139D01*
X127954000Y-86836500D01*
X127804000Y-86836500D01*
X127796649Y-86836139D01*
X127789368Y-86835059D01*
X127782229Y-86833271D01*
X127775299Y-86830791D01*
X127768645Y-86827644D01*
X127762332Y-86823860D01*
X127756421Y-86819476D01*
X127750967Y-86814533D01*
X127746024Y-86809079D01*
X127741640Y-86803168D01*
X127737856Y-86796855D01*
X127734709Y-86790201D01*
X127732229Y-86783271D01*
X127730441Y-86776132D01*
X127729361Y-86768851D01*
X127729000Y-86761500D01*
X127729000Y-85436500D01*
X127729361Y-85429149D01*
X127730441Y-85421868D01*
X127732229Y-85414729D01*
X127734709Y-85407799D01*
X127737856Y-85401145D01*
X127741640Y-85394832D01*
X127746024Y-85388921D01*
X127750967Y-85383467D01*
X127756421Y-85378524D01*
X127762332Y-85374140D01*
X127768645Y-85370356D01*
X127775299Y-85367209D01*
X127782229Y-85364729D01*
X127789368Y-85362941D01*
X127796649Y-85361861D01*
X127804000Y-85361500D01*
X127954000Y-85361500D01*
X127961351Y-85361861D01*
X127961351Y-85361861D01*
G37*
D21*
X127879000Y-86099000D03*
D20*
G36*
X128461351Y-85361861D02*
G01*
X128468632Y-85362941D01*
X128475771Y-85364729D01*
X128482701Y-85367209D01*
X128489355Y-85370356D01*
X128495668Y-85374140D01*
X128501579Y-85378524D01*
X128507033Y-85383467D01*
X128511976Y-85388921D01*
X128516360Y-85394832D01*
X128520144Y-85401145D01*
X128523291Y-85407799D01*
X128525771Y-85414729D01*
X128527559Y-85421868D01*
X128528639Y-85429149D01*
X128529000Y-85436500D01*
X128529000Y-86761500D01*
X128528639Y-86768851D01*
X128527559Y-86776132D01*
X128525771Y-86783271D01*
X128523291Y-86790201D01*
X128520144Y-86796855D01*
X128516360Y-86803168D01*
X128511976Y-86809079D01*
X128507033Y-86814533D01*
X128501579Y-86819476D01*
X128495668Y-86823860D01*
X128489355Y-86827644D01*
X128482701Y-86830791D01*
X128475771Y-86833271D01*
X128468632Y-86835059D01*
X128461351Y-86836139D01*
X128454000Y-86836500D01*
X128304000Y-86836500D01*
X128296649Y-86836139D01*
X128289368Y-86835059D01*
X128282229Y-86833271D01*
X128275299Y-86830791D01*
X128268645Y-86827644D01*
X128262332Y-86823860D01*
X128256421Y-86819476D01*
X128250967Y-86814533D01*
X128246024Y-86809079D01*
X128241640Y-86803168D01*
X128237856Y-86796855D01*
X128234709Y-86790201D01*
X128232229Y-86783271D01*
X128230441Y-86776132D01*
X128229361Y-86768851D01*
X128229000Y-86761500D01*
X128229000Y-85436500D01*
X128229361Y-85429149D01*
X128230441Y-85421868D01*
X128232229Y-85414729D01*
X128234709Y-85407799D01*
X128237856Y-85401145D01*
X128241640Y-85394832D01*
X128246024Y-85388921D01*
X128250967Y-85383467D01*
X128256421Y-85378524D01*
X128262332Y-85374140D01*
X128268645Y-85370356D01*
X128275299Y-85367209D01*
X128282229Y-85364729D01*
X128289368Y-85362941D01*
X128296649Y-85361861D01*
X128304000Y-85361500D01*
X128454000Y-85361500D01*
X128461351Y-85361861D01*
X128461351Y-85361861D01*
G37*
D21*
X128379000Y-86099000D03*
D20*
G36*
X130461351Y-84536861D02*
G01*
X130468632Y-84537941D01*
X130475771Y-84539729D01*
X130482701Y-84542209D01*
X130489355Y-84545356D01*
X130495668Y-84549140D01*
X130501579Y-84553524D01*
X130507033Y-84558467D01*
X130511976Y-84563921D01*
X130516360Y-84569832D01*
X130520144Y-84576145D01*
X130523291Y-84582799D01*
X130525771Y-84589729D01*
X130527559Y-84596868D01*
X130528639Y-84604149D01*
X130529000Y-84611500D01*
X130529000Y-84761500D01*
X130528639Y-84768851D01*
X130527559Y-84776132D01*
X130525771Y-84783271D01*
X130523291Y-84790201D01*
X130520144Y-84796855D01*
X130516360Y-84803168D01*
X130511976Y-84809079D01*
X130507033Y-84814533D01*
X130501579Y-84819476D01*
X130495668Y-84823860D01*
X130489355Y-84827644D01*
X130482701Y-84830791D01*
X130475771Y-84833271D01*
X130468632Y-84835059D01*
X130461351Y-84836139D01*
X130454000Y-84836500D01*
X129129000Y-84836500D01*
X129121649Y-84836139D01*
X129114368Y-84835059D01*
X129107229Y-84833271D01*
X129100299Y-84830791D01*
X129093645Y-84827644D01*
X129087332Y-84823860D01*
X129081421Y-84819476D01*
X129075967Y-84814533D01*
X129071024Y-84809079D01*
X129066640Y-84803168D01*
X129062856Y-84796855D01*
X129059709Y-84790201D01*
X129057229Y-84783271D01*
X129055441Y-84776132D01*
X129054361Y-84768851D01*
X129054000Y-84761500D01*
X129054000Y-84611500D01*
X129054361Y-84604149D01*
X129055441Y-84596868D01*
X129057229Y-84589729D01*
X129059709Y-84582799D01*
X129062856Y-84576145D01*
X129066640Y-84569832D01*
X129071024Y-84563921D01*
X129075967Y-84558467D01*
X129081421Y-84553524D01*
X129087332Y-84549140D01*
X129093645Y-84545356D01*
X129100299Y-84542209D01*
X129107229Y-84539729D01*
X129114368Y-84537941D01*
X129121649Y-84536861D01*
X129129000Y-84536500D01*
X130454000Y-84536500D01*
X130461351Y-84536861D01*
X130461351Y-84536861D01*
G37*
D21*
X129791500Y-84686500D03*
D20*
G36*
X130461351Y-84036861D02*
G01*
X130468632Y-84037941D01*
X130475771Y-84039729D01*
X130482701Y-84042209D01*
X130489355Y-84045356D01*
X130495668Y-84049140D01*
X130501579Y-84053524D01*
X130507033Y-84058467D01*
X130511976Y-84063921D01*
X130516360Y-84069832D01*
X130520144Y-84076145D01*
X130523291Y-84082799D01*
X130525771Y-84089729D01*
X130527559Y-84096868D01*
X130528639Y-84104149D01*
X130529000Y-84111500D01*
X130529000Y-84261500D01*
X130528639Y-84268851D01*
X130527559Y-84276132D01*
X130525771Y-84283271D01*
X130523291Y-84290201D01*
X130520144Y-84296855D01*
X130516360Y-84303168D01*
X130511976Y-84309079D01*
X130507033Y-84314533D01*
X130501579Y-84319476D01*
X130495668Y-84323860D01*
X130489355Y-84327644D01*
X130482701Y-84330791D01*
X130475771Y-84333271D01*
X130468632Y-84335059D01*
X130461351Y-84336139D01*
X130454000Y-84336500D01*
X129129000Y-84336500D01*
X129121649Y-84336139D01*
X129114368Y-84335059D01*
X129107229Y-84333271D01*
X129100299Y-84330791D01*
X129093645Y-84327644D01*
X129087332Y-84323860D01*
X129081421Y-84319476D01*
X129075967Y-84314533D01*
X129071024Y-84309079D01*
X129066640Y-84303168D01*
X129062856Y-84296855D01*
X129059709Y-84290201D01*
X129057229Y-84283271D01*
X129055441Y-84276132D01*
X129054361Y-84268851D01*
X129054000Y-84261500D01*
X129054000Y-84111500D01*
X129054361Y-84104149D01*
X129055441Y-84096868D01*
X129057229Y-84089729D01*
X129059709Y-84082799D01*
X129062856Y-84076145D01*
X129066640Y-84069832D01*
X129071024Y-84063921D01*
X129075967Y-84058467D01*
X129081421Y-84053524D01*
X129087332Y-84049140D01*
X129093645Y-84045356D01*
X129100299Y-84042209D01*
X129107229Y-84039729D01*
X129114368Y-84037941D01*
X129121649Y-84036861D01*
X129129000Y-84036500D01*
X130454000Y-84036500D01*
X130461351Y-84036861D01*
X130461351Y-84036861D01*
G37*
D21*
X129791500Y-84186500D03*
D20*
G36*
X130461351Y-83536861D02*
G01*
X130468632Y-83537941D01*
X130475771Y-83539729D01*
X130482701Y-83542209D01*
X130489355Y-83545356D01*
X130495668Y-83549140D01*
X130501579Y-83553524D01*
X130507033Y-83558467D01*
X130511976Y-83563921D01*
X130516360Y-83569832D01*
X130520144Y-83576145D01*
X130523291Y-83582799D01*
X130525771Y-83589729D01*
X130527559Y-83596868D01*
X130528639Y-83604149D01*
X130529000Y-83611500D01*
X130529000Y-83761500D01*
X130528639Y-83768851D01*
X130527559Y-83776132D01*
X130525771Y-83783271D01*
X130523291Y-83790201D01*
X130520144Y-83796855D01*
X130516360Y-83803168D01*
X130511976Y-83809079D01*
X130507033Y-83814533D01*
X130501579Y-83819476D01*
X130495668Y-83823860D01*
X130489355Y-83827644D01*
X130482701Y-83830791D01*
X130475771Y-83833271D01*
X130468632Y-83835059D01*
X130461351Y-83836139D01*
X130454000Y-83836500D01*
X129129000Y-83836500D01*
X129121649Y-83836139D01*
X129114368Y-83835059D01*
X129107229Y-83833271D01*
X129100299Y-83830791D01*
X129093645Y-83827644D01*
X129087332Y-83823860D01*
X129081421Y-83819476D01*
X129075967Y-83814533D01*
X129071024Y-83809079D01*
X129066640Y-83803168D01*
X129062856Y-83796855D01*
X129059709Y-83790201D01*
X129057229Y-83783271D01*
X129055441Y-83776132D01*
X129054361Y-83768851D01*
X129054000Y-83761500D01*
X129054000Y-83611500D01*
X129054361Y-83604149D01*
X129055441Y-83596868D01*
X129057229Y-83589729D01*
X129059709Y-83582799D01*
X129062856Y-83576145D01*
X129066640Y-83569832D01*
X129071024Y-83563921D01*
X129075967Y-83558467D01*
X129081421Y-83553524D01*
X129087332Y-83549140D01*
X129093645Y-83545356D01*
X129100299Y-83542209D01*
X129107229Y-83539729D01*
X129114368Y-83537941D01*
X129121649Y-83536861D01*
X129129000Y-83536500D01*
X130454000Y-83536500D01*
X130461351Y-83536861D01*
X130461351Y-83536861D01*
G37*
D21*
X129791500Y-83686500D03*
D20*
G36*
X130461351Y-83036861D02*
G01*
X130468632Y-83037941D01*
X130475771Y-83039729D01*
X130482701Y-83042209D01*
X130489355Y-83045356D01*
X130495668Y-83049140D01*
X130501579Y-83053524D01*
X130507033Y-83058467D01*
X130511976Y-83063921D01*
X130516360Y-83069832D01*
X130520144Y-83076145D01*
X130523291Y-83082799D01*
X130525771Y-83089729D01*
X130527559Y-83096868D01*
X130528639Y-83104149D01*
X130529000Y-83111500D01*
X130529000Y-83261500D01*
X130528639Y-83268851D01*
X130527559Y-83276132D01*
X130525771Y-83283271D01*
X130523291Y-83290201D01*
X130520144Y-83296855D01*
X130516360Y-83303168D01*
X130511976Y-83309079D01*
X130507033Y-83314533D01*
X130501579Y-83319476D01*
X130495668Y-83323860D01*
X130489355Y-83327644D01*
X130482701Y-83330791D01*
X130475771Y-83333271D01*
X130468632Y-83335059D01*
X130461351Y-83336139D01*
X130454000Y-83336500D01*
X129129000Y-83336500D01*
X129121649Y-83336139D01*
X129114368Y-83335059D01*
X129107229Y-83333271D01*
X129100299Y-83330791D01*
X129093645Y-83327644D01*
X129087332Y-83323860D01*
X129081421Y-83319476D01*
X129075967Y-83314533D01*
X129071024Y-83309079D01*
X129066640Y-83303168D01*
X129062856Y-83296855D01*
X129059709Y-83290201D01*
X129057229Y-83283271D01*
X129055441Y-83276132D01*
X129054361Y-83268851D01*
X129054000Y-83261500D01*
X129054000Y-83111500D01*
X129054361Y-83104149D01*
X129055441Y-83096868D01*
X129057229Y-83089729D01*
X129059709Y-83082799D01*
X129062856Y-83076145D01*
X129066640Y-83069832D01*
X129071024Y-83063921D01*
X129075967Y-83058467D01*
X129081421Y-83053524D01*
X129087332Y-83049140D01*
X129093645Y-83045356D01*
X129100299Y-83042209D01*
X129107229Y-83039729D01*
X129114368Y-83037941D01*
X129121649Y-83036861D01*
X129129000Y-83036500D01*
X130454000Y-83036500D01*
X130461351Y-83036861D01*
X130461351Y-83036861D01*
G37*
D21*
X129791500Y-83186500D03*
D20*
G36*
X130461351Y-82536861D02*
G01*
X130468632Y-82537941D01*
X130475771Y-82539729D01*
X130482701Y-82542209D01*
X130489355Y-82545356D01*
X130495668Y-82549140D01*
X130501579Y-82553524D01*
X130507033Y-82558467D01*
X130511976Y-82563921D01*
X130516360Y-82569832D01*
X130520144Y-82576145D01*
X130523291Y-82582799D01*
X130525771Y-82589729D01*
X130527559Y-82596868D01*
X130528639Y-82604149D01*
X130529000Y-82611500D01*
X130529000Y-82761500D01*
X130528639Y-82768851D01*
X130527559Y-82776132D01*
X130525771Y-82783271D01*
X130523291Y-82790201D01*
X130520144Y-82796855D01*
X130516360Y-82803168D01*
X130511976Y-82809079D01*
X130507033Y-82814533D01*
X130501579Y-82819476D01*
X130495668Y-82823860D01*
X130489355Y-82827644D01*
X130482701Y-82830791D01*
X130475771Y-82833271D01*
X130468632Y-82835059D01*
X130461351Y-82836139D01*
X130454000Y-82836500D01*
X129129000Y-82836500D01*
X129121649Y-82836139D01*
X129114368Y-82835059D01*
X129107229Y-82833271D01*
X129100299Y-82830791D01*
X129093645Y-82827644D01*
X129087332Y-82823860D01*
X129081421Y-82819476D01*
X129075967Y-82814533D01*
X129071024Y-82809079D01*
X129066640Y-82803168D01*
X129062856Y-82796855D01*
X129059709Y-82790201D01*
X129057229Y-82783271D01*
X129055441Y-82776132D01*
X129054361Y-82768851D01*
X129054000Y-82761500D01*
X129054000Y-82611500D01*
X129054361Y-82604149D01*
X129055441Y-82596868D01*
X129057229Y-82589729D01*
X129059709Y-82582799D01*
X129062856Y-82576145D01*
X129066640Y-82569832D01*
X129071024Y-82563921D01*
X129075967Y-82558467D01*
X129081421Y-82553524D01*
X129087332Y-82549140D01*
X129093645Y-82545356D01*
X129100299Y-82542209D01*
X129107229Y-82539729D01*
X129114368Y-82537941D01*
X129121649Y-82536861D01*
X129129000Y-82536500D01*
X130454000Y-82536500D01*
X130461351Y-82536861D01*
X130461351Y-82536861D01*
G37*
D21*
X129791500Y-82686500D03*
D20*
G36*
X130461351Y-82036861D02*
G01*
X130468632Y-82037941D01*
X130475771Y-82039729D01*
X130482701Y-82042209D01*
X130489355Y-82045356D01*
X130495668Y-82049140D01*
X130501579Y-82053524D01*
X130507033Y-82058467D01*
X130511976Y-82063921D01*
X130516360Y-82069832D01*
X130520144Y-82076145D01*
X130523291Y-82082799D01*
X130525771Y-82089729D01*
X130527559Y-82096868D01*
X130528639Y-82104149D01*
X130529000Y-82111500D01*
X130529000Y-82261500D01*
X130528639Y-82268851D01*
X130527559Y-82276132D01*
X130525771Y-82283271D01*
X130523291Y-82290201D01*
X130520144Y-82296855D01*
X130516360Y-82303168D01*
X130511976Y-82309079D01*
X130507033Y-82314533D01*
X130501579Y-82319476D01*
X130495668Y-82323860D01*
X130489355Y-82327644D01*
X130482701Y-82330791D01*
X130475771Y-82333271D01*
X130468632Y-82335059D01*
X130461351Y-82336139D01*
X130454000Y-82336500D01*
X129129000Y-82336500D01*
X129121649Y-82336139D01*
X129114368Y-82335059D01*
X129107229Y-82333271D01*
X129100299Y-82330791D01*
X129093645Y-82327644D01*
X129087332Y-82323860D01*
X129081421Y-82319476D01*
X129075967Y-82314533D01*
X129071024Y-82309079D01*
X129066640Y-82303168D01*
X129062856Y-82296855D01*
X129059709Y-82290201D01*
X129057229Y-82283271D01*
X129055441Y-82276132D01*
X129054361Y-82268851D01*
X129054000Y-82261500D01*
X129054000Y-82111500D01*
X129054361Y-82104149D01*
X129055441Y-82096868D01*
X129057229Y-82089729D01*
X129059709Y-82082799D01*
X129062856Y-82076145D01*
X129066640Y-82069832D01*
X129071024Y-82063921D01*
X129075967Y-82058467D01*
X129081421Y-82053524D01*
X129087332Y-82049140D01*
X129093645Y-82045356D01*
X129100299Y-82042209D01*
X129107229Y-82039729D01*
X129114368Y-82037941D01*
X129121649Y-82036861D01*
X129129000Y-82036500D01*
X130454000Y-82036500D01*
X130461351Y-82036861D01*
X130461351Y-82036861D01*
G37*
D21*
X129791500Y-82186500D03*
D20*
G36*
X130461351Y-81536861D02*
G01*
X130468632Y-81537941D01*
X130475771Y-81539729D01*
X130482701Y-81542209D01*
X130489355Y-81545356D01*
X130495668Y-81549140D01*
X130501579Y-81553524D01*
X130507033Y-81558467D01*
X130511976Y-81563921D01*
X130516360Y-81569832D01*
X130520144Y-81576145D01*
X130523291Y-81582799D01*
X130525771Y-81589729D01*
X130527559Y-81596868D01*
X130528639Y-81604149D01*
X130529000Y-81611500D01*
X130529000Y-81761500D01*
X130528639Y-81768851D01*
X130527559Y-81776132D01*
X130525771Y-81783271D01*
X130523291Y-81790201D01*
X130520144Y-81796855D01*
X130516360Y-81803168D01*
X130511976Y-81809079D01*
X130507033Y-81814533D01*
X130501579Y-81819476D01*
X130495668Y-81823860D01*
X130489355Y-81827644D01*
X130482701Y-81830791D01*
X130475771Y-81833271D01*
X130468632Y-81835059D01*
X130461351Y-81836139D01*
X130454000Y-81836500D01*
X129129000Y-81836500D01*
X129121649Y-81836139D01*
X129114368Y-81835059D01*
X129107229Y-81833271D01*
X129100299Y-81830791D01*
X129093645Y-81827644D01*
X129087332Y-81823860D01*
X129081421Y-81819476D01*
X129075967Y-81814533D01*
X129071024Y-81809079D01*
X129066640Y-81803168D01*
X129062856Y-81796855D01*
X129059709Y-81790201D01*
X129057229Y-81783271D01*
X129055441Y-81776132D01*
X129054361Y-81768851D01*
X129054000Y-81761500D01*
X129054000Y-81611500D01*
X129054361Y-81604149D01*
X129055441Y-81596868D01*
X129057229Y-81589729D01*
X129059709Y-81582799D01*
X129062856Y-81576145D01*
X129066640Y-81569832D01*
X129071024Y-81563921D01*
X129075967Y-81558467D01*
X129081421Y-81553524D01*
X129087332Y-81549140D01*
X129093645Y-81545356D01*
X129100299Y-81542209D01*
X129107229Y-81539729D01*
X129114368Y-81537941D01*
X129121649Y-81536861D01*
X129129000Y-81536500D01*
X130454000Y-81536500D01*
X130461351Y-81536861D01*
X130461351Y-81536861D01*
G37*
D21*
X129791500Y-81686500D03*
D20*
G36*
X130461351Y-81036861D02*
G01*
X130468632Y-81037941D01*
X130475771Y-81039729D01*
X130482701Y-81042209D01*
X130489355Y-81045356D01*
X130495668Y-81049140D01*
X130501579Y-81053524D01*
X130507033Y-81058467D01*
X130511976Y-81063921D01*
X130516360Y-81069832D01*
X130520144Y-81076145D01*
X130523291Y-81082799D01*
X130525771Y-81089729D01*
X130527559Y-81096868D01*
X130528639Y-81104149D01*
X130529000Y-81111500D01*
X130529000Y-81261500D01*
X130528639Y-81268851D01*
X130527559Y-81276132D01*
X130525771Y-81283271D01*
X130523291Y-81290201D01*
X130520144Y-81296855D01*
X130516360Y-81303168D01*
X130511976Y-81309079D01*
X130507033Y-81314533D01*
X130501579Y-81319476D01*
X130495668Y-81323860D01*
X130489355Y-81327644D01*
X130482701Y-81330791D01*
X130475771Y-81333271D01*
X130468632Y-81335059D01*
X130461351Y-81336139D01*
X130454000Y-81336500D01*
X129129000Y-81336500D01*
X129121649Y-81336139D01*
X129114368Y-81335059D01*
X129107229Y-81333271D01*
X129100299Y-81330791D01*
X129093645Y-81327644D01*
X129087332Y-81323860D01*
X129081421Y-81319476D01*
X129075967Y-81314533D01*
X129071024Y-81309079D01*
X129066640Y-81303168D01*
X129062856Y-81296855D01*
X129059709Y-81290201D01*
X129057229Y-81283271D01*
X129055441Y-81276132D01*
X129054361Y-81268851D01*
X129054000Y-81261500D01*
X129054000Y-81111500D01*
X129054361Y-81104149D01*
X129055441Y-81096868D01*
X129057229Y-81089729D01*
X129059709Y-81082799D01*
X129062856Y-81076145D01*
X129066640Y-81069832D01*
X129071024Y-81063921D01*
X129075967Y-81058467D01*
X129081421Y-81053524D01*
X129087332Y-81049140D01*
X129093645Y-81045356D01*
X129100299Y-81042209D01*
X129107229Y-81039729D01*
X129114368Y-81037941D01*
X129121649Y-81036861D01*
X129129000Y-81036500D01*
X130454000Y-81036500D01*
X130461351Y-81036861D01*
X130461351Y-81036861D01*
G37*
D21*
X129791500Y-81186500D03*
D20*
G36*
X130461351Y-80536861D02*
G01*
X130468632Y-80537941D01*
X130475771Y-80539729D01*
X130482701Y-80542209D01*
X130489355Y-80545356D01*
X130495668Y-80549140D01*
X130501579Y-80553524D01*
X130507033Y-80558467D01*
X130511976Y-80563921D01*
X130516360Y-80569832D01*
X130520144Y-80576145D01*
X130523291Y-80582799D01*
X130525771Y-80589729D01*
X130527559Y-80596868D01*
X130528639Y-80604149D01*
X130529000Y-80611500D01*
X130529000Y-80761500D01*
X130528639Y-80768851D01*
X130527559Y-80776132D01*
X130525771Y-80783271D01*
X130523291Y-80790201D01*
X130520144Y-80796855D01*
X130516360Y-80803168D01*
X130511976Y-80809079D01*
X130507033Y-80814533D01*
X130501579Y-80819476D01*
X130495668Y-80823860D01*
X130489355Y-80827644D01*
X130482701Y-80830791D01*
X130475771Y-80833271D01*
X130468632Y-80835059D01*
X130461351Y-80836139D01*
X130454000Y-80836500D01*
X129129000Y-80836500D01*
X129121649Y-80836139D01*
X129114368Y-80835059D01*
X129107229Y-80833271D01*
X129100299Y-80830791D01*
X129093645Y-80827644D01*
X129087332Y-80823860D01*
X129081421Y-80819476D01*
X129075967Y-80814533D01*
X129071024Y-80809079D01*
X129066640Y-80803168D01*
X129062856Y-80796855D01*
X129059709Y-80790201D01*
X129057229Y-80783271D01*
X129055441Y-80776132D01*
X129054361Y-80768851D01*
X129054000Y-80761500D01*
X129054000Y-80611500D01*
X129054361Y-80604149D01*
X129055441Y-80596868D01*
X129057229Y-80589729D01*
X129059709Y-80582799D01*
X129062856Y-80576145D01*
X129066640Y-80569832D01*
X129071024Y-80563921D01*
X129075967Y-80558467D01*
X129081421Y-80553524D01*
X129087332Y-80549140D01*
X129093645Y-80545356D01*
X129100299Y-80542209D01*
X129107229Y-80539729D01*
X129114368Y-80537941D01*
X129121649Y-80536861D01*
X129129000Y-80536500D01*
X130454000Y-80536500D01*
X130461351Y-80536861D01*
X130461351Y-80536861D01*
G37*
D21*
X129791500Y-80686500D03*
D20*
G36*
X130461351Y-80036861D02*
G01*
X130468632Y-80037941D01*
X130475771Y-80039729D01*
X130482701Y-80042209D01*
X130489355Y-80045356D01*
X130495668Y-80049140D01*
X130501579Y-80053524D01*
X130507033Y-80058467D01*
X130511976Y-80063921D01*
X130516360Y-80069832D01*
X130520144Y-80076145D01*
X130523291Y-80082799D01*
X130525771Y-80089729D01*
X130527559Y-80096868D01*
X130528639Y-80104149D01*
X130529000Y-80111500D01*
X130529000Y-80261500D01*
X130528639Y-80268851D01*
X130527559Y-80276132D01*
X130525771Y-80283271D01*
X130523291Y-80290201D01*
X130520144Y-80296855D01*
X130516360Y-80303168D01*
X130511976Y-80309079D01*
X130507033Y-80314533D01*
X130501579Y-80319476D01*
X130495668Y-80323860D01*
X130489355Y-80327644D01*
X130482701Y-80330791D01*
X130475771Y-80333271D01*
X130468632Y-80335059D01*
X130461351Y-80336139D01*
X130454000Y-80336500D01*
X129129000Y-80336500D01*
X129121649Y-80336139D01*
X129114368Y-80335059D01*
X129107229Y-80333271D01*
X129100299Y-80330791D01*
X129093645Y-80327644D01*
X129087332Y-80323860D01*
X129081421Y-80319476D01*
X129075967Y-80314533D01*
X129071024Y-80309079D01*
X129066640Y-80303168D01*
X129062856Y-80296855D01*
X129059709Y-80290201D01*
X129057229Y-80283271D01*
X129055441Y-80276132D01*
X129054361Y-80268851D01*
X129054000Y-80261500D01*
X129054000Y-80111500D01*
X129054361Y-80104149D01*
X129055441Y-80096868D01*
X129057229Y-80089729D01*
X129059709Y-80082799D01*
X129062856Y-80076145D01*
X129066640Y-80069832D01*
X129071024Y-80063921D01*
X129075967Y-80058467D01*
X129081421Y-80053524D01*
X129087332Y-80049140D01*
X129093645Y-80045356D01*
X129100299Y-80042209D01*
X129107229Y-80039729D01*
X129114368Y-80037941D01*
X129121649Y-80036861D01*
X129129000Y-80036500D01*
X130454000Y-80036500D01*
X130461351Y-80036861D01*
X130461351Y-80036861D01*
G37*
D21*
X129791500Y-80186500D03*
D20*
G36*
X130461351Y-79536861D02*
G01*
X130468632Y-79537941D01*
X130475771Y-79539729D01*
X130482701Y-79542209D01*
X130489355Y-79545356D01*
X130495668Y-79549140D01*
X130501579Y-79553524D01*
X130507033Y-79558467D01*
X130511976Y-79563921D01*
X130516360Y-79569832D01*
X130520144Y-79576145D01*
X130523291Y-79582799D01*
X130525771Y-79589729D01*
X130527559Y-79596868D01*
X130528639Y-79604149D01*
X130529000Y-79611500D01*
X130529000Y-79761500D01*
X130528639Y-79768851D01*
X130527559Y-79776132D01*
X130525771Y-79783271D01*
X130523291Y-79790201D01*
X130520144Y-79796855D01*
X130516360Y-79803168D01*
X130511976Y-79809079D01*
X130507033Y-79814533D01*
X130501579Y-79819476D01*
X130495668Y-79823860D01*
X130489355Y-79827644D01*
X130482701Y-79830791D01*
X130475771Y-79833271D01*
X130468632Y-79835059D01*
X130461351Y-79836139D01*
X130454000Y-79836500D01*
X129129000Y-79836500D01*
X129121649Y-79836139D01*
X129114368Y-79835059D01*
X129107229Y-79833271D01*
X129100299Y-79830791D01*
X129093645Y-79827644D01*
X129087332Y-79823860D01*
X129081421Y-79819476D01*
X129075967Y-79814533D01*
X129071024Y-79809079D01*
X129066640Y-79803168D01*
X129062856Y-79796855D01*
X129059709Y-79790201D01*
X129057229Y-79783271D01*
X129055441Y-79776132D01*
X129054361Y-79768851D01*
X129054000Y-79761500D01*
X129054000Y-79611500D01*
X129054361Y-79604149D01*
X129055441Y-79596868D01*
X129057229Y-79589729D01*
X129059709Y-79582799D01*
X129062856Y-79576145D01*
X129066640Y-79569832D01*
X129071024Y-79563921D01*
X129075967Y-79558467D01*
X129081421Y-79553524D01*
X129087332Y-79549140D01*
X129093645Y-79545356D01*
X129100299Y-79542209D01*
X129107229Y-79539729D01*
X129114368Y-79537941D01*
X129121649Y-79536861D01*
X129129000Y-79536500D01*
X130454000Y-79536500D01*
X130461351Y-79536861D01*
X130461351Y-79536861D01*
G37*
D21*
X129791500Y-79686500D03*
D20*
G36*
X130461351Y-79036861D02*
G01*
X130468632Y-79037941D01*
X130475771Y-79039729D01*
X130482701Y-79042209D01*
X130489355Y-79045356D01*
X130495668Y-79049140D01*
X130501579Y-79053524D01*
X130507033Y-79058467D01*
X130511976Y-79063921D01*
X130516360Y-79069832D01*
X130520144Y-79076145D01*
X130523291Y-79082799D01*
X130525771Y-79089729D01*
X130527559Y-79096868D01*
X130528639Y-79104149D01*
X130529000Y-79111500D01*
X130529000Y-79261500D01*
X130528639Y-79268851D01*
X130527559Y-79276132D01*
X130525771Y-79283271D01*
X130523291Y-79290201D01*
X130520144Y-79296855D01*
X130516360Y-79303168D01*
X130511976Y-79309079D01*
X130507033Y-79314533D01*
X130501579Y-79319476D01*
X130495668Y-79323860D01*
X130489355Y-79327644D01*
X130482701Y-79330791D01*
X130475771Y-79333271D01*
X130468632Y-79335059D01*
X130461351Y-79336139D01*
X130454000Y-79336500D01*
X129129000Y-79336500D01*
X129121649Y-79336139D01*
X129114368Y-79335059D01*
X129107229Y-79333271D01*
X129100299Y-79330791D01*
X129093645Y-79327644D01*
X129087332Y-79323860D01*
X129081421Y-79319476D01*
X129075967Y-79314533D01*
X129071024Y-79309079D01*
X129066640Y-79303168D01*
X129062856Y-79296855D01*
X129059709Y-79290201D01*
X129057229Y-79283271D01*
X129055441Y-79276132D01*
X129054361Y-79268851D01*
X129054000Y-79261500D01*
X129054000Y-79111500D01*
X129054361Y-79104149D01*
X129055441Y-79096868D01*
X129057229Y-79089729D01*
X129059709Y-79082799D01*
X129062856Y-79076145D01*
X129066640Y-79069832D01*
X129071024Y-79063921D01*
X129075967Y-79058467D01*
X129081421Y-79053524D01*
X129087332Y-79049140D01*
X129093645Y-79045356D01*
X129100299Y-79042209D01*
X129107229Y-79039729D01*
X129114368Y-79037941D01*
X129121649Y-79036861D01*
X129129000Y-79036500D01*
X130454000Y-79036500D01*
X130461351Y-79036861D01*
X130461351Y-79036861D01*
G37*
D21*
X129791500Y-79186500D03*
D20*
G36*
X128461351Y-77036861D02*
G01*
X128468632Y-77037941D01*
X128475771Y-77039729D01*
X128482701Y-77042209D01*
X128489355Y-77045356D01*
X128495668Y-77049140D01*
X128501579Y-77053524D01*
X128507033Y-77058467D01*
X128511976Y-77063921D01*
X128516360Y-77069832D01*
X128520144Y-77076145D01*
X128523291Y-77082799D01*
X128525771Y-77089729D01*
X128527559Y-77096868D01*
X128528639Y-77104149D01*
X128529000Y-77111500D01*
X128529000Y-78436500D01*
X128528639Y-78443851D01*
X128527559Y-78451132D01*
X128525771Y-78458271D01*
X128523291Y-78465201D01*
X128520144Y-78471855D01*
X128516360Y-78478168D01*
X128511976Y-78484079D01*
X128507033Y-78489533D01*
X128501579Y-78494476D01*
X128495668Y-78498860D01*
X128489355Y-78502644D01*
X128482701Y-78505791D01*
X128475771Y-78508271D01*
X128468632Y-78510059D01*
X128461351Y-78511139D01*
X128454000Y-78511500D01*
X128304000Y-78511500D01*
X128296649Y-78511139D01*
X128289368Y-78510059D01*
X128282229Y-78508271D01*
X128275299Y-78505791D01*
X128268645Y-78502644D01*
X128262332Y-78498860D01*
X128256421Y-78494476D01*
X128250967Y-78489533D01*
X128246024Y-78484079D01*
X128241640Y-78478168D01*
X128237856Y-78471855D01*
X128234709Y-78465201D01*
X128232229Y-78458271D01*
X128230441Y-78451132D01*
X128229361Y-78443851D01*
X128229000Y-78436500D01*
X128229000Y-77111500D01*
X128229361Y-77104149D01*
X128230441Y-77096868D01*
X128232229Y-77089729D01*
X128234709Y-77082799D01*
X128237856Y-77076145D01*
X128241640Y-77069832D01*
X128246024Y-77063921D01*
X128250967Y-77058467D01*
X128256421Y-77053524D01*
X128262332Y-77049140D01*
X128268645Y-77045356D01*
X128275299Y-77042209D01*
X128282229Y-77039729D01*
X128289368Y-77037941D01*
X128296649Y-77036861D01*
X128304000Y-77036500D01*
X128454000Y-77036500D01*
X128461351Y-77036861D01*
X128461351Y-77036861D01*
G37*
D21*
X128379000Y-77774000D03*
D20*
G36*
X127961351Y-77036861D02*
G01*
X127968632Y-77037941D01*
X127975771Y-77039729D01*
X127982701Y-77042209D01*
X127989355Y-77045356D01*
X127995668Y-77049140D01*
X128001579Y-77053524D01*
X128007033Y-77058467D01*
X128011976Y-77063921D01*
X128016360Y-77069832D01*
X128020144Y-77076145D01*
X128023291Y-77082799D01*
X128025771Y-77089729D01*
X128027559Y-77096868D01*
X128028639Y-77104149D01*
X128029000Y-77111500D01*
X128029000Y-78436500D01*
X128028639Y-78443851D01*
X128027559Y-78451132D01*
X128025771Y-78458271D01*
X128023291Y-78465201D01*
X128020144Y-78471855D01*
X128016360Y-78478168D01*
X128011976Y-78484079D01*
X128007033Y-78489533D01*
X128001579Y-78494476D01*
X127995668Y-78498860D01*
X127989355Y-78502644D01*
X127982701Y-78505791D01*
X127975771Y-78508271D01*
X127968632Y-78510059D01*
X127961351Y-78511139D01*
X127954000Y-78511500D01*
X127804000Y-78511500D01*
X127796649Y-78511139D01*
X127789368Y-78510059D01*
X127782229Y-78508271D01*
X127775299Y-78505791D01*
X127768645Y-78502644D01*
X127762332Y-78498860D01*
X127756421Y-78494476D01*
X127750967Y-78489533D01*
X127746024Y-78484079D01*
X127741640Y-78478168D01*
X127737856Y-78471855D01*
X127734709Y-78465201D01*
X127732229Y-78458271D01*
X127730441Y-78451132D01*
X127729361Y-78443851D01*
X127729000Y-78436500D01*
X127729000Y-77111500D01*
X127729361Y-77104149D01*
X127730441Y-77096868D01*
X127732229Y-77089729D01*
X127734709Y-77082799D01*
X127737856Y-77076145D01*
X127741640Y-77069832D01*
X127746024Y-77063921D01*
X127750967Y-77058467D01*
X127756421Y-77053524D01*
X127762332Y-77049140D01*
X127768645Y-77045356D01*
X127775299Y-77042209D01*
X127782229Y-77039729D01*
X127789368Y-77037941D01*
X127796649Y-77036861D01*
X127804000Y-77036500D01*
X127954000Y-77036500D01*
X127961351Y-77036861D01*
X127961351Y-77036861D01*
G37*
D21*
X127879000Y-77774000D03*
D20*
G36*
X127461351Y-77036861D02*
G01*
X127468632Y-77037941D01*
X127475771Y-77039729D01*
X127482701Y-77042209D01*
X127489355Y-77045356D01*
X127495668Y-77049140D01*
X127501579Y-77053524D01*
X127507033Y-77058467D01*
X127511976Y-77063921D01*
X127516360Y-77069832D01*
X127520144Y-77076145D01*
X127523291Y-77082799D01*
X127525771Y-77089729D01*
X127527559Y-77096868D01*
X127528639Y-77104149D01*
X127529000Y-77111500D01*
X127529000Y-78436500D01*
X127528639Y-78443851D01*
X127527559Y-78451132D01*
X127525771Y-78458271D01*
X127523291Y-78465201D01*
X127520144Y-78471855D01*
X127516360Y-78478168D01*
X127511976Y-78484079D01*
X127507033Y-78489533D01*
X127501579Y-78494476D01*
X127495668Y-78498860D01*
X127489355Y-78502644D01*
X127482701Y-78505791D01*
X127475771Y-78508271D01*
X127468632Y-78510059D01*
X127461351Y-78511139D01*
X127454000Y-78511500D01*
X127304000Y-78511500D01*
X127296649Y-78511139D01*
X127289368Y-78510059D01*
X127282229Y-78508271D01*
X127275299Y-78505791D01*
X127268645Y-78502644D01*
X127262332Y-78498860D01*
X127256421Y-78494476D01*
X127250967Y-78489533D01*
X127246024Y-78484079D01*
X127241640Y-78478168D01*
X127237856Y-78471855D01*
X127234709Y-78465201D01*
X127232229Y-78458271D01*
X127230441Y-78451132D01*
X127229361Y-78443851D01*
X127229000Y-78436500D01*
X127229000Y-77111500D01*
X127229361Y-77104149D01*
X127230441Y-77096868D01*
X127232229Y-77089729D01*
X127234709Y-77082799D01*
X127237856Y-77076145D01*
X127241640Y-77069832D01*
X127246024Y-77063921D01*
X127250967Y-77058467D01*
X127256421Y-77053524D01*
X127262332Y-77049140D01*
X127268645Y-77045356D01*
X127275299Y-77042209D01*
X127282229Y-77039729D01*
X127289368Y-77037941D01*
X127296649Y-77036861D01*
X127304000Y-77036500D01*
X127454000Y-77036500D01*
X127461351Y-77036861D01*
X127461351Y-77036861D01*
G37*
D21*
X127379000Y-77774000D03*
D20*
G36*
X126961351Y-77036861D02*
G01*
X126968632Y-77037941D01*
X126975771Y-77039729D01*
X126982701Y-77042209D01*
X126989355Y-77045356D01*
X126995668Y-77049140D01*
X127001579Y-77053524D01*
X127007033Y-77058467D01*
X127011976Y-77063921D01*
X127016360Y-77069832D01*
X127020144Y-77076145D01*
X127023291Y-77082799D01*
X127025771Y-77089729D01*
X127027559Y-77096868D01*
X127028639Y-77104149D01*
X127029000Y-77111500D01*
X127029000Y-78436500D01*
X127028639Y-78443851D01*
X127027559Y-78451132D01*
X127025771Y-78458271D01*
X127023291Y-78465201D01*
X127020144Y-78471855D01*
X127016360Y-78478168D01*
X127011976Y-78484079D01*
X127007033Y-78489533D01*
X127001579Y-78494476D01*
X126995668Y-78498860D01*
X126989355Y-78502644D01*
X126982701Y-78505791D01*
X126975771Y-78508271D01*
X126968632Y-78510059D01*
X126961351Y-78511139D01*
X126954000Y-78511500D01*
X126804000Y-78511500D01*
X126796649Y-78511139D01*
X126789368Y-78510059D01*
X126782229Y-78508271D01*
X126775299Y-78505791D01*
X126768645Y-78502644D01*
X126762332Y-78498860D01*
X126756421Y-78494476D01*
X126750967Y-78489533D01*
X126746024Y-78484079D01*
X126741640Y-78478168D01*
X126737856Y-78471855D01*
X126734709Y-78465201D01*
X126732229Y-78458271D01*
X126730441Y-78451132D01*
X126729361Y-78443851D01*
X126729000Y-78436500D01*
X126729000Y-77111500D01*
X126729361Y-77104149D01*
X126730441Y-77096868D01*
X126732229Y-77089729D01*
X126734709Y-77082799D01*
X126737856Y-77076145D01*
X126741640Y-77069832D01*
X126746024Y-77063921D01*
X126750967Y-77058467D01*
X126756421Y-77053524D01*
X126762332Y-77049140D01*
X126768645Y-77045356D01*
X126775299Y-77042209D01*
X126782229Y-77039729D01*
X126789368Y-77037941D01*
X126796649Y-77036861D01*
X126804000Y-77036500D01*
X126954000Y-77036500D01*
X126961351Y-77036861D01*
X126961351Y-77036861D01*
G37*
D21*
X126879000Y-77774000D03*
D20*
G36*
X126461351Y-77036861D02*
G01*
X126468632Y-77037941D01*
X126475771Y-77039729D01*
X126482701Y-77042209D01*
X126489355Y-77045356D01*
X126495668Y-77049140D01*
X126501579Y-77053524D01*
X126507033Y-77058467D01*
X126511976Y-77063921D01*
X126516360Y-77069832D01*
X126520144Y-77076145D01*
X126523291Y-77082799D01*
X126525771Y-77089729D01*
X126527559Y-77096868D01*
X126528639Y-77104149D01*
X126529000Y-77111500D01*
X126529000Y-78436500D01*
X126528639Y-78443851D01*
X126527559Y-78451132D01*
X126525771Y-78458271D01*
X126523291Y-78465201D01*
X126520144Y-78471855D01*
X126516360Y-78478168D01*
X126511976Y-78484079D01*
X126507033Y-78489533D01*
X126501579Y-78494476D01*
X126495668Y-78498860D01*
X126489355Y-78502644D01*
X126482701Y-78505791D01*
X126475771Y-78508271D01*
X126468632Y-78510059D01*
X126461351Y-78511139D01*
X126454000Y-78511500D01*
X126304000Y-78511500D01*
X126296649Y-78511139D01*
X126289368Y-78510059D01*
X126282229Y-78508271D01*
X126275299Y-78505791D01*
X126268645Y-78502644D01*
X126262332Y-78498860D01*
X126256421Y-78494476D01*
X126250967Y-78489533D01*
X126246024Y-78484079D01*
X126241640Y-78478168D01*
X126237856Y-78471855D01*
X126234709Y-78465201D01*
X126232229Y-78458271D01*
X126230441Y-78451132D01*
X126229361Y-78443851D01*
X126229000Y-78436500D01*
X126229000Y-77111500D01*
X126229361Y-77104149D01*
X126230441Y-77096868D01*
X126232229Y-77089729D01*
X126234709Y-77082799D01*
X126237856Y-77076145D01*
X126241640Y-77069832D01*
X126246024Y-77063921D01*
X126250967Y-77058467D01*
X126256421Y-77053524D01*
X126262332Y-77049140D01*
X126268645Y-77045356D01*
X126275299Y-77042209D01*
X126282229Y-77039729D01*
X126289368Y-77037941D01*
X126296649Y-77036861D01*
X126304000Y-77036500D01*
X126454000Y-77036500D01*
X126461351Y-77036861D01*
X126461351Y-77036861D01*
G37*
D21*
X126379000Y-77774000D03*
D20*
G36*
X125961351Y-77036861D02*
G01*
X125968632Y-77037941D01*
X125975771Y-77039729D01*
X125982701Y-77042209D01*
X125989355Y-77045356D01*
X125995668Y-77049140D01*
X126001579Y-77053524D01*
X126007033Y-77058467D01*
X126011976Y-77063921D01*
X126016360Y-77069832D01*
X126020144Y-77076145D01*
X126023291Y-77082799D01*
X126025771Y-77089729D01*
X126027559Y-77096868D01*
X126028639Y-77104149D01*
X126029000Y-77111500D01*
X126029000Y-78436500D01*
X126028639Y-78443851D01*
X126027559Y-78451132D01*
X126025771Y-78458271D01*
X126023291Y-78465201D01*
X126020144Y-78471855D01*
X126016360Y-78478168D01*
X126011976Y-78484079D01*
X126007033Y-78489533D01*
X126001579Y-78494476D01*
X125995668Y-78498860D01*
X125989355Y-78502644D01*
X125982701Y-78505791D01*
X125975771Y-78508271D01*
X125968632Y-78510059D01*
X125961351Y-78511139D01*
X125954000Y-78511500D01*
X125804000Y-78511500D01*
X125796649Y-78511139D01*
X125789368Y-78510059D01*
X125782229Y-78508271D01*
X125775299Y-78505791D01*
X125768645Y-78502644D01*
X125762332Y-78498860D01*
X125756421Y-78494476D01*
X125750967Y-78489533D01*
X125746024Y-78484079D01*
X125741640Y-78478168D01*
X125737856Y-78471855D01*
X125734709Y-78465201D01*
X125732229Y-78458271D01*
X125730441Y-78451132D01*
X125729361Y-78443851D01*
X125729000Y-78436500D01*
X125729000Y-77111500D01*
X125729361Y-77104149D01*
X125730441Y-77096868D01*
X125732229Y-77089729D01*
X125734709Y-77082799D01*
X125737856Y-77076145D01*
X125741640Y-77069832D01*
X125746024Y-77063921D01*
X125750967Y-77058467D01*
X125756421Y-77053524D01*
X125762332Y-77049140D01*
X125768645Y-77045356D01*
X125775299Y-77042209D01*
X125782229Y-77039729D01*
X125789368Y-77037941D01*
X125796649Y-77036861D01*
X125804000Y-77036500D01*
X125954000Y-77036500D01*
X125961351Y-77036861D01*
X125961351Y-77036861D01*
G37*
D21*
X125879000Y-77774000D03*
D20*
G36*
X125461351Y-77036861D02*
G01*
X125468632Y-77037941D01*
X125475771Y-77039729D01*
X125482701Y-77042209D01*
X125489355Y-77045356D01*
X125495668Y-77049140D01*
X125501579Y-77053524D01*
X125507033Y-77058467D01*
X125511976Y-77063921D01*
X125516360Y-77069832D01*
X125520144Y-77076145D01*
X125523291Y-77082799D01*
X125525771Y-77089729D01*
X125527559Y-77096868D01*
X125528639Y-77104149D01*
X125529000Y-77111500D01*
X125529000Y-78436500D01*
X125528639Y-78443851D01*
X125527559Y-78451132D01*
X125525771Y-78458271D01*
X125523291Y-78465201D01*
X125520144Y-78471855D01*
X125516360Y-78478168D01*
X125511976Y-78484079D01*
X125507033Y-78489533D01*
X125501579Y-78494476D01*
X125495668Y-78498860D01*
X125489355Y-78502644D01*
X125482701Y-78505791D01*
X125475771Y-78508271D01*
X125468632Y-78510059D01*
X125461351Y-78511139D01*
X125454000Y-78511500D01*
X125304000Y-78511500D01*
X125296649Y-78511139D01*
X125289368Y-78510059D01*
X125282229Y-78508271D01*
X125275299Y-78505791D01*
X125268645Y-78502644D01*
X125262332Y-78498860D01*
X125256421Y-78494476D01*
X125250967Y-78489533D01*
X125246024Y-78484079D01*
X125241640Y-78478168D01*
X125237856Y-78471855D01*
X125234709Y-78465201D01*
X125232229Y-78458271D01*
X125230441Y-78451132D01*
X125229361Y-78443851D01*
X125229000Y-78436500D01*
X125229000Y-77111500D01*
X125229361Y-77104149D01*
X125230441Y-77096868D01*
X125232229Y-77089729D01*
X125234709Y-77082799D01*
X125237856Y-77076145D01*
X125241640Y-77069832D01*
X125246024Y-77063921D01*
X125250967Y-77058467D01*
X125256421Y-77053524D01*
X125262332Y-77049140D01*
X125268645Y-77045356D01*
X125275299Y-77042209D01*
X125282229Y-77039729D01*
X125289368Y-77037941D01*
X125296649Y-77036861D01*
X125304000Y-77036500D01*
X125454000Y-77036500D01*
X125461351Y-77036861D01*
X125461351Y-77036861D01*
G37*
D21*
X125379000Y-77774000D03*
D20*
G36*
X124961351Y-77036861D02*
G01*
X124968632Y-77037941D01*
X124975771Y-77039729D01*
X124982701Y-77042209D01*
X124989355Y-77045356D01*
X124995668Y-77049140D01*
X125001579Y-77053524D01*
X125007033Y-77058467D01*
X125011976Y-77063921D01*
X125016360Y-77069832D01*
X125020144Y-77076145D01*
X125023291Y-77082799D01*
X125025771Y-77089729D01*
X125027559Y-77096868D01*
X125028639Y-77104149D01*
X125029000Y-77111500D01*
X125029000Y-78436500D01*
X125028639Y-78443851D01*
X125027559Y-78451132D01*
X125025771Y-78458271D01*
X125023291Y-78465201D01*
X125020144Y-78471855D01*
X125016360Y-78478168D01*
X125011976Y-78484079D01*
X125007033Y-78489533D01*
X125001579Y-78494476D01*
X124995668Y-78498860D01*
X124989355Y-78502644D01*
X124982701Y-78505791D01*
X124975771Y-78508271D01*
X124968632Y-78510059D01*
X124961351Y-78511139D01*
X124954000Y-78511500D01*
X124804000Y-78511500D01*
X124796649Y-78511139D01*
X124789368Y-78510059D01*
X124782229Y-78508271D01*
X124775299Y-78505791D01*
X124768645Y-78502644D01*
X124762332Y-78498860D01*
X124756421Y-78494476D01*
X124750967Y-78489533D01*
X124746024Y-78484079D01*
X124741640Y-78478168D01*
X124737856Y-78471855D01*
X124734709Y-78465201D01*
X124732229Y-78458271D01*
X124730441Y-78451132D01*
X124729361Y-78443851D01*
X124729000Y-78436500D01*
X124729000Y-77111500D01*
X124729361Y-77104149D01*
X124730441Y-77096868D01*
X124732229Y-77089729D01*
X124734709Y-77082799D01*
X124737856Y-77076145D01*
X124741640Y-77069832D01*
X124746024Y-77063921D01*
X124750967Y-77058467D01*
X124756421Y-77053524D01*
X124762332Y-77049140D01*
X124768645Y-77045356D01*
X124775299Y-77042209D01*
X124782229Y-77039729D01*
X124789368Y-77037941D01*
X124796649Y-77036861D01*
X124804000Y-77036500D01*
X124954000Y-77036500D01*
X124961351Y-77036861D01*
X124961351Y-77036861D01*
G37*
D21*
X124879000Y-77774000D03*
D20*
G36*
X124461351Y-77036861D02*
G01*
X124468632Y-77037941D01*
X124475771Y-77039729D01*
X124482701Y-77042209D01*
X124489355Y-77045356D01*
X124495668Y-77049140D01*
X124501579Y-77053524D01*
X124507033Y-77058467D01*
X124511976Y-77063921D01*
X124516360Y-77069832D01*
X124520144Y-77076145D01*
X124523291Y-77082799D01*
X124525771Y-77089729D01*
X124527559Y-77096868D01*
X124528639Y-77104149D01*
X124529000Y-77111500D01*
X124529000Y-78436500D01*
X124528639Y-78443851D01*
X124527559Y-78451132D01*
X124525771Y-78458271D01*
X124523291Y-78465201D01*
X124520144Y-78471855D01*
X124516360Y-78478168D01*
X124511976Y-78484079D01*
X124507033Y-78489533D01*
X124501579Y-78494476D01*
X124495668Y-78498860D01*
X124489355Y-78502644D01*
X124482701Y-78505791D01*
X124475771Y-78508271D01*
X124468632Y-78510059D01*
X124461351Y-78511139D01*
X124454000Y-78511500D01*
X124304000Y-78511500D01*
X124296649Y-78511139D01*
X124289368Y-78510059D01*
X124282229Y-78508271D01*
X124275299Y-78505791D01*
X124268645Y-78502644D01*
X124262332Y-78498860D01*
X124256421Y-78494476D01*
X124250967Y-78489533D01*
X124246024Y-78484079D01*
X124241640Y-78478168D01*
X124237856Y-78471855D01*
X124234709Y-78465201D01*
X124232229Y-78458271D01*
X124230441Y-78451132D01*
X124229361Y-78443851D01*
X124229000Y-78436500D01*
X124229000Y-77111500D01*
X124229361Y-77104149D01*
X124230441Y-77096868D01*
X124232229Y-77089729D01*
X124234709Y-77082799D01*
X124237856Y-77076145D01*
X124241640Y-77069832D01*
X124246024Y-77063921D01*
X124250967Y-77058467D01*
X124256421Y-77053524D01*
X124262332Y-77049140D01*
X124268645Y-77045356D01*
X124275299Y-77042209D01*
X124282229Y-77039729D01*
X124289368Y-77037941D01*
X124296649Y-77036861D01*
X124304000Y-77036500D01*
X124454000Y-77036500D01*
X124461351Y-77036861D01*
X124461351Y-77036861D01*
G37*
D21*
X124379000Y-77774000D03*
D20*
G36*
X123961351Y-77036861D02*
G01*
X123968632Y-77037941D01*
X123975771Y-77039729D01*
X123982701Y-77042209D01*
X123989355Y-77045356D01*
X123995668Y-77049140D01*
X124001579Y-77053524D01*
X124007033Y-77058467D01*
X124011976Y-77063921D01*
X124016360Y-77069832D01*
X124020144Y-77076145D01*
X124023291Y-77082799D01*
X124025771Y-77089729D01*
X124027559Y-77096868D01*
X124028639Y-77104149D01*
X124029000Y-77111500D01*
X124029000Y-78436500D01*
X124028639Y-78443851D01*
X124027559Y-78451132D01*
X124025771Y-78458271D01*
X124023291Y-78465201D01*
X124020144Y-78471855D01*
X124016360Y-78478168D01*
X124011976Y-78484079D01*
X124007033Y-78489533D01*
X124001579Y-78494476D01*
X123995668Y-78498860D01*
X123989355Y-78502644D01*
X123982701Y-78505791D01*
X123975771Y-78508271D01*
X123968632Y-78510059D01*
X123961351Y-78511139D01*
X123954000Y-78511500D01*
X123804000Y-78511500D01*
X123796649Y-78511139D01*
X123789368Y-78510059D01*
X123782229Y-78508271D01*
X123775299Y-78505791D01*
X123768645Y-78502644D01*
X123762332Y-78498860D01*
X123756421Y-78494476D01*
X123750967Y-78489533D01*
X123746024Y-78484079D01*
X123741640Y-78478168D01*
X123737856Y-78471855D01*
X123734709Y-78465201D01*
X123732229Y-78458271D01*
X123730441Y-78451132D01*
X123729361Y-78443851D01*
X123729000Y-78436500D01*
X123729000Y-77111500D01*
X123729361Y-77104149D01*
X123730441Y-77096868D01*
X123732229Y-77089729D01*
X123734709Y-77082799D01*
X123737856Y-77076145D01*
X123741640Y-77069832D01*
X123746024Y-77063921D01*
X123750967Y-77058467D01*
X123756421Y-77053524D01*
X123762332Y-77049140D01*
X123768645Y-77045356D01*
X123775299Y-77042209D01*
X123782229Y-77039729D01*
X123789368Y-77037941D01*
X123796649Y-77036861D01*
X123804000Y-77036500D01*
X123954000Y-77036500D01*
X123961351Y-77036861D01*
X123961351Y-77036861D01*
G37*
D21*
X123879000Y-77774000D03*
D20*
G36*
X123461351Y-77036861D02*
G01*
X123468632Y-77037941D01*
X123475771Y-77039729D01*
X123482701Y-77042209D01*
X123489355Y-77045356D01*
X123495668Y-77049140D01*
X123501579Y-77053524D01*
X123507033Y-77058467D01*
X123511976Y-77063921D01*
X123516360Y-77069832D01*
X123520144Y-77076145D01*
X123523291Y-77082799D01*
X123525771Y-77089729D01*
X123527559Y-77096868D01*
X123528639Y-77104149D01*
X123529000Y-77111500D01*
X123529000Y-78436500D01*
X123528639Y-78443851D01*
X123527559Y-78451132D01*
X123525771Y-78458271D01*
X123523291Y-78465201D01*
X123520144Y-78471855D01*
X123516360Y-78478168D01*
X123511976Y-78484079D01*
X123507033Y-78489533D01*
X123501579Y-78494476D01*
X123495668Y-78498860D01*
X123489355Y-78502644D01*
X123482701Y-78505791D01*
X123475771Y-78508271D01*
X123468632Y-78510059D01*
X123461351Y-78511139D01*
X123454000Y-78511500D01*
X123304000Y-78511500D01*
X123296649Y-78511139D01*
X123289368Y-78510059D01*
X123282229Y-78508271D01*
X123275299Y-78505791D01*
X123268645Y-78502644D01*
X123262332Y-78498860D01*
X123256421Y-78494476D01*
X123250967Y-78489533D01*
X123246024Y-78484079D01*
X123241640Y-78478168D01*
X123237856Y-78471855D01*
X123234709Y-78465201D01*
X123232229Y-78458271D01*
X123230441Y-78451132D01*
X123229361Y-78443851D01*
X123229000Y-78436500D01*
X123229000Y-77111500D01*
X123229361Y-77104149D01*
X123230441Y-77096868D01*
X123232229Y-77089729D01*
X123234709Y-77082799D01*
X123237856Y-77076145D01*
X123241640Y-77069832D01*
X123246024Y-77063921D01*
X123250967Y-77058467D01*
X123256421Y-77053524D01*
X123262332Y-77049140D01*
X123268645Y-77045356D01*
X123275299Y-77042209D01*
X123282229Y-77039729D01*
X123289368Y-77037941D01*
X123296649Y-77036861D01*
X123304000Y-77036500D01*
X123454000Y-77036500D01*
X123461351Y-77036861D01*
X123461351Y-77036861D01*
G37*
D21*
X123379000Y-77774000D03*
D20*
G36*
X122961351Y-77036861D02*
G01*
X122968632Y-77037941D01*
X122975771Y-77039729D01*
X122982701Y-77042209D01*
X122989355Y-77045356D01*
X122995668Y-77049140D01*
X123001579Y-77053524D01*
X123007033Y-77058467D01*
X123011976Y-77063921D01*
X123016360Y-77069832D01*
X123020144Y-77076145D01*
X123023291Y-77082799D01*
X123025771Y-77089729D01*
X123027559Y-77096868D01*
X123028639Y-77104149D01*
X123029000Y-77111500D01*
X123029000Y-78436500D01*
X123028639Y-78443851D01*
X123027559Y-78451132D01*
X123025771Y-78458271D01*
X123023291Y-78465201D01*
X123020144Y-78471855D01*
X123016360Y-78478168D01*
X123011976Y-78484079D01*
X123007033Y-78489533D01*
X123001579Y-78494476D01*
X122995668Y-78498860D01*
X122989355Y-78502644D01*
X122982701Y-78505791D01*
X122975771Y-78508271D01*
X122968632Y-78510059D01*
X122961351Y-78511139D01*
X122954000Y-78511500D01*
X122804000Y-78511500D01*
X122796649Y-78511139D01*
X122789368Y-78510059D01*
X122782229Y-78508271D01*
X122775299Y-78505791D01*
X122768645Y-78502644D01*
X122762332Y-78498860D01*
X122756421Y-78494476D01*
X122750967Y-78489533D01*
X122746024Y-78484079D01*
X122741640Y-78478168D01*
X122737856Y-78471855D01*
X122734709Y-78465201D01*
X122732229Y-78458271D01*
X122730441Y-78451132D01*
X122729361Y-78443851D01*
X122729000Y-78436500D01*
X122729000Y-77111500D01*
X122729361Y-77104149D01*
X122730441Y-77096868D01*
X122732229Y-77089729D01*
X122734709Y-77082799D01*
X122737856Y-77076145D01*
X122741640Y-77069832D01*
X122746024Y-77063921D01*
X122750967Y-77058467D01*
X122756421Y-77053524D01*
X122762332Y-77049140D01*
X122768645Y-77045356D01*
X122775299Y-77042209D01*
X122782229Y-77039729D01*
X122789368Y-77037941D01*
X122796649Y-77036861D01*
X122804000Y-77036500D01*
X122954000Y-77036500D01*
X122961351Y-77036861D01*
X122961351Y-77036861D01*
G37*
D21*
X122879000Y-77774000D03*
D20*
G36*
X122136351Y-79036861D02*
G01*
X122143632Y-79037941D01*
X122150771Y-79039729D01*
X122157701Y-79042209D01*
X122164355Y-79045356D01*
X122170668Y-79049140D01*
X122176579Y-79053524D01*
X122182033Y-79058467D01*
X122186976Y-79063921D01*
X122191360Y-79069832D01*
X122195144Y-79076145D01*
X122198291Y-79082799D01*
X122200771Y-79089729D01*
X122202559Y-79096868D01*
X122203639Y-79104149D01*
X122204000Y-79111500D01*
X122204000Y-79261500D01*
X122203639Y-79268851D01*
X122202559Y-79276132D01*
X122200771Y-79283271D01*
X122198291Y-79290201D01*
X122195144Y-79296855D01*
X122191360Y-79303168D01*
X122186976Y-79309079D01*
X122182033Y-79314533D01*
X122176579Y-79319476D01*
X122170668Y-79323860D01*
X122164355Y-79327644D01*
X122157701Y-79330791D01*
X122150771Y-79333271D01*
X122143632Y-79335059D01*
X122136351Y-79336139D01*
X122129000Y-79336500D01*
X120804000Y-79336500D01*
X120796649Y-79336139D01*
X120789368Y-79335059D01*
X120782229Y-79333271D01*
X120775299Y-79330791D01*
X120768645Y-79327644D01*
X120762332Y-79323860D01*
X120756421Y-79319476D01*
X120750967Y-79314533D01*
X120746024Y-79309079D01*
X120741640Y-79303168D01*
X120737856Y-79296855D01*
X120734709Y-79290201D01*
X120732229Y-79283271D01*
X120730441Y-79276132D01*
X120729361Y-79268851D01*
X120729000Y-79261500D01*
X120729000Y-79111500D01*
X120729361Y-79104149D01*
X120730441Y-79096868D01*
X120732229Y-79089729D01*
X120734709Y-79082799D01*
X120737856Y-79076145D01*
X120741640Y-79069832D01*
X120746024Y-79063921D01*
X120750967Y-79058467D01*
X120756421Y-79053524D01*
X120762332Y-79049140D01*
X120768645Y-79045356D01*
X120775299Y-79042209D01*
X120782229Y-79039729D01*
X120789368Y-79037941D01*
X120796649Y-79036861D01*
X120804000Y-79036500D01*
X122129000Y-79036500D01*
X122136351Y-79036861D01*
X122136351Y-79036861D01*
G37*
D21*
X121466500Y-79186500D03*
D20*
G36*
X122136351Y-79536861D02*
G01*
X122143632Y-79537941D01*
X122150771Y-79539729D01*
X122157701Y-79542209D01*
X122164355Y-79545356D01*
X122170668Y-79549140D01*
X122176579Y-79553524D01*
X122182033Y-79558467D01*
X122186976Y-79563921D01*
X122191360Y-79569832D01*
X122195144Y-79576145D01*
X122198291Y-79582799D01*
X122200771Y-79589729D01*
X122202559Y-79596868D01*
X122203639Y-79604149D01*
X122204000Y-79611500D01*
X122204000Y-79761500D01*
X122203639Y-79768851D01*
X122202559Y-79776132D01*
X122200771Y-79783271D01*
X122198291Y-79790201D01*
X122195144Y-79796855D01*
X122191360Y-79803168D01*
X122186976Y-79809079D01*
X122182033Y-79814533D01*
X122176579Y-79819476D01*
X122170668Y-79823860D01*
X122164355Y-79827644D01*
X122157701Y-79830791D01*
X122150771Y-79833271D01*
X122143632Y-79835059D01*
X122136351Y-79836139D01*
X122129000Y-79836500D01*
X120804000Y-79836500D01*
X120796649Y-79836139D01*
X120789368Y-79835059D01*
X120782229Y-79833271D01*
X120775299Y-79830791D01*
X120768645Y-79827644D01*
X120762332Y-79823860D01*
X120756421Y-79819476D01*
X120750967Y-79814533D01*
X120746024Y-79809079D01*
X120741640Y-79803168D01*
X120737856Y-79796855D01*
X120734709Y-79790201D01*
X120732229Y-79783271D01*
X120730441Y-79776132D01*
X120729361Y-79768851D01*
X120729000Y-79761500D01*
X120729000Y-79611500D01*
X120729361Y-79604149D01*
X120730441Y-79596868D01*
X120732229Y-79589729D01*
X120734709Y-79582799D01*
X120737856Y-79576145D01*
X120741640Y-79569832D01*
X120746024Y-79563921D01*
X120750967Y-79558467D01*
X120756421Y-79553524D01*
X120762332Y-79549140D01*
X120768645Y-79545356D01*
X120775299Y-79542209D01*
X120782229Y-79539729D01*
X120789368Y-79537941D01*
X120796649Y-79536861D01*
X120804000Y-79536500D01*
X122129000Y-79536500D01*
X122136351Y-79536861D01*
X122136351Y-79536861D01*
G37*
D21*
X121466500Y-79686500D03*
D20*
G36*
X122136351Y-80036861D02*
G01*
X122143632Y-80037941D01*
X122150771Y-80039729D01*
X122157701Y-80042209D01*
X122164355Y-80045356D01*
X122170668Y-80049140D01*
X122176579Y-80053524D01*
X122182033Y-80058467D01*
X122186976Y-80063921D01*
X122191360Y-80069832D01*
X122195144Y-80076145D01*
X122198291Y-80082799D01*
X122200771Y-80089729D01*
X122202559Y-80096868D01*
X122203639Y-80104149D01*
X122204000Y-80111500D01*
X122204000Y-80261500D01*
X122203639Y-80268851D01*
X122202559Y-80276132D01*
X122200771Y-80283271D01*
X122198291Y-80290201D01*
X122195144Y-80296855D01*
X122191360Y-80303168D01*
X122186976Y-80309079D01*
X122182033Y-80314533D01*
X122176579Y-80319476D01*
X122170668Y-80323860D01*
X122164355Y-80327644D01*
X122157701Y-80330791D01*
X122150771Y-80333271D01*
X122143632Y-80335059D01*
X122136351Y-80336139D01*
X122129000Y-80336500D01*
X120804000Y-80336500D01*
X120796649Y-80336139D01*
X120789368Y-80335059D01*
X120782229Y-80333271D01*
X120775299Y-80330791D01*
X120768645Y-80327644D01*
X120762332Y-80323860D01*
X120756421Y-80319476D01*
X120750967Y-80314533D01*
X120746024Y-80309079D01*
X120741640Y-80303168D01*
X120737856Y-80296855D01*
X120734709Y-80290201D01*
X120732229Y-80283271D01*
X120730441Y-80276132D01*
X120729361Y-80268851D01*
X120729000Y-80261500D01*
X120729000Y-80111500D01*
X120729361Y-80104149D01*
X120730441Y-80096868D01*
X120732229Y-80089729D01*
X120734709Y-80082799D01*
X120737856Y-80076145D01*
X120741640Y-80069832D01*
X120746024Y-80063921D01*
X120750967Y-80058467D01*
X120756421Y-80053524D01*
X120762332Y-80049140D01*
X120768645Y-80045356D01*
X120775299Y-80042209D01*
X120782229Y-80039729D01*
X120789368Y-80037941D01*
X120796649Y-80036861D01*
X120804000Y-80036500D01*
X122129000Y-80036500D01*
X122136351Y-80036861D01*
X122136351Y-80036861D01*
G37*
D21*
X121466500Y-80186500D03*
D20*
G36*
X122136351Y-80536861D02*
G01*
X122143632Y-80537941D01*
X122150771Y-80539729D01*
X122157701Y-80542209D01*
X122164355Y-80545356D01*
X122170668Y-80549140D01*
X122176579Y-80553524D01*
X122182033Y-80558467D01*
X122186976Y-80563921D01*
X122191360Y-80569832D01*
X122195144Y-80576145D01*
X122198291Y-80582799D01*
X122200771Y-80589729D01*
X122202559Y-80596868D01*
X122203639Y-80604149D01*
X122204000Y-80611500D01*
X122204000Y-80761500D01*
X122203639Y-80768851D01*
X122202559Y-80776132D01*
X122200771Y-80783271D01*
X122198291Y-80790201D01*
X122195144Y-80796855D01*
X122191360Y-80803168D01*
X122186976Y-80809079D01*
X122182033Y-80814533D01*
X122176579Y-80819476D01*
X122170668Y-80823860D01*
X122164355Y-80827644D01*
X122157701Y-80830791D01*
X122150771Y-80833271D01*
X122143632Y-80835059D01*
X122136351Y-80836139D01*
X122129000Y-80836500D01*
X120804000Y-80836500D01*
X120796649Y-80836139D01*
X120789368Y-80835059D01*
X120782229Y-80833271D01*
X120775299Y-80830791D01*
X120768645Y-80827644D01*
X120762332Y-80823860D01*
X120756421Y-80819476D01*
X120750967Y-80814533D01*
X120746024Y-80809079D01*
X120741640Y-80803168D01*
X120737856Y-80796855D01*
X120734709Y-80790201D01*
X120732229Y-80783271D01*
X120730441Y-80776132D01*
X120729361Y-80768851D01*
X120729000Y-80761500D01*
X120729000Y-80611500D01*
X120729361Y-80604149D01*
X120730441Y-80596868D01*
X120732229Y-80589729D01*
X120734709Y-80582799D01*
X120737856Y-80576145D01*
X120741640Y-80569832D01*
X120746024Y-80563921D01*
X120750967Y-80558467D01*
X120756421Y-80553524D01*
X120762332Y-80549140D01*
X120768645Y-80545356D01*
X120775299Y-80542209D01*
X120782229Y-80539729D01*
X120789368Y-80537941D01*
X120796649Y-80536861D01*
X120804000Y-80536500D01*
X122129000Y-80536500D01*
X122136351Y-80536861D01*
X122136351Y-80536861D01*
G37*
D21*
X121466500Y-80686500D03*
D20*
G36*
X122136351Y-81036861D02*
G01*
X122143632Y-81037941D01*
X122150771Y-81039729D01*
X122157701Y-81042209D01*
X122164355Y-81045356D01*
X122170668Y-81049140D01*
X122176579Y-81053524D01*
X122182033Y-81058467D01*
X122186976Y-81063921D01*
X122191360Y-81069832D01*
X122195144Y-81076145D01*
X122198291Y-81082799D01*
X122200771Y-81089729D01*
X122202559Y-81096868D01*
X122203639Y-81104149D01*
X122204000Y-81111500D01*
X122204000Y-81261500D01*
X122203639Y-81268851D01*
X122202559Y-81276132D01*
X122200771Y-81283271D01*
X122198291Y-81290201D01*
X122195144Y-81296855D01*
X122191360Y-81303168D01*
X122186976Y-81309079D01*
X122182033Y-81314533D01*
X122176579Y-81319476D01*
X122170668Y-81323860D01*
X122164355Y-81327644D01*
X122157701Y-81330791D01*
X122150771Y-81333271D01*
X122143632Y-81335059D01*
X122136351Y-81336139D01*
X122129000Y-81336500D01*
X120804000Y-81336500D01*
X120796649Y-81336139D01*
X120789368Y-81335059D01*
X120782229Y-81333271D01*
X120775299Y-81330791D01*
X120768645Y-81327644D01*
X120762332Y-81323860D01*
X120756421Y-81319476D01*
X120750967Y-81314533D01*
X120746024Y-81309079D01*
X120741640Y-81303168D01*
X120737856Y-81296855D01*
X120734709Y-81290201D01*
X120732229Y-81283271D01*
X120730441Y-81276132D01*
X120729361Y-81268851D01*
X120729000Y-81261500D01*
X120729000Y-81111500D01*
X120729361Y-81104149D01*
X120730441Y-81096868D01*
X120732229Y-81089729D01*
X120734709Y-81082799D01*
X120737856Y-81076145D01*
X120741640Y-81069832D01*
X120746024Y-81063921D01*
X120750967Y-81058467D01*
X120756421Y-81053524D01*
X120762332Y-81049140D01*
X120768645Y-81045356D01*
X120775299Y-81042209D01*
X120782229Y-81039729D01*
X120789368Y-81037941D01*
X120796649Y-81036861D01*
X120804000Y-81036500D01*
X122129000Y-81036500D01*
X122136351Y-81036861D01*
X122136351Y-81036861D01*
G37*
D21*
X121466500Y-81186500D03*
D20*
G36*
X122136351Y-81536861D02*
G01*
X122143632Y-81537941D01*
X122150771Y-81539729D01*
X122157701Y-81542209D01*
X122164355Y-81545356D01*
X122170668Y-81549140D01*
X122176579Y-81553524D01*
X122182033Y-81558467D01*
X122186976Y-81563921D01*
X122191360Y-81569832D01*
X122195144Y-81576145D01*
X122198291Y-81582799D01*
X122200771Y-81589729D01*
X122202559Y-81596868D01*
X122203639Y-81604149D01*
X122204000Y-81611500D01*
X122204000Y-81761500D01*
X122203639Y-81768851D01*
X122202559Y-81776132D01*
X122200771Y-81783271D01*
X122198291Y-81790201D01*
X122195144Y-81796855D01*
X122191360Y-81803168D01*
X122186976Y-81809079D01*
X122182033Y-81814533D01*
X122176579Y-81819476D01*
X122170668Y-81823860D01*
X122164355Y-81827644D01*
X122157701Y-81830791D01*
X122150771Y-81833271D01*
X122143632Y-81835059D01*
X122136351Y-81836139D01*
X122129000Y-81836500D01*
X120804000Y-81836500D01*
X120796649Y-81836139D01*
X120789368Y-81835059D01*
X120782229Y-81833271D01*
X120775299Y-81830791D01*
X120768645Y-81827644D01*
X120762332Y-81823860D01*
X120756421Y-81819476D01*
X120750967Y-81814533D01*
X120746024Y-81809079D01*
X120741640Y-81803168D01*
X120737856Y-81796855D01*
X120734709Y-81790201D01*
X120732229Y-81783271D01*
X120730441Y-81776132D01*
X120729361Y-81768851D01*
X120729000Y-81761500D01*
X120729000Y-81611500D01*
X120729361Y-81604149D01*
X120730441Y-81596868D01*
X120732229Y-81589729D01*
X120734709Y-81582799D01*
X120737856Y-81576145D01*
X120741640Y-81569832D01*
X120746024Y-81563921D01*
X120750967Y-81558467D01*
X120756421Y-81553524D01*
X120762332Y-81549140D01*
X120768645Y-81545356D01*
X120775299Y-81542209D01*
X120782229Y-81539729D01*
X120789368Y-81537941D01*
X120796649Y-81536861D01*
X120804000Y-81536500D01*
X122129000Y-81536500D01*
X122136351Y-81536861D01*
X122136351Y-81536861D01*
G37*
D21*
X121466500Y-81686500D03*
D20*
G36*
X122136351Y-82036861D02*
G01*
X122143632Y-82037941D01*
X122150771Y-82039729D01*
X122157701Y-82042209D01*
X122164355Y-82045356D01*
X122170668Y-82049140D01*
X122176579Y-82053524D01*
X122182033Y-82058467D01*
X122186976Y-82063921D01*
X122191360Y-82069832D01*
X122195144Y-82076145D01*
X122198291Y-82082799D01*
X122200771Y-82089729D01*
X122202559Y-82096868D01*
X122203639Y-82104149D01*
X122204000Y-82111500D01*
X122204000Y-82261500D01*
X122203639Y-82268851D01*
X122202559Y-82276132D01*
X122200771Y-82283271D01*
X122198291Y-82290201D01*
X122195144Y-82296855D01*
X122191360Y-82303168D01*
X122186976Y-82309079D01*
X122182033Y-82314533D01*
X122176579Y-82319476D01*
X122170668Y-82323860D01*
X122164355Y-82327644D01*
X122157701Y-82330791D01*
X122150771Y-82333271D01*
X122143632Y-82335059D01*
X122136351Y-82336139D01*
X122129000Y-82336500D01*
X120804000Y-82336500D01*
X120796649Y-82336139D01*
X120789368Y-82335059D01*
X120782229Y-82333271D01*
X120775299Y-82330791D01*
X120768645Y-82327644D01*
X120762332Y-82323860D01*
X120756421Y-82319476D01*
X120750967Y-82314533D01*
X120746024Y-82309079D01*
X120741640Y-82303168D01*
X120737856Y-82296855D01*
X120734709Y-82290201D01*
X120732229Y-82283271D01*
X120730441Y-82276132D01*
X120729361Y-82268851D01*
X120729000Y-82261500D01*
X120729000Y-82111500D01*
X120729361Y-82104149D01*
X120730441Y-82096868D01*
X120732229Y-82089729D01*
X120734709Y-82082799D01*
X120737856Y-82076145D01*
X120741640Y-82069832D01*
X120746024Y-82063921D01*
X120750967Y-82058467D01*
X120756421Y-82053524D01*
X120762332Y-82049140D01*
X120768645Y-82045356D01*
X120775299Y-82042209D01*
X120782229Y-82039729D01*
X120789368Y-82037941D01*
X120796649Y-82036861D01*
X120804000Y-82036500D01*
X122129000Y-82036500D01*
X122136351Y-82036861D01*
X122136351Y-82036861D01*
G37*
D21*
X121466500Y-82186500D03*
D20*
G36*
X122136351Y-82536861D02*
G01*
X122143632Y-82537941D01*
X122150771Y-82539729D01*
X122157701Y-82542209D01*
X122164355Y-82545356D01*
X122170668Y-82549140D01*
X122176579Y-82553524D01*
X122182033Y-82558467D01*
X122186976Y-82563921D01*
X122191360Y-82569832D01*
X122195144Y-82576145D01*
X122198291Y-82582799D01*
X122200771Y-82589729D01*
X122202559Y-82596868D01*
X122203639Y-82604149D01*
X122204000Y-82611500D01*
X122204000Y-82761500D01*
X122203639Y-82768851D01*
X122202559Y-82776132D01*
X122200771Y-82783271D01*
X122198291Y-82790201D01*
X122195144Y-82796855D01*
X122191360Y-82803168D01*
X122186976Y-82809079D01*
X122182033Y-82814533D01*
X122176579Y-82819476D01*
X122170668Y-82823860D01*
X122164355Y-82827644D01*
X122157701Y-82830791D01*
X122150771Y-82833271D01*
X122143632Y-82835059D01*
X122136351Y-82836139D01*
X122129000Y-82836500D01*
X120804000Y-82836500D01*
X120796649Y-82836139D01*
X120789368Y-82835059D01*
X120782229Y-82833271D01*
X120775299Y-82830791D01*
X120768645Y-82827644D01*
X120762332Y-82823860D01*
X120756421Y-82819476D01*
X120750967Y-82814533D01*
X120746024Y-82809079D01*
X120741640Y-82803168D01*
X120737856Y-82796855D01*
X120734709Y-82790201D01*
X120732229Y-82783271D01*
X120730441Y-82776132D01*
X120729361Y-82768851D01*
X120729000Y-82761500D01*
X120729000Y-82611500D01*
X120729361Y-82604149D01*
X120730441Y-82596868D01*
X120732229Y-82589729D01*
X120734709Y-82582799D01*
X120737856Y-82576145D01*
X120741640Y-82569832D01*
X120746024Y-82563921D01*
X120750967Y-82558467D01*
X120756421Y-82553524D01*
X120762332Y-82549140D01*
X120768645Y-82545356D01*
X120775299Y-82542209D01*
X120782229Y-82539729D01*
X120789368Y-82537941D01*
X120796649Y-82536861D01*
X120804000Y-82536500D01*
X122129000Y-82536500D01*
X122136351Y-82536861D01*
X122136351Y-82536861D01*
G37*
D21*
X121466500Y-82686500D03*
D20*
G36*
X122136351Y-83036861D02*
G01*
X122143632Y-83037941D01*
X122150771Y-83039729D01*
X122157701Y-83042209D01*
X122164355Y-83045356D01*
X122170668Y-83049140D01*
X122176579Y-83053524D01*
X122182033Y-83058467D01*
X122186976Y-83063921D01*
X122191360Y-83069832D01*
X122195144Y-83076145D01*
X122198291Y-83082799D01*
X122200771Y-83089729D01*
X122202559Y-83096868D01*
X122203639Y-83104149D01*
X122204000Y-83111500D01*
X122204000Y-83261500D01*
X122203639Y-83268851D01*
X122202559Y-83276132D01*
X122200771Y-83283271D01*
X122198291Y-83290201D01*
X122195144Y-83296855D01*
X122191360Y-83303168D01*
X122186976Y-83309079D01*
X122182033Y-83314533D01*
X122176579Y-83319476D01*
X122170668Y-83323860D01*
X122164355Y-83327644D01*
X122157701Y-83330791D01*
X122150771Y-83333271D01*
X122143632Y-83335059D01*
X122136351Y-83336139D01*
X122129000Y-83336500D01*
X120804000Y-83336500D01*
X120796649Y-83336139D01*
X120789368Y-83335059D01*
X120782229Y-83333271D01*
X120775299Y-83330791D01*
X120768645Y-83327644D01*
X120762332Y-83323860D01*
X120756421Y-83319476D01*
X120750967Y-83314533D01*
X120746024Y-83309079D01*
X120741640Y-83303168D01*
X120737856Y-83296855D01*
X120734709Y-83290201D01*
X120732229Y-83283271D01*
X120730441Y-83276132D01*
X120729361Y-83268851D01*
X120729000Y-83261500D01*
X120729000Y-83111500D01*
X120729361Y-83104149D01*
X120730441Y-83096868D01*
X120732229Y-83089729D01*
X120734709Y-83082799D01*
X120737856Y-83076145D01*
X120741640Y-83069832D01*
X120746024Y-83063921D01*
X120750967Y-83058467D01*
X120756421Y-83053524D01*
X120762332Y-83049140D01*
X120768645Y-83045356D01*
X120775299Y-83042209D01*
X120782229Y-83039729D01*
X120789368Y-83037941D01*
X120796649Y-83036861D01*
X120804000Y-83036500D01*
X122129000Y-83036500D01*
X122136351Y-83036861D01*
X122136351Y-83036861D01*
G37*
D21*
X121466500Y-83186500D03*
D20*
G36*
X122136351Y-83536861D02*
G01*
X122143632Y-83537941D01*
X122150771Y-83539729D01*
X122157701Y-83542209D01*
X122164355Y-83545356D01*
X122170668Y-83549140D01*
X122176579Y-83553524D01*
X122182033Y-83558467D01*
X122186976Y-83563921D01*
X122191360Y-83569832D01*
X122195144Y-83576145D01*
X122198291Y-83582799D01*
X122200771Y-83589729D01*
X122202559Y-83596868D01*
X122203639Y-83604149D01*
X122204000Y-83611500D01*
X122204000Y-83761500D01*
X122203639Y-83768851D01*
X122202559Y-83776132D01*
X122200771Y-83783271D01*
X122198291Y-83790201D01*
X122195144Y-83796855D01*
X122191360Y-83803168D01*
X122186976Y-83809079D01*
X122182033Y-83814533D01*
X122176579Y-83819476D01*
X122170668Y-83823860D01*
X122164355Y-83827644D01*
X122157701Y-83830791D01*
X122150771Y-83833271D01*
X122143632Y-83835059D01*
X122136351Y-83836139D01*
X122129000Y-83836500D01*
X120804000Y-83836500D01*
X120796649Y-83836139D01*
X120789368Y-83835059D01*
X120782229Y-83833271D01*
X120775299Y-83830791D01*
X120768645Y-83827644D01*
X120762332Y-83823860D01*
X120756421Y-83819476D01*
X120750967Y-83814533D01*
X120746024Y-83809079D01*
X120741640Y-83803168D01*
X120737856Y-83796855D01*
X120734709Y-83790201D01*
X120732229Y-83783271D01*
X120730441Y-83776132D01*
X120729361Y-83768851D01*
X120729000Y-83761500D01*
X120729000Y-83611500D01*
X120729361Y-83604149D01*
X120730441Y-83596868D01*
X120732229Y-83589729D01*
X120734709Y-83582799D01*
X120737856Y-83576145D01*
X120741640Y-83569832D01*
X120746024Y-83563921D01*
X120750967Y-83558467D01*
X120756421Y-83553524D01*
X120762332Y-83549140D01*
X120768645Y-83545356D01*
X120775299Y-83542209D01*
X120782229Y-83539729D01*
X120789368Y-83537941D01*
X120796649Y-83536861D01*
X120804000Y-83536500D01*
X122129000Y-83536500D01*
X122136351Y-83536861D01*
X122136351Y-83536861D01*
G37*
D21*
X121466500Y-83686500D03*
D20*
G36*
X122136351Y-84036861D02*
G01*
X122143632Y-84037941D01*
X122150771Y-84039729D01*
X122157701Y-84042209D01*
X122164355Y-84045356D01*
X122170668Y-84049140D01*
X122176579Y-84053524D01*
X122182033Y-84058467D01*
X122186976Y-84063921D01*
X122191360Y-84069832D01*
X122195144Y-84076145D01*
X122198291Y-84082799D01*
X122200771Y-84089729D01*
X122202559Y-84096868D01*
X122203639Y-84104149D01*
X122204000Y-84111500D01*
X122204000Y-84261500D01*
X122203639Y-84268851D01*
X122202559Y-84276132D01*
X122200771Y-84283271D01*
X122198291Y-84290201D01*
X122195144Y-84296855D01*
X122191360Y-84303168D01*
X122186976Y-84309079D01*
X122182033Y-84314533D01*
X122176579Y-84319476D01*
X122170668Y-84323860D01*
X122164355Y-84327644D01*
X122157701Y-84330791D01*
X122150771Y-84333271D01*
X122143632Y-84335059D01*
X122136351Y-84336139D01*
X122129000Y-84336500D01*
X120804000Y-84336500D01*
X120796649Y-84336139D01*
X120789368Y-84335059D01*
X120782229Y-84333271D01*
X120775299Y-84330791D01*
X120768645Y-84327644D01*
X120762332Y-84323860D01*
X120756421Y-84319476D01*
X120750967Y-84314533D01*
X120746024Y-84309079D01*
X120741640Y-84303168D01*
X120737856Y-84296855D01*
X120734709Y-84290201D01*
X120732229Y-84283271D01*
X120730441Y-84276132D01*
X120729361Y-84268851D01*
X120729000Y-84261500D01*
X120729000Y-84111500D01*
X120729361Y-84104149D01*
X120730441Y-84096868D01*
X120732229Y-84089729D01*
X120734709Y-84082799D01*
X120737856Y-84076145D01*
X120741640Y-84069832D01*
X120746024Y-84063921D01*
X120750967Y-84058467D01*
X120756421Y-84053524D01*
X120762332Y-84049140D01*
X120768645Y-84045356D01*
X120775299Y-84042209D01*
X120782229Y-84039729D01*
X120789368Y-84037941D01*
X120796649Y-84036861D01*
X120804000Y-84036500D01*
X122129000Y-84036500D01*
X122136351Y-84036861D01*
X122136351Y-84036861D01*
G37*
D21*
X121466500Y-84186500D03*
D20*
G36*
X122136351Y-84536861D02*
G01*
X122143632Y-84537941D01*
X122150771Y-84539729D01*
X122157701Y-84542209D01*
X122164355Y-84545356D01*
X122170668Y-84549140D01*
X122176579Y-84553524D01*
X122182033Y-84558467D01*
X122186976Y-84563921D01*
X122191360Y-84569832D01*
X122195144Y-84576145D01*
X122198291Y-84582799D01*
X122200771Y-84589729D01*
X122202559Y-84596868D01*
X122203639Y-84604149D01*
X122204000Y-84611500D01*
X122204000Y-84761500D01*
X122203639Y-84768851D01*
X122202559Y-84776132D01*
X122200771Y-84783271D01*
X122198291Y-84790201D01*
X122195144Y-84796855D01*
X122191360Y-84803168D01*
X122186976Y-84809079D01*
X122182033Y-84814533D01*
X122176579Y-84819476D01*
X122170668Y-84823860D01*
X122164355Y-84827644D01*
X122157701Y-84830791D01*
X122150771Y-84833271D01*
X122143632Y-84835059D01*
X122136351Y-84836139D01*
X122129000Y-84836500D01*
X120804000Y-84836500D01*
X120796649Y-84836139D01*
X120789368Y-84835059D01*
X120782229Y-84833271D01*
X120775299Y-84830791D01*
X120768645Y-84827644D01*
X120762332Y-84823860D01*
X120756421Y-84819476D01*
X120750967Y-84814533D01*
X120746024Y-84809079D01*
X120741640Y-84803168D01*
X120737856Y-84796855D01*
X120734709Y-84790201D01*
X120732229Y-84783271D01*
X120730441Y-84776132D01*
X120729361Y-84768851D01*
X120729000Y-84761500D01*
X120729000Y-84611500D01*
X120729361Y-84604149D01*
X120730441Y-84596868D01*
X120732229Y-84589729D01*
X120734709Y-84582799D01*
X120737856Y-84576145D01*
X120741640Y-84569832D01*
X120746024Y-84563921D01*
X120750967Y-84558467D01*
X120756421Y-84553524D01*
X120762332Y-84549140D01*
X120768645Y-84545356D01*
X120775299Y-84542209D01*
X120782229Y-84539729D01*
X120789368Y-84537941D01*
X120796649Y-84536861D01*
X120804000Y-84536500D01*
X122129000Y-84536500D01*
X122136351Y-84536861D01*
X122136351Y-84536861D01*
G37*
D21*
X121466500Y-84686500D03*
D12*
X120898000Y-87839000D03*
X120898000Y-88689000D03*
D13*
X130499000Y-89568000D03*
X129649000Y-89568000D03*
X128869000Y-88168000D03*
X129719000Y-88168000D03*
D12*
X132124000Y-90403000D03*
X132124000Y-89553000D03*
D22*
X132223480Y-85447480D03*
D20*
G36*
X132665422Y-85429802D02*
G01*
X132205802Y-85889422D01*
X131781538Y-85465158D01*
X132241158Y-85005538D01*
X132665422Y-85429802D01*
X132665422Y-85429802D01*
G37*
D22*
X132824520Y-86048520D03*
D20*
G36*
X133266462Y-86030842D02*
G01*
X132806842Y-86490462D01*
X132382578Y-86066198D01*
X132842198Y-85606578D01*
X133266462Y-86030842D01*
X133266462Y-86030842D01*
G37*
D13*
X132999000Y-93398000D03*
X133849000Y-93398000D03*
X132989000Y-82468000D03*
X132139000Y-82468000D03*
D12*
X133664000Y-80543000D03*
X133664000Y-79693000D03*
D13*
X119439000Y-86188000D03*
X120289000Y-86188000D03*
D12*
X130164000Y-76823000D03*
X130164000Y-77673000D03*
D13*
X132889000Y-88168000D03*
X132039000Y-88168000D03*
D22*
X118823480Y-76167480D03*
D20*
G36*
X119265422Y-76149802D02*
G01*
X118805802Y-76609422D01*
X118381538Y-76185158D01*
X118841158Y-75725538D01*
X119265422Y-76149802D01*
X119265422Y-76149802D01*
G37*
D22*
X119424520Y-76768520D03*
D20*
G36*
X119866462Y-76750842D02*
G01*
X119406842Y-77210462D01*
X118982578Y-76786198D01*
X119442198Y-76326578D01*
X119866462Y-76750842D01*
X119866462Y-76750842D01*
G37*
D12*
X119498000Y-87839000D03*
X119498000Y-88689000D03*
D23*
X117894000Y-86988000D03*
X117894000Y-88528000D03*
D12*
X123674000Y-87839000D03*
X123674000Y-88689000D03*
D23*
X116094000Y-86998000D03*
X116094000Y-88538000D03*
D12*
X132064000Y-79693000D03*
X132064000Y-80543000D03*
X133524000Y-90403000D03*
X133524000Y-89553000D03*
D13*
X124683000Y-90026000D03*
X125533000Y-90026000D03*
X127719000Y-90026000D03*
X126869000Y-90026000D03*
D22*
X130964000Y-93773000D03*
X121184000Y-93588000D03*
X121184000Y-92848000D03*
X115594000Y-86088000D03*
X115590665Y-85505220D03*
X122719405Y-83499752D03*
X121184000Y-91738000D03*
X120879000Y-89778000D03*
X126754000Y-87418000D03*
X126444000Y-82218000D03*
X130524000Y-75728000D03*
X129134000Y-77328000D03*
X118084000Y-75658000D03*
X132949000Y-89669985D03*
X131914000Y-87128000D03*
X133468443Y-86653557D03*
X131284000Y-88928000D03*
X117682058Y-78529942D03*
X125557059Y-89200766D03*
X117877058Y-94031058D03*
X115864000Y-93738000D03*
X133084000Y-75728000D03*
X133084000Y-76588000D03*
X115804000Y-82778000D03*
X133854881Y-91202967D03*
X118910464Y-84908000D03*
X128360263Y-83638147D03*
X125504000Y-79163000D03*
X133964000Y-94868000D03*
X131444000Y-91078000D03*
X122154000Y-86448000D03*
X124879918Y-83669571D03*
X124144000Y-83338000D03*
X121432463Y-86102476D03*
X122821716Y-87080183D03*
X123664000Y-79818000D03*
X131224000Y-76458000D03*
X131234000Y-77468000D03*
X123054000Y-80648000D03*
X126804000Y-79768000D03*
X126804000Y-80658000D03*
X126004000Y-80658000D03*
X126004000Y-79788000D03*
X126904000Y-84878000D03*
X121214000Y-90648000D03*
X133744000Y-78998000D03*
X122776984Y-79834868D03*
X118854000Y-77748000D03*
X132124000Y-93398000D03*
X122834000Y-82708000D03*
X120254000Y-85048000D03*
X119535464Y-84163920D03*
X116254147Y-84838147D03*
X128004000Y-87508000D03*
X123373010Y-90128000D03*
X125894669Y-84463707D03*
X117531819Y-84889357D03*
X118156819Y-85397666D03*
X116879147Y-85377952D03*
X132114000Y-92008000D03*
X127284412Y-83211187D03*
D24*
X128664000Y-91768000D02*
X129354000Y-92458000D01*
X128664000Y-90896000D02*
X128664000Y-91768000D01*
X127819000Y-90026000D02*
X127819000Y-90051000D01*
X127719000Y-90051000D02*
X127719000Y-90026000D01*
X128280000Y-90612000D02*
X127719000Y-90051000D01*
X128380000Y-90612000D02*
X128280000Y-90612000D01*
X128380000Y-90612000D02*
X128664000Y-90896000D01*
X127819000Y-90051000D02*
X128380000Y-90612000D01*
X125379000Y-87993000D02*
X125379000Y-87433000D01*
X126174000Y-88788000D02*
X125379000Y-87993000D01*
X125379000Y-87433000D02*
X125379000Y-87604412D01*
X125379000Y-86099000D02*
X125379000Y-87433000D01*
X127719000Y-90026000D02*
X127544000Y-89851000D01*
X126814000Y-88788000D02*
X126174000Y-88788000D01*
X127544000Y-89851000D02*
X127544000Y-89518000D01*
X127544000Y-89518000D02*
X126814000Y-88788000D01*
X119774000Y-93558000D02*
X121154000Y-93558000D01*
X121154000Y-93558000D02*
X121184000Y-93588000D01*
X117884000Y-86998000D02*
X117894000Y-86988000D01*
X116094000Y-86998000D02*
X117884000Y-86998000D01*
X116094000Y-86998000D02*
X116094000Y-86588000D01*
X116094000Y-86588000D02*
X115594000Y-86088000D01*
X122719405Y-83771095D02*
X122719405Y-83499752D01*
X121466500Y-84186500D02*
X122304000Y-84186500D01*
X122304000Y-84186500D02*
X122719405Y-83771095D01*
X121184000Y-92423736D02*
X121184000Y-92848000D01*
X121184000Y-91738000D02*
X121184000Y-92423736D01*
X119498000Y-88689000D02*
X119790000Y-88689000D01*
X119790000Y-88689000D02*
X120879000Y-89778000D01*
X126379000Y-86099000D02*
X126379000Y-87043000D01*
X126379000Y-87043000D02*
X126754000Y-87418000D01*
X128954000Y-79686500D02*
X128952500Y-79688000D01*
X129791500Y-79686500D02*
X128954000Y-79686500D01*
X126444000Y-82031590D02*
X126444000Y-82218000D01*
X129791500Y-79686500D02*
X128789090Y-79686500D01*
X128789090Y-79686500D02*
X126444000Y-82031590D01*
X132064000Y-79693000D02*
X132064000Y-79131590D01*
X129964000Y-76843000D02*
X129964000Y-76288000D01*
X129964000Y-76288000D02*
X130524000Y-75728000D01*
X129964000Y-76843000D02*
X129619000Y-76843000D01*
X129619000Y-76843000D02*
X129134000Y-77328000D01*
X118823480Y-76167480D02*
X118593480Y-76167480D01*
X118593480Y-76167480D02*
X118084000Y-75658000D01*
X133524000Y-89553000D02*
X133065985Y-89553000D01*
X133065985Y-89553000D02*
X132949000Y-89669985D01*
X132209002Y-87128000D02*
X131914000Y-87128000D01*
X132889000Y-88168000D02*
X132889000Y-87807998D01*
X132889000Y-87807998D02*
X132209002Y-87128000D01*
X132824520Y-86048520D02*
X132863406Y-86048520D01*
X132863406Y-86048520D02*
X133468443Y-86653557D01*
X133849000Y-92018000D02*
X133859000Y-92008000D01*
X133849000Y-93398000D02*
X133849000Y-92018000D01*
X125533000Y-90026000D02*
X126869000Y-90026000D01*
X130499000Y-89568000D02*
X130644000Y-89568000D01*
X130644000Y-89568000D02*
X131284000Y-88928000D01*
X123379000Y-77774000D02*
X123379000Y-78577202D01*
X123379000Y-78577202D02*
X123119692Y-78836510D01*
X123010394Y-78945808D02*
X122691808Y-78945808D01*
X123379000Y-78577202D02*
X123010394Y-78945808D01*
X122691808Y-78945808D02*
X122274000Y-78528000D01*
X119957058Y-78529942D02*
X117682058Y-78529942D01*
X122274000Y-78528000D02*
X119959000Y-78528000D01*
X119959000Y-78528000D02*
X119957058Y-78529942D01*
X123649000Y-88689000D02*
X122748010Y-89589990D01*
X123674000Y-88689000D02*
X123649000Y-88689000D01*
X125533000Y-90026000D02*
X125533000Y-89224825D01*
X125533000Y-89224825D02*
X125557059Y-89200766D01*
X119774000Y-93558000D02*
X118350116Y-93558000D01*
X118350116Y-93558000D02*
X117877058Y-94031058D01*
X133084000Y-75728000D02*
X133084000Y-76588000D01*
X116514000Y-80288000D02*
X115806894Y-80288000D01*
X115806894Y-80288000D02*
X115574000Y-80520894D01*
X115574000Y-80520894D02*
X115574000Y-82548000D01*
X115574000Y-82548000D02*
X115804000Y-82778000D01*
X133849000Y-94143000D02*
X133594000Y-94398000D01*
X133849000Y-93398000D02*
X133849000Y-94143000D01*
X133854881Y-92003881D02*
X133859000Y-92008000D01*
X133854881Y-91202967D02*
X133854881Y-92003881D01*
X121184000Y-93588000D02*
X121184000Y-91738000D01*
X126869000Y-94323000D02*
X126794000Y-94398000D01*
X126869000Y-90026000D02*
X126869000Y-94323000D01*
X125504000Y-79248000D02*
X125504000Y-79163000D01*
X125378999Y-79373001D02*
X125504000Y-79248000D01*
X125378999Y-81152999D02*
X125378999Y-79373001D01*
X126444000Y-82218000D02*
X125378999Y-81152999D01*
X129639000Y-76823000D02*
X129619000Y-76843000D01*
X130164000Y-76823000D02*
X129639000Y-76823000D01*
X118910464Y-85859464D02*
X118910464Y-84908000D01*
X118694000Y-86188000D02*
X119449000Y-86188000D01*
X117894000Y-86988000D02*
X118694000Y-86188000D01*
X119239000Y-86188000D02*
X118910464Y-85859464D01*
X119449000Y-86188000D02*
X119239000Y-86188000D01*
X122748010Y-92902010D02*
X124244000Y-94398000D01*
X122748010Y-89589990D02*
X122748010Y-92902010D01*
X124244000Y-94398000D02*
X126794000Y-94398000D01*
X117784001Y-74218010D02*
X117844000Y-74218010D01*
X118084000Y-75658000D02*
X117784001Y-75358001D01*
X117784001Y-75358001D02*
X117784001Y-74218010D01*
X135613990Y-91517990D02*
X135613990Y-91848000D01*
X135598966Y-91502966D02*
X135613990Y-91517990D01*
X133854881Y-91202967D02*
X134154880Y-91502966D01*
X134154880Y-91502966D02*
X135598966Y-91502966D01*
X131914000Y-94398000D02*
X131914000Y-95517990D01*
X131914000Y-94398000D02*
X133594000Y-94398000D01*
X126794000Y-94398000D02*
X131914000Y-94398000D01*
X133084000Y-77012264D02*
X133084000Y-76588000D01*
X133084000Y-78123000D02*
X133084000Y-77012264D01*
X132064000Y-79143000D02*
X133084000Y-78123000D01*
X132064000Y-79693000D02*
X132064000Y-79143000D01*
X133849000Y-93398000D02*
X133849000Y-94753000D01*
X133849000Y-94753000D02*
X133964000Y-94868000D01*
X124879000Y-86936500D02*
X124879000Y-86099000D01*
X124879000Y-87383000D02*
X124879000Y-86099000D01*
X124879000Y-87853000D02*
X124879000Y-87383000D01*
X124683000Y-91887000D02*
X125254000Y-92458000D01*
X124683000Y-90026000D02*
X124683000Y-91887000D01*
X124879000Y-89830000D02*
X124683000Y-90026000D01*
X124879000Y-86099000D02*
X124879000Y-89830000D01*
X132124000Y-90403000D02*
X132119000Y-90403000D01*
X132119000Y-90403000D02*
X131444000Y-91078000D01*
X133524000Y-90403000D02*
X132124000Y-90403000D01*
X125879000Y-86936500D02*
X125879000Y-86099000D01*
X129345500Y-90403000D02*
X132124000Y-90403000D01*
X129345500Y-90385910D02*
X129345500Y-90403000D01*
X125879000Y-86099000D02*
X125879000Y-87468002D01*
X126453999Y-88043001D02*
X126998999Y-88043001D01*
X126998999Y-88043001D02*
X127013998Y-88058000D01*
X125879000Y-87468002D02*
X126453999Y-88043001D01*
X127013998Y-88058000D02*
X127017590Y-88058000D01*
X127017590Y-88058000D02*
X129345500Y-90385910D01*
X124879000Y-77774000D02*
X124879000Y-83668653D01*
X124879000Y-83668653D02*
X124879918Y-83669571D01*
X122154000Y-86448000D02*
X122154000Y-87695000D01*
X122154000Y-87695000D02*
X122298000Y-87839000D01*
X122298000Y-87839000D02*
X123674000Y-87839000D01*
X119498000Y-87839000D02*
X120898000Y-87839000D01*
X124379000Y-77774000D02*
X124379000Y-83103000D01*
X124379000Y-83103000D02*
X124144000Y-83338000D01*
X120898000Y-87839000D02*
X120898000Y-86654000D01*
X120898000Y-86654000D02*
X120898000Y-86636939D01*
X120898000Y-86636939D02*
X121432463Y-86102476D01*
X132039000Y-89468000D02*
X132124000Y-89553000D01*
X132039000Y-88843000D02*
X132039000Y-89468000D01*
X132039000Y-88168000D02*
X132039000Y-88843000D01*
X117894000Y-88528000D02*
X117894000Y-89778000D01*
X117894000Y-89778000D02*
X118644000Y-90528000D01*
X119744000Y-90528000D02*
X119774000Y-90558000D01*
X118644000Y-90528000D02*
X119744000Y-90528000D01*
X117919000Y-88528000D02*
X118754000Y-87693000D01*
X118754000Y-87372998D02*
X119048998Y-87078000D01*
X118754000Y-87693000D02*
X118754000Y-87372998D01*
X120109000Y-86783000D02*
X120109000Y-86208000D01*
X119814000Y-87078000D02*
X120109000Y-86783000D01*
X119048998Y-87078000D02*
X119814000Y-87078000D01*
X121466500Y-84850500D02*
X121466500Y-84686500D01*
X120109000Y-86208000D02*
X121466500Y-84850500D01*
X122879000Y-86099000D02*
X122879000Y-87133000D01*
X122879000Y-87133000D02*
X122814000Y-87198000D01*
X119874000Y-90658000D02*
X119774000Y-90558000D01*
X120772990Y-90658000D02*
X119874000Y-90658000D01*
X122658290Y-77553290D02*
X122879000Y-77774000D01*
X122156362Y-77051362D02*
X122658290Y-77553290D01*
X119707362Y-77051362D02*
X122156362Y-77051362D01*
X119424520Y-76768520D02*
X119707362Y-77051362D01*
X117087362Y-77051362D02*
X116514000Y-76478000D01*
X119707362Y-77051362D02*
X117087362Y-77051362D01*
X123664000Y-80668000D02*
X123664000Y-79818000D01*
X131009000Y-77693000D02*
X131234000Y-77468000D01*
X129964000Y-77693000D02*
X131009000Y-77693000D01*
X131234000Y-76468000D02*
X131224000Y-76458000D01*
X131234000Y-77468000D02*
X131234000Y-76468000D01*
X123074000Y-80668000D02*
X123054000Y-80648000D01*
X129791500Y-77865500D02*
X129964000Y-77693000D01*
X129791500Y-79186500D02*
X129791500Y-77865500D01*
X126879000Y-86099000D02*
X126879000Y-84903000D01*
X126879000Y-84903000D02*
X126904000Y-84878000D01*
X121466500Y-84686500D02*
X122457659Y-84686500D01*
X123518999Y-83638001D02*
X123518999Y-80772999D01*
X122470500Y-84686500D02*
X123518999Y-83638001D01*
X123518999Y-80772999D02*
X123414000Y-80668000D01*
X121466500Y-84686500D02*
X122470500Y-84686500D01*
X123664000Y-80668000D02*
X123414000Y-80668000D01*
X123414000Y-80668000D02*
X123074000Y-80668000D01*
X123524000Y-79958000D02*
X123664000Y-79818000D01*
X123518999Y-80772999D02*
X123518999Y-80688735D01*
X123518999Y-80688735D02*
X123524000Y-80683734D01*
X123054000Y-80648000D02*
X123184000Y-80648000D01*
X123184000Y-80648000D02*
X123274000Y-80558000D01*
X123524000Y-80683734D02*
X123524000Y-80558000D01*
X123274000Y-80558000D02*
X123524000Y-80558000D01*
X123524000Y-80558000D02*
X123524000Y-79958000D01*
X119864000Y-90648000D02*
X119774000Y-90558000D01*
X121214000Y-90648000D02*
X119864000Y-90648000D01*
X126804000Y-79858000D02*
X126004000Y-80658000D01*
X126804000Y-79768000D02*
X126804000Y-79858000D01*
X126004000Y-79858000D02*
X126804000Y-80658000D01*
X126004000Y-79788000D02*
X126004000Y-79858000D01*
X127103999Y-79468001D02*
X127103999Y-79458001D01*
X126804000Y-79768000D02*
X127103999Y-79468001D01*
X127375500Y-79186500D02*
X129791500Y-79186500D01*
X127103999Y-79458001D02*
X127375500Y-79186500D01*
X129719000Y-88168000D02*
X132039000Y-88168000D01*
X133664000Y-79078000D02*
X133744000Y-78998000D01*
X133664000Y-79693000D02*
X133664000Y-79078000D01*
X129984000Y-77673000D02*
X129791500Y-77865500D01*
X130164000Y-77673000D02*
X129984000Y-77673000D01*
X121466500Y-84960500D02*
X121466500Y-84686500D01*
X120229000Y-86198000D02*
X121466500Y-84960500D01*
X119924000Y-87078000D02*
X119048998Y-87078000D01*
X120229000Y-86773000D02*
X119924000Y-87078000D01*
X120229000Y-86198000D02*
X120229000Y-86773000D01*
X135473442Y-90292440D02*
X135613990Y-90292440D01*
X132039000Y-88843000D02*
X134024002Y-88843000D01*
X134024002Y-88843000D02*
X135473442Y-90292440D01*
X123879000Y-78713612D02*
X122994612Y-79598000D01*
X123879000Y-77774000D02*
X123879000Y-78713612D01*
X122994612Y-79598000D02*
X122994612Y-79617240D01*
X122994612Y-79617240D02*
X122776984Y-79834868D01*
X118854000Y-77748000D02*
X116514000Y-77748000D01*
X115228455Y-79033545D02*
X114314010Y-79033545D01*
X116514000Y-77748000D02*
X115228455Y-79033545D01*
X116684000Y-79188000D02*
X116514000Y-79018000D01*
X120354000Y-79188000D02*
X116684000Y-79188000D01*
X120355500Y-79186500D02*
X120354000Y-79188000D01*
X121466500Y-79186500D02*
X120355500Y-79186500D01*
X116514000Y-79018000D02*
X116264000Y-79018000D01*
X116514000Y-79018000D02*
X116014001Y-79517999D01*
X115940485Y-79517999D02*
X115104000Y-80354484D01*
X116014001Y-79517999D02*
X115940485Y-79517999D01*
X115104000Y-80354484D02*
X115104000Y-80358000D01*
X114502890Y-80959110D02*
X114314010Y-80959110D01*
X115104000Y-80358000D02*
X114502890Y-80959110D01*
X124186220Y-95450220D02*
X124186220Y-95517990D01*
X122298000Y-88689000D02*
X122298000Y-93562000D01*
X122298000Y-93562000D02*
X124186220Y-95450220D01*
X120898000Y-88689000D02*
X120898000Y-88772000D01*
X120898000Y-88772000D02*
X121847990Y-89721990D01*
X121847990Y-89721990D02*
X121847990Y-94041990D01*
X122630665Y-94824665D02*
X122630665Y-95517990D01*
X121847990Y-94041990D02*
X122630665Y-94824665D01*
X132999000Y-93398000D02*
X132124000Y-93398000D01*
X122812500Y-82686500D02*
X122834000Y-82708000D01*
X121466500Y-82686500D02*
X122812500Y-82686500D01*
X123998604Y-84312604D02*
X124016636Y-84294572D01*
X132223480Y-85447480D02*
X129153480Y-85447480D01*
X129153480Y-85447480D02*
X127542187Y-83836187D01*
X125638303Y-83836187D02*
X125240245Y-84234245D01*
X125885813Y-83836187D02*
X125638303Y-83836187D01*
X125240245Y-84234245D02*
X125504919Y-83969572D01*
X125885813Y-83836187D02*
X125682187Y-83836187D01*
X127542187Y-83836187D02*
X125885813Y-83836187D01*
X123379000Y-85273000D02*
X123384000Y-85268000D01*
X123379000Y-86099000D02*
X123379000Y-85273000D01*
X123384000Y-84927208D02*
X123428990Y-84882218D01*
X123384000Y-85268000D02*
X123384000Y-84927208D01*
X125179919Y-84294572D02*
X125240245Y-84234245D01*
X124016636Y-84294572D02*
X125179919Y-84294572D01*
X123428990Y-84882218D02*
X124016636Y-84294572D01*
X127379000Y-86099000D02*
X127379000Y-86936500D01*
X127379000Y-87783000D02*
X127379000Y-86099000D01*
X127764000Y-88168000D02*
X127379000Y-87783000D01*
X127764000Y-88168000D02*
X128869000Y-88168000D01*
X128869000Y-88788000D02*
X129649000Y-89568000D01*
X128869000Y-88168000D02*
X128869000Y-88788000D01*
X132039000Y-80543000D02*
X132064000Y-80543000D01*
X130895500Y-81686500D02*
X132039000Y-80543000D01*
X129791500Y-81686500D02*
X130895500Y-81686500D01*
X132839000Y-80543000D02*
X133664000Y-80543000D01*
X132064000Y-80543000D02*
X132839000Y-80543000D01*
X135378445Y-79403555D02*
X135613990Y-79403555D01*
X133664000Y-80543000D02*
X134239000Y-80543000D01*
X134239000Y-80543000D02*
X135378445Y-79403555D01*
X116094000Y-90878000D02*
X117274000Y-92058000D01*
X116094000Y-88538000D02*
X116094000Y-90878000D01*
X117274000Y-92058000D02*
X119674000Y-92058000D01*
X117252057Y-95156057D02*
X117613990Y-95517990D01*
X117274000Y-93308000D02*
X117274000Y-92058000D01*
X117252057Y-93329943D02*
X117274000Y-93308000D01*
X117252057Y-95156057D02*
X117252057Y-93329943D01*
X128379000Y-86099000D02*
X131816412Y-86099000D01*
X133956226Y-87278558D02*
X135414553Y-88736885D01*
X135414553Y-88736885D02*
X135613990Y-88736885D01*
X132995970Y-87278558D02*
X133956226Y-87278558D01*
X132249706Y-86532294D02*
X132995970Y-87278558D01*
X132249706Y-86532294D02*
X132395403Y-86677991D01*
X131816412Y-86099000D02*
X132249706Y-86532294D01*
X129845500Y-84686500D02*
X129864000Y-84668000D01*
X129791500Y-84686500D02*
X129845500Y-84686500D01*
X129945500Y-84686500D02*
X129964000Y-84668000D01*
X129791500Y-84686500D02*
X129945500Y-84686500D01*
X132106532Y-84680528D02*
X132706528Y-84680528D01*
X129791500Y-84686500D02*
X132100560Y-84686500D01*
X132100560Y-84686500D02*
X132106532Y-84680528D01*
X135207330Y-87181330D02*
X135613990Y-87181330D01*
X132706528Y-84680528D02*
X135207330Y-87181330D01*
X129791500Y-84186500D02*
X133652500Y-84186500D01*
X135091775Y-85625775D02*
X135613990Y-85625775D01*
X133652500Y-84186500D02*
X135091775Y-85625775D01*
X133889732Y-83686500D02*
X133891232Y-83688000D01*
X129791500Y-83686500D02*
X133889732Y-83686500D01*
X135613990Y-83740210D02*
X135613990Y-84070220D01*
X133891232Y-83688000D02*
X135561780Y-83688000D01*
X135561780Y-83688000D02*
X135613990Y-83740210D01*
X132989000Y-82468000D02*
X132989000Y-82004410D01*
X131210498Y-82186500D02*
X131578999Y-81817999D01*
X129791500Y-82186500D02*
X131210498Y-82186500D01*
X132989000Y-81892998D02*
X132914001Y-81817999D01*
X132989000Y-82468000D02*
X132989000Y-81892998D01*
X131578999Y-81817999D02*
X132914001Y-81817999D01*
X135071482Y-80959110D02*
X135613990Y-80959110D01*
X134212593Y-81817999D02*
X135071482Y-80959110D01*
X132914001Y-81817999D02*
X134212593Y-81817999D01*
X134927335Y-82514665D02*
X135613990Y-82514665D01*
X129791500Y-83186500D02*
X134255500Y-83186500D01*
X134255500Y-83186500D02*
X134927335Y-82514665D01*
X119399560Y-75663560D02*
X119399560Y-74218010D01*
X120334000Y-76598000D02*
X119399560Y-75663560D01*
X125379000Y-76970798D02*
X125006202Y-76598000D01*
X125006202Y-76598000D02*
X120334000Y-76598000D01*
X125379000Y-77774000D02*
X125379000Y-76970798D01*
X125369020Y-76093020D02*
X121839010Y-76093020D01*
X125879000Y-77774000D02*
X125879000Y-76603000D01*
X125879000Y-76603000D02*
X125369020Y-76093020D01*
X120955115Y-75209125D02*
X120955115Y-74218010D01*
X121839010Y-76093020D02*
X120955115Y-75209125D01*
X125555420Y-75643010D02*
X123389000Y-75643010D01*
X126379000Y-77774000D02*
X126379000Y-76466590D01*
X126379000Y-76466590D02*
X125555420Y-75643010D01*
X122510670Y-74764680D02*
X122510670Y-74218010D01*
X123389000Y-75643010D02*
X122510670Y-74764680D01*
X125741820Y-75193000D02*
X124861779Y-75193001D01*
X124861779Y-75193001D02*
X124066225Y-74397447D01*
X126879000Y-76330180D02*
X125741820Y-75193000D01*
X124066225Y-74397447D02*
X124066225Y-74218010D01*
X126879000Y-77774000D02*
X126879000Y-76330180D01*
X127379000Y-77774000D02*
X127379000Y-76813000D01*
X125621780Y-74436550D02*
X125621780Y-74218010D01*
X127379000Y-76813000D02*
X127379000Y-76193770D01*
X127379000Y-76193770D02*
X125621780Y-74436550D01*
X127879000Y-74919675D02*
X127177335Y-74218010D01*
X127879000Y-77774000D02*
X127879000Y-74919675D01*
X128379000Y-77774000D02*
X128379000Y-76783000D01*
X128379000Y-74571900D02*
X128732890Y-74218010D01*
X128379000Y-77774000D02*
X128379000Y-74571900D01*
X129791500Y-80186500D02*
X130645489Y-80186500D01*
X130963989Y-79868000D02*
X130963989Y-78868011D01*
X130645489Y-80186500D02*
X130963989Y-79868000D01*
X130963989Y-78868011D02*
X131964000Y-77868000D01*
X131964000Y-76242998D02*
X130844000Y-75122998D01*
X131964000Y-77868000D02*
X131964000Y-76242998D01*
X130844000Y-75122998D02*
X130844000Y-75118000D01*
X130288445Y-74562445D02*
X130288445Y-74218010D01*
X130844000Y-75118000D02*
X130288445Y-74562445D01*
X130845498Y-80686500D02*
X131413999Y-80117999D01*
X129791500Y-80686500D02*
X130845498Y-80686500D01*
X131413999Y-80117999D02*
X131413999Y-79132999D01*
X131844000Y-74958000D02*
X131844000Y-74218010D01*
X132414010Y-75528010D02*
X131844000Y-74958000D01*
X132414010Y-78054400D02*
X132414010Y-75528010D01*
X131413999Y-79132999D02*
X131413999Y-79054411D01*
X131413999Y-79054411D02*
X132414010Y-78054400D01*
X120663298Y-83686500D02*
X121466500Y-83686500D01*
X120254000Y-84095798D02*
X120663298Y-83686500D01*
X120254000Y-85048000D02*
X120254000Y-84095798D01*
X121466500Y-83186500D02*
X120512884Y-83186500D01*
X120512884Y-83186500D02*
X119535464Y-84163920D01*
X120214382Y-80686500D02*
X116254147Y-84646735D01*
X121466500Y-80686500D02*
X120214382Y-80686500D01*
X116254147Y-84646735D02*
X116254147Y-84838147D01*
X121466500Y-80186500D02*
X120021910Y-80186500D01*
X114952645Y-85255765D02*
X114314010Y-85255765D01*
X120021910Y-80186500D02*
X114952645Y-85255765D01*
X121466500Y-79686500D02*
X119885500Y-79686500D01*
X119885500Y-79736490D02*
X119835509Y-79736491D01*
X119885500Y-79686500D02*
X119885500Y-79736490D01*
X119835509Y-79736491D02*
X115504000Y-84068000D01*
X115504000Y-84068000D02*
X115024000Y-84068000D01*
X115021780Y-84070220D02*
X114314010Y-84070220D01*
X115024000Y-84068000D02*
X115021780Y-84070220D01*
X127879000Y-86099000D02*
X127879000Y-87383000D01*
X127879000Y-87383000D02*
X128004000Y-87508000D01*
X124379000Y-86099000D02*
X124379000Y-89119998D01*
X124379000Y-89119998D02*
X123692499Y-89806499D01*
X123692499Y-89806499D02*
X123692499Y-89808511D01*
X123692499Y-89808511D02*
X123373010Y-90128000D01*
X123879000Y-85261500D02*
X124312500Y-84828000D01*
X123879000Y-86099000D02*
X123879000Y-85261500D01*
X125530376Y-84828000D02*
X125894669Y-84463707D01*
X124312500Y-84828000D02*
X125530376Y-84828000D01*
X132020500Y-82686500D02*
X132139000Y-82568000D01*
X129791500Y-82686500D02*
X132020500Y-82686500D01*
X120845500Y-81686500D02*
X120820510Y-81711490D01*
X120820510Y-81711490D02*
X120462212Y-81711490D01*
X121466500Y-81686500D02*
X120845500Y-81686500D01*
X117531819Y-84641883D02*
X117531819Y-84889357D01*
X120462212Y-81711490D02*
X117531819Y-84641883D01*
X118633999Y-84181501D02*
X120629000Y-82186500D01*
X120629000Y-82186500D02*
X121466500Y-82186500D01*
X118628611Y-84181501D02*
X118633999Y-84181501D01*
X118156819Y-84653293D02*
X118628611Y-84181501D01*
X118156819Y-85397666D02*
X118156819Y-84653293D01*
X121466500Y-81186500D02*
X120629000Y-81186500D01*
X120350792Y-81186500D02*
X116879147Y-84658145D01*
X121466500Y-81186500D02*
X120350792Y-81186500D01*
X116879147Y-84658145D02*
X116879147Y-85377952D01*
X133009000Y-92008000D02*
X132114000Y-92008000D01*
X127284000Y-82698000D02*
X127284000Y-81828000D01*
X127925500Y-81186500D02*
X129791500Y-81186500D01*
X127284000Y-81828000D02*
X127925500Y-81186500D01*
X127284000Y-82698000D02*
X127284000Y-83210775D01*
X127284000Y-83210775D02*
X127284412Y-83211187D01*
G36*
X115247519Y-92586736D02*
G01*
X115375198Y-92825605D01*
X115547024Y-93034976D01*
X115756395Y-93206802D01*
X115995264Y-93334481D01*
X116254453Y-93413105D01*
X116456451Y-93433000D01*
X116752058Y-93433000D01*
X116752057Y-95131497D01*
X116749638Y-95156057D01*
X116752057Y-95180616D01*
X116759292Y-95254073D01*
X116787882Y-95348323D01*
X116834311Y-95435186D01*
X116861241Y-95468000D01*
X114364000Y-95468000D01*
X114364000Y-92724814D01*
X114944000Y-92724814D01*
X115017513Y-92717574D01*
X115088200Y-92696131D01*
X115153347Y-92661309D01*
X115210448Y-92614448D01*
X115243652Y-92573988D01*
X115247519Y-92586736D01*
X115247519Y-92586736D01*
G37*
X115247519Y-92586736D02*
X115375198Y-92825605D01*
X115547024Y-93034976D01*
X115756395Y-93206802D01*
X115995264Y-93334481D01*
X116254453Y-93413105D01*
X116456451Y-93433000D01*
X116752058Y-93433000D01*
X116752057Y-95131497D01*
X116749638Y-95156057D01*
X116752057Y-95180616D01*
X116759292Y-95254073D01*
X116787882Y-95348323D01*
X116834311Y-95435186D01*
X116861241Y-95468000D01*
X114364000Y-95468000D01*
X114364000Y-92724814D01*
X114944000Y-92724814D01*
X115017513Y-92717574D01*
X115088200Y-92696131D01*
X115153347Y-92661309D01*
X115210448Y-92614448D01*
X115243652Y-92573988D01*
X115247519Y-92586736D01*
G36*
X125783572Y-89104678D02*
G01*
X125662000Y-89226250D01*
X125662000Y-89897000D01*
X126740000Y-89897000D01*
X126740000Y-89877000D01*
X126998000Y-89877000D01*
X126998000Y-89897000D01*
X127018000Y-89897000D01*
X127018000Y-90155000D01*
X126998000Y-90155000D01*
X126998000Y-90825750D01*
X127156250Y-90984000D01*
X127169000Y-90987063D01*
X127293090Y-90974841D01*
X127412411Y-90938646D01*
X127522378Y-90879867D01*
X127618764Y-90800764D01*
X127678633Y-90727814D01*
X127688708Y-90727814D01*
X127909079Y-90948186D01*
X127924736Y-90967264D01*
X128000871Y-91029746D01*
X128078592Y-91071289D01*
X128055869Y-91113800D01*
X128034426Y-91184487D01*
X128027186Y-91258000D01*
X128027186Y-93658000D01*
X128034426Y-93731513D01*
X128055869Y-93802200D01*
X128090691Y-93867347D01*
X128137552Y-93924448D01*
X128194653Y-93971309D01*
X128259800Y-94006131D01*
X128330487Y-94027574D01*
X128404000Y-94034814D01*
X130304000Y-94034814D01*
X130377513Y-94027574D01*
X130448200Y-94006131D01*
X130513347Y-93971309D01*
X130570448Y-93924448D01*
X130617309Y-93867347D01*
X130652131Y-93802200D01*
X130673574Y-93731513D01*
X130680814Y-93658000D01*
X130680814Y-91258000D01*
X130673574Y-91184487D01*
X130652131Y-91113800D01*
X130617309Y-91048653D01*
X130570448Y-90991552D01*
X130513347Y-90944691D01*
X130448200Y-90909869D01*
X130425556Y-90903000D01*
X130790586Y-90903000D01*
X130769000Y-91011518D01*
X130769000Y-91144482D01*
X130794940Y-91274890D01*
X130845823Y-91397732D01*
X130919693Y-91508287D01*
X131013713Y-91602307D01*
X131124268Y-91676177D01*
X131247110Y-91727060D01*
X131377518Y-91753000D01*
X131489010Y-91753000D01*
X131464940Y-91811110D01*
X131439000Y-91941518D01*
X131439000Y-92074482D01*
X131464940Y-92204890D01*
X131515823Y-92327732D01*
X131589693Y-92438287D01*
X131683713Y-92532307D01*
X131794268Y-92606177D01*
X131917110Y-92657060D01*
X132047518Y-92683000D01*
X132180482Y-92683000D01*
X132310890Y-92657060D01*
X132433732Y-92606177D01*
X132443113Y-92599909D01*
X132499653Y-92646309D01*
X132564800Y-92681131D01*
X132635156Y-92702474D01*
X132625487Y-92703426D01*
X132554800Y-92724869D01*
X132489653Y-92759691D01*
X132441751Y-92799003D01*
X132320890Y-92748940D01*
X132190482Y-92723000D01*
X132057518Y-92723000D01*
X131927110Y-92748940D01*
X131804268Y-92799823D01*
X131693713Y-92873693D01*
X131599693Y-92967713D01*
X131525823Y-93078268D01*
X131474940Y-93201110D01*
X131449000Y-93331518D01*
X131449000Y-93464482D01*
X131474940Y-93594890D01*
X131525823Y-93717732D01*
X131599693Y-93828287D01*
X131693713Y-93922307D01*
X131804268Y-93996177D01*
X131927110Y-94047060D01*
X132057518Y-94073000D01*
X132190482Y-94073000D01*
X132320890Y-94047060D01*
X132441751Y-93996997D01*
X132489653Y-94036309D01*
X132554800Y-94071131D01*
X132625487Y-94092574D01*
X132699000Y-94099814D01*
X133039367Y-94099814D01*
X133099236Y-94172764D01*
X133195622Y-94251867D01*
X133305589Y-94310646D01*
X133424910Y-94346841D01*
X133549000Y-94359063D01*
X133561750Y-94356000D01*
X133720000Y-94197750D01*
X133720000Y-93527000D01*
X133978000Y-93527000D01*
X133978000Y-94197750D01*
X134136250Y-94356000D01*
X134149000Y-94359063D01*
X134273090Y-94346841D01*
X134392411Y-94310646D01*
X134502378Y-94251867D01*
X134598764Y-94172764D01*
X134677867Y-94076378D01*
X134736646Y-93966411D01*
X134772841Y-93847090D01*
X134785063Y-93723000D01*
X134782000Y-93685250D01*
X134623750Y-93527000D01*
X133978000Y-93527000D01*
X133720000Y-93527000D01*
X133700000Y-93527000D01*
X133700000Y-93269000D01*
X133720000Y-93269000D01*
X133720000Y-92817750D01*
X133730000Y-92807750D01*
X133730000Y-92137000D01*
X133710000Y-92137000D01*
X133710000Y-91879000D01*
X133730000Y-91879000D01*
X133730000Y-91859000D01*
X133988000Y-91859000D01*
X133988000Y-91879000D01*
X134008000Y-91879000D01*
X134008000Y-92137000D01*
X133988000Y-92137000D01*
X133988000Y-92588250D01*
X133978000Y-92598250D01*
X133978000Y-93269000D01*
X134623750Y-93269000D01*
X134782000Y-93110750D01*
X134785063Y-93073000D01*
X134773720Y-92957830D01*
X134819910Y-92971841D01*
X134944000Y-92984063D01*
X135564000Y-92981399D01*
X135564000Y-95468000D01*
X133097485Y-95468000D01*
X133100063Y-94868000D01*
X133087841Y-94743910D01*
X133051646Y-94624589D01*
X132992867Y-94514622D01*
X132913764Y-94418236D01*
X132817378Y-94339133D01*
X132707411Y-94280354D01*
X132588090Y-94244159D01*
X132464000Y-94231937D01*
X132251250Y-94235000D01*
X132093000Y-94393250D01*
X132093000Y-95468000D01*
X131835000Y-95468000D01*
X131835000Y-94393250D01*
X131676750Y-94235000D01*
X131464000Y-94231937D01*
X131339910Y-94244159D01*
X131220589Y-94280354D01*
X131110622Y-94339133D01*
X131014236Y-94418236D01*
X130950932Y-94495371D01*
X130908440Y-94491186D01*
X129908440Y-94491186D01*
X129834927Y-94498426D01*
X129764240Y-94519869D01*
X129699093Y-94554691D01*
X129641992Y-94601552D01*
X129630663Y-94615357D01*
X129619333Y-94601552D01*
X129562232Y-94554691D01*
X129497085Y-94519869D01*
X129426398Y-94498426D01*
X129352885Y-94491186D01*
X128352885Y-94491186D01*
X128279372Y-94498426D01*
X128208685Y-94519869D01*
X128143538Y-94554691D01*
X128086437Y-94601552D01*
X128075108Y-94615357D01*
X128063778Y-94601552D01*
X128006677Y-94554691D01*
X127941530Y-94519869D01*
X127870843Y-94498426D01*
X127797330Y-94491186D01*
X126797330Y-94491186D01*
X126723817Y-94498426D01*
X126653130Y-94519869D01*
X126587983Y-94554691D01*
X126530882Y-94601552D01*
X126519553Y-94615357D01*
X126508223Y-94601552D01*
X126451122Y-94554691D01*
X126385975Y-94519869D01*
X126315288Y-94498426D01*
X126241775Y-94491186D01*
X125241775Y-94491186D01*
X125168262Y-94498426D01*
X125097575Y-94519869D01*
X125032428Y-94554691D01*
X124975327Y-94601552D01*
X124963998Y-94615357D01*
X124952668Y-94601552D01*
X124895567Y-94554691D01*
X124830420Y-94519869D01*
X124759733Y-94498426D01*
X124686220Y-94491186D01*
X123934292Y-94491186D01*
X122798000Y-93354895D01*
X122798000Y-90482404D01*
X122848703Y-90558287D01*
X122942723Y-90652307D01*
X123053278Y-90726177D01*
X123176120Y-90777060D01*
X123306528Y-90803000D01*
X123439492Y-90803000D01*
X123569900Y-90777060D01*
X123692742Y-90726177D01*
X123803297Y-90652307D01*
X123897317Y-90558287D01*
X123971187Y-90447732D01*
X124007160Y-90360887D01*
X124013426Y-90424513D01*
X124034869Y-90495200D01*
X124069691Y-90560347D01*
X124116552Y-90617448D01*
X124173653Y-90664309D01*
X124183000Y-90669305D01*
X124183000Y-90902831D01*
X124159800Y-90909869D01*
X124094653Y-90944691D01*
X124037552Y-90991552D01*
X123990691Y-91048653D01*
X123955869Y-91113800D01*
X123934426Y-91184487D01*
X123927186Y-91258000D01*
X123927186Y-93658000D01*
X123934426Y-93731513D01*
X123955869Y-93802200D01*
X123990691Y-93867347D01*
X124037552Y-93924448D01*
X124094653Y-93971309D01*
X124159800Y-94006131D01*
X124230487Y-94027574D01*
X124304000Y-94034814D01*
X126204000Y-94034814D01*
X126277513Y-94027574D01*
X126348200Y-94006131D01*
X126413347Y-93971309D01*
X126470448Y-93924448D01*
X126517309Y-93867347D01*
X126552131Y-93802200D01*
X126573574Y-93731513D01*
X126580814Y-93658000D01*
X126580814Y-91258000D01*
X126573574Y-91184487D01*
X126552131Y-91113800D01*
X126517309Y-91048653D01*
X126470448Y-90991552D01*
X126450791Y-90975420D01*
X126569000Y-90987063D01*
X126581750Y-90984000D01*
X126740000Y-90825750D01*
X126740000Y-90155000D01*
X125662000Y-90155000D01*
X125662000Y-90175000D01*
X125404000Y-90175000D01*
X125404000Y-90155000D01*
X125384000Y-90155000D01*
X125384000Y-89897000D01*
X125404000Y-89897000D01*
X125404000Y-89226250D01*
X125379000Y-89201250D01*
X125379000Y-88700106D01*
X125783572Y-89104678D01*
X125783572Y-89104678D01*
G37*
X125783572Y-89104678D02*
X125662000Y-89226250D01*
X125662000Y-89897000D01*
X126740000Y-89897000D01*
X126740000Y-89877000D01*
X126998000Y-89877000D01*
X126998000Y-89897000D01*
X127018000Y-89897000D01*
X127018000Y-90155000D01*
X126998000Y-90155000D01*
X126998000Y-90825750D01*
X127156250Y-90984000D01*
X127169000Y-90987063D01*
X127293090Y-90974841D01*
X127412411Y-90938646D01*
X127522378Y-90879867D01*
X127618764Y-90800764D01*
X127678633Y-90727814D01*
X127688708Y-90727814D01*
X127909079Y-90948186D01*
X127924736Y-90967264D01*
X128000871Y-91029746D01*
X128078592Y-91071289D01*
X128055869Y-91113800D01*
X128034426Y-91184487D01*
X128027186Y-91258000D01*
X128027186Y-93658000D01*
X128034426Y-93731513D01*
X128055869Y-93802200D01*
X128090691Y-93867347D01*
X128137552Y-93924448D01*
X128194653Y-93971309D01*
X128259800Y-94006131D01*
X128330487Y-94027574D01*
X128404000Y-94034814D01*
X130304000Y-94034814D01*
X130377513Y-94027574D01*
X130448200Y-94006131D01*
X130513347Y-93971309D01*
X130570448Y-93924448D01*
X130617309Y-93867347D01*
X130652131Y-93802200D01*
X130673574Y-93731513D01*
X130680814Y-93658000D01*
X130680814Y-91258000D01*
X130673574Y-91184487D01*
X130652131Y-91113800D01*
X130617309Y-91048653D01*
X130570448Y-90991552D01*
X130513347Y-90944691D01*
X130448200Y-90909869D01*
X130425556Y-90903000D01*
X130790586Y-90903000D01*
X130769000Y-91011518D01*
X130769000Y-91144482D01*
X130794940Y-91274890D01*
X130845823Y-91397732D01*
X130919693Y-91508287D01*
X131013713Y-91602307D01*
X131124268Y-91676177D01*
X131247110Y-91727060D01*
X131377518Y-91753000D01*
X131489010Y-91753000D01*
X131464940Y-91811110D01*
X131439000Y-91941518D01*
X131439000Y-92074482D01*
X131464940Y-92204890D01*
X131515823Y-92327732D01*
X131589693Y-92438287D01*
X131683713Y-92532307D01*
X131794268Y-92606177D01*
X131917110Y-92657060D01*
X132047518Y-92683000D01*
X132180482Y-92683000D01*
X132310890Y-92657060D01*
X132433732Y-92606177D01*
X132443113Y-92599909D01*
X132499653Y-92646309D01*
X132564800Y-92681131D01*
X132635156Y-92702474D01*
X132625487Y-92703426D01*
X132554800Y-92724869D01*
X132489653Y-92759691D01*
X132441751Y-92799003D01*
X132320890Y-92748940D01*
X132190482Y-92723000D01*
X132057518Y-92723000D01*
X131927110Y-92748940D01*
X131804268Y-92799823D01*
X131693713Y-92873693D01*
X131599693Y-92967713D01*
X131525823Y-93078268D01*
X131474940Y-93201110D01*
X131449000Y-93331518D01*
X131449000Y-93464482D01*
X131474940Y-93594890D01*
X131525823Y-93717732D01*
X131599693Y-93828287D01*
X131693713Y-93922307D01*
X131804268Y-93996177D01*
X131927110Y-94047060D01*
X132057518Y-94073000D01*
X132190482Y-94073000D01*
X132320890Y-94047060D01*
X132441751Y-93996997D01*
X132489653Y-94036309D01*
X132554800Y-94071131D01*
X132625487Y-94092574D01*
X132699000Y-94099814D01*
X133039367Y-94099814D01*
X133099236Y-94172764D01*
X133195622Y-94251867D01*
X133305589Y-94310646D01*
X133424910Y-94346841D01*
X133549000Y-94359063D01*
X133561750Y-94356000D01*
X133720000Y-94197750D01*
X133720000Y-93527000D01*
X133978000Y-93527000D01*
X133978000Y-94197750D01*
X134136250Y-94356000D01*
X134149000Y-94359063D01*
X134273090Y-94346841D01*
X134392411Y-94310646D01*
X134502378Y-94251867D01*
X134598764Y-94172764D01*
X134677867Y-94076378D01*
X134736646Y-93966411D01*
X134772841Y-93847090D01*
X134785063Y-93723000D01*
X134782000Y-93685250D01*
X134623750Y-93527000D01*
X133978000Y-93527000D01*
X133720000Y-93527000D01*
X133700000Y-93527000D01*
X133700000Y-93269000D01*
X133720000Y-93269000D01*
X133720000Y-92817750D01*
X133730000Y-92807750D01*
X133730000Y-92137000D01*
X133710000Y-92137000D01*
X133710000Y-91879000D01*
X133730000Y-91879000D01*
X133730000Y-91859000D01*
X133988000Y-91859000D01*
X133988000Y-91879000D01*
X134008000Y-91879000D01*
X134008000Y-92137000D01*
X133988000Y-92137000D01*
X133988000Y-92588250D01*
X133978000Y-92598250D01*
X133978000Y-93269000D01*
X134623750Y-93269000D01*
X134782000Y-93110750D01*
X134785063Y-93073000D01*
X134773720Y-92957830D01*
X134819910Y-92971841D01*
X134944000Y-92984063D01*
X135564000Y-92981399D01*
X135564000Y-95468000D01*
X133097485Y-95468000D01*
X133100063Y-94868000D01*
X133087841Y-94743910D01*
X133051646Y-94624589D01*
X132992867Y-94514622D01*
X132913764Y-94418236D01*
X132817378Y-94339133D01*
X132707411Y-94280354D01*
X132588090Y-94244159D01*
X132464000Y-94231937D01*
X132251250Y-94235000D01*
X132093000Y-94393250D01*
X132093000Y-95468000D01*
X131835000Y-95468000D01*
X131835000Y-94393250D01*
X131676750Y-94235000D01*
X131464000Y-94231937D01*
X131339910Y-94244159D01*
X131220589Y-94280354D01*
X131110622Y-94339133D01*
X131014236Y-94418236D01*
X130950932Y-94495371D01*
X130908440Y-94491186D01*
X129908440Y-94491186D01*
X129834927Y-94498426D01*
X129764240Y-94519869D01*
X129699093Y-94554691D01*
X129641992Y-94601552D01*
X129630663Y-94615357D01*
X129619333Y-94601552D01*
X129562232Y-94554691D01*
X129497085Y-94519869D01*
X129426398Y-94498426D01*
X129352885Y-94491186D01*
X128352885Y-94491186D01*
X128279372Y-94498426D01*
X128208685Y-94519869D01*
X128143538Y-94554691D01*
X128086437Y-94601552D01*
X128075108Y-94615357D01*
X128063778Y-94601552D01*
X128006677Y-94554691D01*
X127941530Y-94519869D01*
X127870843Y-94498426D01*
X127797330Y-94491186D01*
X126797330Y-94491186D01*
X126723817Y-94498426D01*
X126653130Y-94519869D01*
X126587983Y-94554691D01*
X126530882Y-94601552D01*
X126519553Y-94615357D01*
X126508223Y-94601552D01*
X126451122Y-94554691D01*
X126385975Y-94519869D01*
X126315288Y-94498426D01*
X126241775Y-94491186D01*
X125241775Y-94491186D01*
X125168262Y-94498426D01*
X125097575Y-94519869D01*
X125032428Y-94554691D01*
X124975327Y-94601552D01*
X124963998Y-94615357D01*
X124952668Y-94601552D01*
X124895567Y-94554691D01*
X124830420Y-94519869D01*
X124759733Y-94498426D01*
X124686220Y-94491186D01*
X123934292Y-94491186D01*
X122798000Y-93354895D01*
X122798000Y-90482404D01*
X122848703Y-90558287D01*
X122942723Y-90652307D01*
X123053278Y-90726177D01*
X123176120Y-90777060D01*
X123306528Y-90803000D01*
X123439492Y-90803000D01*
X123569900Y-90777060D01*
X123692742Y-90726177D01*
X123803297Y-90652307D01*
X123897317Y-90558287D01*
X123971187Y-90447732D01*
X124007160Y-90360887D01*
X124013426Y-90424513D01*
X124034869Y-90495200D01*
X124069691Y-90560347D01*
X124116552Y-90617448D01*
X124173653Y-90664309D01*
X124183000Y-90669305D01*
X124183000Y-90902831D01*
X124159800Y-90909869D01*
X124094653Y-90944691D01*
X124037552Y-90991552D01*
X123990691Y-91048653D01*
X123955869Y-91113800D01*
X123934426Y-91184487D01*
X123927186Y-91258000D01*
X123927186Y-93658000D01*
X123934426Y-93731513D01*
X123955869Y-93802200D01*
X123990691Y-93867347D01*
X124037552Y-93924448D01*
X124094653Y-93971309D01*
X124159800Y-94006131D01*
X124230487Y-94027574D01*
X124304000Y-94034814D01*
X126204000Y-94034814D01*
X126277513Y-94027574D01*
X126348200Y-94006131D01*
X126413347Y-93971309D01*
X126470448Y-93924448D01*
X126517309Y-93867347D01*
X126552131Y-93802200D01*
X126573574Y-93731513D01*
X126580814Y-93658000D01*
X126580814Y-91258000D01*
X126573574Y-91184487D01*
X126552131Y-91113800D01*
X126517309Y-91048653D01*
X126470448Y-90991552D01*
X126450791Y-90975420D01*
X126569000Y-90987063D01*
X126581750Y-90984000D01*
X126740000Y-90825750D01*
X126740000Y-90155000D01*
X125662000Y-90155000D01*
X125662000Y-90175000D01*
X125404000Y-90175000D01*
X125404000Y-90155000D01*
X125384000Y-90155000D01*
X125384000Y-89897000D01*
X125404000Y-89897000D01*
X125404000Y-89226250D01*
X125379000Y-89201250D01*
X125379000Y-88700106D01*
X125783572Y-89104678D01*
G36*
X118359401Y-93429000D02*
G01*
X119645000Y-93429000D01*
X119645000Y-93409000D01*
X119903000Y-93409000D01*
X119903000Y-93429000D01*
X119923000Y-93429000D01*
X119923000Y-93687000D01*
X119903000Y-93687000D01*
X119903000Y-93707000D01*
X119645000Y-93707000D01*
X119645000Y-93687000D01*
X118359401Y-93687000D01*
X118231679Y-93837857D01*
X118284997Y-93996866D01*
X118387697Y-94161869D01*
X118520615Y-94303666D01*
X118678642Y-94416807D01*
X118855705Y-94496945D01*
X118909586Y-94509485D01*
X118875355Y-94519869D01*
X118810208Y-94554691D01*
X118753107Y-94601552D01*
X118741778Y-94615357D01*
X118730448Y-94601552D01*
X118673347Y-94554691D01*
X118608200Y-94519869D01*
X118537513Y-94498426D01*
X118464000Y-94491186D01*
X117752057Y-94491186D01*
X117752057Y-93454503D01*
X117758580Y-93433000D01*
X118091549Y-93433000D01*
X118293547Y-93413105D01*
X118335237Y-93400459D01*
X118359401Y-93429000D01*
X118359401Y-93429000D01*
G37*
X118359401Y-93429000D02*
X119645000Y-93429000D01*
X119645000Y-93409000D01*
X119903000Y-93409000D01*
X119903000Y-93429000D01*
X119923000Y-93429000D01*
X119923000Y-93687000D01*
X119903000Y-93687000D01*
X119903000Y-93707000D01*
X119645000Y-93707000D01*
X119645000Y-93687000D01*
X118359401Y-93687000D01*
X118231679Y-93837857D01*
X118284997Y-93996866D01*
X118387697Y-94161869D01*
X118520615Y-94303666D01*
X118678642Y-94416807D01*
X118855705Y-94496945D01*
X118909586Y-94509485D01*
X118875355Y-94519869D01*
X118810208Y-94554691D01*
X118753107Y-94601552D01*
X118741778Y-94615357D01*
X118730448Y-94601552D01*
X118673347Y-94554691D01*
X118608200Y-94519869D01*
X118537513Y-94498426D01*
X118464000Y-94491186D01*
X117752057Y-94491186D01*
X117752057Y-93454503D01*
X117758580Y-93433000D01*
X118091549Y-93433000D01*
X118293547Y-93413105D01*
X118335237Y-93400459D01*
X118359401Y-93429000D01*
G36*
X121347991Y-94017420D02*
G01*
X121345571Y-94041990D01*
X121355225Y-94140007D01*
X121383112Y-94231937D01*
X121383816Y-94234257D01*
X121430245Y-94321119D01*
X121492727Y-94397254D01*
X121511809Y-94412914D01*
X121591716Y-94492821D01*
X121575110Y-94491186D01*
X120705019Y-94491186D01*
X120869358Y-94416807D01*
X121027385Y-94303666D01*
X121160303Y-94161869D01*
X121263003Y-93996866D01*
X121316321Y-93837857D01*
X121188601Y-93687002D01*
X121347991Y-93687002D01*
X121347991Y-94017420D01*
X121347991Y-94017420D01*
G37*
X121347991Y-94017420D02*
X121345571Y-94041990D01*
X121355225Y-94140007D01*
X121383112Y-94231937D01*
X121383816Y-94234257D01*
X121430245Y-94321119D01*
X121492727Y-94397254D01*
X121511809Y-94412914D01*
X121591716Y-94492821D01*
X121575110Y-94491186D01*
X120705019Y-94491186D01*
X120869358Y-94416807D01*
X121027385Y-94303666D01*
X121160303Y-94161869D01*
X121263003Y-93996866D01*
X121316321Y-93837857D01*
X121188601Y-93687002D01*
X121347991Y-93687002D01*
X121347991Y-94017420D01*
G36*
X120783713Y-91172307D02*
G01*
X120894268Y-91246177D01*
X121017110Y-91297060D01*
X121147518Y-91323000D01*
X121280482Y-91323000D01*
X121347990Y-91309572D01*
X121347991Y-93428998D01*
X121188601Y-93428998D01*
X121316321Y-93278143D01*
X121263003Y-93119134D01*
X121160303Y-92954131D01*
X121027385Y-92812334D01*
X120869358Y-92699193D01*
X120783098Y-92660152D01*
X120889132Y-92573132D01*
X120979731Y-92462737D01*
X121047053Y-92336788D01*
X121088509Y-92200125D01*
X121102507Y-92058000D01*
X121088509Y-91915875D01*
X121047053Y-91779212D01*
X120979731Y-91653263D01*
X120889132Y-91542868D01*
X120778737Y-91452269D01*
X120652788Y-91384947D01*
X120516125Y-91343491D01*
X120409607Y-91333000D01*
X119195575Y-91333000D01*
X119172802Y-91290395D01*
X119166733Y-91283000D01*
X120409607Y-91283000D01*
X120516125Y-91272509D01*
X120652788Y-91231053D01*
X120776391Y-91164985D01*
X120783713Y-91172307D01*
X120783713Y-91172307D01*
G37*
X120783713Y-91172307D02*
X120894268Y-91246177D01*
X121017110Y-91297060D01*
X121147518Y-91323000D01*
X121280482Y-91323000D01*
X121347990Y-91309572D01*
X121347991Y-93428998D01*
X121188601Y-93428998D01*
X121316321Y-93278143D01*
X121263003Y-93119134D01*
X121160303Y-92954131D01*
X121027385Y-92812334D01*
X120869358Y-92699193D01*
X120783098Y-92660152D01*
X120889132Y-92573132D01*
X120979731Y-92462737D01*
X121047053Y-92336788D01*
X121088509Y-92200125D01*
X121102507Y-92058000D01*
X121088509Y-91915875D01*
X121047053Y-91779212D01*
X120979731Y-91653263D01*
X120889132Y-91542868D01*
X120778737Y-91452269D01*
X120652788Y-91384947D01*
X120516125Y-91343491D01*
X120409607Y-91333000D01*
X119195575Y-91333000D01*
X119172802Y-91290395D01*
X119166733Y-91283000D01*
X120409607Y-91283000D01*
X120516125Y-91272509D01*
X120652788Y-91231053D01*
X120776391Y-91164985D01*
X120783713Y-91172307D01*
G36*
X133729998Y-91208248D02*
G01*
X133601564Y-91079814D01*
X133729998Y-91079814D01*
X133729998Y-91208248D01*
X133729998Y-91208248D01*
G37*
X133729998Y-91208248D02*
X133601564Y-91079814D01*
X133729998Y-91079814D01*
X133729998Y-91208248D01*
G36*
X134567186Y-90093290D02*
G01*
X134567186Y-90792440D01*
X134571371Y-90834932D01*
X134494236Y-90898236D01*
X134415133Y-90994622D01*
X134367027Y-91084621D01*
X134283090Y-91059159D01*
X134159000Y-91046937D01*
X134146250Y-91050000D01*
X133988002Y-91208248D01*
X133988002Y-91052708D01*
X133993200Y-91051131D01*
X134058347Y-91016309D01*
X134115448Y-90969448D01*
X134162309Y-90912347D01*
X134197131Y-90847200D01*
X134218574Y-90776513D01*
X134225814Y-90703000D01*
X134225814Y-90362633D01*
X134298764Y-90302764D01*
X134377867Y-90206378D01*
X134436646Y-90096411D01*
X134467754Y-89993859D01*
X134567186Y-90093290D01*
X134567186Y-90093290D01*
G37*
X134567186Y-90093290D02*
X134567186Y-90792440D01*
X134571371Y-90834932D01*
X134494236Y-90898236D01*
X134415133Y-90994622D01*
X134367027Y-91084621D01*
X134283090Y-91059159D01*
X134159000Y-91046937D01*
X134146250Y-91050000D01*
X133988002Y-91208248D01*
X133988002Y-91052708D01*
X133993200Y-91051131D01*
X134058347Y-91016309D01*
X134115448Y-90969448D01*
X134162309Y-90912347D01*
X134197131Y-90847200D01*
X134218574Y-90776513D01*
X134225814Y-90703000D01*
X134225814Y-90362633D01*
X134298764Y-90302764D01*
X134377867Y-90206378D01*
X134436646Y-90096411D01*
X134467754Y-89993859D01*
X134567186Y-90093290D01*
G36*
X119627000Y-88560000D02*
G01*
X119647000Y-88560000D01*
X119647000Y-88818000D01*
X119627000Y-88818000D01*
X119627000Y-89463750D01*
X119785250Y-89622000D01*
X119823000Y-89625063D01*
X119947090Y-89612841D01*
X120066411Y-89576646D01*
X120176378Y-89517867D01*
X120272764Y-89438764D01*
X120351867Y-89342378D01*
X120371144Y-89306313D01*
X120428800Y-89337131D01*
X120499487Y-89358574D01*
X120573000Y-89365814D01*
X120784708Y-89365814D01*
X121347990Y-89929097D01*
X121347990Y-89986428D01*
X121280482Y-89973000D01*
X121147518Y-89973000D01*
X121017110Y-89998940D01*
X120894695Y-90049646D01*
X120889132Y-90042868D01*
X120778737Y-89952269D01*
X120652788Y-89884947D01*
X120516125Y-89843491D01*
X120409607Y-89833000D01*
X119138393Y-89833000D01*
X119031875Y-89843491D01*
X118895212Y-89884947D01*
X118773246Y-89950140D01*
X118394000Y-89570895D01*
X118394000Y-89368829D01*
X118457513Y-89362574D01*
X118528200Y-89341131D01*
X118593347Y-89306309D01*
X118615247Y-89288336D01*
X118644133Y-89342378D01*
X118723236Y-89438764D01*
X118819622Y-89517867D01*
X118929589Y-89576646D01*
X119048910Y-89612841D01*
X119173000Y-89625063D01*
X119210750Y-89622000D01*
X119369000Y-89463750D01*
X119369000Y-88818000D01*
X119349000Y-88818000D01*
X119349000Y-88560000D01*
X119369000Y-88560000D01*
X119369000Y-88540000D01*
X119627000Y-88540000D01*
X119627000Y-88560000D01*
X119627000Y-88560000D01*
G37*
X119627000Y-88560000D02*
X119647000Y-88560000D01*
X119647000Y-88818000D01*
X119627000Y-88818000D01*
X119627000Y-89463750D01*
X119785250Y-89622000D01*
X119823000Y-89625063D01*
X119947090Y-89612841D01*
X120066411Y-89576646D01*
X120176378Y-89517867D01*
X120272764Y-89438764D01*
X120351867Y-89342378D01*
X120371144Y-89306313D01*
X120428800Y-89337131D01*
X120499487Y-89358574D01*
X120573000Y-89365814D01*
X120784708Y-89365814D01*
X121347990Y-89929097D01*
X121347990Y-89986428D01*
X121280482Y-89973000D01*
X121147518Y-89973000D01*
X121017110Y-89998940D01*
X120894695Y-90049646D01*
X120889132Y-90042868D01*
X120778737Y-89952269D01*
X120652788Y-89884947D01*
X120516125Y-89843491D01*
X120409607Y-89833000D01*
X119138393Y-89833000D01*
X119031875Y-89843491D01*
X118895212Y-89884947D01*
X118773246Y-89950140D01*
X118394000Y-89570895D01*
X118394000Y-89368829D01*
X118457513Y-89362574D01*
X118528200Y-89341131D01*
X118593347Y-89306309D01*
X118615247Y-89288336D01*
X118644133Y-89342378D01*
X118723236Y-89438764D01*
X118819622Y-89517867D01*
X118929589Y-89576646D01*
X119048910Y-89612841D01*
X119173000Y-89625063D01*
X119210750Y-89622000D01*
X119369000Y-89463750D01*
X119369000Y-88818000D01*
X119349000Y-88818000D01*
X119349000Y-88560000D01*
X119369000Y-88560000D01*
X119369000Y-88540000D01*
X119627000Y-88540000D01*
X119627000Y-88560000D01*
G36*
X122820133Y-89342378D02*
G01*
X122899236Y-89438764D01*
X122995622Y-89517867D01*
X123037595Y-89540302D01*
X122942723Y-89603693D01*
X122848703Y-89697713D01*
X122798000Y-89773596D01*
X122798000Y-89320668D01*
X122806189Y-89316291D01*
X122820133Y-89342378D01*
X122820133Y-89342378D01*
G37*
X122820133Y-89342378D02*
X122899236Y-89438764D01*
X122995622Y-89517867D01*
X123037595Y-89540302D01*
X122942723Y-89603693D01*
X122848703Y-89697713D01*
X122798000Y-89773596D01*
X122798000Y-89320668D01*
X122806189Y-89316291D01*
X122820133Y-89342378D01*
G36*
X130628000Y-89439000D02*
G01*
X130648000Y-89439000D01*
X130648000Y-89697000D01*
X130628000Y-89697000D01*
X130628000Y-89717000D01*
X130370000Y-89717000D01*
X130370000Y-89697000D01*
X130350000Y-89697000D01*
X130350000Y-89439000D01*
X130370000Y-89439000D01*
X130370000Y-89419000D01*
X130628000Y-89419000D01*
X130628000Y-89439000D01*
X130628000Y-89439000D01*
G37*
X130628000Y-89439000D02*
X130648000Y-89439000D01*
X130648000Y-89697000D01*
X130628000Y-89697000D01*
X130628000Y-89717000D01*
X130370000Y-89717000D01*
X130370000Y-89697000D01*
X130350000Y-89697000D01*
X130350000Y-89439000D01*
X130370000Y-89439000D01*
X130370000Y-89419000D01*
X130628000Y-89419000D01*
X130628000Y-89439000D01*
G36*
X133653000Y-89424000D02*
G01*
X133673000Y-89424000D01*
X133673000Y-89682000D01*
X133653000Y-89682000D01*
X133653000Y-89702000D01*
X133395000Y-89702000D01*
X133395000Y-89682000D01*
X133375000Y-89682000D01*
X133375000Y-89424000D01*
X133395000Y-89424000D01*
X133395000Y-89404000D01*
X133653000Y-89404000D01*
X133653000Y-89424000D01*
X133653000Y-89424000D01*
G37*
X133653000Y-89424000D02*
X133673000Y-89424000D01*
X133673000Y-89682000D01*
X133653000Y-89682000D01*
X133653000Y-89702000D01*
X133395000Y-89702000D01*
X133395000Y-89682000D01*
X133375000Y-89682000D01*
X133375000Y-89424000D01*
X133395000Y-89424000D01*
X133395000Y-89404000D01*
X133653000Y-89404000D01*
X133653000Y-89424000D01*
G36*
X131425691Y-88702347D02*
G01*
X131472552Y-88759448D01*
X131529653Y-88806309D01*
X131539001Y-88811306D01*
X131539001Y-88818430D01*
X131536581Y-88843000D01*
X131539000Y-88867560D01*
X131539000Y-88981260D01*
X131532552Y-88986552D01*
X131485691Y-89043653D01*
X131450869Y-89108800D01*
X131429426Y-89179487D01*
X131429117Y-89182627D01*
X131422841Y-89118910D01*
X131386646Y-88999589D01*
X131327867Y-88889622D01*
X131248764Y-88793236D01*
X131152378Y-88714133D01*
X131066070Y-88668000D01*
X131407332Y-88668000D01*
X131425691Y-88702347D01*
X131425691Y-88702347D01*
G37*
X131425691Y-88702347D02*
X131472552Y-88759448D01*
X131529653Y-88806309D01*
X131539001Y-88811306D01*
X131539001Y-88818430D01*
X131536581Y-88843000D01*
X131539000Y-88867560D01*
X131539000Y-88981260D01*
X131532552Y-88986552D01*
X131485691Y-89043653D01*
X131450869Y-89108800D01*
X131429426Y-89179487D01*
X131429117Y-89182627D01*
X131422841Y-89118910D01*
X131386646Y-88999589D01*
X131327867Y-88889622D01*
X131248764Y-88793236D01*
X131152378Y-88714133D01*
X131066070Y-88668000D01*
X131407332Y-88668000D01*
X131425691Y-88702347D01*
G36*
X123803000Y-88560000D02*
G01*
X123823000Y-88560000D01*
X123823000Y-88818000D01*
X123803000Y-88818000D01*
X123803000Y-88838000D01*
X123545000Y-88838000D01*
X123545000Y-88818000D01*
X123525000Y-88818000D01*
X123525000Y-88560000D01*
X123545000Y-88560000D01*
X123545000Y-88540000D01*
X123803000Y-88540000D01*
X123803000Y-88560000D01*
X123803000Y-88560000D01*
G37*
X123803000Y-88560000D02*
X123823000Y-88560000D01*
X123823000Y-88818000D01*
X123803000Y-88818000D01*
X123803000Y-88838000D01*
X123545000Y-88838000D01*
X123545000Y-88818000D01*
X123525000Y-88818000D01*
X123525000Y-88560000D01*
X123545000Y-88560000D01*
X123545000Y-88540000D01*
X123803000Y-88540000D01*
X123803000Y-88560000D01*
G36*
X134567186Y-88596624D02*
G01*
X134567186Y-88679079D01*
X134394931Y-88506824D01*
X134379266Y-88487736D01*
X134303131Y-88425254D01*
X134216269Y-88378825D01*
X134122019Y-88350235D01*
X134048562Y-88343000D01*
X134024002Y-88340581D01*
X133999442Y-88343000D01*
X133709750Y-88343000D01*
X133663750Y-88297000D01*
X133018000Y-88297000D01*
X133018000Y-88317000D01*
X132760000Y-88317000D01*
X132760000Y-88297000D01*
X132740000Y-88297000D01*
X132740000Y-88039000D01*
X132760000Y-88039000D01*
X132760000Y-88019000D01*
X133018000Y-88019000D01*
X133018000Y-88039000D01*
X133663750Y-88039000D01*
X133822000Y-87880750D01*
X133824200Y-87853637D01*
X134567186Y-88596624D01*
X134567186Y-88596624D01*
G37*
X134567186Y-88596624D02*
X134567186Y-88679079D01*
X134394931Y-88506824D01*
X134379266Y-88487736D01*
X134303131Y-88425254D01*
X134216269Y-88378825D01*
X134122019Y-88350235D01*
X134048562Y-88343000D01*
X134024002Y-88340581D01*
X133999442Y-88343000D01*
X133709750Y-88343000D01*
X133663750Y-88297000D01*
X133018000Y-88297000D01*
X133018000Y-88317000D01*
X132760000Y-88317000D01*
X132760000Y-88297000D01*
X132740000Y-88297000D01*
X132740000Y-88039000D01*
X132760000Y-88039000D01*
X132760000Y-88019000D01*
X133018000Y-88019000D01*
X133018000Y-88039000D01*
X133663750Y-88039000D01*
X133822000Y-87880750D01*
X133824200Y-87853637D01*
X134567186Y-88596624D01*
G36*
X131913518Y-86903213D02*
G01*
X131913528Y-86903221D01*
X132059217Y-87048911D01*
X132059220Y-87048913D01*
X132293501Y-87283196D01*
X132235622Y-87314133D01*
X132139236Y-87393236D01*
X132079367Y-87466186D01*
X131739000Y-87466186D01*
X131665487Y-87473426D01*
X131594800Y-87494869D01*
X131529653Y-87529691D01*
X131472552Y-87576552D01*
X131425691Y-87633653D01*
X131407332Y-87668000D01*
X130350668Y-87668000D01*
X130332309Y-87633653D01*
X130285448Y-87576552D01*
X130228347Y-87529691D01*
X130163200Y-87494869D01*
X130092513Y-87473426D01*
X130019000Y-87466186D01*
X129419000Y-87466186D01*
X129345487Y-87473426D01*
X129294000Y-87489045D01*
X129242513Y-87473426D01*
X129169000Y-87466186D01*
X128679000Y-87466186D01*
X128679000Y-87441518D01*
X128653060Y-87311110D01*
X128602177Y-87188268D01*
X128601152Y-87186733D01*
X128626902Y-87178922D01*
X128705014Y-87137170D01*
X128773481Y-87080981D01*
X128829670Y-87012514D01*
X128871422Y-86934402D01*
X128897133Y-86849645D01*
X128905814Y-86761500D01*
X128905814Y-86599000D01*
X131609306Y-86599000D01*
X131913518Y-86903213D01*
X131913518Y-86903213D01*
G37*
X131913518Y-86903213D02*
X131913528Y-86903221D01*
X132059217Y-87048911D01*
X132059220Y-87048913D01*
X132293501Y-87283196D01*
X132235622Y-87314133D01*
X132139236Y-87393236D01*
X132079367Y-87466186D01*
X131739000Y-87466186D01*
X131665487Y-87473426D01*
X131594800Y-87494869D01*
X131529653Y-87529691D01*
X131472552Y-87576552D01*
X131425691Y-87633653D01*
X131407332Y-87668000D01*
X130350668Y-87668000D01*
X130332309Y-87633653D01*
X130285448Y-87576552D01*
X130228347Y-87529691D01*
X130163200Y-87494869D01*
X130092513Y-87473426D01*
X130019000Y-87466186D01*
X129419000Y-87466186D01*
X129345487Y-87473426D01*
X129294000Y-87489045D01*
X129242513Y-87473426D01*
X129169000Y-87466186D01*
X128679000Y-87466186D01*
X128679000Y-87441518D01*
X128653060Y-87311110D01*
X128602177Y-87188268D01*
X128601152Y-87186733D01*
X128626902Y-87178922D01*
X128705014Y-87137170D01*
X128773481Y-87080981D01*
X128829670Y-87012514D01*
X128871422Y-86934402D01*
X128897133Y-86849645D01*
X128905814Y-86761500D01*
X128905814Y-86599000D01*
X131609306Y-86599000D01*
X131913518Y-86903213D01*
G36*
X126879000Y-87543001D02*
G01*
X126661105Y-87543001D01*
X126585067Y-87466963D01*
X126662913Y-87458307D01*
X126781648Y-87420234D01*
X126879000Y-87366207D01*
X126879000Y-87543001D01*
X126879000Y-87543001D01*
G37*
X126879000Y-87543001D02*
X126661105Y-87543001D01*
X126585067Y-87466963D01*
X126662913Y-87458307D01*
X126781648Y-87420234D01*
X126879000Y-87366207D01*
X126879000Y-87543001D01*
G36*
X115729840Y-85268434D02*
G01*
X115823860Y-85362454D01*
X115934415Y-85436324D01*
X116057257Y-85487207D01*
X116187665Y-85513147D01*
X116217815Y-85513147D01*
X116230087Y-85574842D01*
X116280970Y-85697684D01*
X116354840Y-85808239D01*
X116445628Y-85899027D01*
X116381250Y-85900000D01*
X116223000Y-86058250D01*
X116223000Y-86869000D01*
X117058750Y-86869000D01*
X117068750Y-86859000D01*
X117765000Y-86859000D01*
X117765000Y-86839000D01*
X118023000Y-86839000D01*
X118023000Y-86859000D01*
X118043000Y-86859000D01*
X118043000Y-87117000D01*
X118023000Y-87117000D01*
X118023000Y-87137000D01*
X117765000Y-87137000D01*
X117765000Y-87117000D01*
X116929250Y-87117000D01*
X116919250Y-87127000D01*
X116223000Y-87127000D01*
X116223000Y-87147000D01*
X115965000Y-87147000D01*
X115965000Y-87127000D01*
X115945000Y-87127000D01*
X115945000Y-86869000D01*
X115965000Y-86869000D01*
X115965000Y-86058250D01*
X115806750Y-85900000D01*
X115604000Y-85896937D01*
X115479910Y-85909159D01*
X115360589Y-85945354D01*
X115320814Y-85966614D01*
X115320814Y-85595304D01*
X115323574Y-85591941D01*
X115696692Y-85218824D01*
X115729840Y-85268434D01*
X115729840Y-85268434D01*
G37*
X115729840Y-85268434D02*
X115823860Y-85362454D01*
X115934415Y-85436324D01*
X116057257Y-85487207D01*
X116187665Y-85513147D01*
X116217815Y-85513147D01*
X116230087Y-85574842D01*
X116280970Y-85697684D01*
X116354840Y-85808239D01*
X116445628Y-85899027D01*
X116381250Y-85900000D01*
X116223000Y-86058250D01*
X116223000Y-86869000D01*
X117058750Y-86869000D01*
X117068750Y-86859000D01*
X117765000Y-86859000D01*
X117765000Y-86839000D01*
X118023000Y-86839000D01*
X118023000Y-86859000D01*
X118043000Y-86859000D01*
X118043000Y-87117000D01*
X118023000Y-87117000D01*
X118023000Y-87137000D01*
X117765000Y-87137000D01*
X117765000Y-87117000D01*
X116929250Y-87117000D01*
X116919250Y-87127000D01*
X116223000Y-87127000D01*
X116223000Y-87147000D01*
X115965000Y-87147000D01*
X115965000Y-87127000D01*
X115945000Y-87127000D01*
X115945000Y-86869000D01*
X115965000Y-86869000D01*
X115965000Y-86058250D01*
X115806750Y-85900000D01*
X115604000Y-85896937D01*
X115479910Y-85909159D01*
X115360589Y-85945354D01*
X115320814Y-85966614D01*
X115320814Y-85595304D01*
X115323574Y-85591941D01*
X115696692Y-85218824D01*
X115729840Y-85268434D01*
G36*
X133021096Y-86034378D02*
G01*
X133006954Y-86048520D01*
X133463568Y-86505134D01*
X133687367Y-86505134D01*
X133716226Y-86480607D01*
X133753763Y-86434868D01*
X134126652Y-86807758D01*
X134054243Y-86785793D01*
X133980786Y-86778558D01*
X133956226Y-86776139D01*
X133931666Y-86778558D01*
X133281134Y-86778558D01*
X133281134Y-86687568D01*
X132824520Y-86230954D01*
X132810378Y-86245096D01*
X132627944Y-86062662D01*
X132642086Y-86048520D01*
X132627944Y-86034378D01*
X132810378Y-85851944D01*
X132824520Y-85866086D01*
X132838662Y-85851944D01*
X133021096Y-86034378D01*
X133021096Y-86034378D01*
G37*
X133021096Y-86034378D02*
X133006954Y-86048520D01*
X133463568Y-86505134D01*
X133687367Y-86505134D01*
X133716226Y-86480607D01*
X133753763Y-86434868D01*
X134126652Y-86807758D01*
X134054243Y-86785793D01*
X133980786Y-86778558D01*
X133956226Y-86776139D01*
X133931666Y-86778558D01*
X133281134Y-86778558D01*
X133281134Y-86687568D01*
X132824520Y-86230954D01*
X132810378Y-86245096D01*
X132627944Y-86062662D01*
X132642086Y-86048520D01*
X132627944Y-86034378D01*
X132810378Y-85851944D01*
X132824520Y-85866086D01*
X132838662Y-85851944D01*
X133021096Y-86034378D01*
G36*
X119011157Y-84594207D02*
G01*
X119105177Y-84688227D01*
X119215732Y-84762097D01*
X119338574Y-84812980D01*
X119468982Y-84838920D01*
X119601946Y-84838920D01*
X119610711Y-84837176D01*
X119604940Y-84851110D01*
X119579000Y-84981518D01*
X119579000Y-85114482D01*
X119604940Y-85244890D01*
X119636110Y-85320140D01*
X119568000Y-85388250D01*
X119568000Y-86059000D01*
X119588000Y-86059000D01*
X119588000Y-86317000D01*
X119568000Y-86317000D01*
X119568000Y-86337000D01*
X119310000Y-86337000D01*
X119310000Y-86317000D01*
X119290000Y-86317000D01*
X119290000Y-86059000D01*
X119310000Y-86059000D01*
X119310000Y-85388250D01*
X119151750Y-85230000D01*
X119139000Y-85226937D01*
X119014910Y-85239159D01*
X118895589Y-85275354D01*
X118827909Y-85311530D01*
X118805879Y-85200776D01*
X118754996Y-85077934D01*
X118681126Y-84967379D01*
X118656819Y-84943072D01*
X118656819Y-84860399D01*
X118940139Y-84577080D01*
X118978615Y-84545504D01*
X119011157Y-84594207D01*
X119011157Y-84594207D01*
G37*
X119011157Y-84594207D02*
X119105177Y-84688227D01*
X119215732Y-84762097D01*
X119338574Y-84812980D01*
X119468982Y-84838920D01*
X119601946Y-84838920D01*
X119610711Y-84837176D01*
X119604940Y-84851110D01*
X119579000Y-84981518D01*
X119579000Y-85114482D01*
X119604940Y-85244890D01*
X119636110Y-85320140D01*
X119568000Y-85388250D01*
X119568000Y-86059000D01*
X119588000Y-86059000D01*
X119588000Y-86317000D01*
X119568000Y-86317000D01*
X119568000Y-86337000D01*
X119310000Y-86337000D01*
X119310000Y-86317000D01*
X119290000Y-86317000D01*
X119290000Y-86059000D01*
X119310000Y-86059000D01*
X119310000Y-85388250D01*
X119151750Y-85230000D01*
X119139000Y-85226937D01*
X119014910Y-85239159D01*
X118895589Y-85275354D01*
X118827909Y-85311530D01*
X118805879Y-85200776D01*
X118754996Y-85077934D01*
X118681126Y-84967379D01*
X118656819Y-84943072D01*
X118656819Y-84860399D01*
X118940139Y-84577080D01*
X118978615Y-84545504D01*
X119011157Y-84594207D01*
G36*
X128677186Y-81761500D02*
G01*
X128685867Y-81849645D01*
X128711578Y-81934402D01*
X128712699Y-81936500D01*
X128711578Y-81938598D01*
X128685867Y-82023355D01*
X128677186Y-82111500D01*
X128677186Y-82261500D01*
X128685867Y-82349645D01*
X128711578Y-82434402D01*
X128712699Y-82436500D01*
X128711578Y-82438598D01*
X128685867Y-82523355D01*
X128677186Y-82611500D01*
X128677186Y-82761500D01*
X128685867Y-82849645D01*
X128711578Y-82934402D01*
X128712699Y-82936500D01*
X128711578Y-82938598D01*
X128685867Y-83023355D01*
X128677186Y-83111500D01*
X128677186Y-83261500D01*
X128685867Y-83349645D01*
X128711578Y-83434402D01*
X128712699Y-83436500D01*
X128711578Y-83438598D01*
X128685867Y-83523355D01*
X128677186Y-83611500D01*
X128677186Y-83761500D01*
X128685867Y-83849645D01*
X128711578Y-83934402D01*
X128712699Y-83936500D01*
X128711578Y-83938598D01*
X128685867Y-84023355D01*
X128677186Y-84111500D01*
X128677186Y-84261500D01*
X128677468Y-84264362D01*
X127913116Y-83500011D01*
X127901337Y-83485658D01*
X127933472Y-83408077D01*
X127959412Y-83277669D01*
X127959412Y-83144705D01*
X127933472Y-83014297D01*
X127882589Y-82891455D01*
X127808719Y-82780900D01*
X127784000Y-82756181D01*
X127784000Y-82035105D01*
X128132606Y-81686500D01*
X128677186Y-81686500D01*
X128677186Y-81761500D01*
X128677186Y-81761500D01*
G37*
X128677186Y-81761500D02*
X128685867Y-81849645D01*
X128711578Y-81934402D01*
X128712699Y-81936500D01*
X128711578Y-81938598D01*
X128685867Y-82023355D01*
X128677186Y-82111500D01*
X128677186Y-82261500D01*
X128685867Y-82349645D01*
X128711578Y-82434402D01*
X128712699Y-82436500D01*
X128711578Y-82438598D01*
X128685867Y-82523355D01*
X128677186Y-82611500D01*
X128677186Y-82761500D01*
X128685867Y-82849645D01*
X128711578Y-82934402D01*
X128712699Y-82936500D01*
X128711578Y-82938598D01*
X128685867Y-83023355D01*
X128677186Y-83111500D01*
X128677186Y-83261500D01*
X128685867Y-83349645D01*
X128711578Y-83434402D01*
X128712699Y-83436500D01*
X128711578Y-83438598D01*
X128685867Y-83523355D01*
X128677186Y-83611500D01*
X128677186Y-83761500D01*
X128685867Y-83849645D01*
X128711578Y-83934402D01*
X128712699Y-83936500D01*
X128711578Y-83938598D01*
X128685867Y-84023355D01*
X128677186Y-84111500D01*
X128677186Y-84261500D01*
X128677468Y-84264362D01*
X127913116Y-83500011D01*
X127901337Y-83485658D01*
X127933472Y-83408077D01*
X127959412Y-83277669D01*
X127959412Y-83144705D01*
X127933472Y-83014297D01*
X127882589Y-82891455D01*
X127808719Y-82780900D01*
X127784000Y-82756181D01*
X127784000Y-82035105D01*
X128132606Y-81686500D01*
X128677186Y-81686500D01*
X128677186Y-81761500D01*
G36*
X122637110Y-83357060D02*
G01*
X122767518Y-83383000D01*
X122900482Y-83383000D01*
X123018999Y-83359425D01*
X123018999Y-83430894D01*
X122744302Y-83705592D01*
X122727228Y-83674825D01*
X122646615Y-83579698D01*
X122570997Y-83519611D01*
X122546422Y-83438598D01*
X122545301Y-83436500D01*
X122546422Y-83434402D01*
X122572133Y-83349645D01*
X122573978Y-83330910D01*
X122637110Y-83357060D01*
X122637110Y-83357060D01*
G37*
X122637110Y-83357060D02*
X122767518Y-83383000D01*
X122900482Y-83383000D01*
X123018999Y-83359425D01*
X123018999Y-83430894D01*
X122744302Y-83705592D01*
X122727228Y-83674825D01*
X122646615Y-83579698D01*
X122570997Y-83519611D01*
X122546422Y-83438598D01*
X122545301Y-83436500D01*
X122546422Y-83434402D01*
X122572133Y-83349645D01*
X122573978Y-83330910D01*
X122637110Y-83357060D01*
G36*
X115527514Y-80845270D02*
G01*
X115642076Y-81008352D01*
X115637186Y-81058000D01*
X115637186Y-82058000D01*
X115644426Y-82131513D01*
X115665869Y-82202200D01*
X115700691Y-82267347D01*
X115747552Y-82324448D01*
X115804653Y-82371309D01*
X115869800Y-82406131D01*
X115940487Y-82427574D01*
X116014000Y-82434814D01*
X116430080Y-82434814D01*
X115318470Y-83546424D01*
X115313574Y-83496707D01*
X115292131Y-83426020D01*
X115257309Y-83360873D01*
X115210448Y-83303772D01*
X115196643Y-83292442D01*
X115210448Y-83281113D01*
X115257309Y-83224012D01*
X115292131Y-83158865D01*
X115313574Y-83088178D01*
X115320814Y-83014665D01*
X115320814Y-82014665D01*
X115313574Y-81941152D01*
X115292131Y-81870465D01*
X115257309Y-81805318D01*
X115210448Y-81748217D01*
X115196643Y-81736888D01*
X115210448Y-81725558D01*
X115257309Y-81668457D01*
X115292131Y-81603310D01*
X115313574Y-81532623D01*
X115320814Y-81459110D01*
X115320814Y-80848292D01*
X115440181Y-80728925D01*
X115459264Y-80713264D01*
X115465716Y-80705402D01*
X115527514Y-80845270D01*
X115527514Y-80845270D01*
G37*
X115527514Y-80845270D02*
X115642076Y-81008352D01*
X115637186Y-81058000D01*
X115637186Y-82058000D01*
X115644426Y-82131513D01*
X115665869Y-82202200D01*
X115700691Y-82267347D01*
X115747552Y-82324448D01*
X115804653Y-82371309D01*
X115869800Y-82406131D01*
X115940487Y-82427574D01*
X116014000Y-82434814D01*
X116430080Y-82434814D01*
X115318470Y-83546424D01*
X115313574Y-83496707D01*
X115292131Y-83426020D01*
X115257309Y-83360873D01*
X115210448Y-83303772D01*
X115196643Y-83292442D01*
X115210448Y-83281113D01*
X115257309Y-83224012D01*
X115292131Y-83158865D01*
X115313574Y-83088178D01*
X115320814Y-83014665D01*
X115320814Y-82014665D01*
X115313574Y-81941152D01*
X115292131Y-81870465D01*
X115257309Y-81805318D01*
X115210448Y-81748217D01*
X115196643Y-81736888D01*
X115210448Y-81725558D01*
X115257309Y-81668457D01*
X115292131Y-81603310D01*
X115313574Y-81532623D01*
X115320814Y-81459110D01*
X115320814Y-80848292D01*
X115440181Y-80728925D01*
X115459264Y-80713264D01*
X115465716Y-80705402D01*
X115527514Y-80845270D01*
G36*
X125405823Y-80977732D02*
G01*
X125479693Y-81088287D01*
X125573713Y-81182307D01*
X125684268Y-81256177D01*
X125807110Y-81307060D01*
X125937518Y-81333000D01*
X126070482Y-81333000D01*
X126200890Y-81307060D01*
X126323732Y-81256177D01*
X126404000Y-81202544D01*
X126484268Y-81256177D01*
X126607110Y-81307060D01*
X126737518Y-81333000D01*
X126870482Y-81333000D01*
X127000890Y-81307060D01*
X127123732Y-81256177D01*
X127199029Y-81205865D01*
X126947819Y-81457076D01*
X126928737Y-81472736D01*
X126866255Y-81548871D01*
X126837157Y-81603310D01*
X126819826Y-81635733D01*
X126791235Y-81729983D01*
X126781581Y-81828000D01*
X126784001Y-81852570D01*
X126784000Y-82673440D01*
X126784000Y-82757005D01*
X126760105Y-82780900D01*
X126686235Y-82891455D01*
X126635352Y-83014297D01*
X126609412Y-83144705D01*
X126609412Y-83277669D01*
X126621052Y-83336187D01*
X125662862Y-83336187D01*
X125638302Y-83333768D01*
X125540285Y-83343422D01*
X125512624Y-83351813D01*
X125482676Y-83360898D01*
X125478095Y-83349839D01*
X125404225Y-83239284D01*
X125379000Y-83214059D01*
X125379000Y-80912976D01*
X125405823Y-80977732D01*
X125405823Y-80977732D01*
G37*
X125405823Y-80977732D02*
X125479693Y-81088287D01*
X125573713Y-81182307D01*
X125684268Y-81256177D01*
X125807110Y-81307060D01*
X125937518Y-81333000D01*
X126070482Y-81333000D01*
X126200890Y-81307060D01*
X126323732Y-81256177D01*
X126404000Y-81202544D01*
X126484268Y-81256177D01*
X126607110Y-81307060D01*
X126737518Y-81333000D01*
X126870482Y-81333000D01*
X127000890Y-81307060D01*
X127123732Y-81256177D01*
X127199029Y-81205865D01*
X126947819Y-81457076D01*
X126928737Y-81472736D01*
X126866255Y-81548871D01*
X126837157Y-81603310D01*
X126819826Y-81635733D01*
X126791235Y-81729983D01*
X126781581Y-81828000D01*
X126784001Y-81852570D01*
X126784000Y-82673440D01*
X126784000Y-82757005D01*
X126760105Y-82780900D01*
X126686235Y-82891455D01*
X126635352Y-83014297D01*
X126609412Y-83144705D01*
X126609412Y-83277669D01*
X126621052Y-83336187D01*
X125662862Y-83336187D01*
X125638302Y-83333768D01*
X125540285Y-83343422D01*
X125512624Y-83351813D01*
X125482676Y-83360898D01*
X125478095Y-83349839D01*
X125404225Y-83239284D01*
X125379000Y-83214059D01*
X125379000Y-80912976D01*
X125405823Y-80977732D01*
G36*
X117390814Y-81474080D02*
G01*
X117390814Y-81058000D01*
X117385924Y-81008352D01*
X117500486Y-80845270D01*
X117590249Y-80642108D01*
X117605594Y-80591499D01*
X117480176Y-80417000D01*
X116643000Y-80417000D01*
X116643000Y-80437000D01*
X116385000Y-80437000D01*
X116385000Y-80417000D01*
X116365000Y-80417000D01*
X116365000Y-80159000D01*
X116385000Y-80159000D01*
X116385000Y-80139000D01*
X116643000Y-80139000D01*
X116643000Y-80159000D01*
X117480176Y-80159000D01*
X117605594Y-79984501D01*
X117590249Y-79933892D01*
X117500486Y-79730730D01*
X117470469Y-79688000D01*
X119176893Y-79688000D01*
X117390814Y-81474080D01*
X117390814Y-81474080D01*
G37*
X117390814Y-81474080D02*
X117390814Y-81058000D01*
X117385924Y-81008352D01*
X117500486Y-80845270D01*
X117590249Y-80642108D01*
X117605594Y-80591499D01*
X117480176Y-80417000D01*
X116643000Y-80417000D01*
X116643000Y-80437000D01*
X116385000Y-80437000D01*
X116385000Y-80417000D01*
X116365000Y-80417000D01*
X116365000Y-80159000D01*
X116385000Y-80159000D01*
X116385000Y-80139000D01*
X116643000Y-80139000D01*
X116643000Y-80159000D01*
X117480176Y-80159000D01*
X117605594Y-79984501D01*
X117590249Y-79933892D01*
X117500486Y-79730730D01*
X117470469Y-79688000D01*
X119176893Y-79688000D01*
X117390814Y-81474080D01*
G36*
X132193000Y-79564000D02*
G01*
X132213000Y-79564000D01*
X132213000Y-79822000D01*
X132193000Y-79822000D01*
X132193000Y-79842000D01*
X131935000Y-79842000D01*
X131935000Y-79822000D01*
X131915000Y-79822000D01*
X131915000Y-79564000D01*
X131935000Y-79564000D01*
X131935000Y-79544000D01*
X132193000Y-79544000D01*
X132193000Y-79564000D01*
X132193000Y-79564000D01*
G37*
X132193000Y-79564000D02*
X132213000Y-79564000D01*
X132213000Y-79822000D01*
X132193000Y-79822000D01*
X132193000Y-79842000D01*
X131935000Y-79842000D01*
X131935000Y-79822000D01*
X131915000Y-79822000D01*
X131915000Y-79564000D01*
X131935000Y-79564000D01*
X131935000Y-79544000D01*
X132193000Y-79544000D01*
X132193000Y-79564000D01*
G36*
X135564001Y-76714601D02*
G01*
X134944000Y-76711937D01*
X134819910Y-76724159D01*
X134700589Y-76760354D01*
X134590622Y-76819133D01*
X134494236Y-76898236D01*
X134415133Y-76994622D01*
X134356354Y-77104589D01*
X134320159Y-77223910D01*
X134307937Y-77348000D01*
X134311000Y-77560750D01*
X134469250Y-77719000D01*
X135564001Y-77719000D01*
X135564001Y-77977000D01*
X134469250Y-77977000D01*
X134311000Y-78135250D01*
X134307937Y-78348000D01*
X134320159Y-78472090D01*
X134356354Y-78591411D01*
X134415133Y-78701378D01*
X134494236Y-78797764D01*
X134571370Y-78861067D01*
X134567186Y-78903555D01*
X134567186Y-79507708D01*
X134365814Y-79709080D01*
X134365814Y-79393000D01*
X134358574Y-79319487D01*
X134351335Y-79295623D01*
X134393060Y-79194890D01*
X134419000Y-79064482D01*
X134419000Y-78931518D01*
X134393060Y-78801110D01*
X134342177Y-78678268D01*
X134268307Y-78567713D01*
X134174287Y-78473693D01*
X134063732Y-78399823D01*
X133940890Y-78348940D01*
X133810482Y-78323000D01*
X133677518Y-78323000D01*
X133547110Y-78348940D01*
X133424268Y-78399823D01*
X133313713Y-78473693D01*
X133219693Y-78567713D01*
X133145823Y-78678268D01*
X133094940Y-78801110D01*
X133069000Y-78931518D01*
X133069000Y-79064482D01*
X133080112Y-79120347D01*
X133072552Y-79126552D01*
X133025691Y-79183653D01*
X133000994Y-79229857D01*
X132976646Y-79149589D01*
X132917867Y-79039622D01*
X132838764Y-78943236D01*
X132742378Y-78864133D01*
X132632411Y-78805354D01*
X132513090Y-78769159D01*
X132415927Y-78759589D01*
X132750191Y-78425325D01*
X132769274Y-78409664D01*
X132831756Y-78333529D01*
X132876704Y-78249438D01*
X132878184Y-78246669D01*
X132879975Y-78240765D01*
X132906775Y-78152417D01*
X132914010Y-78078960D01*
X132914010Y-78078959D01*
X132916429Y-78054401D01*
X132914010Y-78029843D01*
X132914010Y-75552570D01*
X132916429Y-75528010D01*
X132906775Y-75429993D01*
X132898099Y-75401391D01*
X132878185Y-75335743D01*
X132831756Y-75248881D01*
X132769274Y-75172746D01*
X132750196Y-75157090D01*
X132661888Y-75068781D01*
X132692131Y-75012200D01*
X132713574Y-74941513D01*
X132720814Y-74868000D01*
X132720814Y-74268000D01*
X135564001Y-74268000D01*
X135564001Y-76714601D01*
X135564001Y-76714601D01*
G37*
X135564001Y-76714601D02*
X134944000Y-76711937D01*
X134819910Y-76724159D01*
X134700589Y-76760354D01*
X134590622Y-76819133D01*
X134494236Y-76898236D01*
X134415133Y-76994622D01*
X134356354Y-77104589D01*
X134320159Y-77223910D01*
X134307937Y-77348000D01*
X134311000Y-77560750D01*
X134469250Y-77719000D01*
X135564001Y-77719000D01*
X135564001Y-77977000D01*
X134469250Y-77977000D01*
X134311000Y-78135250D01*
X134307937Y-78348000D01*
X134320159Y-78472090D01*
X134356354Y-78591411D01*
X134415133Y-78701378D01*
X134494236Y-78797764D01*
X134571370Y-78861067D01*
X134567186Y-78903555D01*
X134567186Y-79507708D01*
X134365814Y-79709080D01*
X134365814Y-79393000D01*
X134358574Y-79319487D01*
X134351335Y-79295623D01*
X134393060Y-79194890D01*
X134419000Y-79064482D01*
X134419000Y-78931518D01*
X134393060Y-78801110D01*
X134342177Y-78678268D01*
X134268307Y-78567713D01*
X134174287Y-78473693D01*
X134063732Y-78399823D01*
X133940890Y-78348940D01*
X133810482Y-78323000D01*
X133677518Y-78323000D01*
X133547110Y-78348940D01*
X133424268Y-78399823D01*
X133313713Y-78473693D01*
X133219693Y-78567713D01*
X133145823Y-78678268D01*
X133094940Y-78801110D01*
X133069000Y-78931518D01*
X133069000Y-79064482D01*
X133080112Y-79120347D01*
X133072552Y-79126552D01*
X133025691Y-79183653D01*
X133000994Y-79229857D01*
X132976646Y-79149589D01*
X132917867Y-79039622D01*
X132838764Y-78943236D01*
X132742378Y-78864133D01*
X132632411Y-78805354D01*
X132513090Y-78769159D01*
X132415927Y-78759589D01*
X132750191Y-78425325D01*
X132769274Y-78409664D01*
X132831756Y-78333529D01*
X132876704Y-78249438D01*
X132878184Y-78246669D01*
X132879975Y-78240765D01*
X132906775Y-78152417D01*
X132914010Y-78078960D01*
X132914010Y-78078959D01*
X132916429Y-78054401D01*
X132914010Y-78029843D01*
X132914010Y-75552570D01*
X132916429Y-75528010D01*
X132906775Y-75429993D01*
X132898099Y-75401391D01*
X132878185Y-75335743D01*
X132831756Y-75248881D01*
X132769274Y-75172746D01*
X132750196Y-75157090D01*
X132661888Y-75068781D01*
X132692131Y-75012200D01*
X132713574Y-74941513D01*
X132720814Y-74868000D01*
X132720814Y-74268000D01*
X135564001Y-74268000D01*
X135564001Y-76714601D01*
G36*
X126631098Y-78853922D02*
G01*
X126715855Y-78879633D01*
X126804000Y-78888314D01*
X126954000Y-78888314D01*
X126967955Y-78886940D01*
X126767822Y-79087072D01*
X126760600Y-79093000D01*
X126737518Y-79093000D01*
X126607110Y-79118940D01*
X126484268Y-79169823D01*
X126389034Y-79233456D01*
X126323732Y-79189823D01*
X126200890Y-79138940D01*
X126070482Y-79113000D01*
X125937518Y-79113000D01*
X125807110Y-79138940D01*
X125684268Y-79189823D01*
X125573713Y-79263693D01*
X125479693Y-79357713D01*
X125405823Y-79468268D01*
X125379000Y-79533024D01*
X125379000Y-78888314D01*
X125454000Y-78888314D01*
X125542145Y-78879633D01*
X125626902Y-78853922D01*
X125629000Y-78852801D01*
X125631098Y-78853922D01*
X125715855Y-78879633D01*
X125804000Y-78888314D01*
X125954000Y-78888314D01*
X126042145Y-78879633D01*
X126126902Y-78853922D01*
X126129000Y-78852801D01*
X126131098Y-78853922D01*
X126215855Y-78879633D01*
X126304000Y-78888314D01*
X126454000Y-78888314D01*
X126542145Y-78879633D01*
X126626902Y-78853922D01*
X126629000Y-78852801D01*
X126631098Y-78853922D01*
X126631098Y-78853922D01*
G37*
X126631098Y-78853922D02*
X126715855Y-78879633D01*
X126804000Y-78888314D01*
X126954000Y-78888314D01*
X126967955Y-78886940D01*
X126767822Y-79087072D01*
X126760600Y-79093000D01*
X126737518Y-79093000D01*
X126607110Y-79118940D01*
X126484268Y-79169823D01*
X126389034Y-79233456D01*
X126323732Y-79189823D01*
X126200890Y-79138940D01*
X126070482Y-79113000D01*
X125937518Y-79113000D01*
X125807110Y-79138940D01*
X125684268Y-79189823D01*
X125573713Y-79263693D01*
X125479693Y-79357713D01*
X125405823Y-79468268D01*
X125379000Y-79533024D01*
X125379000Y-78888314D01*
X125454000Y-78888314D01*
X125542145Y-78879633D01*
X125626902Y-78853922D01*
X125629000Y-78852801D01*
X125631098Y-78853922D01*
X125715855Y-78879633D01*
X125804000Y-78888314D01*
X125954000Y-78888314D01*
X126042145Y-78879633D01*
X126126902Y-78853922D01*
X126129000Y-78852801D01*
X126131098Y-78853922D01*
X126215855Y-78879633D01*
X126304000Y-78888314D01*
X126454000Y-78888314D01*
X126542145Y-78879633D01*
X126626902Y-78853922D01*
X126629000Y-78852801D01*
X126631098Y-78853922D01*
G36*
X119707362Y-77553781D02*
G01*
X119731922Y-77551362D01*
X121949256Y-77551362D01*
X122322102Y-77924209D01*
X122322113Y-77924218D01*
X122352186Y-77954291D01*
X122352186Y-78436500D01*
X122360867Y-78524645D01*
X122386578Y-78609402D01*
X122428330Y-78687514D01*
X122484519Y-78755981D01*
X122552986Y-78812170D01*
X122631098Y-78853922D01*
X122712111Y-78878497D01*
X122772198Y-78954115D01*
X122858368Y-79027138D01*
X122725639Y-79159868D01*
X122710502Y-79159868D01*
X122580814Y-79185665D01*
X122580814Y-79111500D01*
X122572133Y-79023355D01*
X122546422Y-78938598D01*
X122504670Y-78860486D01*
X122448481Y-78792019D01*
X122380014Y-78735830D01*
X122301902Y-78694078D01*
X122217145Y-78668367D01*
X122129000Y-78659686D01*
X120804000Y-78659686D01*
X120715855Y-78668367D01*
X120656079Y-78686500D01*
X120380049Y-78686500D01*
X120355499Y-78684082D01*
X120330949Y-78686500D01*
X120330940Y-78686500D01*
X120315710Y-78688000D01*
X117328267Y-78688000D01*
X117326305Y-78681532D01*
X117245056Y-78529524D01*
X117135712Y-78396288D01*
X117119521Y-78383000D01*
X117135712Y-78369712D01*
X117235598Y-78248000D01*
X118399406Y-78248000D01*
X118423713Y-78272307D01*
X118534268Y-78346177D01*
X118657110Y-78397060D01*
X118787518Y-78423000D01*
X118920482Y-78423000D01*
X119050890Y-78397060D01*
X119173732Y-78346177D01*
X119284287Y-78272307D01*
X119378307Y-78178287D01*
X119452177Y-78067732D01*
X119503060Y-77944890D01*
X119529000Y-77814482D01*
X119529000Y-77681518D01*
X119507194Y-77571894D01*
X119551042Y-77558593D01*
X119564570Y-77551362D01*
X119682802Y-77551362D01*
X119707362Y-77553781D01*
X119707362Y-77553781D01*
G37*
X119707362Y-77553781D02*
X119731922Y-77551362D01*
X121949256Y-77551362D01*
X122322102Y-77924209D01*
X122322113Y-77924218D01*
X122352186Y-77954291D01*
X122352186Y-78436500D01*
X122360867Y-78524645D01*
X122386578Y-78609402D01*
X122428330Y-78687514D01*
X122484519Y-78755981D01*
X122552986Y-78812170D01*
X122631098Y-78853922D01*
X122712111Y-78878497D01*
X122772198Y-78954115D01*
X122858368Y-79027138D01*
X122725639Y-79159868D01*
X122710502Y-79159868D01*
X122580814Y-79185665D01*
X122580814Y-79111500D01*
X122572133Y-79023355D01*
X122546422Y-78938598D01*
X122504670Y-78860486D01*
X122448481Y-78792019D01*
X122380014Y-78735830D01*
X122301902Y-78694078D01*
X122217145Y-78668367D01*
X122129000Y-78659686D01*
X120804000Y-78659686D01*
X120715855Y-78668367D01*
X120656079Y-78686500D01*
X120380049Y-78686500D01*
X120355499Y-78684082D01*
X120330949Y-78686500D01*
X120330940Y-78686500D01*
X120315710Y-78688000D01*
X117328267Y-78688000D01*
X117326305Y-78681532D01*
X117245056Y-78529524D01*
X117135712Y-78396288D01*
X117119521Y-78383000D01*
X117135712Y-78369712D01*
X117235598Y-78248000D01*
X118399406Y-78248000D01*
X118423713Y-78272307D01*
X118534268Y-78346177D01*
X118657110Y-78397060D01*
X118787518Y-78423000D01*
X118920482Y-78423000D01*
X119050890Y-78397060D01*
X119173732Y-78346177D01*
X119284287Y-78272307D01*
X119378307Y-78178287D01*
X119452177Y-78067732D01*
X119503060Y-77944890D01*
X119529000Y-77814482D01*
X119529000Y-77681518D01*
X119507194Y-77571894D01*
X119551042Y-77558593D01*
X119564570Y-77551362D01*
X119682802Y-77551362D01*
X119707362Y-77553781D01*
G36*
X129521997Y-75134448D02*
G01*
X129579098Y-75181309D01*
X129644245Y-75216131D01*
X129714932Y-75237574D01*
X129788445Y-75244814D01*
X130263708Y-75244814D01*
X130450206Y-75431313D01*
X130488736Y-75478262D01*
X130507824Y-75493927D01*
X130885956Y-75872059D01*
X130793713Y-75933693D01*
X130771277Y-75956129D01*
X130732411Y-75935354D01*
X130613090Y-75899159D01*
X130489000Y-75886937D01*
X130451250Y-75890000D01*
X130293000Y-76048250D01*
X130293000Y-76694000D01*
X130313000Y-76694000D01*
X130313000Y-76952000D01*
X130293000Y-76952000D01*
X130293000Y-76972000D01*
X130035000Y-76972000D01*
X130035000Y-76952000D01*
X129364250Y-76952000D01*
X129206000Y-77110250D01*
X129202937Y-77123000D01*
X129215159Y-77247090D01*
X129251354Y-77366411D01*
X129310133Y-77476378D01*
X129387079Y-77570136D01*
X129373755Y-77586371D01*
X129327451Y-77673000D01*
X129327326Y-77673233D01*
X129298735Y-77767483D01*
X129289081Y-77865500D01*
X129291501Y-77890070D01*
X129291500Y-78659686D01*
X129129000Y-78659686D01*
X129040855Y-78668367D01*
X128981079Y-78686500D01*
X128830212Y-78686500D01*
X128871422Y-78609402D01*
X128897133Y-78524645D01*
X128905814Y-78436500D01*
X128905814Y-77111500D01*
X128897133Y-77023355D01*
X128879000Y-76963579D01*
X128879000Y-76523000D01*
X129202937Y-76523000D01*
X129206000Y-76535750D01*
X129364250Y-76694000D01*
X130035000Y-76694000D01*
X130035000Y-76048250D01*
X129876750Y-75890000D01*
X129839000Y-75886937D01*
X129714910Y-75899159D01*
X129595589Y-75935354D01*
X129485622Y-75994133D01*
X129389236Y-76073236D01*
X129310133Y-76169622D01*
X129251354Y-76279589D01*
X129215159Y-76398910D01*
X129202937Y-76523000D01*
X128879000Y-76523000D01*
X128879000Y-75244814D01*
X129232890Y-75244814D01*
X129306403Y-75237574D01*
X129377090Y-75216131D01*
X129442237Y-75181309D01*
X129499338Y-75134448D01*
X129510668Y-75120643D01*
X129521997Y-75134448D01*
X129521997Y-75134448D01*
G37*
X129521997Y-75134448D02*
X129579098Y-75181309D01*
X129644245Y-75216131D01*
X129714932Y-75237574D01*
X129788445Y-75244814D01*
X130263708Y-75244814D01*
X130450206Y-75431313D01*
X130488736Y-75478262D01*
X130507824Y-75493927D01*
X130885956Y-75872059D01*
X130793713Y-75933693D01*
X130771277Y-75956129D01*
X130732411Y-75935354D01*
X130613090Y-75899159D01*
X130489000Y-75886937D01*
X130451250Y-75890000D01*
X130293000Y-76048250D01*
X130293000Y-76694000D01*
X130313000Y-76694000D01*
X130313000Y-76952000D01*
X130293000Y-76952000D01*
X130293000Y-76972000D01*
X130035000Y-76972000D01*
X130035000Y-76952000D01*
X129364250Y-76952000D01*
X129206000Y-77110250D01*
X129202937Y-77123000D01*
X129215159Y-77247090D01*
X129251354Y-77366411D01*
X129310133Y-77476378D01*
X129387079Y-77570136D01*
X129373755Y-77586371D01*
X129327451Y-77673000D01*
X129327326Y-77673233D01*
X129298735Y-77767483D01*
X129289081Y-77865500D01*
X129291501Y-77890070D01*
X129291500Y-78659686D01*
X129129000Y-78659686D01*
X129040855Y-78668367D01*
X128981079Y-78686500D01*
X128830212Y-78686500D01*
X128871422Y-78609402D01*
X128897133Y-78524645D01*
X128905814Y-78436500D01*
X128905814Y-77111500D01*
X128897133Y-77023355D01*
X128879000Y-76963579D01*
X128879000Y-76523000D01*
X129202937Y-76523000D01*
X129206000Y-76535750D01*
X129364250Y-76694000D01*
X130035000Y-76694000D01*
X130035000Y-76048250D01*
X129876750Y-75890000D01*
X129839000Y-75886937D01*
X129714910Y-75899159D01*
X129595589Y-75935354D01*
X129485622Y-75994133D01*
X129389236Y-76073236D01*
X129310133Y-76169622D01*
X129251354Y-76279589D01*
X129215159Y-76398910D01*
X129202937Y-76523000D01*
X128879000Y-76523000D01*
X128879000Y-75244814D01*
X129232890Y-75244814D01*
X129306403Y-75237574D01*
X129377090Y-75216131D01*
X129442237Y-75181309D01*
X129499338Y-75134448D01*
X129510668Y-75120643D01*
X129521997Y-75134448D01*
G36*
X116707937Y-74868000D02*
G01*
X116720159Y-74992090D01*
X116756354Y-75111411D01*
X116815133Y-75221378D01*
X116894236Y-75317764D01*
X116990622Y-75396867D01*
X117100589Y-75455646D01*
X117219910Y-75491841D01*
X117344000Y-75504063D01*
X117556750Y-75501000D01*
X117715000Y-75342750D01*
X117715000Y-74268000D01*
X117973000Y-74268000D01*
X117973000Y-75342750D01*
X118131250Y-75501000D01*
X118344000Y-75504063D01*
X118366866Y-75501811D01*
X118366866Y-75528432D01*
X118823480Y-75985046D01*
X118837622Y-75970904D01*
X119020056Y-76153338D01*
X119005914Y-76167480D01*
X119020056Y-76181622D01*
X118837622Y-76364056D01*
X118823480Y-76349914D01*
X118809338Y-76364056D01*
X118626904Y-76181622D01*
X118641046Y-76167480D01*
X118184432Y-75710866D01*
X117960633Y-75710866D01*
X117931774Y-75735393D01*
X117852671Y-75831780D01*
X117793892Y-75941747D01*
X117757697Y-76061068D01*
X117745476Y-76185158D01*
X117757697Y-76309247D01*
X117793892Y-76428569D01*
X117852671Y-76538535D01*
X117863198Y-76551362D01*
X117386008Y-76551362D01*
X117393233Y-76478000D01*
X117376339Y-76306470D01*
X117326305Y-76141532D01*
X117245056Y-75989524D01*
X117135712Y-75856288D01*
X117002476Y-75746944D01*
X116850468Y-75665695D01*
X116685530Y-75615661D01*
X116556979Y-75603000D01*
X116471021Y-75603000D01*
X116342470Y-75615661D01*
X116177532Y-75665695D01*
X116025524Y-75746944D01*
X115892288Y-75856288D01*
X115782944Y-75989524D01*
X115701695Y-76141532D01*
X115651661Y-76306470D01*
X115634767Y-76478000D01*
X115651661Y-76649530D01*
X115701695Y-76814468D01*
X115782944Y-76966476D01*
X115892288Y-77099712D01*
X115908479Y-77113000D01*
X115892288Y-77126288D01*
X115782944Y-77259524D01*
X115701695Y-77411532D01*
X115651661Y-77576470D01*
X115634767Y-77748000D01*
X115650200Y-77904695D01*
X115498322Y-78056572D01*
X115418750Y-77977000D01*
X114364000Y-77977000D01*
X114364000Y-77719000D01*
X115418750Y-77719000D01*
X115577000Y-77560750D01*
X115580063Y-77348000D01*
X115567841Y-77223910D01*
X115531646Y-77104589D01*
X115472867Y-76994622D01*
X115393764Y-76898236D01*
X115297378Y-76819133D01*
X115187411Y-76760354D01*
X115068090Y-76724159D01*
X114944000Y-76711937D01*
X114364000Y-76714430D01*
X114364000Y-74268000D01*
X116710515Y-74268000D01*
X116707937Y-74868000D01*
X116707937Y-74868000D01*
G37*
X116707937Y-74868000D02*
X116720159Y-74992090D01*
X116756354Y-75111411D01*
X116815133Y-75221378D01*
X116894236Y-75317764D01*
X116990622Y-75396867D01*
X117100589Y-75455646D01*
X117219910Y-75491841D01*
X117344000Y-75504063D01*
X117556750Y-75501000D01*
X117715000Y-75342750D01*
X117715000Y-74268000D01*
X117973000Y-74268000D01*
X117973000Y-75342750D01*
X118131250Y-75501000D01*
X118344000Y-75504063D01*
X118366866Y-75501811D01*
X118366866Y-75528432D01*
X118823480Y-75985046D01*
X118837622Y-75970904D01*
X119020056Y-76153338D01*
X119005914Y-76167480D01*
X119020056Y-76181622D01*
X118837622Y-76364056D01*
X118823480Y-76349914D01*
X118809338Y-76364056D01*
X118626904Y-76181622D01*
X118641046Y-76167480D01*
X118184432Y-75710866D01*
X117960633Y-75710866D01*
X117931774Y-75735393D01*
X117852671Y-75831780D01*
X117793892Y-75941747D01*
X117757697Y-76061068D01*
X117745476Y-76185158D01*
X117757697Y-76309247D01*
X117793892Y-76428569D01*
X117852671Y-76538535D01*
X117863198Y-76551362D01*
X117386008Y-76551362D01*
X117393233Y-76478000D01*
X117376339Y-76306470D01*
X117326305Y-76141532D01*
X117245056Y-75989524D01*
X117135712Y-75856288D01*
X117002476Y-75746944D01*
X116850468Y-75665695D01*
X116685530Y-75615661D01*
X116556979Y-75603000D01*
X116471021Y-75603000D01*
X116342470Y-75615661D01*
X116177532Y-75665695D01*
X116025524Y-75746944D01*
X115892288Y-75856288D01*
X115782944Y-75989524D01*
X115701695Y-76141532D01*
X115651661Y-76306470D01*
X115634767Y-76478000D01*
X115651661Y-76649530D01*
X115701695Y-76814468D01*
X115782944Y-76966476D01*
X115892288Y-77099712D01*
X115908479Y-77113000D01*
X115892288Y-77126288D01*
X115782944Y-77259524D01*
X115701695Y-77411532D01*
X115651661Y-77576470D01*
X115634767Y-77748000D01*
X115650200Y-77904695D01*
X115498322Y-78056572D01*
X115418750Y-77977000D01*
X114364000Y-77977000D01*
X114364000Y-77719000D01*
X115418750Y-77719000D01*
X115577000Y-77560750D01*
X115580063Y-77348000D01*
X115567841Y-77223910D01*
X115531646Y-77104589D01*
X115472867Y-76994622D01*
X115393764Y-76898236D01*
X115297378Y-76819133D01*
X115187411Y-76760354D01*
X115068090Y-76724159D01*
X114944000Y-76711937D01*
X114364000Y-76714430D01*
X114364000Y-74268000D01*
X116710515Y-74268000D01*
X116707937Y-74868000D01*
M02*
